<?xml version="1.0" encoding="UTF-8" standalone="no"?>
<svg width="144px" height="43px" viewBox="0 0 144 43" version="1.1" xmlns="http://www.w3.org/2000/svg" xmlns:xlink="http://www.w3.org/1999/xlink" xmlns:sketch="http://www.bohemiancoding.com/sketch/ns">
    <!-- Generator: Sketch 3.2.2 (9983) - http://www.bohemiancoding.com/sketch -->
    <title>apple-store</title>
    <desc>Created with Sketch.</desc>
    <defs></defs>
    <g id="Page-1" stroke="none" stroke-width="1" fill="none" fill-rule="evenodd" sketch:type="MSPage">
        <g id="Home" sketch:type="MSArtboardGroup" transform="translate(-790.000000, -4958.000000)">
            <g id="Footer" sketch:type="MSLayerGroup" transform="translate(0.000000, 4355.000000)">
                <g id="Download_on_the_App_Store_Badge_US-UK_135x40" sketch:type="MSShapeGroup">
                    <g id="Group">
                        <g id="apple-store">
                            <g transform="translate(790.000000, 603.000000)">
                                <path d="M142.59732,37.88275 C142.59732,40.15745 140.7733,42 138.517219,42 L4.99446522,42 C2.73944833,42 0.909042925,40.15745 0.909042925,37.88275 L0.909042925,5.049025 C0.909042925,2.7754 2.73944833,0.9264 4.99446522,0.9264 L138.516154,0.9264 C140.7733,0.9264 142.596256,2.7754 142.596256,5.049025 L142.59732,37.88275 L142.59732,37.88275 Z" id="Shape" stroke="#F0F0F3" fill="#FFFFFF"></path>
                                <path d="M32.0238064,21.23745 C31.992945,17.772725 34.8322017,16.087125 34.9620328,16.00865 C33.3540429,13.640425 30.8617118,13.31685 29.9858841,13.29105 C27.892624,13.068525 25.862151,14.556325 24.7958335,14.556325 C23.7082321,14.556325 22.0661882,13.31255 20.2964416,13.3491 C18.0190767,13.384575 15.88857,14.7165 14.7200902,16.7848 C12.3086375,21.002025 14.1071172,27.1994 16.417472,30.608225 C17.5731814,32.2777 18.9236375,34.14175 20.6912558,34.076175 C22.4205632,34.00415 23.066526,32.962475 25.153401,32.962475 C27.2211206,32.962475 27.8277085,34.076175 29.630445,34.03425 C31.4863909,34.00415 32.6548706,32.35725 33.7701409,30.672725 C35.1056983,28.759225 35.6420497,26.87475 35.6633335,26.778 C35.6197017,26.76295 32.0589247,25.390175 32.0238064,21.23745 L32.0238064,21.23745 Z" id="Shape" fill="#434F62"></path>
                                <path d="M28.618401,11.0486 C29.5485024,9.873625 30.1848875,8.2751 30.0082321,6.652925 C28.6620328,6.713125 26.9784855,7.59355 26.0090091,8.742725 C25.1512727,9.755375 24.3850564,11.415175 24.5829956,12.976075 C26.0952085,13.090025 27.6478605,12.2053 28.618401,11.0486 L28.618401,11.0486 Z" id="Shape" fill="#434F62"></path>
                                <path d="M57.0503436,33.83645 L54.63357,33.83645 L53.3097186,29.634275 L48.7081645,29.634275 L47.4471004,33.83645 L45.0941781,33.83645 L49.6531645,19.53035 L52.4690091,19.53035 L57.0503436,33.83645 L57.0503436,33.83645 Z M52.9106477,27.871275 L51.7134348,24.13565 C51.5867963,23.754025 51.3494821,22.855325 50.9993639,21.440625 L50.9567963,21.440625 C50.8173875,22.049075 50.5928436,22.947775 50.2842287,24.13565 L49.1082997,27.871275 L52.9106477,27.871275 L52.9106477,27.871275 Z" id="Shape" fill="#434F62"></path>
                                <path d="M68.7745159,28.55175 C68.7745159,30.30615 68.3052085,31.6929 67.3665936,32.710925 C66.5258841,33.61715 65.4819145,34.069725 64.235749,34.069725 C62.8906139,34.069725 61.9243301,33.581675 61.3358335,32.605575 L61.2932659,32.605575 L61.2932659,38.0397 L59.0244145,38.0397 L59.0244145,26.916675 C59.0244145,25.813725 58.9956814,24.68175 58.9403436,23.52075 L60.9356983,23.52075 L61.0623368,25.155825 L61.1049044,25.155825 C61.8615429,23.923875 63.0098031,23.308975 64.550749,23.308975 C65.7554112,23.308975 66.76107,23.7895 67.565597,24.751625 C68.3722524,25.714825 68.7745159,26.981175 68.7745159,28.55175 L68.7745159,28.55175 Z M66.463097,28.6356 C66.463097,27.63155 66.2396172,26.8038 65.7905294,26.15235 C65.2999382,25.47295 64.6412051,25.13325 63.8153943,25.13325 C63.2556308,25.13325 62.7469483,25.32245 62.2925395,25.695475 C61.8370666,26.071725 61.5390936,26.563 61.3996848,27.17145 C61.3294483,27.45525 61.2943301,27.68745 61.2943301,27.8702 L61.2943301,29.5902 C61.2943301,30.34055 61.5220666,30.973725 61.9775395,31.4908 C62.4330125,32.007875 63.0247017,32.265875 63.7526071,32.265875 C64.607151,32.265875 65.2722693,31.932625 65.7479618,31.268275 C66.2247186,30.60285 66.463097,29.72565 66.463097,28.6356 L66.463097,28.6356 Z" id="Shape" fill="#434F62"></path>
                                <path d="M80.519972,28.55175 C80.519972,30.30615 80.0506645,31.6929 79.1109855,32.710925 C78.2713402,33.61715 77.2273706,34.069725 75.9812051,34.069725 C74.63607,34.069725 73.6697862,33.581675 73.0823537,32.605575 L73.0397862,32.605575 L73.0397862,38.0397 L70.7709348,38.0397 L70.7709348,26.916675 C70.7709348,25.813725 70.7422017,24.68175 70.6868639,23.52075 L72.6822186,23.52075 L72.8088571,25.155825 L72.8514247,25.155825 C73.606999,23.923875 74.7552591,23.308975 76.2972693,23.308975 C77.5008672,23.308975 78.506526,23.7895 79.3131814,24.751625 C80.1166443,25.714825 80.519972,26.981175 80.519972,28.55175 L80.519972,28.55175 Z M78.2085531,28.6356 C78.2085531,27.63155 77.9840091,26.8038 77.5349213,26.15235 C77.0443301,25.47295 76.3877254,25.13325 75.5608504,25.13325 C75.0000227,25.13325 74.4924044,25.32245 74.0369314,25.695475 C73.5814585,26.071725 73.2845497,26.563 73.1451409,27.17145 C73.0759686,27.45525 73.0397862,27.68745 73.0397862,27.8702 L73.0397862,29.5902 C73.0397862,30.34055 73.2675227,30.973725 73.7208672,31.4908 C74.1763402,32.0068 74.7680294,32.265875 75.4980632,32.265875 C76.3526071,32.265875 77.0177254,31.932625 77.4934179,31.268275 C77.9701747,30.60285 78.2085531,29.72565 78.2085531,28.6356 L78.2085531,28.6356 Z" id="Shape" fill="#434F62"></path>
                                <path d="M93.6520666,29.82455 C93.6520666,31.04145 93.2338402,32.031525 92.394195,32.79585 C91.4715429,33.631125 90.1870666,34.048225 88.5365091,34.048225 C87.0125902,34.048225 85.790901,33.751525 84.8661206,33.15705 L85.3918301,31.246775 C86.3879112,31.855225 87.4808335,32.160525 88.6716612,32.160525 C89.5262051,32.160525 90.1913233,31.964875 90.6691443,31.575725 C91.1448368,31.186575 91.382151,30.664125 91.382151,30.012675 C91.382151,29.432175 91.1863402,28.94305 90.7936544,28.546375 C90.403097,28.1497 89.750749,27.780975 88.8398031,27.4402 C86.3602422,26.506025 85.121526,25.13755 85.121526,23.338 C85.121526,22.16195 85.5557152,21.197675 86.4251578,20.447325 C87.2914078,19.6959 88.4471172,19.320725 89.8922862,19.320725 C91.1810193,19.320725 92.2515936,19.54755 93.1061375,20.000125 L92.5389247,21.868475 C91.7407828,21.429875 90.8383504,21.210575 89.8284348,21.210575 C89.0302929,21.210575 88.4066781,21.40945 87.9597186,21.80505 C87.5819314,22.158725 87.3925058,22.5898 87.3925058,23.100425 C87.3925058,23.665875 87.6085362,24.1335 88.0427254,24.50115 C88.4205125,24.84085 89.1069145,25.2085 90.1029956,25.605175 C91.3214922,26.10075 92.2164754,26.680175 92.7922017,27.344525 C93.3657997,28.006725 93.6520666,28.83555 93.6520666,29.82455 L93.6520666,29.82455 Z" id="Shape" fill="#434F62"></path>
                                <path d="M101.153536,25.24075 L98.6526916,25.24075 L98.6526916,30.249175 C98.6526916,31.52305 99.0932659,32.15945 99.9765429,32.15945 C100.381999,32.15945 100.718283,32.123975 100.98433,32.053025 L101.047117,33.79345 C100.600158,33.962225 100.011661,34.04715 99.2826916,34.04715 C98.3866443,34.04715 97.6864078,33.770875 97.1809179,33.2194 C96.6775564,32.66685 96.4242794,31.7402 96.4242794,30.438375 L96.4242794,25.2386 L94.9344145,25.2386 L94.9344145,23.5186 L96.4242794,23.5186 L96.4242794,21.629825 L98.6526916,20.950425 L98.6526916,23.5186 L101.153536,23.5186 L101.153536,25.24075 L101.153536,25.24075 Z" id="Shape" fill="#434F62"></path>
                                <path d="M112.437134,28.593675 C112.437134,30.1793 111.988046,31.481125 111.091999,32.49915 C110.15232,33.547275 108.90509,34.069725 107.35031,34.069725 C105.851931,34.069725 104.658975,33.5677 103.769313,32.56365 C102.879651,31.5596 102.43482,30.292175 102.43482,28.7646 C102.43482,27.166075 102.892421,25.856725 103.810817,24.8387 C104.727083,23.8196 105.963671,23.31005 107.518452,23.31005 C109.01683,23.31005 110.222556,23.812075 111.132438,24.8172 C112.002945,25.792225 112.437134,27.05105 112.437134,28.593675 L112.437134,28.593675 Z M110.083148,28.66785 C110.083148,27.716475 109.882016,26.90055 109.474431,26.220075 C108.998739,25.396625 108.318722,24.985975 107.437573,24.985975 C106.525563,24.985975 105.832776,25.3977 105.357083,26.220075 C104.949499,26.901625 104.748367,27.73045 104.748367,28.71085 C104.748367,29.662225 104.949499,30.47815 105.357083,31.15755 C105.847675,31.981 106.533013,32.39165 107.417354,32.39165 C108.283604,32.39165 108.963621,31.9724 109.454212,31.13605 C109.872438,30.442675 110.083148,29.61815 110.083148,28.66785 L110.083148,28.66785 Z" id="Shape" fill="#434F62"></path>
                                <path d="M119.811965,25.536375 C119.587421,25.49445 119.347979,25.47295 119.09683,25.47295 C118.298688,25.47295 117.681458,25.777175 117.247269,26.3867 C116.869482,26.9242 116.680056,27.6036 116.680056,28.423825 L116.680056,33.83645 L114.412269,33.83645 L114.433553,26.7694 C114.433553,25.58045 114.40482,24.497925 114.348418,23.521825 L116.324617,23.521825 L116.407624,25.495525 L116.470411,25.495525 C116.709854,24.8172 117.087641,24.2711 117.604837,23.861525 C118.110327,23.4928 118.656256,23.308975 119.244752,23.308975 C119.454398,23.308975 119.643823,23.324025 119.811965,23.3509 L119.811965,25.536375 L119.811965,25.536375 Z" id="Shape" fill="#434F62"></path>
                                <path d="M129.959009,28.19055 C129.959009,28.6012 129.932404,28.94735 129.876002,29.230075 L123.069448,29.230075 C123.096053,30.249175 123.424888,31.02855 124.057016,31.56605 C124.630614,32.046575 125.372354,32.287375 126.2833,32.287375 C127.291087,32.287375 128.210546,32.12505 129.037421,31.799325 L129.39286,33.390325 C128.426577,33.816025 127.285766,34.0278 125.969364,34.0278 C124.38585,34.0278 123.142877,33.55695 122.238317,32.616325 C121.335884,31.6757 120.883604,30.412575 120.883604,28.828025 C120.883604,27.2725 121.303958,25.977125 122.145732,24.94405 C123.026881,23.8411 124.217708,23.289625 125.716087,23.289625 C127.18786,23.289625 128.302067,23.8411 129.058705,24.94405 C129.657844,25.820175 129.959009,26.903775 129.959009,28.19055 L129.959009,28.19055 Z M127.795513,27.596075 C127.810411,26.916675 127.662489,26.329725 127.354938,25.83415 C126.962252,25.196675 126.358857,24.878475 125.546881,24.878475 C124.805141,24.878475 124.201746,25.18915 123.740952,25.81265 C123.363165,26.308225 123.138621,26.9027 123.069448,27.595 L127.795513,27.595 L127.795513,27.596075 Z" id="Shape" fill="#434F62"></path>
                                <path d="M52.1603943,10.729325 C52.1603943,11.9946 51.7847355,12.94705 51.0344821,13.586675 C50.3395666,14.17685 49.351999,14.472475 48.0728436,14.472475 C47.4385868,14.472475 46.8958504,14.444525 46.4414416,14.388625 L46.4414416,7.4753 C47.034195,7.37855 47.6727085,7.3291 48.3623031,7.3291 C49.5807997,7.3291 50.499195,7.596775 51.1185531,8.132125 C51.8124044,8.73735 52.1603943,9.602725 52.1603943,10.729325 L52.1603943,10.729325 Z M50.9844652,10.7605 C50.9844652,9.940275 50.769499,9.3114 50.3395666,8.8728 C49.9096341,8.435275 49.2817625,8.215975 48.4548875,8.215975 C48.1037051,8.215975 47.8046679,8.239625 47.5567118,8.289075 L47.5567118,13.54475 C47.6939922,13.56625 47.9451409,13.575925 48.3101578,13.575925 C49.1636375,13.575925 49.8223706,13.3362 50.2863571,12.85675 C50.7503436,12.3773 50.9844652,11.67855 50.9844652,10.7605 L50.9844652,10.7605 Z" id="Shape" fill="#434F62"></path>
                                <path d="M58.3954787,11.834425 C58.3954787,12.6138 58.1751916,13.25235 57.7346172,13.7533 C57.2727591,14.268225 56.6608504,14.52515 55.8967625,14.52515 C55.1603436,14.52515 54.5739754,14.278975 54.1365936,13.784475 C53.700276,13.29105 53.4821172,12.668625 53.4821172,11.918275 C53.4821172,11.133525 53.7066612,10.4896 54.1578774,9.989725 C54.6090936,9.48985 55.2156814,9.239375 55.9797693,9.239375 C56.7161882,9.239375 57.3078774,9.48555 57.755901,9.978975 C58.1815767,10.458425 58.3954787,11.077625 58.3954787,11.834425 L58.3954787,11.834425 Z M57.2387051,11.870975 C57.2387051,11.40335 57.1386713,11.002375 56.9396679,10.66805 C56.7055463,10.26385 56.3724551,10.06175 55.9393301,10.06175 C55.4913064,10.06175 55.1507659,10.26385 54.9166443,10.66805 C54.7165767,11.002375 54.6176071,11.4098 54.6176071,11.8914 C54.6176071,12.359025 54.7176409,12.76 54.9166443,13.094325 C55.1582152,13.498525 55.494499,13.700625 55.9286882,13.700625 C56.3543639,13.700625 56.6885193,13.4953 56.929026,13.083575 C57.1354787,12.7428 57.2387051,12.3386 57.2387051,11.870975 L57.2387051,11.870975 Z" id="Shape" fill="#434F62"></path>
                                <path d="M66.755749,9.342575 L65.18607,14.410125 L64.1644483,14.410125 L63.5142287,12.2096 C63.3492794,11.660275 63.2151916,11.114175 63.110901,10.572375 L63.0906814,10.572375 C62.9938402,11.129225 62.8597524,11.67425 62.6873537,12.2096 L61.996695,14.410125 L60.9633672,14.410125 L59.4873368,9.342575 L60.6334686,9.342575 L61.2006814,11.75165 C61.3379618,12.3214 61.4507659,12.864275 61.541222,13.378125 L61.5614416,13.378125 C61.6444483,12.954575 61.7817287,12.414925 61.9754112,11.7624 L62.6873537,9.34365 L63.5961713,9.34365 L64.2783166,11.7108 C64.4432659,12.288075 64.5773537,12.84385 64.6805801,13.3792 L64.7114416,13.3792 C64.786999,12.857825 64.9008672,12.30205 65.0519821,11.7108 L65.6606983,9.34365 L66.755749,9.34365 L66.755749,9.342575 Z" id="Shape" fill="#434F62"></path>
                                <path d="M72.5374889,14.410125 L71.4222186,14.410125 L71.4222186,11.507625 C71.4222186,10.613225 71.0859348,10.166025 70.4112389,10.166025 C70.080276,10.166025 69.8131645,10.288575 69.6056477,10.53475 C69.4002591,10.780925 69.2959686,11.071175 69.2959686,11.40335 L69.2959686,14.40905 L68.1806983,14.40905 L68.1806983,10.7906 C68.1806983,10.34555 68.1668639,9.862875 68.1402591,9.340425 L69.1203774,9.340425 L69.1725227,10.1327 L69.2033841,10.1327 C69.3332152,9.886525 69.5268977,9.68335 69.7812389,9.521025 C70.0834686,9.331825 70.4218808,9.23615 70.7922186,9.23615 C71.2604618,9.23615 71.6499551,9.3888 71.9596341,9.695175 C72.3448706,10.07035 72.5374889,10.630425 72.5374889,11.374325 L72.5374889,14.410125 L72.5374889,14.410125 Z" id="Shape" fill="#434F62"></path>
                                <path d="M75.6129956,14.410125 L74.4987895,14.410125 L74.4987895,7.01735 L75.6129956,7.01735 L75.6129956,14.410125 L75.6129956,14.410125 Z" id="Shape" fill="#434F62"></path>
                                <path d="M82.1790429,11.834425 C82.1790429,12.6138 81.9587558,13.25235 81.5181814,13.7533 C81.0563233,14.268225 80.4433504,14.52515 79.6803267,14.52515 C78.9428436,14.52515 78.3564754,14.278975 77.9201578,13.784475 C77.4838402,13.29105 77.2656814,12.668625 77.2656814,11.918275 C77.2656814,11.133525 77.4902254,10.4896 77.9414416,9.989725 C78.3926578,9.48985 78.9992456,9.239375 79.7622693,9.239375 C80.4997524,9.239375 81.0903774,9.48555 81.5394652,9.978975 C81.9651409,10.458425 82.1790429,11.077625 82.1790429,11.834425 L82.1790429,11.834425 Z M81.0212051,11.870975 C81.0212051,11.40335 80.9211713,11.002375 80.7221679,10.66805 C80.4891105,10.26385 80.1549551,10.06175 79.7228943,10.06175 C79.2738064,10.06175 78.9332659,10.26385 78.7002085,10.66805 C78.5001409,11.002375 78.4011713,11.4098 78.4011713,11.8914 C78.4011713,12.359025 78.5012051,12.76 78.7002085,13.094325 C78.9417794,13.498525 79.2780632,13.700625 79.7122524,13.700625 C80.1379281,13.700625 80.4710193,13.4953 80.711526,13.083575 C80.9190429,12.7428 81.0212051,12.3386 81.0212051,11.870975 L81.0212051,11.870975 Z" id="Shape" fill="#434F62"></path>
                                <path d="M87.5766105,14.410125 L86.5752085,14.410125 L86.4922017,13.8264 L86.4613402,13.8264 C86.1186713,14.291875 85.6302085,14.52515 84.9959517,14.52515 C84.5223875,14.52515 84.1392794,14.371425 83.8508841,14.066125 C83.5890936,13.788775 83.4581983,13.4437 83.4581983,13.034125 C83.4581983,12.414925 83.7136037,11.943 84.2276071,11.6162 C84.7405463,11.2894 85.4620666,11.129225 86.3911037,11.13675 L86.3911037,11.04215 C86.3911037,10.374575 86.0441781,10.041325 85.3492625,10.041325 C84.8544145,10.041325 84.418097,10.1671 84.041374,10.4165 L83.8147017,9.6769 C84.2808166,9.385575 84.8565429,9.239375 85.5354956,9.239375 C86.8465767,9.239375 87.5042456,9.938125 87.5042456,11.335625 L87.5042456,13.201825 C87.5042456,13.70815 87.528722,14.111275 87.5766105,14.410125 L87.5766105,14.410125 Z M86.4187727,12.668625 L86.4187727,11.8871 C85.18857,11.8656 84.5734686,12.206375 84.5734686,12.90835 C84.5734686,13.1728 84.6437051,13.3706 84.7873706,13.502825 C84.9310362,13.63505 85.1140767,13.700625 85.3322355,13.700625 C85.576999,13.700625 85.8057997,13.62215 86.0143808,13.466275 C86.224026,13.309325 86.3527929,13.11045 86.4006814,12.866425 C86.4123875,12.8116 86.4187727,12.74495 86.4187727,12.668625 L86.4187727,12.668625 Z" id="Shape" fill="#434F62"></path>
                                <path d="M93.9138571,14.410125 L92.9241612,14.410125 L92.8720159,13.59635 L92.8411544,13.59635 C92.5250902,14.21555 91.9866105,14.52515 91.229972,14.52515 C90.6255125,14.52515 90.122151,14.285425 89.7230801,13.805975 C89.3240091,13.326525 89.1250058,12.7041 89.1250058,11.939775 C89.1250058,11.11955 89.3410362,10.4552 89.7752254,9.9478 C90.1955801,9.4748 90.7106477,9.2383 91.3236206,9.2383 C91.9972524,9.2383 92.4686882,9.467275 92.7368639,9.9263 L92.7581477,9.9263 L92.7581477,7.01735 L93.8744821,7.01735 L93.8744821,13.044875 C93.8744821,13.5383 93.8872524,13.993025 93.9138571,14.410125 L93.9138571,14.410125 Z M92.7581477,12.273025 L92.7581477,11.428075 C92.7581477,11.281875 92.7475058,11.163625 92.7272862,11.073325 C92.664499,10.802425 92.529347,10.574525 92.3239585,10.3907 C92.1164416,10.206875 91.8663571,10.114425 91.5779618,10.114425 C91.1618639,10.114425 90.836222,10.28105 90.5967794,10.615375 C90.3594652,10.9497 90.2392118,11.376475 90.2392118,11.89785 C90.2392118,12.3988 90.3530801,12.80515 90.5818808,13.117975 C90.8234517,13.451225 91.1490936,13.61785 91.5566781,13.61785 C91.9227591,13.61785 92.2154112,13.479175 92.4378267,13.20075 C92.6527929,12.943825 92.7581477,12.634225 92.7581477,12.273025 L92.7581477,12.273025 Z" id="Shape" fill="#434F62"></path>
                                <path d="M103.452185,11.834425 C103.452185,12.6138 103.231898,13.25235 102.791323,13.7533 C102.329465,14.268225 101.718621,14.52515 100.953469,14.52515 C100.218114,14.52515 99.6317456,14.278975 99.1932997,13.784475 C98.7569821,13.29105 98.5388233,12.668625 98.5388233,11.918275 C98.5388233,11.133525 98.7633672,10.4896 99.2145835,9.989725 C99.6657997,9.48985 100.272388,9.239375 101.03754,9.239375 C101.772894,9.239375 102.365648,9.48555 102.812607,9.978975 C103.238283,10.458425 103.452185,11.077625 103.452185,11.834425 L103.452185,11.834425 Z M102.296475,11.870975 C102.296475,11.40335 102.196442,11.002375 101.997438,10.66805 C101.762252,10.26385 101.430225,10.06175 100.996036,10.06175 C100.549077,10.06175 100.208536,10.26385 99.9733504,10.66805 C99.7732828,11.002375 99.6743132,11.4098 99.6743132,11.8914 C99.6743132,12.359025 99.774347,12.76 99.9733504,13.094325 C100.214921,13.498525 100.551205,13.700625 100.985394,13.700625 C101.41107,13.700625 101.74629,13.4953 101.986796,13.083575 C102.192185,12.7428 102.296475,12.3386 102.296475,11.870975 L102.296475,11.870975 Z" id="Shape" fill="#434F62"></path>
                                <path d="M109.448891,14.410125 L108.334685,14.410125 L108.334685,11.507625 C108.334685,10.613225 107.998401,10.166025 107.322641,10.166025 C106.991678,10.166025 106.724567,10.288575 106.518114,10.53475 C106.311661,10.780925 106.208435,11.071175 106.208435,11.40335 L106.208435,14.40905 L105.0921,14.40905 L105.0921,10.7906 C105.0921,10.34555 105.07933,9.862875 105.052725,9.340425 L106.031779,9.340425 L106.083925,10.1327 L106.114786,10.1327 C106.245681,9.886525 106.439364,9.68335 106.692641,9.521025 C106.995935,9.331825 107.333283,9.23615 107.704685,9.23615 C108.171864,9.23615 108.561357,9.3888 108.871036,9.695175 C109.257337,10.07035 109.448891,10.630425 109.448891,11.374325 L109.448891,14.410125 L109.448891,14.410125 Z" id="Shape" fill="#434F62"></path>
                                <path d="M116.954617,10.18645 L115.726543,10.18645 L115.726543,12.6482 C115.726543,13.27385 115.944702,13.586675 116.376763,13.586675 C116.57683,13.586675 116.742844,13.569475 116.873739,13.534 L116.902472,14.388625 C116.682185,14.472475 116.392725,14.5144 116.036222,14.5144 C115.595648,14.5144 115.252979,14.37895 115.005023,14.10805 C114.756002,13.83715 114.632556,13.38135 114.632556,12.741725 L114.632556,10.18645 L113.89933,10.18645 L113.89933,9.342575 L114.632556,9.342575 L114.632556,8.413775 L115.725479,8.080525 L115.725479,9.3415 L116.953553,9.3415 L116.953553,10.18645 L116.954617,10.18645 Z" id="Shape" fill="#434F62"></path>
                                <path d="M122.858739,14.410125 L121.742404,14.410125 L121.742404,11.529125 C121.742404,10.62075 121.406121,10.166025 120.732489,10.166025 C120.215293,10.166025 119.861982,10.4294 119.6683,10.95615 C119.63531,11.066875 119.616154,11.202325 119.616154,11.361425 L119.616154,14.40905 L118.501948,14.40905 L118.501948,7.01735 L119.616154,7.01735 L119.616154,10.071425 L119.637438,10.071425 C119.988621,9.51565 120.491982,9.2383 121.14433,9.2383 C121.606188,9.2383 121.988232,9.39095 122.291526,9.697325 C122.669313,10.07895 122.858739,10.64655 122.858739,11.3969 L122.858739,14.410125 L122.858739,14.410125 Z" id="Shape" fill="#434F62"></path>
                                <path d="M128.949094,11.636625 C128.949094,11.838725 128.934195,12.008575 128.90759,12.14725 L125.562844,12.14725 C125.577742,12.6482 125.737371,13.029825 126.04705,13.294275 C126.330124,13.530775 126.695141,13.649025 127.1421,13.649025 C127.636948,13.649025 128.088165,13.569475 128.494685,13.4093 L128.669212,14.1919 C128.193519,14.40045 127.633756,14.504725 126.985665,14.504725 C126.208806,14.504725 125.596898,14.2736 125.154195,13.81135 C124.709364,13.3491 124.489077,12.728825 124.489077,11.950525 C124.489077,11.1862 124.694465,10.5498 125.108435,10.0424 C125.540496,9.5006 126.124735,9.2297 126.862219,9.2297 C127.583739,9.2297 128.131796,9.5006 128.502134,10.0424 C128.801171,10.4724 128.949094,11.004525 128.949094,11.636625 L128.949094,11.636625 Z M127.884904,11.3453 C127.893418,11.010975 127.819989,10.722875 127.668874,10.479925 C127.475192,10.1671 127.180411,10.01015 126.78134,10.01015 C126.417388,10.01015 126.120479,10.1628 125.893806,10.469175 C125.708638,10.7132 125.599026,11.004525 125.562844,11.3453 L127.884904,11.3453 L127.884904,11.3453 Z" id="Shape" fill="#434F62"></path>
                            </g>
                        </g>
                    </g>
                </g>
            </g>
        </g>
    </g>
</svg>