<svg width="50" height="55" viewBox="0 0 50 55" fill="none" xmlns="http://www.w3.org/2000/svg">
<path fill-rule="evenodd" clip-rule="evenodd" d="M2.56294 54.3525C1.87752 54.4349 1.2551 53.946 1.17273 53.2606C0.310981 46.0898 1.59249 40.2316 4.24823 35.3394C6.89285 30.4677 10.8597 26.6278 15.2589 23.4093C19.6522 20.1952 24.5409 17.5564 29.0573 15.1289L29.2104 15.0466C32.7203 13.1601 35.9715 11.4127 38.6712 9.60569L35.1039 5.8635C34.4585 5.18656 34.245 4.20606 34.5504 3.32209C34.8559 2.43813 35.6291 1.79856 36.5547 1.66437L46.2867 0.253426C47.0291 0.145796 47.7805 0.37721 48.3338 0.88382C48.887 1.39042 49.1835 2.11867 49.1415 2.86764L48.5256 13.8415C48.4698 14.8365 47.8284 15.7033 46.8932 16.0475C45.958 16.3918 44.9076 16.1477 44.22 15.4264L40.4202 11.4403C37.534 13.4116 34.0812 15.2672 30.526 17.1777L30.2409 17.331C25.7031 19.77 20.9665 22.3313 16.7351 25.427C12.5096 28.5183 8.8524 32.0981 6.44537 36.5321C4.04947 40.9456 2.85173 46.2791 3.65487 52.9623C3.73724 53.6478 3.24837 54.2702 2.56294 54.3525ZM46.0296 13.7014L46.6454 2.72756L36.9134 4.1385L46.0296 13.7014Z" fill="#452F53"/>
</svg>
