<svg width="32" height="78" viewBox="0 0 32 78" fill="none" xmlns="http://www.w3.org/2000/svg">
<path fill-rule="evenodd" clip-rule="evenodd" d="M30.9749 76.7847C31.2037 76.1119 30.892 75.349 30.2787 75.0806C15.4951 68.6124 8.53208 58.2857 6.12871 47.1685C3.89086 36.8169 5.57399 25.6184 8.88717 15.9714L15.3286 18.7596C16.1452 19.1131 17.0611 18.9472 17.7146 18.3275C18.3681 17.7079 18.6541 16.7341 18.4595 15.7908L15.7009 2.41476C15.5279 1.57627 14.9979 0.874751 14.2809 0.535405C13.5639 0.196057 12.7502 0.261583 12.101 0.71095L1.27272 8.20579C0.519633 8.72704 0.106728 9.68089 0.205997 10.67C0.305266 11.6592 0.899679 12.514 1.74165 12.8784L6.66309 15.0087C3.24802 24.9608 1.44121 36.703 3.82385 47.7243C6.42652 59.7635 13.99 70.7529 29.4501 77.5171C30.0634 77.7854 30.7461 77.4575 30.9749 76.7847ZM2.562 10.4384L13.3903 2.94359L16.149 16.3196L2.562 10.4384Z" fill="#452F53"/>
</svg>
