<?xml version="1.0" encoding="UTF-8" standalone="no"?>
<svg width="109px" height="100px" viewBox="0 0 109 100" version="1.1" xmlns="http://www.w3.org/2000/svg" xmlns:xlink="http://www.w3.org/1999/xlink" xmlns:sketch="http://www.bohemiancoding.com/sketch/ns">
    <!-- Generator: Sketch 3.2.2 (9983) - http://www.bohemiancoding.com/sketch -->
    <title>cafe</title>
    <desc>Created with Sketch.</desc>
    <defs></defs>
    <g id="Page-1" stroke="none" stroke-width="1" fill="none" fill-rule="evenodd" sketch:type="MSPage">
        <g id="Home" sketch:type="MSArtboardGroup" transform="translate(-273.000000, -2822.000000)">
            <g id="Group-3" sketch:type="MSLayerGroup" transform="translate(-9.000000, -1729.000000)">
                <g id="Content" transform="translate(5.000000, 2587.000000)" sketch:type="MSShapeGroup">
                    <g id="Feature-List">
                        <g id="Group" transform="translate(205.000000, 1785.000000)">
                            <g id="cafe" transform="translate(73.000000, 179.000000)">
                                <path d="M53.1004096,7.9937846 C60.1704044,7.9937846 66.0684577,11.1233299 67.4872499,16.6525961 C64.0217541,17.539502 58.8858223,18.1098284 53.098013,18.1098284 C47.3126003,18.1098284 42.1766684,17.5419186 38.7135693,16.6525961 C40.1323615,11.1233299 46.0304148,7.9937846 53.1004096,7.9937846 L53.1004096,7.9937846 Z M53.1004096,5.39106623 C44.4941888,5.39106623 37.8675665,9.55734894 36.2139067,16.0025206 C36.0437475,16.6719292 36.1420085,17.3848372 36.4919133,17.9793299 C36.8418181,18.5762394 37.4122109,19.0064008 38.0760715,19.1755654 C41.8890754,20.1518869 47.362929,20.7125467 53.098013,20.7125467 C58.8354935,20.7125467 64.3117437,20.1543035 68.1223511,19.1755654 C68.7862116,19.0064008 69.3590011,18.5762394 69.7089059,17.9793299 C70.0588107,17.3848372 70.1594683,16.6719292 69.9869125,16.0025206 C68.3356493,9.5549323 61.7066304,5.39106623 53.1004096,5.39106623 L53.1004096,5.39106623 L53.1004096,5.39106623 Z" id="Shape" fill="#8A59A9"></path>
                                <path d="M53.1004096,6.97154703 C55.8205601,6.97154703 58.0254399,5.14456922 58.0254399,2.88501335 C58.0254399,2.88501335 54.2531782,0.845371462 53.098013,0.845371462 C51.9428477,0.845371462 48.1753793,2.88501335 48.1753793,2.88501335 C48.1777759,5.14456922 50.380259,6.97154703 53.1004096,6.97154703 L53.1004096,6.97154703 Z" id="Shape" fill="#8A59A9"></path>
                                <path d="M85.7925449,49.7097777 C87.3862895,47.6798024 88.6301293,45.9180738 89.7062065,44.5164242 C95.786402,36.5971037 98.0224377,27.4694646 93.4760715,23.102601 C85.9363414,15.8647723 77.0425276,25.1809091 76.1054537,26.0871481" id="Shape" stroke="#8A59A9" stroke-width="2.5"></path>
                                <path d="M43.8878468,71.0849347 C46.7014651,72.1772547 49.7403646,72.7717475 52.9158707,72.7717475 C59.0631713,72.7717475 64.7191672,70.5387746 69.1960317,66.8002367" id="Shape" stroke="#8A59A9" stroke-width="2.5"></path>
                                <path d="M78.8232077,49.7363607 C79.0772482,48.182463 79.2114582,46.5874823 79.2114582,44.9562522 C79.2114582,38.4796642 77.1048394,32.4670706 73.5938081,21.0557092 C71.0294371,23.1775168 62.7539483,24.7314146 52.9134741,24.7314146 C43.073,24.7314146 34.7951145,23.1775168 32.2331401,21.0557092 C30.8335208,25.601404 29.6711657,29.2698594 28.7628512,32.4719038 C28.7628512,32.4719038 19.2579022,24.7096648 17.0530225,23.2016832 C15.0758205,23.2016832 5.47500722,26.9692207 5.47500722,26.9692207 C5.47500722,26.9692207 11.7205687,28.5738679 13.9901569,30.6328429 C15.9625656,32.4163212 17.8439032,37.3269282 18.6515603,39.5188182 C19.5119427,41.8460399 23.0445435,48.1727964 26.9438254,49.1225349 C27.6484283,54.0766413 29.5848878,58.6054196 32.4104892,62.3439575" id="Shape" stroke="#8A59A9" stroke-width="2.5"></path>
                                <path d="M67.1373451,47.2883071 C68.2685442,48.0616311 71.5854503,49.828193 73.8382622,50.34777 C76.3618908,51.0582613 79.7363155,51.4956727 83.4558517,51.4956727 C87.175388,51.4956727 90.5498126,51.0582613 93.0734413,50.34777 C95.266338,53.3733999 96.6204217,57.4212674 96.6204217,61.8847965 C96.6204217,71.2420161 90.724765,78.8278406 83.4558517,78.8278406 C76.4601518,78.8278406 70.7562238,71.8002593 70.3320241,62.933617 C70.3320241,62.933617 70.3224376,62.1022938 70.320041,61.0873061 C70.2984715,55.3816255 66.097217,50.3985194 64.9276721,48.8736212 L67.1373451,47.2883071 L67.1373451,47.2883071 Z M67.1373451,44.4197587 C66.5597624,44.4197587 65.9821798,44.5961732 65.4884785,44.9514189 L63.2788055,46.5367329 C62.6461009,46.9910608 62.2266944,47.682219 62.1140538,48.455543 C61.9990166,49.2288669 62.2051249,50.0166907 62.6796534,50.6329332 L62.9528668,50.9857622 C64.1871201,52.5614097 67.4584906,56.7470256 67.4752668,61.101806 C67.4776634,62.1240436 67.4872499,62.9650333 67.4872499,62.9650333 C67.988141,73.5160718 75.0030139,81.6988057 83.4558517,81.6988057 C92.2849571,81.6988057 99.4675925,72.8104137 99.4675925,61.8872131 C99.4675925,57.0007725 98.0128512,52.2979963 95.3693921,48.6537072 C94.825362,47.902133 93.9649796,47.4792215 93.0734413,47.4792215 C92.8194008,47.4792215 92.5605671,47.5130544 92.3065266,47.5855535 C89.9242978,48.2549621 86.7799476,48.6271242 83.4582483,48.6271242 C80.1365491,48.6271242 76.9921988,48.2573787 74.6099701,47.5855535 C74.5644345,47.5710537 74.5212956,47.5613872 74.47576,47.549304 C72.7118562,47.1433089 69.7592347,45.6135775 68.7382795,44.9151693 C68.2541646,44.58409 67.6933582,44.4197587 67.1373451,44.4197587 L67.1373451,44.4197587 L67.1373451,44.4197587 Z" id="Shape" fill="#8A59A9"></path>
                                <path d="M97.4808042,68.7214634 C99.3693316,67.9674726 101.377689,66.4764073 103.081678,64.4005159 C106.568743,60.1544841 107.460282,55.0940456 105.078053,53.1003199 C103.247044,51.5778384 100.028399,52.3100795 97.0518113,54.6397178" id="Shape" stroke="#8A59A9" stroke-width="2"></path>
                                <path d="M11.0615014,88.3252252 C9.17057739,87.5712344 5.70987485,85.0675981 4.00828288,82.9917067 C0.518821027,78.7456749 -0.372717302,73.6828198 2.01190807,71.6915106 C3.84052029,70.1690291 6.56786066,70.2246118 9.54444831,72.5518335" id="Shape" stroke="#8A59A9" stroke-width="2"></path>
                                <path d="M40.9400185,66.9138187 C41.8339534,69.6083693 42.344431,72.5880831 42.344431,75.7345448 C42.344431,87.5519013 38.3037492,97.1314515 26.7041645,97.1314515 C16.0009114,97.1314515 11.063898,87.5494846 11.063898,75.7345448 C11.063898,72.5856664 11.5743756,69.6059526 12.465914,66.9138187 C16.2765213,68.5571321 21.2470872,69.5600365 26.7065611,69.5600365 C32.1636385,69.5576199 37.1318077,68.5547154 40.9400185,66.9138187 L40.9400185,66.9138187 Z M12.4635174,64.0428536 C12.0656804,64.0428536 11.6678434,64.1274359 11.2987657,64.2941838 C10.5725933,64.6228465 10.0189768,65.2439223 9.76493628,66.0027464 C8.73679127,69.1081254 8.21672725,72.3826689 8.21672725,75.7321282 C8.21672725,90.7007797 15.3011017,100 26.7041645,100 C38.452339,100 45.1916018,91.1551075 45.1916018,75.7321282 C45.1916018,72.375419 44.6691412,69.1032921 43.6409962,66.0027464 C43.3917489,65.2439223 42.8333391,64.6228465 42.1071668,64.2941838 C41.7380891,64.1274359 41.3402521,64.0428536 40.9424151,64.0428536 C40.563751,64.0428536 40.1826902,64.120186 39.823199,64.2748508 C36.2091135,65.8335818 31.5525034,66.6890714 26.7065611,66.6890714 C21.8606189,66.6890714 17.196819,65.8335818 13.5827335,64.2748508 C13.2280354,64.120186 12.8445781,64.0428536 12.4635174,64.0428536 L12.4635174,64.0428536 L12.4635174,64.0428536 Z" id="Shape" fill="#8A59A9"></path>
                                <path d="M40.9400185,65.4034204 C37.1318077,67.0757334 32.1636385,68.1438871 26.7065611,68.1438871 C21.2470872,68.1438871 16.2741247,67.07815 12.465914,65.4034204 C16.2765213,63.7311074 21.2470872,62.6629537 26.7065611,62.6629537 C32.1636385,62.6629537 37.1318077,63.7286907 40.9400185,65.4034204 L40.9400185,65.4034204 Z" id="Shape" stroke="#8A59A9" stroke-width="2"></path>
                            </g>
                        </g>
                    </g>
                </g>
            </g>
        </g>
    </g>
</svg>