<svg width="18" height="15" viewBox="0 0 18 15" fill="none" xmlns="http://www.w3.org/2000/svg">
<path d="M16.5886 1.69837L16.1549 1.33737C15.4349 0.737976 14.3531 0.804788 13.7175 1.48766L6.46223 9.28193L4.27218 7.45445C3.55303 6.85438 2.47106 6.91985 1.8347 7.60199L1.45123 8.0131C1.14026 8.3463 0.97879 8.78583 1.00224 9.2348C1.02592 9.68351 1.23253 10.1048 1.57696 10.4059L5.59142 13.9677C5.93899 14.2839 6.4048 14.4489 6.88091 14.4244C7.35702 14.4 7.80215 14.188 8.11316 13.8379L16.7742 4.08768C17.0768 3.74703 17.2272 3.30392 17.1923 2.85588C17.1575 2.40752 16.9404 1.99122 16.5886 1.69837Z" fill="#04A2BD" stroke="white"/>
</svg>
