<svg width="16" height="14" viewBox="0 0 16 14" fill="none" xmlns="http://www.w3.org/2000/svg">
<path d="M15.3987 0.79876L14.9703 0.424344C14.2591 -0.197315 13.1905 -0.12802 12.5627 0.580224L5.39571 8.66405L3.23233 6.76867C2.52194 6.14631 1.45314 6.21421 0.824537 6.92169L0.445738 7.34808C0.138548 7.69366 -0.0209512 8.14951 0.00221196 8.61516C0.0256035 9.08054 0.2297 9.51745 0.569938 9.82981L4.53551 13.5239C4.87884 13.8519 5.33897 14.0229 5.80928 13.9975C6.27959 13.9722 6.7193 13.7524 7.02653 13.3892L15.5821 3.27683C15.881 2.92352 16.0296 2.46395 15.9951 1.99927C15.9607 1.53425 15.7462 1.10249 15.3987 0.79876Z" fill="#04A2BD"/>
</svg>
