<?xml version="1.0" encoding="UTF-8" standalone="no"?>
<svg width="82px" height="82px" viewBox="0 0 82 82" version="1.1" xmlns="http://www.w3.org/2000/svg" xmlns:xlink="http://www.w3.org/1999/xlink" xmlns:sketch="http://www.bohemiancoding.com/sketch/ns">
    <!-- Generator: Sketch 3.2.2 (9983) - http://www.bohemiancoding.com/sketch -->
    <title>fsr</title>
    <desc>Created with Sketch.</desc>
    <defs></defs>
    <g id="Page-1" stroke="none" stroke-width="1" fill="none" fill-rule="evenodd" sketch:type="MSPage">
        <g id="Home" sketch:type="MSArtboardGroup" transform="translate(-793.000000, -2831.000000)" fill="#8A59A9">
            <g id="Group-3" sketch:type="MSLayerGroup" transform="translate(-9.000000, -1729.000000)">
                <g id="Content" transform="translate(5.000000, 2587.000000)" sketch:type="MSShapeGroup">
                    <g id="Feature-List">
                        <g id="Group" transform="translate(205.000000, 1785.000000)">
                            <g id="fsr" transform="translate(592.000000, 188.000000)">
                                <path d="M80.967,14.769 L79.899,13.686 C79.168,12.945 78.394,12.79 77.874,12.79 L77.872,12.79 C76.692,12.79 75.876,13.559 75.726,13.712 L63.291,26.293 L62.422,25.414 L74.877,12.81 C76.4,11.266 75.727,9.464 74.902,8.629 L73.834,7.547 C73.103,6.807 72.331,6.651 71.812,6.651 L71.809,6.651 C70.629,6.651 69.811,7.419 69.659,7.573 L57.226,20.155 L56.356,19.276 L68.812,6.672 C70.335,5.13 69.664,3.327 68.838,2.491 L67.77,1.408 C67.04,0.669 66.266,0.513 65.746,0.512 C64.564,0.512 63.746,1.28 63.594,1.434 L48.526,16.684 C47.485,17.737 46.325,18.912 46.197,19.042 C42.703,22.576 41.691,27.857 43.617,32.497 C43.902,33.185 44.691,33.512 45.382,33.226 C46.07,32.94 46.397,32.15 46.111,31.462 C44.602,27.829 45.39,23.699 48.121,20.936 C48.253,20.802 49.41,19.63 50.446,18.582 L65.514,3.332 C65.523,3.323 65.678,3.215 65.73,3.208 C65.742,3.213 65.787,3.238 65.851,3.304 L66.897,4.363 C67.087,4.579 67.027,4.64 66.895,4.774 L53.498,18.328 C52.977,18.854 52.977,19.701 53.498,20.226 L56.266,23.024 C56.774,23.538 57.68,23.538 58.185,23.024 L71.578,9.473 C71.587,9.464 71.741,9.356 71.793,9.349 C71.805,9.354 71.85,9.379 71.915,9.445 L72.962,10.504 C73.15,10.718 73.094,10.775 72.958,10.915 L59.566,24.466 C59.046,24.991 59.045,25.837 59.564,26.362 L62.33,29.161 C62.584,29.418 62.93,29.562 63.291,29.562 C63.651,29.562 63.997,29.417 64.25,29.161 L77.645,15.606 C77.655,15.597 77.806,15.491 77.856,15.485 C77.868,15.489 77.913,15.514 77.98,15.582 L79.026,16.641 C79.215,16.855 79.158,16.912 79.022,17.052 L61.626,34.661 C58.927,37.393 54.894,38.194 51.334,36.716 L50.429,36.203 C49.899,35.904 49.233,35.995 48.804,36.429 L7.751,77.976 L5.285,75.48 L40.363,39.501 C40.876,38.975 40.874,38.137 40.361,37.613 L4.556,1.133 C4.266,0.839 3.863,0.695 3.447,0.737 C3.036,0.782 2.669,1.012 2.449,1.362 C2.377,1.478 -4.639,13 6.2,23.996 L26.812,44.902 L28.733,43.006 L8.122,22.1 C0.94,14.815 2.678,7.517 3.96,4.38 L37.51,38.562 L2.427,74.543 C1.913,75.07 1.916,75.911 2.433,76.435 L6.791,80.845 C7.044,81.101 7.391,81.245 7.751,81.245 C8.111,81.245 8.458,81.1 8.711,80.845 L49.998,39.06 L50.073,39.102 C50.117,39.127 50.164,39.15 50.211,39.17 C54.813,41.124 60.047,40.096 63.549,36.553 L80.943,18.949 C82.466,17.405 81.792,15.603 80.967,14.769 L80.967,14.769 Z" id="Shape"></path>
                                <path d="M47.598,45.626 C47.073,45.096 46.219,45.091 45.688,45.614 C45.159,46.137 45.154,46.993 45.676,47.522 L73.69,75.892 L71.393,78.218 L43.402,49.872 C42.877,49.344 42.024,49.338 41.492,49.86 C40.962,50.384 40.957,51.239 41.48,51.77 L70.432,81.086 C70.687,81.342 71.032,81.487 71.393,81.487 C71.754,81.487 72.099,81.341 72.354,81.086 L76.547,76.84 C77.066,76.314 77.066,75.468 76.547,74.944 L47.598,45.626 L47.598,45.626 Z" id="Shape"></path>
                            </g>
                        </g>
                    </g>
                </g>
            </g>
        </g>
    </g>
</svg>