<?xml version="1.0" encoding="UTF-8" standalone="no"?>
<svg width="144px" height="43px" viewBox="0 0 144 43" version="1.1" xmlns="http://www.w3.org/2000/svg" xmlns:xlink="http://www.w3.org/1999/xlink" xmlns:sketch="http://www.bohemiancoding.com/sketch/ns">
    <!-- Generator: Sketch 3.2.2 (9983) - http://www.bohemiancoding.com/sketch -->
    <title>google-play</title>
    <desc>Created with Sketch.</desc>
    <defs>
        <linearGradient x1="60.0995717%" y1="91.9797552%" x2="33.5000976%" y2="-59.2459079%" id="linearGradient-1">
            <stop stop-color="#D7E69D" offset="0%"></stop>
            <stop stop-color="#94C4AA" offset="44.56%"></stop>
            <stop stop-color="#01A4B6" offset="100%"></stop>
        </linearGradient>
        <linearGradient x1="-31.9859505%" y1="-128.818008%" x2="80.4721996%" y2="114.258403%" id="linearGradient-2">
            <stop stop-color="#ED277B" offset="0%"></stop>
            <stop stop-color="#EE2F7C" offset="1.92%"></stop>
            <stop stop-color="#F7BD81" offset="70.39%"></stop>
            <stop stop-color="#FEEB74" offset="100%"></stop>
        </linearGradient>
        <linearGradient x1="50.9068572%" y1="74.7179969%" x2="-0.00833083431%" y2="-29.4385912%" id="linearGradient-3">
            <stop stop-color="#89CFBD" offset="0%"></stop>
            <stop stop-color="#7DBEBB" offset="9.07%"></stop>
            <stop stop-color="#457CAC" offset="53.96%"></stop>
            <stop stop-color="#1C5AA2" offset="85.23%"></stop>
            <stop stop-color="#084D9F" offset="100%"></stop>
        </linearGradient>
        <linearGradient x1="119.297308%" y1="35.6799782%" x2="-22.9911292%" y2="61.1851255%" id="linearGradient-4">
            <stop stop-color="#F04A2B" offset="0%"></stop>
            <stop stop-color="#B54F6B" offset="47.04%"></stop>
            <stop stop-color="#8B5191" offset="83.53%"></stop>
            <stop stop-color="#7851A1" offset="100%"></stop>
        </linearGradient>
    </defs>
    <g id="Page-1" stroke="none" stroke-width="1" fill="none" fill-rule="evenodd" sketch:type="MSPage">
        <g id="Home" sketch:type="MSArtboardGroup" transform="translate(-952.000000, -4958.000000)">
            <g id="Footer" sketch:type="MSLayerGroup" transform="translate(0.000000, 4355.000000)">
                <g id="Download_on_the_App_Store_Badge_US-UK_135x40" sketch:type="MSShapeGroup">
                    <g id="Group">
                        <g id="google-play">
                            <g transform="translate(953.000000, 603.000000)">
                                <path d="M142.149158,37.5381 C142.149158,39.8128 140.325138,41.65535 138.069056,41.65535 L4.54630306,41.65535 C2.29128617,41.65535 0.460880763,39.8128 0.460880763,37.5381 L0.460880763,4.704375 C0.460880763,2.43075 2.29128617,0.58175 4.54630306,0.58175 L138.067992,0.58175 C140.325138,0.58175 142.148094,2.43075 142.148094,4.704375 L142.149158,37.5381 L142.149158,37.5381 Z" id="Shape" stroke="#F0F0F3" fill="#FFFFFF"></path>
                                <path d="M95.1067122,30.5345862 L94.1787455,31.4190517 C93.9656135,31.536931 93.7524814,31.6770517 93.5393494,31.7741724 C92.8962911,32.0699828 92.2422467,32.1441207 91.6614436,32.1441207 C91.0410901,32.1441207 90.0721083,32.1033448 89.0826189,31.3790172 C87.7064157,30.3989138 87.1065699,28.7145 87.1065699,27.2450862 C87.1065699,24.2039483 89.5528278,22.7137759 91.5464548,22.7137759 C92.2437115,22.7137759 92.9592786,22.8909655 93.5415466,23.2631379 C94.509796,23.9103621 94.7602811,24.7533103 94.8994395,25.204069 L90.3445658,27.0671552 L88.851909,27.1842931 C89.3353013,29.676069 91.0022723,31.1254655 92.842825,31.1254655 C93.7627352,31.1254655 94.4453437,30.8229828 95.0715564,30.5093793 C95.070824,30.5101207 95.196799,30.4441379 95.1067122,30.5345862 L95.1067122,30.5345862 Z M92.3587003,25.5762414 C92.7285687,25.4398276 92.9211932,25.3219483 92.9211932,25.0491207 C92.9211932,24.2654828 92.0459602,23.3624828 91.0015398,23.3624828 C90.2273798,23.3624828 88.7742733,23.9718966 88.7742733,26.0915 C88.7742733,26.4206724 88.8130911,26.773569 88.8328663,27.1264655 L92.3587003,25.5762414 L92.3587003,25.5762414 Z" id="Shape" fill="#434F62"></path>
                                <path d="M85.5838841,30.3818621 C85.5838841,31.144 85.7186481,31.2626207 86.3551146,31.3234138 C86.6868975,31.3627069 87.0179479,31.3797586 87.3468012,31.4205345 L86.6297693,31.8512759 L83.2167267,31.8512759 C83.6642308,31.2641034 83.7404017,31.2055345 83.7404017,30.8148276 L83.7404017,30.3751897 L83.7330776,18.7162586 L82.2250401,18.7162586 L83.675217,18.0082414 L86.4452013,18.0082414 C85.8453554,18.3603966 85.6651819,18.5739138 85.5875462,19.2596897 L85.5838841,30.3818621 L85.5838841,30.3818621 Z" id="Shape" fill="#434F62"></path>
                                <path d="M80.2900062,23.6760862 C80.7338482,24.0467759 81.6625473,24.8318966 81.6625473,26.3213276 C81.6625473,27.7729483 80.8539638,28.4579828 80.0380562,29.1066897 C79.7875711,29.3617241 79.4953385,29.639 79.4953385,30.0675172 C79.4953385,30.5004828 79.7875711,30.7347586 79.9992384,30.9119483 L80.7001572,31.4576034 C81.5490234,32.1841552 82.3261131,32.8521379 82.3261131,34.2051552 C82.3261131,36.0497069 80.563196,37.9090862 77.2299865,37.9090862 C74.4219167,37.9090862 73.0647563,36.5575517 73.0647563,35.1066724 C73.0647563,34.3993966 73.4119198,33.3992759 74.5574131,32.7135 C75.7593021,31.9706379 77.3859904,31.8705517 78.2582937,31.8134655 C77.9858362,31.4576034 77.6752933,31.0846897 77.6752933,30.4775 C77.6752933,30.1446207 77.7749014,29.945931 77.8693827,29.7123966 C77.6577154,29.7331552 77.4445834,29.7553966 77.2497616,29.7553966 C75.194612,29.7553966 74.0315408,28.2014655 74.0315408,26.6749655 C74.0315408,25.7719655 74.4394946,24.7725862 75.2729801,24.0467759 C76.3774583,23.1259828 77.6950685,22.9665862 78.7394888,22.9665862 L82.7318696,22.9665862 L81.4926276,23.6760862 L80.2900062,23.6760862 L80.2900062,23.6760862 Z M78.9167326,32.3828448 C78.7577991,32.3628276 78.661853,32.3628276 78.4714258,32.3628276 C78.2963792,32.3628276 77.2497616,32.4021207 76.4389809,32.6771724 C76.011252,32.836569 74.7712775,33.3043793 74.7712775,34.697431 C74.7712775,36.0875172 76.1093953,37.0913448 78.1791932,37.0913448 C80.0395211,37.0913448 81.0275456,36.1883448 81.0275456,34.9739655 C81.0260808,33.9716207 80.387417,33.4430172 78.9167326,32.3828448 L78.9167326,32.3828448 Z M79.4733662,28.655931 C79.9223351,28.2029483 79.9604205,27.5787069 79.9604205,27.2228448 C79.9604205,25.8134828 79.1298647,23.6160345 77.5192894,23.6160345 C77.0168544,23.6160345 76.4726719,23.871069 76.1628614,24.2654828 C75.8369378,24.6747241 75.7387945,25.2048103 75.7387945,25.7133966 C75.7387945,27.0263793 76.4946443,29.2052931 78.1586856,29.2052931 C78.6450076,29.2052931 79.1672177,28.9658276 79.4733662,28.655931 L79.4733662,28.655931 Z" id="Shape" fill="#434F62"></path>
                                <path d="M68.2784402,32.105569 C65.1986454,32.105569 63.5514495,29.6782931 63.5514495,27.4808448 C63.5514495,24.9127069 65.6227122,22.7145172 68.5684756,22.7145172 C71.4160956,22.7145172 73.2002526,24.9712759 73.2002526,27.3414655 C73.2002526,29.6553103 71.4373356,32.105569 68.2784402,32.105569 L68.2784402,32.105569 Z M70.7012609,30.5182759 C71.170005,29.891069 71.2827965,29.1081724 71.2827965,28.3438103 C71.2827965,26.6171379 70.4698186,23.3231897 68.066773,23.3231897 C67.4281092,23.3231897 66.785051,23.576 66.3214338,23.9889483 C65.5633868,24.6747241 65.4293553,25.5362069 65.4293553,26.3828621 C65.4293553,28.3200862 66.3756324,31.5161724 68.7244794,31.5161724 C69.481794,31.5161724 70.2544893,31.1454828 70.7012609,30.5182759 L70.7012609,30.5182759 Z" id="Shape" fill="#434F62"></path>
                                <path d="M57.9675362,32.105569 C54.8870089,32.105569 53.2427427,29.6782931 53.2427427,27.4808448 C53.2427427,24.9127069 55.3154703,22.7145172 58.2597688,22.7145172 C61.1066564,22.7145172 62.8878837,24.9712759 62.8878837,27.3414655 C62.8878837,29.6553103 61.1278964,32.105569 57.9675362,32.105569 L57.9675362,32.105569 Z M60.3910893,30.5182759 C60.8554389,29.891069 60.9718925,29.1081724 60.9718925,28.3438103 C60.9718925,26.6171379 60.1567173,23.3231897 57.7558689,23.3231897 C57.1150079,23.3231897 56.477809,23.576 56.0134595,23.9889483 C55.25468,24.6747241 55.121381,25.5362069 55.121381,26.3828621 C55.121381,28.3200862 56.0705876,31.5161724 58.4150402,31.5161724 C59.1723548,31.5161724 59.9443177,31.1454828 60.3910893,30.5182759 L60.3910893,30.5182759 Z" id="Shape" fill="#434F62"></path>
                                <path d="M52.0115572,31.4249828 L49.4136899,32.0269828 C48.3619454,32.1960172 47.4171332,32.3435517 46.4166577,32.3435517 C41.4069558,32.3435517 39.4975562,28.6107069 39.4975562,25.688931 C39.4975562,22.1214138 42.2023558,18.8133793 46.8341328,18.8133793 C47.8133684,18.8133793 48.7567158,18.9586897 49.6158358,19.1951897 C50.9766583,19.582931 51.6138572,20.0603793 52.0115572,20.3398793 L50.5020549,21.7915 L49.8655884,21.9338448 L50.3189518,21.2028448 C49.7051901,20.5956552 48.5758099,19.4739483 46.4327708,19.4739483 C43.5668404,19.4739483 41.405491,21.678069 41.405491,24.8986207 C41.405491,28.354931 43.8744537,31.6073621 47.8316788,31.6073621 C48.9954823,31.6073621 49.5938634,31.3708621 50.1365811,31.1506724 L50.1365811,28.1866379 L47.3944285,28.3349138 L48.8482674,27.5453448 L52.696363,27.5453448 L52.2246893,28.0042586 C52.0979819,28.1132414 52.0818688,28.149569 52.0459806,28.2978448 C52.0269379,28.4661379 52.00936,28.9969655 52.00936,29.1845345 L52.00936,31.4249828 L52.0115572,31.4249828 L52.0115572,31.4249828 Z" id="Shape" fill="#434F62"></path>
                                <path d="M100.691358,30.6183621 L100.691358,35.6137759 L99.71139,35.6137759 L99.71139,22.9028276 L100.691358,22.9028276 L100.691358,24.3492586 C101.329289,23.4143793 102.496023,22.673 103.850253,22.673 C106.279666,22.673 107.918073,24.5390517 107.918073,27.4919655 C107.918073,30.4263448 106.281131,32.3309483 103.850253,32.3309483 C102.572193,32.332431 101.4267,31.6651897 100.691358,30.6183621 L100.691358,30.6183621 Z M106.865596,27.4934483 C106.865596,25.2670862 105.71937,23.5693276 103.685461,23.5693276 C102.422781,23.5693276 101.216498,24.5731552 100.691358,25.4487241 L100.691358,29.5174138 C101.216498,30.3944655 102.422781,31.4361034 103.685461,31.4361034 C105.71937,31.4361034 106.865596,29.7235172 106.865596,27.4934483 L106.865596,27.4934483 Z" id="Shape" fill="#434F62"></path>
                                <path d="M109.25619,32.1040862 L109.25619,19.3938793 L110.237623,19.3938793 L110.237623,32.1040862 L109.25619,32.1040862 L109.25619,32.1040862 Z" id="Shape" fill="#434F62"></path>
                                <path d="M121.232601,34.7915862 C121.441338,34.8864828 121.798756,34.9450517 122.025803,34.9450517 C122.624185,34.9450517 123.043125,34.6959483 123.416655,33.8196379 L124.132954,32.1804483 L120.272408,22.9028276 L121.365167,22.9028276 L124.677137,30.9430862 L127.95688,22.9028276 L129.065753,22.9028276 L124.35634,34.126569 C123.868553,35.2838621 123.09952,35.8398966 122.043381,35.8398966 C121.726247,35.8398966 121.309504,35.782069 121.064146,35.7064483 L121.232601,34.7915862 L121.232601,34.7915862 Z" id="Shape" fill="#434F62"></path>
                                <path d="M118.3696,32.0759138 C118.303683,31.7556379 118.255344,31.4753966 118.219455,31.2403793 C118.189426,31.0075862 118.173313,30.7658966 118.173313,30.5227241 C117.837136,31.0224138 117.361068,31.4375862 116.753898,31.7652759 C116.145263,32.0937069 115.56739,32.256069 114.773454,32.256069 C113.819121,32.256069 113.079384,32.019569 112.549117,31.5361897 C112.02178,31.0542931 111.756647,30.4011379 111.756647,29.5752414 C111.756647,28.7493448 112.141164,28.0798793 112.906535,27.5698103 C113.672638,27.0545517 114.662128,26.8002586 115.887454,26.8002586 L118.173313,26.8002586 L118.173313,25.655569 C118.173313,24.9957414 117.95066,24.4797414 117.508283,24.1031207 C117.064441,23.7272414 116.440425,23.5381897 115.631842,23.5381897 C114.892105,23.5381897 114.292992,23.710931 113.837431,24.049 C113.385532,24.3944828 113.15702,24.8215172 113.15702,25.3367759 L112.153615,25.3367759 L112.134572,25.2878448 C112.097951,24.592431 112.411424,23.9830172 113.080116,23.4573793 C113.74295,22.9302586 114.615986,22.667069 115.688238,22.667069 C116.75463,22.667069 117.620342,22.9280345 118.272189,23.4462586 C118.923304,23.9600345 119.249227,24.7043793 119.249227,25.6763276 L119.249227,30.2150517 C119.249227,30.5405172 119.264608,30.8556034 119.304891,31.1625345 C119.347371,31.4702069 119.411823,31.7763966 119.501177,32.0736897 L118.3696,32.0759138 L118.3696,32.0759138 Z M114.892105,31.3538103 C115.724858,31.3538103 116.322507,31.1655 116.934804,30.7925862 C117.541241,30.4226379 117.955787,29.9407414 118.171849,29.3557931 L118.171849,27.5883448 L115.875003,27.5883448 C114.997573,27.5883448 114.272484,27.7855517 113.699737,28.1814483 C113.127723,28.5766034 112.836223,29.0555345 112.836223,29.6123103 C112.836223,30.1372069 113.020791,30.5553448 113.385532,30.8733966 C113.753204,31.1944138 114.254174,31.3538103 114.892105,31.3538103 L114.892105,31.3538103 Z" id="Shape" fill="#434F62"></path>
                                <path d="M39.5385713,8.96712069 C39.5385713,7.01432759 40.9726351,5.75768966 42.7553273,5.75768966 C43.9498922,5.75768966 44.7313764,6.33448276 45.2176983,7.04101724 L44.345395,7.55256897 C44.0143445,7.08846552 43.4350062,6.72518966 42.7553273,6.72518966 C41.5424521,6.72518966 40.6415847,7.65562069 40.6415847,8.96637931 C40.6415847,10.2600862 41.5424521,11.2083103 42.7553273,11.2083103 C43.3800752,11.2083103 43.9308495,10.9199138 44.206969,10.6515345 L44.206969,9.69218966 L42.3693459,9.69218966 L42.3693459,8.73432759 L45.2726293,8.73432759 L45.2726293,11.0511379 C44.675713,11.7302414 43.8114662,12.1861897 42.7545949,12.1861897 C40.9726351,12.1861897 39.5385713,10.9117586 39.5385713,8.96712069 L39.5385713,8.96712069 Z" id="Shape" fill="#434F62"></path>
                                <path d="M46.6034229,12.0653448 L46.6034229,5.86 L50.8030765,5.86 L50.8030765,6.81786207 L47.6786045,6.81786207 L47.6786045,8.41775862 L50.7386242,8.41775862 L50.7386242,9.37562069 L47.6786045,9.37562069 L47.6786045,11.106 L50.8030765,11.106 L50.8030765,12.0646034 L46.6034229,12.0653448 L46.6034229,12.0653448 Z" id="Shape" fill="#434F62"></path>
                                <path d="M53.7781363,12.0653448 L53.7781363,6.81860345 L51.9222029,6.81860345 L51.9222029,5.86074138 L56.7092514,5.86074138 L56.7092514,6.81860345 L54.853318,6.81860345 L54.853318,12.0653448 L53.7781363,12.0653448 L53.7781363,12.0653448 Z" id="Shape" fill="#434F62"></path>
                                <path d="M60.4460203,12.0653448 L60.4460203,5.86 L61.5212019,5.86 L61.5212019,12.0653448 L60.4460203,12.0653448 L60.4460203,12.0653448 Z" id="Shape" fill="#434F62"></path>
                                <path d="M64.514572,12.0653448 L64.514572,6.81860345 L62.6586386,6.81860345 L62.6586386,5.86074138 L67.4456871,5.86074138 L67.4456871,6.81860345 L65.5897537,6.81860345 L65.5897537,12.0653448 L64.514572,12.0653448 L64.514572,12.0653448 Z" id="Shape" fill="#434F62"></path>
                                <path d="M70.9165902,8.96712069 C70.9165902,7.11589655 72.212228,5.75768966 74.0505836,5.75768966 C75.8786853,5.75768966 77.1831121,7.11589655 77.1831121,8.96712069 C77.1831121,10.8183448 75.8786853,12.1765517 74.0505836,12.1765517 C72.212228,12.1765517 70.9165902,10.8183448 70.9165902,8.96712069 L70.9165902,8.96712069 Z M76.0815636,8.96712069 C76.0815636,7.68453448 75.2817691,6.72593103 74.0520484,6.72593103 C72.8113415,6.72593103 72.0210684,7.6837931 72.0210684,8.96712069 C72.0210684,10.2422931 72.8113415,11.2090517 74.0520484,11.2090517 C75.2817691,11.2090517 76.0815636,10.2422931 76.0815636,8.96712069 L76.0815636,8.96712069 Z" id="Shape" fill="#434F62"></path>
                                <path d="M82.7120945,12.0653448 L79.5143813,7.62818966 L79.5143813,12.0653448 L78.439932,12.0653448 L78.439932,5.86 L79.5429453,5.86 L82.6747415,10.1570345 L82.6747415,5.86 L83.7513879,5.86 L83.7513879,12.0653448 L82.7120945,12.0653448 L82.7120945,12.0653448 Z" id="Shape" fill="#434F62"></path>
                                <path d="M26.700844,26.9759655 L29.8450911,23.7939655 L29.8443587,23.7939655 L26.700844,26.9759655 L16.6675243,16.819069 L16.6667919,16.819069 L26.700844,26.9774483 L16.6506789,37.1499138 L26.700844,26.9774483 L29.859007,30.1735345 L29.8604718,30.1735345 L26.700844,26.9759655 Z" id="Shape"></path>
                                <path d="M29.8443587,23.7939655 L17.5940262,16.9755 C17.2475951,16.7834828 16.926066,16.739 16.6675243,16.8198103 L26.7015764,26.9759655 L29.8443587,23.7939655 L29.8443587,23.7939655 Z" id="Shape" fill="url(#linearGradient-1)"></path>
                                <path d="M29.8604718,30.1735345 L34.0418151,27.8448621 C34.8899488,27.3703793 34.8899488,26.6000862 34.0418151,26.1293103 L29.8450911,23.7939655 L26.7015764,26.9759655 L29.8604718,30.1735345 L29.8604718,30.1735345 Z" id="Shape" fill="url(#linearGradient-2)"></path>
                                <path d="M16.6667919,16.819069 C16.2947264,16.9369483 16.0530302,17.3195 16.0530302,17.8970345 L16.0552274,36.0771379 C16.0552274,36.648 16.2895995,37.0238793 16.6506789,37.1491724 L26.7015764,26.9752241 L16.6667919,16.819069 L16.6667919,16.819069 Z" id="Shape" fill="url(#linearGradient-3)"></path>
                                <path d="M16.6506789,37.1499138 C16.9121501,37.2396207 17.2395386,37.1966207 17.5940262,37.0008966 L29.8597394,30.1735345 L26.7015764,26.9767069 L16.6506789,37.1499138 L16.6506789,37.1499138 Z" id="Shape" fill="url(#linearGradient-4)"></path>
                            </g>
                        </g>
                    </g>
                </g>
            </g>
        </g>
    </g>
</svg>