<svg width="105" height="16" viewBox="0 0 105 16" fill="none" xmlns="http://www.w3.org/2000/svg">
<path d="M10.7184 15.3333V7.5586C10.7184 5.42793 9.5624 4.11327 7.15973 4.11327C5.36907 4.11327 4.00907 4.9746 3.3064 5.81327V0.2146H0.427734V15.3333H3.3064V7.9666C3.80507 7.30927 4.68907 6.6746 5.79974 6.6746C7.0464 6.6746 7.83973 7.1506 7.83973 8.66927V15.3333H10.7184Z" fill="#8746A8"/>
<path d="M18.4835 15.6053C22.1102 15.6053 24.2862 12.9759 24.2862 9.84793C24.2862 6.7426 22.1102 4.11327 18.4835 4.11327C14.8795 4.11327 12.7035 6.7426 12.7035 9.84793C12.7035 12.9759 14.8795 15.6053 18.4835 15.6053ZM18.4835 13.0439C16.6928 13.0439 15.6955 11.5706 15.6955 9.84793C15.6955 8.14793 16.6928 6.6746 18.4835 6.6746C20.2742 6.6746 21.2942 8.14793 21.2942 9.84793C21.2942 11.5706 20.2742 13.0439 18.4835 13.0439Z" fill="#8746A8"/>
<path d="M42.7305 15.3333V7.4226C42.7305 5.1786 41.5291 4.11327 39.5118 4.11327C37.8345 4.11327 36.3838 5.1106 35.7491 6.10793C35.3411 4.86127 34.3211 4.11327 32.7118 4.11327C31.0345 4.11327 29.5838 5.15593 29.1305 5.81327V4.38527H26.2518V15.3333H29.1305V7.9666C29.5611 7.3546 30.3998 6.6746 31.3971 6.6746C32.5758 6.6746 33.0291 7.39993 33.0291 8.41993V15.3333H35.9305V7.94393C36.3385 7.3546 37.1771 6.6746 38.1971 6.6746C39.3758 6.6746 39.8291 7.39993 39.8291 8.41993V15.3333H42.7305Z" fill="#8746A8"/>
<path d="M50.5292 15.6053C52.2292 15.6053 53.9519 15.0839 55.0399 14.0866L53.7705 12.2279C53.0679 12.9079 51.7759 13.3159 50.8465 13.3159C48.9879 13.3159 47.8772 12.1599 47.6959 10.7773H55.8332V10.1426C55.8332 6.56127 53.6119 4.11327 50.3479 4.11327C47.0159 4.11327 44.6812 6.6746 44.6812 9.84793C44.6812 13.3613 47.1972 15.6053 50.5292 15.6053ZM53.0452 8.82793H47.6506C47.7865 7.73993 48.5572 6.4026 50.3479 6.4026C52.2519 6.4026 52.9772 7.78527 53.0452 8.82793Z" fill="#8746A8"/>
<path d="M60.6212 11.8199V7.94393C61.0972 7.2186 62.1625 6.6746 63.0919 6.6746C64.7692 6.6746 65.8799 7.9666 65.8799 9.8706C65.8799 11.7746 64.7692 13.0439 63.0919 13.0439C62.1625 13.0439 61.0972 12.5226 60.6212 11.8199ZM60.6212 15.3333V13.9279C61.4825 15.0159 62.6839 15.6053 63.9985 15.6053C66.7639 15.6053 68.8492 13.5199 68.8492 9.8706C68.8492 6.28927 66.7865 4.11327 63.9985 4.11327C62.7065 4.11327 61.4825 4.67993 60.6212 5.7906V0.2146H57.7425V15.3333H60.6212Z" fill="#8746A8"/>
<path d="M80.3058 15.3333V8.26127C80.3058 5.1106 78.0164 4.11327 75.5231 4.11327C73.8004 4.11327 72.0778 4.65727 70.7404 5.83593L71.8284 7.7626C72.7578 6.90127 73.8458 6.4706 75.0244 6.4706C76.4751 6.4706 77.4271 7.19593 77.4271 8.3066V9.77993C76.7018 8.9186 75.4098 8.4426 73.9591 8.4426C72.2138 8.4426 70.1511 9.41727 70.1511 11.9786C70.1511 14.4266 72.2138 15.6053 73.9591 15.6053C75.3871 15.6053 76.6791 15.0839 77.4271 14.1999V15.3333H80.3058ZM75.1151 13.6559C73.9818 13.6559 73.0524 13.0666 73.0524 12.0466C73.0524 10.9813 73.9818 10.3919 75.1151 10.3919C76.0444 10.3919 76.9511 10.7093 77.4271 11.3439V12.7039C76.9511 13.3386 76.0444 13.6559 75.1151 13.6559Z" fill="#8746A8"/>
<path d="M86.9351 15.6053C89.9724 15.6053 91.6724 14.0866 91.6724 12.0919C91.6724 7.67193 85.1897 9.03193 85.1897 7.39993C85.1897 6.78793 85.8697 6.31193 86.9124 6.31193C88.2497 6.31193 89.4964 6.8786 90.1537 7.58127L91.3097 5.60927C90.2217 4.74793 88.7484 4.11327 86.8897 4.11327C84.0111 4.11327 82.4017 5.7226 82.4017 7.5586C82.4017 11.8653 88.9071 10.3919 88.9071 12.2053C88.9071 12.8853 88.3177 13.3839 87.0711 13.3839C85.7111 13.3839 84.0791 12.6359 83.2857 11.8879L82.0391 13.9053C83.1951 14.9706 85.0311 15.6053 86.9351 15.6053Z" fill="#8746A8"/>
<path d="M98.7685 15.6053C100.468 15.6053 102.191 15.0839 103.279 14.0866L102.01 12.2279C101.307 12.9079 100.015 13.3159 99.0858 13.3159C97.2271 13.3159 96.1165 12.1599 95.9352 10.7773H104.072V10.1426C104.072 6.56127 101.851 4.11327 98.5872 4.11327C95.2551 4.11327 92.9205 6.6746 92.9205 9.84793C92.9205 13.3613 95.4365 15.6053 98.7685 15.6053ZM101.284 8.82793H95.8898C96.0258 7.73993 96.7965 6.4026 98.5872 6.4026C100.491 6.4026 101.216 7.78527 101.284 8.82793Z" fill="#8746A8"/>
</svg>
