<svg width="1280" height="342" viewBox="0 0 1280 342" fill="none" xmlns="http://www.w3.org/2000/svg">
<path d="M284 58H58V284H284V58Z" fill="#8A59A9"/>
<path fill-rule="evenodd" clip-rule="evenodd" d="M213.596 229.755H189.934V174.767C189.934 168.779 188.504 164.541 185.65 162.052C182.791 159.552 178.629 158.303 173.161 158.303C164.84 158.303 158.01 161.855 152.667 168.965V229.755H129V105.001H152.667V151.201C155.894 147.333 160.278 144.024 165.802 141.288C171.327 138.546 177.511 137.169 184.341 137.169C194.031 137.169 201.333 139.667 206.234 144.649C211.144 149.64 213.596 156.621 213.596 165.597V229.755Z" fill="white"/>
</svg>
