<?xml version="1.0" encoding="UTF-8" standalone="no"?>
<svg width="118px" height="104px" viewBox="0 0 118 104" version="1.1" xmlns="http://www.w3.org/2000/svg" xmlns:xlink="http://www.w3.org/1999/xlink" xmlns:sketch="http://www.bohemiancoding.com/sketch/ns">
    <!-- Generator: Sketch 3.2.2 (9983) - http://www.bohemiancoding.com/sketch -->
    <title>homebase-icon</title>
    <desc>Created with Sketch.</desc>
    <defs></defs>
    <g id="Page-1" stroke="none" stroke-width="1" fill="none" fill-rule="evenodd" sketch:type="MSPage">
        <g id="Home" sketch:type="MSArtboardGroup" transform="translate(-645.000000, -4435.000000)">
            <g id="Footer" sketch:type="MSLayerGroup" transform="translate(0.000000, 4355.000000)">
                <g id="Download_on_the_App_Store_Badge_US-UK_135x40" sketch:type="MSShapeGroup">
                    <g id="Group">
                        <g id="homebase-icon">
                            <g transform="translate(645.000000, 80.000000)">
                                <path d="M90.7692308,54.6 L90.7692308,104 L118,104 L118,46.7852292 L108.923077,40.3 L90.7692308,54.6 Z" id="Path-162" fill="#39ACBF"></path>
                                <path d="M-1.49213975e-13,48.1 L-1.45758863e-13,104 L81.7025983,104 L81.7025983,53.299999 L37.6043956,18.2 L-1.49213975e-13,48.1 Z M60.612055,57.3714782 L56.1182765,52.8541594 C55.5862509,52.3193469 54.7241197,52.3193469 54.1920942,52.8541594 L35.472484,71.6718307 L27.5106557,63.6687827 C26.9786302,63.1339702 26.1163777,63.1339702 25.5844735,63.6687827 L21.090695,68.1859796 C20.5586694,68.7207921 20.5586694,69.5875614 21.090695,70.122252 L34.5094535,83.6108159 C34.7751631,83.8784051 35.1238235,84.0122606 35.472484,84.0122606 C35.8211445,84.0122606 36.1698049,83.8784051 36.4355145,83.6108159 L60.612055,59.3076287 C60.8673351,59.0510114 61.0109225,58.702475 61.0109225,58.3395535 C61.0109225,57.9766319 60.8673351,57.6280956 60.612055,57.3714782 Z" id="Path-161" fill="#8A59A9"></path>
                                <path d="M86.8791209,45.5 L101.142857,33.8 L58.3516484,0 L44.0879121,11.7 L86.8791209,45.5 Z" id="Path-163" fill="#81D4C1"></path>
                            </g>
                        </g>
                    </g>
                </g>
            </g>
        </g>
    </g>
</svg>