<?xml version="1.0" encoding="UTF-8" standalone="no"?>
<svg width="82px" height="78px" viewBox="0 0 82 78" version="1.1" xmlns="http://www.w3.org/2000/svg" xmlns:xlink="http://www.w3.org/1999/xlink">
    <!-- Generator: Sketch 3.6.1 (26313) - http://www.bohemiancoding.com/sketch -->
    <title>labor-icon</title>
    <desc>Created with Sketch.</desc>
    <defs></defs>
    <g id="Page-1" stroke="none" stroke-width="1" fill="none" fill-rule="evenodd">
        <g id="labor-icon" fill="#8A59A9">
            <g id="Page-1">
                <g id="Company">
                    <path d="M81.25476,51.643836 C81.25476,54.730594 79.94882,57.342466 77.93056,59.479452 C77.93056,59.479452 77.93056,59.598174 77.81184,59.598174 C77.45567,69.808219 69.14517,78 58.8164,78 C53.11777,78 48.01275,75.506849 44.56983,71.589041 C35.19083,72.420091 24.62462,70.757991 19.87576,66.009132 C19.40088,65.534247 19.04471,65.059361 18.56983,64.584475 C12.39631,64.228311 6.57896,62.56621 3.4922,59.479452 C1.35521,57.342466 0.168,54.730594 0.168,51.643836 C0.168,45.232877 2.30499,38.109589 5.86663,32.648402 C7.64745,29.917808 9.66572,27.780822 11.92142,26.118721 C12.27759,25.762557 12.39631,25.287671 12.51503,24.812785 C12.63375,24.100457 12.39631,23.269406 11.92142,22.675799 C9.78444,20.30137 8.35978,17.09589 8.35978,13.534247 C8.35978,6.054795 14.41458,0 21.89403,0 C25.33695,0 28.42371,1.305936 30.79814,3.442922 C33.41001,1.305936 36.61549,0.118721 40.17713,0.118721 C43.97622,0.118721 47.41914,1.543379 50.03101,3.799087 C52.40544,1.424658 55.72964,0 59.41001,0 C66.88946,0 72.94426,6.054795 72.94426,13.534247 C72.94426,16.977169 71.63832,20.182648 69.38261,22.675799 C68.90773,23.388128 68.789,24.100457 68.789,24.812785 C68.90773,25.287671 69.02645,25.762557 69.38261,26.118721 C71.63832,27.780822 73.65658,29.917808 75.43741,32.648402 C79.11777,38.109589 81.25476,45.232877 81.25476,51.643836 L81.25476,51.643836 L81.25476,51.643836 Z M76.86206,52.949772 C76.98079,52.593607 76.98079,52.118721 76.98079,51.643836 C76.98079,36.447489 66.77074,27.068493 59.52873,27.068493 C57.27302,27.068493 54.66115,28.018265 52.168,29.680365 C54.30499,31.342466 56.20453,33.598174 57.98535,36.210046 C58.8164,37.39726 59.52873,38.584475 60.12234,40.009132 C67.95795,40.484018 74.48763,45.826484 76.86206,52.949772 L76.86206,52.949772 L76.86206,52.949772 Z M67.00818,18.876712 C68.07668,17.333333 68.67028,15.552511 68.67028,13.534247 C68.67028,8.429224 64.51503,4.273973 59.41001,4.273973 C56.79814,4.273973 54.54243,5.342466 52.88033,7.004566 C54.30499,9.378995 55.13604,12.109589 55.13604,14.958904 C55.13604,17.09589 54.66115,18.995434 53.94882,20.894977 C55.4922,22.082192 57.39174,22.675799 59.41001,22.675799 C62.02188,22.675799 64.39631,21.607306 66.05841,19.826484 C66.41458,19.589041 66.77074,19.232877 67.00818,18.876712 L67.00818,18.876712 L67.00818,18.876712 Z M63.92142,63.159817 C65.82097,61.260274 68.1954,58.52968 66.5333,55.799087 C64.98992,53.187215 60.95339,53.187215 59.29129,55.561644 C57.62919,53.187215 53.59266,53.187215 52.04928,55.799087 C50.38718,58.648402 52.76161,61.260274 54.66115,63.159817 C55.72964,64.228311 58.57896,66.721461 59.29129,67.196347 C59.88489,66.60274 62.85293,64.109589 63.92142,63.159817 L63.92142,63.159817 L63.92142,63.159817 Z M53.59266,40.721461 C54.06754,40.60274 54.66115,40.484018 55.13604,40.365297 C53.23649,37.278539 50.98079,34.785388 48.48763,33.123288 C47.30042,32.173516 45.99448,31.461187 44.68855,30.986301 C43.14517,30.392694 41.72051,30.03653 40.29585,30.03653 C39.10864,30.03653 37.8027,30.273973 36.49677,30.748858 C35.19083,31.223744 33.88489,31.817352 32.57896,32.767123 C26.52416,36.803653 20.94426,45.47032 20.94426,57.342466 C20.94426,58.410959 21.1817,59.360731 21.53786,60.191781 C21.89403,61.141553 22.48763,61.853881 23.19996,62.56621 C24.03101,63.278539 25.09951,63.990868 26.40544,64.465753 C30.20453,66.127854 36.02188,66.840183 41.60179,66.721461 C40.5333,64.347032 39.93969,61.73516 39.93969,59.004566 C39.82097,50.3379 45.63832,42.977169 53.59266,40.721461 L53.59266,40.721461 L53.59266,40.721461 Z M50.26846,14.721461 C50.26846,9.141553 45.75704,4.630137 40.17713,4.630137 C34.59722,4.630137 30.08581,9.141553 30.08581,14.721461 C30.08581,20.30137 34.59722,24.812785 40.17713,24.812785 C45.75704,24.812785 50.26846,20.30137 50.26846,14.721461 L50.26846,14.721461 L50.26846,14.721461 Z M25.33695,15.077626 C25.33695,11.872146 26.28672,9.022831 27.94882,6.648402 C26.28672,5.223744 24.26846,4.392694 21.89403,4.392694 C16.789,4.392694 12.63375,8.547945 12.63375,13.652968 C12.63375,15.671233 13.22736,17.452055 14.41458,18.995434 C14.77074,19.351598 15.00818,19.707763 15.24563,20.063927 C16.90773,21.844749 19.28216,22.913242 21.89403,22.913242 C23.67485,22.913242 25.33695,22.438356 26.64289,21.488584 C25.93056,19.47032 25.33695,17.333333 25.33695,15.077626 L25.33695,15.077626 L25.33695,15.077626 Z M22.60636,36.210046 C24.38718,33.360731 26.52416,31.105023 28.89859,29.324201 C26.64289,27.780822 24.14974,26.949772 22.01275,26.949772 C14.77074,26.949772 4.56069,36.328767 4.56069,51.525114 C4.56069,53.424658 5.1543,54.968037 6.57896,56.273973 C8.4785,58.054795 12.27759,59.242009 16.55156,59.716895 C16.31412,58.885845 16.31412,58.054795 16.31412,57.105023 C16.1954,50.100457 18.56983,42.26484 22.60636,36.210046 L22.60636,36.210046 L22.60636,36.210046 Z" id="labor-icon"></path>
                </g>
            </g>
        </g>
    </g>
</svg>