<?xml version="1.0" encoding="UTF-8" standalone="no"?>
<svg width="176px" height="132px" viewBox="0 0 176 132" version="1.1" xmlns="http://www.w3.org/2000/svg" xmlns:xlink="http://www.w3.org/1999/xlink" xmlns:sketch="http://www.bohemiancoding.com/sketch/ns">
    <!-- Generator: Sketch 3.4 (15575) - http://www.bohemiancoding.com/sketch -->
    <title>messaging</title>
    <desc>Created with Sketch.</desc>
    <defs></defs>
    <g id="Page-1" stroke="none" stroke-width="1" fill="none" fill-rule="evenodd" sketch:type="MSPage">
        <path d="M175.356744,81.6299273 C175.356744,66.1986943 166.758287,52.4424196 153.294203,43.2247432 C154.243594,47.5039927 154.793808,51.9021103 154.793808,56.4190961 C154.793808,91.3014636 125.23324,120.38091 86.308229,126.626885 C94.5398764,129.955191 103.75328,131.900304 113.592418,131.900304 C122.848975,131.900304 131.609261,130.192926 139.495675,127.210419 C149.496641,130.625174 160.414632,131.511281 169.444631,131.511281 C164.740832,125.870452 161.493485,120.337685 159.163163,115.474901 C169.185706,106.538186 175.356744,94.6837998 175.356744,81.6299273 Z M135.87073,55.2844465 C135.87073,24.7569716 105.457867,0 67.9353645,0 C30.4128622,0 0,24.7569716 0,55.2844465 C0,71.2127646 8.31795556,85.5201543 21.5662687,95.6023258 C19.0741186,102.042812 14.8558039,110.460831 7.70300942,119.073361 C21.2749785,119.073361 38.7523948,117.301147 52.20569,109.012802 C57.2655097,109.996165 62.5195233,110.568893 67.9353645,110.568893 C105.457867,110.568893 135.87073,85.8119214 135.87073,55.2844465 Z" id="messaging" fill="#959EAC" sketch:type="MSShapeGroup"></path>
    </g>
</svg>