<?xml version="1.0" encoding="UTF-8" standalone="no"?>
<svg width="579px" height="578px" viewBox="0 0 579 578" version="1.1" xmlns="http://www.w3.org/2000/svg" xmlns:xlink="http://www.w3.org/1999/xlink" xmlns:sketch="http://www.bohemiancoding.com/sketch/ns">
    <!-- Generator: Sketch 3.2.2 (9983) - http://www.bohemiancoding.com/sketch -->
    <title>Shape</title>
    <desc>Created with Sketch.</desc>
    <defs></defs>
    <g id="Page-1" stroke="none" stroke-width="1" fill="none" fill-rule="evenodd" sketch:type="MSPage">
        <g id="telephone5" sketch:type="MSLayerGroup" transform="translate(-1.000000, 0.000000)" fill="#8A59A9">
            <path d="M578.83,456.128 C580.055,465.513 577.195,473.673 570.262,480.608 L488.866,561.389 C485.194,565.469 480.401,568.94 474.485,571.793 C468.569,574.65 462.756,576.486 457.046,577.301 C456.638,577.301 455.411,577.406 453.37,577.61 C451.333,577.813 448.681,577.917 445.417,577.917 C437.663,577.917 425.116,576.591 407.776,573.938 C390.436,571.285 369.221,564.756 344.131,554.354 C319.035,543.95 290.578,528.342 258.755,507.536 C226.932,486.731 193.067,458.169 157.163,421.856 C128.603,393.704 104.939,366.776 86.171,341.073 C67.403,315.368 52.307,291.602 40.883,269.774 C29.458,247.946 20.89,228.158 15.178,210.41 C9.466,192.662 5.59,177.362 3.55,164.51 C1.51,151.658 0.694,141.56 1.102,134.216 C1.51,126.872 1.714,122.792 1.714,121.976 C2.53,116.264 4.366,110.45 7.222,104.534 C10.078,98.618 13.546,93.824 17.626,90.152 L99.022,8.756 C104.734,3.044 111.262,0.188 118.606,0.188 C123.91,0.188 128.602,1.718 132.682,4.778 C136.762,7.838 140.23,11.612 143.086,16.1 L208.57,140.336 C212.242,146.864 213.262,154.004 211.63,161.756 C209.998,169.508 206.53,176.036 201.226,181.34 L171.238,211.328 C170.422,212.144 169.708,213.47 169.096,215.306 C168.484,217.142 168.178,218.672 168.178,219.896 C169.81,228.464 173.482,238.256 179.194,249.272 C184.09,259.064 191.638,270.998 201.838,285.074 C212.038,299.15 226.522,315.367 245.29,333.727 C263.65,352.497 279.97,367.081 294.25,377.487 C308.527,387.887 320.465,395.54 330.053,400.436 C339.641,405.332 346.985,408.29 352.084,409.307 L359.732,410.838 C360.548,410.838 361.877,410.531 363.711,409.92 C365.547,409.307 366.873,408.594 367.69,407.777 L402.573,372.281 C409.921,365.754 418.485,362.49 428.278,362.49 C435.216,362.49 440.721,363.713 444.801,366.162 L445.412,366.162 L563.527,435.93 C572.098,441.238 577.197,447.968 578.83,456.128 L578.83,456.128 Z" id="Shape" sketch:type="MSShapeGroup"></path>
        </g>
    </g>
</svg>