<?xml version="1.0" encoding="UTF-8" standalone="no"?>
<svg width="102px" height="84px" viewBox="0 0 102 84" version="1.1" xmlns="http://www.w3.org/2000/svg" xmlns:xlink="http://www.w3.org/1999/xlink" xmlns:sketch="http://www.bohemiancoding.com/sketch/ns">
    <!-- Generator: Sketch 3.2.2 (9983) - http://www.bohemiancoding.com/sketch -->
    <title>qsr</title>
    <desc>Created with Sketch.</desc>
    <defs></defs>
    <g id="Page-1" stroke="none" stroke-width="1" fill="none" fill-rule="evenodd" sketch:type="MSPage">
        <g id="Home" sketch:type="MSArtboardGroup" transform="translate(-531.000000, -2830.000000)" stroke-width="1.5" stroke="#F9F9FB" fill="#8A59A9">
            <g id="Group-3" sketch:type="MSLayerGroup" transform="translate(-9.000000, -1729.000000)">
                <g id="Content" transform="translate(5.000000, 2587.000000)" sketch:type="MSShapeGroup">
                    <g id="Feature-List">
                        <g id="Group" transform="translate(205.000000, 1785.000000)">
                            <g id="qsr" transform="translate(331.000000, 188.000000)">
                                <path d="M82.269,47.016 L48.895,47.016 C47.711,47.016 46.751,47.976 46.751,49.16 L46.751,70.656 C46.751,71.84 47.711,72.8 48.895,72.8 L82.269,72.8 C83.453,72.8 84.413,71.84 84.413,70.656 L84.413,49.161 C84.413,47.976 83.453,47.016 82.269,47.016 L82.269,47.016 Z M80.125,68.513 L51.039,68.513 L51.039,51.305 L80.124,51.305 L80.124,68.513 L80.125,68.513 Z" id="Shape"></path>
                                <path d="M98.855,21.269 L89.685,11.909 L89.685,2.551 C89.685,1.367 88.725,0.407 87.541,0.407 L12.459,0.407 C11.275,0.407 10.315,1.367 10.315,2.551 L10.315,11.909 L1.145,21.269 C0.752,21.67 0.532,22.208 0.532,22.77 L0.532,30.93 C0.532,35.126 2.77,38.809 6.114,40.848 L6.114,79.449 C6.114,80.633 7.074,81.593 8.258,81.593 L19.073,81.593 C19.084,81.593 19.093,81.59 19.104,81.59 C19.115,81.59 19.124,81.593 19.135,81.593 C20.319,81.593 21.279,80.633 21.279,79.449 L21.279,51.305 L36.65,51.305 L36.65,79.449 C36.65,80.633 37.61,81.593 38.794,81.593 L91.302,81.593 C92.486,81.593 93.446,80.633 93.446,79.449 L93.446,41.1 C97.031,39.122 99.465,35.305 99.465,30.93 L99.465,22.77 C99.467,22.208 99.247,21.67 98.855,21.269 L98.855,21.269 Z M14.604,4.696 L85.396,4.696 L85.396,10.641 L14.604,10.641 L14.604,4.696 L14.604,4.696 Z M89.16,77.304 L40.94,77.304 L40.94,49.161 C40.94,47.977 39.98,47.017 38.796,47.017 L19.136,47.017 C17.952,47.017 16.992,47.977 16.992,49.161 L16.992,77.305 L10.404,77.305 L10.404,42.408 C10.971,42.494 11.551,42.538 12.142,42.538 C16.043,42.538 19.5,40.604 21.607,37.644 C23.713,40.604 27.171,42.538 31.072,42.538 C34.973,42.538 38.43,40.604 40.537,37.644 C42.643,40.604 46.101,42.538 50.002,42.538 C53.903,42.538 57.361,40.604 59.467,37.644 C61.573,40.603 65.031,42.538 68.932,42.538 C72.833,42.538 76.29,40.604 78.397,37.644 C80.503,40.604 83.961,42.538 87.862,42.538 C88.302,42.538 88.736,42.511 89.164,42.463 L89.164,77.304 L89.16,77.304 Z M95.178,30.929 C95.178,34.965 91.894,38.249 87.858,38.249 C83.822,38.249 80.538,34.965 80.538,30.929 C80.538,29.745 79.578,28.785 78.394,28.785 C77.21,28.785 76.25,29.745 76.25,30.929 C76.25,34.965 72.966,38.249 68.93,38.249 C64.894,38.249 61.61,34.965 61.61,30.929 C61.61,29.745 60.65,28.785 59.466,28.785 C58.282,28.785 57.322,29.745 57.322,30.929 C57.322,34.965 54.038,38.249 50.001,38.249 C45.964,38.249 42.681,34.965 42.681,30.929 C42.681,29.745 41.721,28.785 40.537,28.785 C39.353,28.785 38.393,29.745 38.393,30.929 C38.393,34.965 35.109,38.249 31.073,38.249 C27.037,38.249 23.753,34.965 23.753,30.929 C23.753,29.745 22.793,28.785 21.609,28.785 C20.425,28.785 19.465,29.745 19.465,30.929 C19.465,34.965 16.181,38.249 12.145,38.249 C8.109,38.249 4.825,34.965 4.825,30.929 L4.825,23.644 L13.364,14.928 L86.64,14.928 L95.179,23.644 L95.179,30.929 L95.178,30.929 Z" id="Shape"></path>
                            </g>
                        </g>
                    </g>
                </g>
            </g>
        </g>
    </g>
</svg>