<svg width="18" height="14" viewBox="0 0 18 14" fill="none" xmlns="http://www.w3.org/2000/svg">
<path d="M0.923828 8.9559C0.923828 11.8277 2.73642 13.4617 4.80075 13.4617C6.71404 13.4617 8.22453 11.9267 8.22453 10.0947C8.22453 8.26271 6.91544 6.97536 5.2539 6.97536C4.90145 6.97536 4.49865 7.02487 4.39795 7.07438C4.70005 5.39092 6.41194 3.36086 8.02313 2.42009L5.60635 0.538574C2.83712 2.46961 0.923828 5.53946 0.923828 8.9559ZM10.2385 8.9559C10.2385 11.8277 12.0511 13.4617 14.1154 13.4617C16.0287 13.4617 17.5392 11.9267 17.5392 10.0947C17.5392 8.26271 16.2301 6.97536 14.5686 6.97536C14.2161 6.97536 13.8133 7.02487 13.7126 7.07438C14.0147 5.39092 15.7266 3.36086 17.3378 2.42009L14.921 0.538574C12.1518 2.46961 10.2385 5.53946 10.2385 8.9559Z" fill="white"/>
</svg>
