<?xml version="1.0" encoding="UTF-8" standalone="no"?>
<svg width="35px" height="36px" viewBox="0 0 35 36" version="1.1" xmlns="http://www.w3.org/2000/svg" xmlns:xlink="http://www.w3.org/1999/xlink" xmlns:sketch="http://www.bohemiancoding.com/sketch/ns">
    <!-- Generator: Sketch 3.2.2 (9983) - http://www.bohemiancoding.com/sketch -->
    <title>Imported Layers</title>
    <desc>Created with Sketch.</desc>
    <defs></defs>
    <g id="Page-1" stroke="none" stroke-width="1" fill="none" fill-rule="evenodd" sketch:type="MSPage">
        <g id="Features-&gt;-Scheduling" sketch:type="MSArtboardGroup" transform="translate(-387.000000, -1474.000000)" fill="#D8DCE1">
            <g id="Content" sketch:type="MSLayerGroup" transform="translate(0.000000, 878.000000)">
                <g id="Group" transform="translate(0.000000, 394.000000)" sketch:type="MSShapeGroup">
                    <path d="M389.183236,235.547806 L421.931774,235.547806 L421.931774,237.731042 L387,237.731042 L387,202.799268 L389.183236,202.799268 L389.183236,209.348976 L391.366472,209.348976 L391.366472,211.532212 L389.183236,211.532212 L389.183236,215.898683 L391.366472,215.898683 L391.366472,218.081919 L389.183236,218.081919 L389.183236,222.448391 L391.366472,222.448391 L391.366472,224.631627 L389.183236,224.631627 L389.183236,228.998098 L391.366472,228.998098 L391.366472,231.181334 L389.183236,231.181334 L389.183236,235.547806 L389.183236,235.547806 Z M393.549708,225.723245 C393.549708,223.915252 395.015478,222.448391 396.824561,222.448391 C397.1646,222.448391 397.485536,222.514502 397.794669,222.610428 L400.649522,218.802523 C400.303002,218.284482 400.099415,217.659804 400.099415,216.990301 C400.099415,215.182309 401.566277,213.715447 403.374269,213.715447 C405.182261,213.715447 406.649123,215.182309 406.649123,216.990301 C406.649123,217.331432 406.583012,217.651276 406.485994,217.960408 L410.292807,220.815262 C410.813031,220.469833 411.435595,220.265155 412.107212,220.265155 C412.243665,220.265155 412.371589,220.288625 412.503743,220.305681 L416.303119,212.709112 C415.735955,212.120662 415.382066,211.323235 415.382066,210.440594 C415.382066,208.632601 416.848928,207.16574 418.65692,207.16574 C420.464912,207.16574 421.931774,208.632601 421.931774,210.440594 C421.931774,212.248586 420.464912,213.715447 418.65692,213.715447 C418.520468,213.715447 418.392544,213.691978 418.260322,213.674921 L414.463129,221.27149 C415.030292,221.859941 415.382066,222.657367 415.382066,223.540009 C415.382066,225.348001 413.915205,226.814863 412.107212,226.814863 C410.29922,226.814863 408.832359,225.348001 408.832359,223.540009 C408.832359,223.200993 408.89847,222.879102 408.994396,222.569902 L405.187583,219.715048 C404.66845,220.060477 404.044795,220.265155 403.374269,220.265155 C403.03423,220.265155 402.713294,220.199044 402.405253,220.103118 L399.549376,223.908839 C399.895828,224.429063 400.099415,225.051627 400.099415,225.723245 C400.099415,227.531237 398.633645,228.998098 396.824561,228.998098 C395.015478,228.998098 393.549708,227.531237 393.549708,225.723245 L393.549708,225.723245 Z M417.565302,210.440594 C417.565302,211.043985 418.053528,211.532212 418.65692,211.532212 C419.260312,211.532212 419.748538,211.043985 419.748538,210.440594 C419.748538,209.837202 419.260312,209.348976 418.65692,209.348976 C418.053528,209.348976 417.565302,209.837202 417.565302,210.440594 L417.565302,210.440594 Z M411.015595,223.540009 C411.015595,224.143401 411.503821,224.631627 412.107212,224.631627 C412.710604,224.631627 413.19883,224.143401 413.19883,223.540009 C413.19883,222.936617 412.710604,222.448391 412.107212,222.448391 C411.503821,222.448391 411.015595,222.936617 411.015595,223.540009 L411.015595,223.540009 Z M402.282651,216.990301 C402.282651,217.593693 402.770877,218.081919 403.374269,218.081919 C403.977661,218.081919 404.465887,217.593693 404.465887,216.990301 C404.465887,216.386909 403.977661,215.898683 403.374269,215.898683 C402.770877,215.898683 402.282651,216.386909 402.282651,216.990301 L402.282651,216.990301 Z M395.732943,225.723245 C395.732943,226.326636 396.22117,226.814863 396.824561,226.814863 C397.427953,226.814863 397.916179,226.326636 397.916179,225.723245 C397.916179,225.119853 397.427953,224.631627 396.824561,224.631627 C396.22117,224.631627 395.732943,225.119853 395.732943,225.723245 L395.732943,225.723245 Z" id="Imported-Layers"></path>
                </g>
            </g>
        </g>
    </g>
</svg>