<?xml version="1.0" encoding="UTF-8" standalone="no"?>
<svg width="96px" height="104px" viewBox="0 0 96 104" version="1.1" xmlns="http://www.w3.org/2000/svg" xmlns:xlink="http://www.w3.org/1999/xlink" xmlns:sketch="http://www.bohemiancoding.com/sketch/ns">
    <!-- Generator: Sketch 3.2.2 (9983) - http://www.bohemiancoding.com/sketch -->
    <title>retail</title>
    <desc>Created with Sketch.</desc>
    <defs></defs>
    <g id="Page-1" stroke="none" stroke-width="1" fill="none" fill-rule="evenodd" sketch:type="MSPage">
        <g id="Home" sketch:type="MSArtboardGroup" transform="translate(-1034.000000, -2820.000000)" stroke-width="3.5" stroke="#FFFFFF" fill="#8A59A9">
            <g id="Group-3" sketch:type="MSLayerGroup" transform="translate(-9.000000, -1729.000000)">
                <g id="Content" transform="translate(5.000000, 2587.000000)" sketch:type="MSShapeGroup">
                    <g id="Feature-List">
                        <g id="Group" transform="translate(205.000000, 1785.000000)">
                            <g id="retail" transform="translate(835.000000, 179.000000)">
                                <path d="M87.0283956,30.01 C86.7233956,25.98 83.3173956,22.823 79.2763956,22.823 L71.5693956,22.823 C68.9393956,10.628 62.0343956,0 45.8823956,0 C29.7353956,0 22.8253956,10.628 20.1963956,22.823 L12.4883956,22.823 C8.44739557,22.823 5.04539557,25.98 4.73639557,30.01 L0.0213955673,92.301 C-0.132604433,94.3 0.550395567,96.277 1.88739557,97.724 C3.22839557,99.171 5.14739557,100 7.15439557,100 L84.6093956,100 C86.6173956,100 88.5363956,99.171 89.8773956,97.726 C91.2193956,96.282 91.8983956,94.305 91.7483956,92.301 L87.0283956,30.01 L87.0283956,30.01 Z M45.8823956,6.777 C52.6853956,6.777 61.2843956,8.727 64.7073956,22.823 L27.0573956,22.823 C30.4803956,8.727 39.0833956,6.777 45.8823956,6.777 L45.8823956,6.777 Z M12.4883956,29.6 L19.1453956,29.6 C19.0133956,30.928 18.9203956,32.253 18.8633956,33.571 C17.8623956,34.475 17.2223956,35.772 17.2223956,37.226 C17.2223956,39.957 19.4363956,42.171 22.1673956,42.171 C24.8973956,42.171 27.1123956,39.957 27.1123956,37.226 C27.1123956,35.845 26.5443956,34.599 25.6303956,33.703 C25.6963956,32.26 25.7943956,30.892 25.9263956,29.6 L65.8403956,29.6 C65.9683956,30.862 66.0613956,32.201 66.1273956,33.606 C65.1483956,34.508 64.5253956,35.79 64.5253956,37.226 C64.5253956,39.957 66.7403956,42.171 69.4713956,42.171 C72.2013956,42.171 74.4163956,39.957 74.4163956,37.226 C74.4163956,35.83 73.8343956,34.574 72.9023956,33.676 C72.8453956,32.324 72.7533956,30.963 72.6163956,29.6 L79.2733956,29.6 C79.7413956,29.6 80.2353956,30.057 80.2703956,30.522 L83.7643956,76.66 L7.99439557,76.66 L11.4923956,30.522 C11.5313956,30.058 12.0213956,29.6 12.4883956,29.6 L12.4883956,29.6 Z M84.9053956,93.117 C84.8393956,93.188 84.7423956,93.223 84.6093956,93.223 L7.15439557,93.223 C7.02139557,93.223 6.92539557,93.188 6.85839557,93.117 C6.79239557,93.047 6.76539557,92.945 6.77439557,92.813 L7.65739557,81.176 L84.1113956,81.176 L84.9893956,92.813 C85.0023956,92.945 84.9723956,93.047 84.9053956,93.117 L84.9053956,93.117 Z" id="Shape"></path>
                            </g>
                        </g>
                    </g>
                </g>
            </g>
        </g>
    </g>
</svg>