<?xml version="1.0" encoding="UTF-8" standalone="no"?>
<svg width="25px" height="25px" viewBox="0 0 25 25" version="1.1" xmlns="http://www.w3.org/2000/svg" xmlns:xlink="http://www.w3.org/1999/xlink" xmlns:sketch="http://www.bohemiancoding.com/sketch/ns">
    <!-- Generator: Sketch 3.2.2 (9983) - http://www.bohemiancoding.com/sketch -->
    <title>rss</title>
    <desc>Created with Sketch.</desc>
    <defs></defs>
    <g id="Page-1" stroke="none" stroke-width="1" fill="none" fill-rule="evenodd" sketch:type="MSPage">
        <g id="Home" sketch:type="MSArtboardGroup" transform="translate(-1138.000000, -5141.000000)" fill="#959EAC">
            <g id="Footer" sketch:type="MSLayerGroup" transform="translate(0.000000, 4355.000000)">
                <g id="Download_on_the_App_Store_Badge_US-UK_135x40" sketch:type="MSShapeGroup">
                    <g id="Group">
                        <g id="rss">
                            <path d="M1154.32969,804.75 C1154.32969,799.178906 1149.82187,794.646094 1144.28047,794.646094 L1144.28047,792.25 C1151.14297,792.25 1156.725,797.857813 1156.725,804.75 L1154.32969,804.75 L1154.32969,804.75 Z M1150.09844,804.746875 C1150.09844,803.18125 1149.49141,801.710156 1148.39141,800.605469 C1147.29375,799.500781 1145.83203,798.89375 1144.27734,798.89375 L1144.27734,796.498438 C1148.80703,796.498438 1152.49375,800.198437 1152.49375,804.746875 L1150.09844,804.746875 L1150.09844,804.746875 Z M1145.93438,804.736719 C1145.01797,804.736719 1144.27578,803.992969 1144.27578,803.076563 C1144.27578,802.159375 1145.01797,801.417187 1145.93438,801.417187 C1146.85156,801.417187 1147.59453,802.159375 1147.59453,803.076563 C1147.59453,803.992969 1146.85156,804.736719 1145.93438,804.736719 L1145.93438,804.736719 Z M1150.5,786 C1143.59609,786 1138,791.596875 1138,798.5 C1138,805.404688 1143.59609,811 1150.5,811 C1157.40391,811 1163,805.404688 1163,798.5 C1163,791.596875 1157.40391,786 1150.5,786 L1150.5,786 Z"></path>
                        </g>
                    </g>
                </g>
            </g>
        </g>
    </g>
</svg>