<?xml version="1.0" encoding="UTF-8" standalone="no"?>
<svg width="30px" height="34px" viewBox="0 0 30 34" version="1.1" xmlns="http://www.w3.org/2000/svg" xmlns:xlink="http://www.w3.org/1999/xlink" xmlns:sketch="http://www.bohemiancoding.com/sketch/ns">
    <!-- Generator: Sketch 3.2.2 (9983) - http://www.bohemiancoding.com/sketch -->
    <title>Fill 1</title>
    <desc>Created with Sketch.</desc>
    <defs></defs>
    <g id="Page-1" stroke="none" stroke-width="1" fill="none" fill-rule="evenodd" sketch:type="MSPage">
        <g id="Features-&gt;-Scheduling" sketch:type="MSArtboardGroup" transform="translate(-201.000000, -1136.000000)" fill="#D8DCE2">
            <g id="Content" sketch:type="MSLayerGroup" transform="translate(0.000000, 878.000000)">
                <g id="AVAILABLE-ANYWHERE-+-Fill-1-+-Build-&amp;-manage-sched" transform="translate(200.000000, 176.000000)" sketch:type="MSShapeGroup">
                    <path d="M1.00155417,93.8560163 L1.00155417,113.46962 C1.00155417,114.783234 1.90490675,115.846749 3.01876279,115.846749 L28.1136327,115.846749 C29.2271402,115.846749 30.1297958,114.783234 30.1297958,113.46962 L30.1297958,93.8560163 L1.00155417,93.8560163 L1.00155417,93.8560163 Z M2.79397019,108.703146 L8.11510724,108.703146 L8.11510724,113.884642 L2.79397019,113.884642 L2.79397019,108.703146 Z M2.79397019,102.211769 L8.11510724,102.211769 L8.11510724,107.392925 L2.79397019,107.392925 L2.79397019,102.211769 Z M2.79397019,95.764167 L8.11510724,95.764167 L8.11510724,100.945324 L2.79397019,100.945324 L2.79397019,95.764167 Z M14.7811662,113.884642 L9.45933213,113.884642 L9.45933213,108.703146 L14.7815147,108.703146 L14.7815147,113.884642 L14.7811662,113.884642 L14.7811662,113.884642 Z M14.7811662,107.392925 L9.45933213,107.392925 L9.45933213,102.211769 L14.7815147,102.211769 L14.7815147,107.392925 L14.7811662,107.392925 L14.7811662,107.392925 Z M14.7811662,100.945324 L9.45933213,100.945324 L9.45933213,95.764167 L14.7815147,95.764167 L14.7815147,100.945324 L14.7811662,100.945324 L14.7811662,100.945324 Z M21.4482707,113.884642 L16.1250426,113.884642 L16.1250426,108.703146 L21.4479222,108.703146 L21.4479222,113.884642 L21.4482707,113.884642 L21.4482707,113.884642 Z M21.4482707,107.392925 L16.1250426,107.392925 L16.1250426,102.211769 L21.4479222,102.211769 L21.4479222,107.392925 L21.4482707,107.392925 L21.4482707,107.392925 Z M21.4482707,100.945324 L16.1250426,100.945324 L16.1250426,95.764167 L21.4479222,95.764167 L21.4479222,100.945324 L21.4482707,100.945324 L21.4482707,100.945324 Z M22.7917986,108.703146 L28.1136327,108.703146 L28.1136327,113.884642 L22.7917986,113.884642 L22.7917986,108.703146 Z M22.7917986,102.211769 L28.1136327,102.211769 L28.1136327,107.392925 L22.7917986,107.392925 L22.7917986,102.211769 Z M22.7917986,95.764167 L28.1136327,95.764167 L28.1136327,100.945324 L22.7917986,100.945324 L22.7917986,95.764167 Z M28.1136327,87.0351325 L23.1546034,87.0351325 L23.1546034,84.0091712 C23.1546034,83.3331911 22.6921231,82.7848056 22.1195119,82.7848056 C21.5469007,82.7848056 21.0840719,83.3331911 21.0840719,84.0091712 L21.0840719,87.0351325 L9.82318248,87.0351325 L9.82318248,84.0091712 C9.82318248,83.3331911 9.36000517,82.7848056 8.78774246,82.7848056 C8.21478272,82.7848056 7.75160541,83.3331911 7.75160541,84.0091712 L7.75160541,87.0351325 L3.01876279,87.0351325 C1.90490675,87.0351325 1.00155417,88.0996654 1.00155417,89.411922 L1.00155417,92.8739447 L30.1287502,92.8739447 L30.1287502,89.411922 C30.1287502,88.0993261 29.2271402,87.0351325 28.1136327,87.0351325 Z M8.78809098,91.5101073 C7.73592221,91.5101073 6.88345291,90.6793847 6.88345291,89.6552341 C6.88345291,89.0047051 7.22918044,88.434262 7.75195393,88.1037376 L7.75195393,88.9795934 C7.75195393,89.6542161 8.21513124,90.2036196 8.78809098,90.2036196 C9.36035369,90.2036196 9.823531,89.6542161 9.823531,88.9795934 L9.823531,88.1037376 C10.3463045,88.434262 10.692032,89.0067412 10.692032,89.6552341 C10.692032,90.6793847 9.83886568,91.5101073 8.78809098,91.5101073 L8.78809098,91.5101073 Z M22.1202089,91.5101073 C21.0676916,91.5101073 20.2148738,90.6793847 20.2148738,89.6552341 C20.2148738,89.0047051 20.5626925,88.434262 21.0854659,88.1037376 L21.0854659,88.9795934 C21.0854659,89.6542161 21.5472492,90.2036196 22.120906,90.2036196 C22.6924716,90.2036196 23.1566945,89.6542161 23.1566945,88.9795934 L23.1566945,88.1037376 C23.6787709,88.434262 24.0244985,89.0067412 24.0244985,89.6552341 C24.02415,90.6793847 23.1702866,91.5101073 22.1202089,91.5101073 Z M10.6421943,103.528437 L13.3578283,103.528437 L13.3578283,106.17365 L10.6421943,106.17365 L10.6421943,103.528437 Z" id="Fill-1"></path>
                </g>
            </g>
        </g>
    </g>
</svg>