<?xml version="1.0" encoding="UTF-8" standalone="no"?>
<svg width="136px" height="141px" viewBox="0 0 136 141" version="1.1" xmlns="http://www.w3.org/2000/svg" xmlns:xlink="http://www.w3.org/1999/xlink" xmlns:sketch="http://www.bohemiancoding.com/sketch/ns">
    <!-- Generator: Sketch 3.4 (15575) - http://www.bohemiancoding.com/sketch -->
    <title>schedule</title>
    <desc>Created with Sketch.</desc>
    <defs></defs>
    <g id="Page-1" stroke="none" stroke-width="1" fill="none" fill-rule="evenodd" sketch:type="MSPage">
        <path d="M101.641712,29.6020352 C106.910232,29.6020352 111.177495,25.2744231 111.177495,19.8953327 L111.177495,9.72617438 C111.177495,4.34221599 106.910232,0 101.641712,0 C96.3779593,0 92.125,4.34221599 92.125,9.72617438 L92.125,19.8953327 C92.125,25.2744231 96.3779593,29.6020352 101.641712,29.6020352 Z M135.488974,16.8285209 L116.317282,16.8285209 L116.317282,21.7792313 C116.317282,29.9379241 109.818646,36.5924188 101.808588,36.5924188 C93.7889942,36.5924188 87.3094295,29.9379241 87.3094295,21.7792313 L87.3094295,16.8285209 L48.6084531,16.8285209 L48.6084531,21.7792313 C48.6084531,29.9379241 42.1098169,36.5924188 34.0997589,36.5924188 C26.089701,36.5924188 19.6006005,29.9330562 19.6006005,21.7743634 L19.6006005,16.8285209 L0.24772841,16.5802552 L0.24772841,140.236052 L9.92178051,140.236052 L125.972263,140.236052 L135.627243,140.206844 L135.488974,16.8285209 Z M125.972263,130.388179 L9.92178051,130.388179 L9.92178051,51.3910025 L125.972263,51.3910025 L125.972263,130.388179 Z M33.9471864,29.6020352 C39.2157067,29.6020352 43.4734339,25.2744231 43.4734339,19.8953327 L43.4734339,9.72617438 C43.4734339,4.34221599 39.2204745,0 33.9471864,0 C28.6882019,0 24.4304747,4.34221599 24.4304747,9.72617438 L24.4304747,19.8953327 C24.4304747,25.2744231 28.6882019,29.6020352 33.9471864,29.6020352 Z M47.9266446,63.2834169 L47.9266446,77.0159184 L63.1600584,77.0159184 L63.1600584,63.2834169 L47.9266446,63.2834169 Z M71.7661028,63.2834169 L71.7661028,77.0159184 L87.0185881,77.0159184 L87.0185881,63.2834169 L71.7661028,63.2834169 Z M95.6055609,63.2834169 L95.6055609,77.0159184 L110.838975,77.0159184 L110.838975,63.2834169 L95.6055609,63.2834169 Z M47.9266446,82.7552375 L47.9266446,96.478003 L63.1600584,96.478003 L63.1600584,82.7552375 L47.9266446,82.7552375 Z M71.7661028,82.7552375 L71.7661028,96.478003 L87.0185881,96.478003 L87.0185881,82.7552375 L71.7661028,82.7552375 Z M95.6055609,82.7552375 L95.6055609,96.478003 L110.838975,96.478003 L110.838975,82.7552375 L95.6055609,82.7552375 Z M47.9266446,107.095013 L47.9266446,120.817779 L63.1600584,120.817779 L63.1600584,107.095013 L47.9266446,107.095013 Z M24.0871865,82.7552375 L24.0871865,96.478003 L39.3110645,96.478003 L39.3110645,82.7552375 L24.0871865,82.7552375 Z M24.0871865,107.095013 L24.0871865,120.817779 L39.3110645,120.817779 L39.3110645,107.095013 L24.0871865,107.095013 Z M71.7661028,107.095013 L71.7661028,120.817779 L87.0185881,120.817779 L87.0185881,107.095013 L71.7661028,107.095013 Z M95.6055609,107.095013 L95.6055609,120.817779 L110.838975,120.817779 L110.838975,107.095013 L95.6055609,107.095013 Z" id="schedule" fill="#959EAC" sketch:type="MSShapeGroup"></path>
    </g>
</svg>