<?xml version="1.0" encoding="UTF-8" standalone="no"?>
<svg width="25px" height="25px" viewBox="0 0 25 25" version="1.1" xmlns="http://www.w3.org/2000/svg" xmlns:xlink="http://www.w3.org/1999/xlink" xmlns:sketch="http://www.bohemiancoding.com/sketch/ns">
    <!-- Generator: Sketch 3.2.2 (9983) - http://www.bohemiancoding.com/sketch -->
    <title>strong-link-arrow</title>
    <desc>Created with Sketch.</desc>
    <defs></defs>
    <g id="Page-1" stroke="none" stroke-width="1" fill="none" fill-rule="evenodd" sketch:type="MSPage">
        <g id="Home" sketch:type="MSArtboardGroup" transform="translate(-806.000000, -2541.000000)">
            <g id="Group-3" sketch:type="MSLayerGroup" transform="translate(-9.000000, -1729.000000)">
                <g id="Content" transform="translate(5.000000, 2587.000000)" sketch:type="MSShapeGroup">
                    <g id="Feature-List">
                        <g id="CTA" transform="translate(199.000000, 1683.000000)">
                            <g id="strong-link-arrow" transform="translate(611.000000, 0.000000)">
                                <ellipse id="Oval-7" fill="#39ACBF" cx="12.2222222" cy="12.8534483" rx="12.2222222" ry="12.0689655"></ellipse>
                                <path d="M10.2721297,16.9827662 L9.96627933,16.6900769 C9.79734782,16.5284146 9.79734782,16.2661533 9.96627933,16.1044911 L13.1078432,13.0598175 L9.91847669,10.0074852 C9.74954517,9.84582298 9.74954517,9.58356169 9.91847669,9.42189944 L10.2243271,9.12921004 C10.3932586,8.96754779 10.6670964,8.96754779 10.8360279,9.12921004 L14.6336344,12.7634022 C14.8025659,12.9250645 14.8025659,13.1871188 14.6336344,13.348781 L10.8838305,16.9827662 C10.714899,17.1446355 10.4410613,17.1446355 10.2721297,16.9827662 L10.2721297,16.9827662 L10.2721297,16.9827662 Z" id="Shape-6" stroke="#FFFFFF" stroke-width="2" fill="#FFFFFF"></path>
                            </g>
                        </g>
                    </g>
                </g>
            </g>
        </g>
    </g>
</svg>