<?xml version="1.0" encoding="UTF-8" standalone="no"?>
<svg width="35px" height="35px" viewBox="0 0 35 35" version="1.1" xmlns="http://www.w3.org/2000/svg" xmlns:xlink="http://www.w3.org/1999/xlink" xmlns:sketch="http://www.bohemiancoding.com/sketch/ns">
    <!-- Generator: Sketch 3.2.2 (9983) - http://www.bohemiancoding.com/sketch -->
    <title>Imported Layers</title>
    <desc>Created with Sketch.</desc>
    <defs></defs>
    <g id="Page-1" stroke="none" stroke-width="1" fill="none" fill-rule="evenodd" sketch:type="MSPage">
        <g id="Features-&gt;-Scheduling" sketch:type="MSArtboardGroup" transform="translate(-510.000000, -1463.000000)" fill="#D8DCE1">
            <g id="Content" sketch:type="MSLayerGroup" transform="translate(0.000000, 878.000000)">
                <g id="Group" transform="translate(0.000000, 394.000000)" sketch:type="MSShapeGroup">
                    <path d="M544.653119,208.326733 C544.653119,217.869604 536.870297,225.653812 527.326733,225.653812 C517.731535,225.653812 510,217.869604 510,208.326733 C510,198.729455 517.731535,191 527.326733,191 C536.870297,191 544.653119,198.730149 544.653119,208.326733 L544.653119,208.326733 Z M540.814554,208.27302 C540.814554,200.809703 534.789703,194.785198 527.326733,194.785198 C519.863416,194.785198 513.785198,200.809703 513.785198,208.27302 C513.785198,215.736683 519.863416,221.814554 527.326733,221.814554 C534.789703,221.814554 540.814554,215.73599 540.814554,208.27302 L540.814554,208.27302 Z M517.090446,207.207079 C517.624455,207.207079 518.104752,207.686337 518.104752,208.219307 C518.104752,208.752277 517.624455,209.232574 517.090446,209.232574 C516.558515,209.232574 516.078218,208.752277 516.078218,208.219307 C516.077871,207.686337 516.558168,207.207079 517.090446,207.207079 L517.090446,207.207079 Z M532.446089,206.566683 L527.807376,206.566683 L522.263168,200.489851 C520.556139,198.782822 517.836881,201.342327 519.490198,203.10203 L525.621782,209.765545 C525.941287,210.192129 526.421931,210.405594 527.007228,210.405594 L532.446089,210.405594 C534.789703,210.405941 535.056188,206.566683 532.446089,206.566683 L532.446089,206.566683 Z M520.29,214.670396 C520.82401,214.670396 521.302228,215.15 521.302228,215.68401 C521.302228,216.216634 520.82401,216.696238 520.29,216.696238 C519.75599,216.696238 519.275693,216.216634 519.275693,215.68401 C519.275693,215.15 519.75599,214.670396 520.29,214.670396 L520.29,214.670396 Z M527.219653,217.442327 C527.753663,217.442327 528.234307,217.92297 528.234307,218.455941 C528.234307,218.988911 527.753663,219.468168 527.219653,219.468168 C526.687723,219.468168 526.207426,218.988911 526.207426,218.455941 C526.207426,217.92297 526.687723,217.442327 527.219653,217.442327 L527.219653,217.442327 Z M527.27302,197.130545 C527.807376,197.130545 528.287327,197.610842 528.287327,198.143812 C528.287327,198.676782 527.80703,199.15604 527.27302,199.15604 C526.741089,199.15604 526.260792,198.676782 526.260792,198.143812 C526.260792,197.610842 526.741436,197.130545 527.27302,197.130545 L527.27302,197.130545 Z M534.363465,199.902475 C534.897475,199.902475 535.378119,200.382772 535.378119,200.915743 C535.378119,201.448713 534.897475,201.92901 534.363465,201.92901 C533.831535,201.92901 533.351238,201.448713 533.351238,200.915743 C533.351238,200.382772 533.831535,199.902475 534.363465,199.902475 L534.363465,199.902475 Z M534.68505,214.350545 C535.216634,214.350545 535.697624,214.830149 535.697624,215.363119 C535.697624,215.897129 535.216634,216.376733 534.68505,216.376733 C534.15104,216.376733 533.670396,215.897129 533.670396,215.363119 C533.670743,214.830149 534.15104,214.350545 534.68505,214.350545 L534.68505,214.350545 Z M537.509653,207.207079 C538.043663,207.207079 538.521881,207.686337 538.521881,208.219307 C538.521881,208.752277 538.043663,209.232574 537.509653,209.232574 C536.977723,209.232574 536.497426,208.752277 536.497426,208.219307 C536.497426,207.686337 536.977723,207.207079 537.509653,207.207079 L537.509653,207.207079 Z" id="Imported-Layers"></path>
                </g>
            </g>
        </g>
    </g>
</svg>