<?xml version="1.0" encoding="UTF-8" standalone="no"?>
<svg width="141px" height="135px" viewBox="0 0 141 135" version="1.1" xmlns="http://www.w3.org/2000/svg" xmlns:xlink="http://www.w3.org/1999/xlink" xmlns:sketch="http://www.bohemiancoding.com/sketch/ns">
    <!-- Generator: Sketch 3.4 (15575) - http://www.bohemiancoding.com/sketch -->
    <title>timesheets</title>
    <desc>Created with Sketch.</desc>
    <defs></defs>
    <g id="Page-1" stroke="none" stroke-width="1" fill="none" fill-rule="evenodd" sketch:type="MSPage">
        <path d="M140.339996,89.3819873 C140.339996,94.724359 138.079755,99.244827 134.586675,102.943391 C134.586675,102.943391 134.586675,103.148868 134.381201,103.148868 C133.764764,120.819789 119.38146,134.997621 101.505058,134.997621 C91.6422179,134.997621 82.806762,130.682628 76.847967,123.901926 C60.6153685,125.340257 42.3280195,122.463596 34.1089836,114.244562 C33.2870904,113.42266 32.6706532,112.600756 31.84876,111.778852 C21.1640098,111.162426 11.0956968,108.285763 5.7533217,102.943391 C2.05475033,99.244827 0,94.724359 0,89.3819873 C0,78.2862923 3.69857137,65.9577418 9.86283967,56.5058539 C12.9449738,51.7799091 16.4380719,48.0813447 20.3420992,45.2046821 C20.9585365,44.5882553 21.1640098,43.7663517 21.3694831,42.9444481 C21.5749564,41.7115944 21.1640098,40.2732623 20.3420992,39.2458837 C16.6435452,35.1363674 14.1778309,29.588519 14.1778309,23.4242455 C14.1778309,10.4792682 24.6571078,0 37.6020817,0 C43.5608767,0 48.9032518,2.26023402 53.0127697,5.95879846 C57.5332343,2.26023402 63.0810827,0.205475033 69.245351,0.205475033 C75.8205832,0.205475033 81.7793782,2.67118582 86.2998428,6.57522702 C90.4093608,2.46571078 96.1626825,0 102.532441,0 C115.477415,0 125.956692,10.4792682 125.956692,23.4242455 C125.956692,29.383044 123.696451,34.9308906 119.792406,39.2458837 C118.970513,40.478739 118.765023,41.7115944 118.765023,42.9444481 C118.970513,43.7663517 119.175987,44.5882553 119.792406,45.2046821 C123.696451,48.0813447 127.189532,51.7799091 130.271683,56.5058539 C136.641425,65.9577418 140.339996,78.2862923 140.339996,89.3819873 L140.339996,89.3819873 L140.339996,89.3819873 Z M132.73738,91.6422214 C132.942871,91.0257928 132.942871,90.2038892 132.942871,89.3819873 C132.942871,63.081081 115.271942,46.8484893 102.737915,46.8484893 C98.83387,46.8484893 94.3134054,48.4922965 89.9984142,51.3689573 C93.6969855,54.2456199 96.984593,58.1496611 100.066727,62.6701292 C101.505058,64.7248864 102.737915,66.7796454 103.765299,69.2453545 C117.326692,70.0672581 128.627862,79.3136709 132.73738,91.6422214 L132.73738,91.6422214 L132.73738,91.6422214 Z M115.682889,32.6706566 C117.532183,29.9994708 118.559549,26.9173332 118.559549,23.4242455 C118.559549,14.5887845 111.367897,7.39713062 102.532441,7.39713062 C98.0119768,7.39713062 94.1079321,9.24641284 91.2312713,12.1230737 C93.6969855,16.2325899 95.135316,20.9585347 95.135316,25.8899546 C95.135316,29.588519 94.3134054,32.8761334 93.0805483,36.163746 C95.7517359,38.218505 99.0393433,39.2458837 102.532441,39.2458837 C107.052906,39.2458837 111.162424,37.3966014 114.039085,34.3144638 C114.655522,33.903512 115.271942,33.2870852 115.682889,32.6706566 L115.682889,32.6706566 L115.682889,32.6706566 Z M110.340513,109.313142 C113.628138,106.025529 117.737656,101.299584 114.860995,96.5736412 C112.189808,92.0531731 105.203629,92.0531731 102.326968,96.1626894 C99.4503072,92.0531731 92.4641284,92.0531731 89.7929409,96.5736412 C86.91628,101.505061 91.025798,106.025529 94.3134054,109.313142 C96.1626825,111.162426 101.094111,115.477417 102.326968,116.299321 C103.354335,115.271942 108.491236,110.956949 110.340513,109.313142 L110.340513,109.313142 L110.340513,109.313142 Z M92.4641284,70.4782099 C93.2860216,70.2727348 94.3134054,70.0672581 95.135316,69.861783 C91.8476912,64.5194114 87.9436638,60.2044184 83.6286552,57.3277575 C81.5739049,55.6839503 79.313664,54.451095 77.0534403,53.6291914 C74.3822528,52.6018127 71.9165385,51.9853859 69.4508243,51.9853859 C67.396074,51.9853859 65.135833,52.3963377 62.8756094,53.2182396 C60.6153685,54.0401432 58.3551275,55.0675235 56.0949039,56.711329 C45.615627,63.6975078 35.9582779,78.6972441 35.9582779,99.244827 C35.9582779,101.094109 36.3692245,102.737916 36.9856444,104.176247 C37.6020817,105.820054 38.6294482,107.052908 39.8623053,108.285763 C41.3006357,109.518618 43.1499301,110.751474 45.4101537,111.573376 C51.9853859,114.450038 62.0536989,115.682894 71.7110652,115.477417 C69.8617882,111.367901 68.8344044,106.847433 68.8344044,102.121488 C68.6289311,87.1217533 78.6972441,74.3822511 92.4641284,70.4782099 L92.4641284,70.4782099 L92.4641284,70.4782099 Z M86.7108067,25.4790028 C86.7108067,15.8216399 78.9027174,8.01355745 69.245351,8.01355745 C59.5879846,8.01355745 51.7799126,15.8216399 51.7799126,25.4790028 C51.7799126,35.1363674 59.5879846,42.9444481 69.245351,42.9444481 C78.9027174,42.9444481 86.7108067,35.1363674 86.7108067,25.4790028 L86.7108067,25.4790028 L86.7108067,25.4790028 Z M43.5608767,26.0954313 C43.5608767,20.5475829 45.2046804,15.6161631 48.0813412,11.5066469 C45.2046804,9.04093608 41.7115996,7.60260565 37.6020817,7.60260565 C28.7666085,7.60260565 21.5749564,14.7942595 21.5749564,23.6297206 C21.5749564,27.12281 22.6023402,30.2049476 24.6571078,32.8761334 C25.2735277,33.4925602 25.6844743,34.1089888 26.0954383,34.7254156 C28.9720991,37.8075532 33.0816171,39.6568354 37.6020817,39.6568354 C40.6842158,39.6568354 43.5608767,38.8349319 45.8211176,37.1911247 C44.5882605,33.698037 43.5608767,29.9994708 43.5608767,26.0954313 L43.5608767,26.0954313 L43.5608767,26.0954313 Z M38.8349388,62.6701292 C41.9170729,57.7387093 45.615627,53.8346681 49.725145,50.7525305 C45.8211176,48.0813447 41.5061263,46.6430143 37.807555,46.6430143 C25.2735277,46.6430143 7.60259873,62.8756042 7.60259873,89.1765106 C7.60259873,92.4641249 8.62998255,95.1353108 11.0956968,97.3955448 C14.3833042,100.477682 20.9585365,102.53244 28.3556619,103.354343 C27.9447153,101.916013 27.9447153,100.477682 27.9447153,98.8338752 C27.739242,86.7108015 31.84876,73.1493957 38.8349388,62.6701292 L38.8349388,62.6701292 L38.8349388,62.6701292 Z" id="timesheets" fill="#959EAC" sketch:type="MSShapeGroup"></path>
    </g>
</svg>