<?xml version="1.0" encoding="UTF-8" standalone="no"?>
<svg width="135px" height="135px" viewBox="0 0 135 135" version="1.1" xmlns="http://www.w3.org/2000/svg" xmlns:xlink="http://www.w3.org/1999/xlink" xmlns:sketch="http://www.bohemiancoding.com/sketch/ns">
    <!-- Generator: Sketch 3.4 (15575) - http://www.bohemiancoding.com/sketch -->
    <title>timeclock</title>
    <desc>Created with Sketch.</desc>
    <defs></defs>
    <g id="Page-1" stroke="none" stroke-width="1" fill="none" fill-rule="evenodd" sketch:type="MSPage">
        <path d="M135,67.500675 C135,104.677347 104.680047,135.0027 67.500675,135.0027 C30.1201512,135.0027 0,104.677347 0,67.500675 C0,30.1120511 30.1201512,0 67.500675,0 C104.680047,0 135,30.1147511 135,67.500675 L135,67.500675 Z M120.0459,67.2914229 C120.0459,38.2161822 96.5745657,14.7461975 67.500675,14.7461975 C38.4254343,14.7461975 14.7461975,38.2161822 14.7461975,67.2914229 C14.7461975,96.3680137 38.4254343,120.0459 67.500675,120.0459 C96.5745657,120.0459 120.0459,96.3653137 120.0459,67.2914229 L120.0459,67.2914229 Z M27.6226262,63.1387814 C29.702997,63.1387814 31.5741157,65.0058501 31.5741157,67.0821708 C31.5741157,69.1584916 29.702997,71.0296103 27.6226262,71.0296103 C25.5503555,71.0296103 23.6792368,69.1584916 23.6792368,67.0821708 C23.6778868,65.0058501 25.5490055,63.1387814 27.6226262,63.1387814 L27.6226262,63.1387814 Z M87.4444244,60.6439564 L69.3731437,60.6439564 L47.7742777,36.9701197 C41.1241112,30.3199532 30.5305553,40.2911529 36.9714697,47.1465215 L60.8586086,73.1059311 C62.103321,74.7677977 63.9757898,75.599406 66.2559626,75.599406 L87.4444244,75.599406 C96.5745657,75.600756 97.6127261,60.6439564 87.4444244,60.6439564 L87.4444244,60.6439564 Z M40.0873009,92.2140221 C42.1676717,92.2140221 44.0306903,94.0824408 44.0306903,96.1628116 C44.0306903,98.2377824 42.1676717,100.106201 40.0873009,100.106201 C38.0069301,100.106201 36.1358114,98.2377824 36.1358114,96.1628116 C36.1358114,94.0824408 38.0069301,92.2140221 40.0873009,92.2140221 L40.0873009,92.2140221 Z M67.0835208,103.01278 C69.1638916,103.01278 71.0363604,104.885249 71.0363604,106.96157 C71.0363604,109.03789 69.1638916,110.904959 67.0835208,110.904959 C65.0112501,110.904959 63.1401314,109.03789 63.1401314,106.96157 C63.1401314,104.885249 65.0112501,103.01278 67.0835208,103.01278 L67.0835208,103.01278 Z M67.2914229,23.8830888 C69.3731437,23.8830888 71.2429124,25.7542075 71.2429124,27.8305283 C71.2429124,29.9068491 69.3717937,31.7739177 67.2914229,31.7739177 C65.2191522,31.7739177 63.3480335,29.9068491 63.3480335,27.8305283 C63.3480335,25.7542075 65.2205022,23.8830888 67.2914229,23.8830888 L67.2914229,23.8830888 Z M94.9140491,34.6818468 C96.9944199,34.6818468 98.8668887,36.5529655 98.8668887,38.6292863 C98.8668887,40.7056071 96.9944199,42.5767258 94.9140491,42.5767258 C92.8417784,42.5767258 90.9706597,40.7056071 90.9706597,38.6292863 C90.9706597,36.5529655 92.8417784,34.6818468 94.9140491,34.6818468 L94.9140491,34.6818468 Z M96.1668617,90.9679597 C98.2377824,90.9679597 100.111601,92.8363784 100.111601,94.9126991 C100.111601,96.9930699 98.2377824,98.8614886 96.1668617,98.8614886 C94.0864909,98.8614886 92.2140221,96.9930699 92.2140221,94.9126991 C92.2153722,92.8363784 94.0864909,90.9679597 96.1668617,90.9679597 L96.1668617,90.9679597 Z M107.170822,63.1387814 C109.251193,63.1387814 111.114211,65.0058501 111.114211,67.0821708 C111.114211,69.1584916 109.251193,71.0296103 107.170822,71.0296103 C105.098551,71.0296103 103.227432,69.1584916 103.227432,67.0821708 C103.227432,65.0058501 105.098551,63.1387814 107.170822,63.1387814 L107.170822,63.1387814 Z" id="timeclock" fill="#959EAC" sketch:type="MSShapeGroup"></path>
    </g>
</svg>