<?xml version="1.0" encoding="UTF-8" standalone="no"?>
<svg width="25px" height="25px" viewBox="0 0 25 25" version="1.1" xmlns="http://www.w3.org/2000/svg" xmlns:xlink="http://www.w3.org/1999/xlink" xmlns:sketch="http://www.bohemiancoding.com/sketch/ns">
    <!-- Generator: Sketch 3.2.2 (9983) - http://www.bohemiancoding.com/sketch -->
    <title>twitter</title>
    <desc>Created with Sketch.</desc>
    <defs></defs>
    <g id="Page-1" stroke="none" stroke-width="1" fill="none" fill-rule="evenodd" sketch:type="MSPage">
        <g id="Home" sketch:type="MSArtboardGroup" transform="translate(-1103.000000, -5141.000000)" fill="#959EAC">
            <g id="Footer" sketch:type="MSLayerGroup" transform="translate(0.000000, 4355.000000)">
                <g id="Download_on_the_App_Store_Badge_US-UK_135x40" sketch:type="MSShapeGroup">
                    <g id="Group">
                        <g id="twitter">
                            <path d="M1120.47031,795.951563 C1120.47578,796.061719 1120.47812,796.171875 1120.47812,796.282812 C1120.47812,799.671875 1117.89844,803.579687 1113.18125,803.579687 C1111.73281,803.579687 1110.38516,803.155469 1109.25,802.427344 C1109.45156,802.450781 1109.65547,802.4625 1109.86172,802.4625 C1111.06406,802.4625 1112.16875,802.053906 1113.04609,801.365625 C1111.925,801.344531 1110.97734,800.603125 1110.65156,799.585156 C1110.80781,799.614063 1110.96797,799.630469 1111.13359,799.630469 C1111.36797,799.630469 1111.59453,799.598438 1111.80859,799.540625 C1110.63672,799.303906 1109.75234,798.267969 1109.75234,797.025781 L1109.75234,796.99375 C1110.09844,797.185938 1110.49375,797.300781 1110.91406,797.314844 C1110.22578,796.855469 1109.77344,796.069531 1109.77344,795.179688 C1109.77344,794.710156 1109.9,794.26875 1110.12031,793.890625 C1111.38437,795.442188 1113.275,796.463281 1115.40625,796.569531 C1115.3625,796.382031 1115.33984,796.186719 1115.33984,795.985156 C1115.33984,794.569531 1116.48828,793.421875 1117.90469,793.421875 C1118.64141,793.421875 1119.30859,793.733594 1119.77656,794.230469 C1120.36016,794.116406 1120.90937,793.902344 1121.40547,793.607813 C1121.21328,794.207813 1120.80703,794.710156 1120.27734,795.027344 C1120.79609,794.966406 1121.29063,794.827344 1121.75,794.624219 C1121.40703,795.138281 1120.97187,795.589844 1120.47031,795.951563 L1120.47031,795.951563 Z M1115.5,786 C1108.59687,786 1103,791.596875 1103,798.5 C1103,805.404688 1108.59687,811 1115.5,811 C1122.40313,811 1128,805.404688 1128,798.5 C1128,791.596875 1122.40313,786 1115.5,786 L1115.5,786 Z"></path>
                        </g>
                    </g>
                </g>
            </g>
        </g>
    </g>
</svg>