<?xml version="1.0" encoding="UTF-8" standalone="no"?>
<svg width="25px" height="25px" viewBox="0 0 25 25" version="1.1" xmlns="http://www.w3.org/2000/svg" xmlns:xlink="http://www.w3.org/1999/xlink" xmlns:sketch="http://www.bohemiancoding.com/sketch/ns">
    <!-- Generator: Sketch 3.2.2 (9983) - http://www.bohemiancoding.com/sketch -->
    <title>vimeo</title>
    <desc>Created with Sketch.</desc>
    <defs></defs>
    <g id="Page-1" stroke="none" stroke-width="1" fill="none" fill-rule="evenodd" sketch:type="MSPage">
        <g id="Home" sketch:type="MSArtboardGroup" transform="translate(-1173.000000, -5141.000000)" fill="#959EAC">
            <g id="Footer" sketch:type="MSLayerGroup" transform="translate(0.000000, 4355.000000)">
                <g id="Download_on_the_App_Store_Badge_US-UK_135x40" sketch:type="MSShapeGroup">
                    <g id="Group">
                        <g id="vimeo">
                            <path d="M1191.6875,795.664844 C1190.98828,799.598438 1187.08672,802.93125 1185.9125,803.692969 C1184.73828,804.453906 1183.66719,803.3875 1183.27969,802.582031 C1182.83438,801.661719 1181.50234,796.679688 1181.15313,796.267969 C1180.80469,795.855469 1179.75703,796.679688 1179.75703,796.679688 L1179.25,796.014063 C1179.25,796.014063 1181.37578,793.475 1182.99297,793.157812 C1184.70859,792.821094 1184.70625,795.791406 1185.11953,797.441406 C1185.51797,799.035938 1185.78672,799.948437 1186.13438,799.948437 C1186.48438,799.948437 1187.15,799.058594 1187.87969,797.696094 C1188.60938,796.330469 1187.84844,795.125 1186.42031,795.982031 C1186.99062,792.555469 1192.38516,791.73125 1191.6875,795.664844 L1191.6875,795.664844 Z M1185.5,786 C1178.59687,786 1173,791.596875 1173,798.5 C1173,805.404688 1178.59687,811 1185.5,811 C1192.40313,811 1198,805.404688 1198,798.5 C1198,791.596875 1192.40313,786 1185.5,786 L1185.5,786 Z"></path>
                        </g>
                    </g>
                </g>
            </g>
        </g>
    </g>
</svg>