<svg width="28" height="28" viewBox="0 0 28 28" fill="none" xmlns="http://www.w3.org/2000/svg">
<path d="M25.487 26.9063L25.4876 26.9069C25.6991 27.1184 25.9556 27.2339 26.248 27.2339C26.5404 27.2339 26.7969 27.1184 27.0084 26.9069C27.2106 26.7047 27.31 26.4494 27.31 26.1592C27.31 25.8693 27.2108 25.6142 27.009 25.4121C27.0088 25.4119 27.0086 25.4117 27.0084 25.4115L19.2754 17.6288C19.9537 16.7716 20.4948 15.8127 20.8991 14.7535C21.3333 13.6159 21.5499 12.4141 21.5499 11.15C21.5499 9.71334 21.2771 8.35999 20.7301 7.09242C20.1851 5.82923 19.4398 4.7281 18.4943 3.79127C17.5494 2.85501 16.4446 2.11455 15.1821 1.56977C13.9149 1.02297 12.5701 0.75 11.15 0.75C9.71334 0.75 8.35998 1.02281 7.09242 1.56977C5.82991 2.11455 4.72514 2.85501 3.78021 3.79127C2.83441 4.7284 2.09318 5.82998 1.55651 7.09375C1.01836 8.36101 0.75 9.71389 0.75 11.15C0.75 12.586 1.01836 13.9389 1.55651 15.2062C2.09318 16.4699 2.83441 17.5715 3.78021 18.5086C4.72514 19.4449 5.82991 20.1854 7.09242 20.7301C8.35998 21.2771 9.71334 21.5499 11.15 21.5499C12.4483 21.5499 13.6801 21.3247 14.8436 20.8732C15.9288 20.4521 16.9093 19.8788 17.7837 19.1533L25.487 26.9063ZM11.15 19.4513C9.99824 19.4513 8.9198 19.2335 7.91209 18.7993C6.90014 18.3632 6.02212 17.7679 5.27578 17.0134C4.52844 16.2578 3.93666 15.3788 3.50035 14.3745C3.06643 13.3756 2.84862 12.3017 2.84862 11.15C2.84862 9.99823 3.06643 8.9243 3.50035 7.92546C3.93666 6.92111 4.52844 6.0421 5.27578 5.28654C6.02212 4.532 6.90014 3.93669 7.91209 3.50065C8.9198 3.06643 9.99824 2.84862 11.15 2.84862C12.2842 2.84862 13.3543 3.06623 14.3624 3.50065C15.3744 3.93669 16.2524 4.532 16.9987 5.28654C17.7461 6.0421 18.3379 6.92111 18.7742 7.92546C19.2081 8.9243 19.4259 9.99823 19.4259 11.15C19.4259 12.3017 19.2081 13.3756 18.7742 14.3745C18.3379 15.3788 17.7461 16.2578 16.9987 17.0134C16.2524 17.7679 15.3744 18.3632 14.3624 18.7993C13.3543 19.2337 12.2842 19.4513 11.15 19.4513Z" fill="#626970" stroke="#626970" stroke-width="0.5"/>
</svg>
