<svg width="44" height="28" viewBox="0 0 44 28" fill="none" xmlns="http://www.w3.org/2000/svg">
<path d="M40.057 24.1838C40.0857 24.2125 40.1323 24.1085 40.1485 24.0941C40.0767 24.0816 40.0427 24.2107 40.057 24.1838Z" fill="#F0ECDD"/>
<path d="M39.3558 24.0585L39.3899 24.0244L39.2482 24.071L39.3558 24.0585Z" fill="#F0ECDD"/>
<path d="M38.8268 23.7336C38.7765 23.9273 39.0348 23.8233 39.094 23.9399L39.094 23.9865L39.2177 23.8807C39.0832 23.8323 38.8788 23.8287 38.8268 23.7336Z" fill="#F0ECDD"/>
<path d="M38.7586 23.2065C38.7371 23.2819 38.6636 23.2245 38.8124 23.2675L38.8124 23.2442C38.7932 23.2336 38.7752 23.221 38.7586 23.2065V23.2065Z" fill="#F0ECDD"/>
<path d="M38.8106 23.2441C38.8698 23.2727 38.8106 23.1669 38.8106 23.2441V23.2441Z" fill="#F0ECDD"/>
<path d="M38.5308 23.124L38.6385 23.1115C38.6385 23.063 38.5864 23.0146 38.6259 23.0021C38.5326 22.9877 38.5255 23.0344 38.5308 23.124Z" fill="#F0ECDD"/>
<path d="M38.3874 23.201L38.4412 23.201C38.443 23.1795 38.4358 23.1688 38.3874 23.201Z" fill="#F0ECDD"/>
<path d="M38.5452 23.1978L38.434 23.1978C38.434 23.2318 38.3963 23.2856 38.4824 23.1978C38.4519 23.248 38.4968 23.2121 38.5452 23.1978Z" fill="#F0ECDD"/>
<path d="M38.5829 23.2512C38.6026 23.3122 38.6421 23.366 38.5345 23.3786C38.6887 23.4413 38.7371 23.314 38.5829 23.2512Z" fill="#F0ECDD"/>
<path d="M38.6958 23.8863L38.7227 23.9688L38.8034 23.9419C38.764 23.9562 38.7245 23.8343 38.6958 23.8863Z" fill="#F0ECDD"/>
<path d="M38.1238 22.7598C38.0969 22.792 38.0915 22.8674 38.07 22.9158L38.1489 22.9158C38.1345 22.8674 38.0951 22.8136 38.1238 22.7598Z" fill="#F0ECDD"/>
<path d="M38.07 22.916L37.9516 22.9268C38.0197 22.977 38.0502 22.9555 38.07 22.916Z" fill="#F0ECDD"/>
<path d="M38.2636 23.3752L38.4735 23.3303L38.2367 23.3608L38.2636 23.3752Z" fill="#F0ECDD"/>
<path d="M37.8153 22.5662L37.9104 22.5142L37.7543 22.5859L37.8153 22.5662Z" fill="#F0ECDD"/>
<path d="M37.6001 22.4551C37.6754 22.4085 37.6216 22.3134 37.6826 22.2937C37.6075 22.2822 37.5307 22.2934 37.462 22.326C37.5266 22.326 37.5696 22.3619 37.6001 22.4551Z" fill="#F0ECDD"/>
<path d="M37.3436 22.3582C37.3844 22.3531 37.4243 22.3422 37.462 22.3259C37.4207 22.3285 37.3805 22.3394 37.3436 22.3582V22.3582Z" fill="#F0ECDD"/>
<path d="M37.8278 22.8244C37.837 22.8025 37.8417 22.779 37.8417 22.7553C37.8417 22.7316 37.837 22.7082 37.8278 22.6863L37.7991 22.8046C37.8091 22.8107 37.8187 22.8173 37.8278 22.8244Z" fill="#F0ECDD"/>
<path d="M37.792 22.8082L37.7274 22.7598L37.792 22.8082Z" fill="#F0ECDD"/>
<path d="M38.104 23.1565C38.0233 23.1816 37.887 23.1816 37.9337 23.3233C38.0072 23.2767 37.9821 23.1959 38.104 23.1565Z" fill="#F0ECDD"/>
<path d="M37.7974 22.9772L37.8691 23.0525C37.8835 23.0256 37.8906 22.9772 37.9319 22.9646L37.7974 22.9772Z" fill="#F0ECDD"/>
<path d="M37.7346 22.9825L37.7974 22.9771L37.7687 22.9502L37.7346 22.9825Z" fill="#F0ECDD"/>
<path d="M37.4369 22.5393C37.4108 22.5464 37.3835 22.5481 37.3567 22.5444C37.3299 22.5407 37.3041 22.5316 37.2809 22.5178C37.3173 22.5651 37.3616 22.6058 37.4118 22.638C37.4369 22.6111 37.4925 22.568 37.4369 22.5393Z" fill="#F0ECDD"/>
<path d="M37.6037 22.6792L37.5937 22.6792C37.5937 22.6892 37.5953 22.6942 37.6037 22.6792Z" fill="#F0ECDD"/>
<path d="M36.8253 22.2417L36.8235 22.2632L36.8343 22.2471L36.8253 22.2417Z" fill="#F0ECDD"/>
<path d="M37.4082 22.6613C37.4351 22.7025 37.471 22.6917 37.5104 22.6738C37.4759 22.667 37.4426 22.6549 37.4118 22.6379C37.3992 22.6487 37.3939 22.6577 37.4082 22.6613Z" fill="#F0ECDD"/>
<path d="M37.1894 22.3259C37.1964 22.3581 37.2072 22.3895 37.2217 22.4191C37.2217 22.3779 37.2127 22.3061 37.1894 22.3259Z" fill="#F0ECDD"/>
<path d="M37.5965 22.645C37.6055 22.6145 37.6001 22.6253 37.5965 22.645V22.645Z" fill="#F0ECDD"/>
<path d="M37.5965 22.645C37.5664 22.6497 37.5373 22.6594 37.5104 22.6737C37.5377 22.6791 37.5657 22.6791 37.5929 22.6737C37.5923 22.664 37.5935 22.6543 37.5965 22.645V22.645Z" fill="#F0ECDD"/>
<path d="M36.3053 22.7886C36.3681 22.7008 36.5169 22.6757 36.542 22.8245C36.6658 22.8066 36.7931 22.4658 36.8218 22.2632C36.7967 22.3008 36.7734 22.3385 36.655 22.3403C36.655 22.4084 36.7751 22.5716 36.655 22.6093C36.5133 22.5878 36.5815 22.5214 36.5546 22.4407C36.533 22.5824 36.3107 22.5178 36.2335 22.699L36.3698 22.699C36.3537 22.7277 36.2927 22.7474 36.3053 22.7886Z" fill="#F0ECDD"/>
<path d="M36.9796 22.3708L37.0226 22.3816C36.9894 22.3213 36.9733 22.2531 36.976 22.1843C36.9493 22.1841 36.9228 22.1896 36.8984 22.2005C36.874 22.2113 36.8521 22.2272 36.8343 22.2471L36.9993 22.3655L36.9796 22.3708Z" fill="#F0ECDD"/>
<path d="M37.1804 22.4768C37.0926 22.5593 36.9814 22.5503 36.9688 22.6884C37.0764 22.744 37.0908 22.6508 37.1786 22.6454C36.9993 22.5683 37.2611 22.6185 37.1786 22.4894C37.2152 22.4931 37.251 22.5028 37.2845 22.518C37.261 22.4876 37.2411 22.4545 37.2253 22.4194L37.2253 22.4302C37.2253 22.4463 37.2253 22.4553 37.2253 22.4445C37.216 22.4561 37.2058 22.4669 37.1948 22.4768C37.1589 22.4266 37.1948 22.4463 37.2253 22.4445L37.236 22.4302L37.037 22.3835C37.0766 22.4257 37.1258 22.4577 37.1804 22.4768V22.4768Z" fill="#F0ECDD"/>
<path d="M37.7145 23.4837C37.7151 23.4737 37.7183 23.4641 37.7238 23.4558C37.7052 23.4614 37.6959 23.467 37.7145 23.4837Z" fill="#F0ECDD"/>
<path d="M37.6826 23.3804C37.7041 23.3804 37.7382 23.3409 37.7705 23.3804C37.8027 23.4198 37.7418 23.427 37.7238 23.4611C37.7633 23.4485 37.8494 23.4413 37.8045 23.3463L37.7848 23.3463C37.7437 23.2675 37.7305 23.1771 37.7472 23.0898C37.7121 23.1832 37.6903 23.281 37.6826 23.3804V23.3804Z" fill="#F0ECDD"/>
<path d="M37.4118 22.9553L37.2432 22.9194L37.2611 23.0468L37.2898 22.993C37.3562 23.0593 37.3777 22.984 37.4118 22.9553Z" fill="#F0ECDD"/>
<path d="M36.8397 22.1826L36.9222 22.0894L36.7518 22.188L36.8397 22.1826Z" fill="#F0ECDD"/>
<path d="M36.6514 22.0857L36.7142 21.9978L36.6335 22.0247L36.6514 22.0857Z" fill="#F0ECDD"/>
<path d="M17.3456 11.9082L17.2541 11.8884C17.2833 11.8999 17.3142 11.9066 17.3456 11.9082Z" fill="#F0ECDD"/>
<path d="M17.889 12.2473L17.9302 12.2114C17.889 12.2204 17.8675 12.2312 17.889 12.2473Z" fill="#F0ECDD"/>
<path d="M28.6816 17.2613C28.6224 17.1107 28.5794 16.9027 28.531 17.0138L28.5041 17.134C28.5757 17.1556 28.6382 17.2004 28.6816 17.2613V17.2613Z" fill="#F0ECDD"/>
<path d="M22.6971 14.4421L22.7114 14.4924C22.758 14.4744 22.8029 14.4565 22.8441 14.4421L22.6971 14.4421Z" fill="#F0ECDD"/>
<path d="M22.3689 14.808L22.263 14.6555C22.2905 14.7113 22.3261 14.7627 22.3689 14.808V14.808Z" fill="#F0ECDD"/>
<path d="M14.2915 10.199L14.1408 10.2474C14.2789 10.3299 14.2502 10.242 14.2915 10.199Z" fill="#F0ECDD"/>
<path d="M33.4574 20.1954C33.4017 20.117 33.3339 20.048 33.2565 19.991C33.3444 20.1183 33.3767 20.2654 33.4574 20.1954Z" fill="#F0ECDD"/>
<path d="M18.2047 10.981C18.1473 10.9703 18.115 10.981 18.1024 11.0025C18.1598 11.0133 18.1993 11.0115 18.2047 10.981Z" fill="#F0ECDD"/>
<path d="M32.9857 19.8258C32.9965 19.8455 33.0108 19.8599 33.0216 19.8796C33.1067 19.9031 33.1873 19.9407 33.2601 19.9908C33.2359 19.9391 33.1969 19.8959 33.1481 19.8665C33.0992 19.8371 33.0427 19.8229 32.9857 19.8258V19.8258Z" fill="#F0ECDD"/>
<path d="M3.4953 3.53137C3.4953 3.52241 3.48275 3.51523 3.47916 3.50447C3.47557 3.49371 3.47916 3.5242 3.4953 3.53137Z" fill="#F0ECDD"/>
<path d="M0.948664 0.606201C0.994255 0.627517 1.03857 0.651469 1.08138 0.677937C1.04355 0.643708 0.998022 0.619101 0.948664 0.606201V0.606201Z" fill="#F0ECDD"/>
<path d="M35.5861 21.3789C35.6614 21.4148 35.6041 21.3789 35.5861 21.3789V21.3789Z" fill="#F0ECDD"/>
<path d="M35.6919 21.9817C35.6806 21.9826 35.6696 21.986 35.6597 21.9916C35.6498 21.9971 35.6412 22.0048 35.6346 22.014C35.6489 21.9963 35.6694 21.9848 35.6919 21.9817Z" fill="#F0ECDD"/>
<path d="M31.8989 20.0178C31.9097 20.0447 31.9007 20.0393 31.8989 20.0178V20.0178Z" fill="#F0ECDD"/>
<path d="M35.665 21.4886C35.6448 21.4576 35.6207 21.4292 35.5933 21.4043C35.6137 21.4352 35.6378 21.4635 35.665 21.4886V21.4886Z" fill="#F0ECDD"/>
<path d="M35.6758 21.4329L35.7332 21.4795C35.7547 21.4687 35.7529 21.4526 35.6758 21.4329Z" fill="#F0ECDD"/>
<path d="M35.4839 21.3235C35.5235 21.3458 35.5603 21.3729 35.5933 21.4042C35.5825 21.388 35.5807 21.3791 35.5933 21.3791L35.4839 21.3235Z" fill="#F0ECDD"/>
<path d="M9.46906 6.79334L9.46009 6.77361C9.36325 6.77182 9.39911 6.78437 9.46906 6.79334Z" fill="#F0ECDD"/>
<path d="M26.2111 17.1763L26.2211 17.1763L26.2211 17.1663L26.2111 17.1763Z" fill="#F0ECDD"/>
<path d="M25.909 17.0964C26.0883 17.039 26.1457 17.0964 26.2121 17.1663L26.3018 16.8274L25.909 17.0964Z" fill="#F0ECDD"/>
<path d="M16.0167 11.1404L16.1422 11.3395C15.8356 11.3556 15.71 11.2104 15.8015 11.4381C16.0167 11.1404 16.5189 11.8291 16.7323 11.5314L16.8094 11.6695C16.7771 11.6462 16.761 11.6695 16.7287 11.6372C16.8686 11.9259 17.0371 11.5152 17.3062 11.7394C17.394 11.8255 17.4389 11.9187 17.3456 11.908L17.6218 11.9708C17.6846 12.0174 17.6361 12.0622 17.5734 12.0156L17.932 12.1949C18.0358 12.1845 18.1403 12.1845 18.2441 12.1949C18.3051 12.2936 18.1795 12.1949 18.1777 12.2541L18.4181 12.2954C18.4485 12.4245 18.2387 12.4048 18.1132 12.3133C18.1132 12.7347 18.3212 12.3312 18.601 12.7509L18.3947 12.6791C18.4037 12.9284 18.5866 12.9517 18.7265 13.1867C18.7122 13.0988 18.4808 12.6487 18.7391 12.7078C18.7703 12.7456 18.8099 12.7756 18.8547 12.7956C18.8995 12.8155 18.9483 12.8247 18.9973 12.8226C18.931 12.9338 19.0583 12.9733 19.2018 13.0522L19.1013 13.1938C19.2807 13.2423 19.3112 13.1598 19.4403 13.1472C19.4957 13.1893 19.5359 13.2483 19.5547 13.3154C19.5734 13.3824 19.5698 13.4537 19.5443 13.5184C19.799 13.6978 19.4708 13.2225 19.8043 13.3875C19.9837 13.5794 20.1863 13.6135 20.5056 13.687C20.6293 13.8323 20.4231 13.7606 20.4535 13.8377L20.6723 13.809C20.7046 13.8323 20.6723 13.861 20.6544 13.8771C20.7979 13.9022 20.753 13.7354 20.9611 13.8054C21.1081 13.6745 21.1924 14.2717 21.5296 14.225C21.5601 14.3004 21.4489 14.2986 21.4309 14.3649C21.65 14.4236 21.8772 14.4461 22.1035 14.4313L22.2631 14.6608C22.1698 14.4528 22.4532 14.4456 22.6971 14.4474C22.6812 14.3772 22.6602 14.3083 22.6343 14.2412L22.9679 14.3362C22.9876 14.3811 22.9284 14.4133 22.8441 14.4474C22.871 14.4474 22.8961 14.4474 22.9177 14.4474C22.9858 14.5622 22.8818 14.616 22.758 14.6537L22.7114 14.5012C22.5859 14.5479 22.4603 14.6052 22.4227 14.7003C22.463 14.6967 22.5036 14.7029 22.541 14.7182C22.507 14.7308 22.4819 14.7451 22.4819 14.7649C22.4819 14.7846 22.5321 14.7649 22.602 14.7649L22.5662 14.9675L22.6217 14.9119L22.932 15.2419C23.2907 15.2419 23.6798 15.1361 24.1443 15.3262C23.965 15.3818 24.0027 15.5055 23.9094 15.6472C23.8861 15.4266 23.5507 15.5127 23.3427 15.3495C23.4467 15.4338 23.3804 15.4876 23.3427 15.493L23.8179 15.5934C23.7372 15.7046 23.8466 15.7315 23.9202 15.8409C23.9829 15.5647 24.3057 15.866 24.5066 15.8911C24.4707 15.9754 24.3846 16.031 24.2017 15.8911C24.3111 16.196 24.6429 15.7889 24.7631 16.0704C24.7146 16.0435 24.6967 16.0166 24.6537 16.0435C24.8061 16.0435 25.0446 16.2605 24.9388 16.2892L24.8922 16.2623C25.1899 16.4811 25.8498 16.847 26.0148 16.6802C25.9466 16.7667 25.8704 16.8466 25.7871 16.9187L26.7483 16.6013C26.5977 16.7394 26.5457 17.2541 26.2265 17.1913C26.3071 17.2957 26.4257 17.364 26.5564 17.3814C26.5206 17.3258 26.5762 17.0622 26.6551 17.0891C26.734 17.3922 26.7286 17.2684 26.8685 17.5715C26.8129 17.489 27.0586 17.2774 27.1752 17.3599C27.1321 17.3886 27.0263 17.6271 26.9653 17.6271L27.4262 17.5374C27.3222 17.5374 27.2792 17.7472 27.3025 17.862C27.3025 17.7921 27.5607 18.0252 27.6612 18.0414L27.5697 17.9033C27.8853 18.149 28.1256 17.7437 28.4556 17.9625C28.3821 17.9912 28.1543 18.2297 28.3068 18.3678C28.4664 18.2835 29.0421 17.9427 29.4043 18.0216L29.4151 18.1328L29.6967 18.1848C29.2971 18.3361 28.8821 18.4432 28.4592 18.5041C28.5507 18.6421 28.4413 18.6152 28.6386 18.7246C28.6619 18.8358 28.4592 18.7677 28.409 18.739L28.8269 19.0546C28.9004 18.8878 29.2609 19.1048 29.3218 18.9668L28.7408 18.834C28.8161 18.6673 29.2788 18.5632 29.5855 18.782C29.6285 18.8932 29.3577 19.0206 29.3344 19.0761C29.4061 19.0492 29.6931 19.1568 29.6931 19.2124L29.5137 19.2124C29.6536 19.3756 29.9226 19.1802 30.0517 19.4563C30.1181 19.5101 30.1486 19.7863 30.2167 19.7038C30.2042 19.4546 30.5126 18.895 30.6723 18.8071C30.795 18.9746 30.8991 19.155 30.9825 19.3452C31.0166 19.555 30.6023 19.5657 30.6238 19.7451C30.6543 19.7056 30.753 19.6949 30.7906 19.6949C30.8444 19.7774 30.6794 19.8061 30.857 19.8886C30.9789 19.7487 31.1852 20.1056 31.0148 19.8025C31.2049 19.8563 31.169 19.9406 31.3627 20.0482C31.3627 19.9101 31.7429 19.8078 31.933 19.8688C31.8989 19.9029 31.9043 19.9764 31.9079 20.0123C32.2325 20.2275 32.367 20.4068 32.6773 20.5969C32.6773 20.6525 32.8046 20.7888 32.6988 20.8175C32.7772 20.8006 32.8589 20.8094 32.9319 20.8426C33.0341 21.0919 32.706 20.735 32.7526 20.9843C32.8189 20.9 33.0754 21.0076 33.2458 21.0345C33.2906 20.8677 32.9481 20.8157 32.7777 20.7906C32.8943 20.5951 33.2547 20.536 33.6331 20.6436C33.9201 20.7512 33.669 20.8373 33.73 20.8355C34.1945 21.1636 34.3487 20.7476 34.6661 21.1314C34.7504 21.352 34.5244 21.3824 34.5047 21.49C34.2662 21.4093 34.2303 21.2157 34.0851 21.1314L34.2249 21.2964C34.1676 21.2961 34.111 21.284 34.0585 21.2608C34.0061 21.2377 33.9589 21.204 33.9201 21.1619C33.9864 21.3537 34.7235 21.6783 35.0356 22.0083C35.127 22.0083 35.2669 22.0334 35.2436 21.9509L35.1145 21.8971C35.066 21.7304 35.4211 21.8971 35.2938 21.7573C35.4947 21.7824 35.7404 21.7806 35.9287 21.9725L35.8856 22.1392C35.9054 22.0944 35.7906 21.9599 35.7063 21.9707C35.8372 21.9707 35.934 22.3688 36.1475 22.2469L36.0345 22.0585C36.0847 22.0585 36.1403 22.0585 36.1977 22.0711L36.2425 22.0711C36.252 22.0721 36.2617 22.0721 36.2712 22.0711L36.3286 22.0603C36.3604 22.0517 36.3939 22.052 36.4256 22.0612C36.4572 22.0703 36.4857 22.088 36.5079 22.1123C36.5438 21.9438 36.4739 22.1123 36.4972 21.9043C36.4685 22.0245 36.4021 21.9814 36.3394 21.942C36.3286 21.942 36.2891 21.9115 36.2658 21.8989C36.2493 21.8904 36.2318 21.8838 36.2138 21.8792C36.1762 21.8792 36.1582 21.9007 36.1744 21.9832C36.1439 21.707 35.9735 21.7519 35.882 21.4757C35.8605 21.5259 35.8946 21.6048 35.7439 21.4757C35.724 21.485 35.7029 21.4916 35.6812 21.4954L35.6722 21.4847L35.6722 21.4954C35.6597 21.4954 35.6579 21.4954 35.6722 21.4954C35.6976 21.5312 35.7119 21.5736 35.7135 21.6174C35.5664 21.6748 35.3046 21.5116 35.1754 21.5116C35.0912 21.4309 35.249 21.4847 35.2257 21.4022L35.0463 21.4022C35.0947 21.291 34.8885 21.0704 35.1575 21.1511L34.9584 21.0291C34.873 20.8934 34.74 20.7943 34.5854 20.7512C34.4993 20.6687 34.2662 20.7135 34.4061 20.6848L34.0474 20.5503L34.06 20.5234C33.7443 20.3136 33.2906 20.2903 33.0341 19.8796C32.8799 19.8392 32.7366 19.7651 32.6145 19.6626L32.6324 19.5514C32.4746 19.4976 32.2737 19.2071 32.15 19.2645C32.15 18.9327 31.5044 18.8 31.2838 18.6081L31.2049 18.7193C31.0159 18.6103 30.8133 18.5271 30.6023 18.4718L30.5521 18.583C30.3208 18.5579 30.1324 18.2243 29.8347 18.0629C29.8778 18.036 29.9441 18.0898 29.98 18.1454C29.7791 17.7042 29.1568 17.8764 28.9488 17.5177C28.9117 17.5149 28.8759 17.503 28.8446 17.483C28.8133 17.4629 28.7875 17.4354 28.7695 17.4029C28.7766 17.4045 28.7839 17.4045 28.791 17.4029C28.7818 17.3945 28.7715 17.3873 28.7605 17.3814C28.7372 17.3437 28.7139 17.3007 28.687 17.2612C28.7002 17.3011 28.7195 17.3386 28.7444 17.3724C28.661 17.3273 28.5725 17.2924 28.4807 17.2684L28.5023 17.1339C28.4954 17.1302 28.4882 17.1272 28.4807 17.1249C28.418 17.0317 28.3785 17.1339 28.3731 17.2469C28.3214 17.239 28.2688 17.239 28.2171 17.2469C28.2548 17.0263 27.9463 17.1662 27.966 16.9169C27.8495 16.9743 27.4782 16.7161 27.3132 16.8828C27.324 16.8559 27.3132 16.8272 27.3545 16.8559C27.3205 16.8099 27.2776 16.7712 27.2283 16.7423C27.179 16.7133 27.1243 16.6946 27.0675 16.6874L27.1106 16.5206L26.7806 16.5798C26.7017 16.413 26.6784 16.3305 26.8739 16.3018C26.4578 16.2767 26.5797 16.2085 26.2121 16.2121L26.2803 16.1296C26.1834 16.074 25.9574 16.1045 25.9449 15.9933C25.8355 15.6902 24.9011 15.328 24.451 14.833C24.3954 15.1666 24.2717 14.5586 24.121 14.7541C24.121 14.6698 24.0726 14.5891 24.1945 14.5873C23.8771 14.4797 23.8359 14.2286 23.5364 14.2896C23.5364 14.2053 23.6529 14.2322 23.6458 14.1784C23.6153 14.1784 23.5238 14.1784 23.5184 14.1228C23.5131 14.0672 23.592 14.0941 23.6529 14.0941C23.3606 13.9309 23.2118 14.1085 23.0809 14.2735C22.9876 14.0941 22.9015 14.0654 22.7222 14.1228C22.7078 14.0331 22.6612 13.9184 22.8531 14.0045C22.758 13.9345 22.2954 13.5453 22.1949 13.687C22.1949 13.6314 22.0622 13.592 22.0263 13.592C21.8805 13.4843 21.727 13.3872 21.5672 13.3014L21.6139 13.3624C21.4184 13.488 21.4058 13.2925 21.2157 13.2046L21.2319 13.1903C20.9019 12.8154 21.0185 13.1454 20.7046 12.7545L20.6598 12.8782C20.4804 13.0934 20.389 12.5195 20.1002 12.4711L20.1469 12.5859C19.9675 12.5859 19.9873 12.0479 19.8779 11.9403C19.8617 11.9026 19.9406 11.9403 19.9891 11.9403C19.7398 11.5959 19.8581 12.0586 19.5891 11.9403C19.5891 11.8345 19.7685 11.7771 19.6089 11.6623C19.564 11.5475 18.9686 11.6193 18.8305 11.3305C18.8449 11.4202 18.8574 11.5099 18.714 11.4865C18.5239 11.4005 18.3714 10.9683 18.097 11.0597C18.0918 11.0494 18.0891 11.0381 18.0891 11.0265C18.0891 11.015 18.0918 11.0036 18.097 10.9934C17.932 10.9593 17.6057 10.814 17.4622 10.8589C17.568 10.4015 16.5063 10.5325 16.7215 10.1828L16.2929 9.94782L16.3252 9.91912C16.2536 9.85412 16.1668 9.80809 16.0728 9.78522C15.9788 9.76235 15.8806 9.76338 15.7872 9.78821C15.7405 9.72544 15.8051 9.72006 15.8212 9.70571C15.4751 9.39725 15.4267 9.39008 14.9945 9.36497L15.0286 9.23046C14.8994 9.24302 14.573 8.71038 14.1103 8.60995C14.12 8.60063 14.1316 8.59354 14.1443 8.5892C14.157 8.58486 14.1705 8.58338 14.1839 8.58485C13.6728 8.45752 13.3446 7.64332 12.9285 7.96254L12.5824 7.8926C12.9303 8.14726 12.4174 8.03966 12.5268 8.19927C12.3672 8.1365 12.2291 7.84059 12.421 7.93385L12.4353 7.97151C12.6326 7.79217 12.0246 7.61283 12.1251 7.47653C11.3952 7.04791 10.7639 6.50093 10.0914 6.08128L10.0681 6.29649L9.85105 6.15302C9.81339 6.0759 9.85105 5.97368 10.0125 6.07949C9.98197 5.93064 9.68068 5.98802 9.65378 6.02031C9.36505 5.75309 9.90127 5.90374 9.80263 5.84097L9.65916 5.77103L9.6771 5.80869C9.52466 5.80869 9.47086 5.87683 9.27179 5.74592C9.16419 5.63473 9.27179 5.60245 9.22337 5.56658C9.22337 5.55403 9.22337 5.53968 9.14805 5.51457L8.85931 5.31909L8.89877 5.52533C8.71943 5.51098 8.62259 5.34599 8.66921 5.58093C8.60824 5.22225 7.60932 4.82412 7.52862 4.68423C7.29215 4.65513 7.06885 4.55934 6.8848 4.40805C6.92425 4.46903 6.86686 4.6394 6.68394 4.5031C6.94218 4.23768 6.40775 4.14442 6.38444 3.83417C6.43645 4.06731 5.80877 3.53467 5.90382 3.87721C5.75496 3.75347 5.963 3.75705 5.88409 3.6082C5.42498 3.49343 5.07886 3.0128 4.57492 2.76352C4.54264 2.79939 4.58568 2.91058 4.44758 2.90699L4.31667 2.54831C4.21086 2.51065 4.08891 2.72765 4.00103 2.48375C4.00103 2.53217 4.00103 2.6057 3.93826 2.58059C3.12048 1.81482 1.92609 1.57988 1.19797 0.631184C1.28047 0.789001 1.189 0.744167 1.08858 0.686778C1.14238 0.744167 1.0276 0.785415 1.00608 0.848183L0.701204 0.453638C0.536212 0.563035 0.267205 0.204358 0.138081 0.324515L0.27976 0.376523C0.00716524 0.444671 0.279758 0.900191 0.123733 1.10464C0.430402 1.02393 0.444751 1.69466 0.921792 1.6032C0.96304 1.68928 0.82136 1.63907 0.82674 1.71259C0.961244 1.66417 1.06885 1.70183 1.2177 1.85069L1.18362 1.86145C1.68757 2.13763 1.8418 2.35821 2.3565 2.75814L2.38161 2.62543C2.44842 2.67754 2.50139 2.74529 2.53584 2.8227C2.77077 2.7402 2.20765 2.61108 2.44258 2.50348C2.4641 2.82091 3.27651 3.01459 3.22988 3.33202C3.40922 3.44321 3.25319 3.17241 3.43432 3.28539L3.43432 3.38224L3.53296 3.32305C3.57587 3.35137 3.60804 3.39328 3.6243 3.44206C3.64055 3.49083 3.63997 3.54366 3.62263 3.59206C3.59752 3.56695 3.52937 3.55799 3.4953 3.54364C3.6029 3.72298 3.95082 3.78216 3.98669 3.84134L3.83783 3.69249C4.37585 3.93101 4.92821 4.39012 5.49313 4.54256L5.49313 4.46903C5.91816 4.59815 5.75317 4.70396 6.18358 4.90482L6.16027 4.90482C6.28315 4.90587 6.40273 4.94469 6.5028 5.01601C6.36471 5.01601 6.62296 5.24915 6.449 5.2348C6.9099 5.37469 6.6947 5.27426 7.0749 5.2348L7.0749 5.35675C7.13798 5.33511 7.20506 5.32759 7.27137 5.33472C7.33769 5.34184 7.40163 5.36345 7.45868 5.398C7.24885 5.3711 7.5071 5.60603 7.2632 5.59169C7.57346 6.03465 8.00566 5.78358 8.03435 6.17454C8.37151 6.05617 7.74741 5.81586 7.8873 5.83738C7.84246 5.70467 8.15451 5.75847 8.27288 5.86249C8.39124 5.9665 8.3195 6.30366 8.66204 6.50452C8.62796 6.483 8.61541 6.50452 8.58313 6.47762C8.6728 6.61571 8.88083 6.54756 8.97768 6.74125C9.15702 6.65158 9.17495 6.87216 9.31125 6.70538L8.97409 6.55832C9.17854 6.6175 9.47444 6.50452 9.7022 6.78429C9.62498 6.80479 9.54425 6.80846 9.46548 6.79505C9.51749 6.89906 9.64482 6.85782 9.70579 6.97439C9.56949 7.14117 9.30228 6.78429 9.02968 6.8076C9.07452 6.94031 9.46727 6.89368 9.25206 7.03357C9.5408 6.86499 9.5677 7.2685 9.91382 7.21291L9.83312 7.31154C9.90836 7.30919 9.98317 7.3239 10.0519 7.35458L9.84388 7.42273C10.1039 7.42273 10.1398 7.74554 10.3586 7.78141C9.98197 7.55724 10.3586 7.60207 10.2438 7.42273C10.7944 7.55544 10.3353 7.86929 10.884 8.12933C10.8051 8.10243 10.6617 7.90515 10.8015 7.92129C10.8948 8.00237 10.9683 8.10355 11.0168 8.2172C11.3754 8.39654 11.0311 8.07373 11.2176 8.09525C11.2535 8.2979 11.4185 8.14188 11.5942 8.1903L11.5279 8.30328C11.8758 8.60995 11.7718 8.13471 12.0659 8.43241L11.8238 8.50056L12.0318 8.57229L11.917 8.67451C12.0091 8.6801 12.0989 8.70465 12.181 8.74662C12.2631 8.78859 12.3357 8.84708 12.3941 8.91842C12.3941 8.81261 12.5411 8.73908 12.7169 8.83413C12.794 8.97042 12.586 8.89869 12.8406 9.0314C12.7438 9.06727 12.629 9.11748 12.586 8.9507C12.5519 8.98118 12.4891 8.98836 12.4551 9.01705C12.5358 9.16949 12.7635 9.22688 12.8532 9.28068C12.8205 9.25874 12.793 9.22998 12.7725 9.19639L13.2208 9.25737C13.2513 9.33269 13.1868 9.33986 13.124 9.34524C13.2157 9.36085 13.3062 9.38303 13.3948 9.4116C13.3123 9.48513 13.2621 9.59093 13.0881 9.53355L13.4862 9.63936C13.4862 9.69136 13.5938 9.85277 13.5311 9.85815C13.6853 10.0249 14.096 9.96217 14.3022 10.1845C14.3411 10.1707 14.3835 10.1707 14.4224 10.1845C14.643 10.3477 14.7811 10.5827 15.1397 10.6275L15.1989 10.8858C15.4374 10.9808 15.1093 10.5522 15.5074 10.7064C15.7943 10.8104 15.5182 10.9019 15.5809 11.0023C15.7603 11.0023 16.0795 10.9665 16.2337 11.2408C16.144 11.2337 16.0974 11.1727 16.0167 11.1404ZM18.7355 12.6935C18.6691 12.6935 18.5221 12.6935 18.5239 12.6056C18.6602 12.5142 18.6691 12.602 18.7355 12.6935ZM22.9625 14.894C22.9015 14.9065 22.8531 14.8527 22.8101 14.7702C22.8731 14.7935 22.9267 14.837 22.9625 14.894V14.894ZM34.754 20.9915C34.6554 20.8857 34.6858 20.9269 34.754 20.9969L34.754 20.9915ZM34.9584 21.1905C34.9907 21.1905 34.9979 21.1726 34.9979 21.1511C34.9638 21.169 34.9082 21.1385 34.8526 21.0937C34.8598 21.1332 34.8777 21.1708 34.9584 21.1905ZM9.15702 5.5881L9.1875 5.64549C9.06914 5.61141 9.11577 5.60065 9.16419 5.58631L9.15702 5.5881Z" fill="#F0ECDD"/>
<path d="M22.4048 14.767C22.4029 14.741 22.4078 14.7151 22.4191 14.6917C22.3922 14.706 22.3778 14.7203 22.4048 14.767Z" fill="#F0ECDD"/>
<path d="M14.3183 10.1902C14.3108 10.1934 14.304 10.1983 14.2986 10.2045L14.3183 10.1902Z" fill="#F0ECDD"/>
<path d="M30.6758 19.8746C30.6452 19.8421 30.6241 19.8018 30.6148 19.7581C30.5969 19.785 30.6041 19.8208 30.6758 19.8746Z" fill="#F0ECDD"/>
<path d="M36.3501 21.7735L36.1797 21.709C36.2308 21.7351 36.2718 21.7773 36.2963 21.8291C36.3089 21.8022 36.3017 21.7466 36.3501 21.7735Z" fill="#F0ECDD"/>
<path d="M36.6819 22.9141C36.7034 22.9141 36.7088 22.9284 36.7285 22.9141L36.7572 22.8621C36.7034 22.8405 36.6424 22.8603 36.6819 22.9141Z" fill="#F0ECDD"/>
<path d="M36.2317 22.2058C36.1815 22.3026 36.2533 22.3026 36.3214 22.3206C36.3179 22.3218 36.3141 22.3218 36.3106 22.3206C36.4075 22.195 36.3196 22.2004 36.2317 22.2058Z" fill="#F0ECDD"/>
<path d="M36.3375 22.326C36.3578 22.3325 36.3767 22.3429 36.3931 22.3565C36.4308 22.308 36.377 22.3332 36.3375 22.326Z" fill="#F0ECDD"/>
<path d="M35.3064 21.3126C35.344 21.3682 35.4104 21.214 35.4175 21.2696C35.5467 21.1853 34.9889 21.2068 35.3064 21.3126Z" fill="#F0ECDD"/>
<path d="M36.0919 22.5429L36.1421 22.4138L36.0524 22.4873L36.0919 22.5429Z" fill="#F0ECDD"/>
<path d="M35.3709 21.9888L35.5234 22.1251C35.5323 22.1035 35.561 22.1053 35.5933 22.1143C35.4965 22.0462 35.3871 21.9511 35.3709 21.9888Z" fill="#F0ECDD"/>
<path d="M35.5933 22.1143C35.6369 22.1487 35.6889 22.171 35.7439 22.1788C35.6967 22.1508 35.6461 22.1291 35.5933 22.1143V22.1143Z" fill="#F0ECDD"/>
<path d="M35.9143 22.4821L35.8767 22.4265L35.7619 22.344L35.9143 22.4821Z" fill="#F0ECDD"/>
<path d="M33.5345 20.8427L33.3265 20.762C33.2834 20.7907 33.3265 20.8445 33.4 20.8714C33.4735 20.8983 33.5399 20.8983 33.5345 20.8427Z" fill="#F0ECDD"/>
<path d="M33.9111 21.5028C33.8752 21.449 33.8878 21.4203 33.8824 21.3665L33.7892 21.5045L33.9111 21.5028Z" fill="#F0ECDD"/>
<path d="M33.3444 21.2048C33.3031 21.2317 33.0036 21.1528 33.2475 21.2873C33.2888 21.2604 33.4968 21.3411 33.3444 21.2048Z" fill="#F0ECDD"/>
<path d="M30.6238 19.3059L30.6722 19.3328L30.8085 19.0942L30.6238 19.3059Z" fill="#F0ECDD"/>
<path d="M27.7849 18.3519C27.975 18.5438 27.9266 18.2389 28.0844 18.4326C28.1705 18.4075 27.9553 18.2748 28.0378 18.2533C27.871 18.2371 27.8208 18.16 27.7849 18.3519Z" fill="#F0ECDD"/>
<path d="M28.0414 18.2585C28.0712 18.2614 28.1012 18.2614 28.131 18.2585C28.1013 18.254 28.0711 18.254 28.0414 18.2585V18.2585Z" fill="#F0ECDD"/>
<path d="M0.50032 0.163397L0.385544 0.0270996L0.430379 0.161603L0.50032 0.163397Z" fill="#F0ECDD"/>
<path d="M0.120121 0.179338L0.166748 0L-3.54481e-05 0.0824957C0.0447992 0.0950494 0.114741 0.12195 0.120121 0.179338Z" fill="#F0ECDD"/>
<path d="M18.9489 13.2352L18.983 13.2065C18.983 13.1545 18.9525 13.1312 18.8879 13.0828L18.9489 13.2352Z" fill="#F0ECDD"/>
<path d="M17.0766 11.9458L17.1089 11.9691L17.1268 11.7952L17.0766 11.9458Z" fill="#F0ECDD"/>
<path d="M15.3424 11.1279C15.407 11.1745 15.502 11.1924 15.5666 11.2373C15.4105 11.1745 15.4267 10.9485 15.3424 11.1279Z" fill="#F0ECDD"/>
<path d="M25.4033 27.0353C25.3638 27.0192 25.362 27.1322 25.3531 27.1519C25.4248 27.1358 25.4051 27.0049 25.4033 27.0353Z" fill="#F0ECDD"/>
<path d="M26.1009 26.8722L26.083 26.917L26.1959 26.8184L26.1009 26.8722Z" fill="#F0ECDD"/>
<path d="M26.7196 26.9563C26.6856 26.7573 26.4919 26.9563 26.3897 26.8774L26.3771 26.8308L26.3072 26.9779C26.4452 26.9725 26.6318 26.9008 26.7196 26.9563Z" fill="#F0ECDD"/>
<path d="M27.0012 27.4084C26.9886 27.3313 27.0801 27.3528 26.9259 27.3761L26.9384 27.3958C26.9596 27.3984 26.9806 27.4026 27.0012 27.4084V27.4084Z" fill="#F0ECDD"/>
<path d="M26.9384 27.3958C26.8721 27.3958 26.9725 27.4639 26.9384 27.3958V27.3958Z" fill="#F0ECDD"/>
<path d="M27.2469 27.3906L27.1518 27.4462C27.1644 27.4928 27.2397 27.5126 27.2074 27.5413C27.3007 27.5144 27.2881 27.4695 27.2469 27.3906Z" fill="#F0ECDD"/>
<path d="M27.3437 27.2595L27.2971 27.2828C27.3025 27.3044 27.3132 27.3115 27.3437 27.2595Z" fill="#F0ECDD"/>
<path d="M27.1949 27.3315L27.2971 27.2849C27.2971 27.2526 27.2971 27.1898 27.2505 27.301C27.2648 27.2454 27.2469 27.2974 27.1949 27.3315Z" fill="#F0ECDD"/>
<path d="M27.1447 27.297C27.0998 27.2486 27.0406 27.2145 27.1357 27.1589C26.9671 27.1661 26.9761 27.3024 27.1447 27.297Z" fill="#F0ECDD"/>
<path d="M26.777 26.7627L26.7196 26.7L26.6551 26.7555C26.6874 26.7215 26.7734 26.8237 26.777 26.7627Z" fill="#F0ECDD"/>
<path d="M27.7741 27.552C27.7849 27.5107 27.7562 27.4408 27.7562 27.387L27.6881 27.4264C27.7167 27.4587 27.7759 27.491 27.7741 27.552Z" fill="#F0ECDD"/>
<path d="M27.7562 27.387L27.8602 27.3278C27.7759 27.3099 27.7562 27.3421 27.7562 27.387Z" fill="#F0ECDD"/>
<path d="M27.385 27.0515L27.211 27.1788L27.4155 27.0533L27.385 27.0515Z" fill="#F0ECDD"/>
<path d="M28.14 27.5948L28.0754 27.6845L28.1866 27.5518L28.14 27.5948Z" fill="#F0ECDD"/>
<path d="M28.3839 27.6055C28.3355 27.679 28.4269 27.7418 28.3839 27.7848C28.4546 27.7623 28.5171 27.7192 28.5632 27.6611C28.5022 27.6916 28.452 27.6772 28.3839 27.6055Z" fill="#F0ECDD"/>
<path d="M28.6601 27.5842C28.6262 27.607 28.5949 27.6335 28.5668 27.6631C28.6038 27.6447 28.6358 27.6177 28.6601 27.5842V27.5842Z" fill="#F0ECDD"/>
<path d="M28.0198 27.3652C28.0215 27.389 28.028 27.4122 28.0388 27.4334C28.0495 27.4547 28.0644 27.4736 28.0826 27.489L28.0575 27.3706C28.0467 27.3694 28.0342 27.3676 28.0198 27.3652Z" fill="#F0ECDD"/>
<path d="M28.0575 27.3669C28.0993 27.3741 28.1262 27.3795 28.1382 27.3831C28.1274 27.3831 28.1041 27.3777 28.0575 27.3669Z" fill="#F0ECDD"/>
<path d="M28.0112 27.3631C28.0179 27.353 28.0162 27.3497 28.0112 27.3631V27.3631Z" fill="#F0ECDD"/>
<path d="M27.6217 27.1841C27.6863 27.1267 27.801 27.0712 27.7078 26.96C27.6594 27.0353 27.7167 27.0981 27.6217 27.1841Z" fill="#F0ECDD"/>
<path d="M27.9804 27.2164L27.8817 27.1787C27.8817 27.2092 27.8925 27.2558 27.862 27.2845L27.9804 27.2164Z" fill="#F0ECDD"/>
<path d="M28.0324 27.1843L27.9786 27.2166L28.0162 27.2292L28.0324 27.1843Z" fill="#F0ECDD"/>
<path d="M28.5022 27.4585C28.545 27.4237 28.5997 27.407 28.6547 27.4119C28.5985 27.384 28.5377 27.3664 28.4753 27.3599C28.4646 27.3939 28.4341 27.4567 28.5022 27.4585Z" fill="#F0ECDD"/>
<path d="M28.2842 27.4037L28.2942 27.4037C28.2892 27.3886 28.2859 27.3853 28.2842 27.4037Z" fill="#F0ECDD"/>
<path d="M28.47 27.3366C28.4287 27.3115 28.3982 27.3366 28.3713 27.3689C28.4058 27.3595 28.4416 27.3565 28.4771 27.36C28.4825 27.3438 28.4843 27.3331 28.47 27.3366Z" fill="#F0ECDD"/>
<path d="M28.8143 27.5428C28.7937 27.5174 28.7702 27.4945 28.7443 27.4746C28.7641 27.5123 28.8035 27.5732 28.8143 27.5428Z" fill="#F0ECDD"/>
<path d="M28.3052 27.4387C28.3103 27.4604 28.3103 27.4487 28.3052 27.4387V27.4387Z" fill="#F0ECDD"/>
<path d="M28.305 27.439C28.3301 27.4215 28.3524 27.4003 28.3713 27.3762C28.3439 27.3815 28.3178 27.3918 28.2942 27.4067L28.305 27.439Z" fill="#F0ECDD"/>
<path d="M29.4097 26.7412C29.3918 26.847 29.2698 26.9349 29.182 26.8112C29.0779 26.8829 29.1084 27.2362 29.182 27.4406C29.182 27.394 29.1927 27.351 29.2985 27.2972C29.268 27.2362 29.0887 27.1411 29.182 27.0533C29.3183 27.0102 29.286 27.1017 29.3452 27.1627C29.3039 27.0264 29.5245 26.9833 29.5245 26.7896L29.4025 26.847C29.399 26.8165 29.4384 26.7717 29.4097 26.7412Z" fill="#F0ECDD"/>
<path d="M28.9864 27.4119L28.9434 27.4208C28.9882 27.4441 29.0187 27.489 29.0725 27.5786C29.0966 27.567 29.118 27.5505 29.1352 27.5301C29.1525 27.5097 29.1654 27.4859 29.173 27.4603L28.9703 27.4262L28.9864 27.4119Z" fill="#F0ECDD"/>
<path d="M28.7569 27.4047C28.8018 27.2917 28.904 27.2523 28.8556 27.1213C28.7336 27.1213 28.7623 27.211 28.6762 27.254C28.8735 27.2433 28.6134 27.3132 28.748 27.3903C28.7136 27.4037 28.6772 27.411 28.6403 27.4119C28.6739 27.4298 28.7057 27.4508 28.7354 27.4746V27.4746C28.7354 27.4603 28.7354 27.4513 28.7354 27.4603C28.7354 27.4693 28.7354 27.4603 28.7354 27.4603L28.748 27.4172C28.8035 27.4459 28.748 27.4477 28.7354 27.4603L28.7354 27.4764L28.938 27.4316C28.8807 27.4081 28.8186 27.3989 28.7569 27.4047V27.4047Z" fill="#F0ECDD"/>
<path d="M27.8381 26.7217C27.8407 26.7308 27.8407 26.7405 27.8381 26.7496C27.8567 26.7403 27.8623 26.731 27.8381 26.7217Z" fill="#F0ECDD"/>
<path d="M27.9104 26.8022C27.8961 26.8165 27.8781 26.8614 27.8333 26.8452C27.7885 26.8291 27.8333 26.7896 27.8333 26.752C27.8028 26.7789 27.7275 26.8237 27.8082 26.89L27.8225 26.8757C27.8979 26.9223 27.9822 27.0766 27.9678 27.0909C27.9621 26.9925 27.9428 26.8953 27.9104 26.8022V26.8022Z" fill="#F0ECDD"/>
<path d="M28.3409 27.0802L28.5094 27.0408L28.4377 26.9314L28.4377 26.9924C28.3444 26.9547 28.357 27.03 28.3409 27.0802Z" fill="#F0ECDD"/>
<path d="M29.1963 27.5214L29.164 27.6416L29.2734 27.4766L29.1963 27.5214Z" fill="#F0ECDD"/>
<path d="M29.4097 27.5247L29.3936 27.6305L29.4545 27.5713L29.4097 27.5247Z" fill="#F0ECDD"/>
<path d="M41.3447 25.9466L41.2962 25.925C41.3117 25.9337 41.3279 25.9409 41.3447 25.9466Z" fill="#F0ECDD"/>
<path d="M41.4146 26.0779L41.4935 26.1084C41.4689 26.0943 41.4423 26.0841 41.4146 26.0779V26.0779Z" fill="#F0ECDD"/>
<path d="M35.4964 27.7834C35.5789 27.8839 35.6758 28.0381 35.6632 27.918L35.6363 27.8014C35.6134 27.8105 35.5885 27.8137 35.5641 27.8105C35.5396 27.8074 35.5163 27.7981 35.4964 27.7834V27.7834Z" fill="#F0ECDD"/>
<path d="M39.6804 26.9708L39.6553 26.9368L39.6051 27.0515L39.6804 26.9708Z" fill="#F0ECDD"/>
<path d="M39.7109 26.4846L39.8221 26.5546C39.7892 26.5252 39.7516 26.5016 39.7109 26.4846V26.4846Z" fill="#F0ECDD"/>
<path d="M40.3601 24.5317L40.2238 24.5317C40.2776 24.6232 40.3063 24.5533 40.3601 24.5317Z" fill="#F0ECDD"/>
<path d="M31.9097 27.6576C31.9629 27.6969 32.0241 27.7238 32.089 27.7365C32.0047 27.6648 31.942 27.5626 31.9097 27.6576Z" fill="#F0ECDD"/>
<path d="M43.0287 26.3629C42.9936 26.3224 42.9475 26.2931 42.896 26.2786C42.9551 26.3377 43 26.3629 43.0287 26.3629Z" fill="#F0ECDD"/>
<path d="M32.2935 27.7457C32.2824 27.7351 32.2704 27.7255 32.2576 27.717C32.2005 27.7388 32.1388 27.7456 32.0783 27.7368C32.1482 27.7977 32.2199 27.8229 32.2935 27.7457Z" fill="#F0ECDD"/>
<path d="M36.3322 17.5508C36.3314 17.5427 36.3314 17.5346 36.3322 17.5266C36.321 17.534 36.3229 17.5415 36.3322 17.5508Z" fill="#F0ECDD"/>
<path d="M36.1474 14.9299C36.1694 14.9541 36.1886 14.9805 36.2048 15.0088C36.203 14.9891 36.1869 14.964 36.1474 14.9299Z" fill="#F0ECDD"/>
<path d="M30.3512 27.6521C30.2955 27.6521 30.3401 27.6651 30.3512 27.6521V27.6521Z" fill="#F0ECDD"/>
<path d="M30.127 27.1715C30.1422 27.1574 30.1517 27.1383 30.1539 27.1177C30.1504 27.1378 30.141 27.1565 30.127 27.1715V27.1715Z" fill="#F0ECDD"/>
<path d="M32.8512 27.0442C32.8423 27.0209 32.844 27.0245 32.8512 27.0442V27.0442Z" fill="#F0ECDD"/>
<path d="M30.2741 27.593C30.2942 27.6093 30.3166 27.6226 30.3405 27.6325C30.3203 27.6163 30.2979 27.6031 30.2741 27.593V27.593Z" fill="#F0ECDD"/>
<path d="M30.2813 27.6486L30.2346 27.6343C30.2275 27.6522 30.2329 27.6648 30.2813 27.6486Z" fill="#F0ECDD"/>
<path d="M30.4248 27.6523C30.3957 27.6506 30.3672 27.6439 30.3405 27.6326C30.3405 27.6326 30.353 27.6487 30.3512 27.6523L30.4248 27.6523Z" fill="#F0ECDD"/>
<path d="M38.8034 21.1047L38.8034 21.0903C38.7389 21.0688 38.7568 21.0849 38.8034 21.1047Z" fill="#F0ECDD"/>
<path d="M37.0531 26.4722C36.976 26.6174 36.9294 26.6013 36.8738 26.5708L36.9312 26.9008L37.0531 26.4722Z" fill="#F0ECDD"/>
<path d="M41.0739 25.5593L41.0524 25.7261C40.821 25.6759 40.8138 25.5468 40.7511 25.7261C40.7783 25.7104 40.8093 25.7021 40.8407 25.7021C40.8722 25.7021 40.9031 25.7104 40.9304 25.7261C40.9558 25.7419 40.9782 25.7619 40.9968 25.7853L41.0165 25.7979C41.0362 25.8158 41.0577 25.8337 41.2496 25.7979C41.2295 25.8137 41.2079 25.8275 41.1851 25.8391C41.1851 25.8391 41.1618 25.8391 41.1618 25.8265C41.0811 25.8624 41.1528 25.8552 41.2532 25.8624C41.3536 25.8696 41.4756 25.8893 41.4738 25.9377C41.472 25.9862 41.4021 25.9754 41.3375 25.9503C41.3859 25.9736 41.4379 26.0023 41.4917 26.0346C41.4917 26.0525 41.4039 26.0256 41.4039 26.0113L41.5007 26.1171L41.4846 26.1171C41.5944 26.1705 41.701 26.2304 41.8038 26.2964C41.7428 26.2964 41.7338 26.2552 41.6693 26.2354C41.7267 26.2749 41.7876 26.3197 41.8486 26.3664C41.7304 26.3288 41.6228 26.2636 41.5348 26.1763C41.2676 26.0848 41.3016 26.0973 41.3788 26.144C41.4157 26.1653 41.451 26.1893 41.4846 26.2157C41.5168 26.2426 41.4648 26.2301 41.359 26.1852C41.3481 26.1674 41.3341 26.1516 41.3178 26.1386C41.166 26.0709 41.0186 25.9936 40.8766 25.9073C40.9744 25.9723 41.0756 26.0322 41.1797 26.0866C41.2942 26.1396 41.4035 26.2032 41.5061 26.2767C41.4433 26.2552 41.4092 26.2444 41.4702 26.3143C41.2909 26.1978 41.3106 26.2301 41.2801 26.239L41.0846 26.083C41.1169 26.1296 41.2102 26.2103 41.264 26.2839C41.194 26.2731 41.0721 26.1494 40.9752 26.0453C40.9501 26.0328 40.9932 26.083 41.0488 26.1404C41.1044 26.1978 41.1725 26.2605 41.1366 26.2785C41.0255 26.2229 41.047 26.291 40.9734 26.4004C40.9053 26.3466 40.9573 26.2964 40.9268 26.248C40.925 26.295 40.9196 26.3417 40.9107 26.3879C40.8963 26.3879 40.8963 26.343 40.8945 26.3215C40.8569 26.3789 40.9304 26.4919 40.8031 26.5475C40.7798 26.7394 40.5054 26.2928 40.3547 26.5188C40.3099 26.474 40.3673 26.413 40.3547 26.3395C40.2159 26.4205 40.0941 26.5277 39.9961 26.6551L39.8293 26.5529C39.9548 26.6748 39.8131 26.8362 39.6876 26.9689C39.7212 27.0171 39.7584 27.0626 39.7988 27.1052L39.5907 27.211C39.5638 27.1841 39.5818 27.1232 39.6123 27.0496L39.5764 27.0945C39.4975 27.0353 39.5316 26.9331 39.5764 26.8344C39.6033 26.8667 39.6302 26.9026 39.6589 26.9349C39.7106 26.8347 39.7353 26.7229 39.7306 26.6103C39.7132 26.6324 39.6904 26.6497 39.6643 26.6605C39.6758 26.6384 39.6796 26.6132 39.675 26.5887C39.675 26.5708 39.6481 26.6103 39.6159 26.6551L39.5567 26.4758L39.5567 26.5529L39.2626 26.4417C39.0832 26.6425 38.9182 26.9349 38.608 27.0281C38.6797 26.8846 38.608 26.7986 38.608 26.6318C38.7012 26.8111 38.8465 26.5457 39.0097 26.5744C38.9963 26.5725 38.9836 26.5672 38.9729 26.5588C38.9623 26.5505 38.954 26.5395 38.9489 26.527C38.9438 26.5145 38.9421 26.5008 38.9439 26.4874C38.9458 26.474 38.9512 26.4613 38.9595 26.4506L38.6779 26.63C38.6779 26.4919 38.6134 26.5296 38.5344 26.4775C38.6026 26.743 38.3282 26.6676 38.2134 26.7537C38.2027 26.6623 38.226 26.5744 38.3712 26.5852C38.2063 26.3897 38.1776 26.908 38.0126 26.7412C38.0484 26.7412 38.0664 26.7519 38.0789 26.7053C38 26.7878 37.7974 26.7304 37.8422 26.6497L37.8781 26.6497C37.6431 26.6246 37.1697 26.6694 37.1392 26.8972C37.1457 26.789 37.1583 26.6812 37.1769 26.5744L36.7751 27.3509C36.8092 27.1537 36.6604 26.6874 36.8522 26.5744C36.8156 26.5521 36.773 26.5413 36.7302 26.5436C36.6873 26.5458 36.6461 26.5609 36.6119 26.5869C36.6496 26.6138 36.7088 26.8685 36.6586 26.8882C36.5133 26.6712 36.5581 26.7717 36.3806 26.5887C36.438 26.63 36.3806 26.9384 36.2891 26.9295C36.3017 26.8846 36.2784 26.6264 36.3106 26.5941L36.0901 26.899C36.1457 26.8434 36.0901 26.6425 36.047 26.5565C36.0703 26.6156 35.8551 26.5565 35.7959 26.5816L35.891 26.6515C35.6399 26.6049 35.6435 27.0765 35.3924 27.0604C35.4229 26.9976 35.4678 26.6766 35.3404 26.639C35.283 26.7932 35.0786 27.385 34.8526 27.4998L34.8114 27.4101L34.632 27.5087C34.7957 27.1892 34.9884 26.8855 35.2077 26.6013C35.1127 26.5296 35.1808 26.4973 35.0409 26.5027C34.9925 26.4202 35.118 26.3789 35.1593 26.3735L34.8329 26.3161C34.8455 26.4955 34.5818 26.4955 34.5908 26.6443L34.9495 26.465C34.962 26.6443 34.7378 26.9743 34.5047 26.9384C34.4473 26.8667 34.5549 26.6174 34.5495 26.5565C34.5191 26.6192 34.3272 26.673 34.3074 26.6282L34.4204 26.5242C34.2913 26.4542 34.2034 26.7609 34.0528 26.5852C33.999 26.5726 33.8985 26.3484 33.886 26.456C33.9652 26.7841 33.9726 27.1255 33.9075 27.4567C33.782 27.3685 33.6687 27.2642 33.5704 27.1465C33.4861 26.9815 33.7138 26.7645 33.6421 26.6246C33.6298 26.6734 33.6037 26.7177 33.5668 26.7519C33.5112 26.7071 33.5937 26.5995 33.4717 26.6174C33.4448 26.7968 33.2224 26.5941 33.409 26.7717C33.287 26.8201 33.2816 26.7286 33.1399 26.7322C33.1812 26.8524 33.0001 27.1321 32.8763 27.1806C32.8793 27.1334 32.8694 27.0862 32.8476 27.0443C32.6019 27.0156 32.4728 26.9259 32.2433 26.9151C32.2235 26.8685 32.1159 26.8111 32.1679 26.7358C32.1321 26.7663 32.0998 26.8273 32.028 26.8291C31.8989 26.6641 32.1877 26.8111 32.0926 26.6156C32.0783 26.7214 31.9025 26.7555 31.7985 26.8147C31.82 26.9815 32.0298 26.8577 32.1339 26.7968C32.1182 26.9207 32.0681 27.0377 31.9891 27.1344C31.9102 27.2311 31.8056 27.3037 31.6873 27.3438C31.4918 27.3886 31.612 27.1931 31.5761 27.2218C31.2174 27.1608 31.2461 27.6002 30.9556 27.4173C30.8462 27.2666 30.9699 27.1303 30.9556 27.0245C31.1152 26.9797 31.1887 27.1303 31.2945 27.1321L31.169 27.055C31.1967 27.0278 31.2324 27.0103 31.2709 27.0051C31.3094 26.9999 31.3485 27.0074 31.3824 27.0263C31.291 26.8882 30.7763 26.9671 30.509 26.8237C30.4552 26.8667 30.3674 26.9115 30.4032 26.9725L30.4929 26.9582C30.5646 27.0819 30.3136 27.107 30.423 27.1698C30.2992 27.2433 30.1558 27.3617 29.9943 27.2828L29.9764 27.116C29.9807 27.1313 29.9885 27.1453 29.9991 27.1571C30.0098 27.1688 30.0231 27.1779 30.0378 27.1837C30.0526 27.1894 30.0686 27.1916 30.0843 27.1902C30.1001 27.1887 30.1154 27.1836 30.1288 27.1752C30.0535 27.2433 29.8921 26.9331 29.7989 27.1429L29.9065 27.2648C29.7702 27.3384 29.6428 27.5052 29.5191 27.4442C29.5639 27.611 29.5496 27.428 29.6231 27.6235C29.5944 27.5034 29.6751 27.5123 29.7487 27.5195C29.8222 27.5267 29.9154 27.5321 29.8509 27.4029C29.9423 27.6307 30.0302 27.5105 30.1575 27.7096C30.1575 27.654 30.1145 27.602 30.2365 27.6379C30.2457 27.6214 30.2565 27.6057 30.2687 27.5912C30.2427 27.5674 30.2235 27.5371 30.2131 27.5034C30.2831 27.3832 30.4804 27.4029 30.5503 27.3438C30.622 27.3742 30.5162 27.4029 30.5503 27.4639L30.6561 27.3742C30.6561 27.4962 30.8354 27.5894 30.6561 27.6468L30.8121 27.663C30.8501 27.7004 30.8979 27.7261 30.95 27.7372C31.0021 27.7484 31.0563 27.7444 31.1062 27.7257C31.178 27.7562 31.3017 27.6038 31.2318 27.6935L31.4811 27.6343L31.4811 27.6648C31.7232 27.6953 31.9886 27.4944 32.2558 27.7239C32.3513 27.6816 32.4587 27.6746 32.5589 27.7042L32.5822 27.8082C32.688 27.7778 32.8925 27.9284 32.9409 27.8208C33.0449 28.1059 33.4484 27.8979 33.6313 27.9535L33.6421 27.8172C33.7821 27.82 33.9212 27.7944 34.051 27.7419L34.051 27.6217C34.1873 27.5249 34.3971 27.7132 34.6123 27.7042C34.5962 27.7491 34.5424 27.7365 34.5047 27.7042C34.7576 27.9804 35.0427 27.5249 35.2777 27.7042C35.2966 27.6864 35.3216 27.6766 35.3476 27.6766C35.3736 27.6766 35.3986 27.6864 35.4175 27.7042C35.4175 27.7042 35.4086 27.7042 35.4032 27.7042C35.4115 27.7052 35.42 27.7052 35.4283 27.7042C35.4534 27.7239 35.4803 27.7491 35.5072 27.767C35.4884 27.7423 35.4661 27.7205 35.4409 27.7024C35.503 27.698 35.5638 27.6822 35.6202 27.6558L35.6471 27.7849C35.6471 27.7849 35.6579 27.7849 35.6632 27.7849C35.7278 27.8333 35.7152 27.7239 35.6812 27.6253C35.7145 27.6046 35.7442 27.5785 35.769 27.5482C35.8211 27.7562 35.9484 27.4783 36.0147 27.7006C36.0596 27.593 36.3483 27.6163 36.3734 27.3868C36.3734 27.4173 36.3967 27.4298 36.3609 27.4334C36.4344 27.4585 36.5079 27.4818 36.5743 27.4173L36.6066 27.5805L36.7662 27.3581C36.8648 27.4567 36.9061 27.5141 36.811 27.6415C37.0423 27.4442 37.0011 27.5661 37.1966 27.3707L37.1966 27.4765C37.2683 27.4765 37.3759 27.324 37.4225 27.4119C37.5875 27.6074 38.2134 27.4209 38.6313 27.5912C38.538 27.2828 38.8268 27.7239 38.8321 27.48C38.8608 27.5536 38.92 27.593 38.8555 27.6594C39.0617 27.5769 39.1765 27.7634 39.311 27.5518C39.3397 27.6253 39.2715 27.663 39.2948 27.706C39.311 27.6881 39.3594 27.6379 39.3827 27.6809C39.406 27.724 39.3558 27.7455 39.3235 27.7778C39.5369 27.7562 39.5459 27.5249 39.5513 27.3097C39.6643 27.4047 39.7181 27.3868 39.7862 27.2415C39.8293 27.3097 39.8956 27.3796 39.7647 27.4119C39.84 27.4119 40.2274 27.4872 40.2238 27.3151C40.2507 27.3581 40.3278 27.3151 40.3476 27.3007C40.4631 27.3094 40.5793 27.3046 40.6937 27.2864L40.6453 27.2613C40.6955 27.0496 40.7798 27.2057 40.9089 27.1698L40.9089 27.1913C40.9705 27.2163 41.0361 27.2297 41.1026 27.2308C41.1306 27.2317 41.1583 27.2255 41.1833 27.2128C41.2227 27.1931 41.2514 27.1806 41.4864 27.2451L41.4092 27.1232C41.3662 26.9869 41.4523 27.0209 41.5886 27.073C41.7249 27.125 41.9257 27.1895 41.9957 27.1303L41.8576 27.0676C41.8755 27.0191 42.0369 27.0999 42.227 27.1931C42.3976 27.2828 42.5782 27.3521 42.765 27.3993C42.826 27.4173 42.7561 27.4388 42.7256 27.4603C43.3282 27.5697 42.5929 27.3025 42.8224 27.2415C43.0018 27.3186 43.0448 27.4549 43.2779 27.4496C43.382 27.4783 43.4376 27.3976 43.5075 27.3312C43.5256 27.3131 43.5454 27.2969 43.5667 27.2828C43.5936 27.2828 43.5523 27.2487 43.5398 27.2308L43.4914 27.168C43.4358 27.0909 43.4125 27.0317 43.4465 27.003C43.3676 27.003 43.2815 27.003 43.1381 26.8595C43.0717 26.7717 43.1094 26.7053 43.1022 26.6103C43.0909 26.5411 43.0616 26.4762 43.0172 26.4221C42.9728 26.3679 42.9149 26.3264 42.8493 26.3018C42.8559 26.2944 42.8645 26.289 42.874 26.2861C42.8834 26.2833 42.8935 26.2831 42.9031 26.2857C42.7525 26.1404 42.5445 25.8534 42.3651 25.7961C42.5857 25.7315 42.3974 25.5181 42.2396 25.3674C42.1687 25.3072 42.1055 25.2386 42.0513 25.163C42.028 25.1164 42.0513 25.0715 42.1302 25.0195L41.9508 24.7631L41.9903 24.7487C41.9672 24.6842 41.9233 24.6291 41.8655 24.5921C41.8078 24.5551 41.7394 24.5383 41.6711 24.5443C41.6711 24.4905 41.7213 24.4994 41.7428 24.4923C41.6657 24.1999 41.6352 24.1856 41.3357 24.0798L41.4379 23.9901C41.3375 23.974 41.4039 23.5238 41.1241 23.3589C41.146 23.3504 41.1703 23.3504 41.1922 23.3589C40.8945 23.1634 41.1205 22.5106 40.6417 22.6576L40.4318 22.5375C40.5394 22.7921 40.2292 22.6092 40.2184 22.7473C40.1377 22.6702 40.2023 22.4335 40.2902 22.5357L40.2812 22.5644C40.5233 22.4783 40.1844 22.2272 40.3368 22.1465C40.0516 21.691 39.9046 21.1691 39.6571 20.7297L39.5172 20.8804L39.4383 20.7226C39.4545 20.6598 39.5387 20.5917 39.5961 20.7028C39.6589 20.5899 39.4078 20.5701 39.3702 20.5899C39.3128 20.337 39.6159 20.554 39.5818 20.4876L39.5172 20.4069L39.5083 20.4392C39.3971 20.4087 39.3199 20.4392 39.2518 20.3119C39.2375 20.2097 39.3325 20.2079 39.3182 20.172C39.3307 20.172 39.3307 20.1505 39.2948 20.1182L39.1962 19.9191L39.1083 20.0752C38.9918 20.0303 39.0079 19.8958 38.9093 20.0752C39.0671 19.8079 38.5721 19.3166 38.5972 19.1946C38.5254 19.1645 38.4608 19.1196 38.4076 19.0627C38.3544 19.0058 38.3139 18.9383 38.2888 18.8646C38.2888 18.9166 38.1453 19.0278 38.0897 18.8915C38.4268 18.7534 38.0897 18.5849 38.2529 18.3535C38.1578 18.5329 38.0054 18.0199 37.8799 18.2872C37.8422 18.167 37.991 18.2118 38.0179 18.0899C37.7507 17.9105 37.7723 17.4981 37.5499 17.2165C37.5068 17.2344 37.4746 17.3241 37.3705 17.2936L37.4781 17.0121C37.4225 16.9636 37.2109 17.0946 37.2862 16.9009C37.2611 16.9367 37.2235 16.9905 37.1858 16.9583C37.0298 16.2409 36.2891 15.8302 36.3106 15.0017C36.2802 15.1308 36.2389 15.0806 36.1995 15.0196C36.1995 15.0716 36.0972 15.077 36.047 15.1182L36.047 14.7721C35.8677 14.817 35.8677 14.5067 35.7117 14.5659L35.7852 14.6304C35.5503 14.6304 35.4911 15.0088 35.2597 15.1254C35.5269 15.1254 35.1575 15.6132 35.5556 15.6437C35.5359 15.7137 35.4624 15.6437 35.4247 15.7029C35.5485 15.7029 35.6041 15.7459 35.6274 15.8822L35.5969 15.8822C35.8067 16.1817 35.7924 16.3718 35.9394 16.7628L36.0345 16.6624C36.0544 16.7205 36.0544 16.7836 36.0345 16.8417C36.2515 16.8309 35.9179 16.6229 36.1475 16.5942C35.9843 16.8273 36.4613 17.1322 36.2479 17.3492C36.316 17.4658 36.3555 17.2398 36.4272 17.3492L36.377 17.421L36.4846 17.3958C36.4941 17.4359 36.4907 17.4779 36.4749 17.5159C36.4591 17.5539 36.4318 17.5859 36.3967 17.6075C36.3967 17.5859 36.3483 17.5644 36.3322 17.5483C36.3106 17.6953 36.5259 17.8119 36.5205 17.8603L36.4954 17.724C36.7482 18.0038 36.8881 18.4414 37.2127 18.6709L37.2504 18.6171C37.4853 18.7965 37.3042 18.8395 37.5015 19.0709L37.4835 19.0709C37.5221 19.0819 37.558 19.1008 37.5889 19.1264C37.6198 19.152 37.645 19.1838 37.6629 19.2197C37.5624 19.191 37.6162 19.4134 37.4997 19.3668C37.7525 19.5605 37.6539 19.4457 37.9462 19.4995L37.8834 19.5892C37.9946 19.5999 38.0395 19.5892 38.1381 19.6968C38.0018 19.634 38.0556 19.8564 37.8888 19.7954C37.8601 20.1774 38.3157 20.0841 38.1148 20.3711C38.425 20.3549 38.1148 20.059 38.1991 20.0985C38.2439 19.9945 38.4376 20.0985 38.4645 20.1935C38.4914 20.2886 38.2475 20.5217 38.3802 20.7315C38.3695 20.71 38.3497 20.719 38.339 20.6975C38.3264 20.814 38.5183 20.8069 38.4753 20.9647C38.6546 20.936 38.5452 21.0992 38.7371 21.0077L38.5775 20.8284C38.6923 20.9127 38.9684 20.8912 38.9756 21.1386C38.9135 21.1386 38.8522 21.1245 38.7963 21.0974C38.7748 21.1835 38.8949 21.1817 38.8716 21.2767C38.6797 21.37 38.6923 21.0597 38.4771 21.0203C38.434 21.1261 38.7461 21.1709 38.5111 21.2283C38.816 21.1655 38.6062 21.4614 38.8859 21.4937L38.7712 21.5493C38.8017 21.5619 38.8824 21.5798 38.9057 21.6246L38.7174 21.6246C38.9093 21.6731 38.7461 21.9188 38.8806 21.9833C38.7353 21.7466 38.981 21.8524 39.0007 21.7036C39.3235 21.9116 38.8214 22.0425 39.0635 22.342C39.0205 22.3061 39.0294 22.1358 39.1209 22.1752C39.1419 22.2601 39.1375 22.3493 39.1083 22.4317C39.2608 22.6361 39.2016 22.3312 39.3235 22.385C39.2339 22.5375 39.4419 22.4586 39.5423 22.5303L39.4311 22.5967C39.5065 22.889 39.7019 22.5249 39.7486 22.8011L39.5387 22.8011L39.6481 22.8944L39.5065 22.9464C39.675 23.0163 39.675 23.0719 39.7127 23.2172C39.7295 23.1959 39.7509 23.1787 39.7753 23.1669C39.7996 23.1551 39.8264 23.1489 39.8535 23.1489C39.8806 23.1489 39.9073 23.1551 39.9317 23.1669C39.9561 23.1787 39.9775 23.1959 39.9943 23.2172C39.9727 23.332 39.8633 23.2387 39.9727 23.3858C39.8813 23.3858 39.7701 23.4055 39.8329 23.2764C39.7934 23.2907 39.7432 23.2764 39.7019 23.2961C39.675 23.4234 39.806 23.5113 39.84 23.5669C39.8287 23.5429 39.825 23.516 39.8293 23.4898L40.1198 23.6243C40.0983 23.6852 40.0481 23.6781 39.9978 23.6691C40.0373 23.7068 40.1072 23.7086 40.1575 23.7713C40.057 23.8072 39.9656 23.8664 39.8651 23.7964L40.0947 23.9525C40.0642 23.9901 40.0516 24.1318 40.0014 24.1192C40.0194 24.2717 40.3601 24.3093 40.3763 24.5102C40.3913 24.5095 40.4064 24.5119 40.4206 24.5171C40.4348 24.5223 40.4477 24.5304 40.4587 24.5407C40.5269 24.7021 40.4928 24.8994 40.7224 25.0034L40.6202 25.2007C40.7385 25.3172 40.7439 24.9424 40.943 25.1379C41.0918 25.2706 40.8389 25.2796 40.8282 25.3639C40.9591 25.3979 41.2084 25.4392 41.1653 25.6687C41.1133 25.6454 41.1133 25.597 41.0739 25.5593ZM41.5168 26.2767C41.4953 26.2516 41.3859 26.1763 41.5168 26.2426C41.7464 26.3628 41.6065 26.309 41.5168 26.2731L41.5168 26.2767ZM39.3755 26.743C39.4024 26.6981 39.4473 26.7179 39.4993 26.7627C39.4784 26.7697 39.456 26.7712 39.4344 26.7671C39.4127 26.7631 39.3925 26.7535 39.3755 26.7394L39.3755 26.743ZM30.9466 27.5912C31.0273 27.6379 30.9986 27.6181 30.9395 27.5877L30.9466 27.5912ZM30.7673 27.5249C30.7592 27.531 30.7535 27.5397 30.7512 27.5495C30.749 27.5593 30.7502 27.5697 30.7547 27.5787C30.7691 27.5464 30.8103 27.5464 30.8552 27.559C30.8337 27.5195 30.8193 27.4944 30.7637 27.5213L30.7673 27.5249ZM39.2626 20.1756L39.2518 20.2222C39.1836 20.1738 39.2249 20.1756 39.2626 20.1756Z" fill="#F0ECDD"/>
<path d="M39.7055 26.5422C39.7164 26.5642 39.7237 26.5879 39.7271 26.6122C39.7307 26.6063 39.7331 26.5997 39.734 26.5928C39.7349 26.5859 39.7343 26.5789 39.7323 26.5723C39.7302 26.5657 39.7268 26.5595 39.7222 26.5544C39.7176 26.5492 39.7119 26.545 39.7055 26.5422V26.5422Z" fill="#F0ECDD"/>
<path d="M40.3852 24.5302C40.3773 24.5283 40.369 24.5283 40.3611 24.5302L40.3852 24.5302Z" fill="#F0ECDD"/>
<path d="M33.5775 26.5549C33.607 26.5705 33.6309 26.5949 33.6457 26.6249C33.6492 26.5926 33.6331 26.5657 33.5775 26.5549Z" fill="#F0ECDD"/>
<path d="M29.7953 27.6683L29.9137 27.6432C29.8581 27.6432 29.8401 27.6163 29.8132 27.593C29.8132 27.6181 29.8329 27.6683 29.7953 27.6683Z" fill="#F0ECDD"/>
<path d="M29.0152 26.7932C29.0008 26.8076 28.9865 26.7932 28.9703 26.8076L28.9703 26.8667C29.0295 26.8685 29.0761 26.8237 29.0152 26.7932Z" fill="#F0ECDD"/>
<path d="M29.7343 27.2309C29.7343 27.1215 29.6715 27.1538 29.6016 27.1681C29.6057 27.1672 29.61 27.1672 29.6141 27.1681C29.5783 27.3188 29.6572 27.2757 29.7343 27.2309Z" fill="#F0ECDD"/>
<path d="M29.5783 27.1699C29.5577 27.1753 29.5361 27.1753 29.5155 27.1699C29.5101 27.2273 29.5478 27.1825 29.5783 27.1699Z" fill="#F0ECDD"/>
<path d="M30.5306 27.5753C30.4947 27.5448 30.4965 27.7134 30.4786 27.6668C30.4266 27.7977 30.7458 27.5197 30.5306 27.5753Z" fill="#F0ECDD"/>
<path d="M29.7092 26.8687L29.7218 27.0049L29.7684 26.8991L29.7092 26.8687Z" fill="#F0ECDD"/>
<path d="M30.3136 27.0139L30.188 26.9673C30.188 26.9906 30.1719 27.0014 30.1504 27.0103C30.2293 27.0211 30.3136 27.0534 30.3136 27.0139Z" fill="#F0ECDD"/>
<path d="M30.1504 27.0103C30.1152 27.0012 30.0778 27.0063 30.0464 27.0246C30.0816 27.0261 30.1168 27.0212 30.1504 27.0103V27.0103Z" fill="#F0ECDD"/>
<path d="M29.867 26.8398L29.9029 26.8721L29.9926 26.8883L29.867 26.8398Z" fill="#F0ECDD"/>
<path d="M31.6855 27.1304L31.8272 27.0999C31.8433 27.0551 31.8074 27.0246 31.7536 27.0408C31.6998 27.0569 31.6658 27.0802 31.6855 27.1304Z" fill="#F0ECDD"/>
<path d="M31.2856 26.7359C31.3215 26.7664 31.3215 26.7969 31.3412 26.8435L31.3555 26.6768L31.2856 26.7359Z" fill="#F0ECDD"/>
<path d="M31.6927 26.7215C31.7088 26.6766 31.9007 26.6013 31.725 26.6013C31.7088 26.6462 31.5671 26.6766 31.6927 26.7215Z" fill="#F0ECDD"/>
<path d="M33.7802 27.0193L33.7443 27.0211L33.7425 27.2937L33.7802 27.0193Z" fill="#F0ECDD"/>
<path d="M35.631 26.3882C35.4678 26.3218 35.5915 26.5568 35.4516 26.4743C35.4122 26.5388 35.5718 26.5406 35.5323 26.598C35.6238 26.5299 35.6758 26.5675 35.631 26.3882Z" fill="#F0ECDD"/>
<path d="M35.5251 26.5977C35.507 26.6097 35.4902 26.6235 35.4749 26.6389C35.4939 26.6281 35.5109 26.6142 35.5251 26.5977V26.5977Z" fill="#F0ECDD"/>
<path d="M36.0757 14.5191L36.0703 14.3989L36.0255 14.5047L36.0757 14.5191Z" fill="#F0ECDD"/>
<path d="M35.7959 14.4476L35.934 14.3472L35.7655 14.3723C35.7852 14.3794 35.821 14.4117 35.7959 14.4476Z" fill="#F0ECDD"/>
<path d="M40.9591 25.9683L41.0093 26.0059C41.0667 26.0472 41.0757 26.0508 41.0954 26.0561C41.047 26.0274 41.0021 26.0041 40.9591 25.9683Z" fill="#F0ECDD"/>
<path d="M40.5951 25.4125C40.613 25.4591 40.674 25.4914 40.6937 25.5362C40.613 25.4663 40.7565 25.3013 40.5951 25.4125Z" fill="#F0ECDD"/>
</svg>
