<svg width="125" height="123" viewBox="0 0 125 123" fill="none" xmlns="http://www.w3.org/2000/svg">
<path d="M53.8018 9.26275C53.8466 9.22733 53.7171 9.14775 53.6985 9.12465C53.6704 9.21774 53.8339 9.28396 53.8018 9.26275Z" fill="#452F53"/>
<path d="M53.5291 10.1909L53.4893 10.1399L53.5291 10.3383L53.5291 10.1909Z" fill="#452F53"/>
<path d="M53.0205 10.8567C53.2719 10.95 53.1715 10.5886 53.3326 10.5267L53.395 10.5436L53.272 10.3637C53.1885 10.5263 53.1547 10.7985 53.0205 10.8567Z" fill="#452F53"/>
<path d="M52.3068 10.878C52.4032 10.9177 52.3166 11.0087 52.3958 10.8159C52.3854 10.8158 52.3749 10.815 52.3646 10.8134C52.3484 10.8375 52.329 10.8593 52.3068 10.878V10.878Z" fill="#452F53"/>
<path d="M52.3646 10.8132C52.4181 10.7423 52.2614 10.8106 52.3646 10.8132V10.8132Z" fill="#452F53"/>
<path d="M52.1635 11.1758L52.1601 11.0288C52.0996 11.0133 52.0245 11.0889 52.0146 11.0303C51.9811 11.1585 52.043 11.1721 52.1635 11.1758Z" fill="#452F53"/>
<path d="M52.2466 11.3768L52.252 11.3057C52.2271 11.2989 52.2093 11.3066 52.2466 11.3768Z" fill="#452F53"/>
<path d="M52.2654 11.1565L52.252 11.3058C52.2947 11.3169 52.3633 11.3656 52.2652 11.2405C52.3193 11.2963 52.2757 11.2304 52.2654 11.1565Z" fill="#452F53"/>
<path d="M52.3409 11.1202C52.424 11.1017 52.5033 11.0563 52.5049 11.2018C52.611 11.0052 52.4466 10.9203 52.3409 11.1202Z" fill="#452F53"/>
<path d="M53.2072 11.0519L53.3187 11.0277L53.2964 10.9177C53.3059 10.9729 53.1392 11.0066 53.2072 11.0519Z" fill="#452F53"/>
<path d="M51.6109 11.6852C51.653 11.717 51.7519 11.7374 51.8152 11.7731L51.814 11.667C51.7583 11.6731 51.6828 11.7214 51.6109 11.6852Z" fill="#452F53"/>
<path d="M51.8195 11.7675L51.8162 11.9274C51.8932 11.8412 51.8717 11.7979 51.8195 11.7675Z" fill="#452F53"/>
<path d="M52.4612 11.5628L52.4332 11.277L52.4405 11.5983L52.4612 11.5628Z" fill="#452F53"/>
<path d="M51.3115 12.07L51.2533 11.9358L51.3281 12.1516L51.3115 12.07Z" fill="#452F53"/>
<path d="M51.1341 12.3452C51.0782 12.2399 50.9465 12.3029 50.928 12.2198C50.9053 12.3211 50.9136 12.4268 50.9517 12.5233C50.9533 12.4374 51.0068 12.3785 51.1341 12.3452Z" fill="#452F53"/>
<path d="M50.9892 12.6929C50.9848 12.6368 50.9742 12.5813 50.9575 12.5276C50.9558 12.5844 50.9667 12.6408 50.9892 12.6929V12.6929Z" fill="#452F53"/>
<path d="M51.6616 12.0845C51.6325 12.0703 51.6008 12.0621 51.5685 12.0604C51.5362 12.0588 51.5038 12.0637 51.4734 12.0748L51.6279 12.1252L51.6616 12.0845Z" fill="#452F53"/>
<path d="M51.6698 12.0756L51.6619 12.0861C51.6777 12.0914 51.6835 12.0925 51.6698 12.0756Z" fill="#452F53"/>
<path d="M52.1462 11.749C52.1703 11.8605 52.1434 12.0477 52.3472 11.9969C52.2903 11.8969 52.1793 11.9124 52.1462 11.749Z" fill="#452F53"/>
<path d="M51.8645 12.1383L51.9738 12.0493C51.9412 12.0247 51.8778 12.013 51.8607 11.964L51.8645 12.1383Z" fill="#452F53"/>
<path d="M51.8624 12.2209L51.8646 12.1383L51.8227 12.1699L51.8624 12.2209Z" fill="#452F53"/>
<path d="M51.2316 12.5752C51.2454 12.6486 51.2302 12.7245 51.1892 12.7869C51.2568 12.7413 51.3151 12.6831 51.3606 12.6154C51.3266 12.5808 51.2745 12.5024 51.2316 12.5752Z" fill="#452F53"/>
<path d="M51.4341 12.3609L51.4251 12.3729C51.4491 12.3784 51.4576 12.3755 51.4341 12.3609Z" fill="#452F53"/>
<path d="M50.7875 13.3831L50.8159 13.3894L50.7948 13.3735L50.7875 13.3831Z" fill="#452F53"/>
<path d="M51.3908 12.623C51.4466 12.5929 51.4357 12.5396 51.4161 12.4857C51.4033 12.532 51.3842 12.5762 51.3591 12.6172C51.3735 12.634 51.385 12.6427 51.3908 12.623Z" fill="#452F53"/>
<path d="M50.9301 12.8951C50.9727 12.8868 51.0146 12.8751 51.0555 12.8604C50.9983 12.8564 50.9032 12.8628 50.9301 12.8951Z" fill="#452F53"/>
<path d="M51.3877 12.3682C51.3479 12.3532 51.3627 12.3614 51.3877 12.3682V12.3682Z" fill="#452F53"/>
<path d="M51.3876 12.3681C51.3906 12.4087 51.4002 12.4484 51.416 12.4859C51.4283 12.4515 51.4342 12.4153 51.4336 12.3788C51.418 12.3768 51.4025 12.3732 51.3876 12.3681V12.3681Z" fill="#452F53"/>
<path d="M51.4795 14.1243C51.3645 14.0375 51.3444 13.8329 51.5432 13.8085C51.5283 13.6408 51.0962 13.4442 50.8159 13.3892C50.8657 13.4268 50.9117 13.4615 50.9051 13.6219C50.9963 13.6245 51.2224 13.4763 51.2647 13.6435C51.2262 13.834 51.1425 13.7378 51.03 13.7672C51.2191 13.8076 51.118 14.1012 51.3553 14.2171L51.3659 14.0356C51.4028 14.0544 51.4233 14.139 51.4795 14.1243Z" fill="#452F53"/>
<path d="M50.9706 13.1842L50.9885 13.1286C50.9322 13.1673 50.8607 13.1705 50.7209 13.1764C50.7273 13.2955 50.7594 13.3407 50.7963 13.3715L50.9611 13.153L50.9706 13.1842Z" fill="#452F53"/>
<path d="M51.1215 12.9162C51.223 13.0409 51.212 13.195 51.3867 13.2185C51.4697 13.0766 51.344 13.0479 51.3429 12.9298C51.2274 13.1706 51.3167 12.8169 51.1364 12.9244C51.1445 12.8749 51.1604 12.827 51.1833 12.7824C51.1407 12.8102 51.096 12.8348 51.0496 12.856V12.856C51.0722 12.858 51.0847 12.8614 51.065 12.8676C51.0819 12.8769 51.0974 12.8886 51.111 12.9023C51.0436 12.9477 51.0803 12.8792 51.065 12.8676C51.0594 12.8618 51.0529 12.8569 51.0458 12.8531L50.9687 13.1228C51.0353 13.067 51.0877 12.9962 51.1215 12.9162V12.9162Z" fill="#452F53"/>
<path d="M52.5327 12.3052C52.522 12.2995 52.5123 12.2922 52.5039 12.2835C52.5033 12.3161 52.51 12.3272 52.5327 12.3052Z" fill="#452F53"/>
<path d="M52.3928 12.3354C52.3856 12.3089 52.3459 12.2579 52.3955 12.2201C52.445 12.1823 52.4549 12.2649 52.4952 12.2953C52.4857 12.2401 52.485 12.1253 52.3456 12.1825L52.3513 12.2109C52.2455 12.2634 52.0151 12.258 51.992 12.2407C52.1201 12.2922 52.2552 12.3241 52.3928 12.3354V12.3354Z" fill="#452F53"/>
<path d="M51.7763 12.6462C51.7521 12.7182 51.7336 12.7945 51.7132 12.8693L51.8842 12.8539L51.821 12.8062C51.9148 12.7297 51.8193 12.6967 51.7763 12.6462Z" fill="#452F53"/>
<path d="M50.7088 13.3596L50.5896 13.2426L50.7085 13.4797L50.7088 13.3596Z" fill="#452F53"/>
<path d="M50.5656 13.6095L50.4535 13.519L50.4829 13.6314L50.5656 13.6095Z" fill="#452F53"/>
<path d="M40.7957 73.5476L40.8873 73.7851C40.8613 73.7043 40.8307 73.625 40.7957 73.5476V73.5476Z" fill="#452F53"/>
<path d="M40.4278 71.7544L40.3501 71.7259C40.3974 71.7946 40.4415 71.8279 40.4278 71.7544Z" fill="#452F53"/>
<path d="M39.6146 37.8233C39.3702 38.1473 39.0927 38.5153 39.2583 38.511L39.4343 38.4332C39.4541 38.2201 39.5154 38.0129 39.6146 37.8233Z" fill="#452F53"/>
<path d="M38.1061 56.8615L38.1545 56.7536L38.0092 56.4997L38.1061 56.8615Z" fill="#452F53"/>
<path d="M38.7497 57.1245L38.6433 57.6125C38.6923 57.4531 38.7279 57.2898 38.7497 57.1245Z" fill="#452F53"/>
<path d="M43.9136 83.0266L44.1685 83.2429C44.0006 82.8155 44 83.0316 43.9136 83.0266Z" fill="#452F53"/>
<path d="M45.3863 22.5146C45.2851 22.6487 45.1969 22.7657 45.1145 22.8749C45.0321 22.9842 44.9948 23.0854 44.9369 23.1981C45.1711 22.8756 45.4444 22.6727 45.3863 22.5146Z" fill="#452F53"/>
<path d="M39.0318 73.2068C39.0904 73.3563 39.1364 73.415 39.1691 73.4036C39.1061 73.2478 39.0621 73.1665 39.0318 73.2068Z" fill="#452F53"/>
<path d="M44.5328 24.045C44.5689 23.9971 44.6036 23.951 44.6398 23.9031C44.7164 23.6584 44.8126 23.4201 44.9274 23.1908C44.7182 23.4328 44.5814 23.7288 44.5328 24.045V24.045Z" fill="#452F53"/>
<path d="M64.2811 112.555C64.3022 112.571 64.317 112.603 64.3304 112.625C64.3437 112.647 64.3218 112.589 64.2811 112.555Z" fill="#452F53"/>
<path d="M71.7971 120.278C71.7031 120.231 71.5564 120.138 71.416 120.053C71.5356 120.14 71.6632 120.215 71.7971 120.278V120.278Z" fill="#452F53"/>
<path d="M48.7482 16.2387C48.864 16.0253 48.7526 16.1969 48.7482 16.2387V16.2387Z" fill="#452F53"/>
<path d="M49.9033 15.5761C49.8902 15.6294 49.8862 15.6745 49.9135 15.6981C49.9035 15.6795 49.8975 15.6591 49.8957 15.6382C49.894 15.6172 49.8965 15.596 49.9033 15.5761Z" fill="#452F53"/>
<path d="M44.4244 26.6367L44.4129 26.652C44.4726 26.6008 44.462 26.6109 44.4244 26.6367Z" fill="#452F53"/>
<path d="M48.9958 15.962C48.925 16.0385 48.859 16.1193 48.7982 16.204C48.8689 16.1274 48.9349 16.0466 48.9958 15.962V15.962Z" fill="#452F53"/>
<path d="M48.9102 15.9638L49.0389 15.7932C49.026 15.7504 48.9972 15.7647 48.9102 15.9638Z" fill="#452F53"/>
<path d="M48.5822 16.5343C48.6486 16.4207 48.7207 16.3104 48.7982 16.2041C48.7693 16.2424 48.7563 16.2597 48.7482 16.2385L48.5822 16.5343Z" fill="#452F53"/>
<path d="M51.1903 98.2043L51.206 98.2552C51.3861 98.4271 51.3254 98.3362 51.1903 98.2043Z" fill="#452F53"/>
<path d="M39.9094 44.2707L39.907 44.2418L39.8868 44.2687L39.9094 44.2707Z" fill="#452F53"/>
<path d="M39.8786 45.1287C39.7732 44.8527 39.7789 44.5465 39.8943 44.2745L39.4035 44.4787L39.8786 45.1287Z" fill="#452F53"/>
<path d="M41.9527 77.7793L41.9313 77.1617C42.3286 77.7952 42.4425 78.3021 42.4498 77.7182C41.9474 77.7784 41.7965 75.5023 41.3008 75.5494L41.3028 75.148C41.3284 75.2576 41.3606 75.2668 41.3843 75.3749C41.4133 74.5788 40.8914 74.9159 40.7067 73.9406C40.6683 73.5928 40.6901 73.3446 40.7956 73.5596L40.5215 72.8265C40.487 72.6051 40.5796 72.6418 40.617 72.8594L40.3377 71.7225L40.3511 71.7327C40.2045 71.5182 40.0718 71.2946 39.9538 71.0631C39.9565 70.7645 40.0361 71.1973 40.079 71.1125L39.83 70.4976C39.8985 70.2154 40.129 70.7232 40.2057 71.1599C40.277 71.0626 40.317 70.946 40.3203 70.8254C40.3236 70.7049 40.2901 70.5862 40.2243 70.4852C40.1563 70.3561 40.1027 70.2199 40.0645 70.079C40.0178 69.8309 40.0065 69.5773 40.031 69.326L40.1845 69.9199C40.4008 69.4816 40.2296 69.0307 40.2968 68.3236C40.2301 68.4958 40.0745 69.7588 39.8463 69.0844C39.8575 68.7948 39.7995 68.5068 39.6771 68.2441C39.8496 68.2148 39.7511 67.8548 39.6717 67.398L39.9046 67.3962C39.7632 66.9137 39.6541 66.9667 39.5055 66.6892C39.4725 66.4983 39.4862 66.3023 39.5454 66.1179C39.5956 66.0175 39.6637 65.9272 39.7464 65.8514C39.6969 64.96 39.5219 66.5001 39.3768 65.4524C39.3917 64.7028 39.2486 64.1948 39.0262 63.3174C39.0554 62.7921 39.1743 63.3961 39.2214 63.206L38.9945 62.7612C38.9871 62.6474 39.0538 62.6826 39.0797 62.6962C38.9712 62.3136 38.8396 62.6835 38.7303 62.0748C38.4709 61.9243 39.0497 60.794 38.7295 60.0503C38.7872 59.8622 38.8753 60.1361 38.9609 60.0744C38.8562 59.4837 38.7003 58.9033 38.495 58.3396C38.5379 58.0953 38.5995 57.8501 38.6496 57.6082C38.4695 58.146 38.2745 57.4636 38.1124 56.8572C38.0278 57.049 37.953 57.2121 37.9229 57.3157L37.8098 56.3493C37.8499 56.2322 37.927 56.3294 38.0212 56.4877C38.0036 56.4233 37.9845 56.3608 37.9674 56.3118C38.0581 55.9682 38.1897 56.1486 38.3134 56.3953C38.2665 56.5133 38.2206 56.626 38.1665 56.7416C38.3046 56.9811 38.4572 57.2015 38.5927 57.1533C38.5587 57.0507 38.538 56.9441 38.5312 56.8362C38.567 56.8963 38.6 56.9363 38.6251 56.9071C38.6501 56.8778 38.6014 56.7749 38.5433 56.6168L38.8046 56.4019L38.701 56.3478L38.8777 55.1007C38.6093 54.2006 38.3075 53.4046 38.2911 51.9668C38.4539 52.3331 38.591 52.0636 38.8118 52.0978C38.552 52.4703 38.8415 53.2029 38.7449 53.933C38.7945 53.5523 38.896 53.641 38.927 53.7395L38.797 52.4205C38.9775 52.4604 38.9529 52.1501 39.0498 51.8142C38.6727 52.0471 38.8743 50.8188 38.798 50.274C38.9219 50.2532 39.0373 50.3913 38.9635 51.0394C39.0172 50.9097 39.041 50.7696 39.0333 50.6294C39.0255 50.4893 38.9863 50.3526 38.9186 50.2297C38.8561 50.1026 38.8224 49.9632 38.82 49.8216C38.8177 49.6799 38.8467 49.5395 38.905 49.4104C38.8877 49.5688 38.8601 49.6533 38.9157 49.7192C38.8519 49.3373 39.0435 48.4412 39.1202 48.6705L39.1048 48.8304C39.2023 48.3024 39.2832 47.5093 39.323 46.8146C39.3311 46.6403 39.3388 46.4746 39.3392 46.3186C39.3396 46.1625 39.3515 46.0271 39.3513 45.9037C39.3462 45.6593 39.3155 45.4887 39.2465 45.4367C39.3948 45.5011 39.5297 45.5927 39.6443 45.7067L38.9448 43.6755C39.1748 43.885 39.8993 43.3668 39.8989 44.2567C40.018 43.9111 40.0756 43.5474 40.0689 43.1819C40.0022 43.3421 39.6228 43.5342 39.6378 43.2989C40.0413 42.7161 39.8536 42.8812 40.2608 42.1539C40.1502 42.3922 39.8083 42.0321 39.9107 41.6372C39.9571 41.7113 40.3168 41.6849 40.3265 41.8395L40.1536 40.7648C40.1702 41.0299 40.4789 40.8838 40.6417 40.6879C40.5406 40.774 40.8413 39.837 40.8598 39.5652L40.6753 39.9614C40.7959 39.581 40.795 39.1725 40.6727 38.7926C40.5481 38.4124 40.5514 38.0019 40.6821 37.6238C40.7263 37.7805 41.0876 38.083 41.2946 37.5414C41.1643 37.2356 40.6471 36.1509 40.7733 35.1183L40.9389 34.9666C40.9761 34.6939 40.9845 34.4356 41.0289 34.1774C41.2522 35.106 41.409 36.0493 41.4982 37.0003C41.7047 36.6147 41.6655 36.922 41.8275 36.3044C41.9894 36.1257 41.8947 36.6858 41.8515 36.8668L42.3153 35.4543C42.19 35.453 42.209 35.1606 42.2333 34.8692C42.2576 34.5778 42.3107 34.296 42.2037 34.2905L42.1349 34.6927L42.0838 35.0993L41.9798 35.923C41.8559 35.9198 41.7525 35.6463 41.7238 35.2457C41.7087 35.0197 41.7148 34.7927 41.7419 34.5677C41.7851 34.3121 41.8533 34.0614 41.9456 33.8192C42.1191 33.5891 42.3001 34.1467 42.3769 34.1445C42.3938 33.7741 42.4813 33.4104 42.6348 33.0729L42.6124 33.5372C42.8885 33.0116 42.6166 32.5268 43.0614 31.9331C43.1561 31.7038 43.5864 31.3486 43.4661 31.2609C43.0802 31.5413 42.2486 31.3321 42.1395 31.0062C42.1669 30.9698 42.318 30.6777 42.5195 30.3906C42.6815 30.1375 42.8628 29.8971 43.0617 29.6718C43.4125 29.374 43.3209 30.4206 43.6212 30.166C43.5675 30.1255 43.5711 29.8936 43.58 29.798C43.726 29.5804 43.7327 29.9703 43.9074 29.4435C43.7149 29.2682 44.3472 28.3979 43.8127 29.1225C43.9491 28.5908 44.0725 28.6027 44.2988 28.0035C44.0795 28.1388 44.0055 27.256 44.164 26.7229C44.2075 26.7768 44.3335 26.6974 44.3932 26.6582C44.8838 25.6449 45.2366 25.1411 45.6762 24.1915C45.7685 24.1289 46.0448 23.7027 46.0495 23.9438C46.0556 23.7325 46.104 23.5246 46.1918 23.3324C46.4325 23.1049 46.3557 23.2665 46.275 23.4493C46.1944 23.632 46.1309 23.8398 46.3431 23.678C46.2166 23.5826 46.5499 22.8536 46.6807 22.405C46.5506 22.4181 46.4184 22.6492 46.3019 22.9312C46.2429 23.0732 46.1873 23.2267 46.1394 23.374C46.0914 23.5213 46.0622 23.6677 46.0336 23.7814C45.8993 23.7162 45.8308 23.4601 45.8683 23.1034C45.9303 22.639 46.0484 22.1838 46.2201 21.7478C46.5608 20.9371 46.5698 21.5033 46.6029 21.3478C46.8729 20.9154 47.0446 20.429 47.1061 19.923C47.1244 19.7486 47.1655 19.5774 47.2285 19.4138C47.3421 19.1779 47.4872 18.9586 47.66 18.7619C48.1057 18.3943 48.0048 18.9347 48.1888 18.9021C48.0642 19.1668 47.9037 19.4131 47.712 19.6341C47.5589 19.8128 47.4246 20.0068 47.3114 20.2131L47.6713 19.7358C47.5965 20.05 47.4631 20.3473 47.2781 20.612C47.4649 20.4522 47.7695 19.8369 48.1968 19.1667C48.5849 18.4981 49.0068 17.8497 49.4606 17.2238C49.5198 16.9978 49.6619 16.6299 49.5017 16.7466L49.3188 17.1048C48.9983 17.3383 49.5167 16.3519 49.2007 16.7391C49.288 16.4563 49.391 16.1786 49.5093 15.9072C49.6564 15.5943 49.8437 15.3018 50.0662 15.0372L50.3323 15.0393C50.2694 15.019 49.9462 15.3797 49.8774 15.5985C49.9719 15.2818 50.779 14.8019 50.7279 14.3513L50.3048 14.7089C50.357 14.5798 50.4078 14.4407 50.4615 14.2978L50.5026 14.1874C50.5127 14.174 50.4988 14.1605 50.4984 14.1452L50.4876 14.0678C50.4783 14.0242 50.4806 13.9789 50.4942 13.9364C50.5078 13.8939 50.5322 13.8557 50.565 13.8255C50.3424 13.7658 50.5664 13.8716 50.2875 13.8267C50.4482 13.8727 50.3836 13.9624 50.3282 14.0439L50.2033 14.2294C50.1644 14.2882 50.1306 14.3503 50.1025 14.4149C50.0643 14.5094 50.094 14.5378 50.256 14.4465C49.7348 14.691 49.6752 15.0851 49.1037 15.4841C49.1756 15.5083 49.3479 15.3675 49.0019 15.8223C49.0032 15.8699 48.9995 15.9176 48.991 15.9644L48.9678 15.9951L48.9866 15.9702C48.9851 15.9961 48.9856 15.9995 48.9866 15.9702C49.0539 15.8895 49.1398 15.8263 49.2368 15.786C49.2168 16.1077 48.7633 16.8844 48.6775 17.1896C48.4751 17.4579 48.6784 17.0248 48.5182 17.1416L48.3955 17.5994C48.2347 17.5533 47.709 18.2304 48.0317 17.4995L47.6555 18.1179C47.3428 18.4516 47.0899 18.8368 46.9082 19.2564C46.7139 19.5339 46.6658 20.0961 46.6911 19.7754L46.2571 20.8134L46.2164 20.8037C45.9519 21.2899 45.7459 21.8262 45.4976 22.3667C45.3793 22.6353 45.2345 22.8991 45.0959 23.1705C44.9538 23.4485 44.7865 23.7129 44.5963 23.9605C44.4631 24.4028 44.2833 24.8297 44.0599 25.234L43.8821 25.2864C43.732 25.7446 43.145 26.5348 43.2111 26.7862C42.6719 27.1223 42.2757 28.9196 41.9034 29.6764L42.0607 29.7709C41.9463 30.0386 41.8502 30.3138 41.7732 30.5946C41.6961 30.8883 41.6194 31.1974 41.544 31.5525L41.7101 31.5635C41.6388 32.1924 41.093 33.0318 40.799 33.9678C40.7617 33.8856 40.8565 33.6563 40.9496 33.501C40.7727 33.748 40.6385 34.023 40.5527 34.3144C40.479 34.6109 40.4221 34.9114 40.3822 35.2143C40.2936 35.8182 40.222 36.4076 39.9508 36.8828C39.9444 37.1004 39.8867 37.3135 39.7825 37.5047C39.7886 37.4832 39.7912 37.4608 39.7904 37.4384L39.7603 37.5421C39.7015 37.6481 39.6407 37.7526 39.5789 37.8744C39.6416 37.7865 39.6974 37.6939 39.7458 37.5973C39.6776 37.8581 39.63 38.1238 39.6034 38.3921L39.4058 38.4747L39.3951 38.5447C39.2676 38.8215 39.4237 38.7979 39.5868 38.6893C39.5796 38.8271 39.5841 38.9653 39.6001 39.1023C39.2745 39.2748 39.5178 39.8973 39.154 40.1523C39.2499 40.384 38.9209 41.6576 39.1902 41.8787C39.1494 41.881 39.1112 41.9635 39.1453 41.8027C39.0847 41.9619 39.0342 42.1247 38.9942 42.2902C38.9619 42.4476 38.9527 42.6089 38.9669 42.7689L38.7256 42.8696L38.8945 43.6465C38.6869 44.0613 38.5769 44.231 38.486 43.7655C38.5594 44.8644 38.4357 44.6297 38.5359 45.5774L38.403 45.5103C38.3522 45.8329 38.4516 46.371 38.321 46.5521C38.1443 46.894 38.0296 47.7879 37.8986 48.8228C37.8391 49.3403 37.7555 49.8938 37.696 50.4353C37.6497 50.9487 37.5777 51.4594 37.4801 51.9656C37.9252 51.6306 37.2367 52.8226 37.5524 52.9223C37.4451 53.0248 37.3733 53.2835 37.3079 52.9755C37.313 53.3629 37.2847 53.75 37.2231 54.1325C37.1779 54.4504 37.2151 54.7746 37.3311 55.074C37.2294 55.1808 37.1871 54.8662 37.1191 54.9563C37.14 55.0322 37.1937 55.2561 37.1416 55.3612C37.0894 55.4662 37.0598 55.2183 37.0194 55.0645C37.0235 56.048 37.3291 56.1492 37.6156 56.2239C37.4722 56.7172 37.4878 56.9636 37.6713 57.3184C37.5772 57.4911 37.478 57.7741 37.4484 57.1714C37.4397 57.3423 37.3961 57.8627 37.39 58.3453C37.3839 58.8279 37.4528 59.2708 37.568 59.2855C37.5368 59.4733 37.5479 59.6656 37.6006 59.8484C37.624 60.6149 37.6008 60.6816 37.654 61.4284L37.6829 61.2187C37.976 61.4999 37.7643 61.8364 37.8367 62.4383L37.8098 62.4181C37.7427 63.811 37.9677 63.0063 37.866 64.3851L38.0315 64.2934C38.4583 64.3176 37.9655 65.4495 38.1958 66.2247L38.2672 65.9267C38.3058 66.05 38.3106 66.1813 38.2811 66.3071C38.2544 66.464 38.2153 66.6185 38.1641 66.7692C38.0526 67.0459 37.9808 67.3371 37.951 67.6339C37.9339 67.7323 37.8779 67.4916 37.834 67.3623C37.7886 68.531 38.0801 67.4787 38.2603 68.3123C38.1648 68.4869 37.9231 68.1573 37.9864 68.7313C37.9611 68.8806 38.1213 69.2781 38.2747 69.7367C38.3548 69.9654 38.4204 70.2134 38.4827 70.4498C38.5509 70.6673 38.5827 70.8945 38.5769 71.1224C38.6346 70.9343 38.6893 70.75 38.841 71.1231C39.0003 71.7093 38.8327 72.8009 39.2348 73.2725C39.224 73.3546 39.2081 73.3877 39.1855 73.3978C39.2709 73.6155 39.3765 73.9779 39.4952 74.311C39.5849 74.5789 39.7145 74.8318 39.8797 75.0611C39.423 75.6188 40.9073 77.7578 40.3749 77.8976C40.4381 78.1287 40.5173 78.3508 40.5968 78.5762L40.8332 79.2477L40.7689 79.2293C41.0129 80.102 41.2446 80.3729 41.4696 80.6328C41.4993 80.8447 41.406 80.7172 41.3705 80.7084C41.4628 81.1566 41.5904 81.5967 41.7521 82.0247C41.9428 82.39 42.1637 82.7387 42.4125 83.0671L42.2852 83.2358C42.3882 83.3585 42.4954 83.8304 42.6605 84.421C42.7423 84.7112 42.8442 85.0347 42.961 85.3543C43.021 85.5139 43.0845 85.6731 43.1575 85.8274C43.2306 85.9817 43.321 86.1251 43.4123 86.2631C43.3878 86.2597 43.3451 86.2486 43.2801 86.1634C43.6784 86.7916 43.9277 87.6413 44.1803 88.367C44.4329 89.0928 44.6833 89.6938 45.109 89.7832L45.6961 90.5719C45.1671 89.4391 46.0341 90.6102 45.8948 90.1052C46.152 90.5217 46.3045 91.3164 45.9952 90.7974L45.9815 90.6999C45.5778 90.657 46.5871 92.134 46.3683 92.2126L46.7883 93.0315L47.2361 93.8294L48.0971 95.4231C48.2405 95.6876 48.3785 95.9511 48.52 96.2141L48.7307 96.6046L48.9621 96.9836C49.269 97.4858 49.577 97.9827 49.8936 98.468L49.9656 98.1014L50.395 98.7801C50.4607 98.992 50.3811 99.1335 50.0746 98.6467C50.1217 98.983 50.7075 99.3826 50.7632 99.3645C51.2926 100.365 50.2696 99.1697 50.4527 99.4612L50.7274 99.8427L50.6935 99.736C50.9887 99.9947 51.1064 99.9542 51.5044 100.519C51.719 100.9 51.5051 100.793 51.5974 100.938C51.5873 100.951 51.6097 101.001 51.7385 101.15L52.3173 101.977L52.246 101.541C52.5967 101.842 52.8019 102.316 52.7159 101.8C52.7958 102.093 52.9257 102.37 53.0998 102.618C53.204 102.787 53.3231 102.964 53.4499 103.147C53.5767 103.33 53.7294 103.502 53.8744 103.681C54.4502 104.389 55.0314 105.05 55.1211 105.25C55.3771 105.446 55.6136 105.667 55.8272 105.908L56.5256 106.709C56.4296 106.537 56.532 106.302 56.9508 106.807C56.427 106.947 57.6103 107.843 57.718 108.477C57.5624 107.966 59.0297 109.836 58.7605 109.053C59.1137 109.482 58.6477 109.202 58.8657 109.583C59.4265 110.034 59.9431 110.538 60.4084 111.087C60.9169 111.701 61.4769 112.271 62.0821 112.791C62.1432 112.762 61.9974 112.505 62.3283 112.676L62.7588 113.485C63.0176 113.68 63.2228 113.408 63.5186 113.965C63.4915 113.869 63.451 113.727 63.625 113.855C63.8975 114.148 64.181 114.434 64.4779 114.718C64.7749 115.002 65.0931 115.242 65.3974 115.493C66.0342 116 66.6879 116.493 67.3372 116.992L67.826 117.361L68.3207 117.71C68.6485 117.957 68.9849 118.193 69.3021 118.45C69.6194 118.707 69.9443 118.958 70.2533 119.23C70.4094 119.366 70.5608 119.504 70.7107 119.645C70.8607 119.785 71.0096 119.93 71.1658 120.066C70.8613 119.728 71.1169 119.876 71.4021 120.052C71.233 119.909 71.4975 119.925 71.5045 119.828L72.5224 120.755C72.8588 120.684 73.755 121.514 74.0031 121.4L73.6257 121.214C74.2483 121.29 73.2652 120.281 73.5203 120.034C73.1737 119.995 72.886 119.679 72.5373 119.344C72.192 118.968 71.7497 118.695 71.2592 118.555C71.1065 118.358 71.48 118.577 71.4266 118.44C71.1309 118.41 70.8532 118.251 70.414 117.857L70.4888 117.865C69.8068 117.402 69.3424 117.037 68.871 116.645C68.7483 116.553 68.6323 116.447 68.5035 116.335C68.3746 116.223 68.263 116.111 68.1346 115.991C67.8765 115.751 67.5871 115.484 67.2427 115.179L67.244 115.397C67.0733 115.248 66.9231 115.077 66.7973 114.889C66.2828 114.801 67.6613 115.597 67.1591 115.562C66.9662 114.956 64.9519 113.819 64.9683 113.251C64.5132 112.841 64.9734 113.519 64.5168 113.112L64.4664 112.923L64.2609 112.925C63.9759 112.641 63.9137 112.404 63.9629 112.327C64.0585 112.411 64.1604 112.488 64.2676 112.557C63.9629 112.119 63.147 111.618 63.0403 111.469L63.4343 111.907C63.108 111.646 62.7659 111.37 62.4363 111.061C62.1068 110.753 61.7864 110.424 61.4602 110.103C60.8388 109.473 60.1831 108.878 59.4962 108.321L59.5184 108.467C58.5817 107.655 58.915 107.672 57.9585 106.719L58.0007 106.751C57.7155 106.567 57.4597 106.342 57.2419 106.082C57.5429 106.273 56.9477 105.487 57.3273 105.75C57.0705 105.532 56.9124 105.395 56.8099 105.299C56.7451 105.237 56.673 105.182 56.5952 105.137C56.39 105.062 56.1944 104.962 56.012 104.842L55.9848 104.599C55.6665 104.458 55.3896 104.237 55.1803 103.959C55.6197 104.317 55.0624 103.497 55.5743 103.883C55.3091 103.39 54.9563 102.95 54.5333 102.584C54.2152 102.284 53.9979 102.03 53.9725 101.641C53.2948 101.343 54.5352 102.757 54.2555 102.51C54.3449 102.83 53.7159 102.244 53.4821 101.86C53.2484 101.476 53.4029 100.952 52.7249 100.041C52.791 100.133 52.8246 100.116 52.8906 100.22C52.7169 99.8245 52.291 99.6236 52.1113 99.1122C51.7654 98.9926 51.7479 98.5374 51.4672 98.6264C51.6826 98.9031 51.8773 99.1913 52.108 99.4555C51.7005 99.0189 51.1361 98.7225 50.7294 97.8143C50.8984 97.9191 51.0523 98.0463 51.187 98.1925C51.1023 97.9061 50.8386 97.7613 50.7476 97.4672C51.0322 97.381 51.4969 98.4954 52.0255 98.9031C51.9653 98.584 51.1928 98.0134 51.6281 98.1101C51.0494 97.9444 51.0544 97.1482 50.38 96.6667L50.5497 96.6172C50.3945 96.485 50.255 96.3355 50.1341 96.1714L50.544 96.3934C50.3172 96.1862 50.1471 95.9244 50.05 95.6329C49.965 95.3456 49.8314 95.0749 49.655 94.8328C50.2879 95.9115 49.6215 95.1803 49.7824 95.7047C48.8041 94.4857 49.7159 94.7042 48.7747 93.2606C48.9125 93.4487 49.1279 94.0683 48.8765 93.7915C48.7313 93.4977 48.6232 93.1868 48.5549 92.8663C47.9443 91.8975 48.4904 93.1033 48.1523 92.7341C48.1309 92.2999 47.8016 92.2861 47.5102 91.8709L47.6627 91.7844C47.1603 90.5724 47.1824 91.6477 46.7594 90.5377L47.2022 90.8717L46.8641 90.3551L47.0984 90.3754C46.7638 89.9863 46.5094 89.5349 46.3499 89.0471C46.3158 89.2318 46.0117 89.1167 45.7745 88.586C45.7059 88.1824 46.0156 88.7168 45.6536 87.9806C45.7724 88.0396 45.8719 88.1315 45.9401 88.2453C46.0083 88.3591 46.0424 88.4901 46.0385 88.6227C46.1047 88.6306 46.2052 88.7485 46.2777 88.752C46.2112 88.3139 45.864 87.7694 45.7389 87.5006C45.7832 87.5988 45.8155 87.7019 45.8351 87.8077L45.1251 86.8272C45.1093 86.6288 45.218 86.7439 45.3248 86.8575C45.2092 86.644 45.0674 86.525 44.9102 86.211C45.0768 86.2373 45.2014 86.1599 45.4686 86.587L44.8585 85.6216C44.8832 85.529 44.7756 85.0298 44.8838 85.1415C44.7375 84.538 44.0763 83.8197 43.871 83.0033C43.794 82.9299 43.7327 82.8417 43.6907 82.744C43.5634 82.3744 43.4789 82.0159 43.3589 81.6487C43.2464 81.245 43.0865 80.8559 42.8828 80.4897L42.9592 79.9098C42.6787 79.2411 42.8794 80.6856 42.4127 79.5698C42.0676 78.7833 42.5169 79.2003 42.4914 78.8953C42.3192 78.6622 42.163 78.4178 42.0237 78.1637C41.9367 78.0069 41.8685 77.8403 41.8204 77.6676C41.7718 77.4789 41.7464 77.285 41.7447 77.0902C41.8262 77.316 41.8957 77.5461 41.9527 77.7793V77.7793ZM39.8366 69.1012C39.8976 69.2675 40.0668 69.5935 39.978 69.7311C39.7605 69.561 39.8296 69.3936 39.8439 69.0916L39.8366 69.1012ZM38.4501 55.5481C38.4938 55.7366 38.4765 55.9342 38.4006 56.1122C38.3905 55.9192 38.4097 55.7258 38.4573 55.5385L38.4501 55.5481ZM47.5068 18.5982L47.4967 18.6116C47.2466 18.9193 47.3386 18.8172 47.5068 18.5982ZM47.9926 17.9301C48.0135 17.8466 47.9905 17.8413 47.9515 17.857C47.9171 18.0067 47.848 18.1461 47.7497 18.2642C47.8194 18.2355 47.8998 18.1608 47.9926 17.9301ZM51.6938 100.978L51.6361 100.823C51.8885 101.082 51.7936 101.029 51.6938 100.978Z" fill="#452F53"/>
<path d="M38.6764 57.0903C38.6554 57.1267 38.6211 57.1536 38.5807 57.1654C38.6088 57.2317 38.6405 57.2376 38.6764 57.0903Z" fill="#452F53"/>
<path d="M43.8653 82.9871L43.8738 83.0116C43.8849 83.0211 43.899 83.0264 43.9137 83.0266L43.8653 82.9871Z" fill="#452F53"/>
<path d="M43.848 29.8891C43.7964 29.9875 43.729 30.0769 43.6485 30.1536C43.6869 30.1705 43.7476 30.114 43.848 29.8891Z" fill="#452F53"/>
<path d="M50.0639 14.0912L49.8082 14.5539C49.8907 14.4149 49.997 14.2915 50.1222 14.1893C50.0795 14.1781 49.9752 14.2288 50.0639 14.0912Z" fill="#452F53"/>
<path d="M51.6719 13.6261C51.6648 13.5997 51.695 13.5954 51.6855 13.5642L51.6223 13.5165C51.5764 13.5932 51.5969 13.6777 51.6719 13.6261Z" fill="#452F53"/>
<path d="M50.6976 14.1841C50.8242 14.2555 50.8297 14.1605 50.8583 14.0708L50.8482 14.0842C50.6949 13.9445 50.6965 14.066 50.6976 14.1841Z" fill="#452F53"/>
<path d="M50.8674 14.0506C50.8782 14.0243 50.8956 14.0012 50.918 13.9835C50.8476 13.9214 50.8752 13.9964 50.8674 14.0506Z" fill="#452F53"/>
<path d="M48.4417 16.9878C48.564 16.8575 48.3375 16.7949 48.4414 16.7409C48.3864 16.4709 48.036 17.8606 48.4417 16.9878Z" fill="#452F53"/>
<path d="M51.1364 14.3918L50.97 14.3175L51.0614 14.4435L51.1364 14.3918Z" fill="#452F53"/>
<path d="M49.6665 16.3568C49.7837 16.2016 49.9008 16.0463 50.0179 15.891C49.9949 15.8737 50.0152 15.8108 50.0534 15.7283C49.8552 16.027 49.609 16.3375 49.6665 16.3568Z" fill="#452F53"/>
<path d="M50.061 15.7341C50.1601 15.6062 50.2424 15.4662 50.3061 15.3175C50.2172 15.452 50.1354 15.5911 50.061 15.7341Z" fill="#452F53"/>
<path d="M50.9761 14.728L50.849 14.8487L50.6094 15.1823L50.9761 14.728Z" fill="#452F53"/>
<path d="M46.5358 21.7876L46.2855 22.3747C46.3112 22.4602 46.4258 22.3241 46.5148 22.1025C46.5464 21.9489 46.6354 21.7273 46.5358 21.7876Z" fill="#452F53"/>
<path d="M47.8646 20.3207C47.7991 20.4021 47.7133 20.465 47.6159 20.5029L47.7942 20.6374L47.8646 20.3207Z" fill="#452F53"/>
<path d="M47.0531 21.9792C47.0802 22.0628 46.7856 22.8722 47.1448 22.1567C47.121 22.0726 47.3661 21.4845 47.0531 21.9792Z" fill="#452F53"/>
<path d="M42.9171 30.5731L42.9732 30.423L42.6225 30.3178L42.9171 30.5731Z" fill="#452F53"/>
<path d="M41.2886 38.8332C41.5517 38.1294 41.1111 38.606 41.3927 37.9854C41.3557 37.7951 41.157 38.4933 41.1335 38.3012C41.0996 38.7568 41.014 38.9779 41.2886 38.8332Z" fill="#452F53"/>
<path d="M41.1335 38.3011C41.1385 38.2266 41.1431 38.1489 41.1419 38.0667C41.13 38.1443 41.1272 38.2229 41.1335 38.3011V38.3011Z" fill="#452F53"/>
<path d="M73.2064 121.404L73.583 121.73L73.3782 121.455L73.2064 121.404Z" fill="#452F53"/>
<path d="M74.144 121.672L74.1208 121.934L74.48 121.904C74.3513 121.854 74.2362 121.775 74.144 121.672V121.672Z" fill="#452F53"/>
<path d="M40.1078 67.7091L40.0455 67.6802C39.9972 67.7641 40.0109 67.8736 40.0333 68.095L40.1078 67.7091Z" fill="#452F53"/>
<path d="M41.1549 74.0802L41.1293 73.9707L40.9778 74.2233L41.1549 74.0802Z" fill="#452F53"/>
<path d="M42.9203 79.2158C42.8599 79.0048 42.7314 78.7725 42.6724 78.5596C42.8522 78.999 42.6804 79.3506 42.9203 79.2158Z" fill="#452F53"/>
<path d="M31.8001 24.2398C31.7448 24.2493 31.8232 24.3806 31.8255 24.4094C31.8963 24.3395 31.7814 24.2047 31.8001 24.2398Z" fill="#452F53"/>
<path d="M32.4837 23.5527L32.4961 23.6161L32.5532 23.4246L32.4837 23.5527Z" fill="#452F53"/>
<path d="M33.2497 23.2071C33.0697 23.0112 32.9914 23.3702 32.8157 23.3519L32.7659 23.3144L32.7893 23.5305C32.9466 23.4176 33.1047 23.2 33.2497 23.2071Z" fill="#452F53"/>
<path d="M33.8966 23.5056C33.8272 23.4262 33.9464 23.3838 33.7895 23.5241C33.801 23.5327 33.8067 23.5371 33.8144 23.5429C33.8392 23.5254 33.8671 23.5127 33.8966 23.5056V23.5056Z" fill="#452F53"/>
<path d="M33.8232 23.5314C33.7457 23.5782 33.9123 23.5806 33.8232 23.5314V23.5314Z" fill="#452F53"/>
<path d="M34.1613 23.3021L34.0957 23.433C34.1474 23.4721 34.244 23.4397 34.228 23.4968C34.3138 23.399 34.2668 23.3576 34.1613 23.3021Z" fill="#452F53"/>
<path d="M34.1769 23.0822L34.1335 23.1397C34.1608 23.1633 34.1796 23.1624 34.1769 23.0822Z" fill="#452F53"/>
<path d="M34.0596 23.2734L34.1392 23.144C34.1047 23.118 34.0665 23.041 34.0987 23.1977C34.0778 23.1217 34.0838 23.2015 34.0596 23.2734Z" fill="#452F53"/>
<path d="M33.9848 23.2773C33.8998 23.2584 33.8081 23.2644 33.8752 23.1315C33.6818 23.2563 33.7919 23.4055 33.9848 23.2773Z" fill="#452F53"/>
<path d="M33.1741 22.9484L33.0638 22.9193L33.0327 23.0282C33.0492 22.9745 33.2148 23.0181 33.1741 22.9484Z" fill="#452F53"/>
<path d="M34.8808 23.0899C34.8374 23.03 34.7894 22.9736 34.7371 22.9214L34.6884 23.0139C34.7484 23.0261 34.8368 23.0206 34.8808 23.0899Z" fill="#452F53"/>
<path d="M34.7372 22.9214L34.8096 22.7776C34.701 22.8219 34.7028 22.8714 34.7372 22.9214Z" fill="#452F53"/>
<path d="M34.0679 22.8197L33.9654 23.0912L34.1026 22.7977L34.0679 22.8197Z" fill="#452F53"/>
<path d="M35.3236 22.8615L35.3184 23.008L35.3444 22.778L35.3236 22.8615Z" fill="#452F53"/>
<path d="M35.6036 22.6817C35.6067 22.8013 35.7589 22.7988 35.7351 22.8862C35.8009 22.8065 35.841 22.7089 35.8502 22.606C35.8077 22.6823 35.7327 22.7099 35.6036 22.6817Z" fill="#452F53"/>
<path d="M35.8946 22.4473C35.8748 22.4987 35.8598 22.5518 35.85 22.6061C35.8778 22.5576 35.8931 22.5031 35.8946 22.4473Z" fill="#452F53"/>
<path d="M35.0201 22.7017C35.0395 22.727 35.0641 22.7478 35.0922 22.7628C35.1203 22.7778 35.1513 22.7866 35.1831 22.7886L35.0667 22.6797L35.0201 22.7017Z" fill="#452F53"/>
<path d="M35.0662 22.6645L35.1677 22.6177L35.0662 22.6645Z" fill="#452F53"/>
<path d="M35.0141 22.7099C35.0057 22.6878 35.0017 22.6848 35.0141 22.7099V22.7099Z" fill="#452F53"/>
<path d="M34.4359 22.7905C34.4631 22.6787 34.5634 22.5258 34.3686 22.4811C34.3644 22.5983 34.4762 22.6255 34.4359 22.7905Z" fill="#452F53"/>
<path d="M34.862 22.5645C34.8158 22.5778 34.7692 22.5878 34.7226 22.5977C34.7446 22.6324 34.7949 22.6733 34.7804 22.7285L34.862 22.5645Z" fill="#452F53"/>
<path d="M34.8977 22.4892L34.8606 22.5664L34.9134 22.5521L34.8977 22.4892Z" fill="#452F53"/>
<path d="M35.6187 22.4345C35.6379 22.3632 35.684 22.302 35.7474 22.2639C35.667 22.2743 35.5892 22.2992 35.5176 22.3372C35.5353 22.3896 35.548 22.4804 35.6187 22.4345Z" fill="#452F53"/>
<path d="M35.3398 22.5409L35.3504 22.5269C35.3349 22.5183 35.3259 22.5178 35.3398 22.5409Z" fill="#452F53"/>
<path d="M36.3878 21.917L36.3648 21.8996L36.3768 21.9237L36.3878 21.917Z" fill="#452F53"/>
<path d="M35.4964 22.3213C35.4301 22.3254 35.4166 22.3753 35.4111 22.4344C35.4438 22.3982 35.4816 22.3669 35.5233 22.3415C35.5151 22.3203 35.5099 22.3074 35.4964 22.3213Z" fill="#452F53"/>
<path d="M36.0403 22.2863C35.997 22.275 35.9529 22.2669 35.9083 22.2619C35.9587 22.2909 36.0493 22.3262 36.0403 22.2863Z" fill="#452F53"/>
<path d="M35.3849 22.5531C35.4112 22.582 35.4045 22.5709 35.3849 22.5531V22.5531Z" fill="#452F53"/>
<path d="M35.385 22.5528C35.4 22.5145 35.4082 22.4739 35.4094 22.4328C35.3826 22.4584 35.3601 22.4882 35.3429 22.521C35.3588 22.5289 35.3731 22.5397 35.385 22.5528V22.5528Z" fill="#452F53"/>
<path d="M36.0813 20.9519C36.1438 21.0803 36.0804 21.276 35.889 21.2068C35.8285 21.3627 36.1354 21.7295 36.3668 21.9011C36.3382 21.8434 36.3129 21.7972 36.3853 21.6533C36.3076 21.6128 36.0324 21.6428 36.0707 21.4762C36.185 21.3248 36.2211 21.4483 36.3339 21.4702C36.1805 21.3546 36.3992 21.1285 36.2331 20.922L36.1477 21.0832C36.1175 21.0514 36.1374 20.9612 36.0813 20.9519Z" fill="#452F53"/>
<path d="M36.1379 22.017L36.1018 22.0649C36.1895 22.0666 36.2756 22.0892 36.3528 22.1309C36.3711 22.1006 36.3825 22.0667 36.3861 22.0315C36.3898 21.9963 36.3856 21.9607 36.374 21.9274L36.124 22.0395L36.1379 22.017Z" fill="#452F53"/>
<path d="M35.8686 22.1749C35.8316 22.0207 35.9097 21.9052 35.7602 21.7924C35.625 21.8799 35.7237 21.9604 35.6701 22.0673C35.8842 21.907 35.6463 22.1787 35.8567 22.1629C35.8279 22.2045 35.7917 22.2404 35.7498 22.2687C35.8019 22.2628 35.8544 22.2612 35.9068 22.2639L35.8972 22.2566C35.88 22.2436 35.8704 22.2364 35.8819 22.2451C35.8736 22.2273 35.8675 22.2086 35.8638 22.1893C35.9464 22.1795 35.8964 22.2139 35.8819 22.2451C35.8866 22.2495 35.8917 22.2534 35.8972 22.2566V22.2566L36.0884 22.055C36.0065 22.0764 35.931 22.1176 35.8686 22.1749V22.1749Z" fill="#452F53"/>
<path d="M34.3398 22.1166C34.3511 22.1213 34.361 22.1287 34.3686 22.1383C34.3609 22.1325 34.3663 22.1095 34.3398 22.1166Z" fill="#452F53"/>
<path d="M34.4756 22.1559C34.4693 22.1842 34.483 22.2457 34.4215 22.2595C34.36 22.2732 34.3866 22.1941 34.3599 22.1498C34.3468 22.2031 34.2946 22.3081 34.4353 22.321L34.4401 22.2946C34.5604 22.3028 34.6744 22.3507 34.7644 22.4309C34.6816 22.326 34.5844 22.2334 34.4756 22.1559V22.1559Z" fill="#452F53"/>
<path d="M35.1523 22.1279L35.3122 21.9478L35.1505 21.883L35.1945 21.9522C35.072 21.9951 35.1424 22.0693 35.1523 22.1279Z" fill="#452F53"/>
<path d="M36.4488 21.9717L36.505 22.1284L36.5004 21.8634L36.4488 21.9717Z" fill="#452F53"/>
<path d="M36.6863 21.8083L36.7489 21.9367L36.7708 21.8239L36.6863 21.8083Z" fill="#452F53"/>
<path d="M52.7865 7.48668L52.8275 7.6078C52.8208 7.5654 52.8069 7.52445 52.7865 7.48668Z" fill="#452F53"/>
<path d="M52.7817 6.25296L52.7094 6.34881C52.7301 6.34269 52.7483 6.33007 52.7613 6.31282C52.7744 6.29556 52.7815 6.27458 52.7817 6.25296V6.25296Z" fill="#452F53"/>
<path d="M45.2932 15.3409C45.4915 15.3371 45.755 15.3705 45.6309 15.2679L45.4952 15.1926C45.4499 15.2666 45.3773 15.3199 45.2932 15.3409V15.3409Z" fill="#452F53"/>
<path d="M49.6085 9.15266L49.547 9.15441C49.5609 9.21466 49.5784 9.27404 49.5993 9.33223C49.599 9.28085 49.6025 9.22035 49.6085 9.15266Z" fill="#452F53"/>
<path d="M49.2437 8.56781L49.476 8.42725C49.3914 8.46096 49.3129 8.50846 49.2437 8.56781V8.56781Z" fill="#452F53"/>
<path d="M53.2086 12.3818L53.3797 12.4778C53.3567 12.301 53.2883 12.3878 53.2086 12.3818Z" fill="#452F53"/>
<path d="M40.3035 19.3967C40.4139 19.3798 40.5203 19.3428 40.6174 19.2876C40.4353 19.3097 40.2568 19.2713 40.3035 19.3967Z" fill="#452F53"/>
<path d="M51.1714 9.36905C51.209 9.34716 51.2406 9.31622 51.2633 9.27902C51.2228 9.29687 51.1901 9.32887 51.1714 9.36905V9.36905Z" fill="#452F53"/>
<path d="M40.9137 19.078C40.8863 19.0785 40.8652 19.0866 40.8397 19.0884C40.7778 19.1705 40.7009 19.24 40.613 19.2933C40.6804 19.2984 40.7475 19.2797 40.8024 19.2403C40.8574 19.2009 40.8968 19.1435 40.9137 19.078V19.078Z" fill="#452F53"/>
<path d="M56.2899 26.0647C56.2887 26.0772 56.2864 26.0895 56.2831 26.1016C56.3033 26.0988 56.2995 26.0839 56.2899 26.0647Z" fill="#452F53"/>
<path d="M56.4451 30.5121C56.4141 30.4634 56.3859 30.413 56.3605 30.3611C56.3751 30.418 56.4042 30.47 56.4451 30.5121V30.5121Z" fill="#452F53"/>
<path d="M38.0526 21.0732C37.9771 21.1335 38.0396 21.0905 38.0526 21.0732V21.0732Z" fill="#452F53"/>
<path d="M37.3264 20.7842C37.331 20.7703 37.3327 20.7556 37.3313 20.741C37.3298 20.7265 37.3253 20.7124 37.3179 20.6997C37.3305 20.726 37.3335 20.7559 37.3264 20.7842V20.7842Z" fill="#452F53"/>
<path d="M41.0777 17.7283C41.0422 17.7172 41.0497 17.7197 41.0777 17.7283V17.7283Z" fill="#452F53"/>
<path d="M37.888 21.0844C37.9313 21.0829 37.9741 21.0746 38.0148 21.0598C37.972 21.0648 37.9296 21.073 37.888 21.0844Z" fill="#452F53"/>
<path d="M37.9435 21.1384L37.8637 21.1685C37.866 21.1973 37.8842 21.205 37.9435 21.1384Z" fill="#452F53"/>
<path d="M38.1542 20.9905C38.111 21.0197 38.0641 21.043 38.0147 21.0597C38.0368 21.0584 38.0493 21.0617 38.0397 21.0785L38.1542 20.9905Z" fill="#452F53"/>
<path d="M53.7222 18.9343L53.7077 18.9534C53.7905 19.043 53.7772 18.9969 53.7222 18.9343Z" fill="#452F53"/>
<path d="M46.021 12.1548C46.0641 12.3887 45.9896 12.4318 45.8867 12.4805L46.2909 12.7101L46.021 12.1548Z" fill="#452F53"/>
<path d="M52.9163 10.2216L52.9781 10.0998L53.0185 10.0461L53.0472 9.94442L53.0921 10.0324C53.1112 10.0469 53.1174 10.0666 53.1284 10.0839C53.1491 10.1108 53.168 10.1391 53.1849 10.1686C53.2164 10.2224 53.236 10.2643 53.2537 10.2926C53.2714 10.321 53.3208 10.3432 53.4128 10.2292C53.3647 10.2316 53.3169 10.2194 53.2758 10.1943C53.2347 10.1692 53.2021 10.1323 53.1822 10.0884C53.1693 10.0625 53.1608 10.0348 53.157 10.0062C53.1473 9.96016 53.1402 9.91365 53.1357 9.86686C53.124 9.77079 53.1146 9.66752 53.1053 9.56425C53.0641 9.16029 53.0504 8.73192 52.8061 8.86044L52.8987 8.53031C52.898 8.61098 52.9245 8.60384 52.9218 8.68307C53.0284 8.34241 52.945 8.28553 52.8346 8.26842C52.7242 8.25132 52.5989 8.25002 52.6305 7.91301C52.6657 7.66292 52.7332 7.41003 52.7944 7.49231C52.752 7.3731 52.7105 7.26062 52.669 7.16015C52.6766 7.00651 52.7604 6.90733 52.7523 7.06962L52.7081 6.37464L52.724 6.35356C52.6426 6.3768 52.5584 6.38917 52.4737 6.39034C52.5442 6.0736 52.5256 6.36935 52.5861 6.20144C52.5515 6.15625 52.5118 6.11522 52.4678 6.07915C52.5318 5.86275 52.5955 5.7544 52.6401 5.755C52.6848 5.7556 52.709 5.85507 52.7009 6.01736C52.9462 5.32124 52.9122 5.27457 52.8662 5.23987C52.8202 5.20517 52.7285 5.22317 52.879 4.42548L52.9407 4.69456C53.047 4.35708 53.1213 4.01032 53.1624 3.65888C53.192 3.38044 53.2196 3.10055 53.3027 2.57975C53.2551 2.77843 53.145 3.36303 53.0294 3.83524C52.9139 4.30745 52.7971 4.68553 52.7354 4.6239C52.7725 4.39927 52.7837 4.16111 52.6937 4.21658C52.811 3.9283 52.8538 3.61513 52.8181 3.30597L53.0529 2.5959C52.9759 2.47468 52.9037 2.74196 52.6813 3.29599C52.5107 3.52219 52.6191 3.02355 52.6903 2.63814C52.5712 2.78271 52.5091 2.96577 52.5155 3.15293C52.4885 3.42066 52.3975 3.67798 52.2504 3.90326C52.0464 4.05013 51.7696 4.64436 51.4174 5.43431C51.2693 5.51507 51.5035 5.0451 51.4585 4.98111L51.2315 5.66095C51.1953 5.70887 51.2245 5.56249 51.2382 5.48858C51.0816 5.85167 51.158 6.02955 50.9494 6.44964C50.8991 6.75156 50.8268 6.68798 50.7028 6.70878C50.5789 6.72957 50.4004 6.83858 50.2966 7.24744C50.2236 7.24052 50.3045 6.98575 50.274 6.87858C50.1005 7.30405 50.0362 7.45707 49.9811 7.61394C49.9079 7.82086 49.8488 8.03247 49.8041 8.24734C49.7065 8.29702 49.6012 8.35292 49.492 8.41793C49.6299 8.3746 49.6632 8.48994 49.6657 8.64217C49.6682 8.7944 49.6388 8.98881 49.6245 9.14339C49.7306 9.14224 49.8132 9.15638 49.8574 9.15362C49.8162 9.27596 49.778 9.39447 49.7508 9.49428C49.6927 9.50757 49.6588 9.42489 49.6154 9.32297C49.6143 9.35199 49.6155 9.38105 49.619 9.40989C49.469 9.46519 49.4036 9.32864 49.3627 9.17151C49.4287 9.15765 49.4957 9.14884 49.563 9.14515C49.5198 8.9712 49.4887 8.76127 49.3837 8.67311C49.3756 8.73566 49.3555 8.79608 49.3247 8.85111C49.319 8.79875 49.3081 8.75742 49.2817 8.75255C49.2553 8.74768 49.2551 8.83171 49.2491 8.93542C49.1603 8.90787 49.0701 8.88503 48.9789 8.86699C48.9981 8.89626 49.0192 8.92423 49.042 8.95071L48.6206 9.23434C48.6166 9.67036 48.7171 10.1431 48.4402 10.638C48.3846 10.4126 48.2227 10.4199 48.056 10.2701C48.3316 10.3035 48.2515 9.87923 48.4763 9.68487C48.3618 9.78492 48.2991 9.69256 48.2949 9.63828L48.1355 10.1646C48.0033 10.0409 47.9603 10.1618 47.8127 10.2219C48.1547 10.3745 47.7534 10.6673 47.7052 10.8987C47.6094 10.8264 47.5453 10.7119 47.7264 10.5357C47.3407 10.5726 47.8195 11.0901 47.464 11.1468C47.5001 11.0988 47.5395 11.0865 47.509 11.0273C47.4965 11.2074 47.1929 11.4145 47.1693 11.2824L47.2068 11.2325C46.9012 11.5102 46.3698 12.159 46.553 12.4145C46.4556 12.3045 46.3675 12.1867 46.2894 12.0623C46.3804 12.4798 46.4528 12.8862 46.5285 13.3042C46.3851 13.0757 45.7596 12.8205 45.8892 12.4732C45.8206 12.4998 45.759 12.5419 45.7092 12.5962C45.6595 12.6504 45.6228 12.7153 45.6022 12.786C45.6762 12.7636 45.9927 12.9301 45.9459 13.0121C45.5603 12.989 45.7115 13.0278 45.3186 13.0743C45.4291 13.0434 45.6451 13.4109 45.519 13.5262C45.4933 13.4647 45.2211 13.2474 45.2299 13.1759C45.2357 13.3637 45.2423 13.5582 45.2409 13.7435C45.2599 13.6226 45.0111 13.486 44.869 13.463C44.9554 13.4921 44.6201 13.6934 44.5723 13.7926L44.7578 13.7461C44.395 14.0078 44.8356 14.4603 44.4977 14.7528C44.4807 14.6558 44.2459 14.2892 44.0415 14.4087C44.1139 14.6318 44.3902 15.4536 44.1952 15.8358L44.0579 15.7985L43.9083 16.1006C43.8357 15.5782 43.8111 15.0503 43.8347 14.5234C43.6506 14.5681 43.7081 14.452 43.53 14.6244C43.3913 14.601 43.5171 14.4102 43.571 14.3547L43.0923 14.6823C43.271 14.8441 42.924 15.1568 43.0768 15.2931L43.3761 14.6888C43.5563 14.8487 43.57 15.4366 43.226 15.6853C43.0849 15.6811 43.0018 15.3087 42.9467 15.2582C42.9623 15.3571 42.7613 15.6356 42.6937 15.6176L42.7408 15.4036C42.5106 15.4856 42.6708 15.8951 42.3088 15.8927C42.2246 15.9405 41.8907 15.833 41.9653 15.9494C42.3589 16.1802 42.6787 16.5184 42.8871 16.9243C42.6479 16.9822 42.4025 17.0102 42.1564 17.0078C41.904 16.9438 42.0124 16.4571 41.7917 16.3989C41.8285 16.4538 41.8143 16.5723 41.8031 16.615C41.6892 16.6344 41.7052 16.4299 41.5563 16.5913C41.6917 16.8107 41.2041 16.855 41.6086 16.8172C41.4894 17.007 41.4042 16.9247 41.2136 17.0817C41.3733 17.157 41.3677 17.6429 41.2457 17.8366C41.2084 17.7825 41.1546 17.742 41.0923 17.721C40.7296 17.9707 40.4788 18.0281 40.1506 18.2678C40.0835 18.2412 39.8821 18.2968 39.8873 18.1624C39.8794 18.2557 39.838 18.3431 39.7709 18.4084C39.4473 18.3749 39.9793 18.2198 39.6847 18.1239C39.7569 18.2475 39.5359 18.4688 39.4408 18.6467C39.6123 18.7941 39.803 18.4416 39.8966 18.2657C40.0784 18.5111 40.0081 18.9512 39.7334 19.3154C39.4974 19.5765 39.494 19.2341 39.477 19.3085C38.9268 19.6393 39.3237 20.062 38.7515 20.1748C38.4673 20.1289 38.5324 19.8592 38.415 19.7676C38.6081 19.5554 38.8408 19.6377 38.9952 19.5286L38.7502 19.5783C38.7723 19.5194 38.8071 19.466 38.8522 19.422C38.8973 19.378 38.9516 19.3446 39.0111 19.3241C38.7688 19.2826 38.0891 19.8887 37.5845 20.0194C37.5473 20.1206 37.4571 20.2601 37.5511 20.295L37.6681 20.1877C37.8725 20.2396 37.5361 20.5302 37.7441 20.4856C37.7 20.6108 37.6294 20.725 37.5372 20.8205C37.4449 20.9159 37.3332 20.9904 37.2096 21.0388L37.0482 20.878C37.0865 20.9309 37.2816 20.8916 37.3232 20.7846C37.2685 20.9329 36.7801 20.763 36.8033 21.0752L37.0621 21.0989C36.8958 21.3194 36.9167 21.5908 36.7288 21.6205C36.9205 21.7651 36.7563 21.5841 36.9835 21.7374C36.8493 21.6362 36.9537 21.5736 37.0408 21.522C37.1278 21.4703 37.2937 21.3699 37.0918 21.2988C37.4097 21.4514 37.4425 21.2325 37.7938 21.317C37.7498 21.2597 37.6432 21.2455 37.8542 21.1611C37.8524 21.1337 37.8549 21.1061 37.8616 21.0795L37.8712 21.0867L37.8616 21.0795C37.8616 21.0795 37.8703 21.068 37.8616 21.0795C37.8072 21.0835 37.7528 21.0708 37.7057 21.043C37.7144 20.8481 38.0063 20.6683 38.0663 20.5211C38.1941 20.4792 38.065 20.6224 38.1663 20.6476L38.2456 20.4428C38.349 20.5689 38.6873 20.4752 38.4773 20.7258L38.723 20.5833C38.8155 20.58 38.9063 20.557 38.9892 20.5158C39.0721 20.4747 39.1453 20.4163 39.2039 20.3445C39.3351 20.3021 39.3853 20.0122 39.3575 20.1807C39.4644 20.0749 39.5612 19.9584 39.6638 19.8463L39.6964 19.8709C40.0644 19.6342 40.2707 19.1373 40.8481 19.0855C40.9478 18.9306 41.0871 18.8052 41.2515 18.7221L41.3684 18.8103C41.4855 18.655 41.9049 18.5774 41.8799 18.4112C42.0756 18.4986 42.2728 18.3767 42.4538 18.2125C42.6016 18.042 42.7666 17.8873 42.9463 17.7509L42.8415 17.6027C43.0307 17.4439 43.1953 17.2579 43.3299 17.0508L43.2112 16.9372C43.3165 16.6858 43.7542 16.6159 44.0329 16.354C44.0558 16.4194 43.9721 16.4705 43.8957 16.4881C44.4807 16.4541 44.4454 15.6516 44.9268 15.5636C44.9376 15.5217 44.9602 15.4839 44.992 15.4545C45.0237 15.4251 45.0633 15.4055 45.1058 15.3979C45.1019 15.4002 45.0985 15.4032 45.0957 15.4068C45.093 15.4105 45.091 15.4146 45.0899 15.419L45.1145 15.3864C45.17 15.3768 45.2248 15.3639 45.2788 15.348C45.2293 15.3476 45.18 15.355 45.1328 15.3701C45.209 15.2918 45.2751 15.2042 45.3294 15.1094L45.4954 15.1925C45.5021 15.1856 45.5079 15.1778 45.5127 15.1695C45.6415 15.1343 45.5246 15.0461 45.3888 14.9948C45.4122 14.9362 45.4256 14.8741 45.4282 14.811C45.6924 14.9472 45.5874 14.5281 45.891 14.6519C45.8487 14.4967 46.2362 14.1544 46.0679 13.8831C46.1005 13.9076 46.1351 13.8977 46.0937 13.9446C46.1554 13.9207 46.2105 13.8825 46.2546 13.8331C46.2986 13.7837 46.3303 13.7246 46.347 13.6605L46.5446 13.7734L46.5313 13.3604C46.7498 13.3298 46.856 13.3286 46.8591 13.5716C46.9613 13.0893 47.0285 13.2633 47.0743 12.8317L47.1667 12.9405C47.2434 12.8389 47.2441 12.5628 47.3823 12.5828C47.5778 12.5709 47.821 12.3122 48.1075 12.0201C48.3726 11.6957 48.6785 11.4068 49.0174 11.1605C48.6044 11.0024 49.3813 11.017 49.149 10.7907C49.2541 10.8188 49.3613 10.7763 49.3508 10.9218C49.5179 10.5727 49.831 10.5802 49.7748 10.2041C49.8799 10.2322 49.8393 10.3579 49.9103 10.3634C49.9104 10.3274 49.9155 10.2169 49.9846 10.221C50.0538 10.225 50.017 10.3176 50.0154 10.3915C50.2367 10.0742 50.0192 9.85611 49.8085 9.66107C49.9306 9.61481 49.968 9.61299 49.9859 9.56934C50.0038 9.52569 49.9881 9.46274 49.9596 9.34502C50.0536 9.37984 50.1481 9.41803 50.0849 9.55376C50.1504 9.5049 50.2116 9.45044 50.2678 9.39098C50.3057 9.34464 50.3323 9.29013 50.3455 9.23175C50.3588 9.17337 50.3583 9.11272 50.3441 9.05457C50.3785 9.1046 50.4062 8.97214 50.4251 8.92321C50.5173 8.83116 50.5962 8.72662 50.6593 8.61266C50.6497 8.60543 50.6401 8.5982 50.6306 8.59097C50.6514 8.32404 50.6843 8.25258 50.7175 8.2325C50.7507 8.21242 50.7823 8.24228 50.8363 8.1387L50.8275 8.19822C50.9177 8.24216 50.9333 8.16969 50.9666 8.08958C51 8.00948 51.0299 7.92985 51.0699 8.05625L51.1445 7.65836C51.2446 7.19859 51.2805 7.2347 51.2951 7.35095C51.3097 7.4672 51.2942 7.67508 51.4064 7.38678L51.4387 7.17654C51.5238 6.94003 51.4847 7.21124 51.3881 7.5985L51.3167 7.89652L51.2352 8.20795L51.1193 8.64078C51.1009 8.70516 51.0776 8.76803 51.0496 8.82884C50.9453 9.22233 50.9986 9.052 51.0771 8.79242C51.1329 8.58196 51.2087 8.37731 51.3035 8.18125C51.1892 8.54013 51.0136 9.01218 50.9859 9.14464C50.9581 9.2771 51.0394 9.07372 51.1151 8.94138C51.1909 8.80905 51.2504 8.79384 51.1406 9.08695C51.1984 8.91104 51.2799 8.74387 51.383 8.59011C51.3607 8.74818 51.3222 8.90352 51.268 9.05368C51.2181 9.22353 51.2001 9.3032 51.3383 9.16383C51.3197 9.206 51.2965 9.24603 51.2693 9.28322C51.3428 9.26949 51.399 9.43819 51.5547 9.38723C51.2682 9.69139 51.3459 9.74394 51.431 9.8743C51.5161 10.0047 51.6108 10.1543 51.335 10.1929L51.3974 10.7482L51.3408 10.7355C51.3261 10.8496 51.3441 10.9656 51.3927 11.0698C51.4413 11.1741 51.5185 11.2624 51.6153 11.3245C51.5844 11.4094 51.5303 11.3536 51.5005 11.3492C51.4338 11.8763 51.4644 11.9234 51.7725 12.3363L51.5995 12.3982C51.7087 12.5046 51.4053 13.178 51.673 13.6565C51.6562 13.6553 51.6399 13.6508 51.625 13.6432C51.6101 13.6355 51.5969 13.625 51.5862 13.6121C51.8507 14.1545 51.2831 15.0466 51.9542 15.1618L52.166 15.511C52.1452 15.0201 52.4487 15.5348 52.5343 15.3256C52.5991 15.5068 52.4157 15.8377 52.3438 15.618L52.3742 15.5778C52.0199 15.5451 52.3509 16.1948 52.1247 16.2196C52.2185 16.6934 52.2527 17.1703 52.2995 17.6386C52.3463 18.1069 52.394 18.57 52.4692 19.0086L52.704 18.8489C52.7219 18.9526 52.7365 19.0569 52.7655 19.166C52.724 19.2609 52.5826 19.3287 52.5487 19.0986C52.4344 19.2501 52.7571 19.4363 52.8148 19.4316C52.8131 19.8845 52.475 19.3318 52.493 19.4596L52.5549 19.6326L52.5742 19.5871C52.7218 19.6984 52.8275 19.6939 52.8801 19.9591C52.8676 20.1391 52.7415 20.0831 52.7355 20.1508C52.7173 20.155 52.7138 20.1795 52.7516 20.2531L52.8221 20.6461L52.9811 20.4352C53.1219 20.5835 53.0608 20.7961 53.2429 20.5665C52.9577 20.9168 53.5007 22.0271 53.4345 22.2146C53.6286 22.4112 53.7534 22.6658 53.7898 22.9397C53.8087 22.8548 54.0213 22.7444 54.0691 23C53.5806 23.0496 54.0058 23.5146 53.7447 23.8289C53.9019 23.5806 54.0276 24.5145 54.2466 24.1323C54.2787 24.349 54.0798 24.202 54.0241 24.3915C54.3672 24.8217 54.2621 25.5154 54.5468 26.0909C54.6102 26.0786 54.6595 25.9414 54.8005 26.0417L54.6183 26.4666C54.6919 26.5763 54.9986 26.4528 54.8745 26.741C54.912 26.6912 54.9684 26.6164 55.0215 26.6896C55.0851 27.339 55.4015 27.8964 55.6636 28.482C55.9851 29.0541 56.167 29.6942 56.1945 30.3499C56.232 30.1407 56.2922 30.2402 56.3534 30.3585C56.3426 30.2692 56.4952 30.2941 56.5669 30.2429L56.5778 30.8225C56.8348 30.8088 56.8435 31.3236 57.0659 31.2839L56.9563 31.1501C57.2937 31.2331 57.364 30.6095 57.6841 30.4961C57.3026 30.4038 57.814 29.7218 57.2516 29.5383C57.2774 29.4284 57.3817 29.5613 57.4362 29.4851C57.2586 29.4534 57.1811 29.3528 57.1515 29.1169L57.1956 29.1262C56.909 28.5492 56.918 28.2462 56.7456 27.5417L56.607 27.6537C56.5849 27.558 56.5905 27.4579 56.6231 27.3652C56.3189 27.2981 56.7699 27.7766 56.4483 27.7326C56.6926 27.4086 56.0433 26.7144 56.362 26.4435C56.2824 26.218 56.2027 26.5789 56.1254 26.3583L56.2006 26.2586L56.0503 26.2505C56.0371 26.1894 56.0445 26.1257 56.0714 26.0692C56.0982 26.0127 56.1429 25.9667 56.1986 25.9383C56.2023 25.9772 56.2593 26.0292 56.2813 26.0639C56.3295 25.8326 56.0445 25.5485 56.0592 25.4693L56.0768 25.7051C55.7498 25.1337 55.6382 24.3368 55.2319 23.8108L55.177 23.8837C54.8832 23.4757 55.141 23.4927 54.9301 23.0148L54.9511 23.0307C54.8395 22.9462 54.7617 22.8246 54.7317 22.6877C54.862 22.7861 54.8366 22.397 54.9861 22.5338C54.6829 22.0826 54.7922 22.3244 54.4044 22.077L54.5103 21.9644C54.4356 21.9416 54.3679 21.9004 54.3133 21.8445C54.2588 21.7886 54.2191 21.7199 54.1981 21.6448C54.3637 21.8238 54.3571 21.4339 54.5631 21.6193C54.7006 21.0103 54.0632 20.9025 54.4099 20.5505C53.9872 20.3971 54.3283 21.0573 54.2235 20.9452C54.1376 21.0909 53.9016 20.8137 53.892 20.635C53.8824 20.4564 54.2773 20.2279 54.1675 19.7993C54.175 19.8411 54.2096 19.8311 54.2133 19.882C54.2647 19.6982 54.012 19.5948 54.1149 19.3626C53.8624 19.2985 54.0666 19.1037 53.7812 19.1351L53.9392 19.5158C53.8144 19.3104 53.4335 19.1735 53.51 18.7651C53.5959 18.8048 53.6724 18.8625 53.7342 18.9342C53.7903 18.8081 53.6344 18.7356 53.6871 18.5979C53.9696 18.5704 53.8559 19.068 54.1276 19.258C54.2159 19.117 53.8266 18.8595 54.1463 18.9022C53.7178 18.8165 54.1043 18.4675 53.7462 18.2365L53.9172 18.2211C53.8822 18.1797 53.7821 18.1012 53.7718 18.0152L54.0202 18.1244C53.785 17.9259 54.0888 17.6348 53.9419 17.4308C54.0443 17.905 53.7619 17.5777 53.682 17.8032C53.3382 17.2582 54.0409 17.3792 53.8448 16.7381C53.884 16.8217 53.8035 17.0919 53.7001 16.9658C53.706 16.823 53.7485 16.6842 53.8237 16.5627C53.7101 16.1312 53.6625 16.6607 53.5242 16.4933C53.7038 16.3069 53.4037 16.2941 53.3043 16.1109L53.4749 16.0802C53.4984 15.5626 53.0909 16.0071 53.1498 15.5343L53.4198 15.6867C53.3835 15.6112 53.3525 15.5367 53.3195 15.4608L53.5226 15.4786C53.3408 15.2452 53.3664 15.1593 53.3835 14.9015C53.3469 14.9215 53.3057 14.9316 53.2641 14.9309C53.2224 14.9301 53.1816 14.9186 53.1458 14.8973C53.1099 14.876 53.0802 14.8458 53.0596 14.8096C53.039 14.7733 53.0282 14.7324 53.0282 14.6907C53.1079 14.5252 53.2033 14.7536 53.1321 14.4413C53.2515 14.4982 53.3983 14.5548 53.2596 14.7148C53.3186 14.7203 53.3771 14.7704 53.4361 14.7758C53.5293 14.5965 53.4022 14.3623 53.3847 14.2499C53.3882 14.2937 53.3809 14.3377 53.3633 14.378L53.0378 13.9642C53.0971 13.8856 53.1536 13.9342 53.2102 13.9829C53.1821 13.8925 53.0939 13.838 53.063 13.7035C53.208 13.7226 53.3516 13.6956 53.439 13.8788L53.2351 13.4634C53.2918 13.428 53.376 13.2208 53.4344 13.2709C53.4927 13.0141 53.0921 12.7119 53.1636 12.3779C53.1226 12.3524 53.0926 12.3127 53.0793 12.2663C53.0802 11.9662 53.226 11.6731 53.0127 11.3379L53.2529 11.1191C53.1653 10.8365 52.9587 11.4174 52.824 10.958C52.7149 10.6321 53.0319 10.814 53.0893 10.698C52.9983 10.6054 52.9203 10.501 52.8572 10.3876C52.8239 10.3242 52.8048 10.2544 52.8011 10.1829C52.8013 10.1451 52.8064 10.1075 52.8163 10.0711C52.8279 10.0104 52.8429 9.95048 52.8615 9.89158C52.9263 10.0728 52.8906 10.1241 52.9163 10.2216ZM52.7065 4.65023C52.7434 4.65706 52.8545 4.60549 52.7513 4.94568C52.5554 5.30915 52.6513 4.99055 52.7094 4.6464L52.7065 4.65023ZM49.0232 9.36652C49.0075 9.29156 49.0768 9.24757 49.184 9.21712C49.1507 9.28319 49.0946 9.33491 49.0261 9.36268L49.0232 9.36652ZM38.8441 20.3829C39.0161 20.3383 38.9556 20.3467 38.847 20.3791L38.8441 20.3829ZM38.5341 20.495C38.5191 20.5348 38.5334 20.5516 38.5593 20.5651C38.5542 20.5161 38.6133 20.4736 38.6874 20.4392C38.6471 20.4088 38.5953 20.4058 38.5369 20.4911L38.5341 20.495ZM52.8161 20.1755L52.8456 20.1045C52.9264 20.2286 52.8746 20.2016 52.8161 20.1755Z" fill="#452F53"/>
<path d="M49.2815 8.64133C49.3144 8.64375 49.3452 8.65839 49.3678 8.68237C49.3708 8.63052 49.3512 8.6007 49.2815 8.64133Z" fill="#452F53"/>
<path d="M53.1769 12.3643C53.1873 12.3693 53.1988 12.3718 53.2104 12.3716L53.1769 12.3643Z" fill="#452F53"/>
<path d="M41.6379 16.4155C41.6863 16.3978 41.7389 16.3946 41.7892 16.4063C41.7653 16.3703 41.7197 16.3629 41.6379 16.4155Z" fill="#452F53"/>
<path d="M37.24 21.6485L37.3945 21.5034C37.3396 21.5419 37.2723 21.5587 37.2057 21.5505C37.2262 21.587 37.2948 21.6117 37.24 21.6485Z" fill="#452F53"/>
<path d="M35.6889 21.3087C35.673 21.3298 35.6542 21.3307 35.6513 21.3586L35.6953 21.4278C35.7612 21.3843 35.7782 21.2979 35.6889 21.3087Z" fill="#452F53"/>
<path d="M36.8128 21.2302C36.7291 21.1099 36.6861 21.1948 36.6207 21.2657L36.6293 21.2542C36.7148 21.4479 36.7645 21.3381 36.8128 21.2302Z" fill="#452F53"/>
<path d="M36.6038 21.2799C36.5858 21.3019 36.5619 21.3183 36.535 21.3272C36.5645 21.4037 36.5724 21.3254 36.6038 21.2799Z" fill="#452F53"/>
<path d="M38.2455 20.7978C38.1672 20.8019 38.3103 20.979 38.246 20.9486C38.2824 21.1475 38.5084 20.5089 38.2455 20.7978Z" fill="#452F53"/>
<path d="M36.5046 20.8532L36.6252 20.9923L36.5954 20.8405L36.5046 20.8532Z" fill="#452F53"/>
<path d="M37.4691 20.4316L37.248 20.5054C37.271 20.5228 37.2502 20.5583 37.2271 20.5889C37.3497 20.522 37.5007 20.4735 37.4691 20.4316Z" fill="#452F53"/>
<path d="M37.2194 20.5833C37.1611 20.6073 37.1118 20.649 37.0783 20.7024C37.1301 20.6687 37.1775 20.6287 37.2194 20.5833V20.5833Z" fill="#452F53"/>
<path d="M36.6736 20.6888L36.7504 20.6866L36.8947 20.615L36.6736 20.6888Z" fill="#452F53"/>
<path d="M39.5303 19.1144L39.7046 18.9271C39.6885 18.8608 39.6183 18.862 39.5509 18.9435C39.4835 19.0249 39.4617 19.0777 39.5303 19.1144Z" fill="#452F53"/>
<path d="M38.6241 19.1196C38.7005 19.1141 38.7287 19.1444 38.7911 19.1734L38.672 18.9843L38.6241 19.1196Z" fill="#452F53"/>
<path d="M39.1924 18.673C39.1763 18.6067 39.3797 18.3211 39.1357 18.513C39.1514 18.5759 38.9785 18.7613 39.1924 18.673Z" fill="#452F53"/>
<path d="M42.3186 16.6492L42.2728 16.6899L42.5122 16.9667L42.3186 16.6492Z" fill="#452F53"/>
<path d="M44.1662 13.8324C43.8988 13.9676 44.2713 14.044 44.0093 14.1441C44.0196 14.2541 44.2242 14.0626 44.2263 14.1634C44.2863 13.9802 44.3901 13.9502 44.1662 13.8324Z" fill="#452F53"/>
<path d="M44.2263 14.1634C44.214 14.1968 44.2051 14.2314 44.1996 14.2666C44.2149 14.2342 44.224 14.1992 44.2263 14.1634V14.1634Z" fill="#452F53"/>
<path d="M56.568 31.2304L56.5799 31.4379L56.639 31.2719L56.568 31.2304Z" fill="#452F53"/>
<path d="M56.9698 31.4432L56.7734 31.5959L57.013 31.6051C56.9901 31.5638 56.936 31.4959 56.9698 31.4432Z" fill="#452F53"/>
<path d="M53.188 2.34908L53.1295 2.49443C53.0814 2.67094 53.0545 2.85254 53.0493 3.0354L53.188 2.34908Z" fill="#452F53"/>
<path d="M53.0133 7.64859L53.0198 7.56026C52.9503 7.68828 52.8803 7.81295 52.8094 7.93089L53.0133 7.64859Z" fill="#452F53"/>
<path d="M53.4081 10.8334C53.4065 10.7479 53.3534 10.6508 53.3584 10.5643C53.4065 10.7479 53.1468 10.8769 53.4081 10.8334Z" fill="#452F53"/>
</svg>
