<svg width="42" height="99" viewBox="0 0 42 99" fill="none" xmlns="http://www.w3.org/2000/svg">
<path d="M41.606 96.6792C41.8696 96.5969 42.0166 96.3165 41.9343 96.0529L40.5935 91.7573C40.5112 91.4937 40.2308 91.3467 39.9672 91.429C39.7036 91.5113 39.5566 91.7917 39.6389 92.0553L40.8308 95.8736L37.0125 97.0655C36.7489 97.1477 36.6019 97.4281 36.6841 97.6917C36.7664 97.9553 37.0468 98.1023 37.3104 98.02L41.606 96.6792ZM17.8834 0.660416C9.20723 10.0395 -0.060669 26.1041 0.407395 43.8193C0.876822 61.5859 11.1328 80.8698 41.2249 96.6447L41.6892 95.7591C11.8333 80.1079 1.86461 61.1107 1.40705 43.7929C0.948119 26.4235 10.0509 10.6001 18.6175 1.33948L17.8834 0.660416Z" fill="black"/>
</svg>
