<svg width="48" height="55" viewBox="0 0 48 55" fill="none" xmlns="http://www.w3.org/2000/svg">
<path d="M38.5872 50.5423C38.6162 50.5576 38.6235 50.4661 38.6318 50.4524C38.5762 50.4637 38.5836 50.5694 38.5872 50.5423Z" fill="#452F53"/>
<path d="M38.0383 50.622L38.0554 50.5889L37.9591 50.6588L38.0383 50.622Z" fill="#452F53"/>
<path d="M37.5628 50.5046C37.5701 50.6649 37.7415 50.519 37.813 50.5967L37.8187 50.6331L37.8865 50.5234C37.7791 50.5177 37.6242 50.5642 37.5628 50.5046Z" fill="#452F53"/>
<path d="M37.3979 50.1231C37.3931 50.1831 37.3302 50.1593 37.4501 50.1546L37.4443 50.1369C37.4283 50.1345 37.4126 50.1298 37.3979 50.1231Z" fill="#452F53"/>
<path d="M37.4448 50.1362C37.4936 50.1401 37.4267 50.0813 37.4448 50.1362V50.1362Z" fill="#452F53"/>
<path d="M37.2072 50.1148L37.2863 50.0794C37.2822 50.0417 37.2278 50.02 37.2552 50.0007C37.1825 50.0106 37.1868 50.0469 37.2072 50.1148Z" fill="#452F53"/>
<path d="M37.1173 50.2033L37.1549 50.1922C37.1534 50.1766 37.1469 50.169 37.1173 50.2033Z" fill="#452F53"/>
<path d="M37.2391 50.166C37.211 50.1753 37.1829 50.1845 37.1549 50.1923C37.1529 50.2181 37.1488 50.2681 37.1929 50.1853C37.1737 50.2269 37.1998 50.1888 37.2391 50.166Z" fill="#452F53"/>
<path d="M37.2739 50.1977C37.3008 50.2388 37.3429 50.2709 37.2652 50.3064C37.3938 50.3168 37.404 50.2082 37.2739 50.1977Z" fill="#452F53"/>
<path d="M37.4992 50.652L37.5378 50.7083L37.5929 50.6681C37.5654 50.6875 37.5077 50.5994 37.4992 50.652Z" fill="#452F53"/>
<path d="M36.8337 49.9105C36.8259 49.9539 36.8223 49.998 36.8231 50.0421L36.8808 50.0223C36.8631 49.9921 36.8226 49.9586 36.8337 49.9105Z" fill="#452F53"/>
<path d="M36.8232 50.042L36.7357 50.0738C36.7969 50.1003 36.816 50.0774 36.8232 50.042Z" fill="#452F53"/>
<path d="M37.0577 50.363C37.1072 50.3382 37.1567 50.3134 37.2079 50.2844C37.1495 50.3128 37.0917 50.3341 37.0352 50.3568L37.0577 50.363Z" fill="#452F53"/>
<path d="M36.5676 49.82L36.6299 49.7617L36.5252 49.8468L36.5676 49.82Z" fill="#452F53"/>
<path d="M36.3856 49.7753C36.4342 49.726 36.3789 49.6625 36.4214 49.6343C36.3623 49.6392 36.3061 49.6623 36.2607 49.7005C36.3076 49.6899 36.3478 49.7089 36.3856 49.7753Z" fill="#452F53"/>
<path d="M36.1747 49.7494C36.2051 49.7368 36.2339 49.7208 36.2606 49.7017C36.2288 49.7111 36.1995 49.7274 36.1747 49.7494Z" fill="#452F53"/>
<path d="M36.625 50.0189C36.6281 50.0003 36.6273 49.9813 36.6226 49.9631C36.6179 49.9448 36.6093 49.9278 36.5975 49.9131L36.5984 50.0096C36.6075 50.012 36.6164 50.0151 36.625 50.0189Z" fill="#452F53"/>
<path d="M36.5924 50.012L36.534 49.9871L36.5924 50.012Z" fill="#452F53"/>
<path d="M36.8963 50.2236C36.8402 50.2594 36.736 50.2841 36.7983 50.3855C36.8441 50.336 36.8099 50.2771 36.8963 50.2236Z" fill="#452F53"/>
<path d="M36.6265 50.1427L36.6963 50.1872C36.6983 50.1629 36.7013 50.1257 36.7272 50.1077L36.6265 50.1427Z" fill="#452F53"/>
<path d="M36.5807 50.1577L36.6265 50.1427L36.602 50.1263L36.5807 50.1577Z" fill="#452F53"/>
<path d="M36.2757 49.8715C36.2568 49.8819 36.2361 49.8885 36.2146 49.8907C36.1932 49.8929 36.1715 49.8908 36.1509 49.8845C36.1869 49.9141 36.2279 49.9369 36.2721 49.9518C36.2872 49.9257 36.3222 49.8839 36.2757 49.8715Z" fill="#452F53"/>
<path d="M36.4265 49.9468L36.4176 49.9461C36.4195 49.9595 36.4222 49.9627 36.4265 49.9468Z" fill="#452F53"/>
<path d="M36.2749 49.9706C36.3014 49.9986 36.3271 49.9834 36.3547 49.9626C36.3269 49.9647 36.2989 49.9624 36.2718 49.956C36.2654 49.9641 36.2619 49.971 36.2749 49.9706Z" fill="#452F53"/>
<path d="M36.0506 49.7539C36.062 49.7771 36.0751 49.7993 36.0899 49.8204C36.0839 49.7868 36.0652 49.7335 36.0506 49.7539Z" fill="#452F53"/>
<path d="M36.4155 49.9222C36.416 49.8989 36.4153 49.9071 36.4155 49.9222V49.9222Z" fill="#452F53"/>
<path d="M36.4155 49.9228C36.3932 49.9327 36.3727 49.9461 36.3547 49.9625C36.3761 49.9615 36.3973 49.9574 36.4176 49.9503L36.4155 49.9228Z" fill="#452F53"/>
<path d="M35.4356 50.2613C35.4721 50.1836 35.5888 50.1455 35.6258 50.2579C35.7209 50.2209 35.7663 49.9426 35.7584 49.7736C35.7427 49.8068 35.7315 49.839 35.6408 49.8576C35.6493 49.913 35.7714 50.0221 35.6782 50.0722C35.5658 50.0746 35.6082 50.0118 35.5772 49.9504C35.5808 50.0672 35.3998 50.0454 35.3657 50.2009L35.4707 50.1835C35.4587 50.207 35.4193 50.2312 35.4356 50.2613Z" fill="#452F53"/>
<path d="M35.8965 49.8279L35.9308 49.8306C35.8997 49.8051 35.8871 49.7652 35.8631 49.6885C35.7979 49.712 35.7772 49.7363 35.7651 49.7612C35.8122 49.7837 35.8626 49.8021 35.9042 49.8213L35.8965 49.8279Z" fill="#452F53"/>
<path d="M36.0613 49.8712C36.0059 49.9517 35.9199 49.9649 35.9313 50.0737C36.0244 50.0971 36.0205 50.0205 36.0883 50C35.935 49.9747 36.1459 49.9644 36.0576 49.881C36.0864 49.8778 36.1155 49.8801 36.1434 49.8879C36.1213 49.8684 36.1008 49.847 36.0824 49.824C36.0813 49.8369 36.0808 49.844 36.0815 49.8354L36.0645 49.8672C36.0282 49.8355 36.0666 49.8414 36.0815 49.8354L36.0825 49.8226L35.9212 49.824C35.9627 49.8522 36.0112 49.8685 36.0613 49.8712Z" fill="#452F53"/>
<path d="M36.6599 50.5507C36.6583 50.5437 36.6589 50.5364 36.6616 50.5298C36.6497 50.5373 36.6437 50.5424 36.6599 50.5507Z" fill="#452F53"/>
<path d="M36.6153 50.4786C36.6304 50.4698 36.6503 50.4368 36.6818 50.4566C36.7133 50.4764 36.6697 50.5003 36.6615 50.5298C36.6903 50.512 36.7539 50.4898 36.7016 50.4251L36.6879 50.4341C36.6397 50.3801 36.6113 50.3114 36.6072 50.2391C36.5986 50.3189 36.6013 50.3996 36.6153 50.4786Z" fill="#452F53"/>
<path d="M36.3231 50.1946L36.1789 50.1974L36.2158 50.2939L36.2282 50.2474C36.304 50.288 36.306 50.2277 36.3231 50.1946Z" fill="#452F53"/>
<path d="M35.7595 49.7059L35.8081 49.6206L35.6935 49.7222L35.7595 49.7059Z" fill="#452F53"/>
<path d="M35.6024 49.656L35.6389 49.5784L35.5802 49.6096L35.6024 49.656Z" fill="#452F53"/>
<path d="M34.9957 4.45744L35.2485 4.5886C35.1286 4.52282 35.0526 4.48361 34.9957 4.45744Z" fill="#452F53"/>
<path d="M33.214 3.47937L33.1522 3.49741C33.2472 3.5137 33.2904 3.5143 33.214 3.47937Z" fill="#452F53"/>
<path d="M19.5091 29.1762C19.5153 28.7781 19.554 28.3337 19.4713 28.3947C19.4448 28.4386 19.4225 28.4829 19.3998 28.5328C19.455 28.7437 19.4916 28.959 19.5091 29.1762Z" fill="#452F53"/>
<path d="M20.3079 9.3291L20.2424 9.42743L20.2394 9.71496C20.2578 9.59414 20.2811 9.46508 20.3079 9.3291Z" fill="#452F53"/>
<path d="M20.0421 8.93071C20.124 8.77183 20.2116 8.61341 20.2918 8.45728C20.1993 8.61002 20.1159 8.7681 20.0421 8.93071Z" fill="#452F53"/>
<path d="M40.934 13.5319L41.0439 13.8645C41.019 13.3344 40.9813 13.5702 40.934 13.5319Z" fill="#452F53"/>
<path d="M27.0137 44.0114C26.8094 43.7431 26.6387 43.5395 26.4814 43.3671C26.7182 43.6955 26.8846 43.9881 27.0137 44.0114Z" fill="#452F53"/>
<path d="M33.8239 4.9112C33.9713 4.97487 34.0404 4.99195 34.0477 4.9724C33.8949 4.90398 33.8053 4.87373 33.8239 4.9112Z" fill="#452F53"/>
<path d="M25.8431 42.6452C25.8736 42.6951 25.9072 42.7424 25.9388 42.7968C26.0237 42.8856 26.1086 42.9745 26.1944 43.0706C26.2802 43.1668 26.3807 43.2583 26.4811 43.37C26.3947 43.2465 26.2937 43.1247 26.1902 42.9983C26.0871 42.8688 25.9708 42.7504 25.8431 42.6452Z" fill="#452F53"/>
<path d="M9.6995 14.7698C9.68418 14.7455 9.66195 14.7178 9.64796 14.6951C9.63343 14.6968 9.65972 14.7277 9.6995 14.7698Z" fill="#452F53"/>
<path d="M4.90229 4.53419L4.96417 4.73055L5.04725 4.96746C5.02774 4.88819 4.97628 4.75886 4.90229 4.53419Z" fill="#452F53"/>
<path d="M32.8468 48.3534C33.0661 48.4704 32.8862 48.3638 32.8468 48.3534V48.3534Z" fill="#452F53"/>
<path d="M33.7648 49.2286C33.7127 49.2144 33.6701 49.2081 33.6547 49.2198C33.6914 49.2108 33.73 49.2139 33.7648 49.2286Z" fill="#452F53"/>
<path d="M23.8367 41.0273L23.8237 41.009C23.851 41.0817 23.8477 41.0685 23.8367 41.0273Z" fill="#452F53"/>
<path d="M33.153 48.5709C33.0751 48.52 32.9882 48.4554 32.8882 48.3927C32.9733 48.4566 33.0617 48.5161 33.153 48.5709Z" fill="#452F53"/>
<path d="M33.1292 48.5098C33.2036 48.5504 33.2673 48.5814 33.3195 48.6115C33.3555 48.6115 33.3341 48.5911 33.1292 48.5098Z" fill="#452F53"/>
<path d="M32.5438 48.185C32.6679 48.2525 32.7817 48.3221 32.8884 48.3911C32.8491 48.3606 32.8344 48.3465 32.847 48.3504C32.7836 48.3165 32.6926 48.2675 32.5438 48.185Z" fill="#452F53"/>
<path d="M28.2887 23.7351C28.2715 23.7337 28.2515 23.7321 28.2329 23.7306C27.9723 23.7513 28.086 23.7504 28.2887 23.7351Z" fill="#452F53"/>
<path d="M17.9074 22.6957C17.9073 22.7051 17.9065 22.7145 17.9051 22.7238L17.9079 22.6887L17.9074 22.6957Z" fill="#452F53"/>
<path d="M17.8423 21.7711C17.9268 22.0684 17.9506 22.3795 17.9124 22.6862C17.9984 22.5837 18.0858 22.4814 18.1788 22.381L17.8423 21.7711Z" fill="#452F53"/>
<path d="M38.6129 7.71015L38.443 7.40868C38.3861 7.31057 38.3143 7.21989 38.2586 7.12476C38.3381 7.19159 38.4136 7.25523 38.4832 7.31983L38.6651 7.50859L38.9232 7.78838C39.0426 7.91311 39.0584 7.89568 38.905 7.60274C38.8311 7.627 38.6938 7.50946 38.5235 7.3202C38.3531 7.13093 38.1264 6.89107 37.9055 6.65025C37.6986 6.42775 37.4787 6.21784 37.2467 6.02163C37.0467 5.86162 36.8906 5.77999 36.8314 5.81839L36.6883 5.64857L36.5368 5.49248C36.6323 5.575 36.6614 5.57159 36.754 5.65387C36.1748 5.00288 36.1385 5.39997 35.2736 4.74035C34.9664 4.51704 34.7637 4.33667 35.0093 4.44855C34.8822 4.38363 34.7585 4.31179 34.6293 4.2539L34.242 4.07881C34.0291 3.95231 34.1095 3.9372 34.3181 4.06336L34.0326 3.90942C33.936 3.85847 33.8374 3.81455 33.7404 3.76789C33.5448 3.67732 33.353 3.57553 33.1522 3.49604L33.1651 3.49708C32.9747 3.46735 32.5676 3.3583 32.3666 3.31765C32.0753 3.16468 32.5311 3.34673 32.4671 3.28402L31.774 3.10012C31.5253 2.9362 32.1067 3.06073 32.5662 3.25027C32.3952 3.06441 32.1647 2.94406 31.9145 2.90999C31.7947 2.87876 31.6452 2.85952 31.4456 2.80028C31.2461 2.74104 30.9957 2.6518 30.6537 2.52066C30.8774 2.56601 31.0993 2.61555 31.3191 2.67354C31.11 2.52266 30.8752 2.4111 30.6262 2.34433C30.3457 2.25411 30.0299 2.17256 29.6424 2.05357C29.7312 2.09382 30.1084 2.23499 30.353 2.35974C30.5976 2.48448 30.7186 2.59063 30.3304 2.53346C30.0335 2.43303 29.7224 2.38077 29.409 2.37866C29.4172 2.27716 29.0051 2.23101 28.4808 2.20173L28.5252 2.06141C27.9488 2.0711 27.9915 2.14936 27.6496 2.21391C27.0141 2.22459 26.8676 2.15091 26.7004 2.08277C26.1762 2.15997 26.3666 2.171 26.5289 2.1927C26.6104 2.19927 26.6851 2.21824 26.6688 2.24282C26.6524 2.2674 26.5306 2.29644 26.2269 2.36982C25.8356 2.42895 25.4547 2.54362 25.0958 2.71037C24.7023 2.89846 24.331 3.12962 23.9885 3.39961C23.4672 3.69001 24.029 3.27193 23.8293 3.35658C23.6997 3.48283 23.5833 3.62453 23.4645 3.75886C23.3632 3.83846 23.3746 3.78614 23.3796 3.75921C23.0663 4.07643 23.4274 3.88105 22.9492 4.36916C22.9395 4.48925 22.6473 4.6873 22.3241 4.98358C22.001 5.27986 21.6546 5.6678 21.5 6.06831C21.3554 6.22069 21.4832 5.93746 21.4035 5.96269C21.1359 6.48072 21.0441 6.7093 20.9585 6.91393C20.8513 7.18898 20.7595 7.46981 20.6836 7.75511C20.5444 7.9818 20.4109 8.21086 20.2829 8.44228C20.6107 7.94493 20.418 8.67619 20.299 9.31411C20.4138 9.13918 20.5176 8.99358 20.5776 8.89194C20.4767 9.21619 20.3811 9.54519 20.304 9.87712C20.2447 9.98746 20.2311 9.87125 20.2306 9.69854C20.225 9.76859 20.2062 9.84047 20.2025 9.88621C20.0419 10.2186 20.0237 10.0157 20.033 9.74018C20.0994 9.63042 20.1658 9.52065 20.2332 9.41672C20.2387 9.15098 20.2364 8.89466 20.1426 8.91589C20.1219 9.028 20.0943 9.13871 20.0597 9.24735C20.0654 9.1773 20.0576 9.13063 20.0341 9.15464C19.9988 9.25497 19.9796 9.36028 19.9773 9.46662L19.756 9.64161L19.7947 9.71523C19.6227 10.1359 19.4627 10.5619 19.3148 10.9932C19.2637 11.484 19.2524 11.9464 19.2287 12.4726C19.2075 12.7356 19.1936 13.0151 19.1603 13.3218C19.127 13.6285 19.0997 13.9673 19.0448 14.3442C19.003 13.9523 18.8785 14.2301 18.751 14.1867C18.8617 13.9239 18.9228 13.643 18.9315 13.358C18.9698 12.9826 19.031 12.6098 19.1149 12.2418C19.0121 12.6422 18.9699 12.541 18.97 12.4331C18.9134 12.9033 18.8482 13.3729 18.8102 13.8447C18.7093 13.7934 18.6757 14.1216 18.5646 14.4825C18.6979 14.3637 18.6789 14.6356 18.6369 14.9962C18.5949 15.3569 18.5246 15.8361 18.5142 16.126C18.4374 16.1514 18.3803 16.0029 18.5079 15.311C18.2321 16.0557 18.6009 16.3358 18.3805 17.072C18.4071 16.963 18.4108 16.8497 18.3915 16.7391C18.4091 17.1449 18.2436 18.11 18.2078 17.8754L18.2217 17.7039C18.1772 17.9881 18.1542 18.3445 18.1207 18.7246C18.0872 19.1046 18.0577 19.5065 18.0607 19.8809C18.0636 20.2552 18.0574 20.6001 18.0727 20.8574C18.0667 21.0234 18.1003 21.1883 18.1706 21.3387C18.0692 21.2852 17.9822 21.2081 17.9167 21.1139C18.1162 21.7991 18.2964 22.4741 18.5293 23.1375C18.3679 22.9619 18.0111 23.6583 17.8987 22.714C17.8718 23.108 17.8838 23.5037 17.9344 23.8953C17.9495 23.708 18.1506 23.4264 18.1706 23.6784C18.1177 23.8788 18.0825 24.0835 18.0652 24.29C18.0537 24.433 18.0409 24.5917 18.0059 25.0263C18.0284 24.7475 18.2926 25.0393 18.3066 25.4735C18.2658 25.4084 18.066 25.5304 18.027 25.3719C18.1291 25.7298 18.2575 26.0826 18.373 26.4358C18.3023 26.1696 18.1636 26.4088 18.1218 26.6601C18.1395 26.6011 18.1608 26.8374 18.1895 27.1232C18.2183 27.4089 18.269 27.744 18.3022 27.8862L18.2909 27.4191C18.3268 27.8328 18.4408 28.236 18.6268 28.6073C18.8243 28.9678 18.9577 29.3597 19.0213 29.7658C18.9458 29.6316 18.6525 29.467 18.7394 30.0855C18.8314 30.2124 19.0509 30.4876 19.2866 30.849C19.4056 31.0327 19.5256 31.2395 19.643 31.462C19.7727 31.6885 19.8859 31.9241 19.9819 32.167L19.9645 32.3828L20.1151 32.7633C20.1653 32.8911 20.2259 33.014 20.2805 33.1393C20.016 32.7891 19.7745 32.4222 19.5575 32.0407C19.2919 31.6061 19.0552 31.1544 18.8491 30.6886C18.9009 31.1532 18.7976 30.8284 18.9643 31.5094C18.9567 31.765 18.7791 31.165 18.7276 30.9652C18.7853 31.2303 18.8286 31.4971 18.901 31.759L19.1023 32.5465C19.1628 32.4924 19.2821 32.7797 19.3999 33.0683C19.5176 33.357 19.6604 33.639 19.7074 33.5909C19.4627 33.0561 19.2655 32.5035 19.0535 31.9555C19.1139 31.9028 19.2822 32.1178 19.4714 32.4841C19.569 32.6661 19.6575 32.8891 19.7679 33.1267C19.8784 33.3785 19.9754 33.6361 20.0582 33.8984C20.0967 34.1892 19.7457 33.7768 19.7082 33.814C19.8072 33.9939 19.8922 34.1811 19.9623 34.3741C20.043 34.5498 20.1116 34.7308 20.1676 34.9158L19.9142 34.4896C20.0058 34.7623 20.1297 35.023 20.2833 35.2662C20.3556 35.3927 20.4205 35.5234 20.4777 35.6574C20.5065 35.7288 20.5348 35.8059 20.5599 35.887C20.585 35.9682 20.6155 36.0541 20.6396 36.1481C20.7409 36.3908 20.7984 36.9451 20.8958 36.9515C20.8642 36.4857 21.2983 36.2055 21.5265 36.4095C21.5433 36.4512 21.6406 36.7799 21.7563 37.1288C21.8721 37.4777 22.0149 37.8489 22.0473 37.9997C22.1343 38.4384 21.4747 37.5708 21.5466 37.9464C21.588 37.9498 21.743 38.1335 21.8042 38.2132C21.9026 38.4744 21.6407 38.1713 21.9396 38.6947C22.1197 38.7092 22.5552 39.7515 22.1939 38.8777C22.5321 39.3597 22.4815 39.4333 22.8503 40.017C22.8085 39.7863 23.4663 40.3544 23.8221 40.8147C23.772 40.8107 23.8116 40.9448 23.8236 41.0105C24.1716 41.4947 24.4364 41.87 24.6913 42.2416C24.9463 42.6132 25.2346 42.9458 25.5929 43.3747C25.626 43.4824 25.9708 43.8987 25.7649 43.7756C25.9485 43.8984 26.1189 44.04 26.2734 44.1979C26.6415 44.7729 25.729 43.6504 25.9684 44.1258C26.014 44.1137 26.1896 44.2559 26.4 44.4484C26.5063 44.539 26.6155 44.6485 26.7332 44.7414C26.8509 44.8343 26.9643 44.9269 27.0633 45.0025C27.0365 44.9205 26.9882 44.847 26.9236 44.7898C26.8415 44.7012 26.7273 44.5999 26.6115 44.4841C26.3749 44.2593 26.0936 44.0179 25.9041 43.8516C25.971 43.7893 26.1895 43.8818 26.4896 44.0858C26.6427 44.1859 26.8117 44.3204 27.0072 44.4656C27.2027 44.6109 27.4141 44.7732 27.6439 44.9572C28.3398 45.5529 27.8538 45.3166 27.9876 45.4065C28.369 45.7643 28.797 46.0688 29.26 46.3119C29.6684 46.4959 30.0414 46.75 30.3622 47.0626C30.4246 47.1236 30.4754 47.1954 30.512 47.2747C30.5218 47.3143 30.4974 47.331 30.4622 47.3397C30.3887 47.3583 30.2767 47.3377 30.3041 47.409C30.0467 47.2396 29.8031 47.0501 29.5756 46.8424L29.2977 46.5941L29.0177 46.3543C29.1621 46.5098 29.3259 46.6367 29.4799 46.78C29.3342 46.7006 29.1933 46.6129 29.0579 46.5172C28.9186 46.4131 28.7873 46.2986 28.6653 46.1748C28.8157 46.3469 28.9817 46.5048 29.1611 46.6464C29.4129 46.8437 29.7276 47.0805 30.0641 47.3335C30.229 47.4648 30.4124 47.5818 30.5942 47.7014L31.1406 48.0634C31.4888 48.3131 31.8394 48.5154 32.1194 48.702C32.3471 48.7865 32.7236 48.9536 32.5764 48.8165L32.2006 48.6222C31.9089 48.3498 32.9538 48.9002 32.5104 48.5997C32.6413 48.6534 32.7764 48.7089 32.917 48.7677C33.0576 48.8265 33.2079 48.8717 33.3599 48.9315C33.6947 49.0579 34.0192 49.21 34.3305 49.3866L34.4157 49.5618C34.2162 49.4131 33.9951 49.2959 33.7602 49.2141C33.8654 49.2518 33.9661 49.3009 34.0606 49.3606C34.1773 49.4304 34.3073 49.5143 34.447 49.5831C34.7233 49.7262 35.0006 49.8564 35.2059 49.8442L34.7244 49.5522C34.8651 49.5908 35.0062 49.6252 35.16 49.6635C35.1986 49.6666 35.2362 49.6826 35.2743 49.6914C35.29 49.6927 35.2915 49.6928 35.3007 49.6849C35.31 49.677 35.329 49.6728 35.3438 49.6683C35.3665 49.6575 35.3917 49.6528 35.4168 49.6549C35.4419 49.6569 35.466 49.6655 35.4868 49.6798C35.4983 49.5368 35.4603 49.6863 35.4509 49.5172C35.4429 49.6172 35.3873 49.5926 35.3345 49.5697C35.2816 49.5467 35.1951 49.5138 35.1308 49.4899C35.0485 49.4574 34.9771 49.433 34.9279 49.4189C34.8265 49.392 34.8092 49.4094 34.9497 49.5228C34.7633 49.3704 34.5586 49.2417 34.3403 49.1399C34.0948 49.0103 33.8614 48.8591 33.6428 48.688C33.6389 48.7367 33.8157 48.8646 33.3023 48.593C33.2577 48.5899 33.2135 48.583 33.1701 48.5723L33.1358 48.5522L33.1631 48.5703C33.1374 48.5682 33.1345 48.568 33.1725 48.5782C33.2596 48.6304 33.3396 48.6934 33.4107 48.7657C33.094 48.7489 32.2997 48.2676 31.9902 48.1621C31.6976 47.9716 32.1419 48.1901 31.9987 48.0563C31.8491 48.0025 31.698 47.9486 31.5556 47.8767C31.5644 47.7681 30.8704 47.2373 31.5823 47.6343L30.9716 47.2311C30.6194 46.93 30.2488 46.6513 29.8619 46.3964C29.7225 46.2872 29.5732 46.1913 29.4158 46.1101C29.298 46.0373 29.2469 46.0101 29.3854 46.0774L28.485 45.412L28.4871 45.3863C28.2669 45.2074 28.0585 45.0079 27.835 44.8172C27.6116 44.6265 27.3887 44.4273 27.163 44.2292C26.9372 44.0312 26.7318 43.7945 26.5233 43.5604C26.4177 43.4426 26.3151 43.3221 26.2143 43.1988C26.1146 43.0706 26.0216 42.9373 25.9357 42.7994C25.8029 42.6607 25.6702 42.5219 25.5155 42.3526C25.3326 42.155 25.1649 41.9438 25.0139 41.7208L25.0039 41.5761C24.8449 41.3892 24.6409 41.0821 24.4511 40.8121C24.2613 40.5422 24.1128 40.2784 24.0155 40.2173C23.9642 39.9254 23.6302 39.4453 23.3089 38.8971C23.1437 38.6262 22.9597 38.3552 22.8081 38.0941C22.6565 37.833 22.5297 37.5853 22.4331 37.3905L22.3206 37.4116C22.0376 36.8881 21.794 36.3749 21.4423 35.7221L21.3726 35.8014C21.2788 35.6456 21.2019 35.4802 21.1433 35.3081C21.072 35.1211 21.0023 34.914 20.9306 34.6967C20.7756 34.2641 20.657 33.771 20.4896 33.2942C20.5738 33.4426 20.6299 33.6051 20.6553 33.7738C20.6074 33.4679 20.5304 33.1674 20.4255 32.8761C20.3299 32.5806 20.2285 32.2847 20.1186 31.988C19.8877 31.4381 19.733 30.8593 19.6586 30.2675C19.6146 30.1546 19.5801 30.0383 19.5557 29.9196C19.5388 29.8201 19.5272 29.7197 19.5209 29.619C19.5257 29.6409 19.5316 29.6625 19.5387 29.6837L19.5189 29.5728C19.5128 29.4514 19.5085 29.3259 19.4992 29.1913C19.4959 29.2991 19.4988 29.4069 19.5078 29.5143C19.4668 29.3081 19.3956 28.9959 19.3122 28.6913L19.3904 28.5422L19.373 28.4718C19.3663 28.1619 19.2885 28.2347 19.2341 28.4102C19.2013 28.2743 19.1607 28.1403 19.1125 28.009C19.2456 27.732 18.9317 27.1988 19.0716 26.8374C18.9655 26.636 18.8363 25.2745 18.6606 25.1164C18.6846 25.104 18.6892 25.0108 18.7015 25.1802C18.7135 24.8408 18.6887 24.5011 18.6277 24.167L18.751 24.0115L18.5549 23.2489C18.6229 22.7795 18.6657 22.5873 18.7782 23.0481C18.7176 22.7209 18.6794 22.39 18.6638 22.0576C18.6485 21.7658 18.6171 21.4751 18.5699 21.1867L18.6537 21.2366C18.6522 20.8969 18.5814 20.3473 18.6523 20.1458C18.7445 19.7691 18.8172 18.831 18.9319 17.7467C19.0398 16.6498 19.2236 15.5617 19.482 14.4902C19.1679 14.8174 19.7565 13.6187 19.5815 13.5054C19.6628 13.4069 19.7542 13.148 19.7372 13.4661C19.8927 12.4815 20.1409 12.0266 20.1524 11.3297C20.2391 11.236 20.1832 11.5552 20.2435 11.468C20.2491 11.3283 20.2801 11.1909 20.3351 11.0624C20.3954 10.9752 20.3451 11.2071 20.3304 11.3714C20.5824 10.4046 20.4561 10.2577 20.3106 10.1338C20.5065 9.80142 20.6219 9.42783 20.6475 9.04289C20.7644 8.89547 20.9245 8.64073 20.7199 9.23291C20.785 9.06836 20.9974 8.57466 21.2081 8.12111C21.4187 7.66756 21.618 7.2649 21.5687 7.21632C21.6341 7.13992 21.6892 7.05537 21.7329 6.96479C21.7795 6.88168 21.822 6.79625 21.86 6.70883C22.0681 6.37595 22.1884 6.20434 22.3173 6.03342C22.4461 5.8625 22.573 5.68134 22.8098 5.3853C22.7583 5.4344 22.7056 5.48195 22.6539 5.5339C22.7215 5.19545 23.0341 5.01199 23.476 4.58139L23.4739 4.60712C23.7561 4.39099 23.9325 4.27283 24.0529 4.189C24.1734 4.10517 24.2289 4.05928 24.2874 4.01076C24.3619 3.94881 24.4424 3.89455 24.5278 3.84883C24.7316 3.73631 24.9453 3.64274 25.1662 3.56931L25.0547 3.50708C25.0597 3.44418 25.1377 3.38715 25.2617 3.33094C25.4223 3.27027 25.5883 3.22487 25.7575 3.19534C26.1583 3.11396 26.6329 3.08168 27.0315 2.99148C26.9329 2.98354 26.8342 2.97559 26.7356 2.96765C26.9488 2.89273 27.2708 2.93306 27.5797 3.00974C27.8886 3.08643 28.1872 3.20257 28.4031 3.21996C28.496 3.24472 28.2575 3.24132 28.1214 3.25194C28.6795 3.34295 28.7169 3.32581 28.7229 3.26874C28.7289 3.21167 28.7007 3.13314 29.1291 3.17341C29.2739 3.26996 28.9042 3.3222 29.4655 3.42785C29.605 3.48225 30.0181 3.49826 30.4994 3.57876C30.7466 3.61823 30.9911 3.67301 31.2316 3.74278C31.4528 3.80123 31.6654 3.8885 31.8639 4.00236C31.7191 3.88853 31.5729 3.77459 31.9675 3.87689C32.0418 3.90158 32.1213 3.93244 32.2034 3.96783C32.2854 4.00322 32.368 4.05016 32.4549 4.09601C32.6271 4.1919 32.8123 4.28596 32.9892 4.39374C33.1583 4.49847 33.3326 4.59463 33.5114 4.68185C33.6582 4.76221 33.8148 4.82319 33.9773 4.86327C34.0393 4.91575 34.0573 4.94309 34.0532 4.95716C34.1074 4.98167 34.1698 5.01115 34.2377 5.04253C34.3057 5.0739 34.3755 5.11838 34.45 5.15891L34.9223 5.42143C35.1607 5.57708 35.4096 5.71589 35.6673 5.83684C35.6993 5.97611 35.8634 6.15337 36.0899 6.34284C36.1983 6.44366 36.3206 6.55136 36.4514 6.65974L36.6501 6.81963C36.7148 6.87377 36.7847 6.93408 36.8422 6.98907L37.2084 7.3193C37.3191 7.4275 37.4142 7.53301 37.4927 7.62998C37.6476 7.81513 37.729 7.9483 37.6615 8.00042L38.0924 8.58048L38.4974 9.18002L38.4482 9.16599C38.9 9.96931 39.0811 10.24 39.2972 10.5049C39.3537 10.7138 39.2696 10.579 39.2473 10.57L39.3911 11.0003L39.4652 11.1875C39.4835 11.2466 39.4963 11.3023 39.5108 11.3538C39.5686 11.5657 39.6239 11.7356 39.6772 11.8967C39.7304 12.0578 39.7649 12.2189 39.8283 12.3967C39.8569 12.4882 39.9007 12.5867 39.9296 12.6926L40.0328 13.0722L39.9413 13.2087C39.9577 13.265 39.9689 13.3228 39.9749 13.3812C39.9788 13.4578 39.9797 13.5528 39.979 13.6693C39.9828 13.9364 39.9719 14.2036 39.9462 14.4696C39.9154 15.0844 39.7767 15.8056 39.6992 16.4641C39.689 16.4475 39.6827 16.4182 39.6855 16.3119C39.656 16.5026 39.6158 16.6916 39.5651 16.8778C39.5171 17.0745 39.4534 17.2672 39.3748 17.4538L39.2617 17.7325C39.2225 17.8272 39.1708 17.9151 39.1258 18.0093L38.9879 18.2745C38.9461 18.3618 38.8989 18.4464 38.8466 18.5279C38.7458 18.6895 38.6513 18.8445 38.5674 18.9932C38.4834 19.1418 38.3842 19.2662 38.315 19.393C38.2514 19.504 38.1942 19.6185 38.1435 19.736C38.0981 19.8235 38.0699 19.919 38.0604 20.0171L37.9259 20.2221C37.8829 20.2919 37.8352 20.3587 37.7832 20.4221L37.4744 20.8073C37.9305 20.362 37.9371 20.423 37.8649 20.551C37.7927 20.679 37.6661 20.8933 37.8769 20.7232C37.7833 20.8256 37.6842 20.9228 37.5801 21.0144C37.4863 21.0941 37.3842 21.1636 37.2756 21.2215C37.1081 21.3174 37.0494 21.3141 37.2848 21.1072L37.3722 21.0581C37.3837 20.9151 37.0765 21.1566 36.7454 21.4091C36.5693 21.5229 36.3886 21.6408 36.2511 21.7218C36.1136 21.8028 36.0075 21.8345 35.9984 21.8036C34.9244 22.4365 33.703 22.7554 32.4916 22.9139C31.8858 22.9914 31.2764 23.0384 30.6659 23.0546C30.5146 23.0568 30.363 23.0633 30.212 23.0627L29.7592 23.0564C29.4589 23.0509 29.1588 23.0613 28.8613 23.0388L29.1357 23.2048L28.3006 23.1576C28.0829 23.1099 28.0154 23.0196 28.6083 23.0544C28.4057 23.0091 28.1964 23.002 27.9912 23.0334C27.8545 23.0359 27.7187 23.0569 27.5876 23.0959C26.4333 22.9209 28.0577 22.9582 27.7011 22.9194L27.2193 22.8806L27.3264 22.9094C27.1282 22.9222 27.0185 22.945 26.868 22.9545C26.6366 22.9558 26.4055 22.9343 26.1782 22.8903C25.7342 22.7941 25.9642 22.7608 25.7883 22.7294C25.7892 22.7179 25.7325 22.7076 25.5206 22.6761C25.1798 22.6026 24.8368 22.5376 24.4964 22.4584C24.6228 22.5333 24.7531 22.5942 24.8814 22.6635C24.7662 22.6563 24.6515 22.6432 24.5377 22.6243C24.433 22.6029 24.341 22.584 24.2773 22.5702C24.151 22.5485 24.1344 22.5587 24.3583 22.6904C24.0796 22.5532 23.7874 22.4452 23.4864 22.3684C23.2915 22.3052 23.0782 22.2377 22.858 22.1667C22.6378 22.0957 22.4067 22.0354 22.1829 21.9555C21.9591 21.8756 21.7362 21.8029 21.5262 21.7299C21.4212 21.6941 21.3189 21.66 21.2209 21.6262L20.9419 21.5174C20.7013 21.4291 20.4654 21.3285 20.2352 21.2158C19.9147 21.1245 19.6003 21.0132 19.2937 20.8824C19.1286 20.8163 18.967 20.7418 18.8095 20.6592L18.2982 20.3979C18.4649 20.5077 18.5076 20.6925 17.895 20.3654C18.254 20.2317 16.836 19.6513 16.4794 19.165C16.5683 19.2585 16.5061 19.2449 16.3734 19.1781C16.3069 19.1454 16.2229 19.0983 16.1293 19.0462C16.0357 18.994 15.9415 18.9303 15.8441 18.8707C15.4577 18.6309 15.0951 18.4161 15.3661 18.7142C14.8986 18.3729 15.3946 18.61 15.0754 18.3037C13.8839 17.6077 12.7164 16.4186 11.5008 15.2545C11.4555 15.2624 11.6128 15.5067 11.3184 15.2859L10.8197 14.4917C10.584 14.2569 10.4536 14.4104 10.1439 13.8617C10.1773 13.9464 10.2275 14.0742 10.0691 13.9147C9.93764 13.7602 9.80792 13.5843 9.68597 13.4191L9.29428 12.9227L8.54111 11.9124C8.30158 11.5636 8.05432 11.2214 7.81787 10.8699L7.47252 10.3342C7.35888 10.1552 7.24083 9.97738 7.13633 9.79198C6.26543 8.33185 5.55049 6.75766 5.18208 5.11499C5.25932 5.56727 5.15551 5.28408 5.04062 4.9597C5.09626 5.18002 4.94946 4.98402 4.91591 5.04319C4.85668 4.81395 4.81649 4.58049 4.77487 4.34691L4.64956 3.6519C4.54874 3.54594 4.46173 3.1792 4.37666 2.82414C4.29159 2.46907 4.23442 2.12489 4.14993 2.06628L4.25834 2.50669C4.12965 2.22868 4.06845 2.45254 4.03959 2.73943C4.01072 3.02632 3.98788 3.38133 3.87992 3.364C3.96326 3.54156 4.02311 3.72922 4.05798 3.92224C4.10561 4.13472 4.14117 4.37212 4.18283 4.62297C4.20581 4.74857 4.22558 4.87822 4.25547 5.00725C4.28537 5.13628 4.32539 5.26469 4.36815 5.39476C4.4508 5.6625 4.56913 5.9179 4.71995 6.15405C4.7722 6.39856 4.57987 5.98161 4.57871 6.12109C4.76862 6.35366 4.90455 6.66678 5.11072 7.26902L5.06055 7.21318C5.24961 7.61691 5.40411 7.96749 5.54913 8.29285C5.69415 8.61822 5.84897 8.91127 5.98748 9.21021C6.28166 9.80946 6.58961 10.4343 7.11429 11.2982L7.12165 11.1175C7.3347 11.4915 7.37302 11.5694 7.46265 11.7608C7.667 11.9211 7.4973 11.67 7.32507 11.4144C7.15285 11.1588 7.00249 10.8819 7.19215 11.0282C7.21833 11.1255 7.2541 11.2199 7.29894 11.3102C7.35332 11.421 7.42394 11.5447 7.51376 11.68C7.60358 11.8153 7.69271 11.9592 7.79294 12.1082L7.9459 12.335L8.11077 12.5569C8.33312 12.8511 8.5438 13.1472 8.71444 13.3868C8.85226 13.5485 8.95833 13.7348 9.02706 13.9358C9.44893 14.4503 8.99344 13.71 9.41543 14.2232L9.48499 14.3957L9.65766 14.4672C9.93884 14.7992 10.0264 15.0163 9.99759 15.0701C9.9309 14.987 9.78463 14.8558 9.70484 14.7746C9.80038 14.9089 9.90337 15.0378 10.0133 15.1606C10.132 15.2953 10.2713 15.4231 10.3982 15.5455C10.6548 15.7892 10.8813 15.996 10.9412 16.0742L10.5213 15.5886C10.6856 15.7457 10.8528 15.903 11.0233 16.0736L11.5591 16.5672L11.8264 16.8204L12.1089 17.0647L12.6752 17.5549C12.8667 17.7142 13.0653 17.8741 13.2607 18.0208C13.4561 18.1675 13.6461 18.3281 13.8468 18.4623C14.2218 18.7337 14.6107 18.9855 15.0119 19.2166L14.929 19.1034C15.5078 19.4378 15.7179 19.5986 15.9537 19.7615C16.0693 19.8442 16.1881 19.9243 16.3629 20.0405C16.4476 20.0963 16.5448 20.1574 16.6601 20.2271C16.7753 20.2968 16.9163 20.3686 17.0735 20.4532L17.0216 20.4375C17.1614 20.4876 17.32 20.5551 17.4878 20.6333C17.6556 20.7116 17.8294 20.8047 18.0079 20.8939C17.6502 20.7788 18.5821 21.3028 18.1188 21.1417C18.4543 21.2824 18.6645 21.3699 18.8056 21.423C18.8973 21.4559 18.9914 21.4823 19.087 21.5017C19.3089 21.5261 19.5288 21.5664 19.7449 21.6224L19.915 21.78C20.2775 21.819 20.6323 21.9116 20.9677 22.0547C20.3873 21.9 21.3591 22.3395 20.7031 22.1773C21.0035 22.3366 21.3181 22.4674 21.6429 22.5681C21.7831 22.6139 21.9236 22.6555 22.0446 22.6897C22.1656 22.7239 22.2947 22.7472 22.4091 22.7737C22.8676 22.8696 23.2156 22.961 23.5289 23.1618C23.9006 23.1385 23.5825 23.0323 23.2266 22.9317C22.8707 22.831 22.4772 22.7144 22.6734 22.7432C22.5246 22.6621 22.6798 22.6646 22.9198 22.704C23.0418 22.7254 23.1874 22.7573 23.3301 22.7903C23.4658 22.8153 23.6001 22.8472 23.7325 22.8861C23.9745 22.9663 24.2071 23.0724 24.4264 23.2024C24.8292 23.3844 25.2544 23.5121 25.6908 23.582C25.5687 23.5621 25.5572 23.5798 25.4364 23.5615C25.6629 23.62 25.8952 23.6537 26.129 23.6619C26.3889 23.6805 26.6465 23.7225 26.8988 23.7872C27.2307 23.6859 27.6349 23.8666 27.7395 23.711C27.3635 23.6807 26.9845 23.6704 26.609 23.6343C27.2557 23.662 27.8646 23.534 28.9086 23.6671C28.706 23.7089 28.5004 23.7342 28.2938 23.7427C28.6009 23.8063 28.8895 23.7432 29.2073 23.799C29.1611 23.8903 28.8152 23.8797 28.3948 23.8645C27.9744 23.8494 27.4831 23.804 27.131 23.8347C27.373 23.881 27.6194 23.9009 27.8658 23.8939C28.1077 23.8918 28.2658 23.8944 28.0863 23.9793C28.3437 23.8734 28.647 23.8949 28.9942 23.9258C29.3797 23.9637 29.7687 23.9466 30.1494 23.8749L30.0964 23.9786C30.2285 23.9648 30.5037 23.9064 30.7476 23.8972L30.3039 24.0471C30.981 23.9117 31.631 24.0777 32.2874 23.9306C32.0751 23.9636 31.8606 23.9814 31.6457 23.984C31.5428 23.9757 31.5264 23.9643 31.5353 23.9434C31.5546 23.9004 31.6701 23.842 31.3778 23.8271C32.2134 23.6887 32.4597 23.7028 32.7401 23.7412C32.9122 23.7654 33.0864 23.7707 33.2597 23.7571C33.6054 23.7258 33.9463 23.6543 34.2755 23.544C34.0233 23.6373 33.3011 23.7259 33.6966 23.5851L34.2808 23.4782C34.4753 23.4392 34.6548 23.4076 34.7709 23.3954C35.985 22.9176 34.5493 23.3775 35.0464 23.1197C35.2331 23.1044 35.4117 23.0364 35.5614 22.9238L35.7938 22.754C35.8913 22.6788 35.993 22.6091 36.0984 22.5455L36.1501 22.636C36.3164 22.5544 36.443 22.4826 36.5412 22.4257C36.6149 22.3775 36.6855 22.3245 36.7525 22.2672C36.8132 22.2221 36.8604 22.1612 36.889 22.0911C36.9115 22.0299 36.9502 21.9758 37.0009 21.9347C37.0398 21.8975 37.1018 21.8608 37.1761 21.7963C37.2503 21.7318 37.3529 21.6551 37.4832 21.5563L37.3203 21.7921C37.2666 21.8726 37.2071 21.9491 37.1421 22.0209C37.2344 21.9499 37.3222 21.8734 37.4052 21.7917L37.651 21.5453L37.6176 21.7268C37.8894 21.4609 38.0425 21.2574 38.215 21.0814C38.2986 20.9903 38.3941 20.9116 38.4846 20.8067L38.8013 20.448C38.7185 20.4931 38.6983 20.4397 38.7466 20.3227C38.8437 20.117 38.9558 19.9188 39.0822 19.7296C39.2293 19.5645 39.2169 19.6282 39.2334 19.6382C39.2499 19.6482 39.2932 19.6099 39.5032 19.2009C39.4836 19.3192 39.4526 19.4352 39.4105 19.5474C39.3365 19.6969 39.2338 19.8304 39.1083 19.9404C39.1141 19.9941 39.0469 20.1498 39.0511 20.2048C39.2355 19.9948 39.3984 19.7669 39.5375 19.5246L39.8527 18.8809C39.7941 18.9881 39.7286 19.0915 39.6566 19.1903L39.7867 18.8784L39.8958 18.5606L39.9992 18.2408L40.0495 18.0809L40.0871 17.9184C40.194 17.7342 40.1675 17.9019 40.1413 18.0667C40.2185 17.8053 40.2467 17.6162 40.3522 17.2347C40.407 17.3586 40.4991 17.3588 40.3465 17.9134C40.3994 17.7033 40.4668 17.4914 40.5078 17.2861L40.6278 16.654C40.6911 16.5829 40.8496 16.0258 40.8531 16.1973C40.9545 15.8487 40.9545 15.4026 40.9548 14.935C40.9421 14.6994 40.9297 14.4596 40.9266 14.2133C40.9234 13.967 40.8977 13.7318 40.9055 13.4921C40.8746 13.3794 40.8501 13.265 40.8324 13.1495C40.8097 12.9304 40.7926 12.7147 40.7753 12.5003C40.7581 12.286 40.7103 12.0749 40.6717 11.8574C40.6303 11.6334 40.5711 11.4131 40.4946 11.1985C40.4576 11.0862 40.4194 10.9709 40.3783 10.8553C40.3373 10.7398 40.27 10.6279 40.2088 10.5122C40.182 10.31 40.1657 10.1015 40.1141 9.90164C39.9208 9.53354 39.9655 9.74578 39.972 9.88012C39.9784 10.0145 39.9545 10.0974 39.6456 9.5013C39.1442 8.68823 39.5866 9.12675 39.4582 8.80992L39.3267 8.65544C39.2777 8.60258 39.2277 8.5453 39.1736 8.48483C39.0652 8.3653 38.9494 8.23079 38.8332 8.0833C38.717 7.93581 38.5778 7.78933 38.4546 7.62113C38.3315 7.45294 38.2028 7.28142 38.0825 7.09618C38.1791 7.18919 38.2706 7.28734 38.3567 7.39022C38.4522 7.5087 38.5265 7.6039 38.6129 7.71015ZM30.3458 2.53901C30.5388 2.55456 30.9269 2.59446 31.0526 2.69524C30.8025 2.7456 30.6566 2.64607 30.3458 2.53901ZM19.6831 10.6185C19.7102 10.4215 19.7744 10.2314 19.8721 10.0582C19.8215 10.2489 19.7584 10.4361 19.6831 10.6185ZM30.4861 46.9891C30.4799 46.9882 30.4737 46.9877 30.4675 46.9876C30.165 46.7057 30.265 46.8044 30.4861 46.9891ZM31.1648 47.4942C31.2441 47.5279 31.2468 47.5123 31.2248 47.4817C31.0814 47.4216 30.9469 47.342 30.8252 47.2452C30.9157 47.3556 31.0317 47.4425 31.1631 47.4983L31.1648 47.4942ZM25.6771 22.7348L25.8355 22.7864C25.4601 22.7662 25.5681 22.7476 25.6753 22.739L25.6771 22.7348Z" fill="#452F53"/>
<path d="M20.0739 8.98213C20.093 8.95364 20.1225 8.93379 20.1561 8.92688C20.1622 8.85111 20.1442 8.84247 20.0739 8.98213Z" fill="#452F53"/>
<path d="M40.913 13.4711L40.9106 13.5011C40.9147 13.5128 40.9218 13.5233 40.9311 13.5315L40.913 13.4711Z" fill="#452F53"/>
<path d="M21.6736 38.2992C21.623 38.1926 21.5838 38.0809 21.5566 37.966C21.5318 37.9698 21.5511 38.0519 21.6736 38.2992Z" fill="#452F53"/>
<path d="M35.1861 49.3937L34.6749 49.2202C34.8264 49.2764 34.972 49.3474 35.1096 49.4322C35.1123 49.3993 35.0298 49.3337 35.1861 49.3937Z" fill="#452F53"/>
<path d="M35.7519 50.3012C35.767 50.2923 35.7762 50.3031 35.789 50.3042L35.8028 50.2578C35.7567 50.2411 35.7115 50.2663 35.7519 50.3012Z" fill="#452F53"/>
<path d="M35.2964 49.8099C35.2709 49.8942 35.3264 49.8842 35.3822 49.8887C35.3788 49.8893 35.3754 49.889 35.3722 49.8879C35.43 49.7775 35.3639 49.7937 35.2964 49.8099Z" fill="#452F53"/>
<path d="M35.3935 49.8909C35.4105 49.8916 35.427 49.8969 35.4412 49.9062C35.4637 49.8591 35.4253 49.8891 35.3935 49.8909Z" fill="#452F53"/>
<path d="M32.1001 48.0126C32.2455 48.1193 32.2474 47.9698 32.3244 48.0509C32.4393 48.0529 32.1639 47.9358 31.969 47.8711C31.8708 47.8402 31.7933 47.8196 31.7965 47.8342C31.7996 47.8489 31.88 47.9043 32.1001 48.0126Z" fill="#452F53"/>
<path d="M35.2333 50.0938L35.2535 49.9861L35.1946 50.0562L35.2333 50.0938Z" fill="#452F53"/>
<path d="M32.9665 48.9932L33.5083 49.2873C33.5099 49.2672 33.5827 49.2932 33.6721 49.3263C33.326 49.1575 32.9621 48.9584 32.9665 48.9932Z" fill="#452F53"/>
<path d="M33.6592 49.3253C33.8057 49.4014 33.957 49.4679 34.1122 49.5243C34.0224 49.4783 33.8143 49.3824 33.6592 49.3253Z" fill="#452F53"/>
<path d="M34.9211 50.0041L34.7599 49.9148L34.3577 49.7457L34.9211 50.0041Z" fill="#452F53"/>
<path d="M27.6022 45.1537L27.0923 44.7141C27.0177 44.6937 27.1343 44.8355 27.327 44.9978C27.4621 45.0892 27.6563 45.2502 27.6022 45.1537Z" fill="#452F53"/>
<path d="M28.9514 46.7143C28.8786 46.6391 28.8185 46.5526 28.7734 46.4582L28.6741 46.5481L28.9514 46.7143Z" fill="#452F53"/>
<path d="M27.4336 45.4426C27.3589 45.4236 26.6418 44.8406 27.2749 45.4298C27.3524 45.4504 27.8663 45.8947 27.4336 45.4426Z" fill="#452F53"/>
<path d="M21.5117 37.2012L21.5931 37.3517L21.7768 37.2327L21.5117 37.2012Z" fill="#452F53"/>
<path d="M18.2956 28.7721C18.3947 29.5786 18.4636 28.9367 18.5356 29.6691C18.6222 29.8445 18.4772 29.0716 18.5575 29.2536C18.4126 28.7844 18.3959 28.5269 18.2956 28.7721Z" fill="#452F53"/>
<path d="M18.5575 29.2536C18.5803 29.3289 18.6069 29.4087 18.6362 29.4916C18.6147 29.4108 18.5885 29.3313 18.5575 29.2536Z" fill="#452F53"/>
<path d="M4.55045 2.72149L4.51582 2.47265L4.49297 2.22044C4.4841 2.33052 4.475 2.44346 4.48198 2.55338L4.55045 2.72149Z" fill="#452F53"/>
<path d="M4.20561 1.80448L4.32148 1.66993L4.13858 1.38612C4.1804 1.52175 4.20296 1.66258 4.20561 1.80448Z" fill="#452F53"/>
<path d="M28.9127 2.00339L28.8672 2.03139C29.0158 2.08711 29.1713 2.12191 29.3294 2.13481C29.1922 2.08779 29.0533 2.0435 28.9127 2.00339Z" fill="#452F53"/>
<path d="M35.631 4.7159L35.5321 4.6403L35.648 4.87986L35.631 4.7159Z" fill="#452F53"/>
<path d="M39.8652 9.15208C39.8037 9.03921 39.7312 8.92114 39.6573 8.80295C39.5834 8.68476 39.5124 8.56537 39.4418 8.45897C39.5144 8.55945 39.5757 8.66766 39.6245 8.7816C39.6684 8.8801 39.7018 8.96482 39.7281 9.03168C39.7822 9.1641 39.8122 9.21976 39.8652 9.15208Z" fill="#452F53"/>
<path d="M26.8412 53.3142C26.8105 53.3031 26.8118 53.3939 26.8048 53.4092C26.8563 53.3946 26.8431 53.2914 26.8412 53.3142Z" fill="#452F53"/>
<path d="M27.3952 53.1718L27.3808 53.2081L27.4693 53.1274L27.3952 53.1718Z" fill="#452F53"/>
<path d="M27.8897 53.2306C27.8593 53.0727 27.7067 53.2345 27.6255 53.1705L27.6141 53.1336L27.5613 53.2531C27.6699 53.2445 27.819 53.1803 27.8897 53.2306Z" fill="#452F53"/>
<path d="M28.1174 53.5841C28.1079 53.5229 28.1801 53.5388 28.0577 53.5577L28.0678 53.5744C28.0847 53.5756 28.1013 53.5789 28.1174 53.5841Z" fill="#452F53"/>
<path d="M28.0675 53.58C28.0159 53.5758 28.0942 53.6327 28.0675 53.58V53.58Z" fill="#452F53"/>
<path d="M28.3111 53.5724L28.2369 53.6182C28.2469 53.655 28.3076 53.6699 28.2828 53.6924C28.3564 53.671 28.345 53.6341 28.3111 53.5724Z" fill="#452F53"/>
<path d="M28.3891 53.4619L28.3524 53.4801C28.3563 53.5016 28.3642 53.5079 28.3891 53.4619Z" fill="#452F53"/>
<path d="M28.2703 53.5259L28.3512 53.4864C28.3431 53.4612 28.3472 53.4112 28.3141 53.5006C28.3248 53.4569 28.3057 53.4971 28.2703 53.5259Z" fill="#452F53"/>
<path d="M28.2294 53.4981C28.195 53.4608 28.1468 53.4339 28.2223 53.3896C28.0879 53.396 28.0965 53.5047 28.2294 53.4981Z" fill="#452F53"/>
<path d="M27.9325 53.0755L27.8861 53.0258L27.8349 53.072C27.8598 53.0481 27.9301 53.1228 27.9325 53.0755Z" fill="#452F53"/>
<path d="M28.7312 53.6982C28.7307 53.6544 28.726 53.6106 28.7173 53.5676L28.6615 53.5991C28.6849 53.6298 28.7337 53.6495 28.7312 53.6982Z" fill="#452F53"/>
<path d="M28.713 53.5673L28.7946 53.5192C28.7324 53.5056 28.716 53.5302 28.713 53.5673Z" fill="#452F53"/>
<path d="M28.4194 53.3005L28.2816 53.4031L28.4438 53.301L28.4194 53.3005Z" fill="#452F53"/>
<path d="M29.0221 53.7319L28.9703 53.8026L29.0594 53.6975L29.0221 53.7319Z" fill="#452F53"/>
<path d="M29.2158 53.7387C29.1779 53.7976 29.2487 53.8479 29.2043 53.8817C29.2639 53.8654 29.3169 53.8309 29.3561 53.7831C29.3153 53.8072 29.2702 53.7949 29.2158 53.7387Z" fill="#452F53"/>
<path d="M29.4358 53.7219C29.4078 53.7392 29.3823 53.7604 29.3602 53.7849C29.3895 53.7693 29.4152 53.7479 29.4358 53.7219Z" fill="#452F53"/>
<path d="M28.926 53.5485C28.9275 53.5676 28.9327 53.5862 28.9415 53.6032C28.9503 53.6202 28.9623 53.6353 28.977 53.6476L28.9559 53.5524L28.926 53.5485Z" fill="#452F53"/>
<path d="M28.9562 53.5494L29.0214 53.5618L28.9562 53.5494Z" fill="#452F53"/>
<path d="M28.9189 53.5479C28.9253 53.5398 28.9228 53.5353 28.9189 53.5479V53.5479Z" fill="#452F53"/>
<path d="M28.6095 53.405C28.6593 53.3587 28.7608 53.3136 28.6771 53.2263C28.6379 53.285 28.6837 53.3419 28.6095 53.405Z" fill="#452F53"/>
<path d="M28.8939 53.4294L28.8157 53.4C28.8137 53.4243 28.8252 53.4612 28.8003 53.4837L28.8939 53.4294Z" fill="#452F53"/>
<path d="M28.9362 53.4041L28.8947 53.4289L28.9235 53.4397L28.9362 53.4041Z" fill="#452F53"/>
<path d="M29.3057 53.6222C29.3221 53.6077 29.3413 53.5969 29.3622 53.5903C29.3831 53.5838 29.4051 53.5818 29.4268 53.5844C29.3832 53.5612 29.3355 53.5466 29.2863 53.5415C29.2812 53.5698 29.2556 53.6196 29.3057 53.6222Z" fill="#452F53"/>
<path d="M29.1364 53.5787C29.1449 53.566 29.1363 53.5624 29.1364 53.5787V53.5787Z" fill="#452F53"/>
<path d="M29.8507 53.6264L29.8466 53.6097L29.8427 53.6244L29.8507 53.6264Z" fill="#452F53"/>
<path d="M29.2834 53.524C29.2506 53.5027 29.2291 53.5197 29.2051 53.5494C29.2331 53.5424 29.2619 53.5399 29.2906 53.5419C29.2912 53.5347 29.2924 53.5205 29.2834 53.524Z" fill="#452F53"/>
<path d="M29.5578 53.6901C29.5415 53.6697 29.5232 53.6509 29.5033 53.634C29.5181 53.6654 29.5487 53.7139 29.5578 53.6901Z" fill="#452F53"/>
<path d="M29.1536 53.6013C29.1573 53.6234 29.1566 53.6152 29.1536 53.6013V53.6013Z" fill="#452F53"/>
<path d="M29.1534 53.6013C29.1734 53.5869 29.1908 53.5693 29.2051 53.5493C29.1835 53.5544 29.1629 53.563 29.1441 53.5746C29.1486 53.5829 29.1518 53.5919 29.1534 53.6013Z" fill="#452F53"/>
<path d="M30.0366 53.0522C30.0298 53.1366 29.9235 53.2057 29.8537 53.108C29.7701 53.1631 29.7933 53.447 29.8464 53.6096C29.8493 53.5724 29.8521 53.5381 29.9404 53.4963C29.917 53.4469 29.7735 53.3706 29.8482 53.3004C29.9588 53.2675 29.9315 53.3387 29.985 53.3891C29.9506 53.2798 30.1401 53.2491 30.1255 53.091L30.0284 53.1365C30.0232 53.1116 30.0605 53.0772 30.0366 53.0522Z" fill="#452F53"/>
<path d="M29.6943 53.5858L29.6606 53.5932C29.6965 53.6119 29.7195 53.6483 29.7627 53.7194C29.7821 53.7106 29.7993 53.6975 29.8131 53.6812C29.8269 53.6649 29.8368 53.6457 29.8422 53.6251L29.6818 53.5978L29.6943 53.5858Z" fill="#452F53"/>
<path d="M29.5135 53.5786C29.5481 53.4892 29.6311 53.4585 29.5921 53.3532C29.4963 53.3455 29.5174 53.4235 29.4557 53.4573C29.6131 53.4499 29.4058 53.5051 29.5129 53.5684C29.4851 53.5778 29.4561 53.5832 29.4267 53.5845C29.4538 53.5985 29.4794 53.615 29.5033 53.6339C29.5043 53.6224 29.4963 53.6146 29.5043 53.6224C29.5123 53.6303 29.5043 53.6224 29.5043 53.6224C29.5064 53.6107 29.5102 53.5994 29.5156 53.5888C29.5583 53.6124 29.5138 53.6117 29.5043 53.6224L29.5031 53.6367L29.6642 53.6022C29.6166 53.5822 29.5649 53.5741 29.5135 53.5786Z" fill="#452F53"/>
<path d="M28.7805 53.0361C28.7817 53.0431 28.7811 53.0503 28.7789 53.0571C28.7936 53.0484 28.7985 53.0404 28.7805 53.0361Z" fill="#452F53"/>
<path d="M28.8386 53.0983C28.8261 53.1102 28.8131 53.1466 28.7767 53.1336C28.7404 53.1206 28.7803 53.0893 28.7828 53.0578C28.758 53.0803 28.699 53.1158 28.7639 53.1685L28.7763 53.1566C28.835 53.1959 28.9078 53.3111 28.8904 53.3298C28.8846 53.2505 28.8671 53.1725 28.8386 53.0983Z" fill="#452F53"/>
<path d="M29.1822 53.3158L29.3158 53.2834L29.258 53.1967L29.2541 53.2453C29.1856 53.2197 29.1952 53.2794 29.1822 53.3158Z" fill="#452F53"/>
<path d="M29.8613 53.6743L29.8348 53.77L29.923 53.6404L29.8613 53.6743Z" fill="#452F53"/>
<path d="M30.0306 53.6793L30.0167 53.763L30.0665 53.7167L30.0306 53.6793Z" fill="#452F53"/>
<path d="M40.4665 52.1485L40.4101 52.1166C40.4267 52.1308 40.4458 52.1416 40.4665 52.1485Z" fill="#452F53"/>
<path d="M40.743 52.4927L40.7812 52.4746C40.7446 52.4731 40.7316 52.4777 40.743 52.4927Z" fill="#452F53"/>
<path d="M36.469 54.1519C36.5543 54.2365 36.6475 54.3648 36.641 54.2679L36.6183 54.174C36.5676 54.1862 36.5141 54.1782 36.469 54.1519Z" fill="#452F53"/>
<path d="M41.003 53.7586L40.9665 53.7298C40.9601 53.7598 40.9519 53.7894 40.9421 53.8185C40.9634 53.7996 40.9837 53.7796 41.003 53.7586Z" fill="#452F53"/>
<path d="M40.8612 53.3748C40.8941 53.3962 40.9297 53.4177 40.9684 53.4381C40.9343 53.4143 40.8985 53.3932 40.8612 53.3748Z" fill="#452F53"/>
<path d="M38.8701 50.3523L38.7517 50.3571C38.8211 50.4433 38.828 50.3748 38.8701 50.3523Z" fill="#452F53"/>
<path d="M32.6209 53.8719C32.6777 53.9073 32.7407 53.9314 32.8066 53.943C32.7165 53.8825 32.65 53.7966 32.6209 53.8719Z" fill="#452F53"/>
<path d="M41.3423 51.655C41.3063 51.6377 41.2819 51.6371 41.2665 51.6489C41.3022 51.6704 41.3306 51.6756 41.3423 51.655Z" fill="#452F53"/>
<path d="M33.0269 53.9594C33.0147 53.9498 33.0022 53.9445 32.9886 53.9348C32.929 53.949 32.8672 53.9519 32.8066 53.9431C32.8357 53.971 32.8736 53.9879 32.9138 53.9908C32.954 53.9938 32.994 53.9827 33.0269 53.9594Z" fill="#452F53"/>
<path d="M33.4156 43.561C33.4155 43.554 33.4161 43.547 33.4173 43.54C33.4056 43.5461 33.4051 43.5517 33.4156 43.561Z" fill="#452F53"/>
<path d="M32.5384 41.0001C32.5639 41.0239 32.5878 41.0494 32.61 41.0764C32.5925 41.0456 32.568 41.0195 32.5384 41.0001Z" fill="#452F53"/>
<path d="M30.9423 53.8115C30.8865 53.807 30.9332 53.8206 30.9423 53.8115V53.8115Z" fill="#452F53"/>
<path d="M30.6997 53.4122C30.7072 53.4078 30.7137 53.4016 30.7185 53.3943C30.7234 53.387 30.7264 53.3786 30.7275 53.3699C30.7236 53.3869 30.7137 53.4019 30.6997 53.4122Z" fill="#452F53"/>
<path d="M33.637 53.4231C33.6268 53.4048 33.6295 53.4079 33.637 53.4231V53.4231Z" fill="#452F53"/>
<path d="M30.8563 53.7544C30.8781 53.7692 30.9018 53.7808 30.9269 53.7888C30.9044 53.7754 30.8807 53.7639 30.8563 53.7544Z" fill="#452F53"/>
<path d="M30.868 53.8057C30.8494 53.8042 30.8337 53.8029 30.8201 53.7932C30.8065 53.7835 30.8171 53.8117 30.868 53.8057Z" fill="#452F53"/>
<path d="M31.0232 53.8081C30.9923 53.8056 30.9619 53.7993 30.9326 53.7893C30.9426 53.7901 30.9474 53.802 30.9428 53.8059C30.9595 53.813 30.9845 53.8064 31.0232 53.8081Z" fill="#452F53"/>
<path d="M36.5633 47.0154C36.5633 47.0154 36.564 47.0068 36.5645 47.0011C36.4956 46.9811 36.5174 46.9958 36.5633 47.0154Z" fill="#452F53"/>
<path d="M38.2039 53.1936C38.1128 53.3057 38.0638 53.2888 37.9998 53.2621L38.0556 53.5342L38.2039 53.1936Z" fill="#452F53"/>
<path d="M39.7791 51.3578L39.8047 51.5224C39.5884 51.4748 39.5454 51.3476 39.5396 51.527C39.7791 51.3578 39.9164 51.9401 40.1545 51.7708L40.167 51.884C40.153 51.8613 40.1365 51.8686 40.1211 51.8458C40.1298 52.0767 40.3724 51.8171 40.4892 52.028C40.5247 52.1056 40.5291 52.1751 40.466 52.1556L40.638 52.2529C40.6688 52.2985 40.621 52.3206 40.5916 52.2751L40.7868 52.4778L40.7796 52.4773C40.8559 52.4847 40.9313 52.499 41.005 52.5199C41.0171 52.6014 40.9578 52.5161 40.9407 52.5492L41.0944 52.6249C41.0922 52.6347 41.0879 52.6438 41.0818 52.6517C41.0757 52.6596 41.0679 52.666 41.059 52.6705C41.0501 52.675 41.0403 52.6775 41.0304 52.6778C41.0204 52.6781 41.0105 52.6761 41.0013 52.6721C40.9508 52.6559 40.9073 52.6229 40.8779 52.5787C40.8113 52.7273 40.8448 52.7401 40.905 52.7607L40.9293 52.7627C40.9364 52.7633 40.9393 52.7635 40.945 52.764C40.9546 52.7625 40.9644 52.7633 40.9736 52.7663C40.9886 52.7761 40.9967 52.8012 40.9679 52.8378C40.9476 52.8307 40.9269 52.8247 40.906 52.8198C40.8426 52.8737 40.8213 52.8893 40.8085 52.9041C40.7958 52.9189 40.7894 52.927 40.7324 52.9382C40.7901 52.9307 40.846 52.9133 40.8977 52.8868C40.9592 52.8558 41.0145 52.8127 41.075 52.8291C41.0659 52.8529 41.0718 52.8692 41.1606 52.8921C41.0399 52.9083 41.0888 52.9266 41.1234 52.9611L40.939 52.9462C41.0091 52.9691 41.1077 52.9771 41.2214 53.0121C41.2397 53.0539 41.0766 53.0235 40.9355 52.9891C40.9277 52.9971 40.9968 53.0142 41.0762 53.0292C41.1505 53.0351 41.2222 53.0591 41.2849 53.0993C41.2395 53.1273 41.3547 53.1797 41.5948 53.343C41.5333 53.338 41.4122 53.252 41.3421 53.2291L41.4701 53.3013L41.5605 53.3575C41.5204 53.342 41.4815 53.3234 41.4441 53.302C41.4867 53.3457 41.7204 53.4452 41.7058 53.4828C41.8348 53.5609 41.6741 53.5019 41.5332 53.4473C41.3922 53.3928 41.2743 53.3387 41.3359 53.4314C41.2749 53.3878 41.2167 53.3403 41.1617 53.2894C41.173 53.3225 41.1775 53.3576 41.175 53.3926C41.1762 53.4367 41.1727 53.4808 41.1644 53.5241C41.0978 53.4929 41.0356 53.4619 40.9777 53.4299C41.0088 53.4427 41.0359 53.4637 41.0561 53.4907C41.0763 53.5176 41.0887 53.5495 41.0922 53.583C41.0957 53.6165 41.0901 53.6503 41.076 53.6808C41.0618 53.7113 41.0396 53.7375 41.0118 53.7564C41.067 53.7997 41.1248 53.8394 41.185 53.8754C41.1156 53.8972 41.0374 53.9211 40.9608 53.9437C40.9195 53.9202 40.9333 53.8739 40.9509 53.8163L40.9181 53.8482C40.8145 53.7952 40.8438 53.717 40.8673 53.6398C40.9023 53.6699 40.9388 53.6988 40.9753 53.7276C40.9852 53.6837 40.9862 53.6382 40.9784 53.5939C40.9706 53.5496 40.9542 53.5072 40.9299 53.4693C40.928 53.478 40.9238 53.4861 40.9177 53.4927C40.9116 53.4993 40.9039 53.5042 40.8953 53.5067C40.8976 53.4866 40.8926 53.4663 40.8812 53.4495C40.8694 53.4342 40.8685 53.4643 40.8556 53.4992C40.8223 53.4476 40.7919 53.3963 40.7642 53.348L40.7779 53.4095C40.7119 53.3802 40.6478 53.3467 40.586 53.3092C40.5686 53.3279 40.5641 53.3491 40.5337 53.3683L40.4539 53.4309C40.4 53.4741 40.3448 53.5171 40.2851 53.5612C40.1596 53.6517 40.0149 53.7119 39.8623 53.7372C39.9503 53.6263 39.8857 53.5535 39.895 53.4204C39.9821 53.5713 40.1596 53.3684 40.3281 53.4021C40.2374 53.3847 40.2598 53.3217 40.2832 53.2992L39.9657 53.4175C39.9745 53.3088 39.902 53.3332 39.8209 53.2864C39.8768 53.5038 39.5839 53.4241 39.4539 53.4842C39.4482 53.4118 39.4811 53.3425 39.6369 53.355C39.4706 53.1877 39.4071 53.5998 39.2432 53.4557C39.2804 53.4587 39.3012 53.4676 39.3171 53.4314C39.2258 53.4931 39.0104 53.4341 39.0643 53.3722L39.1015 53.3752C38.8509 53.3421 38.3341 53.345 38.2893 53.5256C38.3013 53.4393 38.3207 53.3542 38.3472 53.2713L37.8676 53.8672C37.9147 53.7113 37.7784 53.3305 37.992 53.2513C37.9514 53.2312 37.9069 53.2205 37.8616 53.2198C37.8164 53.2192 37.7716 53.2286 37.7304 53.2475C37.7703 53.2708 37.8227 53.478 37.7655 53.4906C37.6204 53.3091 37.664 53.3932 37.4811 53.2346C37.5415 53.2711 37.4586 53.5134 37.3646 53.5015C37.3819 53.4655 37.3684 53.2586 37.4049 53.2342L37.1518 53.4642C37.2141 53.4232 37.1683 53.2598 37.1208 53.1883C37.1442 53.2377 36.9135 53.1716 36.8469 53.195L36.947 53.2563C36.6762 53.2057 36.6602 53.5829 36.389 53.5553C36.4246 53.5063 36.4868 53.2524 36.3518 53.2141C36.2816 53.3351 36.0389 53.7933 35.7934 53.8757L35.7518 53.8032L35.562 53.8728C35.7552 53.6187 35.9742 53.3851 36.2153 53.1758C36.1166 53.1146 36.1918 53.0919 36.0395 53.0897C35.9889 53.0209 36.1278 52.9932 36.1725 52.9925L35.8144 52.9363C35.8215 53.0808 35.5335 53.0662 35.5396 53.1861L35.9409 53.0631C35.948 53.2075 35.693 53.4618 35.4431 53.4201C35.3818 53.359 35.5053 53.1661 35.5035 53.117C35.4679 53.166 35.2595 53.1981 35.2381 53.1604L35.3488 53.0902C35.21 53.0272 35.1086 53.268 34.9493 53.1199C34.8913 53.1066 34.7882 52.9227 34.7727 53.0078C34.8492 53.2695 34.8483 53.5478 34.77 53.809C34.6408 53.7354 34.5209 53.6466 34.4129 53.5443C34.3259 53.4092 34.5807 53.247 34.5038 53.13C34.5006 53.1701 34.4409 53.2142 34.4182 53.2282C34.3594 53.1903 34.4523 53.1086 34.3179 53.1165C34.2863 53.2578 34.0483 53.0861 34.2464 53.2359C34.1141 53.2699 34.1056 53.1972 33.9621 53.1929C34.0045 53.2912 33.8031 53.5052 33.6695 53.5377C33.6725 53.4988 33.6624 53.46 33.641 53.4274C33.376 53.3946 33.2383 53.3173 32.9896 53.2973C32.9696 53.2597 32.8528 53.2085 32.9096 53.1469C32.8718 53.1698 32.8349 53.2172 32.7603 53.214C32.6275 53.0767 32.9335 53.2079 32.8313 53.0471C32.8158 53.1322 32.6246 53.1484 32.5117 53.1926C32.5354 53.3269 32.7612 53.2386 32.8741 53.1944C32.8596 53.3746 32.6556 53.5495 32.3901 53.6116C32.1792 53.6406 32.3095 53.4871 32.2717 53.5099C31.8868 53.4473 31.9145 53.8006 31.6035 53.6417C31.4842 53.5156 31.6221 53.4116 31.5959 53.326C31.7679 53.2981 31.8472 53.4211 31.9619 53.426L31.8233 53.3602C31.8579 53.3399 31.8966 53.328 31.9365 53.3252C31.9764 53.3224 32.0164 53.3289 32.0534 53.3442C31.9544 53.234 31.4005 53.2685 31.1095 53.1473C31.0536 53.1802 30.9603 53.2129 30.9981 53.262L31.0936 53.2553C31.1719 53.3552 30.9032 53.3681 31.0198 53.422C30.8873 53.4761 30.7348 53.566 30.5606 53.4959L30.5397 53.3618C30.5366 53.4004 30.6491 53.4512 30.7037 53.4153C30.6234 53.4664 30.4453 53.2117 30.3486 53.3766L30.464 53.4794C30.306 53.53 30.2262 53.6632 30.1224 53.6116C30.1549 53.7452 30.1465 53.5992 30.2024 53.762C30.1815 53.6639 30.2442 53.6718 30.304 53.6795C30.3638 53.6872 30.4799 53.6937 30.4078 53.5886C30.5077 53.7765 30.6016 53.6833 30.738 53.8468C30.7415 53.804 30.6933 53.7598 30.8244 53.7934C30.8334 53.78 30.844 53.7678 30.8561 53.7571L30.8661 53.7579L30.8589 53.7573C30.8595 53.7502 30.8596 53.7487 30.8589 53.7573C30.8318 53.7396 30.8103 53.7144 30.7972 53.6847C30.8723 53.5915 31.0907 53.6134 31.1589 53.57C31.2359 53.5963 31.1221 53.6159 31.1612 53.6665L31.2747 53.598C31.2768 53.696 31.4703 53.7778 31.28 53.8171L31.4473 53.8306C31.4924 53.863 31.5439 53.8853 31.5984 53.8961C31.6529 53.907 31.709 53.9061 31.7631 53.8934C31.84 53.9212 31.9718 53.8038 31.8957 53.8725L32.1649 53.8352L32.163 53.8595C32.4222 53.8919 32.7104 53.7439 32.994 53.9394C33.1009 53.9105 33.2135 53.9096 33.3208 53.9369L33.3427 54.0221C33.4565 54.0025 33.6734 54.1322 33.7273 54.0531C33.8337 54.2862 34.2699 54.14 34.4657 54.1932L34.4744 54.0845C34.6207 54.0939 34.7675 54.0799 34.9094 54.0433L34.9057 53.9466C35.0552 53.8766 35.2753 54.0382 35.5065 54.0439C35.4879 54.0784 35.43 54.0651 35.3907 54.0346C35.6595 54.2706 35.9764 53.9091 36.2214 54.0828C36.2441 54.072 36.2693 54.0674 36.2944 54.0694C36.3195 54.0714 36.3436 54.08 36.3643 54.0943C36.3592 54.0931 36.3539 54.0927 36.3486 54.093C36.3571 54.0945 36.3657 54.0952 36.3743 54.0951C36.4017 54.1131 36.4288 54.134 36.4576 54.1507C36.4378 54.1285 36.4146 54.1097 36.3888 54.0948C36.4542 54.0944 36.5193 54.0851 36.5823 54.0673L36.6069 54.1728C36.6126 54.174 36.6183 54.1744 36.6241 54.1742C36.6913 54.2156 36.6824 54.1286 36.6486 54.0481C36.6845 54.0353 36.7177 54.016 36.7467 53.9913C36.795 54.1607 36.9362 53.9433 37.005 54.1258C37.0579 54.0408 37.3672 54.0773 37.4134 53.8968C37.4114 53.9211 37.4349 53.9331 37.3961 53.9328C37.4319 53.9512 37.4715 53.9609 37.5117 53.9611C37.5519 53.9613 37.5916 53.9521 37.6276 53.9342L37.6543 54.0673L37.8363 53.8978C37.9374 53.9822 37.9796 54.0302 37.871 54.1279C38.1303 53.9819 38.078 54.077 38.2998 53.9322L38.293 54.0166C38.3687 54.0227 38.4974 53.9079 38.5405 53.9804C38.7069 54.1478 39.3893 54.0358 39.8266 54.1977C39.7492 53.9439 40.0286 54.3161 40.0514 54.1222C40.0754 54.1817 40.1359 54.2168 40.0628 54.2671C40.1539 54.2514 40.2472 54.2555 40.3366 54.279C40.3723 54.2899 40.4098 54.2929 40.4467 54.2879C40.4939 54.2719 40.5381 54.2483 40.5775 54.2179C40.6172 54.2786 40.5073 54.3043 40.5403 54.3401C40.5701 54.3281 40.6479 54.2912 40.6853 54.3273C40.7226 54.3634 40.6382 54.3753 40.5816 54.3995C40.9601 54.3983 40.9404 54.214 40.911 54.0433C41.0812 54.1275 41.1712 54.1175 41.2104 54.007C41.2893 54.0637 41.4195 54.126 41.2384 54.1416C41.3413 54.1499 41.9787 54.2401 41.8548 54.0992C41.8817 54.1127 41.9115 54.1195 41.9416 54.1189C41.9718 54.1184 42.0013 54.1104 42.0277 54.0958C42.197 54.1115 42.3672 54.117 42.5372 54.1124L42.4355 54.0884C42.3502 54.0038 42.3754 53.9943 42.4423 54.004C42.5274 54.0236 42.6144 54.034 42.7017 54.035L42.7291 54.0516C42.8288 54.0745 42.9299 54.0908 43.0317 54.1004L43.0588 54.1026L43.0497 54.0904L43.0301 54.0658L42.9899 54.0295C42.9574 54.0079 42.9309 53.9784 42.913 53.9437C42.8952 53.909 42.8865 53.8703 42.8879 53.8313L42.703 53.7689C42.4767 53.6658 42.4936 53.6355 42.5138 53.581C42.534 53.5265 42.551 53.4401 42.4059 53.3306C42.3933 53.3463 42.3796 53.3611 42.3649 53.3748C42.2649 53.312 42.3339 53.2773 42.4005 53.2194C42.467 53.1614 42.5378 53.0865 42.5027 53.0218C42.5049 52.9947 42.581 53.0684 42.6393 53.112C42.5841 52.9406 42.5265 52.923 42.4586 52.9262C42.4088 52.9324 42.3582 52.9263 42.3112 52.9085C42.2642 52.8906 42.2223 52.8616 42.1891 52.8239C42.2396 52.769 42.4633 52.8676 42.3336 52.6917C42.3181 52.581 41.6617 52.2447 41.6792 52.0447C41.6608 52.1123 41.6426 52.1784 41.5512 52.1336C41.4454 52.0359 41.4714 51.6956 41.2527 51.7125C41.252 51.7037 41.2533 51.6949 41.2565 51.6867C41.2596 51.6785 41.2646 51.6711 41.271 51.665C41.1661 51.6091 40.9871 51.4378 40.8711 51.4486C41.0841 51.1449 40.3088 51.0335 40.5644 50.8268L40.3383 50.5783L40.3697 50.5636C40.3373 50.5029 40.2886 50.4524 40.2292 50.4176C40.1698 50.3829 40.1019 50.3652 40.0331 50.3667C40.0199 50.3153 40.0653 50.3233 40.0818 50.3159C39.9349 50.0307 39.9046 50.0139 39.6117 49.9169L39.6765 49.8272C39.5842 49.8125 39.519 49.3713 39.2279 49.2155C39.237 49.2106 39.2469 49.2078 39.2572 49.2071C39.2674 49.2064 39.2776 49.208 39.2872 49.2116C38.9715 49.0222 38.9913 48.3834 38.6111 48.5312L38.3931 48.4144C38.5559 48.662 38.2347 48.488 38.2613 48.6225C38.1695 48.5475 38.1622 48.3167 38.268 48.4144L38.2657 48.443C38.4554 48.3561 38.0893 48.1137 38.2008 48.0334C37.825 47.5902 37.5581 47.0809 37.2151 46.659L37.1327 46.8063L37.0199 46.6534C37.0247 46.5933 37.0734 46.5239 37.1539 46.6325C37.1772 46.5221 36.9527 46.5041 36.9238 46.5233C36.7998 46.2773 37.1311 46.4868 37.0759 46.4219L36.9959 46.3435L36.9935 46.3735C36.8879 46.3449 36.8288 46.3818 36.7328 46.2518C36.6919 46.1521 36.7742 46.1487 36.7529 46.1095C36.762 46.1031 36.7546 46.0881 36.7181 46.0592L36.5769 45.8651L36.5415 46.0177C36.427 45.9754 36.4034 45.8396 36.3648 46.015C36.4306 45.7512 35.8603 45.275 35.8499 45.1548C35.698 45.0908 35.5707 44.9796 35.4869 44.8377C35.4958 44.8888 35.4049 44.998 35.3192 44.866C35.5793 44.7272 35.2336 44.5713 35.3158 44.3362C35.2802 44.5103 35.0065 44.0134 34.9683 44.2736C34.9043 44.1577 35.0462 44.1993 35.0372 44.0792C34.7528 43.9124 34.652 43.5028 34.3862 43.2296C34.3545 43.2486 34.3503 43.3361 34.2533 43.3081L34.2756 43.0308C34.2132 42.984 34.063 43.1158 34.0769 42.9255C34.064 42.9605 34.0453 43.0136 34.0047 42.9816C33.6711 42.2828 32.9131 41.8864 32.6977 41.0763C32.7063 41.2021 32.657 41.1535 32.6057 41.0933C32.6246 41.1452 32.5319 41.1521 32.4984 41.1926L32.4063 40.8542C32.2587 40.8999 32.1826 40.5945 32.0554 40.6547L32.138 40.7189C31.9297 40.7151 31.9815 41.0905 31.811 41.2063C32.0484 41.2067 31.853 41.6845 32.2121 41.7105C32.2152 41.7799 32.1324 41.7171 32.1138 41.7702C32.2208 41.763 32.2832 41.8098 32.3416 41.9426L32.3159 41.9405C32.5802 42.2323 32.6213 42.4183 32.8569 42.7985L32.9159 42.7083C32.9463 42.7594 32.962 42.8179 32.9613 42.8774C33.1509 42.8639 32.7986 42.6643 32.9939 42.634C32.9136 42.862 33.4166 43.1558 33.288 43.3771C33.3795 43.491 33.3514 43.2685 33.4429 43.3824L33.4185 43.4538L33.5052 43.4306C33.5259 43.4621 33.5355 43.4995 33.5325 43.5371C33.5295 43.5746 33.514 43.6101 33.4885 43.6379C33.4788 43.6155 33.4344 43.5961 33.4155 43.5802C33.4354 43.7257 33.6582 43.8357 33.6655 43.8881L33.6071 43.7553C33.9061 44.0269 34.1505 44.4581 34.4957 44.6744L34.5144 44.6213C34.7702 44.7858 34.6222 44.8371 34.8602 45.0621L34.843 45.0607C34.9259 45.0829 34.9982 45.1335 35.0473 45.2038C34.9517 45.1759 35.0595 45.3918 34.9435 45.3494C35.2163 45.5354 35.1016 45.424 35.3737 45.4747L35.3422 45.5628C35.3896 45.5574 35.4377 45.5639 35.482 45.5818C35.5263 45.5997 35.5654 45.6284 35.5958 45.6652C35.4568 45.6051 35.5673 45.8227 35.4036 45.7649C35.4829 46.1382 35.8589 46.0433 35.76 46.3245C36.0291 46.3059 35.6679 46.0207 35.7598 46.0583C35.7681 45.9554 35.9689 46.0536 36.0201 46.1498C36.0713 46.246 35.918 46.4711 36.094 46.6795C36.077 46.658 36.0633 46.667 36.0464 46.6454C36.0688 46.7595 36.232 46.7525 36.2411 46.9072C36.3874 46.8772 36.3385 47.0373 36.4826 46.9453L36.2932 46.7603C36.4176 46.8423 36.6568 46.8198 36.7294 47.0616C36.6717 47.0608 36.6148 47.0474 36.5628 47.0223C36.5674 47.1076 36.6714 47.103 36.6772 47.1912C36.526 47.2827 36.4555 46.9791 36.2584 46.9431C36.2501 47.046 36.5345 47.0877 36.3456 47.1458C36.5968 47.0826 36.4929 47.3721 36.748 47.4027L36.6615 47.4576C36.7129 47.4695 36.7604 47.4941 36.7997 47.5292L36.6364 47.5376C36.8184 47.5825 36.7414 47.8238 36.8795 47.8953C36.688 47.6655 36.9331 47.7658 36.9103 47.6201C37.2496 47.8201 36.8388 47.9539 37.1392 48.2443C37.0916 48.2103 37.0533 48.0417 37.1523 48.0813C37.1917 48.159 37.2119 48.245 37.2112 48.3321C37.4009 48.5316 37.2653 48.2329 37.3878 48.2845C37.3511 48.4355 37.5129 48.3564 37.6197 48.424L37.5395 48.491C37.6864 48.7747 37.7597 48.4181 37.8761 48.6879L37.6893 48.6858L37.8115 48.7762L37.7008 48.8277C37.8694 48.896 37.8839 48.9489 37.9573 49.0915C37.9907 49.0165 38.1096 48.9873 38.2061 49.0929C38.2187 49.2047 38.0965 49.1143 38.2317 49.2575C38.1535 49.2642 38.0602 49.2783 38.0791 49.1517C38.0477 49.1664 38.0008 49.1584 37.9694 49.1731C37.9797 49.2962 38.1196 49.3809 38.1656 49.4349C38.1487 49.4135 38.1383 49.3877 38.1356 49.3606L38.4273 49.4906C38.4226 49.5492 38.3786 49.5413 38.3317 49.5347C38.3776 49.5715 38.4395 49.5721 38.5008 49.6317C38.4216 49.6685 38.3578 49.7281 38.251 49.6605L38.495 49.8111C38.4776 49.8486 38.5056 49.9832 38.4588 49.9751C38.5159 50.1236 38.8197 50.1567 38.8946 50.3527C38.9241 50.3533 38.9527 50.3637 38.9757 50.3822C39.0799 50.5345 39.1042 50.7336 39.3351 50.8328L39.298 51.0255C39.4327 51.1385 39.3369 50.7739 39.5649 50.9621C39.7317 51.0892 39.5134 51.1018 39.5268 51.1849C39.6495 51.2164 39.8823 51.2553 39.9061 51.4788C39.8387 51.4403 39.8241 51.3887 39.7791 51.3578ZM41.0744 52.8363C41.0387 52.8334 40.958 52.8355 41.007 52.7977C41.1289 52.75 41.0921 52.796 41.075 52.8291L41.0744 52.8363ZM40.6647 53.5644C40.6846 53.5315 40.7206 53.5488 40.7735 53.589C40.7543 53.5919 40.7346 53.5905 40.7159 53.585C40.6972 53.5795 40.68 53.5701 40.6653 53.5573L40.6647 53.5644ZM31.574 53.7761C31.6698 53.8197 31.6381 53.8014 31.574 53.7761V53.7761ZM31.3847 53.7148C31.3808 53.7163 31.3772 53.7188 31.3744 53.7218C31.3715 53.7249 31.3693 53.7286 31.3681 53.7326C31.3668 53.7367 31.3664 53.7409 31.3669 53.7451C31.3675 53.7493 31.3689 53.7533 31.3712 53.7568C31.3876 53.7323 31.4306 53.7343 31.4786 53.7454C31.4694 53.7173 31.4466 53.6967 31.3861 53.7149L31.3847 53.7148ZM36.7175 46.1024L36.7138 46.1481C36.6441 46.1022 36.6799 46.1037 36.7189 46.1025L36.7175 46.1024Z" fill="#452F53"/>
<path d="M40.8791 53.4206C40.8954 53.4376 40.9093 53.4566 40.9206 53.4772C40.9231 53.4645 40.9106 53.4404 40.8791 53.4206Z" fill="#452F53"/>
<path d="M38.8918 50.3513L38.8748 50.3582L38.8918 50.3513Z" fill="#452F53"/>
<path d="M34.431 53.0682C34.4603 53.0803 34.4856 53.1002 34.5041 53.1259C34.5061 53.1016 34.4906 53.0788 34.431 53.0682Z" fill="#452F53"/>
<path d="M30.3492 53.7969L30.4756 53.7826C30.435 53.7822 30.396 53.7662 30.3669 53.7378C30.3676 53.7652 30.388 53.7985 30.3492 53.7969Z" fill="#452F53"/>
<path d="M29.7211 53.0918C29.7086 53.1037 29.6968 53.0898 29.6843 53.1018L29.6804 53.1504C29.732 53.1531 29.7694 53.1173 29.7211 53.0918Z" fill="#452F53"/>
<path d="M30.2926 53.4457C30.2997 53.3585 30.243 53.3827 30.1874 53.3941C30.1908 53.3936 30.1942 53.3939 30.1974 53.3949C30.1691 53.5149 30.2309 53.4796 30.2926 53.4457Z" fill="#452F53"/>
<path d="M30.1743 53.3958C30.1576 53.398 30.1405 53.3966 30.1243 53.3917C30.1131 53.4412 30.1434 53.4048 30.1743 53.3958Z" fill="#452F53"/>
<path d="M31.1372 53.7509C31.0975 53.7247 31.1011 53.8588 31.0811 53.8212C31.025 53.9289 31.3662 53.7118 31.1372 53.7509Z" fill="#452F53"/>
<path d="M30.2758 53.155L30.2843 53.2636L30.3227 53.1804L30.2758 53.155Z" fill="#452F53"/>
<path d="M30.8935 53.2924L30.7531 53.2495C30.7516 53.2681 30.735 53.2768 30.7129 53.2836C30.8069 53.2955 30.891 53.3239 30.8935 53.2924Z" fill="#452F53"/>
<path d="M30.7229 53.2846C30.6854 53.2755 30.6462 53.2779 30.6101 53.2914C30.6478 53.2933 30.6856 53.2911 30.7229 53.2846Z" fill="#452F53"/>
<path d="M30.4169 53.1362L30.4551 53.1623L30.5516 53.1787L30.4169 53.1362Z" fill="#452F53"/>
<path d="M32.378 53.4409L32.5235 53.4209C32.5421 53.3864 32.5025 53.3602 32.4456 53.37C32.3887 53.3798 32.3566 53.4032 32.378 53.4409Z" fill="#452F53"/>
<path d="M31.9471 53.1096C31.9854 53.1343 31.9863 53.1588 32.0063 53.1964L32.017 53.0635L31.9471 53.1096Z" fill="#452F53"/>
<path d="M32.3871 53.1136C32.4058 53.0776 32.6143 53.0254 32.4235 53.0186C32.4048 53.0545 32.2523 53.0725 32.3871 53.1136Z" fill="#452F53"/>
<path d="M34.6393 53.449L34.6005 53.4487L34.5915 53.6667L34.6393 53.449Z" fill="#452F53"/>
<path d="M36.6691 53.0441C36.4943 52.9811 36.6204 53.1841 36.4629 53.1023C36.4186 53.152 36.5918 53.1631 36.5467 53.2055C36.6528 53.1565 36.7077 53.1897 36.6691 53.0441Z" fill="#452F53"/>
<path d="M36.5424 53.2051C36.5225 53.2132 36.5034 53.2232 36.4854 53.235C36.5061 53.2286 36.5254 53.2185 36.5424 53.2051Z" fill="#452F53"/>
<path d="M32.3634 40.6005L32.3254 40.4823L32.3156 40.5865L32.3634 40.6005Z" fill="#452F53"/>
<path d="M32.0968 40.5331L32.1877 40.4238L32.0417 40.4495C32.0706 40.4662 32.1083 40.498 32.0968 40.5331Z" fill="#452F53"/>
<path d="M40.8079 52.9475L40.8508 52.9509C40.8943 52.9472 40.8946 52.9429 40.8952 52.9358C40.8663 52.9414 40.8372 52.9453 40.8079 52.9475Z" fill="#452F53"/>
<path d="M40.2685 52.1239L40.284 52.1453L40.3497 52.0269L40.2685 52.1239Z" fill="#452F53"/>
<path d="M39.3159 51.2127C39.3455 51.2568 39.4077 51.2877 39.4371 51.3333C39.3455 51.2568 39.4284 51.1024 39.3159 51.2127Z" fill="#452F53"/>
</svg>
