<svg width="41" height="48" viewBox="0 0 41 48" fill="none" xmlns="http://www.w3.org/2000/svg">
<path d="M4.89656 42.1215C4.86956 42.1311 4.87476 42.051 4.86932 42.0381C4.91596 42.0549 4.89626 42.1454 4.89656 42.1215Z" fill="#F0ECDD"/>
<path d="M5.35919 42.2593L5.34863 42.2285L5.42305 42.3012L5.35919 42.2593Z" fill="#F0ECDD"/>
<path d="M5.78353 42.2179C5.7571 42.355 5.6278 42.2078 5.55648 42.2657L5.54698 42.2963L5.50238 42.1934C5.59566 42.2019 5.72315 42.2615 5.78353 42.2179Z" fill="#F0ECDD"/>
<path d="M5.97386 41.9093C5.97045 41.9619 6.02779 41.9493 5.92479 41.93L5.93202 41.9154C5.94618 41.9154 5.96027 41.9133 5.97386 41.9093Z" fill="#F0ECDD"/>
<path d="M5.93206 41.9167C5.88827 41.9138 5.95516 41.8704 5.93206 41.9167V41.9167Z" fill="#F0ECDD"/>
<path d="M6.13928 41.9272L6.07534 41.8866C6.08371 41.8545 6.13347 41.8427 6.11217 41.8224C6.17382 41.8403 6.16554 41.8711 6.13928 41.9272Z" fill="#F0ECDD"/>
<path d="M6.20597 42.0151L6.17426 42.0004C6.17766 41.9868 6.18432 41.981 6.20597 42.0151Z" fill="#F0ECDD"/>
<path d="M6.1051 41.9668C6.12822 41.9783 6.15133 41.9899 6.17453 42.0002C6.17307 42.0227 6.17022 42.0665 6.14258 41.9893C6.1539 42.0278 6.13616 41.9914 6.1051 41.9668Z" fill="#F0ECDD"/>
<path d="M6.07142 41.9899C6.04295 42.022 6.00255 42.0445 6.06523 42.085C5.95265 42.0776 5.95759 41.9825 6.07142 41.9899Z" fill="#F0ECDD"/>
<path d="M5.82031 42.3521L5.77977 42.396L5.73726 42.3543C5.75856 42.3745 5.81956 42.3056 5.82031 42.3521Z" fill="#F0ECDD"/>
<path d="M6.48671 41.7971C6.48799 41.8356 6.48548 41.8742 6.47923 41.9122L6.43183 41.8878C6.45097 41.8639 6.4902 41.8401 6.48671 41.7971Z" fill="#F0ECDD"/>
<path d="M6.47888 41.9131L6.55049 41.9517C6.49423 41.9668 6.4806 41.9446 6.47888 41.9131Z" fill="#F0ECDD"/>
<path d="M6.23691 42.1592C6.19725 42.1315 6.1576 42.1038 6.11694 42.0723C6.16386 42.1042 6.21118 42.1299 6.25716 42.1568L6.23691 42.1592Z" fill="#F0ECDD"/>
<path d="M6.72718 41.7536L6.68073 41.6953L6.7605 41.7821L6.72718 41.7536Z" fill="#F0ECDD"/>
<path d="M6.8896 41.7378C6.85383 41.689 6.9097 41.6411 6.87646 41.6113C6.92698 41.6231 6.97262 41.6502 7.00709 41.6889C6.96787 41.6738 6.9307 41.6852 6.8896 41.7378Z" fill="#F0ECDD"/>
<path d="M7.0745 41.7436C7.04984 41.7288 7.02696 41.7113 7.00629 41.6914C7.03259 41.7036 7.05588 41.7214 7.0745 41.7436Z" fill="#F0ECDD"/>
<path d="M6.65255 41.9182C6.65217 41.9018 6.65529 41.8854 6.66168 41.8702C6.66808 41.8551 6.67763 41.8414 6.68968 41.8302L6.67673 41.9135C6.66856 41.9145 6.66048 41.9161 6.65255 41.9182Z" fill="#F0ECDD"/>
<path d="M6.68148 41.9159L6.73515 41.9019L6.68148 41.9159Z" fill="#F0ECDD"/>
<path d="M6.39307 42.0596C6.43707 42.0976 6.52401 42.1321 6.45727 42.212C6.424 42.1633 6.46095 42.1167 6.39307 42.0596Z" fill="#F0ECDD"/>
<path d="M6.63602 42.0245L6.57003 42.0541C6.57142 42.0329 6.57353 42.0003 6.55341 41.9814L6.63602 42.0245Z" fill="#F0ECDD"/>
<path d="M6.67332 42.044L6.6356 42.0252L6.65893 42.0142L6.67332 42.044Z" fill="#F0ECDD"/>
<path d="M6.97209 41.8344C6.98709 41.8458 7.00422 41.8541 7.02248 41.8587C7.04074 41.8634 7.05974 41.8643 7.07836 41.8614C7.04351 41.8825 7.0051 41.897 6.96503 41.9043C6.95532 41.8798 6.93032 41.8393 6.97209 41.8344Z" fill="#F0ECDD"/>
<path d="M6.8324 41.8818L6.8403 41.8823C6.83689 41.894 6.83409 41.8965 6.8324 41.8818Z" fill="#F0ECDD"/>
<path d="M6.96032 41.9203C6.93384 41.9412 6.91355 41.9248 6.89233 41.9033C6.91613 41.9086 6.9406 41.9102 6.96489 41.908C6.9694 41.9159 6.9715 41.9223 6.96032 41.9203Z" fill="#F0ECDD"/>
<path d="M7.1807 41.7618C7.16796 41.7804 7.1538 41.798 7.13834 41.8144C7.14772 41.7861 7.17066 41.7423 7.1807 41.7618Z" fill="#F0ECDD"/>
<path d="M6.84504 41.8616C6.84781 41.8393 6.8473 41.8472 6.84504 41.8616V41.8616Z" fill="#F0ECDD"/>
<path d="M6.84518 41.8616C6.86315 41.873 6.87919 41.8872 6.8927 41.9036C6.87428 41.9001 6.85648 41.8938 6.83989 41.8851L6.84518 41.8616Z" fill="#F0ECDD"/>
<path d="M7.64642 42.2766C7.62479 42.2051 7.52904 42.1576 7.48302 42.2497C7.4058 42.2059 7.40174 41.9604 7.42991 41.8159C7.43918 41.8465 7.44479 41.8756 7.52057 41.9031C7.50628 41.9497 7.38732 42.0283 7.46132 42.0831C7.55785 42.0994 7.52918 42.04 7.56365 41.9909C7.54588 42.0911 7.7045 42.0952 7.71428 42.2334L7.62604 42.2052C7.63338 42.2269 7.66423 42.2527 7.64642 42.2766Z" fill="#F0ECDD"/>
<path d="M7.30409 41.8454L7.27407 41.8434C7.30414 41.8253 7.3201 41.7924 7.3506 41.7291C7.40401 41.7577 7.41881 41.7813 7.4261 41.8043C7.38251 41.8178 7.33667 41.8274 7.29825 41.8387L7.30409 41.8454Z" fill="#F0ECDD"/>
<path d="M7.15652 41.8618C7.1941 41.938 7.26647 41.9603 7.24295 42.0526C7.15984 42.0609 7.17285 41.9955 7.117 41.9693C7.25228 41.9668 7.07193 41.9313 7.15845 41.8707C7.13407 41.8643 7.10869 41.8626 7.08369 41.8658C7.10524 41.8518 7.12553 41.836 7.14432 41.8185C7.1436 41.8297 7.14319 41.8359 7.14368 41.8284L7.15427 41.8579C7.18953 41.8352 7.15573 41.8355 7.14368 41.8284L7.14441 41.8172L7.28313 41.8387C7.24382 41.8578 7.20004 41.8658 7.15652 41.8618Z" fill="#F0ECDD"/>
<path d="M6.55511 42.3733C6.55755 42.367 6.558 42.3601 6.5564 42.3535C6.56642 42.3621 6.57134 42.3677 6.55511 42.3733Z" fill="#F0ECDD"/>
<path d="M6.60288 42.3153C6.59098 42.3058 6.57798 42.2749 6.54835 42.288C6.51873 42.3011 6.55332 42.3271 6.5566 42.3536C6.53406 42.3346 6.48203 42.3074 6.53527 42.2584L6.54591 42.2678C6.59422 42.2274 6.62739 42.1718 6.63999 42.11C6.63735 42.1799 6.62486 42.249 6.60288 42.3153Z" fill="#F0ECDD"/>
<path d="M6.89026 42.1074L7.01453 42.1281L6.97047 42.2069L6.96565 42.1651C6.8949 42.1906 6.90082 42.1383 6.89026 42.1074Z" fill="#F0ECDD"/>
<path d="M7.43742 41.7586L7.40619 41.6787L7.49249 41.7811L7.43742 41.7586Z" fill="#F0ECDD"/>
<path d="M7.57921 41.7339L7.5575 41.6621L7.60425 41.6966L7.57921 41.7339Z" fill="#F0ECDD"/>
<path d="M13.7987 2.88201L13.5644 2.96312C13.676 2.92158 13.7464 2.89738 13.7987 2.88201Z" fill="#F0ECDD"/>
<path d="M15.4569 2.26307L15.5081 2.2865C15.4238 2.28855 15.3865 2.28361 15.4569 2.26307Z" fill="#F0ECDD"/>
<path d="M24.0215 26.1233C24.0664 25.7796 24.0891 25.392 24.1526 25.4549C24.1699 25.4961 24.1835 25.537 24.1968 25.5829C24.1226 25.7576 24.064 25.9384 24.0215 26.1233Z" fill="#F0ECDD"/>
<path d="M25.8353 8.92871L25.8793 9.02165L25.8457 9.26968C25.8451 9.1633 25.8413 9.0492 25.8353 8.92871Z" fill="#F0ECDD"/>
<path d="M26.1144 8.61892C26.0639 8.47176 26.0084 8.32427 25.959 8.17969C26.0195 8.3229 26.0713 8.46957 26.1144 8.61892Z" fill="#F0ECDD"/>
<path d="M7.54049 9.948L7.40391 10.2206C7.49219 9.7672 7.49494 9.97506 7.54049 9.948Z" fill="#F0ECDD"/>
<path d="M15.6878 37.9563C15.8976 37.751 16.0702 37.5971 16.2275 37.4684C15.9821 37.7215 15.8019 37.9525 15.6878 37.9563Z" fill="#F0ECDD"/>
<path d="M14.7509 3.42041C14.616 3.45668 14.5543 3.46267 14.5504 3.44491C14.6906 3.40523 14.7717 3.39048 14.7509 3.42041Z" fill="#F0ECDD"/>
<path d="M16.8684 36.925C16.8358 36.9641 16.8009 37.0006 16.7668 37.0435C16.6825 37.1093 16.5981 37.1751 16.5121 37.2471C16.4261 37.3191 16.328 37.3853 16.2275 37.4688C16.3175 37.3733 16.4198 37.2811 16.5249 37.1854C16.63 37.0868 16.7451 36.9995 16.8684 36.925Z" fill="#F0ECDD"/>
<path d="M34.2863 14.9519C34.3026 14.9329 34.3253 14.9117 34.3403 14.8939C34.3527 14.8972 34.326 14.9206 34.2863 14.9519Z" fill="#F0ECDD"/>
<path d="M39.7085 6.7406L39.6304 6.90192L39.529 7.0955C39.5558 7.02968 39.6164 6.92478 39.7085 6.7406Z" fill="#F0ECDD"/>
<path d="M10.117 40.9604C9.91247 41.0338 10.0815 40.9644 10.117 40.9604V40.9604Z" fill="#F0ECDD"/>
<path d="M9.21574 41.5976C9.26259 41.5919 9.30028 41.5918 9.31206 41.6039C9.28147 41.5915 9.24768 41.5893 9.21574 41.5976Z" fill="#F0ECDD"/>
<path d="M18.8002 35.7852L18.8137 35.771C18.781 35.8304 18.7855 35.8194 18.8002 35.7852Z" fill="#F0ECDD"/>
<path d="M9.82534 41.1094C9.89886 41.0754 9.98183 41.0308 10.0759 40.9893C9.99448 41.0337 9.91086 41.0738 9.82534 41.1094Z" fill="#F0ECDD"/>
<path d="M9.85371 41.0588C9.78449 41.0844 9.72573 41.1031 9.67693 41.1224C9.64594 41.1179 9.66693 41.103 9.85371 41.0588Z" fill="#F0ECDD"/>
<path d="M10.3987 40.8533C10.2833 40.8959 10.1765 40.9415 10.076 40.9875C10.1136 40.9662 10.1281 40.9559 10.1167 40.9576C10.1756 40.9364 10.2602 40.9056 10.3987 40.8533Z" fill="#F0ECDD"/>
<path d="M17.1454 20.3311C17.1604 20.332 17.1779 20.3332 17.1942 20.3342C17.417 20.3851 17.3187 20.37 17.1454 20.3311Z" fill="#F0ECDD"/>
<path d="M26.218 20.7436C26.2169 20.7519 26.2163 20.7602 26.2164 20.7686L26.2184 20.7373L26.218 20.7436Z" fill="#F0ECDD"/>
<path d="M26.3906 19.9563C26.2803 20.2016 26.2206 20.4666 26.2148 20.7355C26.1537 20.6365 26.0913 20.5374 26.0239 20.4391L26.3906 19.9563Z" fill="#F0ECDD"/>
<path d="M10.2732 5.22806L10.4576 4.98983C10.5189 4.91249 10.5922 4.84344 10.6521 4.76852C10.5752 4.81607 10.5022 4.86136 10.4341 4.90823L10.2536 5.04788L9.99608 5.25633C9.87748 5.34871 9.86607 5.3317 10.0351 5.09873C10.0957 5.12894 10.2288 5.04501 10.3994 4.90347C10.57 4.76193 10.7955 4.58392 11.0161 4.40435C11.2223 4.23878 11.4382 4.08571 11.6627 3.94595C11.8552 3.83336 11.9998 3.78271 12.046 3.82325L12.1907 3.69504L12.3408 3.57969C12.2482 3.63872 12.2236 3.63212 12.1334 3.69131C12.7144 3.20362 12.6956 3.55021 13.5236 3.0911C13.8164 2.93749 14.0137 2.80769 13.788 2.87309C13.9057 2.8332 14.0213 2.78692 14.1399 2.75334L14.4956 2.65136C14.6948 2.56923 14.6275 2.54609 14.432 2.62846L14.6972 2.53186C14.7869 2.50015 14.8774 2.47476 14.9668 2.44679C15.1466 2.39343 15.3247 2.32994 15.5076 2.28679L15.4964 2.28606C15.6642 2.28446 16.0285 2.24184 16.2068 2.23217C16.477 2.13714 16.0614 2.23648 16.1244 2.19053L16.7446 2.11951C16.9794 2.00967 16.463 2.04365 16.0433 2.14897C16.214 2.01044 16.4277 1.93584 16.6476 1.93804C16.7547 1.92624 16.8859 1.92852 17.0652 1.90265C17.2446 1.87678 17.4715 1.83148 17.7825 1.76163C17.5841 1.7725 17.3868 1.78719 17.1901 1.80943C17.3892 1.70583 17.6055 1.63935 17.8284 1.61323C18.0814 1.57088 18.3637 1.54044 18.7124 1.4868C18.6308 1.51027 18.2882 1.58433 18.0618 1.66093C17.8354 1.73754 17.7178 1.81372 18.0594 1.81341C18.3278 1.76434 18.6023 1.75854 18.8725 1.79622C18.8782 1.70777 19.239 1.71997 19.6943 1.76083L19.6737 1.63439C20.1689 1.71538 20.1223 1.77741 20.4086 1.8761C20.9546 1.9654 21.0901 1.92041 21.2427 1.88279C21.6845 2.01536 21.519 2.00085 21.3765 1.99909C21.3055 1.99447 21.2387 2.00139 21.2497 2.02463C21.2607 2.04786 21.362 2.08822 21.6143 2.18971C21.9439 2.28996 22.2575 2.43674 22.5456 2.6256C22.8608 2.83719 23.1515 3.0831 23.4125 3.35882C23.8248 3.67464 23.3937 3.24374 23.555 3.34181C23.6507 3.46689 23.7331 3.60362 23.8184 3.73427C23.8957 3.81562 23.8925 3.76912 23.8915 3.74528C24.1214 4.058 23.8351 3.8442 24.1854 4.32489C24.1786 4.42954 24.4053 4.63695 24.6463 4.93287C24.8873 5.22879 25.1367 5.60658 25.2194 5.97102C25.3247 6.1205 25.2503 5.86043 25.3158 5.89222C25.481 6.37212 25.5313 6.58057 25.5792 6.7676C25.6369 7.01802 25.6805 7.27147 25.71 7.52677C25.8012 7.73955 25.8874 7.95367 25.9685 8.16913C25.7488 7.69944 25.8226 8.35357 25.8447 8.918C25.7679 8.75286 25.6968 8.61437 25.6579 8.51927C25.704 8.81127 25.7448 9.10668 25.7694 9.40229C25.8065 9.50479 25.8329 9.40642 25.8551 9.25773C25.8512 9.31878 25.8582 9.38304 25.8556 9.42291C25.9521 9.72945 25.9933 9.55697 26.0201 9.3185C25.9767 9.21559 25.9334 9.11269 25.8884 9.01468C25.9171 8.78509 25.9515 8.56463 26.0296 8.59473C26.0332 8.6939 26.0431 8.79274 26.0592 8.89066C26.0631 8.82962 26.0757 8.7904 26.0929 8.81404C26.1107 8.9049 26.1139 8.99802 26.1025 9.0899L26.271 9.26851L26.2285 9.32705C26.3236 9.71107 26.4077 10.0981 26.4807 10.4882C26.4628 10.9174 26.4143 11.3171 26.3684 11.7733C26.3535 12.0025 26.3302 12.245 26.3203 12.5133C26.3103 12.7817 26.2911 13.0769 26.2908 13.4085C26.3763 13.0762 26.4485 13.3311 26.5637 13.3099C26.5016 13.0696 26.4843 12.8199 26.5128 12.5734C26.5271 12.2452 26.5213 11.9164 26.4955 11.5889C26.5335 11.9467 26.5826 11.8648 26.5962 11.7718C26.5857 12.184 26.5826 12.5967 26.5559 13.0078C26.6492 12.9764 26.6368 13.2633 26.687 13.5881C26.5872 13.469 26.5693 13.7056 26.56 14.0215C26.5507 14.3374 26.5508 14.759 26.5232 15.01C26.5862 15.0416 26.6541 14.9209 26.6314 14.3089C26.7751 14.9851 26.4221 15.1798 26.5192 15.8417C26.51 15.7444 26.5211 15.6463 26.5517 15.5536C26.4853 15.9008 26.5062 16.7529 26.5666 16.5554L26.5763 16.4059C26.5788 16.6563 26.5537 16.9662 26.5346 17.2977C26.5156 17.6293 26.4903 17.9792 26.4406 18.3013C26.3909 18.6233 26.3527 18.9211 26.3072 19.1408C26.2914 19.2845 26.2417 19.4223 26.1622 19.543C26.2562 19.5097 26.3409 19.4543 26.4091 19.3814C26.1509 19.9464 25.9107 20.505 25.6265 21.047C25.7876 20.9161 26.0072 21.561 26.223 20.7618C26.1965 21.1045 26.1363 21.4438 26.0433 21.7748C26.0539 21.6116 25.9162 21.3436 25.8672 21.5581C25.8875 21.7374 25.8921 21.9182 25.8809 22.0983C25.8728 22.2228 25.8638 22.3611 25.8392 22.7399C25.855 22.4969 25.5906 22.7149 25.5238 23.0872C25.5672 23.0362 25.7239 23.1665 25.7775 23.0349C25.6444 23.3302 25.4893 23.6179 25.3454 23.9076C25.4398 23.6872 25.5291 23.9107 25.5334 24.1325C25.5256 24.0794 25.4775 24.2802 25.4167 24.5227C25.3559 24.7653 25.27 25.0474 25.2235 25.1658L25.2921 24.7649C25.209 25.1167 25.06 25.4496 24.853 25.7459C24.6375 26.0315 24.4732 26.3523 24.3672 26.694C24.4492 26.588 24.7225 26.4831 24.5697 27.0049C24.4745 27.1026 24.2507 27.3119 24.0022 27.5936C23.8765 27.7368 23.7471 27.8997 23.618 28.0765C23.4777 28.2553 23.3505 28.444 23.2372 28.641L23.225 28.8291L23.0473 29.1379C22.988 29.2416 22.9203 29.3398 22.8574 29.4408C23.1294 29.1726 23.3837 28.887 23.6187 28.5858C23.9022 28.2449 24.163 27.8857 24.3992 27.5105C24.296 27.9042 24.426 27.6374 24.1965 28.203C24.1709 28.424 24.3995 27.9297 24.469 27.764C24.3859 27.9851 24.315 28.2094 24.2196 28.4259L23.9469 29.0788C23.9016 29.0245 23.7627 29.257 23.6249 29.4907C23.4871 29.7245 23.3286 29.9494 23.2941 29.9021C23.5723 29.4723 23.8118 29.0212 24.0634 28.5759C24.0181 28.5229 23.846 28.6869 23.6369 28.9785C23.5299 29.123 23.4256 29.3038 23.3006 29.4946C23.1736 29.6976 23.0576 29.9072 22.9532 30.1226C22.8834 30.3683 23.2377 30.0573 23.2653 30.0941C23.1574 30.2366 23.0606 30.3871 22.9758 30.5445C22.8842 30.6856 22.8023 30.8329 22.7307 30.9852L23.0027 30.6501C22.8895 30.8733 22.7499 31.0823 22.5869 31.2724C22.5088 31.3723 22.4364 31.4766 22.3702 31.5848C22.3364 31.6427 22.3023 31.7055 22.2704 31.7722C22.2386 31.839 22.2015 31.9091 22.1689 31.9871C22.051 32.1833 21.9316 32.6535 21.847 32.6467C21.9329 32.2495 21.5943 31.9535 21.3721 32.1004C21.3524 32.1342 21.2272 32.405 21.0835 32.6909C20.9398 32.9768 20.77 33.2786 20.723 33.4044C20.5928 33.7713 21.2703 33.1072 21.1611 33.4216C21.1249 33.4193 20.9683 33.558 20.9055 33.6189C20.7878 33.8315 21.0516 33.6034 20.7283 34.0165C20.5713 34.0063 20.0648 34.8492 20.4861 34.1421C20.1341 34.5146 20.1684 34.5844 19.7771 35.0406C19.8423 34.8472 19.204 35.2536 18.8396 35.6052C18.8832 35.6081 18.8323 35.7186 18.8137 35.7737C18.4528 36.1468 18.1775 36.4367 17.9111 36.7246C17.6446 37.0126 17.3544 37.2627 16.9917 37.5869C16.9497 37.6755 16.6002 37.9906 16.793 37.9105C16.6194 37.9932 16.4548 38.0936 16.3019 38.2101C15.9124 38.659 16.8398 37.8072 16.5737 38.1865C16.5359 38.1703 16.3668 38.2707 16.1613 38.4099C16.0583 38.4746 15.9504 38.5551 15.8373 38.6203C15.7242 38.6855 15.6149 38.751 15.5201 38.8036C15.5536 38.7363 15.6044 38.6791 15.6673 38.638C15.7491 38.5721 15.8602 38.4992 15.9746 38.4141C16.2067 38.2502 16.4794 38.0778 16.6636 37.9584C16.6138 37.8964 16.414 37.9484 16.1298 38.0864C15.9853 38.1533 15.8228 38.2478 15.6361 38.3483C15.4494 38.4487 15.2469 38.5619 15.0257 38.6914C14.3513 39.1167 14.7997 38.9745 14.6731 39.0351C14.2995 39.2951 13.8925 39.5035 13.463 39.6545C13.0881 39.7615 12.7348 39.9333 12.4191 40.1621C12.3577 40.2068 12.3049 40.2623 12.2634 40.3259C12.25 40.3588 12.2688 40.3763 12.2981 40.3882C12.359 40.4134 12.4581 40.4099 12.4255 40.4678C12.6685 40.3543 12.9022 40.2218 13.1244 40.0716L13.395 39.8928L13.6664 39.7215C13.5225 39.8373 13.3653 39.9259 13.2147 40.0299C13.3501 39.9799 13.4825 39.9221 13.6113 39.8568C13.7444 39.7847 13.8718 39.7026 13.9926 39.6113C13.8413 39.7407 13.6785 39.8557 13.5061 39.955C13.2644 40.0932 12.9634 40.2576 12.6417 40.4331C12.4831 40.5253 12.3104 40.6029 12.1388 40.6831L11.6226 40.926C11.2911 41.0971 10.9637 41.2272 10.699 41.3527C10.4922 41.3968 10.1469 41.4932 10.291 41.3937L10.6391 41.2737C10.9247 41.0758 9.95536 41.4181 10.3752 41.2152C10.2556 41.245 10.1323 41.2758 10.0038 41.3087C9.87526 41.3416 9.74009 41.3616 9.60163 41.3939C9.29733 41.4606 8.99867 41.5507 8.70831 41.6636L8.61287 41.8038C8.80341 41.7008 9.00858 41.6277 9.22125 41.5869C9.12589 41.6061 9.03293 41.6357 8.94402 41.6752C8.83472 41.7206 8.71223 41.7764 8.58316 41.8181C8.32719 41.9065 8.07195 41.9838 7.89666 41.9474L8.34821 41.7565C8.22208 41.7721 8.0962 41.7839 7.95895 41.7975C7.92531 41.7953 7.89094 41.8044 7.85698 41.8072C7.84328 41.8063 7.84203 41.8062 7.83504 41.7982C7.82806 41.7903 7.81218 41.7842 7.80005 41.7784C7.78182 41.7663 7.76071 41.7591 7.73884 41.7577C7.71697 41.7563 7.69512 41.7606 7.67547 41.7703C7.68357 41.6457 7.6974 41.7793 7.72682 41.6348C7.72115 41.722 7.77211 41.7078 7.82051 41.6947C7.8689 41.6816 7.9476 41.6642 8.00597 41.6517C8.08093 41.6341 8.14552 41.622 8.18969 41.6161C8.28044 41.6057 8.29309 41.6228 8.15778 41.7029C8.33757 41.595 8.53013 41.51 8.73097 41.4499C8.9587 41.3692 9.17879 41.2684 9.38862 41.1486C9.38587 41.1909 9.21751 41.2788 9.69392 41.1096C9.7327 41.1126 9.77165 41.1122 9.81035 41.1085L9.84247 41.0955L9.81667 41.1076C9.83909 41.1091 9.84158 41.1092 9.80754 41.1133C9.72601 41.1472 9.64914 41.1914 9.57879 41.2448C9.85364 41.2702 10.5985 40.9558 10.8783 40.9039C11.1543 40.7767 10.7441 40.9089 10.8843 40.8117C11.02 40.7843 11.1569 40.7569 11.2886 40.7129C11.2948 40.6182 11.9594 40.2486 11.2962 40.5007L11.873 40.2304C12.2143 40.0155 12.5686 39.8221 12.934 39.6514C13.0678 39.5749 13.2085 39.5111 13.3543 39.461C13.465 39.4131 13.5124 39.3962 13.3846 39.4367L14.244 38.9771L14.2455 38.9547C14.4576 38.8284 14.6622 38.6828 14.8788 38.5467C15.0953 38.4107 15.3123 38.2672 15.5317 38.125C15.7512 37.9829 15.9579 37.8049 16.167 37.6296C16.2728 37.5414 16.3763 37.4506 16.4787 37.3571C16.5808 37.2593 16.6777 37.1561 16.769 37.0482C16.9008 36.9454 17.0326 36.8427 17.1872 36.7163C17.3697 36.5692 17.5408 36.4084 17.6989 36.2354L17.7257 36.112C17.8863 35.9711 18.1007 35.7323 18.2982 35.5237C18.4957 35.3151 18.6569 35.1067 18.7483 35.0663C18.8293 34.8214 19.1775 34.4499 19.5233 34.0182C19.6998 33.8058 19.8924 33.5956 20.0559 33.3898C20.2194 33.184 20.3598 32.9867 20.4676 32.831L20.5618 32.8634C20.8715 32.4482 21.146 32.0369 21.5312 31.519L21.5813 31.5961C21.6817 31.4737 21.7688 31.3409 21.841 31.2001C21.9259 31.048 22.012 30.8784 22.1012 30.7003C22.2893 30.3472 22.4536 29.9375 22.6578 29.5479C22.5666 29.6651 22.4978 29.798 22.4546 29.9401C22.5345 29.6827 22.6387 29.4335 22.7658 29.1959C22.8854 28.9534 23.01 28.7113 23.142 28.4697C23.4102 28.0251 23.6164 27.5461 23.7551 27.0458C23.8072 26.9541 23.8516 26.8582 23.8876 26.7591C23.9147 26.6755 23.9373 26.5905 23.9554 26.5045C23.9486 26.5228 23.9407 26.5407 23.9319 26.5581L23.963 26.465C23.9835 26.3612 24.003 26.2537 24.028 26.1389C24.0173 26.2322 24.0012 26.3247 23.9799 26.4161C24.0412 26.2436 24.1419 25.9837 24.2521 25.7319L24.2036 25.5936L24.2274 25.5351C24.2722 25.269 24.3301 25.3416 24.3548 25.4996C24.4002 25.3867 24.4521 25.2764 24.5102 25.1694C24.4304 24.914 24.768 24.4943 24.693 24.1654C24.8098 24.0053 25.0927 22.849 25.264 22.735C25.2449 22.7212 25.2526 22.6404 25.2207 22.7847C25.2532 22.4909 25.3173 22.2014 25.412 21.9214L25.3254 21.7719L25.5904 21.1398C25.591 20.727 25.5783 20.556 25.4233 20.9387C25.5168 20.6646 25.5914 20.3844 25.6468 20.1C25.6967 19.8506 25.7604 19.6042 25.8374 19.3618L25.759 19.3942C25.803 19.1018 25.9333 18.6373 25.8976 18.4549C25.8657 18.1187 25.9213 17.3016 25.9592 16.3533C26.0045 15.3949 25.9834 14.4345 25.8959 13.4791C26.1252 13.8005 25.7693 12.6939 25.9344 12.6183C25.8767 12.5233 25.8307 12.2888 25.8052 12.5649C25.7953 11.6973 25.6389 11.2742 25.7168 10.6725C25.654 10.5808 25.6619 10.8628 25.621 10.7801C25.6338 10.6591 25.6244 10.5368 25.5932 10.4192C25.5523 10.3365 25.5664 10.5426 25.5583 10.686C25.4632 9.82151 25.5905 9.71094 25.7313 9.62251C25.6045 9.31156 25.5522 8.97524 25.5787 8.64048C25.4966 8.49877 25.3908 8.25918 25.4924 8.795C25.4571 8.64508 25.3363 8.19308 25.2121 7.77589C25.0878 7.3587 24.9669 6.98676 25.0155 6.95114C24.9688 6.87709 24.932 6.79732 24.9058 6.71381C24.8761 6.63634 24.8503 6.55741 24.8286 6.47733C24.6913 6.16438 24.6093 6.00141 24.5199 5.83796C24.4304 5.6745 24.344 5.50248 24.1774 5.21766C24.2155 5.26643 24.2549 5.31403 24.2929 5.36529C24.2774 5.06527 24.0312 4.86785 23.7049 4.44127L23.7034 4.4637C23.4877 4.24198 23.3506 4.11797 23.2574 4.03059C23.1643 3.94321 23.1223 3.89669 23.0779 3.84751C23.0216 3.78476 22.9591 3.72788 22.8913 3.67774C22.73 3.55514 22.5577 3.44762 22.3767 3.35652L22.4806 3.31699C22.4842 3.26217 22.4242 3.20322 22.3245 3.13919C22.1938 3.06668 22.0565 3.00665 21.9146 2.9599C21.5796 2.83928 21.1749 2.75166 20.843 2.62373C20.9289 2.62932 21.0149 2.63491 21.1008 2.6405C20.9266 2.5491 20.6443 2.54325 20.3685 2.57035C20.0928 2.59746 19.821 2.65986 19.6328 2.64763C19.5496 2.65723 19.7556 2.68438 19.8715 2.71068C19.3792 2.71871 19.3492 2.69925 19.3512 2.64933C19.3532 2.59942 19.3874 2.53533 19.0133 2.51601C18.8765 2.58093 19.1883 2.67252 18.6916 2.69276C18.5646 2.72204 18.2067 2.68375 17.782 2.69242C17.5642 2.69526 17.3466 2.71161 17.1308 2.7414C16.9329 2.76386 16.7387 2.81222 16.5534 2.88527C16.6925 2.80548 16.8328 2.72578 16.48 2.76414C16.4129 2.77604 16.3405 2.7926 16.2654 2.81274C16.1903 2.83287 16.1132 2.8629 16.0326 2.89143C15.8722 2.95232 15.7008 3.00998 15.5348 3.08051C15.376 3.1494 15.2138 3.21026 15.0488 3.26285C14.9122 3.31355 14.7696 3.34633 14.6246 3.36037C14.5646 3.39776 14.5457 3.41905 14.5474 3.43167C14.4977 3.44595 14.4402 3.46348 14.3777 3.48194C14.3152 3.50039 14.2495 3.5299 14.1803 3.55543L13.7403 3.72199C13.5154 3.82601 13.2835 3.91419 13.0463 3.98588C13.0013 4.10181 12.8375 4.23379 12.6186 4.36843C12.5125 4.4416 12.3936 4.51895 12.2673 4.5958L12.076 4.70848C12.0135 4.74695 11.9456 4.79008 11.8892 4.8302L11.5321 5.06846C11.4232 5.1477 11.3279 5.22659 11.2481 5.30021C11.0914 5.44015 11.0045 5.5446 11.0561 5.598L10.6118 6.04328L10.1874 6.50862L10.2316 6.50273C9.74113 7.13768 9.55104 7.34801 9.33155 7.54893C9.2565 7.72171 9.34594 7.61618 9.36628 7.61124L9.18822 7.96374L9.10077 8.11569C9.0776 8.16423 9.05957 8.2106 9.04054 8.25315C8.96409 8.42834 8.89497 8.56772 8.82883 8.69979C8.76269 8.83186 8.71267 8.96623 8.63567 9.11135C8.5995 9.18657 8.54931 9.26588 8.51108 9.35347L8.37432 9.66736L8.43598 9.79648C8.41473 9.84295 8.39777 9.89126 8.38531 9.94082C8.37229 10.0063 8.35947 10.088 8.34544 10.1884C8.30845 10.4181 8.28421 10.6495 8.27282 10.8818C8.22187 11.4153 8.2504 12.0539 8.23415 12.6309C8.24501 12.6178 8.25411 12.5934 8.26508 12.5015C8.2665 12.6695 8.27731 12.8373 8.29746 13.0041C8.31405 13.1796 8.34457 13.3535 8.38875 13.5242L8.45103 13.7785C8.47293 13.865 8.50637 13.9472 8.53325 14.034L8.61861 14.2798C8.64357 14.3603 8.67354 14.4391 8.70835 14.5159C8.77479 14.6678 8.83665 14.8132 8.89019 14.9518C8.94373 15.0904 9.01352 15.21 9.05715 15.328C9.09791 15.4316 9.1328 15.5375 9.16164 15.645C9.18971 15.7262 9.20197 15.8119 9.19776 15.8976L9.28777 16.0911C9.31602 16.1567 9.34867 16.2203 9.38549 16.2814L9.60285 16.6521C9.26621 16.2111 9.25284 16.2628 9.29888 16.3821C9.34491 16.5015 9.42696 16.702 9.26681 16.5289C9.33454 16.6289 9.40763 16.7251 9.48578 16.8171C9.5565 16.8976 9.63567 16.9703 9.7219 17.0339C9.85403 17.1376 9.90503 17.1422 9.72838 16.9343L9.65928 16.881C9.66738 16.7564 9.90156 17.0031 10.1549 17.2623C10.2923 17.3825 10.4331 17.5068 10.5412 17.5939C10.6494 17.681 10.7369 17.7217 10.7485 17.6962C11.5938 18.3767 12.6056 18.8053 13.629 19.0946C14.141 19.2377 14.6599 19.3549 15.1838 19.4459C15.3138 19.4669 15.4435 19.4916 15.5737 19.5101L15.9644 19.5617C16.2238 19.5949 16.481 19.6416 16.74 19.6597L16.4827 19.7681L17.2079 19.8328C17.4015 19.8191 17.471 19.7498 16.956 19.705C17.1362 19.6916 17.3173 19.7119 17.4901 19.7648C17.6076 19.7842 17.7218 19.8194 17.8298 19.8695C18.8461 19.8642 17.4423 19.6916 17.7543 19.7032L18.1742 19.7305L18.0784 19.7417C18.2474 19.7778 18.3391 19.8112 18.4674 19.8384C18.6666 19.8687 18.8684 19.8793 19.0697 19.87C19.4642 19.8431 19.2703 19.7855 19.4258 19.7806C19.4264 19.7706 19.4766 19.7689 19.663 19.7685C19.9659 19.7481 20.2695 19.7353 20.5726 19.71C20.4544 19.7586 20.3344 19.7946 20.2152 19.8382C20.3153 19.8465 20.4157 19.8497 20.5161 19.8477C20.609 19.8425 20.6907 19.8378 20.7472 19.834C20.8588 19.8312 20.8718 19.8421 20.6623 19.9273C20.9197 19.8442 21.185 19.7881 21.4539 19.7598C21.6298 19.73 21.822 19.6987 22.0206 19.6653C22.2192 19.6319 22.4258 19.6091 22.6286 19.5685C22.8315 19.5279 23.0326 19.4934 23.2227 19.457C23.3176 19.4394 23.41 19.4229 23.4987 19.4061L23.7527 19.3476C23.9711 19.3019 24.1869 19.2449 24.3994 19.1769C24.687 19.1387 24.9718 19.0824 25.2523 19.0084C25.4029 18.9723 25.5515 18.9286 25.6975 18.8772L26.1709 18.7166C26.0134 18.7902 25.9534 18.9439 26.5222 18.7394C26.2299 18.5791 27.5244 18.2579 27.8927 17.884C27.8044 17.9533 27.8597 17.9494 27.9825 17.9086C28.0438 17.8888 28.1221 17.8589 28.2093 17.8258C28.2965 17.7926 28.3856 17.7496 28.477 17.7105C28.8401 17.5527 29.1794 17.4134 28.9085 17.636C29.3542 17.401 28.897 17.5427 29.2106 17.3191C30.3245 16.8698 31.48 15.9929 32.6738 15.1434C32.7117 15.1559 32.5455 15.3465 32.8269 15.1934L33.3565 14.5723C33.5891 14.3998 33.6821 14.5484 34.018 14.1149C33.9785 14.1836 33.9192 14.2874 34.0757 14.1699C34.2084 14.0534 34.3423 13.9183 34.4682 13.7913L34.8681 13.4132L35.6442 12.638C35.8944 12.3677 36.1505 12.1041 36.3985 11.8313L36.7635 11.4134C36.8839 11.2736 37.008 11.1352 37.1214 10.9887C38.0555 9.84091 38.8697 8.57519 39.3941 7.2068C39.2706 7.58661 39.3957 7.35578 39.5355 7.09088C39.4598 7.27362 39.611 7.12331 39.6324 7.1785C39.7123 6.98853 39.7763 6.79251 39.8416 6.59658L40.0372 6.01377C40.1374 5.93521 40.2585 5.63031 40.3766 5.33522C40.4946 5.04013 40.5872 4.75089 40.6674 4.71106L40.5185 5.07671C40.6644 4.85349 40.6889 5.05401 40.6775 5.30475C40.6662 5.55549 40.6412 5.86413 40.7363 5.86281C40.6422 6.00524 40.567 6.15933 40.5126 6.32118C40.4448 6.49818 40.3843 6.69818 40.3168 6.90898C40.2811 7.01426 40.2478 7.12343 40.2058 7.2308C40.1637 7.33817 40.1131 7.44372 40.0599 7.55035C39.9549 7.77054 39.8208 7.9756 39.6611 8.15999C39.5853 8.36399 39.8035 8.02912 39.7869 8.1494C39.5941 8.32578 39.4375 8.57833 39.184 9.07105L39.2343 9.02927C39.0206 9.35317 38.8433 9.63566 38.6774 9.89761C38.5115 10.1596 38.3412 10.3925 38.1842 10.6325C37.8553 11.1115 37.5113 11.6109 36.9505 12.2888L36.9669 12.1322C36.7363 12.4275 36.6935 12.4898 36.5922 12.6433C36.3959 12.7557 36.5737 12.5608 36.7543 12.3623C36.9349 12.1639 37.0993 11.9444 36.9175 12.0464C36.8827 12.1269 36.8399 12.2038 36.79 12.2758C36.7291 12.3645 36.6527 12.4621 36.5583 12.5673C36.4639 12.6725 36.369 12.7852 36.2639 12.901L36.1036 13.0769L35.9336 13.2473C35.705 13.4727 35.4862 13.7011 35.309 13.886C35.1699 14.0079 35.0551 14.155 34.9706 14.3194C34.5424 14.7095 35.028 14.1292 34.5998 14.518L34.5182 14.6578L34.3605 14.6976C34.0764 14.9481 33.9737 15.1241 33.9917 15.1741C34.0596 15.1109 34.2021 15.0164 34.2811 14.9565C34.1819 15.0601 34.0769 15.1581 33.9667 15.25C33.8476 15.3511 33.7114 15.4436 33.5867 15.5331C33.335 15.7107 33.1138 15.8602 33.0524 15.92L33.4753 15.5546C33.3139 15.6692 33.1501 15.7837 32.9818 15.9091L32.4581 16.2667L32.1959 16.451L31.9218 16.6259L31.3722 16.9768C31.1872 17.0898 30.996 17.2025 30.8092 17.3042C30.6225 17.4059 30.4386 17.5203 30.2488 17.6106C29.8916 17.7971 29.5249 17.9649 29.1502 18.1134L29.2359 18.0264C28.6952 18.2414 28.494 18.3535 28.2704 18.464C28.1604 18.5207 28.048 18.5747 27.8828 18.6528C27.8028 18.6901 27.7113 18.7304 27.6033 18.776C27.4952 18.8215 27.3647 18.8656 27.2187 18.9186L27.2654 18.9116C27.1386 18.9372 26.9935 18.9753 26.8391 19.0215C26.6847 19.0678 26.5233 19.1261 26.3584 19.1804C26.6809 19.1264 25.8122 19.4602 26.2316 19.3799C25.9249 19.4588 25.7328 19.5076 25.6047 19.5355C25.5214 19.5524 25.4371 19.5632 25.3523 19.5679C25.1581 19.561 24.9637 19.568 24.7705 19.5889L24.6041 19.7032C24.2869 19.6911 23.9697 19.7262 23.6628 19.8071C24.1822 19.7471 23.2897 20.0031 23.8752 19.946C23.5964 20.0454 23.3089 20.1184 23.0165 20.1642C22.89 20.186 22.7637 20.2041 22.6552 20.2183C22.5467 20.2325 22.4326 20.2363 22.3307 20.2447C21.9237 20.2695 21.6124 20.3043 21.3172 20.4378C21.0001 20.3709 21.2874 20.3195 21.6067 20.2777C21.9259 20.2359 22.2795 20.1851 22.1069 20.1851C22.2453 20.1341 22.1113 20.1166 21.8996 20.1203C21.7918 20.1233 21.6624 20.1324 21.5353 20.1429C21.4153 20.1473 21.2956 20.1579 21.1767 20.1747C20.9582 20.2133 20.7444 20.2753 20.5391 20.3597C20.1693 20.4657 19.787 20.522 19.4022 20.5272C19.51 20.5254 19.5176 20.5422 19.624 20.5416C19.4215 20.5635 19.2172 20.5632 19.0148 20.5408C18.7886 20.5241 18.5615 20.5278 18.336 20.5517C18.0629 20.4226 17.692 20.5273 17.6215 20.3801C17.9491 20.4014 18.2769 20.4403 18.6049 20.4566C18.0444 20.3989 17.5361 20.2119 16.6201 20.1949C16.7893 20.2565 16.9632 20.3042 17.1401 20.3376C16.8675 20.3536 16.627 20.2629 16.3462 20.2709C16.3745 20.3553 16.6738 20.3898 17.0377 20.4297C17.4017 20.4697 17.8306 20.4926 18.13 20.5633C17.9157 20.5727 17.701 20.5588 17.4897 20.5217C17.2816 20.4894 17.1451 20.4718 17.289 20.5674C17.0806 20.4438 16.8167 20.4241 16.5138 20.4069C16.1769 20.391 15.8441 20.3272 15.5252 20.2175L15.5577 20.3135C15.4457 20.2849 15.2161 20.1999 15.0071 20.1613L15.3704 20.3463C14.8043 20.1444 14.2236 20.2055 13.6767 19.996C13.8555 20.0511 14.0379 20.0935 14.2227 20.1228C14.3124 20.1287 14.3279 20.1209 14.3229 20.1018C14.3117 20.0623 14.2196 19.9975 14.4732 20.0215C13.771 19.7969 13.557 19.778 13.3107 19.7758C13.1594 19.7749 13.0087 19.7576 12.8611 19.724C12.5673 19.6534 12.2827 19.5489 12.0131 19.4124C12.2185 19.5246 12.8295 19.6919 12.5065 19.5208L12.0169 19.3551C11.8543 19.297 11.7036 19.2471 11.6052 19.222C10.6197 18.6574 11.7983 19.2345 11.4027 18.9498C11.2438 18.913 11.0985 18.832 10.9837 18.7161L10.805 18.5406C10.7305 18.4635 10.6517 18.3907 10.5689 18.3226L10.513 18.394C10.38 18.3028 10.28 18.225 10.2027 18.1637C10.1452 18.1128 10.0911 18.0583 10.0406 18.0005C9.99403 17.954 9.96106 17.8956 9.94527 17.8316C9.93358 17.776 9.9071 17.7246 9.86862 17.6828C9.83975 17.6459 9.79102 17.6064 9.73519 17.5415C9.67936 17.4766 9.60066 17.3976 9.50093 17.2961L9.61149 17.5197C9.64755 17.5958 9.6892 17.6692 9.73609 17.7392C9.66557 17.6665 9.59955 17.5895 9.53839 17.5087L9.35779 17.2655L9.36361 17.426C9.16304 17.1627 9.05684 16.9682 8.93049 16.7948C8.86997 16.7058 8.79759 16.626 8.73289 16.5242L8.50536 16.1754C8.57096 16.2247 8.59506 16.1812 8.56822 16.0744C8.51054 15.885 8.43893 15.7001 8.35397 15.5212C8.24807 15.3604 8.25066 15.4169 8.23522 15.4234C8.21979 15.4299 8.18725 15.3915 8.05799 15.0128C8.05996 15.1171 8.07206 15.2209 8.09413 15.3229C8.13903 15.461 8.21063 15.5889 8.30485 15.6994C8.29313 15.745 8.3314 15.8876 8.32085 15.9344C8.18851 15.7303 8.07687 15.5135 7.9876 15.2872L7.79729 14.6931C7.83422 14.7929 7.87763 14.8901 7.92723 14.9843L7.85443 14.6993L7.80056 14.4118L7.75176 14.1234L7.7286 13.9792L7.71674 13.8346C7.64786 13.6624 7.64952 13.8102 7.65133 13.9554C7.61781 13.7205 7.61737 13.5541 7.57455 13.2123C7.51176 13.312 7.43243 13.3006 7.49395 13.7976C7.47487 13.6099 7.4435 13.419 7.43407 13.2369L7.4104 12.6774C7.36486 12.6081 7.29852 12.1084 7.27393 12.2557C7.23049 11.9426 7.28675 11.5584 7.34547 11.1556C7.38608 10.9543 7.42694 10.7493 7.46072 10.5375C7.49451 10.3258 7.54626 10.1265 7.56975 9.91906C7.61062 9.8259 7.64607 9.73046 7.67592 9.63321C7.72303 9.44735 7.76501 9.26367 7.8069 9.08123C7.84879 8.89879 7.91651 8.72303 7.97717 8.54056C8.04105 8.35285 8.11985 8.17054 8.2128 7.99539C8.25883 7.9033 8.30626 7.8088 8.35618 7.71446C8.4061 7.62012 8.47813 7.53222 8.54541 7.44026C8.59405 7.26952 8.63437 7.09198 8.70394 6.92636C8.91689 6.63368 8.85158 6.81085 8.82909 6.92574C8.80661 7.04063 8.81678 7.1151 9.15791 6.6406C9.69227 6.0035 9.25597 6.32544 9.40653 6.06875L9.53922 5.95226C9.58807 5.9129 9.63841 5.86988 9.69264 5.82462C9.80104 5.73533 9.91772 5.63407 10.0364 5.52168C10.155 5.40929 10.2935 5.30069 10.4207 5.17134C10.548 5.042 10.6804 4.91049 10.8074 4.76611C10.7125 4.83404 10.6213 4.90704 10.5342 4.9848C10.437 5.07482 10.361 5.14744 10.2732 5.22806ZM18.0454 1.81626C17.8773 1.80532 17.5379 1.79076 17.4169 1.86171C17.626 1.93661 17.7643 1.86929 18.0454 1.81626ZM26.2107 10.1191C26.2122 9.94598 26.1809 9.77415 26.1186 9.61266C26.1381 9.78332 26.1689 9.9525 26.2107 10.1191ZM12.3217 40.0832C12.3271 40.0832 12.3325 40.0835 12.3379 40.0843C12.6339 39.8796 12.5354 39.952 12.3217 40.0832ZM11.6734 40.4326C11.6009 40.4517 11.6005 40.4379 11.6233 40.4144C11.7544 40.3806 11.8803 40.3291 11.9973 40.261C11.9054 40.3447 11.7946 40.4049 11.6744 40.4365L11.6734 40.4326ZM19.5209 19.7993L19.3779 19.8237C19.7038 19.8537 19.6131 19.824 19.5219 19.8031L19.5209 19.7993Z" fill="#F0ECDD"/>
<path d="M26.0807 8.66031C26.0678 8.63325 26.0448 8.61235 26.0166 8.60213C26.0209 8.53583 26.0376 8.53063 26.0807 8.66031Z" fill="#F0ECDD"/>
<path d="M7.56622 9.89876L7.56451 9.92503C7.55943 9.93465 7.55198 9.94281 7.54287 9.94875L7.56622 9.89876Z" fill="#F0ECDD"/>
<path d="M21.0073 33.709C21.0644 33.6236 21.1123 33.5323 21.1502 33.4368C21.171 33.4432 21.1441 33.5115 21.0073 33.709Z" fill="#F0ECDD"/>
<path d="M7.97051 41.5609L8.4327 41.4759C8.29511 41.5052 8.16074 41.548 8.03154 41.6037C8.0334 41.575 8.11272 41.5289 7.97051 41.5609Z" fill="#F0ECDD"/>
<path d="M7.36916 42.2713C7.35722 42.2618 7.3479 42.27 7.33664 42.2692L7.33057 42.2274C7.37258 42.2188 7.40848 42.2463 7.36916 42.2713Z" fill="#F0ECDD"/>
<path d="M7.82333 41.9053C7.83471 41.9814 7.78799 41.9658 7.7392 41.9626C7.74203 41.9635 7.74504 41.9637 7.74796 41.9632C7.71194 41.8604 7.76701 41.8828 7.82333 41.9053Z" fill="#F0ECDD"/>
<path d="M7.72957 41.9623C7.71479 41.9608 7.69987 41.9633 7.68639 41.9696C7.67289 41.926 7.70229 41.9568 7.72957 41.9623Z" fill="#F0ECDD"/>
<path d="M10.8028 40.759C10.6641 40.8326 10.6813 40.7036 10.6048 40.7637C10.5056 40.751 10.7576 40.6848 10.9335 40.6537C11.022 40.6394 11.0913 40.6314 11.0868 40.6436C11.0822 40.6558 11.006 40.6934 10.8028 40.759Z" fill="#F0ECDD"/>
<path d="M7.84172 42.1582L7.83789 42.0625L7.87994 42.1306L7.84172 42.1582Z" fill="#F0ECDD"/>
<path d="M9.93289 41.4963L9.42918 41.6813C9.43031 41.6638 9.36439 41.6771 9.2832 41.6943C9.6026 41.5925 9.94106 41.4668 9.93289 41.4963Z" fill="#F0ECDD"/>
<path d="M9.29439 41.6934C9.15859 41.7405 9.01987 41.7787 8.87909 41.8078C8.96226 41.7794 9.15359 41.723 9.29439 41.6934Z" fill="#F0ECDD"/>
<path d="M8.12192 42.1199L8.27198 42.0634L8.63972 41.9684L8.12192 42.1199Z" fill="#F0ECDD"/>
<path d="M15.037 38.8652L15.5316 38.5508C15.5984 38.5427 15.4801 38.6501 15.2937 38.7656C15.1658 38.8273 14.9782 38.9415 15.037 38.8652Z" fill="#F0ECDD"/>
<path d="M13.6782 40.0394C13.7504 39.9838 13.813 39.9169 13.8638 39.8413L13.938 39.9312L13.6782 40.0394Z" fill="#F0ECDD"/>
<path d="M15.1457 39.1352C15.2125 39.1283 15.9036 38.7166 15.284 39.1442C15.2147 39.1522 14.7161 39.4701 15.1457 39.1352Z" fill="#F0ECDD"/>
<path d="M21.285 32.7836L21.1959 32.9029L21.0527 32.7773L21.285 32.7836Z" fill="#F0ECDD"/>
<path d="M25.1178 25.9278C24.9308 26.6101 24.9523 26.0485 24.798 26.6702C24.7013 26.8103 24.9236 26.1629 24.8315 26.3096C25.0155 25.9237 25.0623 25.704 25.1178 25.9278Z" fill="#F0ECDD"/>
<path d="M24.8315 26.3092C24.8025 26.3711 24.7695 26.4365 24.7338 26.5043C24.7625 26.4374 24.7951 26.3722 24.8315 26.3092Z" fill="#F0ECDD"/>
<path d="M40.2399 5.22376L40.3011 5.0138L40.3525 4.79945C40.3463 4.89538 40.3399 4.9938 40.32 5.0876L40.2399 5.22376Z" fill="#F0ECDD"/>
<path d="M40.6523 4.47773L40.5695 4.34723L40.7628 4.12584C40.7097 4.23739 40.6725 4.35584 40.6523 4.47773Z" fill="#F0ECDD"/>
<path d="M19.3476 1.5348L19.3832 1.56464C19.2483 1.59391 19.1099 1.60428 18.9721 1.59546C19.0962 1.57225 19.2214 1.55162 19.3476 1.5348Z" fill="#F0ECDD"/>
<path d="M13.2191 3.02315L13.3139 2.97051L13.1838 3.16222L13.2191 3.02315Z" fill="#F0ECDD"/>
<path d="M9.01307 6.31083C9.08019 6.22136 9.15752 6.1288 9.2361 6.03633C9.31468 5.94385 9.39084 5.84996 9.46503 5.76721C9.38985 5.84461 9.32346 5.93009 9.26705 6.02207C9.21685 6.10138 9.17735 6.17013 9.1463 6.22441C9.08303 6.33164 9.05013 6.37579 9.01307 6.31083Z" fill="#F0ECDD"/>
<path d="M14.6639 45.9895C14.6919 45.9838 14.6793 46.0621 14.6834 46.0762C14.6407 46.0571 14.6652 45.9695 14.6639 45.9895Z" fill="#F0ECDD"/>
<path d="M14.205 45.7968L14.2129 45.83L14.1465 45.749L14.205 45.7968Z" fill="#F0ECDD"/>
<path d="M13.7713 45.7845C13.8174 45.6524 13.9285 45.811 14.0065 45.766L14.0209 45.7357L14.0514 45.8453C13.9589 45.8242 13.8386 45.7501 13.7713 45.7845Z" fill="#F0ECDD"/>
<path d="M13.5308 46.0606C13.5467 46.0089 13.4824 46.0135 13.5858 46.0453L13.5749 46.0584C13.5602 46.0573 13.5454 46.0581 13.5308 46.0606Z" fill="#F0ECDD"/>
<path d="M13.5743 46.0639C13.6206 46.0669 13.5439 46.1071 13.5743 46.0639V46.0639Z" fill="#F0ECDD"/>
<path d="M13.3655 46.0262L13.4238 46.0753C13.4105 46.1058 13.3562 46.1111 13.3748 46.1336C13.3138 46.1058 13.3284 46.0753 13.3655 46.0262Z" fill="#F0ECDD"/>
<path d="M13.3121 45.9209L13.3422 45.9417C13.336 45.9601 13.3281 45.9646 13.3121 45.9209Z" fill="#F0ECDD"/>
<path d="M13.4067 45.9916L13.3417 45.9472C13.3519 45.9265 13.3547 45.8827 13.372 45.9643C13.3683 45.9251 13.3797 45.9623 13.4067 45.9916Z" fill="#F0ECDD"/>
<path d="M13.4451 45.9737C13.4795 45.9458 13.5246 45.9286 13.4649 45.8808C13.5803 45.9034 13.5592 45.9962 13.4451 45.9737Z" fill="#F0ECDD"/>
<path d="M13.7539 45.6465L13.8003 45.6093L13.8387 45.6558C13.8201 45.6319 13.7499 45.6877 13.7539 45.6465Z" fill="#F0ECDD"/>
<path d="M12.9877 46.0823C12.9937 46.0444 13.0033 46.0072 13.0163 45.9711L13.0606 46.0054C13.0364 46.0289 12.9918 46.0399 12.9877 46.0823Z" fill="#F0ECDD"/>
<path d="M13.0201 45.9704L12.9556 45.9184C13.0111 45.9145 13.0222 45.9378 13.0201 45.9704Z" fill="#F0ECDD"/>
<path d="M13.3064 45.778L13.4126 45.8842L13.2852 45.7754L13.3064 45.778Z" fill="#F0ECDD"/>
<path d="M12.733 46.0745L12.7688 46.1422L12.7051 46.04L12.733 46.0745Z" fill="#F0ECDD"/>
<path d="M12.5656 46.056C12.5909 46.1116 12.5233 46.1462 12.5575 46.1811C12.508 46.1594 12.4665 46.1229 12.4387 46.0766C12.4709 46.1026 12.5114 46.0977 12.5656 46.056Z" fill="#F0ECDD"/>
<path d="M12.3776 46.0127C12.3997 46.0312 12.419 46.0528 12.435 46.0767C12.4117 46.0596 12.3921 46.0378 12.3776 46.0127Z" fill="#F0ECDD"/>
<path d="M12.8387 45.9291C12.835 45.9454 12.8281 45.9609 12.8184 45.9745C12.8087 45.9881 12.7963 45.9996 12.782 46.0083L12.8124 45.9287L12.8387 45.9291Z" fill="#F0ECDD"/>
<path d="M12.813 45.9246L12.755 45.9272L12.813 45.9246Z" fill="#F0ECDD"/>
<path d="M12.8452 45.9304C12.8399 45.9212 12.8431 45.9171 12.8452 45.9304V45.9304Z" fill="#F0ECDD"/>
<path d="M13.1296 45.8449C13.0924 45.7985 13.0104 45.7467 13.0937 45.6818C13.1202 45.7375 13.0735 45.781 13.1296 45.8449Z" fill="#F0ECDD"/>
<path d="M12.8813 45.8296L12.9526 45.8141C12.9512 45.8354 12.9367 45.8659 12.9553 45.8884L12.8813 45.8296Z" fill="#F0ECDD"/>
<path d="M12.8481 45.8027L12.8815 45.83L12.8548 45.8358L12.8481 45.8027Z" fill="#F0ECDD"/>
<path d="M12.5028 45.9436C12.4904 45.929 12.4752 45.9172 12.4579 45.909C12.4407 45.9007 12.422 45.8962 12.4029 45.8957C12.4435 45.8811 12.4866 45.8745 12.5298 45.8763C12.5306 45.9015 12.5465 45.9477 12.5028 45.9436Z" fill="#F0ECDD"/>
<path d="M12.6538 45.9271C12.648 45.9148 12.6561 45.9127 12.6538 45.9271V45.9271Z" fill="#F0ECDD"/>
<path d="M12.0325 45.8801L12.0388 45.8646L12.0405 45.8793L12.0325 45.8801Z" fill="#F0ECDD"/>
<path d="M12.5341 45.8624C12.5651 45.8481 12.5816 45.8655 12.5986 45.8943C12.5753 45.8847 12.5507 45.8789 12.5256 45.877C12.526 45.8707 12.5268 45.8582 12.5341 45.8624Z" fill="#F0ECDD"/>
<path d="M12.2766 45.9708C12.2933 45.9552 12.3115 45.9413 12.3308 45.9291C12.3141 45.9544 12.2815 45.9925 12.2766 45.9708Z" fill="#F0ECDD"/>
<path d="M12.6363 45.9455C12.6296 45.9663 12.6315 45.9584 12.6363 45.9455V45.9455Z" fill="#F0ECDD"/>
<path d="M12.6363 45.945C12.6209 45.93 12.6081 45.9127 12.5982 45.8936C12.6162 45.9007 12.633 45.9107 12.6478 45.9232C12.6428 45.9298 12.6389 45.9372 12.6363 45.945Z" fill="#F0ECDD"/>
<path d="M11.9447 45.3618C11.9399 45.4353 12.0227 45.5082 12.0952 45.4329C12.1602 45.4909 12.1045 45.7325 12.0382 45.8658C12.0404 45.8334 12.0423 45.8035 11.9715 45.7564C11.9979 45.7168 12.1311 45.6692 12.0756 45.5992C11.9845 45.557 11.9991 45.6218 11.9466 45.6584C11.99 45.5687 11.8306 45.5183 11.8631 45.384L11.9411 45.4354C11.9487 45.4146 11.9209 45.3803 11.9447 45.3618Z" fill="#F0ECDD"/>
<path d="M12.1728 45.864L12.201 45.8746C12.1676 45.8863 12.1431 45.9148 12.0967 45.9709C12.0811 45.9608 12.0678 45.9473 12.058 45.9315C12.0481 45.9156 12.042 45.8978 12.0399 45.8792L12.1821 45.8759L12.1728 45.864Z" fill="#F0ECDD"/>
<path d="M12.329 45.8801C12.3105 45.7988 12.2428 45.7619 12.2897 45.6761C12.3732 45.6815 12.3452 45.746 12.3941 45.783C12.2594 45.7567 12.431 45.8304 12.3308 45.8714C12.3536 45.883 12.3779 45.8913 12.403 45.8961C12.378 45.9048 12.3538 45.9158 12.3308 45.929C12.3314 45.919 12.3393 45.9133 12.3314 45.919C12.3236 45.9248 12.3314 45.919 12.3314 45.919C12.3311 45.9087 12.3293 45.8984 12.3259 45.8886C12.2862 45.9036 12.3246 45.9086 12.3314 45.919L12.3306 45.9315L12.1963 45.8814C12.2397 45.8702 12.2853 45.8698 12.329 45.8801Z" fill="#F0ECDD"/>
<path d="M13.0296 45.5056C13.0276 45.512 13.0271 45.5188 13.0283 45.5254C13.0157 45.5153 13.0123 45.5071 13.0296 45.5056Z" fill="#F0ECDD"/>
<path d="M12.9708 45.5518C12.98 45.5637 12.9866 45.5966 13.0196 45.59C13.0525 45.5834 13.0221 45.5514 13.0239 45.524C13.0424 45.5465 13.0888 45.5845 13.0263 45.6217L13.017 45.6099C12.9615 45.6363 12.8844 45.7264 12.8969 45.7447C12.9119 45.6771 12.9368 45.6121 12.9708 45.5518Z" fill="#F0ECDD"/>
<path d="M12.6478 45.6963L12.5364 45.6514L12.5973 45.5837L12.5945 45.6263C12.657 45.6127 12.6411 45.6632 12.6478 45.6963Z" fill="#F0ECDD"/>
<path d="M12.0177 45.918L12.0284 46.0041L11.9686 45.8809L12.0177 45.918Z" fill="#F0ECDD"/>
<path d="M11.8709 45.9016L11.8723 45.9758L11.8351 45.9294L11.8709 45.9016Z" fill="#F0ECDD"/>
<path d="M3.07536 43.2679L3.12819 43.2475C3.11205 43.2576 3.09411 43.2645 3.07536 43.2679Z" fill="#F0ECDD"/>
<path d="M2.79436 43.5297L2.76306 43.5088C2.7955 43.5122 2.80644 43.5179 2.79436 43.5297Z" fill="#F0ECDD"/>
<path d="M6.26639 45.4976C6.18194 45.56 6.08504 45.6592 6.103 45.5762L6.13448 45.4978C6.17683 45.5148 6.22409 45.5147 6.26639 45.4976Z" fill="#F0ECDD"/>
<path d="M2.41022 44.587L2.44546 44.5666C2.44718 44.5934 2.45048 44.6201 2.45534 44.6464C2.43928 44.6274 2.42422 44.6076 2.41022 44.587Z" fill="#F0ECDD"/>
<path d="M2.58121 44.2739C2.55013 44.2882 2.51655 44.3024 2.48055 44.3151C2.51301 44.2988 2.54666 44.2851 2.58121 44.2739Z" fill="#F0ECDD"/>
<path d="M4.67657 41.9219L4.77833 41.9411C4.70748 42.0068 4.71014 41.9467 4.67657 41.9219Z" fill="#F0ECDD"/>
<path d="M9.61627 45.741C9.56272 45.7644 9.50516 45.7773 9.44673 45.7789C9.5323 45.738 9.60065 45.6721 9.61627 45.741Z" fill="#F0ECDD"/>
<path d="M2.38315 42.7326C2.41648 42.7222 2.43767 42.7248 2.44944 42.7369C2.41586 42.751 2.39068 42.7519 2.38315 42.7326Z" fill="#F0ECDD"/>
<path d="M9.25477 45.7667C9.26646 45.76 9.27792 45.757 9.29086 45.7503C9.34039 45.7701 9.39321 45.7803 9.44654 45.7805C9.41796 45.8008 9.38318 45.8105 9.34819 45.808C9.3132 45.8055 9.28017 45.7909 9.25477 45.7667Z" fill="#F0ECDD"/>
<path d="M10.2306 36.7619C10.2316 36.7554 10.232 36.7488 10.2319 36.7422C10.242 36.7495 10.2416 36.7547 10.2306 36.7619Z" fill="#F0ECDD"/>
<path d="M11.3094 34.6645C11.2843 34.6819 11.2604 34.7009 11.2379 34.7214C11.2569 34.6971 11.2814 34.6776 11.3094 34.6645Z" fill="#F0ECDD"/>
<path d="M11.0688 45.9004C11.1189 45.9036 11.0758 45.9096 11.0688 45.9004V45.9004Z" fill="#F0ECDD"/>
<path d="M11.3284 45.587C11.3224 45.5822 11.3176 45.5761 11.3143 45.5691C11.3111 45.5622 11.3095 45.5546 11.3096 45.5469C11.3109 45.5621 11.3175 45.5763 11.3284 45.587Z" fill="#F0ECDD"/>
<path d="M8.79684 45.2267C8.8084 45.2116 8.80559 45.2141 8.79684 45.2267V45.2267Z" fill="#F0ECDD"/>
<path d="M11.1503 45.8635C11.1296 45.8735 11.1076 45.8806 11.0849 45.8844C11.1061 45.8756 11.128 45.8687 11.1503 45.8635Z" fill="#F0ECDD"/>
<path d="M11.1336 45.9055C11.1498 45.9065 11.1636 45.9074 11.1766 45.9007C11.1896 45.894 11.1768 45.9171 11.1336 45.9055Z" fill="#F0ECDD"/>
<path d="M10.9997 45.8879C11.0267 45.8897 11.0538 45.8881 11.0804 45.8831C11.0717 45.8826 11.066 45.8922 11.0695 45.8962C11.0542 45.9003 11.0334 45.8914 10.9997 45.8879Z" fill="#F0ECDD"/>
<path d="M7.08416 39.3382C7.08416 39.3382 7.08465 39.3307 7.08497 39.3257C7.14708 39.3172 7.12634 39.3272 7.08416 39.3382Z" fill="#F0ECDD"/>
<path d="M4.89246 44.4531C4.95674 44.5611 5.00108 44.5528 5.0596 44.5378L4.97726 44.7652L4.89246 44.4531Z" fill="#F0ECDD"/>
<path d="M3.76713 42.6741L3.72434 42.8127C3.91665 42.7989 3.96972 42.6947 3.95211 42.85C3.76713 42.6741 3.5755 43.1583 3.39176 42.9825L3.36676 43.0784C3.38168 43.0606 3.39489 43.069 3.41106 43.0513C3.37443 43.2491 3.19828 42.9949 3.07108 43.1618C3.03074 43.2242 3.01813 43.2834 3.075 43.2746L2.91457 43.3368C2.88224 43.3722 2.92065 43.3972 2.95173 43.3617L2.75806 43.5118L2.76429 43.5122C2.69769 43.509 2.63094 43.5118 2.56483 43.5205C2.5441 43.5892 2.60594 43.5231 2.61645 43.5538L2.4746 43.5997C2.47522 43.6083 2.47776 43.6167 2.48203 43.6243C2.4863 43.6319 2.49219 43.6384 2.49929 43.6434C2.50638 43.6484 2.5145 43.6518 2.52306 43.6533C2.53161 43.6548 2.54039 43.6543 2.54877 43.652C2.59435 43.6444 2.63599 43.6215 2.66684 43.5871C2.70551 43.7235 2.67504 43.7303 2.62058 43.7405L2.5994 43.7391C2.59317 43.7387 2.59068 43.7386 2.5857 43.7383C2.57763 43.7358 2.5691 43.7353 2.56078 43.7366C2.54659 43.7432 2.53649 43.7638 2.55673 43.7989C2.5751 43.7954 2.59364 43.7929 2.61227 43.7913C2.66003 43.8457 2.6765 43.8618 2.68558 43.8761C2.69465 43.8905 2.69915 43.8983 2.74685 43.9151C2.69815 43.9014 2.65218 43.8793 2.61096 43.85C2.5619 43.8155 2.51973 43.7715 2.46551 43.778C2.47036 43.7996 2.46324 43.8129 2.38386 43.8215C2.48581 43.8506 2.44139 43.8602 2.40722 43.8855L2.56793 43.896C2.50467 43.9069 2.41871 43.9013 2.31633 43.9172C2.29538 43.9508 2.43962 43.9452 2.5655 43.9334C2.57125 43.9412 2.50955 43.9472 2.4393 43.9502C2.37458 43.9458 2.30979 43.9575 2.25067 43.9842C2.28626 44.014 2.18043 44.0447 1.95306 44.155C2.00663 44.1585 2.1218 44.0997 2.18507 44.0888L2.06572 44.1348L1.98074 44.1718C2.01727 44.1635 2.05313 44.1525 2.08798 44.1388C2.04585 44.1711 1.83201 44.2272 1.83979 44.2615C1.71887 44.3124 1.86474 44.2819 1.993 44.2527C2.12126 44.2235 2.22967 44.1918 2.16492 44.2639C2.22294 44.2339 2.27902 44.2004 2.33285 44.1635C2.31893 44.1906 2.31062 44.2203 2.30841 44.2507C2.30177 44.2885 2.29927 44.3269 2.30095 44.3653C2.36221 44.3468 2.41973 44.328 2.4736 44.3077C2.44517 44.3148 2.4192 44.3295 2.39843 44.3501C2.37767 44.3708 2.36288 44.3967 2.35565 44.4251C2.34842 44.4535 2.349 44.4833 2.35735 44.5114C2.36569 44.5395 2.38148 44.5648 2.40305 44.5846C2.35008 44.6149 2.29526 44.6419 2.23891 44.6653C2.29593 44.6928 2.36025 44.7232 2.42342 44.7524C2.46193 44.7373 2.45588 44.6957 2.44799 44.6439L2.47221 44.6755C2.56815 44.6429 2.55276 44.5718 2.54226 44.5024C2.50833 44.5239 2.47324 44.5442 2.43814 44.5644C2.4352 44.5253 2.44002 44.4861 2.45231 44.4488C2.46461 44.4116 2.48414 44.3772 2.50979 44.3476C2.51032 44.3554 2.51293 44.3629 2.51735 44.3694C2.52177 44.3758 2.52784 44.381 2.53493 44.3843C2.53547 44.3666 2.54234 44.3498 2.55428 44.3367C2.56631 44.325 2.56336 44.3511 2.57006 44.3828C2.6052 44.3426 2.63786 44.3021 2.66786 44.2641L2.64826 44.3153C2.70884 44.2984 2.76828 44.2776 2.82621 44.2531C2.83878 44.2714 2.84006 44.2903 2.86376 44.3106L2.92465 44.3746C2.96558 44.4185 3.00776 44.4626 3.05359 44.5081C3.15028 44.6018 3.26732 44.6719 3.39558 44.713C3.33371 44.6064 3.39856 44.5518 3.40734 44.436C3.31328 44.555 3.18597 44.3578 3.03659 44.3656C3.11689 44.3621 3.10558 44.305 3.08827 44.2826L3.34678 44.4246C3.35294 44.3299 3.41228 44.36 3.48805 44.3299C3.41253 44.5102 3.67482 44.4784 3.77924 44.5465C3.79326 44.4849 3.77364 44.421 3.63784 44.4122C3.80224 44.289 3.80491 44.652 3.96427 44.5485C3.93188 44.5464 3.91279 44.5514 3.90368 44.5183C3.97454 44.583 4.1675 44.5592 4.12887 44.4992L4.09648 44.4971C4.31648 44.5001 4.76122 44.5678 4.77701 44.729C4.7776 44.6532 4.77165 44.5774 4.7592 44.5026L5.09723 45.0764C5.07632 44.9361 5.24166 44.6253 5.06769 44.5302C5.10516 44.518 5.14487 44.5144 5.18393 44.5195C5.22299 44.5247 5.26041 44.5385 5.29346 44.5599C5.25619 44.575 5.18497 44.7468 5.23259 44.7649C5.38043 44.6269 5.33229 44.6938 5.50983 44.5802C5.45323 44.6041 5.49403 44.8232 5.5765 44.8248C5.56615 44.7916 5.60389 44.6151 5.57553 44.5895L5.76451 44.8195C5.71602 44.7763 5.77609 44.6413 5.826 44.5858C5.79965 44.6253 6.00664 44.5975 6.06109 44.6261L5.96714 44.6663C6.20672 44.6568 6.17295 44.9837 6.40999 44.9941C6.38549 44.9474 6.36395 44.7208 6.48509 44.705C6.53028 44.818 6.68154 45.2432 6.8826 45.3451L6.9276 45.288L7.08229 45.3718C6.9479 45.1286 6.78878 44.8998 6.60747 44.6891C6.70017 44.6489 6.63825 44.6198 6.76974 44.6371C6.82198 44.5842 6.70581 44.5429 6.66743 44.5366L6.98292 44.5334C6.95862 44.6569 7.20855 44.6807 7.18812 44.7832L6.85801 44.6266C6.83371 44.7501 7.02131 45.0013 7.24179 44.9969C7.30226 44.952 7.22024 44.7703 7.22798 44.7282C7.25247 44.7749 7.42787 44.8288 7.45108 44.799L7.36459 44.7246C7.49209 44.6879 7.54908 44.908 7.70495 44.8005C7.75652 44.7964 7.86856 44.651 7.87118 44.7263C7.77226 44.9421 7.73798 45.1819 7.77248 45.4167C7.89306 45.3696 8.00753 45.3082 8.11342 45.2337C8.20535 45.1283 8.00634 44.9565 8.08733 44.8654C8.08506 44.9003 8.13089 44.9458 8.14869 44.9608C8.20412 44.9356 8.13439 44.8535 8.2492 44.8772C8.25854 45.0029 8.48515 44.8851 8.29573 44.9891C8.40534 45.035 8.42185 44.9735 8.54603 44.9879C8.49708 45.0672 8.64358 45.2769 8.75452 45.3217C8.7569 45.2878 8.77043 45.2557 8.79299 45.2304C9.02536 45.2355 9.15367 45.1863 9.37045 45.2004C9.39241 45.1705 9.49941 45.1412 9.45828 45.081C9.48797 45.1054 9.51379 45.1509 9.57841 45.1576C9.71013 45.056 9.43005 45.1304 9.5383 45.0048C9.54092 45.0801 9.70358 45.1182 9.79527 45.1704C9.75792 45.2831 9.57454 45.1786 9.48286 45.1263C9.47265 45.2833 9.62633 45.4597 9.84712 45.5466C10.0252 45.5982 9.93225 45.4496 9.96194 45.474C10.3013 45.4686 10.233 45.7694 10.5208 45.6718C10.6395 45.5781 10.5339 45.4712 10.5672 45.4008C10.4226 45.3551 10.3388 45.451 10.2393 45.4408L10.367 45.4015C10.3398 45.3798 10.308 45.3646 10.274 45.3572C10.2399 45.3497 10.2046 45.3503 10.1709 45.3587C10.2701 45.2764 10.7428 45.3759 11.0086 45.3081C11.0526 45.3435 11.1289 45.3835 11.0901 45.421L11.0087 45.4032C10.9287 45.4793 11.1585 45.5243 11.0513 45.5561C11.1586 45.6194 11.2786 45.716 11.4375 45.6776L11.4724 45.5647C11.4702 45.5984 11.3669 45.6279 11.3244 45.5901C11.3871 45.6443 11.5726 45.4474 11.6351 45.6016L11.5227 45.6756C11.6525 45.7391 11.7044 45.8638 11.8003 45.8325C11.7555 45.9435 11.7812 45.8188 11.7124 45.9519C11.7428 45.8701 11.6878 45.869 11.6353 45.8681C11.5828 45.8672 11.4821 45.8581 11.5574 45.7767C11.4476 45.9259 11.3786 45.8339 11.2404 45.9575C11.2428 45.9201 11.29 45.8882 11.1728 45.9006C11.1667 45.8879 11.1591 45.8761 11.1501 45.8653L11.1413 45.8647L11.1476 45.8651C11.148 45.8589 11.1481 45.8577 11.1476 45.8651C11.1732 45.8533 11.1949 45.8343 11.2099 45.8104C11.157 45.7206 10.9661 45.712 10.9128 45.666C10.8432 45.679 10.9387 45.7102 10.8987 45.7489L10.8096 45.6755C10.7954 45.7597 10.6185 45.8057 10.7774 45.8636L10.6316 45.8541C10.5886 45.8763 10.5414 45.889 10.4932 45.8915C10.4449 45.894 10.3967 45.8861 10.3517 45.8684C10.2819 45.8827 10.1832 45.7649 10.2401 45.8337L10.0129 45.7676L10.0115 45.7888C9.78415 45.784 9.55459 45.6202 9.28573 45.7528C9.19729 45.7145 9.10044 45.6995 9.00454 45.7095L8.97493 45.7802C8.87937 45.7489 8.67621 45.8333 8.6398 45.7584C8.51877 45.9457 8.16146 45.7648 7.98618 45.7859L7.99234 45.6912C7.86519 45.6808 7.74049 45.6504 7.62288 45.6009L7.63828 45.5181C7.51831 45.439 7.30838 45.5504 7.10853 45.5262C7.12021 45.5582 7.17178 45.5541 7.20944 45.5327C6.94821 45.7022 6.72083 45.3508 6.48791 45.4696C6.46968 45.4574 6.44857 45.4502 6.42671 45.4488C6.40484 45.4474 6.38298 45.4518 6.36333 45.4615C6.36791 45.4611 6.37254 45.4614 6.37703 45.4623C6.36953 45.4625 6.36202 45.462 6.35461 45.4609C6.3288 45.473 6.30283 45.4875 6.27586 45.4983C6.29573 45.4817 6.31814 45.4684 6.34223 45.4588C6.28589 45.4502 6.23098 45.434 6.17896 45.4107L6.14448 45.4985C6.13947 45.4988 6.13446 45.4984 6.12953 45.4975C6.06646 45.5247 6.08502 45.4509 6.12428 45.3859C6.09502 45.3702 6.06883 45.3495 6.04694 45.3245C5.98406 45.4643 5.8898 45.2593 5.80757 45.4078C5.77273 45.328 5.50173 45.3204 5.4847 45.1591C5.48332 45.1803 5.46157 45.1876 5.49505 45.1923C5.46191 45.2036 5.42658 45.207 5.39191 45.2021C5.35724 45.1972 5.32419 45.1843 5.29544 45.1643L5.25568 45.2756L5.12028 45.1066C5.02255 45.1666 4.98017 45.2026 5.06139 45.3005C4.8565 45.142 4.88953 45.2305 4.71679 45.0779L4.71201 45.1514C4.64598 45.1471 4.54963 45.032 4.50338 45.089C4.33898 45.2122 3.76533 45.0298 3.36825 45.1141C3.4669 44.9053 3.17936 45.1906 3.18415 45.0208C3.15599 45.069 3.09947 45.0916 3.15612 45.1441C3.07963 45.1191 2.99868 45.1108 2.91873 45.1199C2.88667 45.1247 2.85396 45.1226 2.8228 45.1136C2.78418 45.0939 2.74909 45.068 2.71895 45.0368C2.67709 45.0841 2.76858 45.1201 2.73557 45.1467C2.71146 45.1327 2.64911 45.0911 2.61236 45.1175C2.57562 45.1438 2.64682 45.1647 2.69254 45.1927C2.36667 45.144 2.40686 44.9877 2.45371 44.8444C2.29651 44.8955 2.22024 44.8755 2.20047 44.7754C2.12538 44.8143 2.00535 44.8515 2.15938 44.8878C2.06968 44.882 1.50936 44.8793 1.63384 44.7736C1.60895 44.7819 1.5824 44.784 1.55652 44.7797C1.53063 44.7754 1.50619 44.7648 1.48531 44.7489C1.33749 44.741 1.19026 44.7244 1.04442 44.699L1.13501 44.6911C1.21912 44.629 1.19859 44.6177 1.13979 44.6176C1.06402 44.6237 0.987817 44.6217 0.912478 44.6116L0.886751 44.6224C0.798021 44.6296 0.708914 44.6309 0.620011 44.6263L0.59634 44.6248L0.605709 44.6154L0.625693 44.5967L0.664931 44.5704C0.695672 44.556 0.72219 44.5339 0.741949 44.5063C0.761708 44.4786 0.774046 44.4464 0.777783 44.4126L0.944908 44.3822C1.15276 44.3219 1.14208 44.2937 1.13154 44.2442C1.12099 44.1947 1.11721 44.1182 1.25603 44.0421C1.26488 44.0572 1.27481 44.0717 1.28575 44.0854C1.37977 44.0439 1.32473 44.0053 1.27472 43.947C1.22472 43.8887 1.17319 43.8153 1.21156 43.764C1.2131 43.7403 1.13828 43.7943 1.08252 43.8244C1.15172 43.6838 1.20353 43.6759 1.26159 43.6872C1.30375 43.6988 1.3481 43.6999 1.3908 43.6905C1.4335 43.6811 1.47324 43.6613 1.50658 43.633C1.47003 43.5794 1.26492 43.6361 1.39882 43.5009C1.42615 43.4076 2.03388 43.2007 2.04398 43.0262C2.0513 43.0867 2.05871 43.146 2.14304 43.1189C2.24649 43.0481 2.26701 42.7517 2.45319 42.7938C2.4549 42.7863 2.45492 42.7786 2.45324 42.7711C2.45156 42.7637 2.44823 42.7566 2.44349 42.7506C2.54084 42.7157 2.71662 42.5907 2.81515 42.6147C2.67001 42.3262 3.35175 42.328 3.15774 42.1177L3.38374 41.9323L3.35855 41.9156C3.39417 41.8674 3.44243 41.83 3.49799 41.8076C3.55355 41.7851 3.61424 41.7785 3.67334 41.7884C3.69112 41.7458 3.65101 41.747 3.63779 41.7386C3.8002 41.5114 3.82841 41.5008 4.09293 41.4542L4.04844 41.3687C4.12982 41.3677 4.24158 40.9959 4.5119 40.8984C4.50473 40.8931 4.49651 40.8894 4.48778 40.8875C4.47905 40.8856 4.47003 40.8857 4.46131 40.8876C4.75709 40.7642 4.82055 40.2116 5.12944 40.3868L5.33187 40.3136C5.16044 40.5064 5.45907 40.397 5.41922 40.5095C5.50775 40.4564 5.54313 40.2586 5.43969 40.3294L5.43807 40.3543C5.2856 40.2556 5.63148 40.0929 5.54555 40.0098C5.92511 39.6754 6.21919 39.2704 6.56779 38.9502L6.62017 39.0875L6.73666 38.97C6.74006 38.9177 6.70682 38.8517 6.62383 38.9351C6.61769 38.8371 6.81328 38.8498 6.83574 38.8701C6.97361 38.6739 6.66183 38.8125 6.71756 38.7636L6.79636 38.7061L6.79465 38.7323C6.88923 38.7209 6.93546 38.7602 7.03454 38.6603C7.08233 38.5796 7.01188 38.5663 7.03517 38.5352C7.0281 38.5285 7.03638 38.5166 7.07148 38.4963L7.21757 38.3469L7.22875 38.4828C7.33277 38.4608 7.37021 38.3468 7.38134 38.5027C7.35787 38.2672 7.90908 37.929 7.93325 37.8267C8.07213 37.7908 8.19576 37.7111 8.28583 37.5994C8.27178 37.6423 8.33623 37.7478 8.42675 37.6449C8.22021 37.4926 8.53763 37.4019 8.49643 37.189C8.50515 37.3434 8.80348 36.95 8.8036 37.1789C8.87338 37.0871 8.74585 37.1051 8.76877 37.0028C9.03476 36.895 9.17322 36.5549 9.43657 36.3531C9.46151 36.3735 9.45408 36.4493 9.54118 36.4374L9.55689 36.1958C9.61655 36.1634 9.7293 36.2958 9.74132 36.1302C9.74801 36.1619 9.75739 36.21 9.79639 36.1876C10.1718 35.6277 10.8747 35.3819 11.1623 34.7112C11.139 34.8186 11.1876 34.783 11.2394 34.7375C11.2166 34.7798 11.2955 34.7975 11.3193 34.8366L11.4413 34.5567C11.5626 34.6147 11.6667 34.3612 11.7686 34.4291L11.6894 34.474C11.8693 34.497 11.7774 34.8138 11.9096 34.935C11.7051 34.9054 11.8131 35.3416 11.5006 35.3188C11.4892 35.3781 11.5684 35.3344 11.5778 35.3826C11.4865 35.3629 11.4268 35.3953 11.3598 35.5023L11.3822 35.5037C11.1178 35.7218 11.0589 35.8768 10.8081 36.1745L10.7686 36.0894C10.736 36.1296 10.7151 36.178 10.7082 36.2293C10.5466 36.1938 10.8752 36.0663 10.7109 36.0156C10.7512 36.2221 10.281 36.4117 10.3639 36.6186C10.2707 36.7051 10.3229 36.5171 10.2297 36.6036L10.2418 36.6682L10.17 36.6372C10.1482 36.6617 10.1352 36.6928 10.1331 36.7255C10.131 36.7583 10.1398 36.7908 10.1583 36.8179C10.1694 36.7998 10.2102 36.7887 10.2284 36.7774C10.1929 36.9002 9.98717 36.9669 9.97429 37.0111L10.0413 36.9041C9.74954 37.1003 9.48468 37.4409 9.16012 37.5837L9.15074 37.5356C8.90967 37.645 9.03068 37.7079 8.79734 37.8716L8.81229 37.8726C8.73817 37.8813 8.66947 37.9158 8.61829 37.9701C8.70414 37.9582 8.58408 38.1305 8.68935 38.1086C8.43095 38.2344 8.54384 38.1529 8.30302 38.1623L8.3191 38.2421C8.2789 38.2315 8.23668 38.2311 8.19628 38.2409C8.15587 38.2508 8.11857 38.2705 8.08774 38.2984C8.21507 38.2642 8.09245 38.4376 8.24072 38.4084C8.12538 38.72 7.81349 38.5909 7.86324 38.8456C7.63378 38.7956 7.98084 38.5955 7.89691 38.6163C7.90275 38.5266 7.71748 38.5859 7.66122 38.6623C7.60495 38.7387 7.7087 38.9519 7.53082 39.1092C7.54815 39.0928 7.55879 39.1023 7.57612 39.0859C7.54239 39.1813 7.40275 39.1547 7.37539 39.2868C7.25316 39.2425 7.27507 39.3866 7.16255 39.2892L7.34902 39.1537C7.23159 39.2086 7.02838 39.1591 6.93536 39.3582C6.9852 39.3648 7.03587 39.3604 7.08383 39.3454C7.06908 39.4182 6.98011 39.4012 6.96396 39.4764C7.08271 39.5742 7.1817 39.3217 7.35601 39.3155C7.35017 39.4052 7.09995 39.4052 7.25529 39.4791C7.04695 39.393 7.09995 39.6554 6.87638 39.6497L6.9439 39.7078C6.8982 39.7116 6.85417 39.7268 6.81592 39.7521L6.95548 39.7799C6.79307 39.7956 6.82897 40.0131 6.70098 40.0574C6.89494 39.8836 6.67114 39.9391 6.70914 39.8164C6.3917 39.9459 6.72864 40.113 6.43334 40.3252C6.47865 40.3019 6.53281 40.1615 6.44258 40.1832C6.39889 40.2452 6.37064 40.3167 6.3602 40.3918C6.17168 40.5397 6.32617 40.2995 6.21419 40.3285C6.2267 40.4632 6.09733 40.3747 5.99683 40.4194L6.05749 40.4872C5.89517 40.7131 5.87696 40.3966 5.7427 40.6144L5.90393 40.6361L5.78726 40.6986L5.87605 40.7569C5.72223 40.7944 5.70312 40.8382 5.62192 40.9518C5.60262 40.883 5.50389 40.8428 5.40744 40.9216C5.38251 41.0163 5.49918 40.9538 5.36465 41.0602C5.43119 41.0758 5.50971 41.0996 5.50945 40.9883C5.53464 41.0049 5.57599 41.0039 5.60118 41.0205C5.57686 41.1253 5.44565 41.1806 5.39921 41.2213C5.41643 41.205 5.42864 41.1841 5.4344 41.1611L5.16678 41.2362C5.16346 41.2873 5.20233 41.2861 5.2436 41.2863C5.19938 41.3122 5.14605 41.3049 5.08566 41.3486C5.14926 41.3902 5.1967 41.4496 5.29719 41.4049L5.06806 41.5038C5.07833 41.5383 5.03724 41.6507 5.0786 41.6496C5.0107 41.7703 4.74485 41.7605 4.65567 41.9199C4.63014 41.9167 4.60426 41.922 4.58211 41.9351C4.4731 42.0531 4.42711 42.2215 4.21577 42.2779L4.22344 42.4485C4.0931 42.5289 4.22158 42.227 4.00148 42.3603C3.84184 42.4487 4.02826 42.4871 4.0062 42.557C3.89659 42.5686 3.69114 42.5728 3.64254 42.7623C3.70545 42.7376 3.72448 42.6951 3.76713 42.6741ZM2.4651 43.7842C2.49625 43.7862 2.56553 43.7982 2.52801 43.7595C2.4291 43.703 2.45499 43.7473 2.46551 43.778L2.4651 43.7842ZM2.72623 44.463C2.71323 44.4322 2.68002 44.4425 2.62941 44.4705C2.64564 44.4754 2.66274 44.4767 2.67953 44.4743C2.69631 44.4719 2.71238 44.466 2.72664 44.4568L2.72623 44.463ZM10.5293 45.7912C10.4414 45.8167 10.4709 45.8049 10.5293 45.7912V45.7912ZM10.7001 45.7622C10.7033 45.7641 10.706 45.7666 10.7081 45.7696C10.7102 45.7727 10.7116 45.7761 10.7122 45.7797C10.7128 45.7833 10.7126 45.7871 10.7116 45.7906C10.7106 45.7941 10.7088 45.7974 10.7064 45.8002C10.6954 45.7769 10.6581 45.7733 10.6154 45.7767C10.6269 45.7537 10.6491 45.7389 10.6989 45.7622L10.7001 45.7622ZM7.06656 38.5335L7.06397 38.5734C7.12977 38.5426 7.09871 38.5394 7.06531 38.5334L7.06656 38.5335Z" fill="#F0ECDD"/>
<path d="M2.55977 44.3112C2.54355 44.3238 2.52908 44.3385 2.51673 44.3549C2.51621 44.3435 2.53002 44.3243 2.55977 44.3112Z" fill="#F0ECDD"/>
<path d="M4.65826 41.918L4.67355 41.9269L4.65826 41.918Z" fill="#F0ECDD"/>
<path d="M8.15806 44.8208C8.13123 44.8275 8.10682 44.8416 8.08759 44.8614C8.08897 44.8402 8.1052 44.8224 8.15806 44.8208Z" fill="#F0ECDD"/>
<path d="M11.5819 45.9639L11.4744 45.9356C11.5096 45.9404 11.5453 45.9315 11.574 45.9106C11.57 45.9342 11.5482 45.9605 11.5819 45.9639Z" fill="#F0ECDD"/>
<path d="M12.2116 45.435C12.2209 45.4469 12.2329 45.4364 12.2422 45.4483L12.2394 45.4908C12.1944 45.4866 12.1666 45.4509 12.2116 45.435Z" fill="#F0ECDD"/>
<path d="M11.6747 45.6679C11.6797 45.5916 11.7256 45.6197 11.7722 45.6366C11.7694 45.6358 11.7664 45.6356 11.7635 45.636C11.7728 45.7434 11.7238 45.705 11.6747 45.6679Z" fill="#F0ECDD"/>
<path d="M11.7827 45.6396C11.7969 45.6437 11.8118 45.6447 11.8264 45.6425C11.8298 45.6867 11.8083 45.6514 11.7827 45.6396Z" fill="#F0ECDD"/>
<path d="M10.9088 45.8248C10.9464 45.8072 10.9263 45.9227 10.9484 45.8927C10.9833 45.993 10.7157 45.762 10.9088 45.8248Z" fill="#F0ECDD"/>
<path d="M11.7258 45.4198L11.7047 45.5126L11.6821 45.4358L11.7258 45.4198Z" fill="#F0ECDD"/>
<path d="M11.1763 45.4611L11.3032 45.4417C11.3021 45.458 11.3153 45.4676 11.3336 45.4764C11.2508 45.4747 11.1745 45.4886 11.1763 45.4611Z" fill="#F0ECDD"/>
<path d="M11.3243 45.4747C11.3578 45.4716 11.3915 45.4786 11.4209 45.4949C11.3881 45.4918 11.3556 45.485 11.3243 45.4747Z" fill="#F0ECDD"/>
<path d="M11.6071 45.3857L11.5708 45.4035L11.4853 45.4054L11.6071 45.3857Z" fill="#F0ECDD"/>
<path d="M9.8794 45.4007L9.7561 45.365C9.74437 45.3328 9.78195 45.3152 9.82992 45.3309C9.87789 45.3466 9.90269 45.3708 9.8794 45.4007Z" fill="#F0ECDD"/>
<path d="M10.292 45.1699C10.2558 45.1864 10.2519 45.2075 10.2299 45.2374L10.2374 45.1211L10.292 45.1699Z" fill="#F0ECDD"/>
<path d="M9.91295 45.1173C9.90131 45.0839 9.72759 45.0123 9.89347 45.0306C9.90511 45.064 10.0347 45.0989 9.91295 45.1173Z" fill="#F0ECDD"/>
<path d="M7.93054 45.1211L7.96402 45.1258L7.94423 45.3147L7.93054 45.1211Z" fill="#F0ECDD"/>
<path d="M6.23324 44.5178C6.39172 44.4855 6.25753 44.6445 6.40344 44.5939C6.43533 44.6423 6.28474 44.63 6.31828 44.6722C6.23307 44.6166 6.18161 44.6383 6.23324 44.5178Z" fill="#F0ECDD"/>
<path d="M6.32202 44.6719C6.33823 44.6814 6.3535 44.6925 6.3676 44.705C6.3505 44.6968 6.33505 44.6856 6.32202 44.6719Z" fill="#F0ECDD"/>
<path d="M11.5102 34.3432L11.5579 34.2458L11.5533 34.3372L11.5102 34.3432Z" fill="#F0ECDD"/>
<path d="M11.7485 34.3188L11.6838 34.2129L11.8067 34.2535C11.7797 34.2643 11.743 34.2871 11.7485 34.3188Z" fill="#F0ECDD"/>
<path d="M2.68093 43.9127L2.6434 43.9103C2.60628 43.9016 2.60653 43.8979 2.60693 43.8916C2.63117 43.9001 2.65587 43.9071 2.68093 43.9127Z" fill="#F0ECDD"/>
<path d="M3.24922 43.2729L3.23307 43.2895L3.19128 43.1787L3.24922 43.2729Z" fill="#F0ECDD"/>
<path d="M4.18465 42.6071C4.15352 42.6415 4.09577 42.6604 4.06456 42.696C4.15352 42.6415 4.10134 42.4974 4.18465 42.6071Z" fill="#F0ECDD"/>
</svg>
