<svg width="62" height="80" viewBox="0 0 62 80" fill="none" xmlns="http://www.w3.org/2000/svg">
<path d="M7.32982 63.5913C7.27349 63.6239 7.41519 63.7392 7.4307 63.7702C7.4799 63.6643 7.29412 63.558 7.32982 63.5913Z" fill="#452F53"/>
<path d="M7.81496 62.5576L7.85358 62.6245L7.84016 62.3858L7.81496 62.5576Z" fill="#452F53"/>
<path d="M8.5371 61.8732C8.25806 61.7151 8.31196 62.1581 8.10693 62.2014L8.03474 62.182L8.14722 62.4175C8.27799 62.2294 8.36836 61.9143 8.5371 61.8732Z" fill="#452F53"/>
<path d="M9.38163 61.9863C9.27394 61.9217 9.3933 61.8317 9.26491 62.0443L9.301 62.054C9.32539 62.0286 9.35243 62.0059 9.38163 61.9863Z" fill="#452F53"/>
<path d="M9.30174 62.0514C9.23276 62.1311 9.42113 62.0834 9.30174 62.0514V62.0514Z" fill="#452F53"/>
<path d="M9.60397 61.668L9.57877 61.8398C9.65373 61.8599 9.75028 61.7994 9.75335 61.8657C9.81425 61.7273 9.74503 61.6968 9.60397 61.668Z" fill="#452F53"/>
<path d="M9.54395 61.414L9.52163 61.4973C9.5542 61.509 9.57384 61.5023 9.54395 61.414Z" fill="#452F53"/>
<path d="M9.48416 61.6597L9.53029 61.4875C9.47753 61.4734 9.40986 61.3928 9.5102 61.5625C9.4451 61.4945 9.48204 61.5787 9.48416 61.6597Z" fill="#452F53"/>
<path d="M9.38527 61.6958C9.28268 61.7011 9.18301 61.7399 9.20821 61.5681C9.04705 61.7808 9.2241 61.9086 9.38527 61.6958Z" fill="#452F53"/>
<path d="M8.35543 61.6073L8.21655 61.6147L8.22472 61.7508C8.21888 61.6838 8.42405 61.6733 8.35543 61.6073Z" fill="#452F53"/>
<path d="M10.3364 61.1889C10.2976 61.1339 10.1832 61.0943 10.1172 61.0409L10.0845 61.1631C10.1654 61.1609 10.265 61.1222 10.3364 61.1889Z" fill="#452F53"/>
<path d="M10.1172 61.0408L10.1496 60.8531C10.0436 60.9377 10.0643 60.9939 10.1172 61.0408Z" fill="#452F53"/>
<path d="M9.32592 61.1502L9.30829 61.4937L9.35929 61.1145L9.32592 61.1502Z" fill="#452F53"/>
<path d="M10.7643 60.7915L10.8054 60.9602L10.7591 60.6889L10.7643 60.7915Z" fill="#452F53"/>
<path d="M11.0257 60.5047C11.0666 60.6406 11.2361 60.5968 11.2414 60.6993C11.2904 60.5879 11.3048 60.4642 11.2829 60.3444C11.2561 60.4444 11.1827 60.4961 11.0257 60.5047Z" fill="#452F53"/>
<path d="M11.282 60.1476C11.273 60.2129 11.2733 60.2791 11.2829 60.3442C11.2961 60.2793 11.2958 60.2124 11.282 60.1476Z" fill="#452F53"/>
<path d="M10.3592 60.704C10.3893 60.7272 10.4237 60.7442 10.4604 60.7541C10.4971 60.7639 10.5354 60.7664 10.573 60.7613L10.4017 60.6678C10.3882 60.6806 10.374 60.6927 10.3592 60.704Z" fill="#452F53"/>
<path d="M10.399 60.655L10.5008 60.5751L10.399 60.655Z" fill="#452F53"/>
<path d="M9.73105 60.9939C9.72566 60.8585 9.7822 60.6475 9.5435 60.6609C9.58519 60.7941 9.72055 60.7887 9.73105 60.9939Z" fill="#452F53"/>
<path d="M10.1358 60.5934L9.98945 60.6732C10.0251 60.7066 10.0971 60.7378 10.0995 60.8069L10.1358 60.5934Z" fill="#452F53"/>
<path d="M10.1536 60.4942L10.1358 60.5936L10.1894 60.5603L10.1536 60.4942Z" fill="#452F53"/>
<path d="M10.9628 60.2168C10.9628 60.1735 10.9714 60.1305 10.9883 60.0906C11.0051 60.0506 11.0298 60.0144 11.0608 59.9842C10.9725 60.0209 10.8912 60.0726 10.8205 60.137C10.8517 60.1871 10.8953 60.291 10.9628 60.2168Z" fill="#452F53"/>
<path d="M10.6771 60.417L10.6816 60.3999C10.6646 60.3954 10.6553 60.3959 10.6771 60.417Z" fill="#452F53"/>
<path d="M11.6776 59.393L11.6436 59.3808L11.665 59.4051L11.6776 59.393Z" fill="#452F53"/>
<path d="M10.7859 60.1219C10.7109 60.1464 10.7127 60.2064 10.7241 60.2749C10.749 60.2243 10.7815 60.1778 10.8206 60.1371C10.8091 60.1132 10.7974 60.1011 10.7859 60.1219Z" fill="#452F53"/>
<path d="M11.3961 59.9223C11.3433 59.9196 11.2903 59.9234 11.2383 59.9335C11.3022 59.9507 11.417 59.9665 11.3961 59.9223Z" fill="#452F53"/>
<path d="M10.7317 60.4194C10.7771 60.4471 10.762 60.4337 10.7317 60.4194V60.4194Z" fill="#452F53"/>
<path d="M10.7328 60.4202C10.7381 60.3716 10.7352 60.3225 10.7241 60.275C10.7045 60.3149 10.6929 60.3583 10.6899 60.4027C10.7052 60.4058 10.7197 60.4117 10.7328 60.4202Z" fill="#452F53"/>
<path d="M11.0464 58.3615C11.1564 58.4951 11.1336 58.736 10.8927 58.7131C10.8691 58.9122 11.3438 59.2507 11.6457 59.3792C11.5978 59.3247 11.5492 59.2729 11.5955 59.0889C11.49 59.0607 11.1875 59.179 11.179 58.9773C11.2711 58.7669 11.3456 58.9 11.4817 58.8918C11.2712 58.7997 11.4634 58.4822 11.215 58.2876L11.1585 58.4987C11.1207 58.4618 11.1155 58.3592 11.0464 58.3615Z" fill="#452F53"/>
<path d="M11.4135 59.5789L11.379 59.6411C11.4861 59.6147 11.5984 59.618 11.7038 59.6507C11.7152 59.6094 11.7176 59.5662 11.711 59.5239C11.7044 59.4816 11.6888 59.4412 11.6654 59.4053L11.4137 59.6117L11.4135 59.5789Z" fill="#452F53"/>
<path d="M11.1664 59.8459C11.0751 59.6756 11.1351 59.5072 10.9266 59.4305C10.7958 59.574 10.9343 59.6349 10.9062 59.7732C11.0999 59.5275 10.9136 59.9121 11.1477 59.8379C11.1268 59.8931 11.0969 59.9444 11.0594 59.9899C11.1163 59.9661 11.1758 59.9491 11.2367 59.9391L11.22 59.9347C11.195 59.928 11.1811 59.9243 11.1978 59.9287C11.1837 59.9096 11.1712 59.8893 11.1605 59.8681C11.2531 59.8334 11.2077 59.8808 11.1978 59.9287L11.2155 59.9513L11.3703 59.6625C11.2885 59.7063 11.2186 59.7692 11.1664 59.8459Z" fill="#452F53"/>
<path d="M9.38609 60.2554C9.40108 60.2603 9.41448 60.2691 9.4249 60.281C9.42399 60.2503 9.41927 60.2338 9.38609 60.2554Z" fill="#452F53"/>
<path d="M9.55871 60.2483C9.54978 60.2816 9.59673 60.3507 9.52226 60.3843C9.44778 60.418 9.46197 60.3206 9.41665 60.2787C9.41972 60.345 9.39512 60.4812 9.56088 60.4512L9.56906 60.4207C9.70811 60.3898 9.85352 60.4067 9.98174 60.4688C9.8518 60.3757 9.70939 60.3015 9.55871 60.2483Z" fill="#452F53"/>
<path d="M10.3291 60.0054L10.4545 59.7593L10.2499 59.7342L10.3213 59.801C10.1911 59.8762 10.2988 59.9407 10.3291 60.0054Z" fill="#452F53"/>
<path d="M11.7631 59.4403L11.8733 59.6067L11.7913 59.302L11.7631 59.4403Z" fill="#452F53"/>
<path d="M11.9912 59.1889L12.1013 59.3225L12.0931 59.1864L11.9912 59.1889Z" fill="#452F53"/>
<path d="M35.7575 33.5209L35.8259 33.3874C35.796 33.4279 35.7729 33.473 35.7575 33.5209Z" fill="#452F53"/>
<path d="M35.0073 34.2218L35.0457 34.3005C35.049 34.233 35.0412 34.1952 35.0073 34.2218Z" fill="#452F53"/>
<path d="M22.7666 48.8511C23.0244 48.822 23.3643 48.8416 23.2123 48.7205L23.0374 48.629C22.9743 48.7311 22.879 48.8092 22.7666 48.8511Z" fill="#452F53"/>
<path d="M29.6141 40.755L29.5304 40.7564C29.5388 40.836 29.548 40.9129 29.5531 40.9827L29.6141 40.755Z" fill="#452F53"/>
<path d="M29.1838 40.0952L29.4637 39.9946C29.3659 40.0139 29.2716 40.0478 29.1838 40.0952Z" fill="#452F53"/>
<path d="M39.6706 29.5015L39.6581 29.2481C39.4731 29.4277 39.6211 29.4197 39.6706 29.5015Z" fill="#452F53"/>
<path d="M16.2428 55.028C16.3872 54.9743 16.5222 54.8979 16.6427 54.8018C16.4091 54.885 16.168 54.874 16.2428 55.028Z" fill="#452F53"/>
<path d="M36.8367 35.2356C36.8772 35.1512 36.8739 35.0967 36.8458 35.0684C36.8053 35.1527 36.7917 35.2146 36.8367 35.2356Z" fill="#452F53"/>
<path d="M17.0105 54.451C16.9755 54.4595 16.9473 54.4757 16.9123 54.4842C16.8406 54.6063 16.749 54.7155 16.6412 54.8074C16.7312 54.7914 16.8144 54.749 16.8802 54.6855C16.946 54.622 16.9913 54.5404 17.0105 54.451Z" fill="#452F53"/>
<path d="M54.4728 15.5523C54.4867 15.5561 54.503 15.5396 54.5211 15.5385C54.5393 15.5374 54.4906 15.5303 54.4728 15.5523Z" fill="#452F53"/>
<path d="M60.0579 12.8231C60.006 12.8848 59.9505 12.9435 59.8918 12.9988C59.9605 12.9544 60.0175 12.8942 60.0579 12.8231Z" fill="#452F53"/>
<path d="M13.5271 57.8328C13.4403 57.9345 13.5197 57.8606 13.5271 57.8328V57.8328Z" fill="#452F53"/>
<path d="M12.5503 57.7466C12.5536 57.7287 12.5529 57.7102 12.5484 57.6926C12.5439 57.675 12.5356 57.6585 12.5242 57.6443C12.5455 57.6739 12.5549 57.7104 12.5503 57.7466Z" fill="#452F53"/>
<path d="M17.1643 52.6886C17.1161 52.6943 17.1287 52.6822 17.1643 52.6886V52.6886Z" fill="#452F53"/>
<path d="M13.3252 57.9094C13.3816 57.8909 13.4354 57.8653 13.4854 57.8333C13.4291 57.8521 13.3753 57.8776 13.3252 57.9094Z" fill="#452F53"/>
<path d="M13.4067 57.9492L13.3107 58.0187C13.3184 58.0565 13.3441 58.0604 13.4067 57.9492Z" fill="#452F53"/>
<path d="M13.6557 57.6976C13.6047 57.7496 13.5475 57.7953 13.4854 57.8335C13.5148 57.8235 13.5295 57.8244 13.5242 57.8439L13.6557 57.6976Z" fill="#452F53"/>
<path d="M46.944 23.4478L46.9782 23.4421C47.0212 23.2929 46.9869 23.3432 46.944 23.4478Z" fill="#452F53"/>
<path d="M23.9221 45.0594L23.9175 45.0765L23.9345 45.0811L23.9221 45.0594Z" fill="#452F53"/>
<path d="M24.1723 44.627C24.1868 44.9285 24.0741 44.9935 23.9383 45.0672L24.4259 45.3467L24.1723 44.627Z" fill="#452F53"/>
<path d="M37.4972 31.782L37.137 31.8938C37.2392 31.4123 37.5162 31.2782 37.1256 31.3253C37.4972 31.782 36.2227 32.2738 36.5951 32.7277L36.3493 32.7898C36.3988 32.7495 36.3694 32.7148 36.4328 32.6782C35.9277 32.775 36.4936 33.2064 36.0349 33.5299C35.8652 33.6302 35.7022 33.661 35.7576 33.521L35.5458 33.9226C35.4476 34.0004 35.3982 33.9069 35.4965 33.829L35.07 34.3099C35.0431 34.4749 34.9997 34.6367 34.9406 34.7931C34.7626 34.8466 34.9673 34.6931 34.8765 34.6658L34.7129 35.0207C34.5003 35.0144 34.6179 34.6977 34.8116 34.5413C34.1591 34.3664 34.6976 34.8559 33.9318 35.115L34.1284 34.8254C33.7387 34.7359 33.6267 35.0094 33.205 35.1286C33.347 35.1428 34.1399 34.9714 33.9411 35.3466C33.8697 35.3794 33.8068 35.4282 33.7573 35.4893C33.7079 35.5504 33.6733 35.6221 33.6563 35.6989C33.5117 35.55 33.3977 35.7308 33.2161 35.9202L33.0384 35.7059C32.889 35.9635 33.0041 36.0449 32.9699 36.25C32.8818 36.3184 32.7737 36.3561 32.6622 36.3573C32.5506 36.3586 32.4417 36.3234 32.352 36.2571C31.9687 36.5769 32.8407 36.266 32.4469 36.714C32.0754 36.912 31.9385 37.2116 31.6923 37.6754C31.416 37.8067 31.6126 37.5171 31.4806 37.5324L31.4343 37.883C31.3848 37.9233 31.3537 37.8614 31.3362 37.827C31.2378 38.0387 31.5146 38.0385 31.32 38.3315C31.4617 38.6135 30.5021 38.4963 30.4345 39.0376C30.3052 39.0536 30.3541 38.8822 30.2588 38.8269C30.077 39.1416 29.9481 39.4841 29.8771 39.8406L29.4555 39.9925C29.8162 39.9344 29.7098 40.3761 29.6058 40.7529C29.7211 40.7574 29.8365 40.7535 29.9512 40.7413L29.6656 41.2183C29.588 41.2303 29.5626 41.1253 29.5448 40.9806C29.5337 41.0223 29.5232 41.0611 29.5143 41.0945C29.3083 41.1524 29.2682 40.969 29.2612 40.7618L29.5166 40.7528C29.4965 40.5391 29.4597 40.321 29.3282 40.2232C29.317 40.2871 29.2906 40.3474 29.2513 40.399C29.246 40.3411 29.2342 40.2962 29.2036 40.2881C29.1731 40.2799 29.1828 40.3658 29.1538 40.4741L28.8549 40.3345L28.9179 40.4436L28.2783 40.7871C28.1295 41.3424 28.1319 41.9888 27.6449 42.6291C27.6332 42.3284 27.426 42.3353 27.2453 42.1322C27.5965 42.1876 27.6024 41.6327 27.9414 41.3783C27.7677 41.5044 27.7119 41.3793 27.7192 41.3188L27.3666 42.0129C27.2279 41.8418 27.1409 42 26.941 42.0685C27.3426 42.2803 26.7422 42.6551 26.62 42.9556C26.5044 42.8651 26.454 42.7088 26.7465 42.4836C26.229 42.5265 26.7217 43.209 26.2359 43.2783C26.2977 43.2145 26.3467 43.1979 26.323 43.1201C26.2597 43.3561 25.8248 43.6353 25.8243 43.4596L25.8853 43.3986C25.423 43.7687 24.5828 44.6387 24.7726 44.9634C24.6669 44.8219 24.5749 44.6707 24.4978 44.5118L24.5905 46.1318C24.4391 45.8412 23.6638 45.5472 23.8935 45.079C23.6984 45.1605 23.5434 45.3158 23.4622 45.511C23.5632 45.4786 23.9483 45.674 23.8739 45.785C23.3719 45.7814 23.5657 45.8244 23.0385 45.9153C23.1892 45.8634 23.415 46.3316 23.2389 46.4779C23.2123 46.3993 22.8869 46.1366 22.9122 46.0422L22.8598 46.7929C22.903 46.6319 22.596 46.4782 22.4086 46.4667C22.5169 46.4957 22.0488 46.7988 21.9821 46.9476L22.2339 46.8633C21.7226 47.2501 22.2504 47.7903 21.7747 48.2104C21.7608 48.0846 21.486 47.6331 21.209 47.8118C21.2733 48.0939 21.562 49.1265 21.2895 49.6547L21.1129 49.6252L20.9156 50.0395C20.8471 49.3581 20.8535 48.6713 20.9347 47.9913C20.683 48.0756 20.77 47.9174 20.5188 48.1774C20.337 48.1674 20.5266 47.8819 20.5918 47.8161L19.9298 48.3321C20.1575 48.5151 19.672 48.9832 19.8605 49.1349L20.307 48.2903C20.534 48.4761 20.5031 49.2356 20.0371 49.6196C19.8471 49.6402 19.7623 49.1681 19.6859 49.1089C19.6978 49.2311 19.4122 49.6308 19.3261 49.6077L19.4005 49.33C19.0898 49.4789 19.2808 49.9765 18.7997 50.0618C18.6888 50.1422 18.2486 50.0749 18.3481 50.2146C18.7392 50.2986 19.4775 51.0083 19.5474 51.2919C19.2372 51.4124 18.9147 51.4987 18.5857 51.549C18.2467 51.5147 18.4019 50.8689 18.1153 50.8278C18.1637 50.8914 18.1395 51.0485 18.1239 51.1068C17.9738 51.1559 17.9978 50.8886 17.7965 51.1292C17.9624 51.3761 17.3243 51.5473 17.8643 51.4093C17.7021 51.6813 17.5865 51.5908 17.3395 51.846C17.5533 51.9033 17.5539 52.5343 17.3806 52.8034C17.342 52.7365 17.2259 52.7143 17.1689 52.705C16.701 53.1183 16.3676 53.2521 15.9446 53.6536C15.8585 53.6305 15.5946 53.7711 15.5941 53.5954C15.5878 53.7238 15.5402 53.8467 15.4585 53.946C15.0302 54.0008 15.7188 53.6407 15.3136 53.6095C15.4165 53.7472 15.1435 54.0996 15.0312 54.3522C15.2708 54.4909 15.4935 53.9821 15.603 53.7287C15.8573 53.9903 15.7994 54.573 15.4758 55.1142C15.1902 55.5138 15.1611 55.0894 15.1385 55.1845C14.4377 55.7675 15.0179 56.1789 14.292 56.5111C13.9155 56.5501 13.9621 56.1876 13.8037 56.1125C14.0276 55.7766 14.3423 55.8015 14.5331 55.6115L14.2196 55.7597C14.2439 55.671 14.2861 55.5883 14.3437 55.5167C14.4013 55.4451 14.473 55.3861 14.5543 55.3434C14.2297 55.3666 13.4214 56.3731 12.781 56.7193C12.7431 56.8609 12.6462 57.0671 12.7836 57.0652L12.9204 56.8876C13.1987 56.8818 12.7932 57.3624 13.0626 57.2233C12.9404 57.5239 12.8413 57.905 12.466 58.1169L12.2257 57.9811C12.2869 58.0303 12.5428 57.9084 12.5611 57.7734C12.5068 57.9761 11.8502 57.9609 11.9505 58.3419L12.2889 58.2451C12.268 58.3228 12.245 58.4089 12.2017 58.4925L12.1831 58.5619C12.1776 58.5763 12.1736 58.5912 12.1712 58.6064L12.1641 58.6997C12.1643 58.7525 12.1499 58.8043 12.1226 58.8495C12.0952 58.8946 12.056 58.9314 12.0092 58.9558C12.2553 59.0812 12.0233 58.903 12.3357 59.0254C12.1616 58.9311 12.2557 58.8462 12.3429 58.7654C12.3473 58.7488 12.4109 58.7003 12.44 58.6694C12.46 58.6474 12.4775 58.6231 12.4921 58.5971C12.5078 58.5388 12.4819 58.5021 12.3475 58.4929C12.7877 58.5602 12.789 58.2779 13.2545 58.2508C13.1857 58.1967 13.0494 58.2167 13.3118 58.037C13.3057 58.0023 13.3042 57.9668 13.3073 57.9317L13.3277 57.9223L13.311 57.9178C13.3162 57.8984 13.317 57.8956 13.311 57.9178C13.2451 57.9423 13.1736 57.9469 13.1051 57.9311C13.0772 57.6796 13.4385 57.3419 13.4921 57.142C13.652 57.045 13.5033 57.267 13.6407 57.2651L13.715 56.9874C13.8671 57.1085 14.2942 56.8807 14.0576 57.2638L14.329 57.0061C14.5747 56.9301 14.7833 56.7654 14.9142 56.5439C15.0776 56.4449 15.1049 56.0653 15.0913 56.2938L15.4483 55.7943L15.4848 55.8249C15.9406 55.4232 16.1649 54.7304 16.9071 54.5037C17.0336 54.2817 17.2078 54.0905 17.4172 53.944L17.5819 54.0179C17.7307 53.7959 18.2638 53.6055 18.2263 53.3901C18.74 53.5277 19.2133 52.5832 19.6019 52.3213L19.4625 52.153C19.7095 51.9056 19.9225 51.6264 20.0956 51.3227L19.9443 51.1988C20.0792 50.8511 20.6737 50.6979 21.0471 50.3039C21.0709 50.3817 20.9601 50.4621 20.8591 50.4946C21.6255 50.3667 21.6171 49.3318 22.2587 49.1585C22.2784 49.1022 22.3117 49.0518 22.3557 49.0116C22.3997 48.9714 22.453 48.9429 22.5108 48.9284C22.5055 48.9388 22.5024 48.9501 22.5019 48.9617C22.5188 48.951 22.5342 48.9381 22.5479 48.9235C22.6159 48.903 22.6922 48.8848 22.7644 48.8595C22.6973 48.8634 22.6311 48.8778 22.5685 48.9022C22.6729 48.7918 22.7637 48.6692 22.8389 48.5372L23.0382 48.6263C23.0468 48.6173 23.0545 48.6074 23.061 48.5967C23.2314 48.5382 23.0895 48.4347 22.9168 48.3795C22.9505 48.3028 22.9724 48.2213 22.9815 48.138C23.3074 48.2878 23.2188 47.7522 23.5966 47.8861C23.5561 47.6818 24.1099 47.2142 23.9202 46.8896C23.9574 46.9174 24.0062 46.9126 23.9447 46.9646C24.0301 46.9311 24.1077 46.8807 24.1731 46.8164C24.2384 46.752 24.29 46.6751 24.3247 46.5903L24.5651 46.7261L24.6104 46.1907C24.9013 46.1377 25.0387 46.1358 25.0021 46.4504C25.2135 45.8166 25.2685 46.0337 25.4154 45.463L25.5149 45.6027C25.6411 45.4759 25.6877 45.1134 25.865 45.14C26.3797 45.0964 27.3282 43.8001 28.2812 43.3085C27.7878 43.084 28.7805 43.1447 28.5403 42.8303C28.6708 42.8653 28.8158 42.8238 28.768 43.0134C29.0663 42.5665 29.4721 42.6068 29.502 42.1179C29.6325 42.1528 29.5425 42.3221 29.6287 42.3334C29.6414 42.2862 29.6793 42.1445 29.7676 42.1593C29.8559 42.174 29.7816 42.285 29.7563 42.3794C30.1302 41.9945 29.9171 41.6904 29.7159 41.4193C30.0323 41.3493 30.1124 41.2279 30.098 40.9265C30.2428 40.9415 30.4398 40.9169 30.2269 41.1783C30.3746 41.0601 31.1691 40.5052 30.9914 40.2909C31.0775 40.314 31.1936 40.1249 31.2085 40.0694C31.4358 39.8882 31.6498 39.6909 31.8488 39.4791L31.735 39.526C31.6218 39.1712 31.9296 39.2329 32.1445 38.975L32.1601 39.006C32.8773 38.6506 32.318 38.6942 33.0535 38.3705L32.8805 38.2497C32.6217 37.8828 33.5482 37.9792 33.7429 37.5523L33.5459 37.5769C33.6203 37.2992 34.4451 37.5529 34.6571 37.4282C34.7221 37.4188 34.631 37.5254 34.6109 37.6004C35.2475 37.3573 34.482 37.3486 34.7769 36.9812C34.9407 37.0251 34.9551 37.3265 35.199 37.127C35.3953 37.1052 35.5313 36.1536 36.0356 36.0596C35.8908 36.0446 35.7468 36.0269 35.8424 35.8144C36.0545 35.5558 36.7869 35.4991 36.7592 35.0363C36.7772 35.0326 36.796 35.0331 36.8138 35.0379C36.8317 35.0426 36.8481 35.0515 36.8619 35.0639C36.9831 34.8226 37.3434 34.3775 37.3335 34.1367C37.9977 34.4903 38.2354 32.7922 38.6876 33.2705L39.2291 32.7043L39.2601 32.7662C39.3905 32.6823 39.4978 32.5671 39.5722 32.4311C39.6465 32.2951 39.6857 32.1426 39.686 31.9876C39.8026 31.9414 39.7841 32.0436 39.7996 32.0745C40.4208 31.6666 40.452 31.5946 40.6702 30.9359L40.8643 31.0444C40.8984 30.8393 41.8585 30.5549 42.2059 29.8802C42.2163 29.8991 42.2225 29.92 42.2239 29.9414C42.2254 29.9629 42.2221 29.9844 42.2143 30.0045C42.6234 29.266 44.0202 29.0956 43.6985 28.319L43.9504 27.8122C43.4118 28.2452 43.7912 27.4957 43.4987 27.5989C43.6621 27.3778 44.1775 27.2867 43.9535 27.5452L43.8892 27.5517C44.0851 27.9316 44.6149 27.0647 44.7843 27.2767C45.7507 26.3245 46.8595 25.574 47.7882 24.7069L47.4647 24.5815L47.7768 24.3051C47.9118 24.2788 48.0545 24.3795 47.8237 24.5855C48.0668 24.6 48.1029 24.1097 48.0641 24.0547C48.5976 23.7185 48.1419 24.4862 48.28 24.3596L48.4478 24.1664L48.3821 24.1786C48.4453 23.9426 48.3621 23.831 48.6474 23.5771C48.8642 23.4566 48.8695 23.6366 48.9452 23.5765C48.9646 23.5817 48.9868 23.5877 49.0569 23.4815L49.4794 23.1156L49.1437 23.0911C49.2403 22.8194 49.5359 22.7379 49.1528 22.7126C49.7335 22.767 50.7643 21.3856 51.0143 21.3187C51.1575 20.9647 51.3984 20.6587 51.709 20.4365C51.5982 20.4723 51.3583 20.3127 51.6452 20.086C51.949 20.596 52.3151 19.8073 52.8051 19.8999C52.4226 19.8837 53.5076 19.1328 52.9378 19.1379C53.1912 18.9588 53.0993 19.2794 53.3625 19.2189C53.7307 18.5557 54.6184 18.2192 55.2134 17.5424C55.1713 17.4776 54.9813 17.4981 55.0441 17.2858L55.6537 17.2319C55.7559 17.0837 55.4706 16.8049 55.8846 16.77C55.8097 16.7499 55.6958 16.7194 55.7607 16.6326C57.2856 15.6842 58.1448 13.9324 59.9157 13.1987C59.6372 13.2609 59.7445 13.1379 59.875 13.0063C59.7639 13.0657 59.7476 12.8709 59.6594 12.8116L60.3967 12.5032C60.2958 12.2024 60.9627 11.9347 60.8302 11.6849L60.6909 11.8827C60.6985 11.4324 59.8802 11.6655 59.6283 11.3391C59.6261 11.8474 58.5817 11.5913 58.5254 12.3679C58.375 12.396 58.5115 12.1975 58.3954 12.1753C58.4146 12.4036 58.3117 12.5546 58.0194 12.7233L58.0169 12.6661C57.3803 13.3318 56.9748 13.479 56.1421 14.11L56.3371 14.2039C56.2287 14.2858 56.1018 14.3397 55.9677 14.3609C55.998 14.7588 56.4315 13.9406 56.5006 14.3489C56.0002 14.2506 55.3633 15.428 54.8912 15.2241C54.6447 15.4557 55.1287 15.3264 54.8786 15.56L54.7287 15.5198L54.7794 15.6971C54.7177 15.7518 54.6395 15.7842 54.5572 15.7891C54.475 15.7941 54.3934 15.7713 54.3257 15.7243C54.375 15.6959 54.4171 15.5941 54.4535 15.5473C54.1312 15.6395 53.8952 16.1536 53.7887 16.1846L54.0809 16.0159C53.4884 16.7499 52.5485 17.4146 52.0781 18.226L52.1919 18.2565C51.8157 18.861 51.7203 18.5617 51.2308 19.1447L51.2405 19.1086C51.1879 19.2984 51.0781 19.4675 50.9262 19.5928C50.9835 19.379 50.5154 19.6821 50.6098 19.4188C50.202 20.0743 50.4468 19.7828 50.3501 20.3878L50.1613 20.3372C50.1687 20.4439 50.1525 20.5508 50.1139 20.6506C50.0754 20.7503 50.0154 20.8403 49.9382 20.9143C50.0669 20.6006 49.5961 20.903 49.7195 20.5313C48.9049 20.8279 49.1144 21.6012 48.4972 21.4834C48.5405 22.0545 49.1715 21.188 49.0802 21.3956C49.3042 21.3813 49.0915 21.8421 48.8813 21.9822C48.6712 22.1223 48.1789 21.8713 47.7259 22.3184C47.7733 22.2745 47.7452 22.2462 47.8002 22.2073C47.5492 22.2889 47.5685 22.6392 47.2284 22.7088C47.2928 23.0237 46.9439 22.9599 47.1456 23.2402L47.5131 22.7792C47.3367 23.0711 47.3888 23.5762 46.8612 23.8127C46.8615 23.6847 46.8893 23.5581 46.9427 23.4417C46.7601 23.4791 46.7712 23.6934 46.5654 23.7394C46.3637 23.4592 47.0271 23.1935 47.1041 22.7618C46.88 22.7762 46.7893 23.4036 46.662 23.0124C46.8032 23.5294 46.1673 23.4036 46.1098 23.9626L45.9906 23.7967C45.963 23.9142 45.9092 24.0239 45.8332 24.1176L45.814 23.7672C45.7061 24.1698 45.1914 24.0914 45.0451 24.4153C45.5484 23.9252 45.3228 24.4897 45.648 24.3864C45.2142 25.1838 44.9187 24.3427 44.2885 25.0845C44.3628 24.9735 44.7278 24.8332 44.6448 25.0431C44.4806 25.1538 44.2934 25.2257 44.0973 25.2535C43.6709 25.7345 44.3135 25.3353 44.2028 25.6151C43.8742 25.5866 44.0473 25.9067 43.8994 26.1588L43.752 26.0092C43.1329 26.4206 43.9119 26.4567 43.3289 26.7886L43.3238 26.3854L43.1265 26.6778L43.0158 26.4577C42.969 26.5978 42.8937 26.7268 42.7947 26.8365C42.6956 26.9462 42.575 27.0342 42.4403 27.0951C42.6041 27.139 42.657 27.3971 42.4369 27.6298C42.1939 27.6927 42.3912 27.4003 42.0801 27.7396C42.0648 27.5747 42.0346 27.3762 42.3107 27.3788C42.2777 27.3134 42.2926 27.2132 42.2623 27.1485C41.9928 27.2103 41.8095 27.5391 41.689 27.6556C41.7365 27.6141 41.7924 27.5834 41.853 27.5656L41.5726 28.2345C41.4433 28.2504 41.459 28.1475 41.4767 28.0481C41.4145 28.1836 41.3426 28.3145 41.2616 28.4398C41.182 28.2816 41.039 28.1599 41.2 27.9144L40.871 28.4869C40.7905 28.4654 40.496 28.565 40.5137 28.4656C40.1915 28.6352 40.1183 29.2971 39.6884 29.5241C39.6937 29.59 39.6761 29.6557 39.6386 29.7101C39.2944 29.984 38.8734 30.1003 38.6552 30.637L38.2308 30.6215C37.9847 30.9514 38.7844 30.6211 38.3805 31.1735C38.1004 31.5746 38.0734 31.1091 37.8918 31.1646C37.8174 31.4422 37.7405 31.9513 37.2517 32.0763C37.3 31.9404 37.4138 31.8936 37.4972 31.782ZM33.9648 35.347C33.9923 35.2443 34.0534 35.0166 34.1887 35.0559C34.2737 35.3048 34.134 35.2822 33.9648 35.347ZM28.8043 40.9786C28.8102 40.879 28.9136 40.8264 29.0592 40.7939C28.9969 40.8819 28.9073 40.9468 28.8043 40.9786ZM14.4722 56.7052C14.6769 56.5964 14.6004 56.6265 14.4638 56.703L14.4722 56.7052ZM14.0791 56.9392C14.0657 56.9892 14.0905 57.0077 14.1239 57.0166C14.1102 56.9564 14.1805 56.883 14.273 56.8155C14.2089 56.8103 14.1432 56.8224 14.0791 56.9392ZM48.9394 23.4649L48.8379 23.4883C48.9397 23.3192 48.937 23.3958 48.9392 23.4767L48.9394 23.4649Z" fill="#452F53"/>
<path d="M29.2327 40.168C29.2736 40.1758 29.3118 40.1943 29.3434 40.2214C29.3323 40.1738 29.3161 40.1457 29.2327 40.168Z" fill="#452F53"/>
<path d="M39.6734 29.5466C39.6714 29.533 39.6664 29.52 39.6588 29.5085L39.6734 29.5466Z" fill="#452F53"/>
<path d="M17.8937 50.8547C17.9568 50.8208 18.028 50.8049 18.0995 50.8087C18.0653 50.7697 18.0068 50.766 17.8937 50.8547Z" fill="#452F53"/>
<path d="M12.5994 58.8519L12.7701 58.6149C12.7085 58.6831 12.6261 58.729 12.5357 58.7455C12.5721 58.7761 12.6612 58.7881 12.5994 58.8519Z" fill="#452F53"/>
<path d="M10.6957 58.8924C10.6868 58.9258 10.6624 58.9281 10.6764 58.9646L10.745 59.0306C10.8006 58.9563 10.7954 58.8537 10.6957 58.8924Z" fill="#452F53"/>
<path d="M11.9793 58.4894C11.8502 58.3715 11.8205 58.4825 11.7644 58.5806C11.764 58.5747 11.7655 58.5688 11.7689 58.5639C11.9231 58.766 11.9512 58.6277 11.9793 58.4894Z" fill="#452F53"/>
<path d="M11.7493 58.6033C11.7308 58.632 11.7069 58.6569 11.6791 58.6767C11.7384 58.7551 11.7219 58.6614 11.7493 58.6033Z" fill="#452F53"/>
<path d="M13.7459 57.4271C13.6442 57.4623 13.8555 57.629 13.7664 57.6171C13.8434 57.852 14.0414 56.9795 13.7459 57.4271Z" fill="#452F53"/>
<path d="M11.5153 58.1328L11.6944 58.2642L11.6178 58.0948L11.5153 58.1328Z" fill="#452F53"/>
<path d="M12.6725 57.2466L12.3982 57.4261C12.4278 57.4489 12.4131 57.4926 12.3859 57.5389C12.5315 57.4172 12.7241 57.2873 12.6725 57.2466Z" fill="#452F53"/>
<path d="M12.3857 57.5387C12.3143 57.592 12.2582 57.6632 12.2233 57.7452C12.2862 57.6837 12.3408 57.6143 12.3857 57.5387Z" fill="#452F53"/>
<path d="M11.6834 57.8834L11.7851 57.8481L11.9604 57.7047L11.6834 57.8834Z" fill="#452F53"/>
<path d="M15.2085 54.8789L15.4197 54.5903C15.3931 54.5117 15.292 54.5561 15.2198 54.6587C15.1477 54.7614 15.1202 54.8642 15.2085 54.8789Z" fill="#452F53"/>
<path d="M14.0304 55.1881C14.1285 55.1549 14.1678 55.1862 14.2533 55.2002L14.0782 54.9985L14.0304 55.1881Z" fill="#452F53"/>
<path d="M14.7265 54.4343C14.7019 54.3593 14.9483 53.9283 14.6389 54.2501C14.6634 54.3251 14.4522 54.6137 14.7265 54.4343Z" fill="#452F53"/>
<path d="M18.7955 51.01L18.7338 51.0738L19.0465 51.3838L18.7955 51.01Z" fill="#452F53"/>
<path d="M21.4504 47.0104C21.0745 47.2251 21.5666 47.2766 21.2013 47.4406C21.2044 47.5843 21.4992 47.3062 21.4983 47.4428C21.5924 47.1913 21.7327 47.1455 21.4504 47.0104Z" fill="#452F53"/>
<path d="M21.4883 47.4462C21.4715 47.4912 21.459 47.5377 21.4511 47.585C21.4704 47.5409 21.4829 47.4941 21.4883 47.4462Z" fill="#452F53"/>
<path d="M60.9299 12.3126L61.1885 12.1914L60.9617 12.2051L60.9299 12.3126Z" fill="#452F53"/>
<path d="M61.0625 11.7174L61.3208 11.864L61.2623 11.5716C61.2242 11.6358 61.1536 11.7329 61.0625 11.7174Z" fill="#452F53"/>
<path d="M33.0377 35.4529L33.068 35.5175C33.1485 35.5391 33.1973 35.5016 33.299 35.4217L33.0377 35.4529Z" fill="#452F53"/>
<path d="M35.8107 33.0888L35.7612 33.1291L36.0231 33.229L35.8107 33.0888Z" fill="#452F53"/>
<path d="M37.7964 30.743C37.6974 30.8236 37.6302 30.9633 37.534 31.0446C37.6959 30.8291 38.0391 30.9479 37.7964 30.743Z" fill="#452F53"/>
<path d="M8.99415 39.7207C9.0355 39.6663 8.86132 39.6167 8.8345 39.5946C8.82973 39.7124 9.04061 39.7361 8.99415 39.7207Z" fill="#452F53"/>
<path d="M8.95738 40.8684L8.89541 40.822L9.00125 41.0378L8.95738 40.8684Z" fill="#452F53"/>
<path d="M8.57016 41.7914C8.8925 41.8213 8.66465 41.4388 8.82923 41.3133L8.90663 41.3132L8.70796 41.1439C8.65901 41.3599 8.6927 41.6784 8.57016 41.7914Z" fill="#452F53"/>
<path d="M7.75364 42.0399C7.87825 42.0524 7.80698 42.1851 7.83487 41.9366L7.79912 41.9479C7.7864 41.9797 7.77119 42.0104 7.75364 42.0399Z" fill="#452F53"/>
<path d="M7.79925 41.948C7.82678 41.8452 7.6796 41.9725 7.79925 41.948V41.948Z" fill="#452F53"/>
<path d="M7.67961 42.4277L7.63297 42.2575C7.55557 42.2576 7.49377 42.366 7.46274 42.3041C7.4657 42.4597 7.54033 42.4589 7.67961 42.4277Z" fill="#452F53"/>
<path d="M7.84201 42.6321L7.82526 42.5502C7.78971 42.5496 7.77414 42.5633 7.84201 42.6321Z" fill="#452F53"/>
<path d="M7.79268 42.3717L7.82247 42.5493C7.87245 42.5627 7.96963 42.5888 7.81682 42.4704C7.89695 42.5157 7.82386 42.4664 7.79268 42.3717Z" fill="#452F53"/>
<path d="M7.86634 42.3079C7.95991 42.2586 8.03722 42.1811 8.08386 42.3514C8.14269 42.0874 7.92794 42.0447 7.86634 42.3079Z" fill="#452F53"/>
<path d="M8.84621 41.9608L8.9672 41.898L8.90791 41.7749C8.94727 41.8391 8.75329 41.9299 8.84621 41.9608Z" fill="#452F53"/>
<path d="M7.21092 43.1771C7.27032 43.2109 7.39051 43.1954 7.4738 43.2178L7.44099 43.0959C7.37911 43.1269 7.30458 43.2052 7.21092 43.1771Z" fill="#452F53"/>
<path d="M7.47377 43.2178L7.52225 43.4034C7.58499 43.2804 7.54319 43.2364 7.47377 43.2178Z" fill="#452F53"/>
<path d="M8.14696 42.7821L8.02198 42.46L8.13153 42.8286L8.14696 42.7821Z" fill="#452F53"/>
<path d="M6.9925 43.7256L6.88046 43.5885L7.03979 43.8157L6.9925 43.7256Z" fill="#452F53"/>
<path d="M6.87466 44.0988C6.78091 43.9933 6.64578 44.1089 6.597 44.0244C6.60245 44.1433 6.64325 44.2578 6.71418 44.3534C6.69228 44.2463 6.73533 44.1746 6.87466 44.0988Z" fill="#452F53"/>
<path d="M6.79343 44.5352C6.77215 44.4732 6.74415 44.4139 6.70994 44.358C6.7231 44.4229 6.75174 44.4837 6.79343 44.5352Z" fill="#452F53"/>
<path d="M7.39777 43.6348C7.36027 43.6276 7.32171 43.6279 7.28435 43.6358C7.24698 43.6436 7.21156 43.6589 7.18015 43.6806L7.37382 43.6908C7.38014 43.6747 7.38812 43.656 7.39777 43.6348Z" fill="#452F53"/>
<path d="M7.37943 43.6924C7.35096 43.7542 7.33147 43.7937 7.32096 43.8107C7.32542 43.794 7.34342 43.7602 7.37943 43.6924Z" fill="#452F53"/>
<path d="M7.40398 43.6213C7.41798 43.6372 7.42442 43.6359 7.40398 43.6213V43.6213Z" fill="#452F53"/>
<path d="M7.84331 43.0936C7.90538 43.2174 7.94384 43.4181 8.15468 43.3199C8.05815 43.2137 7.93716 43.2765 7.84331 43.0936Z" fill="#452F53"/>
<path d="M7.64448 43.6355L7.74371 43.4984C7.69651 43.4858 7.61985 43.4831 7.58807 43.424L7.64448 43.6355Z" fill="#452F53"/>
<path d="M7.67297 43.7292L7.64532 43.6326L7.61025 43.6857L7.67297 43.7292Z" fill="#452F53"/>
<path d="M7.05326 44.3429C7.08941 44.4236 7.09262 44.5153 7.06221 44.5983C7.12867 44.5228 7.18114 44.4361 7.21713 44.3422C7.16884 44.3114 7.0843 44.2382 7.05326 44.3429Z" fill="#452F53"/>
<path d="M7.22658 44.0256L7.22191 44.043C7.25034 44.0413 7.25769 44.037 7.22658 44.0256Z" fill="#452F53"/>
<path d="M7.25548 44.3438C7.31146 44.2903 7.28523 44.2327 7.24641 44.1777C7.24672 44.2349 7.23655 44.2917 7.2164 44.3452C7.23916 44.3602 7.25508 44.3675 7.25548 44.3438Z" fill="#452F53"/>
<path d="M6.79329 44.7913C6.84109 44.77 6.88624 44.7431 6.92782 44.7113C6.86133 44.7262 6.75055 44.762 6.79329 44.7913Z" fill="#452F53"/>
<path d="M7.16569 44.0455C7.12567 44.0441 7.14596 44.0495 7.16569 44.0455V44.0455Z" fill="#452F53"/>
<path d="M7.16563 44.0458C7.18237 44.0919 7.20585 44.1353 7.23529 44.1746C7.23848 44.13 7.23331 44.0852 7.22008 44.0425L7.16563 44.0458Z" fill="#452F53"/>
<path d="M7.78739 46.0457C7.63101 45.974 7.54555 45.7488 7.77359 45.664C7.70568 45.4732 7.14604 45.3739 6.799 45.4029C6.8712 45.4222 6.93337 45.4568 6.97277 45.6429C7.07982 45.621 7.30138 45.3828 7.39875 45.5636C7.40884 45.7925 7.28063 45.7046 7.16167 45.7709C7.38981 45.7636 7.36493 46.1229 7.66481 46.2033L7.62655 45.9907C7.67524 45.9978 7.72829 46.0775 7.78739 46.0457Z" fill="#452F53"/>
<path d="M6.92445 45.1121L6.92843 45.0418C6.87373 45.1015 6.79167 45.1301 6.63052 45.1762C6.63857 45.2183 6.65532 45.2582 6.6797 45.2935C6.70408 45.3287 6.73556 45.3584 6.77211 45.3808L6.90894 45.0812L6.92445 45.1121Z" fill="#452F53"/>
<path d="M7.03079 44.7595C7.18711 44.8758 7.20579 45.0504 7.42857 45.0297C7.47916 44.8409 7.32843 44.8482 7.2975 44.697C7.23232 45.0069 7.23191 44.5753 7.05672 44.7516C7.05028 44.6928 7.0541 44.6334 7.06804 44.576C7.02631 44.6205 6.98058 44.661 6.93143 44.6971C6.95364 44.7031 6.96752 44.7068 6.95364 44.7031C6.93976 44.6994 6.95364 44.7031 6.95364 44.7031L7.01507 44.7404C6.94758 44.8146 6.96787 44.7277 6.95364 44.7031L6.92865 44.6964L6.91399 45.0288C6.97408 44.9497 7.01415 44.8574 7.03079 44.7595Z" fill="#452F53"/>
<path d="M8.46988 43.6209C8.45488 43.6212 8.44011 43.6172 8.42727 43.6095C8.43386 43.6417 8.44578 43.654 8.46988 43.6209Z" fill="#452F53"/>
<path d="M8.31496 43.6991C8.29869 43.6709 8.23672 43.6246 8.28031 43.5619C8.3239 43.4991 8.36638 43.5849 8.42469 43.6005C8.39569 43.5422 8.35752 43.407 8.22131 43.5044L8.23757 43.5325C8.13413 43.6298 7.86038 43.6963 7.84411 43.6682C7.99887 43.7002 8.15733 43.7106 8.31496 43.6991Z" fill="#452F53"/>
<path d="M7.70605 44.25L7.6972 44.5274L7.89634 44.4617L7.80193 44.4364C7.89893 44.3076 7.7771 44.2958 7.70605 44.25Z" fill="#452F53"/>
<path d="M6.66814 45.3918L6.4955 45.292L6.70557 45.5298L6.66814 45.3918Z" fill="#452F53"/>
<path d="M6.57408 45.7204L6.41695 45.6515L6.48329 45.7705L6.57408 45.7204Z" fill="#452F53"/>
<path d="M4.0662 64.8536L4.11961 64.7876C4.09979 64.8079 4.08191 64.83 4.0662 64.8536Z" fill="#452F53"/>
<path d="M3.83452 64.9074L3.75459 65.0169C3.78653 64.9846 3.81347 64.9476 3.83452 64.9074Z" fill="#452F53"/>
<path d="M3.64909 55.0372C3.45937 55.1232 3.18041 55.2092 3.37165 55.2396L3.56329 55.2463C3.55865 55.207 3.5641 55.1672 3.57911 55.1306C3.59412 55.0941 3.6182 55.0619 3.64909 55.0372Z" fill="#452F53"/>
<path d="M3.17124 61.8521L3.23441 61.8273L3.07754 61.702L3.17124 61.8521Z" fill="#452F53"/>
<path d="M3.91103 62.1008L3.75661 62.2439C3.81568 62.2051 3.86787 62.1568 3.91103 62.1008Z" fill="#452F53"/>
<path d="M6.66541 63.916L6.72195 63.705C6.55802 63.7503 6.65441 63.8238 6.66541 63.916Z" fill="#452F53"/>
<path d="M5.33145 49.5362C5.2486 49.6023 5.18146 49.6859 5.13488 49.7811C5.28091 49.6804 5.46522 49.6256 5.33145 49.5362Z" fill="#452F53"/>
<path d="M2.72335 67.2883C2.80051 67.2508 2.86501 67.1915 2.90891 67.1178C2.79273 67.1848 2.73525 67.2438 2.72335 67.2883Z" fill="#452F53"/>
<path d="M5.03617 50.0938C5.05723 50.0811 5.07708 50.0665 5.09548 50.0502C5.0855 49.9527 5.1006 49.8543 5.13933 49.7643C5.01591 49.8473 4.94728 49.948 5.03617 50.0938Z" fill="#452F53"/>
<path d="M19.1449 60.576C19.1575 60.5782 19.1699 60.5815 19.1819 60.5859C19.1751 60.5658 19.1629 60.5656 19.1449 60.576Z" fill="#452F53"/>
<path d="M23.2789 61.3772C23.2324 61.4011 23.1834 61.4199 23.1329 61.4333C23.1642 61.4387 23.2098 61.4242 23.2789 61.3772Z" fill="#452F53"/>
<path d="M5.9863 47.1255C6.00913 47.0403 5.97098 47.1031 5.9863 47.1255V47.1255Z" fill="#452F53"/>
<path d="M6.82353 46.9778C6.8391 47.0071 6.8647 47.0298 6.89566 47.0417C6.86593 47.0279 6.84088 47.0056 6.82353 46.9778Z" fill="#452F53"/>
<path d="M5.8893 51.2479C5.93087 51.2435 5.9243 51.2448 5.8893 51.2479V51.2479Z" fill="#452F53"/>
<path d="M6.10989 47.0306C6.07638 47.055 6.04654 47.0841 6.02128 47.1169C6.05464 47.0923 6.08446 47.0633 6.10989 47.0306Z" fill="#452F53"/>
<path d="M6.02088 47.0185L6.06243 46.9522C6.03764 46.9337 6.01598 46.9368 6.02088 47.0185Z" fill="#452F53"/>
<path d="M5.95575 47.2391C5.9704 47.1949 5.99256 47.1535 6.02127 47.1168C6.02127 47.1168 5.99107 47.1296 5.98626 47.1253L5.95575 47.2391Z" fill="#452F53"/>
<path d="M12.6173 62.9278L12.6395 62.9337C12.6996 62.8427 12.6672 62.8638 12.6173 62.9278Z" fill="#452F53"/>
<path d="M5.03308 57.991C4.84017 57.8113 4.8845 57.7458 4.95477 57.6724L4.42006 57.6243L5.03308 57.991Z" fill="#452F53"/>
<path d="M4.77824 64.5949L4.52895 64.4924C4.70267 64.155 4.90556 64.1975 4.65394 64.0259C4.667 64.0747 4.667 64.126 4.65394 64.1747C4.64088 64.2235 4.61522 64.2679 4.57954 64.3036C4.54464 64.3363 4.50432 64.3628 4.46038 64.3818L4.43276 64.4071C4.39681 64.4302 4.36012 64.4561 4.33604 64.7681C4.31993 64.7303 4.30752 64.6911 4.29897 64.651C4.29897 64.651 4.30864 64.6149 4.32808 64.6201C4.30602 64.4803 4.28737 64.5943 4.2346 64.7468C4.18183 64.8993 4.10069 65.08 4.02647 65.0571C3.95224 65.0342 3.99792 64.9304 4.06358 64.8409C4.0074 64.9062 3.94139 64.9748 3.8691 65.0447C3.84133 65.0372 3.91943 64.9124 3.94165 64.9183L3.73765 65.0243L3.74435 64.9994C3.61601 65.1472 3.47907 65.2874 3.33425 65.4192C3.35955 65.3248 3.42714 65.328 3.48446 65.2362C3.39957 65.3087 3.30486 65.3845 3.20737 65.4596C3.31458 65.2922 3.4601 65.1526 3.63188 65.0526C3.88435 64.6768 3.85078 64.7243 3.74659 64.8244C3.6982 64.8727 3.64641 64.9175 3.59164 64.9584C3.5366 64.9973 3.57761 64.9219 3.69092 64.7767C3.72305 64.7672 3.75327 64.7521 3.78022 64.7322C3.94803 64.5253 4.12879 64.3292 4.32142 64.1451C4.18014 64.2696 4.04549 64.4014 3.91803 64.54C3.78845 64.6953 3.64458 64.8381 3.4883 64.9665C3.54766 64.8782 3.57846 64.8299 3.44487 64.8953C3.69975 64.666 3.64159 64.6832 3.64035 64.6322L3.96301 64.3943C3.87743 64.4249 3.71379 64.5358 3.57763 64.5886C3.62331 64.4848 3.86549 64.3473 4.06671 64.2406C4.09656 64.2069 4.00096 64.2527 3.88904 64.315C3.77713 64.3772 3.65167 64.4567 3.63879 64.3937C3.77099 64.2447 3.65655 64.2497 3.51768 64.0905C3.62925 64.0073 3.68542 64.1086 3.77303 64.0815C3.70108 64.0592 3.63091 64.0314 3.56316 63.9985C3.56911 63.9763 3.63852 63.9949 3.67259 64.001C3.59936 63.9189 3.39393 63.9859 3.36068 63.7657C3.07325 63.65 3.87846 63.4104 3.5911 63.0834C3.67912 63.0326 3.74971 63.1468 3.86876 63.1578C3.80092 62.9093 3.68549 62.6762 3.52888 62.4716L3.75633 62.2558C3.51545 62.3995 3.32432 62.1132 3.17093 61.8638C3.08245 61.8959 2.99649 61.9345 2.91379 61.9794L2.83627 61.6134C2.88908 61.5829 2.97604 61.636 3.07724 61.7137L3.0227 61.6396C3.14706 61.542 3.29119 61.6371 3.42531 61.7475C3.36417 61.7757 3.29748 61.8025 3.23559 61.8335C3.3692 61.9551 3.53214 62.0398 3.7084 62.0792C3.68127 62.0431 3.66396 62.0005 3.65818 61.9557C3.68753 61.9826 3.72506 61.999 3.76479 62.0021C3.79255 62.0095 3.74262 61.9515 3.6866 61.8829L3.98881 61.8657L3.86942 61.8337L4.16358 61.4245C3.927 61.0635 3.54286 60.6868 3.52719 60.1677C3.71956 60.3383 3.8826 60.263 4.14082 60.3322C3.82447 60.4021 4.17515 60.7372 4.06302 60.9779C4.07147 60.958 4.08503 60.9405 4.10233 60.9275C4.11964 60.9144 4.14008 60.9061 4.16161 60.9034C4.18313 60.9007 4.20498 60.9038 4.22496 60.9122C4.24494 60.9207 4.26235 60.9342 4.27543 60.9515L4.11458 60.4412C4.32838 60.4985 4.29685 60.3829 4.41011 60.2823C3.9709 60.2777 4.20135 59.8841 4.11569 59.6707C4.26176 59.692 4.38814 59.7646 4.31122 59.985C4.68231 59.8106 3.89178 59.5512 4.21845 59.3649C4.20357 59.4205 4.17947 59.4438 4.24645 59.4826C4.15147 59.3262 4.32439 59.0362 4.43074 59.1391L4.41586 59.1946C4.55219 58.8413 4.67919 58.0897 4.33921 57.948C4.50408 58.003 4.66572 58.0671 4.82338 58.1402L3.78776 57.1961C4.07905 57.3307 4.86272 57.2937 4.95804 57.6377C5.00781 57.5902 5.04209 57.5287 5.05641 57.4614C5.07073 57.3941 5.06442 57.3241 5.03829 57.2604C4.98102 57.3075 4.56219 57.2935 4.55248 57.2076C4.94872 57.0727 4.77463 57.1005 5.13149 56.9015C5.04382 56.9732 4.59005 56.7564 4.64188 56.6185C4.70609 56.6565 5.11559 56.7276 5.15218 56.791L4.77166 56.323C4.83468 56.4321 5.16872 56.4293 5.31985 56.3984C5.21855 56.41 5.39946 56.1013 5.38514 55.9993L5.23742 56.1174C5.41377 55.748 4.68203 55.5579 4.81118 55.1759C4.89572 55.2491 5.37413 55.4517 5.48526 55.2702C5.27028 55.1174 4.43882 54.5553 4.35486 54.1579L4.5108 54.1312L4.43248 53.8126C4.85931 54.1985 5.24967 54.6229 5.59862 55.0804C5.74912 54.963 5.77083 55.0819 5.82053 54.8631C5.96834 54.8223 5.98012 55.0338 5.97134 55.0999L6.1956 54.6184C5.91273 54.5634 6.0221 54.1552 5.78792 54.1074L5.91678 54.7371C5.63391 54.6821 5.21601 54.1981 5.36827 53.8521C5.50314 53.793 5.84445 54.063 5.94108 54.08C5.85655 54.0067 5.85286 53.6873 5.93046 53.6754L6.04463 53.8934C6.20649 53.7225 5.76814 53.4593 6.10274 53.2989C6.1445 53.2208 6.53324 53.1583 6.37185 53.0943C5.83097 53.0809 5.29939 52.9506 4.81358 52.7124C5.00221 52.5548 5.21074 52.4225 5.4338 52.3192C5.72422 52.2571 5.9657 52.6998 6.21203 52.6467C6.14149 52.6075 6.08387 52.5486 6.04614 52.4773C6.13862 52.4098 6.27099 52.5822 6.29382 52.3859C6.02732 52.2699 6.43333 52.0096 6.08107 52.2248C6.05669 52.0159 6.20053 52.0455 6.25375 51.8246C6.05061 51.8386 5.6926 51.4421 5.66897 51.2305C5.74079 51.2547 5.81786 51.2589 5.89189 51.2426C6.03824 50.8741 6.23064 50.7114 6.34253 50.3604C6.42291 50.3492 6.5564 50.2065 6.65144 50.3182C6.61912 50.25 6.5381 50.1748 6.56509 50.063C6.8741 49.9315 6.52664 50.3175 6.86872 50.2515C6.71085 50.1853 6.73101 49.8991 6.68253 49.7135C6.41538 49.6776 6.51992 50.0538 6.57117 50.2402C6.38583 50.1646 6.2255 50.0384 6.1085 49.876C5.9915 49.7136 5.92256 49.5216 5.90956 49.3219C5.92124 49.0006 6.17404 49.2678 6.1445 49.2003C6.3877 48.6703 5.69553 48.5324 6.09927 48.1585C6.37788 48.0516 6.53757 48.2998 6.70734 48.3215C6.71054 48.5872 6.44681 48.6385 6.40014 48.8016L6.57161 48.6392C6.60231 48.6934 6.6146 48.756 6.60665 48.8177C6.59869 48.8795 6.57092 48.937 6.5275 48.9815C6.77924 48.8972 6.87059 48.0676 7.20357 47.7134C7.15926 47.6123 7.1263 47.4576 7.01702 47.4878L7.00202 47.6326C6.78068 47.6923 6.84597 47.2932 6.7034 47.4365C6.6409 47.2145 6.51716 46.9432 6.70629 46.7261L6.97196 46.7675C6.94653 46.7678 6.92152 46.774 6.8989 46.7856C6.87629 46.7973 6.8567 46.814 6.84168 46.8345C6.82665 46.855 6.81661 46.8788 6.81234 46.9038C6.80807 46.9289 6.8097 46.9546 6.81709 46.9789C6.74283 46.8341 7.29013 46.7129 7.00396 46.4814L6.77051 46.5975C6.71321 46.3559 6.50781 46.0896 6.65355 45.9233C6.37673 45.9235 6.6659 45.9772 6.33274 46.0099C6.53068 46.0154 6.48332 46.1366 6.44171 46.2475C6.4001 46.3583 6.35308 46.5005 6.57978 46.4541C6.1892 46.5012 6.33878 46.6871 5.97776 46.8017C6.06383 46.8247 6.16221 46.7797 6.05608 46.9536C6.0778 46.9748 6.09748 46.998 6.11488 47.0229C6.16253 46.9924 6.21748 46.9753 6.274 46.9733C6.43102 47.1314 6.31864 47.4287 6.38125 47.5615C6.30429 47.6599 6.30376 47.4842 6.19522 47.5117L6.29015 47.7127C6.10134 47.6621 5.88256 47.9011 5.86811 47.5996L5.77839 47.8345C5.70477 47.8777 5.64503 47.9411 5.6062 48.0172C5.56737 48.0932 5.55106 48.1788 5.5592 48.2638C5.48223 48.3622 5.66691 48.617 5.5571 48.4715L5.54531 48.882L5.49811 48.8694C5.35047 49.2316 5.55134 49.7259 5.08508 50.0443C5.11111 50.2097 5.07736 50.379 4.98989 50.5218L4.81917 50.5147C4.82248 50.6912 4.50443 50.9452 4.65093 51.0648C4.1663 51.1076 4.32099 51.8186 4.15903 52.0788L4.36559 52.152C4.30316 52.3675 4.28512 52.5935 4.31258 52.8163L4.49861 52.8661C4.592 53.1173 4.21341 53.3641 4.13802 53.701C4.0753 53.6574 4.11706 53.5793 4.18266 53.5344C3.65016 53.8113 4.23712 54.4418 3.862 54.7311C3.88166 54.7678 3.8866 54.8106 3.87582 54.8509C3.86505 54.8911 3.83935 54.9257 3.80397 54.9477C3.80397 54.9477 3.80769 54.9338 3.80992 54.9255C3.80497 54.938 3.80147 54.951 3.7995 54.9643C3.75854 54.995 3.70851 55.0263 3.66958 55.0605C3.71562 55.0416 3.75859 55.016 3.79707 54.9845C3.77818 55.0825 3.77743 55.1832 3.79486 55.2815L3.58379 55.2696C3.58379 55.2696 3.57933 55.2863 3.5771 55.2946C3.47534 55.3745 3.64992 55.4004 3.81677 55.3886C3.83504 55.4487 3.86306 55.5055 3.89971 55.5566C3.55605 55.5508 3.9336 55.8633 3.56177 55.8738C3.70977 55.9878 3.55389 56.4252 3.89888 56.5593C3.85168 56.5466 3.82257 56.5775 3.8319 56.5205C3.76252 56.6239 3.69592 56.7281 3.76835 56.8576L3.50229 56.8399L3.78037 57.1793C3.58674 57.2911 3.48077 57.3311 3.32307 57.1311C3.53252 57.5712 3.36082 57.4567 3.58238 57.8404L3.41856 57.7966C3.3888 57.9076 3.58017 58.1375 3.42477 58.1732C3.05368 58.3475 3.08279 59.394 2.64566 59.9702C3.16193 59.9538 2.3591 60.2178 2.73449 60.3273C2.60874 60.3413 2.52311 60.4165 2.44716 60.289C2.48932 60.6426 2.15294 60.7429 2.42478 61.0389C2.29903 61.0528 2.26899 60.9317 2.19268 60.9499C2.21376 60.9824 2.27141 61.0782 2.1951 61.0964C2.11879 61.1147 2.10631 61.028 2.06972 60.9646C2.0145 61.304 2.36896 61.4138 2.69992 61.5114C2.50589 61.6469 2.51134 61.7377 2.70798 61.9034C2.58461 61.9418 2.44879 62.0155 2.45312 61.7994C2.42187 61.9161 2.14456 62.4846 2.4126 62.5504C2.3348 62.5742 2.36945 62.7115 2.38348 62.748C2.32202 62.9232 2.28128 63.1051 2.2621 63.2898L2.32106 63.2252C2.62787 63.3908 2.35134 63.4566 2.3533 63.6713L2.31998 63.6624C2.25573 63.7474 2.20778 63.8435 2.17855 63.9459C2.16556 63.9889 2.16359 64.0344 2.17283 64.0783C2.187 64.1476 2.19454 64.1972 1.99712 64.5342L2.21792 64.4654C2.4468 64.4553 2.35833 64.5744 2.22126 64.7639C2.0842 64.9533 1.90092 65.2375 1.96353 65.3703L2.118 65.1826C2.18553 65.2304 1.99362 65.4468 1.77037 65.7025C1.5607 65.9294 1.3786 66.1802 1.22787 66.4499C1.17481 66.5369 1.1705 66.4196 1.14983 66.3635C0.730477 67.2511 1.44923 66.2235 1.4484 66.6042C1.25461 66.8499 1.02573 66.86 0.937341 67.2232C0.849765 67.3723 0.95165 67.4919 1.02537 67.6277C1.04582 67.6632 1.0627 67.7006 1.07578 67.7394C1.06462 67.7811 1.13449 67.7313 1.16747 67.7193L1.28473 67.6704C1.42719 67.6163 1.52849 67.6048 1.55878 67.6694C1.59151 67.5473 1.62723 67.414 1.90887 67.2514C2.07246 67.1851 2.15957 67.2709 2.3097 67.2993C2.42139 67.3104 2.53406 67.292 2.63633 67.2457C2.73859 67.1994 2.82684 67.127 2.89218 67.0357C2.90087 67.049 2.90572 67.0645 2.90619 67.0803C2.90666 67.0962 2.90274 67.1119 2.89485 67.1257C3.18225 66.9527 3.71281 66.7497 3.87606 66.4958C3.88451 66.8642 4.29304 66.6611 4.59175 66.4793C4.7144 66.3946 4.84693 66.3252 4.9864 66.2726C5.06826 66.2558 5.12801 66.3105 5.17579 66.4543L5.64724 66.283L5.65309 66.35C5.76265 66.341 5.86614 66.2959 5.94737 66.2219C6.0286 66.1478 6.083 66.0489 6.10205 65.9406C6.18535 65.9629 6.15064 66.0369 6.15281 66.0732C6.63739 66.0751 6.67225 66.0339 6.96032 65.6141L7.05674 65.8095C7.12339 65.6607 7.7928 65.9502 8.16431 65.5855C8.16825 65.623 8.15818 65.6606 8.13603 65.691C8.56219 65.3112 9.47913 65.9319 9.45009 65.1295L9.72317 64.8545C9.28425 64.9154 9.69618 64.511 9.48684 64.437C9.63972 64.3441 9.97944 64.5422 9.78472 64.6359L9.74402 64.6101C9.77685 65.0207 10.3062 64.6 10.3679 64.8695C11.1915 64.617 12.0605 64.6058 12.8434 64.4049L12.6682 64.1259L12.9453 64.0692C13.0357 64.1202 13.1063 64.279 12.9103 64.3217C13.0592 64.4657 13.1939 64.0852 13.179 64.0187C13.5943 64.0348 13.1326 64.414 13.2495 64.3888L13.4012 64.3223L13.355 64.295C13.4483 64.1355 13.4331 64.0035 13.6585 63.9508C13.8227 63.971 13.786 64.1189 13.8475 64.1115C13.8423 64.131 13.8756 64.1399 13.9405 64.0978L14.2896 64.0276L14.0845 63.8269C14.2023 63.665 14.4038 63.7458 14.1671 63.5187C14.5153 63.8738 15.4815 63.3114 15.6599 63.4008C15.7362 63.3021 15.8326 63.2207 15.9427 63.1619C16.0529 63.1032 16.1742 63.0685 16.2987 63.0601C16.2182 63.0386 16.1056 62.7703 16.3397 62.7408C16.4136 63.3201 16.8145 62.868 17.1049 63.2166C16.8667 62.9951 17.7241 62.9719 17.3624 62.6666C17.5641 62.6582 17.4329 62.87 17.6106 62.9623C17.9991 62.623 18.6288 62.8274 19.1569 62.5999C19.147 62.5258 19.0216 62.4386 19.1119 62.2903L19.5032 62.5737C19.6013 62.5077 19.4864 62.1257 19.755 62.3227C19.7099 62.2689 19.6422 62.1883 19.7078 62.1434C20.8832 62.1994 21.8263 61.2231 23.1001 61.6001C22.9129 61.4993 23.0077 61.4563 23.1185 61.4205C23.038 61.3989 23.0721 61.2384 23.029 61.1436L23.5649 61.2872C23.5699 60.9909 24.0503 61.1196 24.0234 60.8535L23.8929 60.9406C23.9904 60.5768 23.429 60.3282 23.3445 59.9217C23.2337 60.3354 22.6317 59.561 22.4193 60.1648C22.3192 60.1052 22.458 60.0204 22.382 59.9376C22.3307 60.1291 22.241 60.1974 22.0203 60.1769L22.0329 60.1297C21.4822 60.3303 21.1938 60.2293 20.5275 60.2947L20.6436 60.4836C20.5453 60.4903 20.4476 60.4642 20.3659 60.4092C20.2926 60.7496 20.753 60.3195 20.7022 60.6868C20.409 60.3374 19.739 60.9495 19.4916 60.529C19.2829 60.5862 19.6163 60.741 19.4172 60.8067L19.327 60.6992L19.3212 60.8762C19.2553 60.8743 19.1917 60.8516 19.1394 60.8114C19.0871 60.7712 19.0488 60.7156 19.03 60.6524C19.0633 60.6613 19.1168 60.5952 19.1484 60.577C18.9297 60.4826 18.6599 60.7675 18.5872 60.739L18.8086 60.7567C18.2706 61.0322 17.5351 61.0672 17.045 61.4745L17.1127 61.5552C16.7375 61.8445 16.746 61.5462 16.306 61.7557L16.3135 61.7279C16.2804 61.7831 16.2363 61.8308 16.1838 61.868C16.1313 61.9051 16.0716 61.931 16.0086 61.9438C16.0947 61.8002 15.7281 61.7913 15.8486 61.6301C15.4439 61.9413 15.6625 61.8362 15.4579 62.2664L15.3451 62.1321C15.2823 62.2997 15.2804 62.3736 15.0729 62.4817C15.2266 62.2967 14.86 62.2878 15.0236 62.0548C14.4441 61.8519 14.3995 62.5959 14.0385 62.1659C13.9348 62.6529 14.5217 62.2953 14.4256 62.4094C14.5681 62.522 14.3267 62.7787 14.1683 62.781C14.01 62.7832 13.7503 62.3088 13.3703 62.4273C13.4081 62.4195 13.4024 62.3853 13.4402 62.3775C13.2649 62.3097 13.1964 62.6098 12.9699 62.4777C12.94 62.7673 12.7327 62.5302 12.7947 62.8652L13.1386 62.6925C12.9604 62.8352 12.8792 63.2718 12.493 63.1802C12.5189 63.084 12.5662 62.995 12.6313 62.9197C12.507 62.8506 12.4599 63.0374 12.3224 62.9619C12.2576 62.6261 12.7328 62.7742 12.8831 62.4574C12.7372 62.3469 12.5383 62.8114 12.5469 62.4239C12.5176 62.9219 12.1465 62.4743 11.9805 62.8941L11.942 62.6933C11.9099 62.7353 11.8487 62.8528 11.7696 62.8703L11.8477 62.5787C11.6931 62.8558 11.3804 62.5012 11.2247 62.6826C11.6515 62.5559 11.3857 62.8924 11.608 62.9847C11.152 63.3982 11.1576 62.5664 10.5935 62.817C10.6669 62.7653 10.9269 62.8498 10.8279 62.9751C10.6878 62.9724 10.5515 62.9287 10.4361 62.8493C10.0563 63.0005 10.5529 63.0353 10.419 63.2018C10.2202 62.9997 10.256 63.3545 10.1033 63.4803L10.0467 63.2806C9.56285 63.2759 10.0454 63.7296 9.59847 63.6872L9.68552 63.3624L9.49575 63.4931L9.474 63.2521C9.29578 63.4841 9.2097 63.4611 8.96918 63.4591C8.99514 63.4939 9.01289 63.5342 9.02107 63.5768C9.02925 63.6195 9.02767 63.6634 9.01642 63.7054C9.00518 63.7473 8.98458 63.7862 8.95617 63.819C8.92775 63.8519 8.89226 63.8779 8.85237 63.895C8.68359 63.8141 8.87336 63.6834 8.6003 63.7918C8.63824 63.6502 8.65383 63.4698 8.8277 63.6206C8.82186 63.5535 8.8649 63.4818 8.85147 63.4097C8.66549 63.3152 8.47513 63.4815 8.37492 63.5112C8.4168 63.5036 8.46 63.5089 8.49878 63.5265L8.17 63.9205C8.08453 63.8619 8.11647 63.7871 8.15118 63.7131C8.0765 63.7586 8.04471 63.8661 7.9267 63.9178C7.91283 63.7474 7.85914 63.5813 8.00909 63.4548L7.6723 63.7455C7.62664 63.6827 7.41249 63.6044 7.45276 63.5319C7.20931 63.4964 7.00965 64.0084 6.69197 63.95C6.68678 63.9737 6.6769 63.9961 6.66291 64.0158C6.64893 64.0356 6.63112 64.0523 6.61055 64.0651C6.33238 64.1037 6.04109 63.9691 5.78481 64.2813L5.52179 64.0412C5.29221 64.1761 5.87029 64.3399 5.48506 64.567C5.21784 64.7424 5.30886 64.3472 5.18282 64.2956C5.07576 64.4842 4.90848 64.853 4.57093 64.6911C4.6286 64.6203 4.70357 64.6404 4.77824 64.5949ZM3.48384 64.9831C3.53164 64.9602 3.69364 64.8221 3.53659 64.9973C3.25533 65.3028 3.39666 65.1086 3.48939 64.9846L3.48384 64.9831ZM3.65024 61.4744C3.7085 61.5347 3.65936 61.5959 3.56837 61.6578C3.5662 61.6226 3.5731 61.5873 3.5884 61.5555C3.60371 61.5236 3.62691 61.4962 3.65579 61.4759L3.65024 61.4744ZM5.83366 48.0725C5.72798 48.1781 5.77043 48.1418 5.84219 48.0629L5.83366 48.0725ZM6.01079 47.8223C6.00474 47.8073 5.9936 47.7949 5.97933 47.7873C5.96505 47.7796 5.94855 47.7773 5.9327 47.7806C5.97673 47.8162 5.95961 47.8801 5.92158 47.9443C5.99159 47.9273 6.03642 47.9155 6.01783 47.8183L6.01079 47.8223ZM13.865 64.024L13.7973 63.988C13.9006 63.9026 13.8807 63.9657 13.865 64.024Z" fill="#452F53"/>
<path d="M3.82429 62.0686C3.78571 62.0763 3.74613 62.0778 3.70708 62.0729C3.71467 62.081 3.72391 62.0874 3.73419 62.0917C3.74448 62.0959 3.75555 62.0979 3.76667 62.0975C3.77778 62.0971 3.78868 62.0943 3.79862 62.0893C3.80857 62.0843 3.81732 62.0773 3.82429 62.0686Z" fill="#452F53"/>
<path d="M6.65765 63.9557C6.6638 63.9444 6.66719 63.9317 6.66754 63.9188L6.65765 63.9557Z" fill="#452F53"/>
<path d="M6.34722 52.5759C6.31094 52.6152 6.26313 52.642 6.21067 52.6524C6.25916 52.6713 6.3075 52.6575 6.34722 52.5759Z" fill="#452F53"/>
<path d="M6.19198 46.2579L6.18175 46.4516C6.20481 46.3655 6.2539 46.3489 6.30115 46.3169C6.26228 46.3065 6.17635 46.3162 6.19198 46.2579Z" fill="#452F53"/>
<path d="M7.87055 45.4132C7.85429 45.385 7.88245 45.3688 7.86694 45.3378L7.77531 45.3133C7.74798 45.4042 7.79805 45.495 7.87055 45.4132Z" fill="#452F53"/>
<path d="M6.89471 46.3451C7.06408 46.3905 7.04014 46.2799 7.04694 46.1657C7.04657 46.1724 7.0448 46.1791 7.04173 46.1851C6.82338 46.0671 6.85728 46.2071 6.89471 46.3451Z" fill="#452F53"/>
<path d="M7.0538 46.1289C7.05399 46.0948 7.06295 46.0613 7.07984 46.0317C6.99322 45.9996 7.04701 46.0765 7.0538 46.1289Z" fill="#452F53"/>
<path d="M6.03128 47.4351C6.09336 47.3922 5.83161 47.3251 5.91124 47.3166C5.73013 47.1818 6.02807 47.7914 6.03128 47.4351Z" fill="#452F53"/>
<path d="M7.46608 46.4565L7.24985 46.4194L7.39433 46.5354L7.46608 46.4565Z" fill="#452F53"/>
<path d="M6.9904 47.332L7.11467 47.157C7.07857 47.1473 7.06861 47.1178 7.06365 47.0808C7.01426 47.1985 6.92931 47.3156 6.9904 47.332Z" fill="#452F53"/>
<path d="M7.06366 47.0807C7.09236 47.03 7.09988 46.97 7.0846 46.9137C7.06766 46.9677 7.06057 47.0242 7.06366 47.0807Z" fill="#452F53"/>
<path d="M7.44502 46.7126L7.38017 46.7548L7.31798 46.8869L7.44502 46.7126Z" fill="#452F53"/>
<path d="M6.24072 49.4077L6.22914 49.6397C6.29186 49.6833 6.35394 49.6404 6.35127 49.5504C6.3486 49.4604 6.32664 49.398 6.24072 49.4077Z" fill="#452F53"/>
<path d="M7.0175 48.9521C6.95541 48.995 6.90821 48.9824 6.82784 48.9936L7.08011 49.085L7.0175 48.9521Z" fill="#452F53"/>
<path d="M6.87088 49.5884C6.9336 49.632 6.97061 49.9603 7.04352 49.6882C6.9808 49.6446 6.99238 49.4126 6.87088 49.5884Z" fill="#452F53"/>
<path d="M5.54388 52.697L5.55599 52.6407L5.13469 52.5249L5.54388 52.697Z" fill="#452F53"/>
<path d="M5.75342 55.8242C5.92386 55.599 5.50879 55.6932 5.69455 55.5108C5.61096 55.4229 5.54196 55.6693 5.46948 55.5844C5.53705 55.7543 5.45716 55.8192 5.75342 55.8242Z" fill="#452F53"/>
<path d="M5.4725 55.5732C5.46142 55.5402 5.44701 55.5085 5.42947 55.4784C5.43832 55.5122 5.45287 55.5443 5.4725 55.5732Z" fill="#452F53"/>
<path d="M23.9446 61.4367L24.1328 61.4782L23.9876 61.3649L23.9446 61.4367Z" fill="#452F53"/>
<path d="M24.1718 61.0331L24.27 61.2886L24.3011 61.0172C24.2818 61.0447 24.2169 61.0869 24.1718 61.0331Z" fill="#452F53"/>
<path d="M4.19271 64.2477L4.11357 64.3098C4.02591 64.3816 4.01663 64.394 4.00012 64.4223C4.06463 64.3592 4.11932 64.2995 4.19271 64.2477Z" fill="#452F53"/>
<path d="M5.20469 63.9145C5.12505 63.9229 5.04978 64.0039 4.97218 64.0159C5.11395 63.92 5.30988 64.2105 5.20469 63.9145Z" fill="#452F53"/>
</svg>
