<svg width="20" height="20" viewBox="0 0 20 20" fill="none" xmlns="http://www.w3.org/2000/svg">
<path d="M10 20C15.5234 20 20 15.5234 20 10C20 4.47656 15.5234 0 10 0C4.47656 0 0 4.47656 0 10C0 15.5234 4.47656 20 10 20ZM14.4141 8.16406L9.41406 13.1641C9.04688 13.5312 8.45312 13.5312 8.08984 13.1641L5.58984 10.6641C5.22266 10.2969 5.22266 9.70312 5.58984 9.33984C5.95703 8.97656 6.55078 8.97266 6.91406 9.33984L8.75 11.1758L13.0859 6.83594C13.4531 6.46875 14.0469 6.46875 14.4102 6.83594C14.7734 7.20312 14.7773 7.79687 14.4102 8.16016L14.4141 8.16406Z" fill="#04A2BD"/>
</svg>
