<svg width="32" height="32" viewBox="0 0 32 32" fill="none" xmlns="http://www.w3.org/2000/svg">
<path d="M32 16C32 7.17733 24.8226 0 15.9999 0C7.17734 0 0 7.17733 0 16C0 24.8227 7.17734 32 15.9999 32C24.8226 32 32 24.8227 32 16Z" fill="#8746A8"/>
<path d="M21.0818 11.9294C21.3418 11.6694 21.7644 11.6694 22.0244 11.9294C22.2844 12.1894 22.2844 12.612 22.0244 12.872L13.8507 20.7705L9.82378 16.7293C9.56244 16.4693 9.56244 16.048 9.82111 15.7866C10.0824 15.524 10.5038 15.5266 10.7638 15.784L13.848 18.8878L21.0818 11.9294Z" fill="white" stroke="white" stroke-width="0.6"/>
</svg>
