<svg width="58" height="72" viewBox="0 0 58 72" fill="none" xmlns="http://www.w3.org/2000/svg">
<g clip-path="url(#clip0_67_1652)">
<path fill-rule="evenodd" clip-rule="evenodd" d="M10.7434 19.735C10.873 20.5577 11.4286 20.9182 11.7961 21.4048C12.3967 22.1971 12.7246 23.0726 12.5443 24.0842C12.4071 24.8523 11.6876 25.1409 11.1351 24.6131C10.6775 24.1759 10.2626 23.6818 9.89063 23.1687C8.38966 21.0869 6.49435 19.3781 4.68853 17.5797C3.4283 16.3211 2.22794 15.0035 1.00784 13.7064C0.496449 13.1626 0.28904 12.5297 0.429353 11.7734C0.574201 11.0058 0.931984 10.6375 1.72081 10.6733C3.43749 10.7555 5.16244 10.8027 6.86577 11.0045C10.2197 11.3995 13.5579 11.9147 16.9075 12.3311C18.1047 12.4793 19.3196 12.5523 20.5254 12.5444C22.0355 12.5332 23.3357 13.254 24.7273 13.6478C25.0141 13.7298 25.2585 14.1712 25.404 14.4979C25.6128 14.9665 25.5403 15.1195 25.0576 16.2072C22.3181 15.9501 19.5271 15.7548 16.756 15.4079C14.6084 15.1386 12.4895 14.6472 10.3498 14.3227C9.5033 14.194 8.62547 13.9954 7.50567 14.3056C7.97868 14.6403 8.25089 14.875 8.56098 15.0441C11.4682 16.6331 14.3933 18.1946 17.2936 19.7955C20.3651 21.4893 23.5263 23.0002 26.7176 24.4449C27.8221 24.9434 28.9311 25.4305 30.0349 25.9266C31.8954 26.7621 33.7411 27.6268 35.6141 28.4337C37.6021 29.2931 39.6248 30.0751 41.6128 30.9344C43.7156 31.8462 45.8198 32.7627 47.8754 33.7805C48.7162 34.1982 49.5115 34.7946 50.1721 35.4624C51.254 36.5545 51.3594 37.9738 50.6807 39.356C50.2894 40.1543 49.6435 40.6426 48.8248 40.8998C47.6074 41.279 46.398 41.7064 45.1514 41.9573C41.3408 42.7286 37.5072 43.3574 33.6342 43.7546C32.3725 43.8834 31.1321 44.2233 29.8881 44.4936C29.5926 44.5577 29.3177 44.7271 28.9845 44.8669C29.0688 45.8404 29.6295 46.4366 30.2836 46.9296C31.657 47.9612 33.0203 49.0208 34.4743 49.9299C35.7128 50.7026 37.0595 51.3051 38.3772 51.9405C42.3469 53.8526 46.4232 55.494 50.6451 56.766C51.8631 57.1331 53.113 57.3934 54.3458 57.7212C54.9619 57.884 55.5736 58.0681 56.1721 58.2784C56.8538 58.5169 57.1549 59.0288 57.1564 59.7497C57.1561 60.5013 56.8418 60.8906 56.1354 60.7672C54.5685 60.491 53.0051 60.1811 51.4551 59.8172C47.7806 58.9508 44.325 57.4608 40.849 56.0268C37.8383 54.7858 34.8923 53.419 32.092 51.7585C30.036 50.5416 28.2521 49.0324 27.0007 46.9594C26.5642 46.2341 26.2726 45.475 26.2653 44.6195C26.2561 43.6536 26.6011 42.8425 27.4324 42.3499C28.0239 41.9972 28.6878 41.7361 29.3503 41.5359C31.6247 40.8382 34.0108 40.8495 36.3341 40.4665C38.6599 40.0829 40.9827 39.6698 43.3132 39.3228C44.9069 39.0874 46.3553 38.432 47.8453 37.894C47.9951 37.8413 48.0843 37.6282 48.2222 37.4652C46.1472 35.7541 43.6588 34.928 41.2825 33.8902C35.323 31.2908 29.3151 28.8026 23.4093 26.093C19.3607 24.2348 15.4489 22.0778 11.4756 20.0583C11.2682 19.9525 11.0487 19.8675 10.7434 19.735Z" fill="#FFC005"/>
</g>
<defs>
<clipPath id="clip0_67_1652">
<rect width="62.68" height="42.679" fill="white" transform="translate(41.2247) rotate(75)"/>
</clipPath>
</defs>
</svg>
