<svg width="1004" height="695" viewBox="0 0 1004 695" fill="none" xmlns="http://www.w3.org/2000/svg">
<path d="M46.2954 519.643C35.3665 523.518 25.7431 522.854 17.419 517.671C9.10764 512.471 3.90402 504.867 1.81018 494.854C-0.453845 484.025 0.242506 470.69 3.88597 454.864C7.54069 439.027 12.8778 422.089 19.8836 404.052C26.9024 386.011 34.5239 368.263 42.7453 350.807C50.9667 333.351 58.6981 317.452 65.9369 303.113C73.1745 288.768 78.6277 277.316 82.2961 268.743C79.9232 270.455 76.7084 272.684 72.6413 275.433C68.5753 278.187 64.6743 280.738 60.9308 283.076C57.1876 285.428 54.6816 286.816 53.4183 287.263C51.6379 287.894 50.0376 287.746 48.611 286.79C47.1861 285.842 46.0398 284.645 45.1979 283.203C43.1919 282.756 42.1389 282.258 42.0239 281.715C41.5408 280.727 41.1452 279.843 40.8511 279.075C40.5596 278.306 40.3559 277.655 40.2423 277.106C39.3376 272.783 41.0492 269.921 45.3991 268.52C49.7503 267.125 54.0016 265.252 58.1549 262.909C62.3082 260.567 66.471 257.636 70.6538 254.115C74.8253 250.604 76.9985 247.937 77.1651 246.138C77.7889 243.886 78.2287 242.706 78.4856 242.613C79.2471 242.343 80.3861 243.248 81.9132 245.324C82.5868 245.957 83.1295 247.226 83.524 249.115C83.9788 251.287 83.8852 253.495 83.2745 255.744L90.2656 251.959C96.8133 236.269 103.715 220.005 110.986 203.18C118.247 186.359 125.163 170.167 131.737 154.603C138.313 139.045 144.237 125.242 149.502 113.195C154.767 101.157 158.593 92.382 160.99 86.8823C160.878 86.339 160.562 86.1565 160.058 86.3341C159.039 86.6946 157.381 89.1812 155.059 93.7831C149.502 105.061 143.897 116.488 138.274 128.079C132.639 139.672 127.88 149.214 123.984 156.698C120.088 164.183 118.126 167.796 118.068 167.521C118.011 167.253 119.229 163.988 121.741 157.711C124.256 151.447 127.442 143.847 131.312 134.908C135.171 125.983 139.104 117.029 143.096 108.054C147.09 99.0803 150.487 91.4753 153.274 85.2552C156.076 79.0289 157.592 75.8711 157.849 75.7784C158.554 75.2407 160.021 75.3731 162.233 76.1852C164.449 77.0019 166.123 77.5043 167.255 77.6788C169.709 77.681 173.19 78.9961 177.693 81.6142C182.196 84.2323 186.255 87.2975 189.864 90.8136C193.463 94.3348 195.036 97.6416 194.581 100.704C191.697 105.211 187.878 111.734 183.115 120.251C178.342 128.778 173.011 138.227 167.133 148.6C161.241 158.971 155.466 169.524 149.797 180.259C144.113 190.992 138.835 201.012 133.957 210.3C129.08 219.594 125.334 227.167 122.746 233.022C127.537 229.877 133.099 226.451 139.434 222.751C145.757 219.055 152.144 215.338 158.588 211.597C165.046 207.853 170.774 204.586 175.794 201.789C180.79 199 184.164 197.149 185.888 196.251C186.85 195.621 188.098 195.025 189.621 194.485C191.905 193.674 193.163 193.819 193.386 194.898C193.613 195.984 192.971 197.516 191.485 199.498C189.986 201.483 188.147 203.153 185.976 204.499C185.718 204.589 183.609 205.929 179.647 208.491C175.673 211.059 171.116 214.06 165.962 217.482C160.809 220.909 156.219 224.068 152.18 226.948C148.79 229.029 144.311 231.774 138.75 235.2C133.19 238.631 128.237 241.696 123.883 244.399C119.541 247.104 117.401 248.594 117.456 248.854C119.74 248.043 123.631 246.089 129.127 242.975C134.611 239.872 140.397 236.512 146.464 232.902C152.531 229.304 157.552 226.507 161.504 224.522C158.225 227.137 153.73 230.109 148.015 233.442C142.291 236.785 136.483 240.298 130.567 243.991C124.64 247.694 119.754 251.393 115.884 255.083C113.909 258.7 111.681 263.052 109.197 268.145C106.714 273.241 103.825 278.984 100.522 285.39C101.283 285.12 101.951 285.039 102.511 285.126C109.683 285.491 116.819 286.306 123.913 287.569C130.997 288.837 137.039 290.979 142.036 294.005C147.034 297.031 149.932 301.749 150.731 308.154C152.483 321.779 151.207 338.516 146.888 358.366C149.26 351.415 151.165 344.494 152.583 337.591C154.003 330.695 154.886 324.123 155.221 317.9C156.131 330.08 154.407 343.343 150.03 357.686C145.654 372.029 140.327 386.423 134.07 400.848C137.146 393.359 139.708 386.05 141.767 378.928C143.825 371.8 145.534 364.952 146.888 358.366C142.469 372.431 137.497 385.24 131.993 396.786C126.481 408.338 122.776 416.042 120.858 419.925C117.364 426.686 113.474 433.889 109.198 441.508C104.922 449.128 100.744 456.279 96.6918 462.949C92.6139 469.629 89.3821 474.989 86.947 479.057C84.5231 483.113 83.5268 484.912 83.9884 484.467C87.599 480.855 92.0189 474.924 97.2591 466.674C102.498 458.418 107.513 450.099 112.313 441.709C115.068 436.657 118.053 431.315 121.242 425.676C124.429 420.037 127.48 414.374 130.383 408.702C127.392 415.278 124.418 421.937 121.457 428.654C118.497 435.374 115.129 442.166 111.387 449.013C97.8886 473.278 85.5698 490.445 74.4403 500.495C63.2984 510.551 53.9237 516.928 46.2956 519.632L46.2954 519.643ZM32.8253 513.953C39.6763 511.523 46.8496 505.637 54.3164 496.303C61.7813 486.961 68.9937 475.464 75.9655 461.802C82.9373 448.141 89.4623 433.612 95.5206 418.237C101.59 402.851 106.826 387.767 111.252 372.972C115.665 358.18 118.816 344.853 120.7 332.989C122.588 321.129 122.913 312.213 121.667 306.253C120.48 300.571 118.319 297.12 115.202 295.902C112.085 294.681 109.008 294.023 105.98 293.937C104.602 293.842 103.186 293.255 101.732 292.17C100.267 291.094 99.2974 290.054 98.8256 289.055C92.7202 301.687 86.0122 315.915 78.678 331.742C71.3299 347.582 64.3555 363.499 57.7437 379.506C51.1207 395.524 45.4198 410.337 40.6168 423.96C39.8792 425.674 38.3907 429.912 36.1146 436.682C33.846 443.436 31.3863 451.291 28.7551 460.223C26.1101 469.155 24.0431 477.882 22.5559 486.41C21.0668 494.931 20.8588 501.763 21.9329 506.91C22.497 509.612 23.7547 511.716 25.7017 513.203C27.6504 514.698 30.0265 514.947 32.8253 513.953ZM130.38 408.714L134.067 400.86L134.364 400.321C132.299 404.833 130.984 407.622 130.38 408.714Z" fill="#F6F7F7"/>
<path d="M247.725 325.034C242.221 323.496 237.185 320.993 232.647 317.512C228.099 314.046 225.835 310.41 225.859 306.619C225.795 303.735 226.638 298.926 228.372 292.205C230.106 285.487 232.278 277.889 234.869 269.403C237.463 260.926 240.091 252.289 242.761 243.489C245.422 234.698 247.821 226.866 249.937 220.012C250.272 219.021 249.782 220.285 248.474 223.804C247.165 227.318 245.509 231.831 243.52 237.332C241.532 242.836 239.677 248.29 237.933 253.706C236.202 259.117 234.918 263.134 234.105 265.746C233.821 264.393 234.367 261.447 235.735 256.88C237.093 252.331 238.709 247.326 240.575 241.865C242.442 236.406 244.215 231.197 245.907 226.235C247.6 221.273 248.785 217.796 249.466 215.814C244.299 226.372 238.326 238.302 231.557 251.603C224.775 264.909 218.037 277.983 211.296 290.846C204.563 303.698 198.596 314.967 193.397 324.666C188.183 334.368 184.696 340.839 182.921 344.081C175.547 344.083 169.93 342.007 166.056 337.851C162.182 333.703 159.746 329.185 158.73 324.313C158.165 321.606 158.007 318.895 158.258 316.19C159.745 308.977 161.998 299.816 165.008 288.72C168.006 277.626 171.28 266.215 174.841 254.487C178.391 242.754 181.687 231.772 184.746 221.536C187.791 211.298 190.101 203.431 191.68 197.92C191.028 196.122 189.723 194.111 187.757 191.9C185.791 189.688 184.611 187.635 184.215 185.739C183.762 183.575 185.316 181.863 188.879 180.601L191.74 179.587C192.88 179.182 194.277 178.976 195.912 178.978C197.737 178.621 200.706 178.446 204.807 178.439C208.897 178.449 212.809 179.172 216.526 180.614C220.231 182.061 222.55 184.948 223.453 189.279C224.077 192.262 223.803 195.555 222.644 199.16C220.391 204.032 217.898 210.726 215.183 219.248C212.456 227.781 209.824 236.708 207.264 246.044C204.719 255.382 202.412 263.977 200.372 271.823C198.321 279.679 196.979 285.311 196.323 288.742C198.079 286.664 201.057 281.979 205.267 274.669C209.465 267.365 214.271 258.684 219.674 248.628C225.076 238.571 230.538 228.415 236.038 218.184C241.536 207.946 246.524 199.132 250.992 191.724C250.767 190.646 251.484 187.264 253.159 181.577C254.849 175.901 256.957 169.701 259.52 162.969C262.061 156.258 264.359 151.222 266.392 147.881C269.979 148.071 273.982 148.61 278.407 149.513C282.829 150.417 286.764 151.635 290.225 153.17C293.686 154.709 295.668 156.692 296.18 159.131C296.407 160.217 296.28 161.567 295.802 163.191C290.018 178.617 284.553 192.988 279.418 206.286C274.287 219.597 270.036 230.624 266.681 239.372C263.328 248.128 261.461 253.587 261.094 255.746C262.737 253.134 264.596 250.29 266.685 247.224C269.901 241.722 274.813 235.184 281.42 227.606C289.455 217.775 298.922 207.225 309.808 195.95C320.696 184.68 332.523 174.311 345.276 164.844C347.4 163.212 349.085 162.179 350.363 161.726C352.648 160.915 353.365 161.758 352.523 164.234C351.668 166.715 350.172 169.648 348.014 173.024C345.859 176.407 343.517 179.275 341 181.623C328.81 193.792 317.483 206.243 307.044 218.957C296.605 231.672 287.37 244.976 279.352 258.869C273.31 269.152 268.065 279.956 263.608 291.27C259.144 302.603 253.844 313.86 247.725 325.034ZM265.201 249.926C265.259 250.202 265.977 249.73 267.358 248.509C268.742 247.297 269.755 246.283 270.404 245.469C274.842 239.246 280.655 232.169 287.872 224.229C295.089 216.29 302.181 208.759 309.159 201.629C316.127 194.515 321.226 189.505 324.449 186.619C326.303 185.083 328.761 182.765 331.79 179.655C334.821 176.55 335.76 175.487 334.607 176.473C331.014 178.914 326.185 182.879 320.107 188.378C314.017 193.88 307.534 200.106 300.664 207.046C293.782 213.997 287.38 220.842 281.42 227.606C278.626 231.209 276.001 234.694 273.557 238.025C271.115 241.363 268.832 244.432 266.685 247.224C266.283 247.95 265.892 248.674 265.498 249.39L265.201 249.926Z" fill="#F6F7F7"/>
<path d="M324.284 288.721C317.61 285.564 312.738 282.13 309.643 278.428C306.548 274.727 306.149 274.148 305.299 270.087C304.961 268.466 304.832 266.84 304.9 265.212C304.971 263.592 304.953 261.927 304.871 260.207C305.3 255.693 306.84 247.735 309.508 236.325C312.175 224.912 310.314 231.94 314.453 217.096C318.58 202.258 323.118 187.057 328.057 171.489C332.995 155.934 337.823 141.788 342.525 129.072C340.355 130.423 338.093 131.661 335.73 132.787C333.368 133.919 331.05 134.881 328.766 135.692C322.406 137.947 316.658 139.477 311.499 140.29C306.353 141.098 303.365 141.503 302.545 141.498C299.89 141.864 297.913 140.604 296.637 137.707C295.347 134.827 294.486 131.712 294.065 128.369C293.247 128.372 292.647 128.148 292.287 127.693C291.916 127.243 291.572 126.926 291.271 126.746C291.158 126.203 290.984 125.688 290.735 125.187C290.499 124.694 290.326 124.173 290.211 123.631C289.647 120.929 289.976 118.916 291.208 117.609C292.427 116.305 293.937 115.328 295.717 114.697C297.745 113.979 300.009 113.4 302.514 112.948C305.007 112.501 307.529 111.824 310.071 110.923C314.393 109.391 318.864 107.3 323.501 104.63C328.131 101.976 330.661 99.6967 331.082 97.8055C331.504 95.9059 332.094 94.8254 332.856 94.5577C333.36 94.38 334.432 95.6 336.073 98.2143C336.131 98.4896 336.249 98.7346 336.438 98.9548C336.618 99.1852 336.765 99.5692 336.876 100.107C337.385 102.547 336.906 105.483 335.443 108.904L351.838 103.091C354.915 95.6071 358.28 87.2202 361.929 77.9253C365.58 68.6356 379.229 33.9432 380.59 29.9743C379.346 29.2566 378.558 28.0751 378.218 26.4543C377.765 24.2902 377.89 21.9203 378.579 19.3452C379.27 16.7752 379.495 14.9543 379.267 13.8683C379.098 13.0576 378.717 12.1752 378.109 11.2299C377.504 10.2867 377.107 9.39948 376.936 8.58937C376.483 6.42527 377.399 4.93346 379.694 4.11995C380.198 3.94226 381.52 3.76746 383.671 3.58148C387.201 3.49594 391.916 4.15054 397.799 5.55412C403.686 6.95971 408.966 9.00673 413.623 11.7183C418.29 14.4249 420.31 18.2193 419.693 23.0883C418.367 25.891 416.038 30.7834 412.723 37.7671C409.411 44.7638 390.533 83.8503 387.455 91.3318C394.207 88.3607 401.172 85.4561 408.357 82.6155C415.547 79.7795 421.974 77.2113 427.627 74.9139C433.293 72.616 437.011 71.1529 438.791 70.5196C443.37 68.895 445.796 68.7661 446.079 70.1143C446.306 71.2002 445.515 72.6466 443.713 74.4432C441.902 76.25 439.909 77.8296 437.738 79.1755C437.426 79.006 433.981 80.5073 427.423 83.7111C420.85 86.9126 414.351 90.0861 407.916 93.2392C404.928 94.5933 401.119 96.3032 396.5 98.3744C391.882 100.448 387.448 102.391 383.18 104.194L381.996 106.356C387.527 104.106 393.742 101.537 400.657 98.6494C407.561 95.7672 413.043 93.6054 417.108 92.1636C412.955 94.5062 407.36 97.1452 400.334 100.07C393.309 102.997 386.603 106.182 380.222 109.604C376.383 117.358 372.265 126.748 367.874 137.744C363.487 148.753 358.957 160.393 354.292 172.652C349.631 184.927 345.215 196.81 341.064 208.314C336.925 219.813 336.469 218.753 333.184 227.765C329.875 236.791 329.29 234.69 327.485 239.109C330.765 236.493 366.101 210.85 377.01 197.094C387.919 183.344 397.5 171.37 405.735 161.178C410.987 154.952 416.113 148.417 421.09 141.559C426.068 134.709 430.82 127.714 435.342 120.588C435.732 119.867 436.053 119.754 436.287 120.253C436.524 120.75 436.454 121.361 436.062 122.073L424.456 141.017C424.928 142.016 425.276 142.98 425.475 143.93L426.109 146.971C426.618 149.411 426.782 151.826 426.595 154.216C426.424 156.61 425.575 158.793 424.075 160.778C420.377 165.293 414.863 172.482 407.507 182.351C400.152 192.229 343.57 254.989 337.026 265.448C330.469 275.908 326.22 283.667 324.28 288.716L324.284 288.721ZM323.852 249.115L339.603 230.452L325.581 243.705L323.852 249.115Z" fill="#F6F7F7"/>
<path d="M469.023 248.231C463.506 246.696 458.483 244.19 453.931 240.711C449.383 237.245 447.131 233.604 447.156 229.816C447.092 226.931 447.936 222.123 449.669 215.402C451.392 208.686 453.562 201.088 456.166 192.6C458.747 184.126 461.388 175.486 464.045 166.688C466.717 157.896 469.105 150.065 471.221 143.212C471.556 142.221 471.079 143.478 469.772 147C468.449 150.518 466.793 155.031 464.817 160.529C462.829 166.033 460.962 171.492 459.231 176.903C457.487 182.32 456.216 186.331 455.403 188.943C455.119 187.59 455.651 184.647 457.019 180.082C458.388 175.528 460.007 170.523 461.873 165.064C463.727 159.608 465.513 154.396 467.205 149.434C468.885 144.475 470.073 141 470.751 139.016C465.596 149.568 459.623 161.499 452.855 174.802C446.073 188.109 439.324 201.185 432.593 214.045C425.861 226.897 419.881 238.172 414.682 247.868C409.48 257.564 405.98 264.041 404.206 267.283C396.832 267.285 391.214 265.209 387.351 261.05C383.477 256.903 381.031 252.39 380.012 247.516C379.447 244.809 379.289 242.097 379.54 239.393C381.039 232.174 383.28 223.019 386.29 211.922C389.3 200.823 392.572 189.415 396.123 177.69C399.673 165.956 402.982 154.972 406.028 144.739C409.073 134.501 411.383 126.634 412.962 121.123C412.323 119.319 411.005 117.314 409.052 115.1C407.086 112.888 405.906 110.835 405.51 108.938C405.057 106.774 406.601 105.068 410.174 103.801L413.024 102.789C414.178 102.381 415.562 102.178 417.197 102.181C419.034 101.817 422.004 101.642 426.092 101.642C430.195 101.649 434.093 102.374 437.811 103.816C441.528 105.258 443.834 108.15 444.738 112.481C445.362 115.464 445.087 118.757 443.939 122.36C441.676 127.237 439.193 133.926 436.465 142.451C433.751 150.978 431.106 159.911 428.559 169.244C426.002 178.588 423.707 187.177 421.655 195.028C419.617 202.882 418.262 208.516 417.619 211.942C419.362 209.87 422.352 205.179 426.549 197.872C430.759 190.562 435.553 181.887 440.969 171.827C446.371 161.771 451.821 151.62 457.333 141.384C462.831 131.146 467.819 122.332 472.275 114.929C472.049 113.851 472.779 110.466 474.453 104.78C476.129 99.1066 478.25 92.9036 480.801 86.1773C483.354 79.4613 485.653 74.4274 487.683 71.0869C491.259 71.2796 495.264 71.8213 499.686 72.7253C504.108 73.6293 508.043 74.8471 511.517 76.3785C514.966 77.9238 516.96 79.9004 517.472 82.3398C517.699 83.4258 517.571 84.7757 517.094 86.3995C511.309 101.826 505.845 116.197 500.71 129.495C495.566 142.812 491.328 153.833 487.973 162.581C484.606 171.34 482.753 176.796 482.386 178.955C484.016 176.346 485.875 173.504 487.966 170.436C491.182 164.933 496.107 158.39 502.701 150.818C510.749 140.983 520.216 130.433 531.102 119.155C541.976 107.888 553.804 97.5219 566.57 88.0492C568.684 86.4222 570.379 85.385 571.645 84.9369C573.942 84.1228 574.658 84.9633 573.817 87.4417C572.963 89.9232 571.466 92.8564 569.299 96.2369C567.143 99.6202 564.802 102.488 562.297 104.83C550.094 117.003 538.78 129.45 528.328 142.168C517.889 154.882 508.654 168.187 500.648 182.074C494.606 192.357 489.348 203.164 484.894 214.48C480.444 225.81 475.146 237.063 469.027 248.238L469.023 248.231ZM486.486 173.129C486.544 173.404 487.261 172.932 488.656 171.706C490.039 170.493 491.052 169.48 491.701 168.666C496.139 162.442 501.952 155.365 509.169 147.426C516.373 139.49 523.466 131.962 530.443 124.829C537.411 117.715 542.51 112.704 545.733 109.819C547.587 108.282 550.045 105.965 553.087 102.849C556.118 99.7436 557.056 98.6812 555.891 99.6697C552.31 102.105 547.469 106.076 541.391 111.575C535.3 117.077 528.831 123.3 521.96 130.237C515.078 137.188 508.662 144.042 502.701 150.804C499.907 154.407 497.296 157.882 494.853 161.214C492.411 164.551 490.113 167.629 487.965 170.419C487.576 171.14 487.184 171.863 486.78 172.581L486.484 173.121L486.486 173.129Z" fill="#F6F7F7"/>
<path d="M543.082 228.927C538.647 229.924 534.671 228.495 531.135 224.654C527.605 220.828 525.39 216.738 524.485 212.401C523.752 208.888 524.434 202.684 526.533 193.799C528.632 184.914 531.539 174.652 535.253 163.01C538.955 151.379 542.942 139.786 547.229 128.236C551.502 116.689 555.349 106.383 558.784 97.3113C562.206 88.2506 564.618 81.8756 566.035 78.1689C563.412 82.5904 561.044 86.9141 558.923 91.156C556.802 95.4005 555.497 97.6042 554.992 97.7819C554.735 97.872 555.54 94.9041 557.426 88.8546C559.29 82.8132 563.164 71.626 569.037 55.2984C571.579 54.3973 574.936 54.8088 579.119 56.522C583.302 58.2405 587.177 60.5013 590.77 63.295C594.361 66.0945 596.443 68.8487 597.007 71.5509C595.226 77.4162 592.13 85.1301 587.717 94.6875C583.293 104.256 578.665 114.111 573.834 124.252C568.991 134.404 564.707 143.624 560.981 151.927C561.572 150.841 564.086 146.898 568.544 140.087C572.978 133.28 578.506 124.773 585.121 114.584C591.721 104.389 598.805 93.5979 606.39 82.1843C613.964 70.7732 621.206 59.995 628.095 49.8461C634.983 39.7056 640.937 31.3362 645.984 24.7479C651.019 18.1653 654.297 14.6066 655.821 14.0685C657.357 13.5247 659.903 14.2923 663.476 16.37C667.035 18.4507 670.496 20.9342 673.831 23.818C677.166 26.7102 679.091 29.363 679.602 31.8024C679.661 32.0776 678.286 35.0375 675.505 40.6648C672.727 46.3079 669.304 53.4074 665.227 61.9764C661.151 70.5506 657.189 79.3679 653.344 88.4301C649.516 97.4998 646.396 105.8 644.013 113.332C641.63 120.863 640.873 126.078 641.752 128.963C639.098 129.321 636.411 127.582 633.709 123.743C630.995 119.906 629.037 115.151 627.849 109.466C627.168 106.216 627.307 101.959 628.249 96.6733C629.192 91.4014 630.419 86.168 631.933 80.9751C633.436 75.7988 634.805 71.2392 636.04 67.3105C637.265 63.3842 637.843 61.2915 637.786 61.0214C636.659 63.4588 635.209 67.3165 633.451 72.5906C631.691 77.8654 630.04 83.0295 628.499 88.0855C626.958 93.1416 626.008 96.7453 625.643 98.9124C625.724 95.392 626.782 89.3479 628.816 80.7748C630.851 72.207 634.012 63.2318 638.344 53.8447C636.111 57.5511 632.294 63.7739 626.88 72.5213C621.48 81.271 615.365 91.5099 608.53 103.233C601.697 114.965 594.625 127.137 587.305 139.762C579.972 152.393 573.054 164.659 566.532 176.566C560.013 188.472 554.647 199.029 550.423 208.226C546.202 217.436 543.764 224.326 543.078 228.933L543.082 228.927Z" fill="#F6F7F7"/>
<path d="M701.721 175.741C696.132 177.721 689.671 177.532 682.361 175.186C675.039 172.844 668.506 169.344 662.772 164.69C657.012 160.045 653.604 155.148 652.527 150.001C650.49 140.256 651.024 128.799 654.153 115.623C657.27 102.457 662.075 88.903 668.577 74.9628C675.083 61.0298 682.419 48.1035 690.573 36.2C698.731 24.296 706.985 14.8284 715.341 7.7935C717.658 5.81423 719.801 4.32354 721.78 3.32484C723.763 2.33336 725.257 1.65633 726.276 1.29591C729.322 0.217081 733.348 1.18285 738.346 4.20874C743.343 7.23462 748.034 10.7417 752.412 14.7117C756.791 18.6818 759.515 21.9358 760.596 24.4547C761.502 28.7913 760.233 34.832 756.817 42.5902C753.373 50.3518 748.524 58.7645 742.228 67.8239C735.932 76.8918 728.972 85.6817 721.335 94.1973C713.688 102.732 706.131 109.991 698.651 115.98C691.161 121.986 684.471 125.883 678.58 127.675C676.144 136.974 675.478 144.195 676.552 149.329C677.119 152.044 678.24 154.188 679.94 155.762C681.63 157.342 684.368 157.32 688.118 155.701C693.768 151.371 700.574 144.737 708.533 135.812C716.494 126.885 724.998 116.964 734.048 106.052C743.085 95.148 756.535 81.0108 763.714 73.5122C767.529 69.5455 770.442 67.2074 772.48 66.484C774.26 65.8532 775.286 66.2118 775.568 67.5658C775.795 68.6518 775.083 70.795 773.43 73.9927C771.779 77.1984 740.587 121.686 734.051 131.563C727.517 141.446 721.451 150.284 715.838 158.082C710.242 165.889 705.534 171.769 701.721 175.741ZM683.783 111.44C690.773 105.765 698.039 98.686 705.54 90.2104C713.053 81.7292 719.979 73.0928 726.334 64.3002C732.684 55.5004 737.643 47.8571 741.192 41.3667L742.683 38.6602C742.571 38.117 741.233 39.6104 738.697 43.1233L711.935 79.6563C711.733 80.0222 711.381 80.2882 710.877 80.4659C710.619 80.556 710.685 80.1748 711.046 79.3182C711.407 78.4667 712.148 77.3952 713.255 76.1314C717.535 70.5466 721.863 64.4335 726.202 57.8006C730.555 51.1783 734.69 44.8378 738.611 38.789C743.64 31.4926 746.033 27.2922 745.808 26.2056C739.963 28.2782 733.096 33.9165 725.192 43.1102C717.289 52.3118 709.621 63.0239 702.219 75.2451C694.803 87.4694 688.655 99.5395 683.783 111.44Z" fill="#F6F7F7"/>
<path d="M468.47 693.92C465.943 694.886 462.749 694.83 458.929 693.743C455.098 692.665 451.641 691.136 448.559 689.164C445.477 687.192 443.748 685.374 443.361 683.72C442.976 682.074 443.294 681.046 444.307 680.659C444.809 680.468 445.674 680.361 446.907 680.341C448.139 680.314 449.449 680.342 450.848 680.408C448.498 677.408 446.614 674.08 445.209 670.407C445.083 669.861 445.754 666.306 447.248 659.729C448.741 653.151 450.642 645.074 452.936 635.486C455.244 625.906 457.539 616.323 459.844 606.736C462.137 597.153 464.085 588.983 465.669 582.222C467.241 575.473 468.013 571.949 467.948 571.669C467.998 570.745 466.859 573.21 464.515 579.06C462.162 584.915 459.678 591.645 457.055 599.247C454.433 606.856 452.393 613.489 450.972 619.133C452.504 610.443 454.268 601.217 456.266 591.445C458.24 581.689 461.175 569.84 465.078 555.881C468.973 541.942 474.644 524.39 482.077 503.231C486.005 503.529 490.38 504.037 495.224 504.727C500.07 505.431 504.328 506.576 508.012 508.16C511.686 509.758 513.876 512.069 514.585 515.098C514.842 516.202 514.756 517.589 514.321 519.255C508.564 535.866 503.353 551.518 498.676 566.208C493.989 580.91 490.314 593.121 487.631 602.852C484.958 612.58 483.337 618.606 482.772 620.913C484.287 619.139 486.022 617.124 487.97 614.876C489.919 612.633 492.059 610.012 494.392 607.014L493.831 608.134C493.267 609.247 492.754 610.645 492.321 612.317C491.887 613.988 491.982 614.395 492.609 613.556C495.441 609.171 500.67 602.071 508.282 592.246C515.897 582.435 523.823 572.194 532.063 561.536L532.424 557.793C524.622 569.189 517.925 578.204 512.322 584.847C509.119 588.773 506.047 592.427 503.112 595.799C500.19 599.17 497.587 602.492 495.332 605.758C497.716 601.849 500.702 597.555 504.291 592.876C507.881 588.202 512.338 582.587 517.697 576.037C519.391 573.891 521.633 571.082 524.401 567.62C527.17 564.157 529.997 560.376 532.893 556.265L532.424 557.793L540.724 545.614L532.893 556.265L535.954 539.333C534.057 540.66 533.202 539.34 533.376 535.366C533.539 531.403 534.967 526.582 537.63 520.908C540.294 515.239 544.056 511.024 548.916 508.258C550.623 507.309 553.532 507.692 557.648 509.416C561.776 511.142 565.516 513.312 568.882 515.925C572.248 518.538 573.328 520.823 572.137 522.783C567.934 529.494 564.737 537.317 562.559 546.254C560.381 555.19 558.823 564.117 557.877 573.029C556.93 581.947 556.368 590.117 556.189 597.536C556 604.971 555.939 610.619 556.018 614.487C565.577 600.024 573.935 586.624 581.088 574.276C588.256 561.931 594.617 549.145 600.19 535.905C605.767 522.669 603.4 529.867 608.208 512.717C607.889 511.342 607.35 509.676 606.621 507.7C605.879 505.729 605.197 503.371 604.551 500.614C603.842 497.585 603.28 494.049 602.889 489.994C602.488 485.95 602.752 481.793 603.685 477.536C604.604 472.082 606.057 468.001 608.04 465.285C610.026 462.574 612.148 460.788 614.431 459.914C618.216 458.466 621.966 458.91 625.675 461.242C629.387 463.573 631.532 465.974 632.11 468.451C633.658 473.87 634.089 481.279 633.392 490.697C632.71 500.114 631.813 509.537 630.72 518.956C629.625 528.376 628.835 536.19 628.352 542.373C628.11 544.869 627.612 546.261 626.855 546.549C625.842 546.936 624.456 545.742 622.702 542.959C620.949 540.183 619.794 538.152 619.214 536.867C615.287 549.478 618.109 539.847 612.602 552.756C607.083 565.67 601.447 577.734 595.676 588.946C589.894 600.167 584.5 609.738 579.475 617.657C580.2 625.482 578.696 633.484 574.97 641.666C571.243 649.848 566.219 655.147 559.896 657.57C554.84 659.506 549.811 658.872 544.798 655.698C539.784 652.517 536.669 648.303 535.446 643.072C534.609 639.492 534.455 636.172 534.978 633.118C535.503 630.07 535.575 627.712 535.19 626.063C534.288 622.205 533.475 616.969 532.748 610.338C532.022 603.713 531.636 596.208 531.603 587.815C531.476 587.27 531.421 586.76 531.459 586.294C531.486 585.84 531.467 585.473 531.402 585.193C525.305 595.632 519.467 605.369 513.882 614.412C508.285 623.463 503.666 630.78 500.025 636.375L483.143 663.094C484.028 663.356 485.102 663.849 486.372 664.555C487.643 665.27 488.446 666.318 488.768 667.693C489.153 669.339 488.066 672.087 485.529 675.908C482.981 679.737 480.064 683.476 476.794 687.129C473.514 690.787 470.74 693.049 468.47 693.92ZM534.225 558.451L534.887 557.752L535.062 554.98L534.225 558.451ZM559.815 614.835C564.647 608.484 570.207 600.123 576.447 589.781C582.701 579.439 587.926 569.709 592.125 560.598C600.524 542.374 608.102 522.969 614.843 502.379C613.091 506.654 610.715 512.369 607.706 519.518C604.698 526.675 601.645 533.92 598.548 541.26C595.45 548.6 592.702 554.822 590.321 559.938C583.484 575.464 576.902 587.585 570.552 596.319C564.19 605.055 560.515 610.216 559.515 611.799C558.631 612.739 558.251 613.787 558.385 614.931C558.509 616.084 558.994 616.046 559.815 614.835Z" fill="#F6F7F7"/>
<path d="M664.078 616.342C660.537 617.698 656.635 618.357 652.363 618.348C648.09 618.336 644.092 617.394 640.354 615.52C636.605 613.657 632.301 610.271 627.446 605.378C622.592 600.489 619.446 595.014 618.03 588.951C617.449 586.475 617.314 584.125 617.618 581.908C620.159 555.127 628.232 528.402 641.813 501.738C655.396 475.082 673.747 449.976 696.859 426.418C700.401 425.062 704.4 425.107 708.875 426.546C713.337 427.988 717.32 430.292 720.815 433.456L728.218 433.321C727.253 430.39 725.939 428.874 724.251 428.763C722.577 428.654 721.579 427.914 721.255 426.532C721.175 423.863 722.485 421.787 725.173 420.305C727.846 418.829 729.827 417.851 731.085 417.369C735.126 415.823 738.952 416.535 742.534 419.508C746.12 422.496 748.588 426.277 749.939 430.859C756.199 429.361 762.642 427.502 769.273 425.252C775.907 423.016 781.705 421.023 786.671 419.27C791.625 417.528 794.349 416.557 794.863 416.361L796 415.926C796.757 415.637 797.265 416.042 797.524 417.146C797.973 419.071 797.361 421.109 795.655 423.26C793.645 426.439 788.11 430.134 779.053 434.341C769.987 438.568 760.396 442.613 750.3 446.479C749.997 451.096 749.136 456.231 747.704 461.878C746.273 467.527 744.494 473.458 742.371 479.675C740.937 484.123 738.631 490.185 735.476 497.844C732.309 505.514 729.035 513.296 725.653 521.189C722.275 529.09 719.412 535.732 717.106 541.114C718.864 538.046 721.667 532.691 725.534 525.057C729.377 517.439 732.44 510.792 734.704 505.12C735.575 502.984 736.837 499.577 738.494 494.887C740.152 490.203 741.781 485.679 743.379 481.309C744.968 476.957 745.887 474.125 746.142 472.825C744.586 481.523 742.1 490.284 738.653 499.1C735.212 507.928 731.606 516.055 727.842 523.503C724.077 530.949 720.826 537.071 718.105 541.864C715.371 546.664 713.809 549.436 713.437 550.171C705.666 566.36 697.384 580.708 688.617 593.213C679.84 605.737 671.665 613.436 664.083 616.338L664.078 616.342ZM648.666 606.93C649.924 606.448 651.341 605.462 652.918 603.954C655.316 601.235 658.306 597.243 661.886 591.972C665.47 586.7 669.214 581.218 673.108 575.516C676.504 570.018 680.189 563.43 684.18 555.747C688.158 548.079 692.407 539.168 696.926 529.035C700.87 520.022 705.046 510.241 709.47 499.697C713.882 489.163 718.089 478.317 722.093 467.176L717.757 475.14C719.077 472.542 720.658 469.011 722.512 464.543C724.355 460.085 725.939 456.554 727.257 453.945C719.293 456.4 714.53 457.77 712.939 458.077C712.826 458.727 712.499 459.15 711.998 459.34C711.496 459.531 711.014 458.664 710.564 456.739L710.035 454.463C709.807 453.504 709.689 452.425 709.684 451.219C707.096 451.919 704.419 453.39 701.637 455.657C698.868 457.917 695.997 461.568 693.049 466.596C689.783 472.65 685.516 480.284 680.239 489.503C674.961 498.73 669.65 508.944 664.29 520.147C658.919 531.36 654.145 543.014 649.965 555.12C645.776 567.23 643.044 579.376 641.761 591.573C641.275 595.355 641.416 598.904 642.19 602.212C643.287 606.901 645.499 607.55 648.846 604.165C647.769 605.475 647.275 606.271 647.341 606.542C647.471 607.101 647.909 607.219 648.666 606.93ZM648.846 604.165C653.001 599.578 659.271 590.797 667.662 577.826C676.056 564.863 684.165 549.831 692.002 532.723C694.574 527.23 697.504 520.938 700.802 513.818C704.088 506.709 707.297 499.849 710.437 493.25C713.572 486.644 715.956 481.535 717.581 477.909C713.573 487.843 709.843 496.854 706.358 504.936C702.877 513.023 699.509 520.692 696.257 527.936C688.549 544.396 680.354 559.687 671.687 573.813C663.007 587.94 655.396 598.056 648.846 604.165Z" fill="#F6F7F7"/>
<path d="M754.509 582.353C750.082 583.447 746.036 582.07 742.395 578.215C738.741 574.365 736.389 570.233 735.357 565.824C734.52 562.244 735.031 555.895 736.887 546.783C738.746 537.67 741.374 527.133 744.773 515.17C748.176 503.221 751.854 491.306 755.819 479.429C759.786 467.56 763.36 456.966 766.553 447.639C769.746 438.313 771.988 431.752 773.305 427.941C770.795 432.505 768.528 436.975 766.53 441.345C764.52 445.713 763.259 447.997 762.757 448.188C762.502 448.286 763.238 445.235 764.948 439.02C766.664 432.818 770.237 421.318 775.676 404.533C778.189 403.57 781.584 403.917 785.834 405.59C790.073 407.274 794.041 409.507 797.726 412.293C801.401 415.098 803.566 417.866 804.211 420.621C802.587 426.64 799.695 434.579 795.534 444.424C791.374 454.275 787.003 464.419 782.428 474.878C777.851 485.334 773.807 494.831 770.311 503.375C770.873 502.254 773.287 498.181 777.561 491.145C781.833 484.105 787.134 475.32 793.489 464.784C799.833 454.258 806.65 443.091 813.948 431.296C821.232 419.499 828.188 408.358 834.82 397.864C841.451 387.376 847.209 378.722 852.08 371.905C856.95 365.089 860.152 361.382 861.666 360.802C863.18 360.223 865.762 360.965 869.409 363.018C873.057 365.075 876.599 367.542 880.03 370.434C883.447 373.329 885.457 376.009 886.037 378.485C886.102 378.764 884.819 381.813 882.187 387.617C879.556 393.43 876.308 400.75 872.452 409.573C868.598 418.403 864.885 427.485 861.279 436.813C857.677 446.147 854.79 454.679 852.61 462.416C850.429 470.154 849.816 475.49 850.78 478.421C848.123 478.837 845.379 477.112 842.545 473.242C839.712 469.376 837.624 464.549 836.272 458.765C835.498 455.457 835.506 451.109 836.312 445.692C837.111 440.286 838.184 434.924 839.556 429.593C840.931 424.27 842.178 419.588 843.296 415.557C844.415 411.532 844.948 409.378 844.883 409.099C843.821 411.612 842.477 415.58 840.857 420.998C839.226 426.427 837.715 431.732 836.32 436.916C834.916 442.111 834.066 445.812 833.758 448.021C833.742 444.43 834.62 438.238 836.42 429.444C838.221 420.65 841.156 411.422 845.229 401.768C843.09 405.59 839.432 412.012 834.255 421.046C829.069 430.089 823.211 440.653 816.693 452.752C810.16 464.862 803.391 477.428 796.399 490.465C789.391 503.499 782.801 516.153 776.589 528.436C770.377 540.714 765.275 551.603 761.305 561.071C757.323 570.551 755.056 577.643 754.509 582.353Z" fill="#F6F7F7"/>
<path d="M971.162 534.983C965.093 537.306 958.467 535.483 951.301 529.528C944.813 524.205 938.461 516.435 932.212 506.221C925.965 496.009 921.467 484.975 918.697 473.128C918.183 470.928 917.742 468.767 917.38 466.651C917.02 464.542 916.748 462.471 916.553 460.445C916.15 455.194 917.794 450.735 921.474 447.08C925.166 443.415 927.99 441.662 929.951 441.808C930.452 441.618 931.121 441.517 931.94 441.498C932.762 441.486 933.738 441.559 934.879 441.723C939.983 436.469 945.607 428.163 951.768 416.802C957.914 405.439 962.485 393.191 965.46 380.042C967.263 372.455 967.915 367.559 967.395 365.347C966.815 362.871 965.196 363.341 962.562 366.745C959.917 370.167 957.16 374.295 954.301 379.14C951.443 383.985 949.227 387.759 947.665 390.457C935.792 411.515 924.138 431.13 912.707 449.306C901.266 467.499 892.23 485.959 885.603 504.703C883.289 511.297 881.341 517.067 879.748 522.03C878.154 526.991 877.528 531.359 877.864 535.129C870.7 532.771 865.627 529.909 862.634 526.552C859.654 523.193 857.707 519.593 856.801 515.727C856.288 513.527 855.997 511.386 855.925 509.307C855.854 507.244 855.843 505.142 855.89 503.019C856.049 496.655 858 486.454 861.739 472.418C865.479 458.382 870.272 442.14 876.144 423.684C882.018 405.235 888.394 385.985 895.264 365.947C902.137 345.913 915.827 314.237 920.819 300.323C925.823 286.403 929.298 276.524 931.229 270.676C930.165 271.982 929.357 272.967 928.83 273.615C928.291 274.274 927.434 275.95 926.282 278.647C925.116 281.341 923.069 286.404 920.138 293.83C915.876 305.071 913.502 310.777 912.988 310.973C912.745 311.066 913.149 309.267 914.208 305.555C915.259 301.853 916.642 297.197 918.362 291.585C920.083 285.973 921.84 280.575 923.657 275.378C925.473 270.175 926.913 266.323 927.977 263.818C929.104 261.584 930.046 260.325 930.816 260.031C931.318 259.84 932.061 259.775 933.035 259.854C934.023 259.927 935.453 259.903 937.353 259.775C939.511 259.557 942.805 260.388 947.242 262.292C951.678 264.197 955.694 266.637 959.278 269.619C962.862 272.599 964.501 275.8 964.209 279.207C961.942 283.678 958.499 291.299 953.863 302.08C949.229 312.856 915.587 379.852 908.925 396.06C902.251 412.274 896.117 427.226 890.505 440.926C884.905 454.63 880.415 466.029 877.035 475.121C873.657 484.22 871.782 489.736 871.412 491.679C873.616 489.338 877.162 483.621 882.062 474.545C886.961 465.468 892.84 454.437 899.714 441.456C906.598 428.464 913.995 414.828 921.944 400.529C929.88 386.237 938.051 372.61 946.443 359.64C954.836 346.677 963.089 335.787 971.215 326.968C974.757 325.612 979.124 325.742 984.317 327.358C989.511 328.974 992.87 331.283 994.401 334.3C999.216 334.865 1002.2 337.616 1003.36 342.578C1004.52 347.533 1003.81 353.66 1001.26 360.94C998.696 368.225 995.965 374.52 993.082 379.827C991.762 382.431 990.35 384.921 988.843 387.3C987.339 389.677 985.759 392.085 984.131 394.51C987.321 388.188 990.198 381.383 992.775 374.089C995.329 366.809 997.672 358.868 999.782 350.253C999.974 348.682 999.785 347.029 999.244 345.281C998.692 343.542 998.21 344.102 997.775 346.967C996.054 358.43 993.005 369.503 988.627 380.185C984.236 390.868 979.273 400.872 973.75 410.184C975.456 408.033 977.162 405.656 978.89 403.044C980.621 400.43 982.272 397.772 983.846 395.063C979.891 404.087 975.54 411.977 970.804 418.744C966.045 425.518 961.466 431.249 957.067 435.929C956.62 436.404 956.184 436.874 955.748 437.338C955.3 437.805 954.952 438.087 954.696 438.185L958.76 432.582C963.975 425.484 968.975 418.024 973.75 410.184C967.461 418.604 961.667 425.621 956.383 431.239C951.088 436.869 946.838 441.047 943.622 443.783C946.857 444.643 948.508 446.414 948.575 449.085C948.783 451.111 949.541 455.548 950.862 462.39C952.198 469.234 953.722 476.379 955.463 483.816L958.218 495.593C959.086 499.309 960.013 502.636 960.965 505.57C964.12 516.663 968.346 521.199 973.645 519.171C976.172 518.204 979.383 514.867 983.29 509.176C984.481 507.217 985.577 506.046 986.592 505.659C987.094 505.468 987.446 505.785 987.641 506.615C988.672 511.018 987.448 516.361 983.958 522.651C980.48 528.935 976.217 533.047 971.162 534.983Z" fill="#F6F7F7"/>
<path d="M159.754 520.437C157.987 521.114 156.039 521.451 153.907 521.468C151.774 521.484 149.783 521.042 147.925 520.142C146.059 519.249 143.931 517.614 141.522 515.25C139.112 512.886 137.563 510.228 136.873 507.28C136.592 506.072 136.523 504.932 136.686 503.841C138.03 490.766 142.117 477.692 148.962 464.626C155.808 451.561 165.028 439.226 176.619 427.624C178.386 426.947 180.385 426.951 182.601 427.635C184.827 428.32 186.804 429.426 188.537 430.955L192.228 430.857C191.754 429.432 191.103 428.695 190.272 428.643C189.433 428.604 188.942 428.245 188.782 427.569C188.747 426.268 189.4 425.256 190.745 424.517C192.09 423.784 193.074 423.297 193.707 423.053C195.722 422.283 197.628 422.619 199.411 424.05C201.184 425.492 202.412 427.323 203.065 429.556C206.192 428.799 209.406 427.86 212.725 426.732C216.038 425.613 218.937 424.613 221.407 423.736C223.89 422.865 225.251 422.376 225.507 422.278L226.074 422.061C226.448 421.916 226.707 422.115 226.83 422.647C227.049 423.587 226.725 424.592 225.875 425.642C224.861 427.201 222.096 429.028 217.565 431.123C213.037 433.228 208.248 435.242 203.2 437.174C203.039 439.426 202.596 441.933 201.866 444.699C201.135 447.465 200.236 450.359 199.161 453.4C198.433 455.583 197.272 458.545 195.674 462.3C194.076 466.054 192.414 469.867 190.712 473.731C189.002 477.6 187.559 480.856 186.388 483.494C187.273 481.987 188.694 479.36 190.635 475.622C192.578 471.89 194.12 468.632 195.266 465.849C195.702 464.807 196.347 463.134 197.187 460.84C198.019 458.548 198.838 456.339 199.656 454.201C200.453 452.066 200.928 450.682 201.051 450.046C200.26 454.297 198.994 458.58 197.252 462.899C195.507 467.221 193.694 471.201 191.793 474.85C189.903 478.499 188.267 481.498 186.893 483.852C185.518 486.207 184.728 487.565 184.542 487.927C180.618 495.861 176.455 502.899 172.043 509.042C167.642 515.186 163.538 518.983 159.755 520.431L159.754 520.437ZM152.098 515.913C152.721 515.675 153.434 515.185 154.229 514.439C155.425 513.108 156.921 511.146 158.731 508.552C160.531 505.964 162.406 503.276 164.367 500.477C166.072 497.778 167.93 494.547 169.933 490.781C171.949 487.02 174.091 482.653 176.363 477.694C178.353 473.279 180.469 468.488 182.703 463.32C184.928 458.158 187.062 452.852 189.089 447.394L186.898 451.303C187.567 450.028 188.361 448.297 189.298 446.11C190.235 443.929 191.027 442.199 191.698 440.918C187.724 442.149 185.341 442.843 184.547 442.997C184.483 443.314 184.328 443.515 184.073 443.613C183.817 443.711 183.587 443.291 183.369 442.352L183.113 441.248C183 440.776 182.947 440.249 182.942 439.67C181.656 440.018 180.31 440.752 178.923 441.866C177.528 442.982 176.09 444.779 174.61 447.238C172.961 450.212 170.812 453.957 168.157 458.477C165.501 462.997 162.821 468.012 160.122 473.497C157.415 478.991 155.007 484.697 152.88 490.626C150.764 496.553 149.367 502.489 148.694 508.446C148.436 510.294 148.502 512.025 148.879 513.635C149.412 515.918 150.514 516.223 152.189 514.558C151.652 515.203 151.403 515.59 151.435 515.726C151.497 515.995 151.712 516.055 152.097 515.908L152.098 515.913ZM152.193 514.563C154.271 512.308 157.424 507.995 161.644 501.629C165.865 495.269 169.95 487.9 173.907 479.513C175.204 476.821 176.679 473.739 178.34 470.256C180 466.768 181.619 463.413 183.208 460.175C184.785 456.937 185.988 454.435 186.81 452.657C184.784 457.526 182.893 461.94 181.143 465.897C179.384 469.857 177.69 473.614 176.044 477.165C172.15 485.23 168.025 492.726 163.658 499.657C159.299 506.586 155.471 511.551 152.193 514.563Z" fill="#F6F7F7"/>
<path d="M207.728 564.975C202.295 567.053 197.466 566.857 193.244 564.38C189.023 561.908 186.326 558.191 185.165 553.226C183.912 547.865 184.112 541.214 185.758 533.276C187.415 525.335 189.893 516.821 193.201 507.74C196.506 498.66 200.124 489.714 204.042 480.909C207.969 472.1 211.663 464.074 215.127 456.83C218.584 449.591 221.183 443.808 222.928 439.486C221.759 440.373 220.171 441.526 218.17 442.951C216.169 444.375 214.241 445.701 212.39 446.917C210.54 448.139 209.302 448.864 208.679 449.102C207.791 449.443 206.989 449.387 206.264 448.934C205.538 448.481 204.954 447.899 204.509 447.193C203.504 446.995 202.97 446.764 202.907 446.493C202.654 446.007 202.453 445.569 202.295 445.196C202.135 444.818 202.023 444.5 201.959 444.226C201.458 442.079 202.286 440.635 204.455 439.873C206.615 439.121 208.72 438.134 210.778 436.905C212.829 435.681 214.878 434.168 216.93 432.354C218.984 430.551 220.044 429.191 220.102 428.292C220.386 427.164 220.598 426.57 220.725 426.522C221.099 426.377 221.681 426.814 222.467 427.828C222.818 428.129 223.104 428.756 223.321 429.69C223.571 430.765 223.552 431.87 223.268 432.998L226.728 431.017C229.829 423.112 233.104 414.919 236.548 406.437C240.004 397.957 243.285 389.796 246.402 381.956C249.518 374.114 252.322 367.161 254.825 361.086C257.327 355.012 259.148 350.592 260.285 347.82C260.222 347.551 260.062 347.464 259.806 347.562C259.302 347.756 258.497 349.013 257.393 351.333C254.733 357.034 252.062 362.801 249.376 368.648C246.683 374.502 244.406 379.319 242.536 383.104C240.676 386.881 239.725 388.708 239.693 388.572C239.663 388.442 240.235 386.796 241.422 383.638C242.611 380.484 244.131 376.652 245.96 372.15C247.793 367.648 249.661 363.135 251.557 358.61C253.454 354.088 255.072 350.252 256.404 347.112C257.727 343.977 258.462 342.379 258.581 342.335C258.935 342.057 259.666 342.105 260.781 342.478C261.907 342.852 262.748 343.078 263.314 343.153C264.544 343.123 266.303 343.726 268.591 344.972C270.867 346.215 272.94 347.686 274.786 349.392C276.624 351.1 277.453 352.72 277.261 354.256C275.869 356.537 274.026 359.842 271.74 364.147C269.445 368.462 266.88 373.239 264.055 378.489C261.221 383.735 258.447 389.072 255.731 394.494C253.008 399.921 250.479 404.984 248.134 409.676C245.798 414.372 244.009 418.196 242.774 421.151C245.146 419.516 247.894 417.734 251.016 415.807C254.138 413.88 257.3 411.943 260.486 409.993C263.671 408.043 266.509 406.336 268.989 404.872C271.462 403.417 273.134 402.448 273.98 401.974C274.454 401.649 275.071 401.338 275.83 401.049C276.967 400.615 277.596 400.664 277.723 401.198C277.849 401.739 277.541 402.514 276.817 403.518C276.096 404.53 275.189 405.387 274.115 406.091C273.996 406.137 272.95 406.829 270.996 408.16C269.032 409.499 266.781 411.056 264.242 412.828C261.703 414.607 259.44 416.235 257.452 417.728C255.769 418.812 253.567 420.24 250.822 422.022C248.074 423.804 245.622 425.402 243.475 426.806C241.329 428.212 240.27 428.98 240.301 429.113C241.438 428.679 243.362 427.649 246.076 426.028C248.792 424.405 251.655 422.653 254.651 420.775C257.644 418.897 260.128 417.437 262.091 416.395C260.47 417.748 258.255 419.286 255.438 421.021C252.612 422.761 249.735 424.593 246.813 426.517C243.898 428.435 241.488 430.342 239.596 432.24C238.644 434.062 237.573 436.263 236.389 438.832C235.203 441.407 233.818 444.312 232.238 447.548C232.612 447.403 232.95 447.349 233.228 447.386C236.832 447.471 240.408 447.782 243.977 448.315C247.537 448.855 250.584 449.842 253.126 451.281C255.66 452.718 257.167 455.03 257.632 458.209C258.666 464.975 258.216 473.329 256.281 483.274C257.391 479.784 258.262 476.305 258.894 472.852C259.533 469.395 259.903 466.11 259.995 463.005C260.594 469.063 259.871 475.693 257.842 482.9C255.815 490.102 253.315 497.342 250.346 504.619C251.799 500.843 252.997 497.173 253.955 493.592C254.904 490.011 255.677 486.574 256.281 483.274C254.221 490.345 251.88 496.8 249.26 502.624C246.631 508.455 244.857 512.341 243.937 514.304C242.26 517.719 240.398 521.359 238.344 525.214C236.292 529.066 234.282 532.685 232.319 536.067C230.356 539.45 228.794 542.162 227.629 544.22C226.452 546.273 225.978 547.186 226.203 546.955C227.965 545.108 230.126 542.092 232.651 537.913C235.175 533.729 237.592 529.515 239.905 525.275C241.231 522.714 242.666 520.013 244.196 517.165C245.725 514.31 247.191 511.45 248.587 508.581C247.158 511.9 245.746 515.257 244.333 518.644C242.931 522.033 241.325 525.457 239.52 528.927C233.038 541.195 227.063 549.913 221.602 555.074C216.139 560.229 211.512 563.537 207.73 564.985L207.728 564.975ZM200.91 562.325C204.317 561.019 207.843 557.991 211.48 553.235C215.109 548.484 218.596 542.654 221.934 535.756C225.269 528.847 228.366 521.529 231.237 513.782C234.097 506.038 236.553 498.451 238.598 491.019C240.645 483.593 242.064 476.909 242.882 470.971C243.69 465.037 243.757 460.59 243.066 457.639C242.406 454.822 241.284 453.135 239.713 452.565C238.135 452.001 236.589 451.72 235.071 451.712C234.376 451.686 233.665 451.414 232.923 450.89C232.182 450.372 231.685 449.868 231.43 449.377C228.519 455.75 225.319 462.935 221.827 470.915C218.328 478.909 215.014 486.932 211.881 494.996C208.748 503.062 206.061 510.522 203.81 517.374C203.462 518.238 202.755 520.369 201.693 523.771C200.633 527.172 199.489 531.115 198.27 535.599C197.054 540.084 196.111 544.462 195.465 548.73C194.816 552.999 194.785 556.403 195.38 558.952C195.691 560.291 196.344 561.325 197.34 562.04C198.335 562.752 199.526 562.847 200.908 562.317L200.91 562.325ZM248.584 508.568L250.344 504.608L250.479 504.335C249.494 506.61 248.864 508.019 248.584 508.568Z" fill="#F6F7F7"/>
<path d="M329.748 549.282C321.63 546.364 314.623 543.395 308.7 540.375C302.778 537.355 299.191 533.484 297.911 528.767C297.576 527.527 297.42 526.488 297.454 525.639C297.436 515.969 298.931 503.854 301.923 489.304C304.905 474.759 308.814 458.786 313.649 441.382C318.474 423.983 357.401 297.748 357.64 297.649C360.186 297.396 364.354 298.323 370.164 300.42C375.952 302.528 380.253 305.342 383.038 308.859C383.638 309.166 384.01 309.555 384.145 310.055C385.177 312.931 387.56 314.966 391.292 316.152C395.001 317.345 397.27 319.423 398.078 322.401C400.362 330.835 399.786 341.246 396.344 353.633C392.904 366.026 378.707 391.618 369.872 406.287C361.039 420.969 361.876 415.801 352.99 428.84C344.104 441.879 336.405 453.239 329.871 462.924C325.657 476.327 324.022 487.401 324.948 496.137C325.874 504.873 327.001 511.171 328.313 515.039C337.572 501.98 345.998 488.173 353.551 473.62C355.53 470.294 358.48 465.513 362.414 459.28C366.347 453.047 370.466 446.806 374.794 440.539C379.115 434.288 382.441 429.689 384.781 426.758C386.963 424.174 388.678 422.062 389.937 420.42C391.187 418.787 391.071 419.108 389.606 421.396C385.252 428.497 379.364 437.638 371.933 448.812C382.749 433.71 394.236 421.091 406.385 410.955C408.701 408.869 410.557 407.522 411.962 406.923C414.308 405.927 414.536 407.288 412.67 410.981C410.793 414.685 408.468 418.646 405.693 422.864C392.876 442.144 379.75 462.235 366.336 483.139C352.912 504.045 340.72 526.101 329.744 549.286L329.748 549.282ZM335.295 516.226C337.139 512.404 339.54 507.783 342.533 502.368C345.502 496.958 348.834 490.425 352.51 482.777C354.186 479.307 356.811 474.315 360.419 467.806C364.013 461.302 367.852 454.967 371.933 448.812C364.434 459.741 357.979 469.671 352.557 478.607C347.145 487.546 342.2 495.866 337.751 503.561L334.538 511.982C333.603 514.317 333.385 515.932 333.892 516.821C334.388 517.721 334.862 517.518 335.295 516.226ZM338.401 436.481C345.428 425.761 369.82 381.422 374.823 364.636C379.814 347.856 382.107 333.884 381.692 322.711C378.824 329.469 374.965 338.637 370.135 350.23C365.292 361.83 347.727 412.054 342.517 425.606C342.014 426.647 341.419 428.084 340.733 429.891C340.049 431.706 339.268 433.9 338.401 436.481Z" fill="#F6F7F7"/>
<path d="M771.98 361.628C764.091 358.792 757.279 355.907 751.523 352.972C745.766 350.037 742.279 346.273 741.038 341.689C740.711 340.483 740.56 339.476 740.593 338.649C740.578 329.25 742.027 317.474 744.937 303.333C747.837 289.195 751.636 273.669 756.336 256.755C761.026 239.844 798.862 117.15 799.093 117.052C801.57 116.807 805.619 117.707 811.266 119.746C816.892 121.795 821.072 124.529 823.779 127.947C824.363 128.246 824.724 128.624 824.853 129.108C825.855 131.904 828.173 133.883 831.801 135.035C835.406 136.194 837.611 138.213 838.394 141.109C840.615 149.307 840.054 159.425 836.71 171.463C833.369 183.508 819.568 208.383 810.981 222.64C802.397 236.91 803.208 231.888 794.573 244.561C785.936 257.237 778.454 268.277 772.1 277.688C768.005 290.715 766.414 301.479 767.316 309.97C768.216 318.461 769.31 324.583 770.587 328.341C779.587 315.65 787.776 302.228 795.118 288.085C797.041 284.852 799.909 280.205 803.732 274.146C807.554 268.087 811.559 262.022 815.766 255.931C819.965 249.856 823.199 245.386 825.471 242.537C827.589 240.026 829.257 237.975 830.483 236.378C831.699 234.789 831.587 235.104 830.163 237.327C825.93 244.23 820.208 253.114 812.983 263.974C823.495 249.295 834.661 237.028 846.468 227.178C848.718 225.151 850.525 223.84 851.89 223.259C854.169 222.292 854.393 223.613 852.577 227.203C850.753 230.804 848.493 234.652 845.796 238.752C833.338 257.492 820.578 277.02 807.543 297.338C794.496 317.658 782.648 339.095 771.98 361.628ZM777.373 329.499C779.165 325.782 781.499 321.293 784.406 316.03C787.292 310.771 790.532 304.421 794.103 296.988C795.732 293.614 798.285 288.763 801.789 282.437C805.283 276.116 809.016 269.957 812.983 263.974C805.694 274.596 799.417 284.247 794.146 292.934C788.887 301.624 784.08 309.71 779.757 317.189L776.633 325.374C775.726 327.642 775.513 329.216 776.005 330.078C776.486 330.951 776.954 330.755 777.373 329.499ZM780.392 251.991C787.221 241.57 810.929 198.476 815.791 182.161C820.642 165.851 822.869 152.27 822.47 141.41C819.681 147.977 815.932 156.891 811.238 168.158C806.531 179.432 789.458 228.249 784.394 241.421C783.907 242.433 783.326 243.828 782.662 245.586C781.997 247.349 781.236 249.485 780.392 251.991Z" fill="#F6F7F7"/>
<path d="M433.174 496.983C429.666 498.471 425.779 499.3 421.504 499.495C417.23 499.69 413.203 498.967 409.401 497.327C405.614 495.69 401.217 492.604 396.23 488.08C391.228 483.553 387.952 478.383 386.374 472.552C385.726 470.167 385.53 467.896 385.776 465.715C387.614 439.551 394.974 413.173 407.864 386.596C420.767 360.015 438.452 334.714 460.972 310.692C464.48 309.203 468.483 309.052 472.986 310.245C477.5 311.425 481.536 313.48 485.127 316.384L492.523 315.907C491.493 313.099 490.125 311.684 488.444 311.653C486.768 311.638 485.746 310.956 485.39 309.634C485.239 307.036 486.483 304.962 489.134 303.395C491.783 301.828 493.727 300.782 494.984 300.248C498.986 298.549 502.821 299.064 506.496 301.783C510.161 304.508 512.73 308.068 514.204 312.465C520.416 310.714 526.824 308.585 533.403 306.086C539.982 303.593 545.731 301.375 550.639 299.434C555.563 297.501 558.264 296.42 558.77 296.204L559.894 295.725C560.645 295.408 561.165 295.785 561.452 296.841C561.954 298.696 561.38 300.708 559.744 302.879C557.814 306.058 552.377 309.921 543.413 314.459C534.462 318.991 524.975 323.389 514.96 327.638C514.789 332.139 514.051 337.174 512.782 342.736C511.5 348.301 509.864 354.16 507.913 360.302C506.584 364.704 504.449 370.703 501.492 378.305C498.523 385.913 495.455 393.642 492.278 401.482C489.105 409.327 486.417 415.926 484.239 421.278C485.926 418.202 488.592 412.862 492.247 405.255C495.905 397.655 498.794 391.043 500.898 385.422C501.726 383.301 502.901 379.92 504.435 375.284C505.97 370.653 507.47 366.179 508.954 361.853C510.441 357.536 511.289 354.743 511.498 353.47C510.181 361.998 507.923 370.637 504.71 379.376C501.497 388.121 498.105 396.209 494.532 403.624C490.961 411.052 487.869 417.159 485.271 421.949C482.662 426.749 481.175 429.521 480.822 430.258C473.472 446.373 465.561 460.728 457.121 473.311C448.666 485.906 440.692 493.793 433.182 496.978L433.174 496.983ZM417.507 488.573C418.752 488.045 420.144 487.012 421.682 485.469C424.01 482.712 426.884 478.691 430.341 473.386C433.785 468.086 437.391 462.578 441.136 456.842C444.388 451.331 447.904 444.746 451.693 437.083C455.47 429.431 459.487 420.565 463.741 410.492C467.452 401.543 471.375 391.833 475.519 381.356C479.656 370.897 483.581 360.152 487.295 349.125L483.165 357.077C484.418 354.483 485.906 350.969 487.632 346.544C489.372 342.118 490.862 338.612 492.113 336.011C484.207 338.774 479.466 340.342 477.894 340.71C477.785 341.354 477.481 341.769 476.985 341.98C476.478 342.194 475.985 341.377 475.482 339.521L474.889 337.334C474.639 336.413 474.49 335.37 474.458 334.2C471.884 334.998 469.235 336.565 466.521 338.895C463.81 341.23 461.033 344.917 458.215 349.946C455.107 355.993 451.04 363.624 446.001 372.846C440.961 382.067 435.904 392.267 430.835 403.418C425.769 414.576 421.298 426.139 417.423 438.118C413.56 450.092 411.149 462.037 410.185 473.96C409.787 477.672 410.033 481.114 410.893 484.286C412.115 488.797 414.347 489.318 417.607 485.868C416.564 487.194 416.081 488 416.153 488.261C416.295 488.792 416.747 488.896 417.507 488.573ZM417.607 485.868C421.644 481.209 427.693 472.369 435.748 459.35C443.794 446.35 451.523 431.33 458.914 414.311C461.345 408.85 464.11 402.583 467.209 395.512C470.321 388.435 473.354 381.613 476.318 375.041C479.283 368.469 481.534 363.383 483.065 359.782C479.317 369.639 475.809 378.581 472.548 386.606C469.277 394.636 466.11 402.256 463.045 409.462C455.75 425.84 447.967 441.103 439.655 455.26C431.353 469.412 424.002 479.611 417.607 485.868Z" fill="#F6F7F7"/>
<path d="M564.701 440.73C559.198 443.065 552.698 443.306 545.227 441.462C537.756 439.619 530.998 436.578 524.971 432.347C518.931 428.119 515.237 423.49 513.872 418.454C511.718 410.51 511.414 401.115 512.939 390.281C514.466 379.446 517.234 368.015 521.23 355.986C525.227 343.961 530.131 332.208 535.96 320.726C541.778 309.255 547.938 299.039 554.436 290.081C554.157 286.955 555.476 283.07 558.4 278.436C561.336 273.795 565.421 270.363 570.683 268.131C573.682 266.86 576.706 266.169 579.747 266.054C582.746 264.783 586.844 265.476 592.032 268.147C597.22 270.817 602.121 273.987 606.736 277.635C611.352 281.283 614.268 284.333 615.491 286.759C616.567 290.731 615.689 295.754 612.872 301.822C610.052 307.89 606.759 313.496 602.985 318.636C599.215 323.78 596.334 326.779 594.338 327.625C593.335 328.051 592.718 327.864 592.503 327.069C592.074 325.483 592.916 321.879 595.02 316.258C595.909 314.412 596.835 311.658 597.809 307.991C598.761 304.342 599.606 300.738 600.313 297.185C601.025 293.636 601.164 291.068 600.733 289.473C596.054 291.759 590.593 296.587 584.364 303.953C578.124 311.33 571.999 320.127 565.981 330.357C559.964 340.592 554.521 351.162 549.671 362.078C544.807 372.994 541.247 383.291 538.985 392.96C536.724 402.628 536.384 410.376 537.959 416.199C538.678 418.854 539.934 420.904 541.719 422.357C543.514 423.808 546.252 423.606 549.929 421.754C553.331 418.835 557.195 414.832 561.534 409.74C565.874 404.652 570.419 399.036 575.18 392.878L569.609 403.216C569.073 404.327 568.144 406.568 566.819 409.934C565.494 413.306 565.268 414.508 566.125 413.545C569.913 406.922 574.299 399.67 579.285 391.798C584.259 383.931 589.507 375.726 595.013 367.185C591.717 371.543 588.389 375.98 585.018 380.506C581.636 385.043 578.355 389.17 575.18 392.878L591.413 367.826C599.276 355.638 606.794 344.771 613.97 335.229C621.16 325.687 628.25 317.365 635.249 310.257C629.468 317.731 623.312 326.172 616.789 335.581C610.264 344.991 603.709 354.49 597.1 364.087C604.885 353.7 612.656 343.47 620.388 333.392C628.122 323.319 635.043 314.626 641.149 307.305C644.762 303.119 647.56 300.604 649.567 299.753C651.322 299.01 652.383 299.294 652.74 300.617C653.028 301.678 652.417 303.858 650.945 307.134C649.463 310.425 646.914 314.158 643.307 318.351C638.838 323.501 633.871 330.401 628.41 339.066C622.939 347.736 617.132 357.213 610.993 367.493C604.853 377.781 598.858 387.849 593.02 397.702C587.172 407.573 581.811 416.347 576.919 424.021C574.566 427.681 572.365 430.905 570.328 433.685C568.288 436.461 566.419 438.81 564.7 440.725L564.701 440.73Z" fill="#F6F7F7"/>
<path d="M645.769 410.76C644.268 411.398 641.462 410.591 637.372 408.34C633.273 406.098 629.065 403.455 624.76 400.409C620.443 397.368 617.254 395.105 615.18 393.617C614.631 382.338 615.652 369.879 618.225 356.233C620.812 342.588 624.386 328.753 628.952 314.704C633.52 300.66 638.366 287.39 643.485 274.877C648.606 262.374 653.187 251.716 657.223 242.92C653.899 248.168 650.604 254.516 647.321 261.958C644.026 269.412 641.76 274.43 640.519 277.018C638.371 281.475 636.214 285.863 634.027 290.18C631.856 294.505 629.905 298.65 628.202 302.618C633.049 289.648 638.057 277.48 643.22 266.131C648.376 254.8 652.225 247.109 654.76 243.08C655.295 241.968 656.108 240.588 657.198 238.943C658.279 237.308 659.671 235.976 661.353 234.969L663.383 230.121C670.217 227.522 678.063 226.624 686.937 227.429C695.803 228.253 703.936 230.702 711.329 234.797C718.712 238.903 723.64 245.001 726.119 253.101C726.407 254.162 726.179 255.364 725.425 256.711C724.674 258.071 723.798 257.922 722.799 256.279C719.968 253.049 716.993 250.327 713.883 248.106C710.772 245.88 707.587 244.43 704.327 243.743C701.393 243.219 698.553 243.538 695.796 244.709C692.797 245.98 690.326 248.207 688.396 251.387C684.467 257.484 680.126 265.903 675.361 276.626C670.586 287.368 665.983 298.694 661.54 310.615C657.097 322.537 653.335 333.877 650.249 344.636C647.163 355.396 645.375 363.972 644.874 370.385C645.884 367.895 647.791 364.132 650.609 359.098C653.436 354.06 656.488 348.851 659.777 343.466C663.052 338.09 665.887 333.57 668.24 329.909C669.016 328.695 670.728 326.201 673.335 322.433C675.93 318.678 678.695 314.702 681.607 310.513C684.518 306.324 686.932 303.09 688.818 300.804C688.965 301.342 687.917 303.403 685.685 307.005C683.455 310.612 680.724 314.723 677.511 319.334C674.299 323.95 671.325 328.156 668.586 331.98C665.857 335.791 664.22 338.262 663.684 339.374C661.643 343.192 659.277 347.593 656.593 352.568C653.886 357.553 651.433 362.139 649.224 366.324C647.016 370.515 645.583 373.483 644.935 375.228C644.716 376.506 644.775 377.221 645.1 377.377C645.426 377.532 645.814 376.925 646.278 375.549C647.607 371.148 649.975 366.007 653.409 360.118C656.832 354.237 660.674 348.113 664.951 341.709C669.222 335.326 673.012 329.508 676.336 324.261C680.266 318.163 683.888 312.717 687.184 307.917C690.498 303.123 693.413 298.711 695.951 294.683C694.684 289.014 695.593 284.357 698.645 280.692C701.699 277.034 704.337 275.172 706.561 275.121C708.204 275.014 710.781 275.026 714.308 275.151C717.824 275.286 721.108 275.81 724.147 276.73C727.191 277.657 728.531 279.522 728.185 282.328C727.579 287.307 728.036 294.424 729.569 303.66C731.092 312.914 732.862 321.237 734.871 328.651C737.742 339.245 742.307 343.208 748.56 340.554C751.812 339.174 755.69 335.468 760.198 329.417C761.835 327.246 763.156 325.952 764.159 325.524C764.91 325.206 765.392 325.444 765.606 326.236C765.894 327.297 765.677 329.08 764.969 331.599C764.249 334.115 763.718 335.746 763.367 336.488C761.287 341.207 758.575 345.825 755.193 350.362C751.823 354.889 748.003 358.064 743.747 359.87C741.993 360.613 740.17 361.096 738.269 361.301C736.374 361.521 734.368 361.338 732.267 360.753C724.783 358.915 718.481 353.915 713.343 345.75C708.196 337.605 704.737 330.214 702.943 323.594C702.514 322.007 702.18 320.531 701.941 319.148C701.714 317.767 701.575 316.502 701.539 315.33C699.43 318.887 695.965 324.857 691.121 333.26C686.277 341.663 680.925 351.024 675.075 361.325C669.214 371.636 663.6 381.33 658.247 390.385C652.896 399.453 648.734 406.235 645.763 410.748L645.769 410.76Z" fill="#F6F7F7"/>
</svg>
