<svg width="251" height="100" viewBox="0 0 251 100" fill="none" xmlns="http://www.w3.org/2000/svg">
<path d="M18.0461 25.775C17.9294 25.5917 17.6628 25.475 17.2461 25.425C16.8461 25.375 16.3544 25.3667 15.7711 25.4C15.5378 25.4333 15.3128 25.4167 15.0961 25.35C14.8794 25.3 14.7044 25.2083 14.5711 25.075C14.4544 24.9583 14.4128 24.8333 14.4461 24.7C14.4628 24.5 14.6294 24.3417 14.9461 24.225C15.2794 24.1083 15.8044 24.0417 16.5211 24.025L17.8461 24L18.0961 23.5C18.1628 23.3167 18.2461 23.0583 18.3461 22.725C18.4461 22.3917 18.5544 22.0333 18.6711 21.65C18.7378 21.4167 18.8378 21.1 18.9711 20.7C19.1044 20.3 19.2461 19.875 19.3961 19.425C19.5461 18.975 19.6794 18.575 19.7961 18.225C19.9128 17.8583 19.9878 17.6 20.0211 17.45C20.0878 17.3 20.1794 17.05 20.2961 16.7C20.4128 16.3333 20.5211 15.9667 20.6211 15.6C20.7378 15.2167 20.8128 14.9417 20.8461 14.775C21.2794 13.4583 21.5628 12.525 21.6961 11.975C21.8294 11.4083 21.8628 11.1167 21.7961 11.1C21.7294 11.1 21.5628 11.1083 21.2961 11.125C21.0461 11.1417 20.7628 11.1667 20.4461 11.2C20.1461 11.2167 19.8711 11.2417 19.6211 11.275C19.3878 11.3083 19.2461 11.3417 19.1961 11.375C19.1128 11.4917 18.9711 11.5167 18.7711 11.45C18.5711 11.3833 18.4461 11.2667 18.3961 11.1C18.3794 10.95 18.3711 10.8333 18.3711 10.75C18.3878 10.6667 18.4378 10.6 18.5211 10.55C18.6378 10.45 18.8628 10.3417 19.1961 10.225C19.5294 10.0917 19.9044 9.975 20.3211 9.875C20.7544 9.775 21.1628 9.7 21.5461 9.65C21.8294 9.61667 22.1128 9.55833 22.3961 9.475C22.6794 9.375 22.9044 9.25833 23.0711 9.125C23.2211 9.075 23.3628 9.03333 23.4961 9C23.6461 8.96667 23.7961 8.95833 23.9461 8.975C24.0794 9.05833 24.3044 9.1 24.6211 9.1C24.9544 9.1 25.3044 9.09167 25.6711 9.075C26.6044 8.99167 27.2294 8.96667 27.5461 9C27.8794 9.03333 28.1044 9.16667 28.2211 9.4C28.3044 9.71667 28.3211 9.96667 28.2711 10.15C28.2211 10.3167 28.0544 10.3917 27.7711 10.375C27.6211 10.4083 27.3461 10.4417 26.9461 10.475C26.5628 10.4917 26.1544 10.5083 25.7211 10.525C24.5378 10.625 23.9044 10.7417 23.8211 10.875C23.7544 10.9417 23.6961 11.0083 23.6461 11.075C23.6128 11.1417 23.5628 11.2167 23.4961 11.3C23.5128 11.3667 23.4711 11.5833 23.3711 11.95C23.2878 12.3 23.1794 12.6583 23.0461 13.025C22.9794 13.2417 22.8794 13.55 22.7461 13.95C22.6128 14.35 22.4711 14.7667 22.3211 15.2C22.1878 15.6167 22.0628 16 21.9461 16.35C21.8294 16.6833 21.7461 16.9083 21.6961 17.025C21.6294 17.175 21.5711 17.3417 21.5211 17.525C21.4878 17.6917 21.4628 17.8167 21.4461 17.9C21.2128 18.7167 21.0044 19.4083 20.8211 19.975C20.6544 20.5417 20.4961 21.0417 20.3461 21.475C20.2128 21.8917 20.0878 22.3 19.9711 22.7C19.8544 23.0833 19.7294 23.5083 19.5961 23.975C19.5961 23.975 19.7211 23.9667 19.9711 23.95C20.2378 23.9167 20.5878 23.8833 21.0211 23.85C21.8044 23.7667 22.3628 23.7167 22.6961 23.7C23.0461 23.6833 23.2794 23.7083 23.3961 23.775C23.5128 23.825 23.5961 23.925 23.6461 24.075C23.9794 24.525 24.0211 24.8333 23.7711 25C23.5211 25.1667 22.9294 25.2417 21.9961 25.225C21.1294 25.2583 20.4628 25.2833 19.9961 25.3C19.5461 25.3333 19.2294 25.375 19.0461 25.425C18.8794 25.475 18.7794 25.5583 18.7461 25.675C18.7461 25.8083 18.6794 25.875 18.5461 25.875C18.4128 25.875 18.2461 25.8417 18.0461 25.775ZM32.3855 27.65C32.2855 27.7167 32.1689 27.7 32.0355 27.6C31.9189 27.5 31.7439 27.3167 31.5105 27.05C31.3939 26.9167 31.3189 26.775 31.2855 26.625C31.2522 26.475 31.2605 26.1917 31.3105 25.775C31.3772 25.5917 31.4105 25.4167 31.4105 25.25C31.4272 25.0833 31.4355 24.9667 31.4355 24.9C31.4355 24.8 31.4605 24.5667 31.5105 24.2C31.5772 23.8333 31.6439 23.45 31.7105 23.05C31.7772 22.6333 31.8355 22.3167 31.8855 22.1C31.8855 22.0833 31.8939 22.0417 31.9105 21.975C31.9272 21.9083 31.9439 21.85 31.9605 21.8C31.9939 21.65 32.0355 21.45 32.0855 21.2C32.1522 20.95 32.2105 20.6417 32.2605 20.275C32.3939 19.8583 32.5022 19.45 32.5855 19.05C32.6855 18.6333 32.7355 18.35 32.7355 18.2C32.7355 17.9 32.8522 17.6833 33.0855 17.55C33.1022 17.4667 33.1522 17.3417 33.2355 17.175C33.3189 16.9917 33.3939 16.8417 33.4605 16.725C33.7939 15.775 34.0689 15.025 34.2855 14.475C34.5022 13.9083 34.7272 13.4167 34.9605 13C35.0605 12.7167 35.1689 12.425 35.2855 12.125C35.4189 11.825 35.5522 11.5917 35.6855 11.425C35.7689 11.2083 35.9605 10.9333 36.2605 10.6C36.5605 10.25 36.8772 9.91667 37.2105 9.6C37.5439 9.26667 37.8105 9.01667 38.0105 8.85C38.3772 8.66667 38.6689 8.54167 38.8855 8.475C39.1022 8.40833 39.3855 8.375 39.7355 8.375C40.0522 8.375 40.2605 8.41667 40.3605 8.5C40.4772 8.56667 40.6439 8.7 40.8605 8.9C41.0939 9.15 41.2272 9.31667 41.2605 9.4C41.2939 9.48333 41.3105 9.64167 41.3105 9.875C41.2772 10.0917 41.1855 10.375 41.0355 10.725C40.9022 11.0583 40.7522 11.3667 40.5855 11.65C40.4355 11.9167 40.3105 12.0583 40.2105 12.075C40.0105 12.1417 39.8605 12.125 39.7605 12.025C39.6772 11.9083 39.6355 11.725 39.6355 11.475C39.6355 11.3583 39.6022 11.25 39.5355 11.15C39.4855 11.0333 39.4605 10.975 39.4605 10.975C39.4605 10.925 39.4689 10.8417 39.4855 10.725C39.5189 10.5917 39.5689 10.4667 39.6355 10.35C39.7189 10.1833 39.7355 10.0583 39.6855 9.975C39.6522 9.89167 39.5439 9.875 39.3605 9.925C39.3105 9.95833 39.1772 10.0583 38.9605 10.225C38.7439 10.3917 38.5105 10.5833 38.2605 10.8C38.0272 11 37.8189 11.1917 37.6355 11.375C37.4522 11.5583 37.3605 11.675 37.3605 11.725C37.3605 11.725 37.3272 11.8 37.2605 11.95C37.1939 12.0833 37.0689 12.2583 36.8855 12.475C36.7689 12.6417 36.6605 12.8083 36.5605 12.975C36.4772 13.125 36.4355 13.2167 36.4355 13.25C36.4355 13.3167 36.4272 13.3917 36.4105 13.475C36.4105 13.5417 36.3689 13.575 36.2855 13.575C36.2855 13.575 36.2605 13.65 36.2105 13.8C36.1605 13.95 36.0689 14.1417 35.9355 14.375C35.8689 14.5417 35.7855 14.7167 35.6855 14.9C35.5855 15.0667 35.5022 15.1833 35.4355 15.25H35.4605C35.4605 15.25 35.4189 15.3583 35.3355 15.575C35.2689 15.775 35.1939 15.9917 35.1105 16.225C35.0272 16.4417 34.9855 16.5667 34.9855 16.6C34.9855 16.6667 35.1022 16.7 35.3355 16.7C35.5855 16.7 35.8772 16.675 36.2105 16.625C36.5439 16.5583 36.8439 16.4917 37.1105 16.425C37.3439 16.3583 37.5022 16.325 37.5855 16.325C37.6689 16.325 37.8355 16.3583 38.0855 16.425C38.2189 16.5083 38.3272 16.6333 38.4105 16.8C38.5105 16.95 38.5772 17.1 38.6105 17.25C38.6605 17.3833 38.6605 17.4833 38.6105 17.55C38.5939 17.6167 38.4105 17.7083 38.0605 17.825C37.7105 17.9417 37.3605 18.0333 37.0105 18.1C36.7105 18.1667 36.3439 18.2417 35.9105 18.325C35.4772 18.4083 35.0939 18.4833 34.7605 18.55C34.4439 18.6167 34.2855 18.675 34.2855 18.725C34.2189 18.725 34.1605 18.7667 34.1105 18.85C34.0605 18.9167 34.0355 18.975 34.0355 19.025C34.0355 19.2583 34.0022 19.4333 33.9355 19.55C33.9022 19.65 33.8439 19.85 33.7605 20.15C33.6772 20.45 33.5855 20.7833 33.4855 21.15C33.4022 21.5167 33.3272 21.85 33.2605 22.15C33.2105 22.45 33.1855 22.65 33.1855 22.75C33.0855 22.8667 33.0272 23.0167 33.0105 23.2C32.9939 23.3667 32.9855 23.5167 32.9855 23.65C32.9189 23.7833 32.8772 23.9083 32.8605 24.025C32.8439 24.125 32.8355 24.2083 32.8355 24.275C32.8355 24.2917 32.8355 24.325 32.8355 24.375C32.8355 24.425 32.8272 24.475 32.8105 24.525C32.7939 24.6917 32.7689 24.9083 32.7355 25.175C32.7189 25.4583 32.7105 25.7333 32.7105 26L32.6355 26.725C32.6189 26.9417 32.5939 27.125 32.5605 27.275C32.5272 27.4417 32.4689 27.5667 32.3855 27.65ZM43.4859 24.125C43.1359 24.425 42.7276 24.6 42.2609 24.65C41.8109 24.7 41.3693 24.6333 40.9359 24.45C40.5026 24.25 40.1443 23.95 39.8609 23.55C39.5776 23.1833 39.3943 22.7667 39.3109 22.3C39.2276 21.8167 39.2193 21.1917 39.2859 20.425C39.3359 19.775 39.5443 19.125 39.9109 18.475C40.2776 17.8083 40.7193 17.2167 41.2359 16.7C41.7693 16.1833 42.2943 15.825 42.8109 15.625C43.0609 15.4583 43.2693 15.3833 43.4359 15.4C43.6193 15.4 43.8943 15.4167 44.2609 15.45C44.6443 15.5 44.9276 15.575 45.1109 15.675C45.3109 15.775 45.4693 15.9083 45.5859 16.075C45.8359 16.325 46.0026 16.575 46.0859 16.825C46.1693 17.0583 46.2109 17.2917 46.2109 17.525C46.1443 17.8917 45.8943 18.3417 45.4609 18.875C45.0443 19.3917 44.4943 19.8167 43.8109 20.15C43.4443 20.2667 43.0443 20.3167 42.6109 20.3C42.1776 20.2833 41.8193 20.175 41.5359 19.975C41.2193 19.8417 41.0109 19.8667 40.9109 20.05C40.8109 20.2167 40.7193 20.6333 40.6359 21.3C40.5693 21.9333 40.6193 22.4 40.7859 22.7C40.9526 22.9833 41.1776 23.15 41.4609 23.2C41.7943 23.2667 42.0526 23.3167 42.2359 23.35C42.4359 23.3667 42.6776 23.2917 42.9609 23.125C43.2276 22.9583 43.3943 22.8667 43.4609 22.85C43.5276 22.8167 43.5776 22.7833 43.6109 22.75C43.6609 22.7 43.7693 22.5917 43.9359 22.425C44.0526 22.3083 44.1443 22.225 44.2109 22.175C44.2776 22.1083 44.3526 22.075 44.4359 22.075C44.5193 22.075 44.5943 22.1167 44.6609 22.2C44.7276 22.2667 44.7943 22.3167 44.8609 22.35C45.0276 22.35 45.0609 22.45 44.9609 22.65C44.8776 22.85 44.7026 23.0917 44.4359 23.375C44.1693 23.6417 43.8526 23.8917 43.4859 24.125ZM43.4609 18.825C43.6443 18.7417 43.8359 18.625 44.0359 18.475C44.2359 18.3083 44.4026 18.1333 44.5359 17.95C44.6859 17.75 44.7609 17.5833 44.7609 17.45C44.7609 17.2167 44.6526 17.025 44.4359 16.875C44.2193 16.7083 43.8943 16.6833 43.4609 16.8C43.2776 16.85 43.0693 16.975 42.8359 17.175C42.6026 17.3583 42.3776 17.5667 42.1609 17.8C41.9609 18.0333 41.7943 18.2417 41.6609 18.425C41.5443 18.6083 41.5026 18.7167 41.5359 18.75C41.5859 18.8333 41.7276 18.9 41.9609 18.95C42.1943 18.9833 42.4526 18.9917 42.7359 18.975C43.0359 18.9583 43.2776 18.9083 43.4609 18.825ZM49.6158 25.075C48.8825 25.075 48.2825 24.8 47.8158 24.25C47.3492 23.6833 47.1242 22.9833 47.1408 22.15C47.1742 21.55 47.2908 20.9083 47.4908 20.225C47.7075 19.525 47.9908 18.8583 48.3408 18.225C48.6908 17.575 49.0742 17.0083 49.4908 16.525C49.9075 16.0417 50.3408 15.7 50.7908 15.5C50.9575 15.4167 51.1325 15.35 51.3158 15.3C51.5158 15.25 51.7158 15.225 51.9158 15.225C52.0992 15.225 52.2908 15.2583 52.4908 15.325C52.6908 15.375 52.8575 15.4333 52.9908 15.5C53.2742 15.6167 53.4908 15.7583 53.6408 15.925C53.7908 16.0917 53.9242 16.35 54.0408 16.7C54.0908 17.0167 54.1158 17.2417 54.1158 17.375C54.1158 17.5083 54.0742 17.7083 53.9908 17.975C53.7908 18.575 53.5325 19.0917 53.2158 19.525C52.8992 19.9583 52.4742 20.325 51.9408 20.625C51.8075 20.7083 51.6492 20.775 51.4658 20.825C51.2992 20.8583 51.1242 20.875 50.9408 20.875C50.6075 20.875 50.2825 20.8167 49.9658 20.7C49.6658 20.5667 49.4242 20.375 49.2408 20.125L49.0658 19.925L48.9908 20.125C48.8242 20.575 48.6908 20.9917 48.5908 21.375C48.5075 21.7583 48.4658 22.1083 48.4658 22.425C48.4658 22.625 48.4825 22.8167 48.5158 23C48.5658 23.1833 48.6325 23.3417 48.7158 23.475C48.7825 23.575 48.8908 23.65 49.0408 23.7C49.2075 23.7333 49.3825 23.75 49.5658 23.75C49.6825 23.75 49.7992 23.75 49.9158 23.75C50.0492 23.7333 50.1742 23.7 50.2908 23.65C50.5742 23.55 50.7992 23.4417 50.9658 23.325C51.1492 23.2083 51.3325 23.0833 51.5158 22.95L51.6158 22.9H51.5908C51.7908 22.8 51.9658 22.7 52.1158 22.6C52.2825 22.5 52.3658 22.45 52.3658 22.45C52.4325 22.45 52.4992 22.4083 52.5658 22.325C52.6992 22.2583 52.8658 22.2833 53.0658 22.4C53.2825 22.5167 53.3908 22.6667 53.3908 22.85C53.3742 22.9333 53.2992 23.0667 53.1658 23.25C53.0325 23.4167 52.8825 23.575 52.7158 23.725C52.5658 23.875 52.4408 23.9583 52.3408 23.975C52.3242 23.9917 52.2658 24.025 52.1658 24.075C52.0658 24.1083 51.9992 24.1417 51.9658 24.175H51.9908C51.8408 24.375 51.6908 24.475 51.5408 24.475H51.3408C51.2742 24.5917 51.0575 24.725 50.6908 24.875C50.3242 25.0083 49.9658 25.075 49.6158 25.075ZM50.7408 19.575C51.0408 19.575 51.2992 19.4917 51.5158 19.325C51.7492 19.1417 51.9492 18.9417 52.1158 18.725C52.4492 18.275 52.6408 17.8417 52.6908 17.425C52.7575 16.9917 52.7075 16.6917 52.5408 16.525C52.4408 16.475 52.3492 16.45 52.2658 16.45C52.1992 16.4333 52.0575 16.4583 51.8408 16.525C51.6908 16.5583 51.4825 16.6833 51.2158 16.9C50.9492 17.1167 50.6825 17.3583 50.4158 17.625C50.1658 17.8917 49.9742 18.1167 49.8408 18.3L49.5158 18.825C49.6492 18.775 49.7742 18.75 49.8908 18.75C50.0242 18.7333 50.0992 18.7417 50.1158 18.775C50.1158 18.925 50.1408 19.0667 50.1908 19.2C50.2575 19.3167 50.3325 19.4083 50.4158 19.475C50.5158 19.5417 50.6242 19.575 50.7408 19.575ZM55.7457 23.825C55.579 23.725 55.454 23.625 55.3707 23.525C55.2874 23.425 55.2457 23.2833 55.2457 23.1C55.2457 22.85 55.279 22.5917 55.3457 22.325C55.4124 22.0417 55.479 21.7667 55.5457 21.5C55.579 21.2 55.6207 20.9 55.6707 20.6C55.7374 20.2833 55.854 19.9917 56.0207 19.725C56.204 19.0917 56.3957 18.4667 56.5957 17.85C56.7957 17.2167 56.9707 16.5667 57.1207 15.9C57.3374 15.2833 57.529 14.7417 57.6957 14.275C57.879 13.7917 58.104 13.1833 58.3707 12.45C58.5207 12.0333 58.6457 11.5917 58.7457 11.125C58.8624 10.6417 59.0374 10.2083 59.2707 9.825C59.3707 9.675 59.4457 9.55 59.4957 9.45C59.5624 9.33333 59.629 9.225 59.6957 9.125C59.7124 9.05833 59.7624 9.01667 59.8457 9C59.9457 8.98333 60.054 8.99167 60.1707 9.025C60.2874 9.05833 60.379 9.11667 60.4457 9.2C60.4957 9.18333 60.554 9.23333 60.6207 9.35C60.704 9.45 60.779 9.56667 60.8457 9.7C60.9124 9.83333 60.9374 9.95 60.9207 10.05C60.9207 10.1167 60.904 10.2083 60.8707 10.325C60.854 10.4417 60.8124 10.55 60.7457 10.65C60.679 10.7167 60.6124 10.8167 60.5457 10.95C60.4957 11.0667 60.4124 11.2333 60.2957 11.45C60.229 11.6667 60.1707 11.8917 60.1207 12.125C60.0707 12.3417 60.004 12.5417 59.9207 12.725C59.854 12.925 59.7707 13.1167 59.6707 13.3C59.5874 13.4833 59.529 13.6333 59.4957 13.75C59.379 14.1333 59.2374 14.5083 59.0707 14.875C58.9207 15.2417 58.7874 15.6333 58.6707 16.05C58.554 16.45 58.4374 16.8667 58.3207 17.3C58.204 17.7167 58.0374 18.1167 57.8207 18.5C57.704 18.6833 57.6207 18.9167 57.5707 19.2C57.5207 19.4833 57.4707 19.7667 57.4207 20.05C57.3207 20.35 57.229 20.6333 57.1457 20.9C57.079 21.15 57.0457 21.3083 57.0457 21.375C56.9457 21.7417 56.8707 22.1083 56.8207 22.475C56.7874 22.825 56.704 23.1333 56.5707 23.4C56.554 23.5667 56.5207 23.7 56.4707 23.8C56.4207 23.9 56.3374 23.9583 56.2207 23.975C56.104 23.975 55.9457 23.925 55.7457 23.825ZM67.874 26.25C67.324 26.1667 66.949 25.9583 66.749 25.625C66.5657 25.3083 66.524 24.8167 66.624 24.15C66.724 23.8333 66.7824 23.55 66.799 23.3C66.8324 23.0333 66.9074 22.8667 67.024 22.8C67.024 22.8 67.0324 22.775 67.049 22.725C67.0824 22.675 67.074 22.625 67.024 22.575C67.024 22.3583 67.099 22.0583 67.249 21.675C67.2824 21.575 67.324 21.4583 67.374 21.325C67.4407 21.175 67.474 21.1 67.474 21.1C67.3907 20.9667 67.3907 20.8583 67.474 20.775C67.5574 20.6917 67.6407 20.6167 67.724 20.55C67.824 20.4667 67.8324 20.375 67.749 20.275C67.7157 20.2083 67.7574 20.0583 67.874 19.825C67.9907 19.575 68.124 19.3167 68.274 19.05C68.424 18.7833 68.524 18.575 68.574 18.425C68.574 18.3917 68.6157 18.275 68.699 18.075C68.7824 17.875 68.8824 17.6417 68.999 17.375C69.1157 17.1083 69.224 16.8667 69.324 16.65C69.4407 16.4333 69.5157 16.2917 69.549 16.225C69.7157 16.1417 69.649 16.0833 69.349 16.05C69.049 16.0167 68.7324 16.0083 68.399 16.025C67.8824 16.0083 67.4657 15.9833 67.149 15.95C66.849 15.9167 66.599 15.8417 66.399 15.725C66.199 15.4917 66.124 15.325 66.174 15.225C66.2407 15.1083 66.4407 15.0417 66.774 15.025C66.9907 15.0083 67.1574 15 67.274 15C67.4074 15 67.574 14.9917 67.774 14.975C67.9907 14.9417 68.324 14.9 68.774 14.85L70.049 14.75L70.124 14.325C70.2574 14.1083 70.3657 13.9167 70.449 13.75C70.549 13.5667 70.6324 13.3833 70.699 13.2C70.7657 13.0167 70.8157 12.825 70.849 12.625C70.849 12.625 70.924 12.4917 71.074 12.225C71.224 11.9417 71.3157 11.65 71.349 11.35C71.549 11.0167 71.724 10.7167 71.874 10.45C72.024 10.1667 72.1157 9.99167 72.149 9.925C72.3324 9.775 72.4574 9.7 72.524 9.7C72.6074 9.7 72.774 9.78333 73.024 9.95C73.174 10.0333 73.3074 10.1333 73.424 10.25C73.5407 10.3667 73.6157 10.4917 73.649 10.625C73.6824 10.7417 73.6324 10.8583 73.499 10.975C73.4657 11.0417 73.4157 11.1667 73.349 11.35C73.2824 11.5167 73.2324 11.6583 73.199 11.775C73.099 11.8917 72.974 12.0833 72.824 12.35C72.6907 12.6 72.599 12.8583 72.549 13.125C72.4157 13.4083 72.2907 13.6667 72.174 13.9C72.0574 14.1167 71.9657 14.225 71.899 14.225C71.9324 14.3917 72.0324 14.475 72.199 14.475C72.3657 14.4583 72.6407 14.4417 73.024 14.425C73.3407 14.3917 73.5574 14.3583 73.674 14.325C73.8074 14.275 73.9574 14.2917 74.124 14.375C74.2074 14.4917 74.274 14.625 74.324 14.775C74.374 14.925 74.3824 15.0667 74.349 15.2C74.3324 15.3167 74.2657 15.4 74.149 15.45C74.0657 15.45 73.8907 15.5 73.624 15.6C73.374 15.6833 73.0574 15.7333 72.674 15.75L71.349 15.875L70.924 16.725C70.8074 16.9417 70.7074 17.1417 70.624 17.325C70.5407 17.4917 70.4824 17.5917 70.449 17.625C70.449 17.725 70.3907 17.875 70.274 18.075C70.174 18.275 70.0657 18.4917 69.949 18.725C69.849 19.0083 69.7324 19.2667 69.599 19.5C69.4824 19.7333 69.424 19.85 69.424 19.85C69.3574 19.85 69.324 19.9 69.324 20C69.4074 20.2 69.3824 20.35 69.249 20.45C69.1657 20.5 69.0907 20.575 69.024 20.675C68.974 20.7583 68.949 20.8 68.949 20.8C69.0157 20.8667 69.024 20.95 68.974 21.05C68.9407 21.15 68.8907 21.2583 68.824 21.375C68.824 21.5083 68.7824 21.7 68.699 21.95C68.6324 22.2 68.5574 22.4333 68.474 22.65C68.4907 22.95 68.5074 23.1417 68.524 23.225C68.5407 23.3083 68.5824 23.3417 68.649 23.325C68.7324 23.3417 68.8074 23.3417 68.874 23.325C68.9407 23.3083 69.0074 23.3 69.074 23.3C69.3074 23.2 69.1824 23.7833 68.699 25.05C68.4324 25.4667 68.249 25.7667 68.149 25.95C68.049 26.15 67.9574 26.25 67.874 26.25ZM74.8004 23.65C74.6837 23.6667 74.5587 23.6667 74.4254 23.65C74.3087 23.6167 74.1921 23.5583 74.0754 23.475C73.9421 23.3417 73.8504 23.2417 73.8004 23.175C73.7504 23.0917 73.7337 22.9667 73.7504 22.8C73.7837 22.6333 73.8421 22.375 73.9254 22.025C74.0087 21.7583 74.1087 21.3917 74.2254 20.925C74.3421 20.4417 74.4671 19.9667 74.6004 19.5C74.6504 19.2333 74.7171 18.9583 74.8004 18.675C74.9004 18.3917 75.0004 18.1333 75.1004 17.9C75.2004 17.65 75.2754 17.4583 75.3254 17.325C75.4587 16.8583 75.5837 16.45 75.7004 16.1C75.8337 15.75 75.9921 15.35 76.1754 14.9C76.3587 14.4333 76.5837 13.8167 76.8504 13.05C77.2171 12.05 77.4921 11.2917 77.6754 10.775C77.8754 10.2417 78.0171 9.85833 78.1004 9.625C78.2004 9.375 78.2671 9.18333 78.3004 9.05C78.3004 8.91667 78.3337 8.81667 78.4004 8.75C78.4837 8.68333 78.5837 8.65 78.7004 8.65C78.9337 8.65 79.1171 8.76667 79.2504 9C79.4004 9.21667 79.4921 9.48333 79.5254 9.8C79.5587 10.1 79.5087 10.3833 79.3754 10.65C79.1087 11.25 78.8254 11.9667 78.5254 12.8C78.2254 13.6167 77.9337 14.425 77.6504 15.225C77.3671 16.0083 77.1004 16.675 76.8504 17.225C76.8504 17.2917 76.8254 17.4083 76.7754 17.575C76.7254 17.7417 76.6671 17.8917 76.6004 18.025C76.5337 18.1583 76.4671 18.2833 76.4004 18.4C76.3504 18.5167 76.3254 18.575 76.3254 18.575C76.3254 18.6417 76.3004 18.7667 76.2504 18.95C76.2004 19.1333 76.1337 19.3583 76.0504 19.625C75.9837 19.825 75.9004 20.0833 75.8004 20.4C75.7171 20.7167 75.6587 20.9833 75.6254 21.2C75.7087 21.05 75.8837 20.825 76.1504 20.525C76.4171 20.225 76.6671 19.9667 76.9004 19.75C77.1671 19.5167 77.4671 19.2583 77.8004 18.975C78.1337 18.6917 78.4004 18.4833 78.6004 18.35C78.8004 18.2167 78.9754 18.1 79.1254 18C79.2921 17.8833 79.3754 17.825 79.3754 17.825C79.3754 17.7583 79.4004 17.725 79.4504 17.725C79.5171 17.7083 79.5837 17.7 79.6504 17.7C79.7171 17.7 79.7504 17.6917 79.7504 17.675C79.7671 17.6583 79.7754 17.6167 79.7754 17.55C79.7754 17.4667 79.8671 17.3917 80.0504 17.325C80.2504 17.2583 80.4754 17.2083 80.7254 17.175C80.9921 17.125 81.2087 17.1 81.3754 17.1C81.5754 17.1 81.7337 17.1417 81.8504 17.225C81.9671 17.3083 82.1171 17.4917 82.3004 17.775C82.5004 18.0417 82.6254 18.3667 82.6754 18.75C82.7421 19.1167 82.7087 19.5 82.5754 19.9C82.5754 20.0333 82.5504 20.225 82.5004 20.475C82.4671 20.7083 82.4504 20.9583 82.4504 21.225L82.3004 22.025H82.7004C82.8337 22.025 82.9587 22.05 83.0754 22.1C83.1921 22.1333 83.2504 22.15 83.2504 22.15C83.3171 22.2167 83.3837 22.2833 83.4504 22.35C83.5171 22.4 83.5837 22.425 83.6504 22.425C83.8504 22.425 83.9254 22.5083 83.8754 22.675C83.8254 22.825 83.7004 22.9667 83.5004 23.1C83.1004 23.3667 82.7337 23.5 82.4004 23.5C82.0837 23.5 81.7921 23.3667 81.5254 23.1C81.2587 22.8167 81.0921 22.5 81.0254 22.15C80.9587 21.8 80.9921 21.3583 81.1254 20.825C81.1921 20.0917 81.2254 19.5583 81.2254 19.225C81.2421 18.875 81.1587 18.7 80.9754 18.7C80.8087 18.7 80.5171 18.8167 80.1004 19.05C79.6837 19.2667 79.2171 19.5667 78.7004 19.95C78.1837 20.3333 77.6754 20.7583 77.1754 21.225C76.6754 21.6917 76.2587 22.175 75.9254 22.675C75.7254 22.925 75.5337 23.15 75.3504 23.35C75.1671 23.5333 74.9837 23.6333 74.8004 23.65ZM87.0471 24.175C86.8471 24.2083 86.6304 24.175 86.3971 24.075C86.1637 23.975 85.9554 23.8333 85.7721 23.65C85.6054 23.4667 85.4971 23.275 85.4471 23.075C85.3804 22.725 85.4221 22.2917 85.5721 21.775C85.7387 21.2417 85.9721 20.6833 86.2721 20.1C86.5887 19.5 86.9387 18.925 87.3221 18.375C87.7221 17.825 88.1304 17.35 88.5471 16.95C88.9804 16.5333 89.3804 16.25 89.7471 16.1C89.9304 15.9833 90.0721 15.9083 90.1721 15.875C90.2887 15.825 90.4054 15.8167 90.5221 15.85C90.6554 15.8833 90.8471 15.9667 91.0971 16.1C91.3304 16.1667 91.5054 16.2417 91.6221 16.325C91.7387 16.4083 91.8887 16.575 92.0721 16.825C92.2054 17.075 92.3054 17.325 92.3721 17.575C92.4387 17.825 92.4971 18.1083 92.5471 18.425C92.6804 18.8417 92.7304 19.1167 92.6971 19.25C92.6637 19.3667 92.6137 19.4583 92.5471 19.525C92.4137 19.6917 92.3804 19.775 92.4471 19.775C92.4471 19.775 92.4387 19.8083 92.4221 19.875C92.4221 19.925 92.3887 20.0083 92.3221 20.125C92.2054 20.4917 92.1137 20.875 92.0471 21.275C91.9971 21.6583 92.0054 21.975 92.0721 22.225C92.2054 22.5917 92.4471 22.8083 92.7971 22.875C93.1471 22.9417 93.5054 22.7917 93.8721 22.425C94.0554 22.2917 94.2304 22.175 94.3971 22.075C94.5637 21.9583 94.6471 21.9667 94.6471 22.1C94.6471 22.1 94.6721 22.125 94.7221 22.175C94.7721 22.2083 94.8304 22.225 94.8971 22.225C94.9804 22.225 95.0304 22.2583 95.0471 22.325C95.0804 22.3917 95.0804 22.4833 95.0471 22.6C95.0304 22.7 94.9804 22.8167 94.8971 22.95C94.6471 23.2 94.5221 23.3667 94.5221 23.45C94.5221 23.45 94.4887 23.4833 94.4221 23.55C94.3721 23.6 94.2804 23.6833 94.1471 23.8C93.8471 23.9833 93.4637 24.075 92.9971 24.075C92.5471 24.075 92.1971 23.9833 91.9471 23.8C91.6971 23.6167 91.4637 23.3667 91.2471 23.05C91.0471 22.7333 90.9137 22.4583 90.8471 22.225L90.7221 21.975L89.9971 22.45C89.8137 22.6333 89.6137 22.8083 89.3971 22.975C89.1971 23.1417 89.0637 23.2583 88.9971 23.325C88.9471 23.3917 88.8887 23.45 88.8221 23.5C88.7721 23.55 88.7137 23.575 88.6471 23.575C88.5804 23.575 88.5221 23.575 88.4721 23.575C88.4221 23.575 88.3971 23.575 88.3971 23.575C88.3971 23.6417 88.3137 23.725 88.1471 23.825C87.9971 23.925 87.8137 24.0083 87.5971 24.075C87.3971 24.1417 87.2137 24.175 87.0471 24.175ZM86.7971 22.825C86.8971 22.825 87.0721 22.75 87.3221 22.6C87.5887 22.4333 87.8804 22.2417 88.1971 22.025C88.5304 21.8083 88.8221 21.5917 89.0721 21.375C89.3387 21.1583 89.5221 20.9917 89.6221 20.875C89.6887 20.8083 89.7971 20.7 89.9471 20.55C90.0971 20.3833 90.2304 20.2417 90.3471 20.125C90.7304 19.6917 90.9971 19.2167 91.1471 18.7C91.2971 18.1667 91.2804 17.75 91.0971 17.45C91.0304 17.2667 90.9471 17.1667 90.8471 17.15C90.7471 17.1333 90.5387 17.1917 90.2221 17.325C90.0221 17.4417 89.7721 17.6667 89.4721 18C89.1887 18.3167 88.8804 18.6917 88.5471 19.125C88.2304 19.5417 87.9304 19.975 87.6471 20.425C87.3637 20.875 87.1304 21.2917 86.9471 21.675C86.7637 22.0583 86.6721 22.3583 86.6721 22.575C86.6721 22.6417 86.6887 22.7 86.7221 22.75C86.7721 22.8 86.7971 22.825 86.7971 22.825ZM98.876 24.95C98.6426 24.8833 98.451 24.8083 98.301 24.725C98.151 24.625 97.951 24.4667 97.701 24.25C97.501 23.9833 97.3426 23.7333 97.226 23.5C97.126 23.2667 97.0593 23 97.026 22.7C96.9926 22.3833 96.976 21.9833 96.976 21.5C96.976 21.3 97.0093 21 97.076 20.6C97.1593 20.2 97.251 19.7833 97.351 19.35C97.4676 18.9 97.5676 18.5 97.651 18.15C97.751 17.8 97.8093 17.575 97.826 17.475C97.876 17.2583 97.7926 17.1333 97.576 17.1C97.3593 17.0667 97.1176 17.0583 96.851 17.075C96.601 17.075 96.4343 17.05 96.351 17C96.2843 16.9833 96.251 16.9583 96.251 16.925C96.251 16.875 96.251 16.85 96.251 16.85C96.251 16.7833 96.2426 16.7417 96.226 16.725C96.226 16.6917 96.201 16.6333 96.151 16.55C96.1176 16.4833 96.1343 16.3917 96.201 16.275C96.2843 16.1417 96.4176 16.0583 96.601 16.025C96.751 15.9917 96.951 15.9667 97.201 15.95C97.4676 15.9167 97.7343 15.8583 98.001 15.775C98.2676 15.675 98.4843 15.525 98.651 15.325C98.801 14.9583 98.976 14.55 99.176 14.1C99.376 13.65 99.5676 13.25 99.751 12.9C99.951 12.5333 100.084 12.3083 100.151 12.225C100.434 12.075 100.643 12.0167 100.776 12.05C100.909 12.0667 101.059 12.2083 101.226 12.475C101.309 12.5917 101.368 12.6833 101.401 12.75C101.451 12.8167 101.459 12.9167 101.426 13.05C101.393 13.1833 101.301 13.3917 101.151 13.675C101.018 13.9583 100.809 14.3667 100.526 14.9C100.443 15.0667 100.368 15.2167 100.301 15.35C100.234 15.4667 100.201 15.525 100.201 15.525C100.268 15.5417 100.368 15.55 100.501 15.55C100.634 15.55 100.801 15.5417 101.001 15.525C101.184 15.4917 101.418 15.4667 101.701 15.45C101.984 15.4167 102.209 15.4167 102.376 15.45C102.759 15.45 103.043 15.525 103.226 15.675C103.409 15.8083 103.509 16.0417 103.526 16.375C103.559 16.5583 103.518 16.6667 103.401 16.7C103.301 16.7333 103.026 16.75 102.576 16.75C102.426 16.75 102.193 16.7583 101.876 16.775C101.559 16.7917 101.226 16.8083 100.876 16.825C100.543 16.8417 100.251 16.8667 100.001 16.9C99.7676 16.9167 99.651 16.9417 99.651 16.975C99.601 17.0083 99.5176 17.1667 99.401 17.45C99.301 17.7333 99.1926 18.0583 99.076 18.425C98.976 18.775 98.8843 19.0917 98.801 19.375C98.6843 19.9417 98.5926 20.5083 98.526 21.075C98.476 21.6417 98.4676 22.1333 98.501 22.55C98.5343 22.9667 98.626 23.2583 98.776 23.425C98.926 23.575 99.2176 23.6083 99.651 23.525C100.084 23.425 100.434 23.2667 100.701 23.05C101.001 22.8 101.243 22.675 101.426 22.675C101.626 22.675 101.734 22.7667 101.751 22.95C101.784 23.1167 101.693 23.3583 101.476 23.675C101.276 23.975 101.026 24.2417 100.726 24.475C100.426 24.6917 100.109 24.85 99.776 24.95C99.4593 25.0333 99.1593 25.0333 98.876 24.95ZM112.382 25.775C112.265 25.5917 111.999 25.475 111.582 25.425C111.182 25.375 110.69 25.3667 110.107 25.4C109.874 25.4333 109.649 25.4167 109.432 25.35C109.215 25.3 109.04 25.2083 108.907 25.075C108.79 24.9583 108.749 24.8333 108.782 24.7C108.799 24.5 108.965 24.3417 109.282 24.225C109.615 24.1083 110.14 24.0417 110.857 24.025L112.182 24L112.432 23.5C112.499 23.3167 112.582 23.0583 112.682 22.725C112.782 22.3917 112.89 22.0333 113.007 21.65C113.074 21.4167 113.174 21.1 113.307 20.7C113.44 20.3 113.582 19.875 113.732 19.425C113.882 18.975 114.015 18.575 114.132 18.225C114.249 17.8583 114.324 17.6 114.357 17.45C114.424 17.3 114.515 17.05 114.632 16.7C114.749 16.3333 114.857 15.9667 114.957 15.6C115.074 15.2167 115.149 14.9417 115.182 14.775C115.615 13.4583 115.899 12.525 116.032 11.975C116.165 11.4083 116.199 11.1167 116.132 11.1C116.065 11.1 115.899 11.1083 115.632 11.125C115.382 11.1417 115.099 11.1667 114.782 11.2C114.482 11.2167 114.207 11.2417 113.957 11.275C113.724 11.3083 113.582 11.3417 113.532 11.375C113.449 11.4917 113.307 11.5167 113.107 11.45C112.907 11.3833 112.782 11.2667 112.732 11.1C112.715 10.95 112.707 10.8333 112.707 10.75C112.724 10.6667 112.774 10.6 112.857 10.55C112.974 10.45 113.199 10.3417 113.532 10.225C113.865 10.0917 114.24 9.975 114.657 9.875C115.09 9.775 115.499 9.7 115.882 9.65C116.165 9.61667 116.449 9.55833 116.732 9.475C117.015 9.375 117.24 9.25833 117.407 9.125C117.557 9.075 117.699 9.03333 117.832 9C117.982 8.96667 118.132 8.95833 118.282 8.975C118.415 9.05833 118.64 9.1 118.957 9.1C119.29 9.1 119.64 9.09167 120.007 9.075C120.94 8.99167 121.565 8.96667 121.882 9C122.215 9.03333 122.44 9.16667 122.557 9.4C122.64 9.71667 122.657 9.96667 122.607 10.15C122.557 10.3167 122.39 10.3917 122.107 10.375C121.957 10.4083 121.682 10.4417 121.282 10.475C120.899 10.4917 120.49 10.5083 120.057 10.525C118.874 10.625 118.24 10.7417 118.157 10.875C118.09 10.9417 118.032 11.0083 117.982 11.075C117.949 11.1417 117.899 11.2167 117.832 11.3C117.849 11.3667 117.807 11.5833 117.707 11.95C117.624 12.3 117.515 12.6583 117.382 13.025C117.315 13.2417 117.215 13.55 117.082 13.95C116.949 14.35 116.807 14.7667 116.657 15.2C116.524 15.6167 116.399 16 116.282 16.35C116.165 16.6833 116.082 16.9083 116.032 17.025C115.965 17.175 115.907 17.3417 115.857 17.525C115.824 17.6917 115.799 17.8167 115.782 17.9C115.549 18.7167 115.34 19.4083 115.157 19.975C114.99 20.5417 114.832 21.0417 114.682 21.475C114.549 21.8917 114.424 22.3 114.307 22.7C114.19 23.0833 114.065 23.5083 113.932 23.975C113.932 23.975 114.057 23.9667 114.307 23.95C114.574 23.9167 114.924 23.8833 115.357 23.85C116.14 23.7667 116.699 23.7167 117.032 23.7C117.382 23.6833 117.615 23.7083 117.732 23.775C117.849 23.825 117.932 23.925 117.982 24.075C118.315 24.525 118.357 24.8333 118.107 25C117.857 25.1667 117.265 25.2417 116.332 25.225C115.465 25.2583 114.799 25.2833 114.332 25.3C113.882 25.3333 113.565 25.375 113.382 25.425C113.215 25.475 113.115 25.5583 113.082 25.675C113.082 25.8083 113.015 25.875 112.882 25.875C112.749 25.875 112.582 25.8417 112.382 25.775ZM129.746 24.35C129.53 24.45 129.28 24.4917 128.996 24.475C128.713 24.4583 128.33 24.3667 127.846 24.2C127.813 24.2 127.738 24.1667 127.621 24.1C127.521 24.0333 127.413 23.95 127.296 23.85C127.196 23.7333 127.113 23.6083 127.046 23.475C126.78 23.0917 126.671 22.525 126.721 21.775C126.771 21.025 127.005 20.125 127.421 19.075C127.538 18.825 127.713 18.5083 127.946 18.125C128.196 17.7417 128.438 17.3917 128.671 17.075C128.921 16.7417 129.096 16.55 129.196 16.5C129.196 16.5 129.288 16.4667 129.471 16.4C129.655 16.3333 129.888 16.225 130.171 16.075C130.255 16.0417 130.346 16.0083 130.446 15.975C130.563 15.9417 130.68 15.9167 130.796 15.9C130.913 15.8833 131.013 15.8833 131.096 15.9C131.43 15.9167 131.771 16.0417 132.121 16.275C132.488 16.4917 132.788 16.75 133.021 17.05C133.255 17.3333 133.33 17.5833 133.246 17.8C133.246 17.8333 133.196 17.9 133.096 18C133.013 18.0833 132.913 18.175 132.796 18.275C132.696 18.3583 132.613 18.4417 132.546 18.525C132.463 18.625 132.346 18.6667 132.196 18.65C132.063 18.6333 131.938 18.5667 131.821 18.45C131.721 18.3167 131.663 18.15 131.646 17.95C131.613 17.8167 131.488 17.6917 131.271 17.575C131.071 17.4583 130.971 17.4 130.971 17.4C130.838 17.4 130.646 17.525 130.396 17.775C130.163 18.0083 129.93 18.2917 129.696 18.625C129.396 18.925 129.138 19.2833 128.921 19.7C128.705 20.1 128.53 20.4833 128.396 20.85C128.28 21.2 128.196 21.45 128.146 21.6C128.08 21.7667 128.071 22 128.121 22.3C128.171 22.6 128.23 22.7833 128.296 22.85C128.363 22.8833 128.53 22.8917 128.796 22.875C129.08 22.8583 129.413 22.825 129.796 22.775C130.18 22.7083 130.555 22.6333 130.921 22.55C131.288 22.4667 131.588 22.375 131.821 22.275C132.138 22.075 132.413 21.9583 132.646 21.925C132.88 21.8917 133.055 21.8917 133.171 21.925C133.355 21.9917 133.463 22.0833 133.496 22.2C133.53 22.3167 133.488 22.45 133.371 22.6C133.255 22.7333 133.055 22.875 132.771 23.025C132.505 23.1583 132.263 23.3083 132.046 23.475C131.846 23.625 131.746 23.7417 131.746 23.825C131.68 23.825 131.605 23.85 131.521 23.9C131.455 23.9333 131.396 23.9417 131.346 23.925C131.313 23.925 131.18 23.95 130.946 24C130.713 24.05 130.471 24.1083 130.221 24.175C129.988 24.2417 129.83 24.3 129.746 24.35ZM135.648 24.1C135.581 23.9667 135.498 23.8667 135.398 23.8C135.298 23.7167 135.248 23.6417 135.248 23.575C135.248 23.5083 135.239 23.4417 135.223 23.375C135.223 23.2917 135.189 23.2167 135.123 23.15C135.039 23.05 135.048 22.825 135.148 22.475C135.248 22.1083 135.414 21.6667 135.648 21.15C135.881 20.6167 136.156 20.0583 136.473 19.475C136.606 19.3417 136.739 19.1667 136.873 18.95C137.006 18.7333 137.106 18.5917 137.173 18.525C137.173 18.4583 137.198 18.4 137.248 18.35C137.298 18.2833 137.356 18.25 137.423 18.25V18.1C137.423 18.0167 137.498 17.875 137.648 17.675C137.814 17.475 138.014 17.2583 138.248 17.025C138.481 16.775 138.723 16.5417 138.973 16.325C139.223 16.0917 139.431 15.925 139.598 15.825C139.948 15.5917 140.306 15.45 140.673 15.4C141.056 15.35 141.381 15.4333 141.648 15.65C141.698 15.7 141.781 15.7833 141.898 15.9C142.014 16.0167 142.148 16.15 142.298 16.3C142.464 16.4333 142.631 16.575 142.798 16.725L143.723 17.55L143.273 18.8C143.056 19.4667 142.998 20.05 143.098 20.55C143.214 21.05 143.381 21.4833 143.598 21.85C143.681 22.0333 143.848 22.2083 144.098 22.375C144.364 22.5417 144.614 22.6417 144.848 22.675C144.981 22.6917 145.106 22.7417 145.223 22.825C145.339 22.9083 145.398 23.0417 145.398 23.225C145.398 23.3917 145.364 23.525 145.298 23.625C145.231 23.725 145.114 23.7917 144.948 23.825C144.398 23.8917 143.881 23.7583 143.398 23.425C142.931 23.0917 142.498 22.5417 142.098 21.775C142.031 21.675 141.939 21.4917 141.823 21.225C141.723 20.9417 141.664 20.7583 141.648 20.675C141.581 20.7583 141.456 20.9167 141.273 21.15C141.089 21.3667 140.948 21.525 140.848 21.625C139.664 22.825 138.639 23.6333 137.773 24.05C136.923 24.45 136.214 24.4667 135.648 24.1ZM136.548 22.7C136.548 22.8167 136.723 22.8167 137.073 22.7C137.439 22.5667 137.831 22.3333 138.248 22C138.814 21.5167 139.381 20.9833 139.948 20.4C140.531 19.8167 140.998 19.275 141.348 18.775L141.898 17.875C141.731 17.4917 141.548 17.2333 141.348 17.1C141.164 16.95 141.006 16.875 140.873 16.875C140.656 16.875 140.331 17.075 139.898 17.475C139.481 17.875 139.031 18.4083 138.548 19.075C138.064 19.7417 137.606 20.475 137.173 21.275C137.006 21.6083 136.856 21.9333 136.723 22.25C136.606 22.55 136.548 22.7 136.548 22.7ZM155.236 23.85C154.902 23.85 154.627 23.7833 154.411 23.65C154.194 23.5 154.011 23.2583 153.861 22.925C153.794 22.6917 153.736 22.4333 153.686 22.15C153.652 21.85 153.636 21.575 153.636 21.325C153.636 21.0583 153.661 20.8833 153.711 20.8C153.777 20.7333 153.802 20.6167 153.786 20.45C153.786 20.2667 153.786 20.075 153.786 19.875C153.769 19.5417 153.686 19.3583 153.536 19.325C153.402 19.275 153.202 19.325 152.936 19.475C152.636 19.6583 152.244 19.9083 151.761 20.225C151.277 20.525 150.769 20.8583 150.236 21.225C149.719 21.5917 149.227 21.975 148.761 22.375C148.394 22.775 148.169 23.0833 148.086 23.3C148.019 23.5 147.919 23.6 147.786 23.6C147.652 23.6667 147.536 23.675 147.436 23.625C147.352 23.5583 147.227 23.4583 147.061 23.325C146.944 23.1917 146.827 23.0667 146.711 22.95C146.594 22.8167 146.519 22.7167 146.486 22.65C146.486 22.5667 146.511 22.3917 146.561 22.125C146.611 21.8583 146.669 21.5917 146.736 21.325C146.819 21.0583 146.877 20.8833 146.911 20.8C146.994 20.8 147.061 20.7167 147.111 20.55C147.177 20.3833 147.277 20.2 147.411 20C147.444 19.8 147.527 19.5333 147.661 19.2C147.811 18.85 147.944 18.5417 148.061 18.275C148.294 17.875 148.452 17.5417 148.536 17.275C148.636 17.0083 148.702 16.675 148.736 16.275C148.719 16.2083 148.736 16.15 148.786 16.1C148.836 16.0333 148.894 16 148.961 16C149.094 15.8667 149.252 15.8333 149.436 15.9C149.619 15.95 149.786 16.075 149.936 16.275C150.236 16.675 150.352 17.0917 150.286 17.525C150.236 17.9417 149.969 18.5417 149.486 19.325C149.369 19.5917 149.277 19.8 149.211 19.95C149.161 20.0833 149.136 20.1917 149.136 20.275C149.136 20.275 149.219 20.2167 149.386 20.1C149.569 19.9833 149.769 19.85 149.986 19.7C150.219 19.5333 150.402 19.4083 150.536 19.325C150.619 19.2417 150.811 19.0917 151.111 18.875C151.411 18.6583 151.727 18.45 152.061 18.25C152.411 18.0333 152.669 17.9083 152.836 17.875C152.969 17.8083 153.111 17.75 153.261 17.7C153.411 17.6333 153.519 17.6 153.586 17.6C153.719 17.6 153.886 17.675 154.086 17.825C154.302 17.9583 154.502 18.125 154.686 18.325C154.869 18.5083 154.977 18.6667 155.011 18.8C155.011 18.8667 155.011 18.9333 155.011 19C155.027 19.0667 155.044 19.1333 155.061 19.2C155.127 19.4167 155.161 19.7083 155.161 20.075C155.177 20.4417 155.169 20.775 155.136 21.075C155.102 21.375 155.044 21.55 154.961 21.6C154.961 21.6 154.961 21.625 154.961 21.675C154.977 21.7083 155.019 21.725 155.086 21.725C155.086 21.7917 155.086 21.8333 155.086 21.85C155.002 21.85 154.969 21.925 154.986 22.075C155.002 22.2083 155.052 22.3583 155.136 22.525C155.236 22.6917 155.336 22.825 155.436 22.925C155.636 23.125 155.719 23.3167 155.686 23.5C155.652 23.6667 155.502 23.7833 155.236 23.85ZM165.645 24.25C165.429 24.3 165.229 24.3 165.045 24.25C164.862 24.2 164.695 24.1167 164.545 24C164.395 23.8833 164.262 23.7667 164.145 23.65C164.029 23.5167 163.995 23.4 164.045 23.3C164.095 23.1833 164.179 23.125 164.295 23.125C164.362 23.125 164.404 23.0583 164.42 22.925C164.454 22.775 164.487 22.5083 164.52 22.125C164.554 21.8917 164.595 21.6917 164.645 21.525C164.712 21.3417 164.745 21.2167 164.745 21.15C164.762 21.1 164.779 20.9667 164.795 20.75C164.829 20.5167 164.879 20.3167 164.945 20.15C165.012 19.85 165.112 19.4667 165.245 19C165.379 18.5167 165.512 18.05 165.645 17.6C165.795 17.1333 165.912 16.775 165.995 16.525C166.029 16.3417 166.104 16.1083 166.22 15.825C166.337 15.5417 166.437 15.3167 166.52 15.15C166.687 14.6833 166.904 14.125 167.17 13.475C167.454 12.825 167.737 12.175 168.02 11.525C168.304 10.875 168.554 10.325 168.77 9.875C169.004 9.40833 169.154 9.125 169.22 9.025C169.354 8.89167 169.512 8.83333 169.695 8.85C169.895 8.86667 170.087 8.96667 170.27 9.15C170.42 9.33333 170.487 9.53333 170.47 9.75C170.454 9.95 170.345 10.1667 170.145 10.4C170.079 10.5167 170.004 10.6667 169.92 10.85C169.837 11.0167 169.754 11.1583 169.67 11.275C169.537 11.675 169.37 12.0667 169.17 12.45C168.987 12.8333 168.787 13.2667 168.57 13.75C168.354 14.2167 168.12 14.8 167.87 15.5C167.72 15.8167 167.595 16.1333 167.495 16.45C167.395 16.75 167.312 16.9417 167.245 17.025C167.145 17.3917 167.02 17.775 166.87 18.175C166.72 18.5583 166.612 18.95 166.545 19.35C166.545 19.35 166.629 19.2667 166.795 19.1C166.979 18.9333 167.195 18.725 167.445 18.475C168.095 17.775 168.745 17.2 169.395 16.75C170.062 16.3 170.612 16.0667 171.045 16.05C171.279 16.0333 171.529 16.0917 171.795 16.225C172.079 16.3583 172.337 16.525 172.57 16.725C172.804 16.9083 172.962 17.1083 173.045 17.325C173.179 17.625 173.229 17.95 173.195 18.3C173.179 18.6333 173.079 18.9917 172.895 19.375C172.729 19.7417 172.495 20.1167 172.195 20.5C172.012 20.8167 171.787 21.125 171.52 21.425C171.27 21.7083 171.054 21.9167 170.87 22.05C170.704 22.2 170.537 22.35 170.37 22.5C170.22 22.6333 170.095 22.7417 169.995 22.825C169.779 22.975 169.604 23.0917 169.47 23.175C169.337 23.2417 169.154 23.3167 168.92 23.4C168.57 23.65 168.087 23.8333 167.47 23.95C166.854 24.0667 166.245 24.1667 165.645 24.25ZM166.295 22.975C166.412 22.975 166.62 22.95 166.92 22.9C167.237 22.85 167.529 22.725 167.795 22.525C168.579 22.125 169.254 21.6333 169.82 21.05C170.387 20.45 170.812 19.8583 171.095 19.275C171.395 18.675 171.529 18.1833 171.495 17.8C171.462 17.4167 171.17 17.3333 170.62 17.55C170.07 17.7667 169.404 18.2667 168.62 19.05C168.254 19.3833 167.904 19.7417 167.57 20.125C167.254 20.4917 166.954 20.8417 166.67 21.175C166.554 21.3583 166.454 21.5167 166.37 21.65C166.304 21.7833 166.262 21.9167 166.245 22.05C166.112 22.6667 166.129 22.975 166.295 22.975ZM176.96 25.075C176.226 25.075 175.626 24.8 175.16 24.25C174.693 23.6833 174.468 22.9833 174.485 22.15C174.518 21.55 174.635 20.9083 174.835 20.225C175.051 19.525 175.335 18.8583 175.685 18.225C176.035 17.575 176.418 17.0083 176.835 16.525C177.251 16.0417 177.685 15.7 178.135 15.5C178.301 15.4167 178.476 15.35 178.66 15.3C178.86 15.25 179.06 15.225 179.26 15.225C179.443 15.225 179.635 15.2583 179.835 15.325C180.035 15.375 180.201 15.4333 180.335 15.5C180.618 15.6167 180.835 15.7583 180.985 15.925C181.135 16.0917 181.268 16.35 181.385 16.7C181.435 17.0167 181.46 17.2417 181.46 17.375C181.46 17.5083 181.418 17.7083 181.335 17.975C181.135 18.575 180.876 19.0917 180.56 19.525C180.243 19.9583 179.818 20.325 179.285 20.625C179.151 20.7083 178.993 20.775 178.81 20.825C178.643 20.8583 178.468 20.875 178.285 20.875C177.951 20.875 177.626 20.8167 177.31 20.7C177.01 20.5667 176.768 20.375 176.585 20.125L176.41 19.925L176.335 20.125C176.168 20.575 176.035 20.9917 175.935 21.375C175.851 21.7583 175.81 22.1083 175.81 22.425C175.81 22.625 175.826 22.8167 175.86 23C175.91 23.1833 175.976 23.3417 176.06 23.475C176.126 23.575 176.235 23.65 176.385 23.7C176.551 23.7333 176.726 23.75 176.91 23.75C177.026 23.75 177.143 23.75 177.26 23.75C177.393 23.7333 177.518 23.7 177.635 23.65C177.918 23.55 178.143 23.4417 178.31 23.325C178.493 23.2083 178.676 23.0833 178.86 22.95L178.96 22.9H178.935C179.135 22.8 179.31 22.7 179.46 22.6C179.626 22.5 179.71 22.45 179.71 22.45C179.776 22.45 179.843 22.4083 179.91 22.325C180.043 22.2583 180.21 22.2833 180.41 22.4C180.626 22.5167 180.735 22.6667 180.735 22.85C180.718 22.9333 180.643 23.0667 180.51 23.25C180.376 23.4167 180.226 23.575 180.06 23.725C179.91 23.875 179.785 23.9583 179.685 23.975C179.668 23.9917 179.61 24.025 179.51 24.075C179.41 24.1083 179.343 24.1417 179.31 24.175H179.335C179.185 24.375 179.035 24.475 178.885 24.475H178.685C178.618 24.5917 178.401 24.725 178.035 24.875C177.668 25.0083 177.31 25.075 176.96 25.075ZM178.085 19.575C178.385 19.575 178.643 19.4917 178.86 19.325C179.093 19.1417 179.293 18.9417 179.46 18.725C179.793 18.275 179.985 17.8417 180.035 17.425C180.101 16.9917 180.051 16.6917 179.885 16.525C179.785 16.475 179.693 16.45 179.61 16.45C179.543 16.4333 179.401 16.4583 179.185 16.525C179.035 16.5583 178.826 16.6833 178.56 16.9C178.293 17.1167 178.026 17.3583 177.76 17.625C177.51 17.8917 177.318 18.1167 177.185 18.3L176.86 18.825C176.993 18.775 177.118 18.75 177.235 18.75C177.368 18.7333 177.443 18.7417 177.46 18.775C177.46 18.925 177.485 19.0667 177.535 19.2C177.601 19.3167 177.676 19.4083 177.76 19.475C177.86 19.5417 177.968 19.575 178.085 19.575ZM189.919 23.775C189.736 23.6583 189.569 23.5083 189.419 23.325C189.269 23.125 189.194 22.875 189.194 22.575C189.194 22.4083 189.227 22.125 189.294 21.725C189.361 21.325 189.452 20.875 189.569 20.375C189.686 19.875 189.802 19.4083 189.919 18.975C190.086 18.675 190.227 18.375 190.344 18.075C190.461 17.775 190.519 17.5917 190.519 17.525C190.552 17.325 190.594 17.0917 190.644 16.825C190.711 16.5583 190.777 16.3167 190.844 16.1C190.911 15.8833 190.961 15.7583 190.994 15.725C191.077 15.6417 191.177 15.5917 191.294 15.575C191.411 15.5417 191.527 15.5583 191.644 15.625C191.777 15.675 191.877 15.7833 191.944 15.95C192.127 16.15 192.219 16.3917 192.219 16.675C192.219 16.9417 192.127 17.3417 191.944 17.875C191.794 18.2083 191.644 18.6 191.494 19.05C191.344 19.5 191.211 19.9167 191.094 20.3C190.994 20.6667 190.936 20.9167 190.919 21.05L190.419 21.2C190.702 20.9333 190.969 20.6583 191.219 20.375C191.469 20.075 191.652 19.8417 191.769 19.675C192.052 19.2917 192.294 18.975 192.494 18.725C192.711 18.4583 192.986 18.1417 193.319 17.775C193.652 17.3917 193.977 17.1583 194.294 17.075C194.627 16.975 194.886 16.925 195.069 16.925C195.436 16.9917 195.727 17.1833 195.944 17.5C196.177 17.8 196.327 18.25 196.394 18.85C196.394 19.0833 196.369 19.3583 196.319 19.675C196.286 19.9917 196.269 20.15 196.269 20.15C196.269 20.15 196.402 19.975 196.669 19.625C196.952 19.275 197.327 18.8917 197.794 18.475C198.111 18.2417 198.419 18.1083 198.719 18.075C199.019 18.025 199.286 18.125 199.519 18.375C199.952 18.6083 200.236 18.9667 200.369 19.45C200.502 19.9167 200.536 20.5167 200.469 21.25C200.419 21.6833 200.411 22.0083 200.444 22.225C200.477 22.425 200.527 22.625 200.594 22.825C200.727 22.8917 200.752 23.0333 200.669 23.25C200.586 23.45 200.486 23.55 200.369 23.55C200.202 23.55 200.011 23.5167 199.794 23.45C199.594 23.3833 199.411 23.275 199.244 23.125C199.094 22.9583 199.019 22.7333 199.019 22.45V20.9C199.019 20.5333 199.002 20.2333 198.969 20C198.952 19.7667 198.911 19.625 198.844 19.575C198.661 19.475 198.394 19.5833 198.044 19.9C197.694 20.2167 197.319 20.6417 196.919 21.175C196.519 21.7083 196.144 22.2583 195.794 22.825C195.477 23.3417 195.277 23.6417 195.194 23.725C195.127 23.7917 195.002 23.7667 194.819 23.65C194.452 23.5333 194.219 23.375 194.119 23.175C194.036 22.9583 194.027 22.7167 194.094 22.45C194.177 22.1667 194.277 21.7833 194.394 21.3C194.527 20.8167 194.652 20.35 194.769 19.9C194.886 19.4333 194.961 19.1 194.994 18.9C194.927 18.7667 194.811 18.725 194.644 18.775C194.494 18.8083 194.336 18.8833 194.169 19C193.969 19.1333 193.727 19.3833 193.444 19.75C193.161 20.1167 192.869 20.5417 192.569 21.025C192.369 21.3417 192.161 21.6583 191.944 21.975C191.727 22.275 191.527 22.5417 191.344 22.775C191.161 23.0083 191.002 23.1833 190.869 23.3C190.636 23.6667 190.477 23.8667 190.394 23.9C190.311 23.9333 190.152 23.8917 189.919 23.775ZM202.208 29.975C201.808 30.0917 201.367 30.1083 200.883 30.025C200.417 29.9583 200.008 29.8167 199.658 29.6C199.292 29.3833 199.083 29.1417 199.033 28.875C199.017 28.775 199.05 28.6667 199.133 28.55C199.2 28.4333 199.292 28.35 199.408 28.3C199.508 28.2667 199.6 28.3 199.683 28.4C199.817 28.4833 200.058 28.5833 200.408 28.7C200.758 28.8333 201.15 28.8583 201.583 28.775C201.967 28.6917 202.342 28.4667 202.708 28.1C203.092 27.7333 203.4 27.3917 203.633 27.075C203.767 26.875 203.992 26.5167 204.308 26C204.625 25.4833 204.95 24.9167 205.283 24.3C205.633 23.6667 205.925 23.0833 206.158 22.55C206.208 22.4167 206.267 22.2583 206.333 22.075C206.4 21.8917 206.483 21.7417 206.583 21.625C206.683 21.425 206.767 21.2417 206.833 21.075C206.917 20.8917 206.967 20.7667 206.983 20.7C207 20.6167 207.075 20.45 207.208 20.2C207.342 19.95 207.467 19.7 207.583 19.45C207.667 19.2 207.792 18.8333 207.958 18.35C208.125 17.8667 208.292 17.475 208.458 17.175C208.658 16.7917 208.817 16.4833 208.933 16.25C209.067 16 209.208 15.85 209.358 15.8C209.508 15.6833 209.608 15.625 209.658 15.625C209.725 15.625 209.85 15.675 210.033 15.775C210.233 15.975 210.358 16.175 210.408 16.375C210.458 16.5583 210.433 16.7917 210.333 17.075C210.25 17.3417 210.083 17.7083 209.833 18.175C209.7 18.575 209.55 18.9417 209.383 19.275C209.233 19.5917 209.117 19.8 209.033 19.9C208.95 20.1 208.85 20.325 208.733 20.575C208.633 20.8083 208.542 21.025 208.458 21.225C208.158 21.8917 207.9 22.4333 207.683 22.85C207.467 23.2667 207.275 23.65 207.108 24C206.942 24.35 206.767 24.7583 206.583 25.225C206.2 25.8417 205.825 26.425 205.458 26.975C205.108 27.5417 204.733 28.0667 204.333 28.55C204.167 28.7 203.958 28.875 203.708 29.075C203.458 29.275 203.2 29.4583 202.933 29.625C202.683 29.7917 202.442 29.9083 202.208 29.975ZM205.583 23.975C205.333 23.9417 205.083 23.7917 204.833 23.525C204.6 23.2583 204.417 22.975 204.283 22.675C204.15 22.375 204.1 22.1583 204.133 22.025C204.133 21.9417 204.133 21.875 204.133 21.825C204.133 21.775 204.133 21.75 204.133 21.75C204.033 21.75 203.942 21.625 203.858 21.375C203.792 21.125 203.742 20.8 203.708 20.4C203.675 20 203.65 19.575 203.633 19.125C203.633 18.675 203.65 18.25 203.683 17.85C203.75 17.5667 203.783 17.2583 203.783 16.925C203.783 16.575 203.792 16.3 203.808 16.1C203.792 15.8333 203.817 15.6583 203.883 15.575C203.95 15.475 204.017 15.4 204.083 15.35C204.55 15.15 204.858 15.275 205.008 15.725C205.175 16.1583 205.217 16.975 205.133 18.175C205.1 18.8417 205.1 19.5083 205.133 20.175C205.167 20.8417 205.258 21.425 205.408 21.925C205.575 22.425 205.8 22.7667 206.083 22.95C206.2 23.0167 206.258 23.1083 206.258 23.225C206.258 23.3417 206.225 23.4667 206.158 23.6C206.092 23.7167 206 23.8167 205.883 23.9C205.783 23.9667 205.683 23.9917 205.583 23.975ZM46.6055 51.95C46.3721 51.8833 46.1805 51.8083 46.0305 51.725C45.8805 51.625 45.6805 51.4667 45.4305 51.25C45.2305 50.9833 45.0721 50.7333 44.9555 50.5C44.8555 50.2667 44.7888 50 44.7555 49.7C44.7221 49.3833 44.7055 48.9833 44.7055 48.5C44.7055 48.3 44.7388 48 44.8055 47.6C44.8888 47.2 44.9805 46.7833 45.0805 46.35C45.1971 45.9 45.2971 45.5 45.3805 45.15C45.4805 44.8 45.5388 44.575 45.5555 44.475C45.6055 44.2583 45.5221 44.1333 45.3055 44.1C45.0888 44.0667 44.8471 44.0583 44.5805 44.075C44.3305 44.075 44.1638 44.05 44.0805 44C44.0138 43.9833 43.9805 43.9583 43.9805 43.925C43.9805 43.875 43.9805 43.85 43.9805 43.85C43.9805 43.7833 43.9721 43.7417 43.9555 43.725C43.9555 43.6917 43.9305 43.6333 43.8805 43.55C43.8471 43.4833 43.8638 43.3917 43.9305 43.275C44.0138 43.1417 44.1471 43.0583 44.3305 43.025C44.4805 42.9917 44.6805 42.9667 44.9305 42.95C45.1971 42.9167 45.4638 42.8583 45.7305 42.775C45.9971 42.675 46.2138 42.525 46.3805 42.325C46.5305 41.9583 46.7055 41.55 46.9055 41.1C47.1055 40.65 47.2971 40.25 47.4805 39.9C47.6805 39.5333 47.8138 39.3083 47.8805 39.225C48.1638 39.075 48.3721 39.0167 48.5055 39.05C48.6388 39.0667 48.7888 39.2083 48.9555 39.475C49.0388 39.5917 49.0971 39.6833 49.1305 39.75C49.1805 39.8167 49.1888 39.9167 49.1555 40.05C49.1221 40.1833 49.0305 40.3917 48.8805 40.675C48.7471 40.9583 48.5388 41.3667 48.2555 41.9C48.1721 42.0667 48.0971 42.2167 48.0305 42.35C47.9638 42.4667 47.9305 42.525 47.9305 42.525C47.9971 42.5417 48.0971 42.55 48.2305 42.55C48.3638 42.55 48.5305 42.5417 48.7305 42.525C48.9138 42.4917 49.1471 42.4667 49.4305 42.45C49.7138 42.4167 49.9388 42.4167 50.1055 42.45C50.4888 42.45 50.7721 42.525 50.9555 42.675C51.1388 42.8083 51.2388 43.0417 51.2555 43.375C51.2888 43.5583 51.2471 43.6667 51.1305 43.7C51.0305 43.7333 50.7555 43.75 50.3055 43.75C50.1555 43.75 49.9221 43.7583 49.6055 43.775C49.2888 43.7917 48.9555 43.8083 48.6055 43.825C48.2721 43.8417 47.9805 43.8667 47.7305 43.9C47.4971 43.9167 47.3805 43.9417 47.3805 43.975C47.3305 44.0083 47.2471 44.1667 47.1305 44.45C47.0305 44.7333 46.9221 45.0583 46.8055 45.425C46.7055 45.775 46.6138 46.0917 46.5305 46.375C46.4138 46.9417 46.3221 47.5083 46.2555 48.075C46.2055 48.6417 46.1971 49.1333 46.2305 49.55C46.2638 49.9667 46.3555 50.2583 46.5055 50.425C46.6555 50.575 46.9471 50.6083 47.3805 50.525C47.8138 50.425 48.1638 50.2667 48.4305 50.05C48.7305 49.8 48.9721 49.675 49.1555 49.675C49.3555 49.675 49.4638 49.7667 49.4805 49.95C49.5138 50.1167 49.4221 50.3583 49.2055 50.675C49.0055 50.975 48.7555 51.2417 48.4555 51.475C48.1555 51.6917 47.8388 51.85 47.5055 51.95C47.1888 52.0333 46.8888 52.0333 46.6055 51.95ZM53.0068 51.425C52.9235 51.5917 52.7985 51.6417 52.6318 51.575C52.4818 51.5083 52.3568 51.4417 52.2568 51.375C52.1402 51.375 52.0402 51.3417 51.9568 51.275C51.8735 51.2083 51.8152 51.1083 51.7818 50.975C51.7485 50.875 51.7402 50.7583 51.7568 50.625C51.7735 50.475 51.8068 50.3083 51.8568 50.125C51.9235 49.925 51.9902 49.7083 52.0568 49.475C52.1902 48.925 52.2818 48.525 52.3318 48.275C52.3818 48.025 52.4318 47.8083 52.4818 47.625C52.5318 47.4417 52.5985 47.175 52.6818 46.825C52.8152 46.4917 52.9235 46.1667 53.0068 45.85C53.0902 45.5333 53.2152 45.2167 53.3818 44.9C53.4985 44.4667 53.6402 44.0583 53.8068 43.675C53.9902 43.275 54.1652 42.9417 54.3318 42.675C54.3652 42.625 54.4235 42.5583 54.5068 42.475C54.6068 42.3917 54.6902 42.35 54.7568 42.35C54.8902 42.2167 55.0068 42.1667 55.1068 42.2C55.2235 42.2167 55.3652 42.2917 55.5318 42.425C55.7318 42.6417 55.8068 42.8917 55.7568 43.175C55.7235 43.4583 55.5235 43.875 55.1568 44.425C54.9568 44.9417 54.7735 45.3917 54.6068 45.775C54.4402 46.1417 54.3235 46.4917 54.2568 46.825C54.4402 46.5583 54.6402 46.3167 54.8568 46.1C55.0902 45.8667 55.2818 45.675 55.4318 45.525C55.7985 45.1583 56.0985 44.8917 56.3318 44.725C56.5818 44.5583 56.8735 44.3667 57.2068 44.15C57.4068 44.0167 57.5985 43.9 57.7818 43.8C57.9652 43.6833 58.1652 43.6 58.3818 43.55C58.6152 43.5 58.8652 43.5 59.1318 43.55C59.2985 43.5333 59.4318 43.5833 59.5318 43.7C59.6485 43.8167 59.7402 43.975 59.8068 44.175C59.8735 44.375 59.9152 44.6083 59.9318 44.875C59.5485 44.7917 59.2068 44.8083 58.9068 44.925C58.6068 45.025 58.3485 45.15 58.1318 45.3C57.9318 45.45 57.7735 45.5667 57.6568 45.65C57.4068 45.8167 57.0902 46.0417 56.7068 46.325C56.3235 46.5917 55.9402 46.9167 55.5568 47.3C55.2568 47.6333 54.9985 47.9167 54.7818 48.15C54.5818 48.3833 54.4152 48.5917 54.2818 48.775C54.1652 48.9583 54.0735 49.15 54.0068 49.35C53.8402 49.7333 53.6652 50.15 53.4818 50.6C53.2985 51.05 53.1402 51.325 53.0068 51.425ZM66.7406 51.95C66.574 51.7833 66.4073 51.5583 66.2406 51.275C66.074 50.975 65.9406 50.6333 65.8406 50.25C65.8073 50.1167 65.7906 49.9333 65.7906 49.7C65.8073 49.4667 65.8073 49.3 65.7906 49.2C65.7406 49.3167 65.6573 49.4417 65.5406 49.575C65.4406 49.6917 65.3406 49.7917 65.2406 49.875C65.174 49.9417 65.024 50.075 64.7906 50.275C64.5573 50.4583 64.324 50.6083 64.0906 50.725C63.5406 51.075 63.0823 51.2667 62.7156 51.3C62.3656 51.3333 62.0323 51.15 61.7156 50.75C61.449 50.5333 61.2573 50.2917 61.1406 50.025C61.0406 49.7583 61.0406 49.3917 61.1406 48.925C61.174 48.3417 61.2573 47.775 61.3906 47.225C61.524 46.6583 61.799 45.9083 62.2156 44.975C62.5656 44.2917 62.8323 43.7917 63.0156 43.475C63.199 43.1417 63.3156 42.9417 63.3656 42.875C63.6156 42.7917 63.824 42.8 63.9906 42.9C64.1573 42.9833 64.2573 43.1417 64.2906 43.375C64.3906 43.5417 64.374 43.825 64.2406 44.225C64.124 44.625 63.9156 45.1167 63.6156 45.7C63.3823 46.2667 63.1656 46.8333 62.9656 47.4C62.7823 47.9667 62.674 48.45 62.6406 48.85C62.6073 49.25 62.7073 49.4917 62.9406 49.575C63.0906 49.6583 63.349 49.6333 63.7156 49.5C64.099 49.3667 64.524 49.0333 64.9906 48.5C65.474 47.9667 65.9406 47.1583 66.3906 46.075C66.524 45.7417 66.624 45.45 66.6906 45.2C66.7573 44.9333 66.799 44.6417 66.8156 44.325C66.7823 44.125 66.7906 43.95 66.8406 43.8C66.9073 43.6333 67.0406 43.4917 67.2406 43.375C67.3073 43.2917 67.399 43.2167 67.5156 43.15C67.6323 43.0667 67.7073 43.0667 67.7406 43.15L68.1406 43.125C68.2073 43.1083 68.249 43.15 68.2656 43.25C68.299 43.3333 68.3573 43.4083 68.4406 43.475C68.624 43.625 68.674 43.95 68.5906 44.45C68.5073 44.95 68.274 45.65 67.8906 46.55C67.574 47.2333 67.3573 47.75 67.2406 48.1C67.1406 48.45 67.0823 48.7917 67.0656 49.125C67.0656 49.425 67.124 49.7083 67.2406 49.975C67.3573 50.2417 67.5406 50.4833 67.7906 50.7C67.974 50.8167 68.074 50.95 68.0906 51.1C68.124 51.25 68.1323 51.425 68.1156 51.625C68.0823 51.775 67.9823 51.9 67.8156 52C67.6656 52.0833 67.4906 52.125 67.2906 52.125C67.0906 52.125 66.9073 52.0667 66.7406 51.95ZM72.4186 52.075C71.6852 52.075 71.0852 51.8 70.6186 51.25C70.1519 50.6833 69.9269 49.9833 69.9436 49.15C69.9769 48.55 70.0936 47.9083 70.2936 47.225C70.5102 46.525 70.7936 45.8583 71.1436 45.225C71.4936 44.575 71.8769 44.0083 72.2936 43.525C72.7102 43.0417 73.1436 42.7 73.5936 42.5C73.7602 42.4167 73.9352 42.35 74.1186 42.3C74.3186 42.25 74.5186 42.225 74.7186 42.225C74.9019 42.225 75.0936 42.2583 75.2936 42.325C75.4936 42.375 75.6602 42.4333 75.7936 42.5C76.0769 42.6167 76.2936 42.7583 76.4436 42.925C76.5936 43.0917 76.7269 43.35 76.8436 43.7C76.8936 44.0167 76.9186 44.2417 76.9186 44.375C76.9186 44.5083 76.8769 44.7083 76.7936 44.975C76.5936 45.575 76.3352 46.0917 76.0186 46.525C75.7019 46.9583 75.2769 47.325 74.7436 47.625C74.6102 47.7083 74.4519 47.775 74.2686 47.825C74.1019 47.8583 73.9269 47.875 73.7436 47.875C73.4102 47.875 73.0852 47.8167 72.7686 47.7C72.4686 47.5667 72.2269 47.375 72.0436 47.125L71.8686 46.925L71.7936 47.125C71.6269 47.575 71.4936 47.9917 71.3936 48.375C71.3102 48.7583 71.2686 49.1083 71.2686 49.425C71.2686 49.625 71.2852 49.8167 71.3186 50C71.3686 50.1833 71.4352 50.3417 71.5186 50.475C71.5852 50.575 71.6936 50.65 71.8436 50.7C72.0102 50.7333 72.1852 50.75 72.3686 50.75C72.4852 50.75 72.6019 50.75 72.7186 50.75C72.8519 50.7333 72.9769 50.7 73.0936 50.65C73.3769 50.55 73.6019 50.4417 73.7686 50.325C73.9519 50.2083 74.1352 50.0833 74.3186 49.95L74.4186 49.9H74.3936C74.5936 49.8 74.7686 49.7 74.9186 49.6C75.0852 49.5 75.1686 49.45 75.1686 49.45C75.2352 49.45 75.3019 49.4083 75.3686 49.325C75.5019 49.2583 75.6686 49.2833 75.8686 49.4C76.0852 49.5167 76.1936 49.6667 76.1936 49.85C76.1769 49.9333 76.1019 50.0667 75.9686 50.25C75.8352 50.4167 75.6852 50.575 75.5186 50.725C75.3686 50.875 75.2436 50.9583 75.1436 50.975C75.1269 50.9917 75.0686 51.025 74.9686 51.075C74.8686 51.1083 74.8019 51.1417 74.7686 51.175H74.7936C74.6436 51.375 74.4936 51.475 74.3436 51.475H74.1436C74.0769 51.5917 73.8602 51.725 73.4936 51.875C73.1269 52.0083 72.7686 52.075 72.4186 52.075ZM73.5436 46.575C73.8436 46.575 74.1019 46.4917 74.3186 46.325C74.5519 46.1417 74.7519 45.9417 74.9186 45.725C75.2519 45.275 75.4436 44.8417 75.4936 44.425C75.5602 43.9917 75.5102 43.6917 75.3436 43.525C75.2436 43.475 75.1519 43.45 75.0686 43.45C75.0019 43.4333 74.8602 43.4583 74.6436 43.525C74.4936 43.5583 74.2852 43.6833 74.0186 43.9C73.7519 44.1167 73.4852 44.3583 73.2186 44.625C72.9686 44.8917 72.7769 45.1167 72.6436 45.3L72.3186 45.825C72.4519 45.775 72.5769 45.75 72.6936 45.75C72.8269 45.7333 72.9019 45.7417 72.9186 45.775C72.9186 45.925 72.9436 46.0667 72.9936 46.2C73.0602 46.3167 73.1352 46.4083 73.2186 46.475C73.3186 46.5417 73.4269 46.575 73.5436 46.575ZM85.7281 52.1C85.4115 51.9667 85.1115 51.7917 84.8281 51.575C84.5448 51.3417 84.3615 51.15 84.2781 51C84.2781 50.85 84.3031 50.75 84.3531 50.7C84.4031 50.6333 84.5448 50.6083 84.7781 50.625C85.0281 50.625 85.4281 50.6583 85.9781 50.725C86.1781 50.725 86.4281 50.7083 86.7281 50.675C87.0281 50.6417 87.3031 50.5917 87.5531 50.525C87.8198 50.4583 87.9698 50.375 88.0031 50.275C88.0865 50.275 88.1031 50.25 88.0531 50.2C88.0031 50.1333 87.9448 50.0667 87.8781 50C87.8115 50 87.7365 49.975 87.6531 49.925C87.5698 49.8583 87.4948 49.825 87.4281 49.825C87.4281 49.7417 87.3448 49.65 87.1781 49.55C87.0281 49.4333 86.8698 49.3417 86.7031 49.275C86.3365 48.975 86.0198 48.7083 85.7531 48.475C85.4865 48.225 85.3865 48.0583 85.4531 47.975C85.4531 47.9083 85.4531 47.875 85.4531 47.875C85.4531 47.8583 85.4531 47.85 85.4531 47.85C85.3365 47.85 85.2031 47.6833 85.0531 47.35C84.9198 47.0167 84.8531 46.7167 84.8531 46.45C84.8531 46.25 84.9115 46 85.0281 45.7C85.1448 45.3833 85.3031 45.0583 85.5031 44.725C85.7031 44.3917 85.9115 44.1167 86.1281 43.9C86.4281 43.6167 86.8031 43.3167 87.2531 43C87.7031 42.6667 88.1448 42.375 88.5781 42.125C89.0281 41.8583 89.4031 41.6833 89.7031 41.6C90.0031 41.4833 90.2781 41.425 90.5281 41.425C90.7948 41.425 91.0281 41.4833 91.2281 41.6C91.3948 41.6833 91.5448 41.8083 91.6781 41.975C91.8281 42.125 91.9531 42.2833 92.0531 42.45C92.1698 42.6 92.2448 42.7333 92.2781 42.85C92.2781 43.05 92.2615 43.275 92.2281 43.525C92.1948 43.7583 92.1448 43.9667 92.0781 44.15C92.0281 44.3333 91.9448 44.425 91.8281 44.425C91.8281 44.425 91.8031 44.4333 91.7531 44.45C91.7198 44.45 91.7031 44.4917 91.7031 44.575C91.7031 44.7417 91.5781 44.9333 91.3281 45.15C91.0115 45.3667 90.7365 45.5 90.5031 45.55C90.2698 45.5833 90.1281 45.4917 90.0781 45.275C90.0281 45.2083 89.9948 45.15 89.9781 45.1C89.9615 45.05 89.9198 45.025 89.8531 45.025C89.8531 45.025 89.8281 45 89.7781 44.95C89.7281 44.9 89.7031 44.8167 89.7031 44.7C89.7031 44.6333 89.7281 44.575 89.7781 44.525C89.8281 44.4583 89.8531 44.425 89.8531 44.425C89.9365 44.425 90.0448 44.3333 90.1781 44.15C90.3115 43.95 90.4281 43.7417 90.5281 43.525C90.6448 43.2917 90.7031 43.1333 90.7031 43.05C90.7031 42.95 90.6865 42.8917 90.6531 42.875C90.6365 42.8583 90.5615 42.85 90.4281 42.85C90.1948 42.95 89.9115 43.0833 89.5781 43.25C89.2448 43.4167 88.9281 43.5833 88.6281 43.75C88.3448 43.9 88.1365 44.0417 88.0031 44.175C87.9365 44.2917 87.8948 44.3667 87.8781 44.4C87.8615 44.4167 87.8198 44.425 87.7531 44.425C87.7531 44.3583 87.6948 44.3917 87.5781 44.525C87.4781 44.6417 87.3448 44.8083 87.1781 45.025C87.0281 45.2417 86.8781 45.4583 86.7281 45.675C86.5948 45.875 86.4948 46.025 86.4281 46.125C86.3948 46.1583 86.3531 46.2583 86.3031 46.425C86.2698 46.575 86.2531 46.7167 86.2531 46.85C86.1865 47.05 86.1948 47.1917 86.2781 47.275C86.3615 47.3417 86.5448 47.4917 86.8281 47.725C87.4115 48.1583 87.8698 48.5167 88.2031 48.8C88.5365 49.0833 88.7865 49.3167 88.9531 49.5C89.1198 49.6833 89.2198 49.85 89.2531 50C89.5531 50.5 89.6448 50.8833 89.5281 51.15C89.4115 51.4167 89.1281 51.65 88.6781 51.85C88.5115 51.9333 88.2365 52 87.8531 52.05C87.4698 52.1 87.0781 52.125 86.6781 52.125C86.2781 52.1417 85.9615 52.1333 85.7281 52.1ZM94.4736 51.4C93.8236 51.1333 93.3986 50.7667 93.1986 50.3C93.0153 49.8167 92.982 49.075 93.0986 48.075C93.132 47.5583 93.1486 47.2167 93.1486 47.05C93.1486 46.8833 93.057 46.7167 92.8736 46.55C92.8236 46.4833 92.732 46.3917 92.5986 46.275C92.482 46.1583 92.432 46.0583 92.4486 45.975C92.432 45.8583 92.4403 45.7333 92.4736 45.6C92.507 45.45 92.557 45.375 92.6236 45.375C92.6903 45.375 92.757 45.3583 92.8236 45.325C92.907 45.2917 92.982 45.2917 93.0486 45.325C93.1153 45.325 93.1903 45.3333 93.2736 45.35C93.357 45.3667 93.3986 45.4083 93.3986 45.475C93.4653 45.5917 93.5736 45.6083 93.7236 45.525C93.8736 45.425 94.032 45.2083 94.1986 44.875C94.3653 44.6083 94.582 44.3417 94.8486 44.075C95.132 43.8083 95.407 43.5667 95.6736 43.35C95.957 43.1167 96.1903 42.95 96.3736 42.85C96.457 42.8167 96.582 42.775 96.7486 42.725C96.9153 42.675 97.0903 42.6333 97.2736 42.6C97.4736 42.5667 97.6403 42.5583 97.7736 42.575C98.0736 42.5917 98.3236 42.675 98.5236 42.825C98.7403 42.975 98.9403 43.15 99.1236 43.35C99.3403 43.5 99.4736 43.7 99.5236 43.95C99.5903 44.2 99.607 44.4667 99.5736 44.75C99.5403 45.0333 99.4653 45.2917 99.3486 45.525C99.2986 45.6917 99.157 45.8917 98.9236 46.125C98.6903 46.3583 98.4236 46.5833 98.1236 46.8C97.8236 47.0167 97.5486 47.175 97.2986 47.275C97.082 47.325 96.7986 47.3667 96.4486 47.4C96.1153 47.4333 95.7986 47.45 95.4986 47.45C95.2153 47.4333 95.0236 47.4 94.9236 47.35C94.807 47.2833 94.7153 47.375 94.6486 47.625C94.582 47.875 94.532 48.2333 94.4986 48.7C94.4653 49.0667 94.4653 49.3333 94.4986 49.5C94.532 49.6667 94.5653 49.7833 94.5986 49.85C94.7153 49.9667 94.8736 50.1167 95.0736 50.3C95.2903 50.4667 95.5903 50.4917 95.9736 50.375C96.2903 50.2917 96.5986 50.075 96.8986 49.725C97.2153 49.375 97.507 49.0917 97.7736 48.875C97.8403 48.7583 97.9486 48.6917 98.0986 48.675C98.2653 48.6417 98.4403 48.65 98.6236 48.7C98.807 48.8167 98.882 48.9583 98.8486 49.125C98.832 49.275 98.7486 49.5083 98.5986 49.825C98.5486 49.9417 98.432 50.0917 98.2486 50.275C98.082 50.4417 97.8903 50.6167 97.6736 50.8C97.4736 50.9667 97.2903 51.1 97.1236 51.2C96.6236 51.4667 96.157 51.6083 95.7236 51.625C95.2903 51.625 94.8736 51.55 94.4736 51.4ZM95.9486 46.325C96.3153 46.2417 96.607 46.1833 96.8236 46.15C97.0403 46.1167 97.2486 46.025 97.4486 45.875C97.6486 45.7083 97.8986 45.4 98.1986 44.95C98.2653 44.7667 98.282 44.5833 98.2486 44.4C98.232 44.2167 98.1903 44.0917 98.1236 44.025C97.9736 43.8583 97.7903 43.8083 97.5736 43.875C97.3736 43.925 97.182 44.0167 96.9986 44.15C96.882 44.2 96.707 44.325 96.4736 44.525C96.257 44.7083 96.0403 44.925 95.8236 45.175C95.607 45.4083 95.432 45.625 95.2986 45.825C95.1653 46.025 95.132 46.1417 95.1986 46.175C95.1653 46.2417 95.257 46.2833 95.4736 46.3C95.707 46.3167 95.8653 46.325 95.9486 46.325ZM101.254 50.825C101.087 50.725 100.962 50.625 100.879 50.525C100.795 50.425 100.754 50.2833 100.754 50.1C100.754 49.85 100.787 49.5917 100.854 49.325C100.92 49.0417 100.987 48.7667 101.054 48.5C101.087 48.2 101.129 47.9 101.179 47.6C101.245 47.2833 101.362 46.9917 101.529 46.725C101.712 46.0917 101.904 45.4667 102.104 44.85C102.304 44.2167 102.479 43.5667 102.629 42.9C102.845 42.2833 103.037 41.7417 103.204 41.275C103.387 40.7917 103.612 40.1833 103.879 39.45C104.029 39.0333 104.154 38.5917 104.254 38.125C104.37 37.6417 104.545 37.2083 104.779 36.825C104.879 36.675 104.954 36.55 105.004 36.45C105.07 36.3333 105.137 36.225 105.204 36.125C105.22 36.0583 105.27 36.0167 105.354 36C105.454 35.9833 105.562 35.9917 105.679 36.025C105.795 36.0583 105.887 36.1167 105.954 36.2C106.004 36.1833 106.062 36.2333 106.129 36.35C106.212 36.45 106.287 36.5667 106.354 36.7C106.42 36.8333 106.445 36.95 106.429 37.05C106.429 37.1167 106.412 37.2083 106.379 37.325C106.362 37.4417 106.32 37.55 106.254 37.65C106.187 37.7167 106.12 37.8167 106.054 37.95C106.004 38.0667 105.92 38.2333 105.804 38.45C105.737 38.6667 105.679 38.8917 105.629 39.125C105.579 39.3417 105.512 39.5417 105.429 39.725C105.362 39.925 105.279 40.1167 105.179 40.3C105.095 40.4833 105.037 40.6333 105.004 40.75C104.887 41.1333 104.745 41.5083 104.579 41.875C104.429 42.2417 104.295 42.6333 104.179 43.05C104.062 43.45 103.945 43.8667 103.829 44.3C103.712 44.7167 103.545 45.1167 103.329 45.5C103.212 45.6833 103.129 45.9167 103.079 46.2C103.029 46.4833 102.979 46.7667 102.929 47.05C102.829 47.35 102.737 47.6333 102.654 47.9C102.587 48.15 102.554 48.3083 102.554 48.375C102.454 48.7417 102.379 49.1083 102.329 49.475C102.295 49.825 102.212 50.1333 102.079 50.4C102.062 50.5667 102.029 50.7 101.979 50.8C101.929 50.9 101.845 50.9583 101.729 50.975C101.612 50.975 101.454 50.925 101.254 50.825ZM106.502 54.5C106.385 54.4667 106.26 54.4 106.127 54.3C105.994 54.2167 105.927 54.1417 105.927 54.075C105.944 53.9583 105.969 53.85 106.002 53.75C106.035 53.6667 106.06 53.5833 106.077 53.5C106.11 53.3333 106.127 53.1333 106.127 52.9C106.127 52.6833 106.152 52.2667 106.202 51.65C106.252 50.9833 106.294 50.425 106.327 49.975C106.377 49.525 106.427 49.125 106.477 48.775C106.527 48.4083 106.585 48.0417 106.652 47.675C106.735 47.3083 106.835 46.875 106.952 46.375C107.035 45.8083 107.035 45.4583 106.952 45.325C106.885 45.1917 106.76 45.1167 106.577 45.1C106.26 45.0667 105.977 45.0167 105.727 44.95C105.494 44.8667 105.344 44.725 105.277 44.525C105.11 44.3583 105.069 44.225 105.152 44.125C105.235 44.025 105.402 43.95 105.652 43.9C105.919 43.8333 106.202 43.8083 106.502 43.825C106.785 43.8083 107.002 43.7917 107.152 43.775C107.319 43.7417 107.452 43.6583 107.552 43.525C107.652 43.375 107.752 43.125 107.852 42.775C107.885 42.625 107.944 42.4167 108.027 42.15C108.127 41.8833 108.21 41.6417 108.277 41.425C108.36 41.2083 108.402 41.1 108.402 41.1C108.552 40.9833 108.627 40.8333 108.627 40.65C108.644 40.4167 108.752 40.1083 108.952 39.725C109.169 39.325 109.51 38.7667 109.977 38.05C110.544 37.3167 111.052 36.7417 111.502 36.325C111.969 35.9083 112.51 35.65 113.127 35.55C113.194 35.5167 113.344 35.5 113.577 35.5C113.81 35.5 113.969 35.5 114.052 35.5C114.402 35.5167 114.644 35.5833 114.777 35.7C114.91 35.8167 115.052 36.0167 115.202 36.3C115.335 36.5167 115.352 36.8167 115.252 37.2C115.169 37.5667 115.06 37.85 114.927 38.05C114.844 38.1833 114.719 38.3333 114.552 38.5C114.402 38.6667 114.252 38.8167 114.102 38.95C113.969 39.0667 113.869 39.125 113.802 39.125C113.719 39.125 113.635 39.1 113.552 39.05C113.485 38.9833 113.419 38.9417 113.352 38.925C113.202 38.8583 113.177 38.7417 113.277 38.575C113.377 38.3917 113.485 38.2167 113.602 38.05C113.769 37.8 113.877 37.6 113.927 37.45C113.977 37.3 113.994 37.1667 113.977 37.05C113.96 36.9333 113.927 36.7917 113.877 36.625L114.102 36.85C113.985 36.7833 113.852 36.7583 113.702 36.775C113.552 36.7917 113.385 36.8333 113.202 36.9C112.885 37.0667 112.627 37.25 112.427 37.45C112.227 37.6333 112.06 37.7917 111.927 37.925C111.527 38.275 111.202 38.7 110.952 39.2C110.702 39.7 110.469 40.1667 110.252 40.6C110.185 40.7333 110.069 40.9833 109.902 41.35C109.752 41.7 109.61 42.0333 109.477 42.35C109.36 42.65 109.244 42.9167 109.127 43.15C109.01 43.3667 108.952 43.5 108.952 43.55C108.902 43.6667 108.927 43.725 109.027 43.725C109.144 43.725 109.369 43.7167 109.702 43.7C110.519 43.6 111.127 43.575 111.527 43.625C111.944 43.6583 112.185 43.8083 112.252 44.075C112.535 44.475 112.494 44.725 112.127 44.825C111.777 44.9083 111.127 45.0167 110.177 45.15C109.91 45.1667 109.644 45.1833 109.377 45.2C109.11 45.2 108.935 45.2083 108.852 45.225C108.785 45.2417 108.719 45.2667 108.652 45.3C108.585 45.3333 108.51 45.5 108.427 45.8C108.41 45.9833 108.377 46.2083 108.327 46.475C108.294 46.725 108.269 46.9667 108.252 47.2C108.185 47.4 108.135 47.6083 108.102 47.825C108.085 48.0417 108.035 48.2333 107.952 48.4C107.852 49.3167 107.785 50.1667 107.752 50.95C107.719 51.7167 107.669 52.375 107.602 52.925C107.552 53.475 107.419 53.9 107.202 54.2C107.085 54.3333 106.96 54.4333 106.827 54.5C106.71 54.5833 106.602 54.5833 106.502 54.5ZM118.582 51.1C118.516 50.9667 118.432 50.8667 118.332 50.8C118.232 50.7167 118.182 50.6417 118.182 50.575C118.182 50.5083 118.174 50.4417 118.157 50.375C118.157 50.2917 118.124 50.2167 118.057 50.15C117.974 50.05 117.982 49.825 118.082 49.475C118.182 49.1083 118.349 48.6667 118.582 48.15C118.816 47.6167 119.091 47.0583 119.407 46.475C119.541 46.3417 119.674 46.1667 119.807 45.95C119.941 45.7333 120.041 45.5917 120.107 45.525C120.107 45.4583 120.132 45.4 120.182 45.35C120.232 45.2833 120.291 45.25 120.357 45.25V45.1C120.357 45.0167 120.432 44.875 120.582 44.675C120.749 44.475 120.949 44.2583 121.182 44.025C121.416 43.775 121.657 43.5417 121.907 43.325C122.157 43.0917 122.366 42.925 122.532 42.825C122.882 42.5917 123.241 42.45 123.607 42.4C123.991 42.35 124.316 42.4333 124.582 42.65C124.632 42.7 124.716 42.7833 124.832 42.9C124.949 43.0167 125.082 43.15 125.232 43.3C125.399 43.4333 125.566 43.575 125.732 43.725L126.657 44.55L126.207 45.8C125.991 46.4667 125.932 47.05 126.032 47.55C126.149 48.05 126.316 48.4833 126.532 48.85C126.616 49.0333 126.782 49.2083 127.032 49.375C127.299 49.5417 127.549 49.6417 127.782 49.675C127.916 49.6917 128.041 49.7417 128.157 49.825C128.274 49.9083 128.332 50.0417 128.332 50.225C128.332 50.3917 128.299 50.525 128.232 50.625C128.166 50.725 128.049 50.7917 127.882 50.825C127.332 50.8917 126.816 50.7583 126.332 50.425C125.866 50.0917 125.432 49.5417 125.032 48.775C124.966 48.675 124.874 48.4917 124.757 48.225C124.657 47.9417 124.599 47.7583 124.582 47.675C124.516 47.7583 124.391 47.9167 124.207 48.15C124.024 48.3667 123.882 48.525 123.782 48.625C122.599 49.825 121.574 50.6333 120.707 51.05C119.857 51.45 119.149 51.4667 118.582 51.1ZM119.482 49.7C119.482 49.8167 119.657 49.8167 120.007 49.7C120.374 49.5667 120.766 49.3333 121.182 49C121.749 48.5167 122.316 47.9833 122.882 47.4C123.466 46.8167 123.932 46.275 124.282 45.775L124.832 44.875C124.666 44.4917 124.482 44.2333 124.282 44.1C124.099 43.95 123.941 43.875 123.807 43.875C123.591 43.875 123.266 44.075 122.832 44.475C122.416 44.875 121.966 45.4083 121.482 46.075C120.999 46.7417 120.541 47.475 120.107 48.275C119.941 48.6083 119.791 48.9333 119.657 49.25C119.541 49.55 119.482 49.7 119.482 49.7ZM131.295 51.825C131.112 51.7917 130.92 51.7 130.72 51.55C130.537 51.3833 130.37 51.2 130.22 51C130.087 50.7833 129.995 50.5917 129.945 50.425C129.945 50.3917 129.92 50.35 129.87 50.3C129.837 50.25 129.82 50.225 129.82 50.225C129.754 50.175 129.712 49.9583 129.695 49.575C129.695 49.175 129.72 48.7333 129.77 48.25C129.82 47.7667 129.879 47.3833 129.945 47.1C130.029 46.8333 130.154 46.475 130.32 46.025C130.487 45.5583 130.629 45.1417 130.745 44.775L131.42 43.325L130.42 43.05C130.304 43.0167 130.204 42.95 130.12 42.85C130.054 42.75 130.02 42.6667 130.02 42.6C130.02 42.4667 130.095 42.3083 130.245 42.125C130.395 41.925 130.504 41.825 130.57 41.825C130.654 41.8417 130.804 41.85 131.02 41.85C131.254 41.85 131.479 41.8417 131.695 41.825C131.912 41.8083 132.045 41.7917 132.095 41.775C132.162 41.7417 132.229 41.7 132.295 41.65C132.362 41.5833 132.412 41.4917 132.445 41.375C132.529 41.1917 132.604 41.025 132.67 40.875C132.737 40.7083 132.829 40.525 132.945 40.325C133.062 40.1083 133.154 39.925 133.22 39.775C133.304 39.625 133.429 39.4167 133.595 39.15C133.679 39.0333 133.77 38.8917 133.87 38.725C133.97 38.5583 134.095 38.4167 134.245 38.3C134.395 38.1667 134.545 38.1083 134.695 38.125C134.862 38.125 135.07 38.2333 135.32 38.45C135.454 38.6167 135.529 38.7417 135.545 38.825C135.562 38.9083 135.495 39.0667 135.345 39.3C135.212 39.5833 135.054 39.8667 134.87 40.15C134.704 40.4333 134.545 40.7167 134.395 41C134.129 41.3667 134.079 41.575 134.245 41.625C134.412 41.675 134.879 41.6417 135.645 41.525C136.129 41.4417 136.479 41.4667 136.695 41.6C136.912 41.7167 137.037 41.9167 137.07 42.2C137.12 42.6 137.079 42.8417 136.945 42.925C136.812 43.0083 136.429 43.05 135.795 43.05C135.395 43.1167 135.054 43.1583 134.77 43.175C134.487 43.175 134.279 43.175 134.145 43.175C133.929 43.1917 133.787 43.2 133.72 43.2C133.654 43.2 133.554 43.2167 133.42 43.25C133.287 43.2833 133.187 43.3417 133.12 43.425C133.07 43.4917 133.012 43.5917 132.945 43.725C132.879 43.7917 132.779 43.9667 132.645 44.25C132.512 44.5333 132.345 44.8417 132.145 45.175C131.912 45.875 131.712 46.575 131.545 47.275C131.379 47.9583 131.245 48.625 131.145 49.275C131.079 49.6917 131.087 49.9833 131.17 50.15C131.254 50.3 131.47 50.3917 131.82 50.425C132.004 50.4417 132.295 50.4417 132.695 50.425C133.112 50.3917 133.437 50.3417 133.67 50.275C133.854 50.1917 134.045 50.1083 134.245 50.025C134.445 49.925 134.629 49.825 134.795 49.725C134.945 49.6417 135.095 49.5583 135.245 49.475C135.395 49.375 135.47 49.325 135.47 49.325C135.554 49.1917 135.645 49.15 135.745 49.2C135.845 49.25 135.929 49.375 135.995 49.575C135.995 49.775 135.954 49.9833 135.87 50.2C135.787 50.4167 135.479 50.675 134.945 50.975C134.195 51.4417 133.504 51.725 132.87 51.825C132.254 51.9083 131.729 51.9083 131.295 51.825ZM149.701 51.85C149.468 51.7167 149.276 51.5417 149.126 51.325C148.976 51.0917 148.868 50.7917 148.801 50.425C148.751 50.0417 148.726 49.5667 148.726 49C148.726 48.7 148.726 48.425 148.726 48.175C148.726 47.925 148.726 47.8 148.726 47.8C148.726 47.8 148.643 47.9083 148.476 48.125C148.31 48.3417 148.11 48.6333 147.876 49C147.51 49.6833 147.135 50.25 146.751 50.7C146.368 51.1333 146.085 51.3833 145.901 51.45C145.818 51.4833 145.693 51.4917 145.526 51.475C145.36 51.4417 145.185 51.4 145.001 51.35C144.835 51.2833 144.685 51.2083 144.551 51.125C144.418 51.0417 144.335 50.95 144.301 50.85C144.268 50.7667 144.251 50.5833 144.251 50.3C144.251 50 144.26 49.675 144.276 49.325C144.31 48.9583 144.351 48.625 144.401 48.325C144.451 48.0083 144.51 47.7833 144.576 47.65C144.576 47.6 144.585 47.55 144.601 47.5C144.635 47.4333 144.626 47.3667 144.576 47.3C144.576 47.3 144.626 47.1167 144.726 46.75C144.843 46.3833 144.976 45.95 145.126 45.45C145.293 44.95 145.443 44.4833 145.576 44.05C145.726 43.6 145.835 43.3 145.901 43.15C145.901 43.0167 145.918 42.875 145.951 42.725C146.001 42.575 146.026 42.4667 146.026 42.4C146.026 42.25 146.11 42.0917 146.276 41.925C146.46 41.825 146.601 41.8083 146.701 41.875C146.818 41.925 146.96 42.0167 147.126 42.15C147.293 42.3167 147.401 42.45 147.451 42.55C147.518 42.65 147.518 42.7917 147.451 42.975C147.401 43.1583 147.293 43.4583 147.126 43.875C146.96 44.2417 146.801 44.6333 146.651 45.05C146.501 45.45 146.368 45.825 146.251 46.175C146.151 46.5083 146.076 46.7667 146.026 46.95C146.026 47.0667 146.001 47.1833 145.951 47.3C145.918 47.4 145.901 47.4833 145.901 47.55C145.851 47.6 145.818 47.6583 145.801 47.725C145.801 47.7917 145.801 47.8583 145.801 47.925C145.801 47.9917 145.776 48.1083 145.726 48.275C145.676 48.425 145.651 48.5917 145.651 48.775C145.585 49.0917 145.618 49.275 145.751 49.325C145.901 49.3583 146.043 49.3417 146.176 49.275C146.226 49.2083 146.335 49.0917 146.501 48.925C146.685 48.7583 146.835 48.5833 146.951 48.4C147.018 48.2 147.085 48.0667 147.151 48C147.235 47.9333 147.301 47.875 147.351 47.825C147.401 47.775 147.426 47.6833 147.426 47.55C147.426 47.4833 147.501 47.35 147.651 47.15C147.818 46.9333 147.993 46.6917 148.176 46.425C148.526 45.825 148.743 45.4417 148.826 45.275C148.96 45.0417 149.093 44.8417 149.226 44.675C149.376 44.4917 149.51 44.2667 149.626 44C149.693 43.8667 149.743 43.775 149.776 43.725C149.826 43.6583 149.943 43.625 150.126 43.625C150.31 43.625 150.443 43.6417 150.526 43.675C150.61 43.7083 150.676 43.8167 150.726 44C150.86 44.1167 150.935 44.2417 150.951 44.375C150.968 44.4917 150.976 44.6083 150.976 44.725C150.91 44.7917 150.868 44.875 150.851 44.975C150.851 45.0583 150.851 45.1 150.851 45.1C150.851 45.15 150.818 45.3 150.751 45.55C150.701 45.8 150.618 46.0417 150.501 46.275C150.368 46.8417 150.26 47.45 150.176 48.1C150.093 48.7333 150.051 49.2833 150.051 49.75C150.068 50.2 150.118 50.4583 150.201 50.525C150.301 50.5917 150.493 50.4333 150.776 50.05C151.076 49.6667 151.41 49.2 151.776 48.65C151.86 48.5167 152.035 48.3 152.301 48C152.568 47.7 152.751 47.4333 152.851 47.2C152.851 47.1167 152.901 46.9833 153.001 46.8C153.101 46.6 153.201 46.3917 153.301 46.175C153.401 45.9417 153.451 45.75 153.451 45.6C153.435 45.5667 153.518 45.4167 153.701 45.15C153.885 44.8833 154.06 44.5417 154.226 44.125C154.31 43.7917 154.46 43.55 154.676 43.4C154.91 43.25 155.118 43.2 155.301 43.25C155.485 43.2833 155.551 43.4417 155.501 43.725C155.418 44.2917 155.226 44.95 154.926 45.7C154.643 46.4333 154.31 47.175 153.926 47.925C153.56 48.6583 153.193 49.3083 152.826 49.875C152.693 49.9917 152.576 50.1333 152.476 50.3C152.376 50.45 152.326 50.5583 152.326 50.625C152.326 50.6583 152.251 50.7417 152.101 50.875C151.968 50.9917 151.801 51.1333 151.601 51.3C151.401 51.45 151.193 51.5917 150.976 51.725C150.76 51.8917 150.56 51.9833 150.376 52C150.193 52.0167 149.968 51.9667 149.701 51.85ZM159.191 51.05C158.841 51.1167 158.616 51.1417 158.516 51.125C158.433 51.0917 158.3 50.9917 158.116 50.825C157.85 50.6917 157.625 50.525 157.441 50.325C157.275 50.125 157.15 49.9167 157.066 49.7C157 49.4667 156.975 49.275 156.991 49.125C157.041 48.5417 157.183 47.9167 157.416 47.25C157.65 46.5833 157.933 45.9417 158.266 45.325C158.6 44.7083 158.958 44.1833 159.341 43.75C159.741 43.3 160.125 43.0083 160.491 42.875C160.825 42.7417 161.141 42.6917 161.441 42.725C161.741 42.7583 161.958 42.9167 162.091 43.2C162.341 43.6833 162.283 43.9917 161.916 44.125C161.866 44.125 161.808 44.15 161.741 44.2C161.675 44.2333 161.641 44.2833 161.641 44.35C161.708 44.3833 161.891 44.3917 162.191 44.375C162.491 44.3417 162.791 44.2917 163.091 44.225C163.408 44.1417 163.616 44.0583 163.716 43.975C163.816 43.925 163.891 43.9 163.941 43.9C163.991 43.9 164.116 43.9167 164.316 43.95C164.6 44.0333 164.741 44.1333 164.741 44.25C164.741 44.3167 164.766 44.3833 164.816 44.45C164.866 44.5 164.925 44.525 164.991 44.525C165.108 44.5417 165.091 44.6167 164.941 44.75C164.808 44.8833 164.575 45.0667 164.241 45.3C163.925 45.5 163.725 45.6333 163.641 45.7C163.575 45.75 163.566 45.8667 163.616 46.05C163.75 46.3667 163.758 46.7333 163.641 47.15C163.525 47.5667 163.316 47.9917 163.016 48.425C162.716 48.8583 162.35 49.2667 161.916 49.65C161.5 50.0167 161.05 50.3333 160.566 50.6C160.1 50.85 159.641 51 159.191 51.05ZM158.766 49.95C158.833 49.95 158.95 49.9167 159.116 49.85C159.283 49.7667 159.416 49.7 159.516 49.65C159.583 49.5833 159.666 49.5083 159.766 49.425C159.883 49.325 159.975 49.2667 160.041 49.25C160.108 49.25 160.191 49.225 160.291 49.175C160.391 49.1083 160.533 48.9833 160.716 48.8C160.9 48.6 161.141 48.3083 161.441 47.925C161.775 47.5583 162.033 47.225 162.216 46.925C162.4 46.6083 162.45 46.3167 162.366 46.05C162.35 45.9833 162.3 45.9417 162.216 45.925C162.15 45.9083 162.058 45.8667 161.941 45.8C161.775 45.8 161.616 45.7583 161.466 45.675C161.333 45.575 161.175 45.45 160.991 45.3L160.591 44.8L160.166 45.225C159.9 45.4917 159.616 45.8917 159.316 46.425C159.033 46.9417 158.791 47.475 158.591 48.025C158.391 48.5583 158.275 48.9833 158.241 49.3C158.225 49.55 158.266 49.7167 158.366 49.8C158.466 49.8833 158.6 49.9333 158.766 49.95ZM166.63 51.425C166.547 51.5917 166.422 51.6417 166.255 51.575C166.105 51.5083 165.98 51.4417 165.88 51.375C165.763 51.375 165.663 51.3417 165.58 51.275C165.497 51.2083 165.438 51.1083 165.405 50.975C165.372 50.875 165.363 50.7583 165.38 50.625C165.397 50.475 165.43 50.3083 165.48 50.125C165.547 49.925 165.613 49.7083 165.68 49.475C165.813 48.925 165.905 48.525 165.955 48.275C166.005 48.025 166.055 47.8083 166.105 47.625C166.155 47.4417 166.222 47.175 166.305 46.825C166.438 46.4917 166.547 46.1667 166.63 45.85C166.713 45.5333 166.838 45.2167 167.005 44.9C167.122 44.4667 167.263 44.0583 167.43 43.675C167.613 43.275 167.788 42.9417 167.955 42.675C167.988 42.625 168.047 42.5583 168.13 42.475C168.23 42.3917 168.313 42.35 168.38 42.35C168.513 42.2167 168.63 42.1667 168.73 42.2C168.847 42.2167 168.988 42.2917 169.155 42.425C169.355 42.6417 169.43 42.8917 169.38 43.175C169.347 43.4583 169.147 43.875 168.78 44.425C168.58 44.9417 168.397 45.3917 168.23 45.775C168.063 46.1417 167.947 46.4917 167.88 46.825C168.063 46.5583 168.263 46.3167 168.48 46.1C168.713 45.8667 168.905 45.675 169.055 45.525C169.422 45.1583 169.722 44.8917 169.955 44.725C170.205 44.5583 170.497 44.3667 170.83 44.15C171.03 44.0167 171.222 43.9 171.405 43.8C171.588 43.6833 171.788 43.6 172.005 43.55C172.238 43.5 172.488 43.5 172.755 43.55C172.922 43.5333 173.055 43.5833 173.155 43.7C173.272 43.8167 173.363 43.975 173.43 44.175C173.497 44.375 173.538 44.6083 173.555 44.875C173.172 44.7917 172.83 44.8083 172.53 44.925C172.23 45.025 171.972 45.15 171.755 45.3C171.555 45.45 171.397 45.5667 171.28 45.65C171.03 45.8167 170.713 46.0417 170.33 46.325C169.947 46.5917 169.563 46.9167 169.18 47.3C168.88 47.6333 168.622 47.9167 168.405 48.15C168.205 48.3833 168.038 48.5917 167.905 48.775C167.788 48.9583 167.697 49.15 167.63 49.35C167.463 49.7333 167.288 50.15 167.105 50.6C166.922 51.05 166.763 51.325 166.63 51.425ZM174.689 51.875C174.555 51.825 174.414 51.725 174.264 51.575C174.114 51.4083 173.989 51.2167 173.889 51C173.789 50.7833 173.739 50.5833 173.739 50.4C173.822 50.2167 173.93 49.9 174.064 49.45C174.197 48.9833 174.364 48.45 174.564 47.85C174.697 47.6667 174.797 47.45 174.864 47.2C174.947 46.95 175.022 46.725 175.089 46.525C175.222 46.2583 175.38 45.9167 175.564 45.5C175.747 45.0667 175.922 44.6333 176.089 44.2C176.272 43.75 176.43 43.375 176.564 43.075C176.78 42.625 176.964 42.2167 177.114 41.85C177.28 41.4667 177.439 41.0833 177.589 40.7C177.755 40.3167 177.93 39.9 178.114 39.45C178.314 38.9833 178.514 38.5083 178.714 38.025C178.93 37.5417 179.114 37.1083 179.264 36.725C179.43 36.325 179.53 36.0417 179.564 35.875C179.564 35.7417 179.589 35.6417 179.639 35.575C179.705 35.5083 179.772 35.475 179.839 35.475C179.905 35.4083 179.972 35.375 180.039 35.375C180.105 35.3583 180.172 35.35 180.239 35.35C180.305 35.35 180.43 35.475 180.614 35.725C180.814 35.975 180.914 36.2 180.914 36.4C180.914 36.6667 180.78 37.1667 180.514 37.9C180.264 38.6333 179.905 39.4667 179.439 40.4C178.872 41.6333 178.414 42.65 178.064 43.45C177.714 44.2333 177.472 44.825 177.339 45.225C177.205 45.6083 177.155 45.825 177.189 45.875C177.189 45.875 177.305 45.825 177.539 45.725C177.772 45.6083 178.022 45.45 178.289 45.25C178.472 45.15 178.672 45.025 178.889 44.875C179.105 44.725 179.314 44.5833 179.514 44.45C179.714 44.3 179.88 44.2083 180.014 44.175C180.214 44.0417 180.422 43.9167 180.639 43.8C180.855 43.6667 180.997 43.5667 181.064 43.5C181.347 43.3667 181.555 43.325 181.689 43.375C181.839 43.425 181.989 43.55 182.139 43.75C182.322 43.9667 182.355 44.1583 182.239 44.325C182.122 44.475 181.847 44.6833 181.414 44.95C181.064 45.1667 180.639 45.425 180.139 45.725C179.655 46.025 179.222 46.2917 178.839 46.525C178.472 46.7583 178.264 46.9 178.214 46.95C178.214 46.95 178.28 47.075 178.414 47.325C178.547 47.575 178.68 47.8 178.814 48C178.947 48.2667 179.089 48.5167 179.239 48.75C179.405 48.9667 179.489 49.1167 179.489 49.2C179.672 49.7167 179.947 50.0917 180.314 50.325C180.68 50.5583 181.064 50.5833 181.464 50.4C181.797 50.2667 182.039 50.225 182.189 50.275C182.355 50.325 182.472 50.45 182.539 50.65C182.605 50.7833 182.622 50.8833 182.589 50.95C182.572 51 182.464 51.125 182.264 51.325C181.947 51.6417 181.622 51.8417 181.289 51.925C180.972 52.0083 180.68 51.9833 180.414 51.85C180.164 51.8667 179.855 51.7083 179.489 51.375C179.122 51.025 178.597 50.4083 177.914 49.525C177.914 49.4583 177.88 49.3667 177.814 49.25C177.764 49.1167 177.705 48.9917 177.639 48.875C177.572 48.7417 177.489 48.6 177.389 48.45C177.289 48.2833 177.239 48.2 177.239 48.2C177.239 48.1333 177.214 48.0583 177.164 47.975C177.114 47.8917 177.047 47.7917 176.964 47.675C176.697 47.5917 176.505 47.6417 176.389 47.825C176.272 48.0083 176.147 48.2 176.014 48.4C175.93 48.6167 175.822 48.925 175.689 49.325C175.572 49.7083 175.472 50.0833 175.389 50.45C175.322 50.8167 175.305 51.0667 175.339 51.2C175.339 51.4667 175.297 51.65 175.214 51.75C175.13 51.8333 174.955 51.875 174.689 51.875Z" fill="black"/>
<path d="M231.306 98.4814C231.033 98.4411 230.844 98.1869 230.884 97.9137L231.542 93.4621C231.583 93.1889 231.837 93.0002 232.11 93.0406C232.383 93.0809 232.572 93.3351 232.532 93.6083L231.947 97.5653L235.904 98.1502C236.177 98.1906 236.366 98.4447 236.325 98.7179C236.285 98.9911 236.031 99.1798 235.757 99.1394L231.306 98.4814ZM229.548 45.6217C236.969 49.0755 246.071 55.8694 249.021 65.0537C250.503 69.6674 250.422 74.8593 247.827 80.4779C245.238 86.0841 240.156 92.0927 231.677 98.3883L231.081 97.5854C239.478 91.3508 244.423 85.4631 246.919 80.0586C249.41 74.6666 249.474 69.7334 248.069 65.3595C245.245 56.5685 236.45 49.9367 229.126 46.5283L229.548 45.6217Z" fill="black"/>
</svg>
