<svg width="1058" height="676" viewBox="0 0 1058 676" fill="none" xmlns="http://www.w3.org/2000/svg">
<path d="M48.512 505.514C36.9915 509.285 26.8471 508.638 18.0723 503.595C9.31095 498.536 3.8256 491.136 1.6184 481.393C-0.7682 470.856 -0.0341477 457.88 3.80657 442.481C7.65916 427.07 13.2852 410.589 20.6703 393.038C28.0692 375.483 36.1032 358.213 44.7698 341.227C53.4363 324.242 61.5863 308.772 69.217 294.819C76.8464 280.86 82.5948 269.717 86.4619 261.375C83.9605 263.041 80.5717 265.21 76.2843 267.885C71.9982 270.565 67.8861 273.047 63.9398 275.322C59.994 277.61 57.3523 278.961 56.0206 279.396C54.1438 280.01 52.4569 279.866 50.953 278.936C49.451 278.013 48.2426 276.848 47.3551 275.446C45.2405 275.011 44.1306 274.526 44.0093 273.998C43.5001 273.036 43.083 272.176 42.773 271.428C42.4657 270.681 42.251 270.047 42.1313 269.513C41.1776 265.307 42.9818 262.522 47.5673 261.159C52.154 259.801 56.6355 257.978 61.0136 255.699C65.3918 253.419 69.78 250.567 74.1892 247.141C78.5866 243.725 80.8774 241.13 81.053 239.38C81.7106 237.188 82.1743 236.04 82.4451 235.95C83.2477 235.687 84.4485 236.567 86.0582 238.588C86.7682 239.204 87.3403 240.438 87.7562 242.276C88.2357 244.389 88.137 246.538 87.4932 248.727L94.8628 245.043C101.765 229.777 109.041 213.951 116.705 197.579C124.359 181.212 131.65 165.455 138.58 150.311C145.511 135.172 151.756 121.741 157.307 110.019C162.856 98.3048 166.889 89.7666 169.416 84.4151C169.298 83.8865 168.966 83.7088 168.434 83.8817C167.36 84.2324 165.612 86.652 163.164 91.13C157.306 102.104 151.397 113.223 145.471 124.501C139.53 135.782 134.514 145.067 130.407 152.349C126.299 159.632 124.232 163.148 124.17 162.88C124.11 162.62 125.395 159.444 128.042 153.335C130.693 147.24 134.052 139.845 138.131 131.147C142.2 122.462 146.346 113.749 150.553 105.016C154.764 96.2845 158.345 88.8843 161.283 82.8319C164.236 76.7733 165.834 73.7007 166.105 73.6105C166.848 73.0872 168.395 73.2161 170.726 74.0063C173.062 74.801 174.827 75.2899 176.02 75.4596C178.607 75.4618 182.277 76.7414 187.024 79.289C191.771 81.8365 196.049 84.8191 199.853 88.2405C203.647 91.6668 205.305 94.8845 204.826 97.8646C201.786 102.25 197.76 108.597 192.74 116.884C187.708 125.182 182.088 134.376 175.892 144.47C169.681 154.561 163.594 164.83 157.617 175.276C151.626 185.719 146.062 195.469 140.92 204.507C135.779 213.551 131.83 220.92 129.102 226.617C134.153 223.556 140.015 220.222 146.694 216.623C153.358 213.026 160.091 209.409 166.885 205.769C173.692 202.126 179.73 198.947 185.022 196.225C190.288 193.512 193.845 191.711 195.662 190.837C196.676 190.223 197.992 189.644 199.597 189.118C202.005 188.329 203.331 188.47 203.566 189.52C203.806 190.576 203.129 192.068 201.563 193.996C199.982 195.927 198.043 197.553 195.755 198.863C195.483 198.95 193.26 200.254 189.084 202.747C184.894 205.246 180.09 208.165 174.657 211.495C169.225 214.83 164.387 217.904 160.129 220.707C156.556 222.731 151.834 225.402 145.972 228.736C140.111 232.075 134.89 235.057 130.301 237.687C125.724 240.32 123.467 241.77 123.525 242.022C125.933 241.233 130.034 239.331 135.828 236.301C141.609 233.282 147.709 230.013 154.104 226.5C160.5 222.999 165.792 220.277 169.959 218.345C166.502 220.89 161.763 223.783 155.739 227.025C149.705 230.278 143.582 233.697 137.346 237.29C131.099 240.894 125.948 244.492 121.868 248.084C119.786 251.603 117.437 255.837 114.82 260.793C112.202 265.752 109.156 271.34 105.674 277.574C106.477 277.311 107.181 277.232 107.772 277.317C115.332 277.672 122.854 278.465 130.332 279.694C137.8 280.927 144.168 283.012 149.436 285.957C154.704 288.901 157.76 293.492 158.602 299.725C160.449 312.982 159.104 329.268 154.551 348.583C157.051 341.819 159.059 335.085 160.554 328.368C162.051 321.658 162.981 315.262 163.335 309.207C164.295 321.059 162.477 333.965 157.863 347.921C153.25 361.878 147.634 375.884 141.039 389.92C144.282 382.633 146.982 375.521 149.153 368.591C151.322 361.655 153.124 354.992 154.551 348.583C149.893 362.269 144.651 374.733 138.85 385.968C133.039 397.208 129.133 404.705 127.111 408.484C123.428 415.063 119.327 422.071 114.82 429.485C110.313 436.899 105.909 443.857 101.637 450.348C97.3383 456.848 93.9315 462.064 91.3645 466.021C88.8094 469.968 87.7592 471.719 88.2458 471.286C92.0519 467.772 96.711 462.001 102.235 453.973C107.758 445.939 113.044 437.844 118.103 429.68C121.008 424.765 124.155 419.567 127.516 414.079C130.875 408.592 134.092 403.082 137.152 397.563C133.999 403.961 130.864 410.441 127.743 416.977C124.622 423.516 121.072 430.125 117.128 436.787C102.899 460.399 89.9128 477.103 78.1808 486.882C66.4356 496.667 56.5534 502.872 48.5122 505.504L48.512 505.514ZM34.3127 499.977C41.5346 497.613 49.0963 491.886 56.9673 482.803C64.8364 473.713 72.4393 462.525 79.7885 449.232C87.1377 435.939 94.016 421.801 100.402 406.841C106.801 391.87 112.319 377.191 116.985 362.795C121.637 348.402 124.959 335.434 126.945 323.89C128.936 312.35 129.278 303.674 127.964 297.875C126.713 292.346 124.435 288.988 121.15 287.802C117.864 286.614 114.619 285.974 111.428 285.89C109.975 285.798 108.483 285.226 106.95 284.171C105.405 283.124 104.384 282.112 103.886 281.14C97.4503 293.432 90.3791 307.276 82.6478 322.677C74.9019 338.09 67.55 353.578 60.5802 369.154C53.5986 384.74 47.5891 399.154 42.526 412.409C41.7485 414.078 40.1794 418.201 37.7801 424.789C35.3886 431.361 32.7958 439.004 30.0221 447.695C27.2339 456.387 25.055 464.878 23.4873 473.177C21.9176 481.468 21.6983 488.116 22.8306 493.124C23.4252 495.754 24.751 497.801 26.8034 499.248C28.8577 500.702 31.3624 500.944 34.3127 499.977ZM137.149 397.574L141.036 389.932L141.348 389.407C139.172 393.797 137.786 396.512 137.149 397.574Z" fill="white"/>
<path d="M260.848 316.15C255.046 314.653 249.737 312.218 244.953 308.83C240.158 305.457 237.772 301.919 237.797 298.231C237.73 295.424 238.619 290.745 240.446 284.205C242.274 277.668 244.563 270.274 247.295 262.018C250.029 253.769 252.8 245.365 255.614 236.801C258.42 228.248 260.948 220.626 263.179 213.957C263.532 212.993 263.016 214.223 261.637 217.647C260.257 221.066 258.511 225.458 256.414 230.811C254.318 236.167 252.364 241.473 250.525 246.744C248.7 252.009 247.347 255.918 246.49 258.459C246.191 257.142 246.766 254.276 248.207 249.831C249.639 245.405 251.343 240.535 253.31 235.221C255.278 229.909 257.147 224.841 258.931 220.012C260.715 215.184 261.965 211.801 262.683 209.872C257.236 220.146 250.939 231.755 243.804 244.697C236.655 257.645 229.551 270.366 222.445 282.882C215.348 295.388 209.058 306.353 203.578 315.791C198.081 325.232 194.405 331.528 192.535 334.683C184.762 334.685 178.84 332.665 174.757 328.62C170.673 324.585 168.105 320.189 167.034 315.448C166.438 312.814 166.272 310.175 166.536 307.544C168.103 300.525 170.478 291.611 173.652 280.813C176.812 270.019 180.263 258.915 184.018 247.503C187.759 236.086 191.234 225.4 194.458 215.44C197.668 205.478 200.104 197.823 201.768 192.461C201.081 190.711 199.705 188.755 197.632 186.603C195.56 184.451 194.316 182.453 193.898 180.608C193.421 178.502 195.059 176.836 198.815 175.608L201.831 174.622C203.033 174.228 204.506 174.027 206.229 174.03C208.153 173.681 211.283 173.511 215.605 173.505C219.917 173.515 224.041 174.218 227.959 175.621C231.864 177.029 234.309 179.838 235.261 184.052C235.919 186.955 235.63 190.159 234.408 193.667C232.033 198.408 229.406 204.921 226.543 213.214C223.669 221.517 220.894 230.203 218.196 239.288C215.513 248.374 213.081 256.738 210.93 264.372C208.768 272.017 207.354 277.496 206.663 280.835C208.514 278.814 211.653 274.254 216.091 267.142C220.515 260.034 225.582 251.588 231.277 241.802C236.972 232.016 242.73 222.134 248.527 212.179C254.323 202.216 259.581 193.64 264.291 186.432C264.054 185.383 264.809 182.092 266.576 176.558C268.357 171.035 270.579 165.002 273.281 158.451C275.959 151.922 278.382 147.021 280.525 143.77C284.305 143.955 288.526 144.479 293.19 145.359C297.852 146.238 302 147.423 305.648 148.916C309.297 150.414 311.386 152.343 311.925 154.717C312.165 155.774 312.031 157.087 311.527 158.667C305.43 173.678 299.669 187.661 294.256 200.601C288.847 213.554 284.366 224.284 280.829 232.796C277.295 241.316 275.327 246.627 274.94 248.728C276.672 246.186 278.632 243.419 280.834 240.436C284.223 235.082 289.402 228.72 296.366 221.347C304.836 211.78 314.816 201.515 326.292 190.543C337.768 179.577 350.236 169.488 363.68 160.276C365.919 158.687 367.695 157.683 369.042 157.242C371.45 156.452 372.206 157.273 371.318 159.682C370.418 162.097 368.84 164.951 366.566 168.235C364.294 171.527 361.825 174.318 359.172 176.603C346.323 188.444 334.382 200.559 323.378 212.931C312.374 225.303 302.638 238.249 294.186 251.768C287.817 261.773 282.288 272.286 277.59 283.295C272.884 294.322 267.297 305.276 260.848 316.15ZM279.269 243.066C279.331 243.333 280.087 242.874 281.544 241.687C283.002 240.507 284.07 239.52 284.754 238.729C289.432 232.673 295.56 225.786 303.168 218.061C310.776 210.336 318.251 203.008 325.607 196.07C332.952 189.148 338.328 184.272 341.725 181.464C343.679 179.969 346.27 177.714 349.464 174.688C352.659 171.666 353.648 170.632 352.433 171.591C348.646 173.966 343.555 177.825 337.148 183.176C330.728 188.53 323.895 194.588 316.652 201.341C309.398 208.104 302.649 214.765 296.366 221.347C293.421 224.853 290.654 228.243 288.078 231.485C285.504 234.733 283.097 237.719 280.834 240.436C280.41 241.143 279.997 241.847 279.583 242.543L279.269 243.066Z" fill="white"/>
<path d="M341.551 280.815C334.516 277.743 329.38 274.401 326.117 270.799C322.854 267.198 322.434 266.635 321.539 262.683C321.182 261.106 321.046 259.524 321.118 257.94C321.192 256.363 321.174 254.743 321.087 253.07C321.54 248.677 323.163 240.933 325.975 229.831C328.786 218.725 326.825 225.564 331.188 211.12C335.538 196.682 340.322 181.891 345.528 166.742C350.734 151.606 355.823 137.841 360.78 125.468C358.492 126.783 356.107 127.987 353.617 129.083C351.127 130.184 348.684 131.12 346.276 131.909C339.572 134.104 333.513 135.593 328.074 136.384C322.649 137.17 319.499 137.564 318.635 137.559C315.836 137.916 313.752 136.689 312.407 133.87C311.048 131.068 310.14 128.037 309.696 124.784C308.834 124.787 308.201 124.569 307.822 124.126C307.43 123.688 307.068 123.38 306.751 123.205C306.632 122.676 306.448 122.175 306.186 121.688C305.937 121.208 305.755 120.701 305.633 120.173C305.039 117.544 305.386 115.585 306.685 114.314C307.969 113.045 309.561 112.094 311.438 111.48C313.575 110.781 315.961 110.219 318.602 109.778C321.23 109.343 323.889 108.685 326.569 107.808C331.125 106.318 335.838 104.282 340.726 101.685C345.606 99.1021 348.274 96.8842 348.717 95.044C349.162 93.1956 349.784 92.1442 350.587 91.8837C351.119 91.7108 352.248 92.8979 353.978 95.4418C354.04 95.7096 354.164 95.9481 354.363 96.1623C354.553 96.3865 354.708 96.7601 354.825 97.2837C355.361 99.6579 354.857 102.515 353.314 105.843L370.597 100.187C373.841 92.9048 377.387 84.7439 381.235 75.6995C385.083 66.6602 399.471 32.9026 400.906 29.0407C399.594 28.3423 398.764 27.1926 398.405 25.6155C397.927 23.5097 398.059 21.2037 398.786 18.6979C399.514 16.1972 399.751 14.4254 399.511 13.3687C399.333 12.5798 398.931 11.7212 398.29 10.8014C397.652 9.88355 397.234 9.02025 397.054 8.23197C396.576 6.12619 397.542 4.67458 399.961 3.88299C400.493 3.71009 401.885 3.54 404.153 3.35902C407.875 3.2758 412.844 3.91276 419.046 5.27851C425.251 6.64622 430.818 8.63808 435.727 11.2766C440.647 13.9102 442.776 17.6024 442.125 22.3402C440.728 25.0673 438.273 29.8279 434.778 36.6234C431.287 43.4316 411.387 81.4648 408.142 88.7448C415.26 85.8537 422.601 83.0273 430.176 80.2633C437.755 77.5038 444.53 75.0048 450.489 72.7692C456.462 70.5333 460.381 69.1096 462.257 68.4933C467.084 66.9125 469.642 66.7871 469.94 68.0989C470.18 69.1556 469.345 70.563 467.446 72.3112C465.537 74.0693 463.436 75.6063 461.148 76.916C460.819 76.751 457.188 78.2119 450.274 81.3293C443.346 84.4446 436.495 87.5326 429.711 90.6007C426.561 91.9183 422.546 93.5822 417.677 95.5975C412.809 97.6154 408.135 99.5059 403.636 101.26L402.387 103.364C408.218 101.174 414.769 98.6752 422.059 95.8651C429.336 93.0606 435.116 90.9571 439.401 89.5541C435.022 91.8336 429.124 94.4014 421.718 97.247C414.313 100.095 407.244 103.195 400.518 106.524C396.47 114.07 392.129 123.207 387.501 133.906C382.877 144.619 378.101 155.945 373.184 167.874C368.27 179.818 363.615 191.38 359.239 202.575C354.877 213.764 354.396 212.732 350.933 221.501C347.444 230.284 346.828 228.24 344.926 232.54C348.383 229.995 385.633 205.043 397.131 191.657C408.632 178.277 418.731 166.626 427.412 156.709C432.949 150.651 438.352 144.292 443.598 137.619C448.846 130.953 453.854 124.147 458.622 117.212C459.033 116.511 459.371 116.401 459.618 116.886C459.868 117.371 459.793 117.965 459.381 118.658L447.147 137.091C447.644 138.063 448.011 139.001 448.22 139.925L448.889 142.884C449.425 145.258 449.598 147.609 449.402 149.934C449.221 152.264 448.325 154.388 446.745 156.32C442.847 160.713 437.034 167.708 429.279 177.312C421.527 186.923 361.881 247.991 354.983 258.169C348.07 268.347 343.591 275.897 341.547 280.81L341.551 280.815ZM341.096 242.276L357.699 224.116L342.918 237.012L341.096 242.276Z" fill="white"/>
<path d="M494.126 241.416C488.31 239.922 483.015 237.484 478.217 234.099C473.423 230.726 471.049 227.183 471.075 223.497C471.008 220.69 471.897 216.011 473.724 209.471C475.541 202.937 477.828 195.544 480.574 187.284C483.294 179.038 486.078 170.631 488.879 162.071C491.695 153.515 494.213 145.896 496.443 139.227C496.796 138.262 496.294 139.486 494.915 142.913C493.521 146.336 491.776 150.727 489.693 156.077C487.597 161.433 485.629 166.745 483.804 172.01C481.965 177.281 480.625 181.184 479.768 183.726C479.469 182.409 480.03 179.545 481.473 175.103C482.915 170.672 484.622 165.802 486.589 160.49C488.543 155.181 490.426 150.109 492.21 145.281C493.98 140.456 495.234 137.074 495.948 135.144C490.514 145.412 484.217 157.021 477.082 169.966C469.934 182.914 462.819 195.638 455.724 208.151C448.627 220.657 442.324 231.628 436.843 241.062C431.359 250.498 427.671 256.8 425.8 259.955C418.027 259.956 412.105 257.936 408.033 253.89C403.949 249.854 401.371 245.463 400.297 240.72C399.701 238.086 399.534 235.448 399.799 232.816C401.379 225.791 403.741 216.883 406.914 206.086C410.088 195.285 413.537 184.185 417.28 172.776C421.021 161.358 424.51 150.67 427.721 140.713C430.93 130.75 433.366 123.095 435.031 117.733C434.356 115.978 432.968 114.027 430.909 111.872C428.836 109.72 427.592 107.722 427.174 105.877C426.697 103.771 428.325 102.111 432.092 100.878L435.096 99.8936C436.312 99.4963 437.771 99.2987 439.494 99.3012C441.431 98.9477 444.561 98.7771 448.871 98.7767C453.196 98.7835 457.306 99.4898 461.224 100.893C465.143 102.296 467.574 105.109 468.527 109.324C469.184 112.226 468.895 115.431 467.685 118.937C465.299 123.683 462.682 130.191 459.806 138.486C456.944 146.784 454.156 155.476 451.472 164.557C448.776 173.649 446.357 182.007 444.193 189.647C442.045 197.289 440.617 202.771 439.939 206.104C441.777 204.088 444.929 199.524 449.353 192.414C453.791 185.301 458.845 176.86 464.553 167.071C470.248 157.285 475.993 147.409 481.804 137.448C487.599 127.486 492.857 118.91 497.554 111.706C497.317 110.657 498.086 107.364 499.85 101.83C501.617 96.31 503.853 90.2742 506.541 83.7291C509.233 77.1941 511.656 72.2958 513.797 69.0454C517.566 69.2329 521.788 69.76 526.449 70.6396C531.111 71.5192 535.259 72.7042 538.921 74.1944C542.556 75.698 544.659 77.6214 545.198 79.995C545.438 81.0517 545.303 82.3653 544.8 83.9453C538.702 98.9564 532.942 112.94 527.529 125.879C522.106 138.837 517.638 149.562 514.102 158.074C510.553 166.597 508.6 171.905 508.213 174.007C509.931 171.468 511.891 168.703 514.095 165.717C517.485 160.363 522.677 153.995 529.628 146.628C538.112 137.058 548.091 126.792 559.566 115.818C571.029 104.855 583.498 94.7681 596.955 85.5505C599.183 83.9674 600.969 82.9582 602.304 82.5222C604.726 81.73 605.481 82.5478 604.594 84.9594C603.693 87.3741 602.116 90.2282 599.831 93.5176C597.559 96.8098 595.09 99.6005 592.45 101.88C579.587 113.724 567.66 125.836 556.642 138.211C545.638 150.583 535.903 163.528 527.464 177.042C521.095 187.047 515.552 197.563 510.857 208.575C506.165 219.599 500.58 230.549 494.13 241.423L494.126 241.416ZM512.534 168.337C512.596 168.605 513.352 168.146 514.822 166.953C516.28 165.773 517.348 164.787 518.032 163.995C522.71 157.939 528.838 151.053 536.446 143.327C544.04 135.605 551.516 128.28 558.872 121.339C566.217 114.417 571.592 109.541 574.989 106.733C576.943 105.239 579.535 102.983 582.741 99.9514C585.936 96.9299 586.926 95.8961 585.697 96.858C581.923 99.2275 576.819 103.092 570.412 108.443C563.992 113.796 557.172 119.851 549.929 126.602C542.675 133.365 535.911 140.035 529.628 146.614C526.683 150.12 523.93 153.502 521.355 156.744C518.78 159.991 516.358 162.986 514.094 165.701C513.684 166.402 513.271 167.106 512.845 167.805L512.532 168.33L512.534 168.337Z" fill="white"/>
<path d="M572.195 222.632C567.519 223.602 563.328 222.212 559.601 218.474C555.88 214.751 553.545 210.771 552.591 206.552C551.818 203.133 552.537 197.096 554.75 188.451C556.962 179.805 560.027 169.82 563.941 158.491C567.844 147.173 572.047 135.893 576.566 124.654C581.071 113.419 585.127 103.39 588.747 94.563C592.355 85.7465 594.897 79.5433 596.39 75.9365C593.625 80.2389 591.13 84.4461 588.893 88.5736C586.657 92.7037 585.282 94.8481 584.75 95.021C584.478 95.1086 585.327 92.2208 587.316 86.3343C589.28 80.4557 593.364 69.5699 599.555 53.6824C602.235 52.8055 605.773 53.2059 610.182 54.873C614.593 56.5452 618.677 58.745 622.464 61.4634C626.25 64.1875 628.444 66.8675 629.039 69.4968C627.162 75.2041 623.899 82.7102 619.247 92.01C614.583 101.32 609.705 110.91 604.612 120.778C599.507 130.657 594.99 139.628 591.063 147.707C591.686 146.65 594.336 142.814 599.035 136.186C603.71 129.563 609.537 121.285 616.51 111.37C623.467 101.45 630.935 90.9497 638.93 79.8437C646.915 68.7401 654.548 58.2523 661.81 48.3769C669.071 38.5097 675.348 30.3658 680.668 23.9551C685.976 17.5499 689.431 14.087 691.037 13.5634C692.657 13.0343 695.34 13.7812 699.107 15.8029C702.859 17.8276 706.507 20.2441 710.023 23.0502C713.538 25.8645 715.567 28.4458 716.107 30.8194C716.168 31.0873 714.719 33.9674 711.787 39.4431C708.859 44.934 705.251 51.8423 700.952 60.1804C696.656 68.5236 692.479 77.1032 688.427 85.9212C684.391 94.7465 681.102 102.823 678.59 110.152C676.078 117.481 675.28 122.555 676.207 125.362C673.409 125.71 670.577 124.018 667.728 120.282C664.868 116.549 662.803 111.922 661.551 106.39C660.834 103.228 660.98 99.0853 661.973 93.9423C662.966 88.8125 664.26 83.7201 665.857 78.6671C667.44 73.6303 668.884 69.1936 670.186 65.3707C671.477 61.5503 672.086 59.5139 672.026 59.2512C670.838 61.6229 669.31 65.3765 667.457 70.5086C665.601 75.6412 663.861 80.6661 662.236 85.5859C660.611 90.5057 659.611 94.0124 659.226 96.121C659.311 92.6955 660.427 86.8142 662.57 78.4722C664.716 70.1353 668.048 61.402 672.614 52.2678C670.261 55.8743 666.237 61.9294 660.53 70.4412C654.837 78.955 648.391 88.918 641.186 100.326C633.983 111.741 626.528 123.585 618.812 135.87C611.083 148.161 603.79 160.096 596.915 171.682C590.042 183.267 584.386 193.54 579.933 202.489C575.484 211.451 572.914 218.155 572.191 222.638L572.195 222.632Z" fill="white"/>
<path d="M739.422 170.879C733.531 172.806 726.72 172.622 719.015 170.34C711.296 168.06 704.409 164.654 698.365 160.126C692.293 155.606 688.7 150.841 687.565 145.833C685.418 136.35 685.981 125.202 689.279 112.381C692.565 99.5705 697.63 86.3814 704.484 72.8168C711.343 59.2593 719.075 46.6813 727.671 35.0986C736.27 23.5153 744.972 14.3029 753.78 7.45755C756.222 5.53161 758.481 4.0811 760.567 3.10931C762.658 2.14455 764.233 1.48576 765.307 1.13505C768.518 0.0852968 772.762 1.02504 778.03 3.96939C783.298 6.91374 788.243 10.3263 792.858 14.1894C797.474 18.0524 800.346 21.2188 801.486 23.6698C802.44 27.8895 801.103 33.7675 797.501 41.3165C793.871 48.869 788.759 57.0551 782.123 65.8703C775.485 74.6938 768.149 83.2469 760.098 91.533C752.037 99.8373 744.071 106.901 736.186 112.729C728.291 118.573 721.239 122.365 715.029 124.108C712.461 133.157 711.759 140.183 712.891 145.179C713.489 147.821 714.67 149.907 716.462 151.439C718.244 152.976 721.13 152.955 725.084 151.379C731.039 147.166 738.214 140.711 746.603 132.026C754.995 123.34 763.96 113.686 773.5 103.068C783.026 92.4581 797.204 78.7019 804.772 71.4053C808.793 67.5455 811.865 65.2704 814.012 64.5665C815.889 63.9527 816.971 64.3016 817.267 65.6192C817.507 66.6759 816.756 68.7613 815.014 71.8729C813.273 74.9921 780.393 118.281 773.503 127.892C766.615 137.508 760.221 146.108 754.304 153.696C748.404 161.293 743.442 167.014 739.422 170.879ZM720.513 108.311C727.882 102.789 735.541 95.9008 743.448 87.6536C751.368 79.4009 758.669 70.9972 765.368 62.4416C772.062 53.8789 777.29 46.4415 781.03 40.126L782.602 37.4925C782.484 36.9639 781.074 38.417 778.4 41.8353L750.189 77.3839C749.977 77.7399 749.606 77.9987 749.074 78.1716C748.803 78.2593 748.872 77.8884 749.252 77.0548C749.634 76.2263 750.414 75.1836 751.581 73.9539C756.093 68.5196 760.655 62.5713 765.229 56.1171C769.818 49.6733 774.177 43.5036 778.31 37.6178C783.611 30.518 786.134 26.4308 785.897 25.3735C779.735 27.3903 772.497 32.8766 764.164 41.8226C755.833 50.7762 747.751 61.1997 739.947 73.0916C732.13 84.9864 725.649 96.7312 720.513 108.311Z" fill="white"/>
<path d="M493.543 675.095C490.879 676.035 487.512 675.981 483.486 674.922C479.447 673.874 475.804 672.386 472.555 670.467C469.306 668.549 467.483 666.779 467.075 665.17C466.669 663.568 467.004 662.567 468.072 662.191C468.601 662.006 469.513 661.901 470.813 661.882C472.111 661.855 473.493 661.883 474.968 661.947C472.49 659.028 470.504 655.79 469.023 652.215C468.89 651.684 469.597 648.225 471.172 641.825C472.747 635.425 474.75 627.565 477.169 618.236C479.601 608.914 482.02 599.589 484.451 590.26C486.867 580.936 488.921 572.985 490.59 566.407C492.248 559.839 493.062 556.41 492.993 556.139C493.046 555.239 491.845 557.637 489.374 563.33C486.894 569.028 484.275 575.576 481.51 582.973C478.747 590.377 476.596 596.831 475.098 602.323C476.713 593.867 478.572 584.89 480.678 575.381C482.759 565.888 485.853 554.358 489.968 540.776C494.073 527.212 500.051 510.133 507.887 489.544C512.028 489.834 516.639 490.328 521.745 491C526.855 491.685 531.343 492.799 535.227 494.341C539.099 495.896 541.408 498.144 542.155 501.091C542.426 502.166 542.335 503.515 541.877 505.136C535.808 521.3 530.315 536.53 525.385 550.825C520.444 565.13 516.57 577.012 513.741 586.48C510.924 595.946 509.215 601.81 508.62 604.055C510.217 602.329 512.046 600.369 514.099 598.181C516.153 595.998 518.409 593.448 520.869 590.53L520.277 591.621C519.683 592.704 519.142 594.064 518.685 595.69C518.229 597.317 518.328 597.713 518.989 596.897C521.975 592.63 527.487 585.721 535.511 576.161C543.538 566.614 551.893 556.649 560.579 546.278L560.959 542.636C552.736 553.724 545.676 562.497 539.77 568.961C536.393 572.781 533.155 576.337 530.06 579.618C526.98 582.898 524.237 586.131 521.86 589.309C524.373 585.505 527.52 581.326 531.303 576.774C535.088 572.226 539.786 566.762 545.436 560.388C547.221 558.301 549.584 555.567 552.503 552.198C555.421 548.829 558.401 545.15 561.454 541.149L560.959 542.636L569.709 530.785L561.454 541.149L564.681 524.674C562.681 525.965 561.78 524.68 561.964 520.813C562.135 516.957 563.64 512.267 566.447 506.745C569.256 501.229 573.222 497.127 578.345 494.436C580.144 493.512 583.21 493.886 587.549 495.562C591.901 497.242 595.844 499.354 599.392 501.896C602.94 504.438 604.078 506.662 602.823 508.569C598.393 515.1 595.022 522.712 592.726 531.408C590.43 540.103 588.788 548.79 587.791 557.462C586.792 566.139 586.2 574.089 586.012 581.308C585.812 588.543 585.748 594.038 585.832 597.802C595.908 583.729 604.719 570.69 612.259 558.675C619.814 546.662 626.52 534.221 632.395 521.338C638.273 508.459 635.778 515.463 640.847 498.775C640.51 497.436 639.942 495.816 639.174 493.893C638.392 491.975 637.672 489.681 636.992 486.997C636.244 484.05 635.652 480.609 635.24 476.664C634.817 472.729 635.095 468.684 636.079 464.542C637.048 459.235 638.58 455.264 640.67 452.621C642.764 449.983 645 448.245 647.407 447.395C651.397 445.985 655.35 446.417 659.26 448.687C663.172 450.955 665.434 453.292 666.043 455.701C667.675 460.975 668.129 468.184 667.395 477.348C666.675 486.512 665.73 495.681 664.578 504.846C663.423 514.012 662.59 521.615 662.081 527.631C661.826 530.06 661.301 531.415 660.503 531.695C659.435 532.072 657.975 530.91 656.125 528.202C654.278 525.501 653.06 523.524 652.449 522.274C648.309 534.545 651.284 525.174 645.479 537.735C639.661 550.301 633.72 562.04 627.637 572.95C621.541 583.868 615.855 593.181 610.558 600.887C611.323 608.501 609.737 616.288 605.809 624.249C601.881 632.211 596.585 637.366 589.919 639.724C584.59 641.608 579.288 640.991 574.004 637.903C568.718 634.807 565.435 630.707 564.145 625.617C563.263 622.134 563.101 618.903 563.653 615.932C564.205 612.965 564.282 610.671 563.875 609.067C562.925 605.312 562.067 600.218 561.301 593.765C560.537 587.318 560.129 580.016 560.094 571.849C559.96 571.318 559.902 570.822 559.942 570.369C559.971 569.927 559.951 569.57 559.882 569.298C553.455 579.455 547.302 588.93 541.414 597.729C535.514 606.536 530.644 613.656 526.807 619.101L509.011 645.099C509.944 645.354 511.076 645.834 512.414 646.521C513.754 647.216 514.601 648.237 514.94 649.574C515.346 651.176 514.2 653.85 511.526 657.568C508.84 661.294 505.766 664.932 502.318 668.487C498.861 672.046 495.936 674.247 493.543 675.095ZM562.858 543.276L563.556 542.596L563.74 539.899L562.858 543.276ZM589.834 598.141C594.928 591.961 600.788 583.826 607.366 573.762C613.959 563.699 619.466 554.231 623.893 545.365C632.747 527.633 640.735 508.75 647.842 488.716C645.994 492.875 643.49 498.436 640.318 505.392C637.147 512.356 633.928 519.406 630.663 526.548C627.398 533.691 624.502 539.745 621.991 544.724C614.784 559.831 607.845 571.625 601.153 580.124C594.446 588.625 590.572 593.647 589.518 595.187C588.586 596.101 588.185 597.121 588.326 598.234C588.457 599.357 588.968 599.319 589.834 598.141Z" fill="white"/>
<path d="M699.742 599.608C696.009 600.927 691.895 601.568 687.392 601.559C682.888 601.548 678.673 600.631 674.733 598.808C670.781 596.994 666.245 593.7 661.126 588.939C656.01 584.182 652.693 578.855 651.2 572.954C650.588 570.545 650.446 568.258 650.766 566.102C653.445 540.042 661.955 514.037 676.271 488.092C690.59 462.154 709.934 437.724 734.298 414.801C738.031 413.482 742.247 413.526 746.964 414.926C751.667 416.329 755.867 418.571 759.55 421.649L767.354 421.518C766.337 418.666 764.952 417.191 763.172 417.083C761.408 416.977 760.355 416.257 760.014 414.912C759.93 412.315 761.311 410.295 764.144 408.853C766.962 407.416 769.05 406.465 770.377 405.997C774.636 404.492 778.669 405.185 782.445 408.077C786.225 410.985 788.827 414.664 790.251 419.123C796.85 417.665 803.642 415.856 810.632 413.667C817.626 411.491 823.737 409.551 828.971 407.846C834.194 406.151 837.066 405.206 837.607 405.015L838.806 404.592C839.604 404.311 840.139 404.705 840.412 405.779C840.886 407.652 840.24 409.635 838.442 411.728C836.323 414.821 830.489 418.417 820.942 422.511C811.384 426.623 801.274 430.56 790.632 434.322C790.312 438.814 789.404 443.811 787.895 449.305C786.387 454.802 784.512 460.574 782.273 466.623C780.762 470.951 778.331 476.85 775.005 484.302C771.666 491.766 768.216 499.338 764.65 507.019C761.089 514.706 758.072 521.169 755.641 526.407C757.493 523.421 760.448 518.211 764.525 510.782C768.576 503.37 771.805 496.901 774.191 491.382C775.109 489.304 776.44 485.989 778.186 481.425C779.934 476.867 781.651 472.466 783.336 468.213C785.011 463.978 785.98 461.222 786.248 459.958C784.609 468.422 781.988 476.946 778.355 485.525C774.727 494.115 770.925 502.023 766.957 509.27C762.989 516.515 759.562 522.472 756.693 527.137C753.812 531.807 752.166 534.504 751.773 535.22C743.581 550.972 734.851 564.933 725.609 577.101C716.357 589.288 707.74 596.78 699.747 599.604L699.742 599.608ZM683.495 590.449C684.822 589.98 686.315 589.02 687.977 587.553C690.505 584.908 693.657 581.023 697.431 575.894C701.209 570.764 705.155 565.429 709.26 559.882C712.84 554.532 716.725 548.121 720.932 540.646C725.125 533.184 729.604 524.513 734.368 514.653C738.525 505.883 742.928 496.366 747.591 486.105C752.242 475.855 756.677 465.301 760.898 454.461L756.326 462.21C757.719 459.682 759.385 456.247 761.34 451.899C763.282 447.561 764.952 444.125 766.341 441.587C757.946 443.976 752.926 445.309 751.248 445.607C751.129 446.24 750.785 446.651 750.256 446.837C749.727 447.022 749.218 446.178 748.744 444.305L748.187 442.09C747.946 441.157 747.822 440.108 747.817 438.934C745.088 439.615 742.267 441.047 739.334 443.252C736.415 445.452 733.389 449.004 730.282 453.897C726.838 459.787 722.34 467.215 716.777 476.186C711.214 485.165 705.615 495.104 699.965 506.004C694.304 516.915 689.27 528.256 684.865 540.035C680.448 551.819 677.569 563.637 676.217 575.506C675.704 579.186 675.852 582.639 676.668 585.858C677.825 590.42 680.157 591.052 683.685 587.759C682.549 589.033 682.029 589.808 682.099 590.072C682.235 590.615 682.697 590.73 683.495 590.449ZM683.685 587.759C688.065 583.295 694.674 574.75 703.52 562.129C712.368 549.515 720.917 534.889 729.177 518.242C731.889 512.896 734.978 506.774 738.454 499.846C741.918 492.929 745.3 486.254 748.61 479.832C751.916 473.404 754.428 468.433 756.141 464.905C751.916 474.571 747.985 483.339 744.311 491.203C740.642 499.072 737.091 506.535 733.663 513.584C725.537 529.6 716.898 544.479 707.763 558.225C698.612 571.971 690.59 581.814 683.685 587.759Z" fill="white"/>
<path d="M795.069 566.534C790.402 567.598 786.137 566.259 782.299 562.508C778.447 558.762 775.968 554.74 774.88 550.45C773.998 546.967 774.536 540.79 776.493 531.923C778.452 523.056 781.222 512.802 784.806 501.162C788.392 489.534 792.269 477.941 796.449 466.384C800.631 454.835 804.399 444.526 807.764 435.451C811.13 426.376 813.493 419.991 814.882 416.284C812.236 420.724 809.847 425.074 807.74 429.326C805.622 433.576 804.292 435.799 803.764 435.984C803.494 436.08 804.27 433.111 806.073 427.064C807.882 421.028 811.648 409.839 817.381 393.506C820.031 392.569 823.609 392.907 828.09 394.535C832.559 396.173 836.741 398.346 840.625 401.057C844.499 403.787 846.781 406.48 847.461 409.16C845.75 415.017 842.701 422.742 838.314 432.322C833.929 441.907 829.322 451.778 824.499 461.956C819.675 472.13 815.412 481.371 811.727 489.684C812.318 488.594 814.863 484.631 819.368 477.784C823.872 470.933 829.46 462.386 836.159 452.133C842.846 441.891 850.033 431.025 857.726 419.548C865.404 408.068 872.736 397.227 879.728 387.017C886.718 376.811 892.788 368.39 897.922 361.757C903.056 355.124 906.432 351.518 908.027 350.954C909.623 350.39 912.345 351.112 916.189 353.109C920.034 355.111 923.768 357.512 927.385 360.326C930.988 363.143 933.106 365.751 933.717 368.16C933.786 368.431 932.434 371.398 929.659 377.046C926.886 382.702 923.462 389.825 919.397 398.41C915.335 407.003 911.421 415.839 907.62 424.917C903.822 433.998 900.779 442.3 898.48 449.83C896.182 457.359 895.535 462.551 896.552 465.403C893.751 465.808 890.858 464.129 887.871 460.364C884.885 456.601 882.683 451.905 881.258 446.276C880.443 443.057 880.45 438.827 881.301 433.556C882.142 428.296 883.273 423.078 884.72 417.891C886.169 412.712 887.484 408.155 888.662 404.233C889.842 400.316 890.404 398.22 890.336 397.949C889.216 400.394 887.799 404.255 886.091 409.527C884.372 414.81 882.78 419.972 881.309 425.016C879.828 430.071 878.933 433.673 878.608 435.822C878.592 432.328 879.517 426.303 881.415 417.746C883.313 409.189 886.406 400.209 890.7 390.815C888.445 394.534 884.589 400.784 879.132 409.574C873.666 418.374 867.491 428.653 860.619 440.426C853.733 452.209 846.598 464.437 839.226 477.122C831.84 489.805 824.892 502.118 818.344 514.07C811.795 526.017 806.418 536.613 802.232 545.826C798.035 555.05 795.645 561.951 795.069 566.534Z" fill="white"/>
<path d="M1023.45 520.441C1017.05 522.701 1010.07 520.927 1002.52 515.133C995.676 509.953 988.979 502.393 982.393 492.454C975.807 482.517 971.066 471.78 968.146 460.252C967.604 458.112 967.139 456.009 966.757 453.95C966.378 451.898 966.092 449.882 965.886 447.911C965.461 442.802 967.194 438.463 971.074 434.907C974.965 431.34 977.942 429.634 980.009 429.777C980.537 429.591 981.242 429.494 982.106 429.474C982.972 429.463 984.001 429.534 985.204 429.694C990.584 424.582 996.512 416.499 1003.01 405.445C1009.49 394.388 1014.3 382.469 1017.44 369.675C1019.34 362.293 1020.03 357.528 1019.48 355.376C1018.87 352.967 1017.16 353.424 1014.39 356.736C1011.6 360.066 1008.69 364.083 1005.68 368.798C1002.66 373.512 1000.33 377.184 998.682 379.81C986.166 400.3 973.881 419.386 961.831 437.073C949.771 454.775 940.246 472.737 933.26 490.977C930.821 497.393 928.767 503.007 927.088 507.837C925.408 512.664 924.748 516.914 925.102 520.583C917.55 518.289 912.203 515.503 909.048 512.237C905.906 508.968 903.854 505.465 902.899 501.704C902.358 499.563 902.051 497.48 901.975 495.456C901.9 493.449 901.888 491.404 901.938 489.338C902.106 483.146 904.163 473.219 908.104 459.562C912.046 445.904 917.099 430.1 923.289 412.141C929.481 394.19 936.203 375.458 943.444 355.96C950.689 336.466 965.121 305.643 970.383 292.104C975.658 278.559 979.321 268.946 981.356 263.256C980.235 264.527 979.383 265.486 978.827 266.116C978.259 266.757 977.356 268.388 976.142 271.012C974.912 273.633 972.755 278.56 969.665 285.786C965.172 296.724 962.67 302.277 962.128 302.468C961.871 302.557 962.297 300.807 963.414 297.195C964.521 293.593 965.979 289.062 967.793 283.601C969.607 278.141 971.459 272.888 973.374 267.831C975.288 262.769 976.806 259.02 977.928 256.582C979.116 254.409 980.11 253.184 980.921 252.898C981.45 252.712 982.233 252.648 983.26 252.725C984.301 252.797 985.809 252.773 987.812 252.649C990.087 252.437 993.559 253.245 998.236 255.098C1002.91 256.951 1007.15 259.326 1010.92 262.228C1014.7 265.128 1016.43 268.242 1016.12 271.558C1013.73 275.908 1010.1 283.324 1005.22 293.814C1000.33 304.299 964.867 369.49 957.845 385.261C950.81 401.038 944.343 415.587 938.427 428.919C932.524 442.253 927.791 453.345 924.228 462.191C920.668 471.046 918.691 476.413 918.3 478.304C920.624 476.026 924.362 470.463 929.527 461.631C934.692 452.799 940.889 442.066 948.135 429.434C955.392 416.792 963.189 403.523 971.568 389.61C979.934 375.703 988.547 362.444 997.393 349.822C1006.24 337.209 1014.94 326.613 1023.51 318.031C1027.24 316.712 1031.84 316.839 1037.32 318.411C1042.79 319.983 1046.33 322.23 1047.95 325.166C1053.02 325.716 1056.17 328.392 1057.39 333.221C1058.62 338.042 1057.87 344.004 1055.18 351.088C1052.48 358.177 1049.6 364.302 1046.56 369.466C1045.17 371.999 1043.68 374.422 1042.09 376.738C1040.5 379.05 1038.84 381.393 1037.12 383.753C1040.49 377.601 1043.52 370.98 1046.23 363.883C1048.93 356.799 1051.4 349.072 1053.62 340.689C1053.82 339.16 1053.62 337.551 1053.05 335.851C1052.47 334.158 1051.96 334.703 1051.51 337.491C1049.69 348.645 1046.48 359.42 1041.86 369.814C1037.23 380.209 1032 389.944 1026.18 399.005C1027.98 396.912 1029.78 394.599 1031.6 392.057C1033.42 389.514 1035.16 386.927 1036.82 384.291C1032.65 393.072 1028.07 400.75 1023.07 407.334C1018.06 413.925 1013.23 419.502 1008.59 424.056C1008.12 424.518 1007.66 424.976 1007.2 425.427C1006.73 425.882 1006.36 426.156 1006.09 426.251L1010.38 420.799C1015.88 413.893 1021.15 406.634 1026.18 399.005C1019.55 407.198 1013.44 414.026 1007.87 419.492C1002.29 424.971 997.81 429.036 994.42 431.698C997.83 432.536 999.571 434.258 999.641 436.858C999.861 438.829 1000.66 443.146 1002.05 449.804C1003.46 456.464 1005.07 463.416 1006.9 470.653L1009.81 482.112C1010.72 485.728 1011.7 488.966 1012.7 491.821C1016.03 502.614 1020.48 507.028 1026.07 505.054C1028.73 504.114 1032.12 500.867 1036.24 495.33C1037.49 493.422 1038.65 492.284 1039.72 491.907C1040.25 491.721 1040.62 492.03 1040.82 492.837C1041.91 497.122 1040.62 502.321 1036.94 508.441C1033.27 514.556 1028.78 518.557 1023.45 520.441Z" fill="white"/>
<path d="M168.113 506.287C166.251 506.946 164.197 507.273 161.949 507.29C159.701 507.306 157.602 506.875 155.644 505.999C153.677 505.131 151.434 503.54 148.894 501.24C146.353 498.939 144.721 496.353 143.993 493.484C143.697 492.309 143.625 491.2 143.796 490.138C145.213 477.415 149.521 464.694 156.737 451.98C163.953 439.267 173.673 427.264 185.891 415.975C187.754 415.316 189.861 415.319 192.197 415.986C194.544 416.652 196.628 417.728 198.455 419.216L202.345 419.12C201.845 417.734 201.159 417.017 200.284 416.966C199.399 416.928 198.881 416.579 198.713 415.922C198.676 414.656 199.364 413.67 200.782 412.952C202.2 412.238 203.238 411.764 203.905 411.527C206.029 410.778 208.038 411.104 209.917 412.497C211.787 413.901 213.081 415.682 213.77 417.854C217.066 417.118 220.454 416.205 223.952 415.107C227.444 414.018 230.5 413.045 233.105 412.192C235.722 411.344 237.157 410.868 237.426 410.773L238.024 410.562C238.419 410.421 238.691 410.614 238.821 411.132C239.051 412.047 238.71 413.024 237.814 414.046C236.745 415.563 233.831 417.341 229.055 419.379C224.281 421.428 219.233 423.388 213.911 425.267C213.742 427.458 213.275 429.898 212.505 432.59C211.735 435.281 210.787 438.097 209.654 441.056C208.887 443.18 207.662 446.063 205.978 449.716C204.293 453.369 202.542 457.08 200.747 460.84C198.945 464.604 197.424 467.772 196.189 470.339C197.122 468.873 198.621 466.317 200.667 462.68C202.714 459.048 204.34 455.878 205.548 453.17C206.007 452.156 206.687 450.528 207.573 448.296C208.45 446.065 209.313 443.916 210.176 441.836C211.016 439.758 211.517 438.411 211.646 437.792C210.813 441.929 209.478 446.097 207.641 450.299C205.802 454.505 203.891 458.378 201.887 461.928C199.895 465.479 198.17 468.397 196.721 470.688C195.273 472.979 194.44 474.3 194.244 474.653C190.107 482.373 185.719 489.221 181.068 495.199C176.429 501.177 172.102 504.872 168.115 506.281L168.113 506.287ZM160.043 501.885C160.7 501.653 161.452 501.176 162.289 500.45C163.55 499.155 165.127 497.246 167.035 494.722C168.932 492.204 170.909 489.588 172.976 486.864C174.774 484.239 176.732 481.094 178.844 477.43C180.968 473.77 183.226 469.52 185.621 464.695C187.72 460.399 189.95 455.738 192.305 450.709C194.651 445.686 196.9 440.522 199.036 435.212L196.727 439.015C197.432 437.775 198.269 436.091 199.257 433.963C200.245 431.84 201.08 430.157 201.786 428.911C197.598 430.108 195.086 430.783 194.249 430.933C194.181 431.242 194.018 431.438 193.749 431.533C193.479 431.628 193.237 431.22 193.007 430.306L192.737 429.231C192.618 428.772 192.562 428.26 192.557 427.696C191.201 428.035 189.782 428.749 188.32 429.833C186.85 430.919 185.334 432.668 183.774 435.06C182.035 437.954 179.77 441.598 176.971 445.996C174.172 450.394 171.346 455.275 168.501 460.611C165.647 465.958 163.109 471.51 160.868 477.279C158.637 483.046 157.164 488.822 156.454 494.619C156.183 496.417 156.252 498.102 156.649 499.668C157.211 501.89 158.373 502.187 160.139 500.566C159.573 501.193 159.31 501.571 159.344 501.703C159.409 501.964 159.636 502.023 160.042 501.88L160.043 501.885ZM160.143 500.571C162.334 498.377 165.657 494.18 170.105 487.986C174.555 481.797 178.862 474.626 183.033 466.465C184.4 463.846 185.955 460.847 187.706 457.458C189.456 454.064 191.163 450.799 192.837 447.648C194.5 444.498 195.768 442.063 196.634 440.333C194.499 445.071 192.505 449.366 190.661 453.216C188.806 457.07 187.02 460.726 185.286 464.181C181.181 472.028 176.832 479.322 172.229 486.066C167.634 492.809 163.599 497.64 160.143 500.571Z" fill="white"/>
<path d="M218.684 549.624C212.957 551.647 207.867 551.456 203.417 549.046C198.967 546.64 196.124 543.023 194.9 538.192C193.579 532.975 193.79 526.504 195.526 518.779C197.272 511.052 199.884 502.768 203.371 493.932C206.855 485.097 210.669 476.391 214.799 467.824C218.939 459.252 222.833 451.443 226.484 444.394C230.129 437.35 232.868 431.722 234.708 427.517C233.475 428.381 231.801 429.502 229.692 430.888C227.582 432.275 225.55 433.564 223.599 434.748C221.649 435.937 220.344 436.642 219.687 436.874C218.751 437.206 217.906 437.151 217.141 436.71C216.377 436.27 215.76 435.703 215.291 435.017C214.232 434.824 213.669 434.599 213.603 434.335C213.336 433.862 213.124 433.436 212.957 433.073C212.789 432.705 212.671 432.396 212.603 432.129C212.075 430.04 212.948 428.635 215.234 427.893C217.511 427.162 219.731 426.201 221.9 425.006C224.062 423.814 226.222 422.342 228.385 420.578C230.55 418.823 231.667 417.5 231.729 416.625C232.028 415.527 232.252 414.95 232.385 414.902C232.78 414.761 233.393 415.187 234.222 416.173C234.592 416.466 234.894 417.076 235.122 417.985C235.386 419.031 235.365 420.106 235.066 421.204L238.713 419.276C241.983 411.584 245.434 403.612 249.065 395.358C252.708 387.107 256.167 379.166 259.452 371.537C262.737 363.906 265.693 357.141 268.332 351.23C270.969 345.32 272.888 341.019 274.087 338.321C274.021 338.059 273.852 337.975 273.582 338.071C273.051 338.259 272.202 339.482 271.038 341.739C268.235 347.287 265.419 352.898 262.587 358.588C259.749 364.284 257.348 368.972 255.377 372.654C253.416 376.329 252.414 378.107 252.38 377.975C252.349 377.848 252.951 376.247 254.203 373.174C255.457 370.105 257.058 366.376 258.987 361.996C260.919 357.615 262.888 353.224 264.887 348.821C266.886 344.42 268.591 340.687 269.996 337.632C271.391 334.582 272.165 333.027 272.291 332.984C272.664 332.713 273.434 332.76 274.61 333.123C275.797 333.487 276.683 333.707 277.28 333.78C278.577 333.75 280.431 334.338 282.843 335.55C285.242 336.759 287.427 338.191 289.373 339.851C291.311 341.513 292.184 343.089 291.982 344.583C290.515 346.804 288.572 350.02 286.162 354.209C283.743 358.407 281.039 363.055 278.061 368.164C275.074 373.268 272.15 378.462 269.287 383.738C266.416 389.018 263.75 393.945 261.278 398.511C258.816 403.08 256.93 406.801 255.628 409.676C258.128 408.086 261.025 406.351 264.316 404.476C267.607 402.601 270.94 400.717 274.299 398.819C277.657 396.921 280.648 395.26 283.262 393.836C285.87 392.42 287.632 391.477 288.524 391.016C289.023 390.7 289.673 390.397 290.474 390.116C291.673 389.693 292.336 389.741 292.469 390.261C292.602 390.787 292.277 391.542 291.515 392.519C290.754 393.503 289.799 394.337 288.666 395.022C288.541 395.067 287.437 395.74 285.378 397.035C283.308 398.338 280.934 399.853 278.259 401.578C275.582 403.308 273.197 404.893 271.101 406.346C269.327 407.401 267.005 408.789 264.111 410.523C261.215 412.258 258.63 413.813 256.367 415.178C254.105 416.547 252.988 417.295 253.021 417.424C254.219 417.001 256.248 415.999 259.109 414.422C261.972 412.842 264.99 411.138 268.148 409.31C271.303 407.483 273.921 406.062 275.991 405.049C274.282 406.365 271.947 407.861 268.978 409.55C265.998 411.243 262.965 413.025 259.886 414.898C256.813 416.764 254.272 418.62 252.278 420.466C251.274 422.239 250.145 424.381 248.897 426.881C247.647 429.387 246.188 432.213 244.521 435.362C244.916 435.221 245.272 435.169 245.566 435.205C249.364 435.287 253.134 435.59 256.896 436.108C260.649 436.634 263.861 437.594 266.541 438.995C269.211 440.392 270.8 442.642 271.291 445.736C272.381 452.319 271.906 460.448 269.866 470.125C271.037 466.729 271.955 463.344 272.621 459.984C273.294 456.62 273.684 453.424 273.781 450.402C274.413 456.297 273.65 462.748 271.512 469.761C269.375 476.769 266.74 483.814 263.61 490.895C265.141 487.221 266.405 483.65 267.414 480.165C268.415 476.68 269.23 473.336 269.866 470.125C267.694 477.006 265.227 483.287 262.465 488.954C259.694 494.628 257.823 498.409 256.854 500.319C255.086 503.642 253.124 507.184 250.958 510.935C248.795 514.683 246.676 518.204 244.607 521.496C242.538 524.787 240.891 527.426 239.663 529.429C238.423 531.427 237.923 532.315 238.16 532.091C240.017 530.292 242.295 527.358 244.957 523.292C247.617 519.22 250.166 515.12 252.603 510.994C254.002 508.503 255.514 505.874 257.127 503.103C258.738 500.325 260.284 497.542 261.756 494.75C260.249 497.98 258.761 501.246 257.271 504.542C255.794 507.84 254.101 511.171 252.198 514.547C245.365 526.486 239.067 534.969 233.309 539.99C227.551 545.007 222.674 548.226 218.687 549.634L218.684 549.624ZM211.497 547.046C215.089 545.775 218.806 542.829 222.639 538.201C226.466 533.578 230.141 527.905 233.66 521.193C237.176 514.47 240.44 507.349 243.467 499.811C246.482 492.276 249.07 484.893 251.226 477.662C253.383 470.436 254.88 463.932 255.742 458.153C256.594 452.379 256.664 448.052 255.936 445.181C255.241 442.44 254.058 440.798 252.401 440.243C250.738 439.695 249.108 439.421 247.508 439.413C246.775 439.388 246.026 439.124 245.244 438.614C244.463 438.11 243.939 437.62 243.67 437.142C240.601 443.343 237.229 450.335 233.547 458.099C229.858 465.878 226.365 473.685 223.062 481.531C219.76 489.38 216.928 496.638 214.555 503.306C214.188 504.147 213.443 506.221 212.323 509.531C211.205 512.84 210 516.677 208.715 521.04C207.433 525.405 206.439 529.665 205.757 533.817C205.073 537.971 205.041 541.283 205.668 543.764C205.996 545.067 206.684 546.073 207.734 546.768C208.783 547.462 210.039 547.554 211.495 547.038L211.497 547.046ZM261.753 494.738L263.608 490.885L263.75 490.619C262.712 492.833 262.048 494.203 261.753 494.738Z" fill="white"/>
<path d="M347.311 534.354C338.754 531.515 331.367 528.626 325.124 525.688C318.881 522.749 315.1 518.983 313.75 514.393C313.397 513.186 313.233 512.175 313.269 511.348C313.25 501.939 314.826 490.151 317.979 475.993C321.123 461.84 325.244 446.297 330.34 429.362C335.426 412.432 376.461 289.599 376.713 289.502C379.397 289.256 383.791 290.158 389.916 292.199C396.017 294.25 400.55 296.988 403.486 300.41C404.119 300.708 404.511 301.087 404.653 301.573C405.741 304.373 408.253 306.353 412.187 307.506C416.097 308.667 418.489 310.689 419.34 313.588C421.748 321.794 421.141 331.924 417.513 343.978C413.886 356.037 398.921 380.939 389.607 395.213C380.296 409.499 381.179 404.471 371.812 417.158C362.444 429.846 354.328 440.9 347.441 450.323C342.998 463.365 341.275 474.141 342.251 482.641C343.227 491.142 344.415 497.271 345.798 501.034C355.558 488.327 364.441 474.892 372.403 460.731C374.489 457.495 377.599 452.843 381.745 446.778C385.892 440.713 390.234 434.64 394.796 428.542C399.35 422.459 402.857 417.984 405.324 415.132C407.624 412.618 409.431 410.563 410.758 408.964C412.076 407.376 411.954 407.688 410.41 409.914C405.819 416.824 399.613 425.719 391.78 436.592C403.181 421.897 415.29 409.618 428.097 399.755C430.538 397.725 432.495 396.414 433.976 395.832C436.449 394.863 436.689 396.187 434.722 399.78C432.744 403.384 430.293 407.239 427.368 411.343C413.856 430.103 400.02 449.653 385.88 469.994C371.729 490.336 358.877 511.798 347.306 534.358L347.311 534.354ZM353.158 502.189C355.102 498.47 357.633 493.974 360.788 488.705C363.918 483.441 367.43 477.083 371.306 469.641C373.072 466.265 375.839 461.408 379.642 455.074C383.431 448.745 387.477 442.581 391.78 436.592C383.875 447.226 377.071 456.888 371.354 465.584C365.65 474.282 360.437 482.378 355.748 489.865L352.36 498.059C351.375 500.331 351.145 501.904 351.68 502.769C352.202 503.644 352.702 503.446 353.158 502.189ZM356.433 424.593C363.839 414.162 389.553 371.018 394.826 354.684C400.087 338.356 402.504 324.761 402.068 313.888C399.044 320.465 394.976 329.386 389.885 340.667C384.779 351.953 366.264 400.824 360.771 414.011C360.241 415.024 359.613 416.422 358.89 418.18C358.169 419.946 357.347 422.082 356.433 424.593Z" fill="white"/>
<path d="M813.486 351.757C805.169 348.998 797.989 346.19 791.921 343.334C785.852 340.479 782.176 336.816 780.868 332.356C780.523 331.182 780.364 330.202 780.4 329.397C780.383 320.252 781.911 308.793 784.979 295.033C788.036 281.277 792.04 266.168 796.995 249.711C801.938 233.255 841.823 113.867 842.067 113.772C844.677 113.533 848.945 114.409 854.899 116.393C860.829 118.387 865.235 121.048 868.088 124.373C868.705 124.664 869.085 125.032 869.221 125.503C870.278 128.224 872.721 130.149 876.545 131.27C880.345 132.398 882.67 134.362 883.495 137.18C885.836 145.158 885.245 155.003 881.72 166.717C878.198 178.437 863.65 202.642 854.598 216.514C845.549 230.4 846.404 225.514 837.301 237.845C828.197 250.179 820.31 260.921 813.612 270.079C809.295 282.755 807.618 293.229 808.569 301.491C809.518 309.753 810.67 315.711 812.018 319.367C821.505 307.018 830.136 293.958 837.876 280.196C839.903 277.05 842.927 272.528 846.956 266.633C850.985 260.737 855.208 254.835 859.642 248.909C864.068 242.998 867.478 238.648 869.872 235.876C872.105 233.432 873.864 231.436 875.155 229.882C876.437 228.336 876.32 228.642 874.818 230.806C870.356 237.522 864.325 246.168 856.708 256.735C867.789 242.451 879.56 230.515 892.006 220.93C894.378 218.958 896.283 217.682 897.722 217.117C900.124 216.176 900.36 217.461 898.446 220.955C896.524 224.459 894.141 228.202 891.298 232.193C878.165 250.427 864.714 269.429 850.974 289.199C837.221 308.972 824.731 329.832 813.486 351.757ZM819.171 320.494C821.059 316.877 823.52 312.509 826.584 307.388C829.627 302.271 833.041 296.092 836.807 288.859C838.523 285.576 841.215 280.855 844.909 274.7C848.592 268.549 852.527 262.556 856.708 256.735C849.025 267.07 842.408 276.462 836.852 284.914C831.307 293.37 826.24 301.238 821.684 308.516L818.39 316.48C817.435 318.687 817.21 320.219 817.729 321.057C818.236 321.907 818.728 321.716 819.171 320.494ZM822.353 245.075C829.551 234.935 854.544 193.002 859.668 177.126C864.782 161.255 867.13 148.041 866.709 137.473C863.769 143.864 859.817 152.537 854.869 163.501C849.907 174.47 831.91 221.972 826.571 234.789C826.058 235.774 825.446 237.131 824.746 238.842C824.044 240.558 823.242 242.636 822.353 245.075Z" fill="white"/>
<path d="M456.337 483.464C452.639 484.913 448.541 485.719 444.035 485.909C439.529 486.099 435.284 485.395 431.276 483.8C427.284 482.206 422.649 479.204 417.392 474.801C412.119 470.396 408.666 465.366 407.003 459.692C406.32 457.371 406.113 455.162 406.372 453.04C408.31 427.58 416.068 401.914 429.656 376.052C443.257 350.188 461.9 325.568 485.639 302.193C489.337 300.745 493.557 300.598 498.304 301.759C503.062 302.907 507.317 304.907 511.102 307.733L518.898 307.269C517.812 304.536 516.37 303.159 514.599 303.129C512.832 303.114 511.755 302.451 511.379 301.164C511.22 298.637 512.531 296.618 515.326 295.093C518.119 293.568 520.167 292.551 521.492 292.032C525.711 290.378 529.754 290.879 533.628 293.525C537.492 296.176 540.2 299.64 541.753 303.919C548.301 302.215 555.056 300.143 561.991 297.712C568.927 295.286 574.987 293.128 580.161 291.239C585.351 289.359 588.199 288.307 588.733 288.096L589.917 287.63C590.709 287.321 591.257 287.688 591.559 288.716C592.089 290.521 591.483 292.479 589.759 294.591C587.725 297.685 581.993 301.443 572.544 305.859C563.108 310.269 553.107 314.549 542.55 318.683C542.37 323.063 541.592 327.962 540.254 333.374C538.902 338.79 537.178 344.491 535.122 350.467C533.721 354.75 531.47 360.588 528.353 367.985C525.223 375.388 521.99 382.909 518.64 390.537C515.295 398.171 512.462 404.592 510.166 409.8C511.944 406.806 514.755 401.611 518.608 394.209C522.464 386.814 525.509 380.38 527.727 374.91C528.6 372.846 529.838 369.556 531.455 365.045C533.073 360.539 534.654 356.185 536.22 351.977C537.787 347.776 538.681 345.057 538.901 343.819C537.513 352.117 535.132 360.523 531.745 369.027C528.359 377.536 524.783 385.407 521.016 392.622C517.252 399.85 513.993 405.792 511.254 410.452C508.504 415.124 506.936 417.821 506.564 418.537C498.816 434.218 490.477 448.187 481.58 460.431C472.667 472.686 464.262 480.36 456.344 483.46L456.337 483.464ZM439.821 475.282C441.133 474.768 442.601 473.762 444.222 472.261C446.677 469.578 449.706 465.666 453.35 460.503C456.98 455.346 460.781 449.986 464.73 444.405C468.158 439.043 471.864 432.635 475.858 425.179C479.84 417.733 484.074 409.106 488.559 399.304C492.47 390.596 496.605 381.148 500.974 370.953C505.335 360.776 509.473 350.321 513.387 339.592L509.034 347.329C510.354 344.805 511.923 341.385 513.743 337.08C515.577 332.773 517.148 329.361 518.467 326.83C510.132 329.519 505.134 331.045 503.478 331.403C503.363 332.03 503.043 332.433 502.519 332.639C501.985 332.847 501.465 332.051 500.935 330.246L500.309 328.118C500.046 327.222 499.889 326.206 499.856 325.068C497.143 325.845 494.35 327.37 491.489 329.637C488.631 331.909 485.704 335.497 482.733 340.39C479.456 346.274 475.17 353.699 469.858 362.672C464.545 371.645 459.214 381.57 453.871 392.421C448.53 403.279 443.817 414.529 439.732 426.186C435.66 437.838 433.119 449.461 432.103 461.062C431.684 464.674 431.942 468.023 432.849 471.11C434.137 475.499 436.49 476.006 439.926 472.65C438.827 473.94 438.318 474.723 438.393 474.978C438.544 475.494 439.02 475.595 439.821 475.282ZM439.926 472.65C444.182 468.116 450.558 459.514 459.05 446.846C467.531 434.196 475.678 419.58 483.47 403.021C486.033 397.707 488.947 391.609 492.214 384.728C495.495 377.842 498.692 371.204 501.817 364.809C504.941 358.414 507.314 353.465 508.929 349.961C504.978 359.552 501.28 368.254 497.842 376.062C494.394 383.875 491.055 391.291 487.824 398.303C480.134 414.238 471.931 429.091 463.169 442.866C454.417 456.637 446.667 466.561 439.926 472.65Z" fill="white"/>
<path d="M594.984 428.728C589.183 430.999 582.332 431.234 574.456 429.44C566.58 427.646 559.457 424.687 553.104 420.571C546.736 416.457 542.842 411.952 541.403 407.052C539.133 399.321 538.812 390.18 540.42 379.638C542.03 369.095 544.948 357.972 549.16 346.267C553.373 334.566 558.542 323.13 564.687 311.957C570.821 300.795 577.313 290.855 584.164 282.138C583.869 279.096 585.26 275.316 588.342 270.806C591.437 266.291 595.743 262.951 601.29 260.78C604.452 259.543 607.639 258.87 610.845 258.758C614.006 257.521 618.326 258.196 623.795 260.795C629.264 263.394 634.43 266.478 639.296 270.028C644.161 273.577 647.235 276.545 648.524 278.905C649.659 282.77 648.732 287.658 645.763 293.562C642.791 299.467 639.319 304.922 635.341 309.923C631.367 314.929 628.329 317.847 626.226 318.67C625.168 319.085 624.518 318.903 624.291 318.13C623.839 316.586 624.727 313.079 626.945 307.609C627.882 305.813 628.858 303.134 629.884 299.565C630.889 296.015 631.779 292.508 632.525 289.051C633.275 285.598 633.422 283.098 632.968 281.547C628.035 283.771 622.278 288.469 615.712 295.636C609.134 302.814 602.678 311.374 596.334 321.329C589.991 331.288 584.253 341.573 579.141 352.195C574.014 362.817 570.261 372.837 567.877 382.245C565.492 391.653 565.134 399.192 566.795 404.858C567.553 407.442 568.877 409.435 570.758 410.849C572.65 412.261 575.536 412.065 579.412 410.263C582.998 407.422 587.072 403.527 591.646 398.572C596.221 393.622 601.012 388.157 606.031 382.165L600.158 392.224C599.593 393.306 598.613 395.486 597.217 398.762C595.82 402.043 595.582 403.213 596.486 402.275C600.478 395.83 605.102 388.774 610.358 381.114C615.601 373.459 621.133 365.475 626.938 357.164C623.463 361.405 619.954 365.722 616.402 370.127C612.837 374.542 609.378 378.557 606.031 382.165L623.142 357.788C631.431 345.929 639.356 335.354 646.921 326.07C654.5 316.785 661.973 308.687 669.352 301.77C663.257 309.043 656.769 317.256 649.893 326.412C643.014 335.569 636.104 344.812 629.137 354.15C637.343 344.043 645.536 334.088 653.687 324.282C661.839 314.481 669.134 306.022 675.572 298.898C679.379 294.825 682.329 292.378 684.445 291.549C686.295 290.826 687.413 291.103 687.79 292.39C688.093 293.422 687.45 295.544 685.898 298.732C684.335 301.934 681.649 305.566 677.846 309.647C673.135 314.658 667.899 321.372 662.143 329.803C656.376 338.239 650.254 347.461 643.783 357.464C637.311 367.475 630.991 377.272 624.836 386.859C618.672 396.464 613.02 405.001 607.864 412.469C605.383 416.031 603.063 419.167 600.916 421.873C598.766 424.574 596.795 426.859 594.983 428.723L594.984 428.728Z" fill="white"/>
<path d="M680.441 399.566C678.859 400.186 675.901 399.401 671.59 397.21C667.269 395.029 662.833 392.457 658.295 389.493C653.744 386.534 650.383 384.332 648.197 382.884C647.618 371.909 648.694 359.786 651.406 346.507C654.133 333.23 657.901 319.768 662.714 306.098C667.529 292.432 672.637 279.52 678.033 267.344C683.431 255.178 688.261 244.807 692.515 236.248C689.011 241.354 685.538 247.532 682.077 254.773C678.604 262.026 676.215 266.909 674.907 269.427C672.642 273.764 670.369 278.034 668.064 282.235C665.775 286.443 663.718 290.476 661.923 294.338C667.033 281.717 672.312 269.877 677.755 258.833C683.19 247.808 687.247 240.325 689.919 236.403C690.484 235.321 691.34 233.979 692.489 232.378C693.629 230.788 695.096 229.491 696.869 228.511L699.009 223.794C706.213 221.265 714.484 220.391 723.838 221.175C733.184 221.976 741.758 224.359 749.551 228.344C757.333 232.339 762.528 238.273 765.142 246.154C765.445 247.187 765.205 248.357 764.41 249.668C763.618 250.991 762.695 250.846 761.642 249.247C758.658 246.104 755.521 243.455 752.243 241.294C748.963 239.128 745.607 237.717 742.169 237.049C739.077 236.539 736.084 236.849 733.177 237.989C730.015 239.226 727.411 241.393 725.376 244.487C721.234 250.42 716.658 258.612 711.635 269.046C706.602 279.498 701.749 290.519 697.066 302.119C692.383 313.72 688.417 324.754 685.164 335.223C681.911 345.693 680.026 354.038 679.498 360.278C680.562 357.855 682.573 354.193 685.543 349.296C688.523 344.393 691.74 339.325 695.208 334.085C698.66 328.853 701.648 324.455 704.129 320.893C704.947 319.712 706.752 317.285 709.499 313.618C712.236 309.964 715.15 306.095 718.219 302.02C721.288 297.944 723.833 294.797 725.821 292.572C725.976 293.095 724.871 295.101 722.519 298.606C720.167 302.116 717.289 306.116 713.902 310.603C710.516 315.095 707.381 319.187 704.493 322.908C701.617 326.616 699.891 329.02 699.326 330.102C697.175 333.818 694.681 338.1 691.851 342.941C688.998 347.792 686.412 352.254 684.083 356.327C681.756 360.404 680.245 363.292 679.562 364.991C679.332 366.234 679.393 366.93 679.737 367.082C680.08 367.233 680.489 366.642 680.978 365.303C682.379 361.02 684.875 356.018 688.495 350.288C692.103 344.565 696.154 338.606 700.662 332.375C705.164 326.164 709.159 320.503 712.664 315.397C716.806 309.464 720.625 304.164 724.099 299.493C727.592 294.829 730.664 290.535 733.34 286.616C732.004 281.1 732.962 276.569 736.18 273.002C739.399 269.442 742.18 267.631 744.524 267.581C746.256 267.477 748.974 267.489 752.692 267.61C756.398 267.742 759.859 268.252 763.063 269.147C766.271 270.049 767.684 271.864 767.319 274.594C766.681 279.439 767.162 286.365 768.778 295.351C770.384 304.356 772.25 312.454 774.367 319.669C777.394 329.978 782.205 333.833 788.797 331.251C792.225 329.908 796.313 326.302 801.065 320.414C802.792 318.302 804.184 317.043 805.241 316.626C806.032 316.317 806.541 316.548 806.767 317.319C807.07 318.351 806.841 320.086 806.095 322.537C805.336 324.986 804.777 326.572 804.406 327.294C802.214 331.886 799.355 336.38 795.79 340.795C792.237 345.199 788.211 348.289 783.724 350.046C781.875 350.769 779.954 351.24 777.949 351.439C775.952 351.654 773.838 351.475 771.623 350.906C763.734 349.118 757.09 344.252 751.674 336.308C746.248 328.381 742.602 321.189 740.711 314.748C740.259 313.204 739.906 311.768 739.655 310.422C739.415 309.079 739.268 307.847 739.231 306.706C737.007 310.168 733.355 315.977 728.249 324.154C723.143 332.331 717.501 341.438 711.334 351.462C705.156 361.496 699.238 370.928 693.594 379.739C687.954 388.563 683.567 395.162 680.435 399.553L680.441 399.566Z" fill="white"/>
</svg>
