<svg width="352" height="79" viewBox="0 0 352 79" fill="none" xmlns="http://www.w3.org/2000/svg">
<path d="M41.7012 40.1C41.5678 40.1 41.4178 39.9917 41.2512 39.775C41.0845 39.5583 41.0095 39.35 41.0262 39.15C41.0428 38.8833 41.1178 38.5 41.2512 38C41.3845 37.5 41.5345 36.9917 41.7012 36.475C41.8678 35.9583 42.0178 35.55 42.1512 35.25C42.2178 34.9833 42.2762 34.75 42.3262 34.55C42.3928 34.3333 42.4345 34.1917 42.4512 34.125C42.5012 34.0583 42.5762 33.8833 42.6762 33.6C42.7928 33.3167 42.8845 33.0417 42.9512 32.775C42.9845 32.6417 43.0512 32.3917 43.1512 32.025C43.2678 31.6417 43.4012 31.2 43.5512 30.7C43.7178 30.2 43.8762 29.7083 44.0262 29.225C44.1928 28.7417 44.3345 28.3167 44.4512 27.95C44.5678 27.5833 44.6428 27.3417 44.6762 27.225C44.8095 27.025 44.9095 26.8333 44.9762 26.65C45.0428 26.4667 45.0845 26.3417 45.1012 26.275C45.2012 26.2083 45.2595 26.125 45.2762 26.025C45.2928 25.9083 45.3012 25.8167 45.3012 25.75C45.3012 25.6667 45.3262 25.6 45.3762 25.55C45.4428 25.5 45.4762 25.4417 45.4762 25.375C45.5428 25.325 45.5845 25.25 45.6012 25.15C45.6178 25.0333 45.6678 24.9333 45.7512 24.85L45.8762 24.425L47.3512 24.4C47.3178 24.6 47.2678 24.85 47.2012 25.15C47.1345 25.4333 46.9762 25.8167 46.7262 26.3C46.6428 26.6333 46.5428 26.9333 46.4262 27.2C46.3262 27.4667 46.2845 27.6417 46.3012 27.725C46.2678 27.7583 46.1928 27.925 46.0762 28.225C45.9762 28.525 45.8512 28.8917 45.7012 29.325C45.5678 29.7583 45.4262 30.1917 45.2762 30.625C45.1428 31.0583 45.0178 31.4417 44.9012 31.775C44.8012 32.0917 44.7345 32.2917 44.7012 32.375C44.5678 32.6417 44.4178 33.0333 44.2512 33.55C44.0845 34.0667 43.8345 34.7667 43.5012 35.65C43.3678 35.9167 43.2012 36.3167 43.0012 36.85C42.8178 37.3833 42.6678 37.8667 42.5512 38.3C42.3678 38.95 42.2345 39.4 42.1512 39.65C42.0845 39.9167 42.0262 40.0583 41.9762 40.075C41.9262 40.1083 41.8345 40.1167 41.7012 40.1ZM41.9012 25.2C41.4345 25.2167 41.0845 25.1917 40.8512 25.125C40.6345 25.0583 40.5595 24.8917 40.6262 24.625C40.6762 24.425 40.7845 24.275 40.9512 24.175C41.1178 24.075 41.3595 24 41.6762 23.95C41.8595 23.9167 42.0928 23.875 42.3762 23.825C42.6762 23.775 42.9595 23.725 43.2262 23.675C43.7762 23.6083 44.2262 23.55 44.5762 23.5C44.9428 23.45 45.3178 23.4083 45.7012 23.375C46.0845 23.3417 46.5678 23.3083 47.1512 23.275C47.6345 23.2417 48.0428 23.2167 48.3762 23.2C48.7262 23.1667 48.9012 23.15 48.9012 23.15C48.9512 23.15 49.1262 23.1667 49.4262 23.2C49.7262 23.2333 50.0512 23.275 50.4012 23.325C50.7512 23.375 51.0095 23.4333 51.1762 23.5C51.5595 23.5833 51.8345 23.7 52.0012 23.85C52.1845 24 52.3095 24.2167 52.3762 24.5C52.4262 24.7 52.4262 24.825 52.3762 24.875C52.3262 24.9083 52.2345 24.9583 52.1012 25.025C51.7178 25.1417 51.4345 25.2 51.2512 25.2C51.0678 25.2 50.8595 25.1583 50.6262 25.075C50.5428 24.9917 50.4428 24.9167 50.3262 24.85C50.2262 24.7833 50.0428 24.7333 49.7762 24.7C49.5262 24.65 49.1262 24.6083 48.5762 24.575C48.1095 24.625 47.7012 24.65 47.3512 24.65C47.0012 24.65 46.8262 24.6917 46.8262 24.775L45.3512 24.85L44.1262 24.975C43.9595 24.9917 43.7262 25.0167 43.4262 25.05C43.1262 25.0667 42.8345 25.0917 42.5512 25.125C42.2678 25.1417 42.0512 25.1667 41.9012 25.2ZM49.7553 38.625C49.5386 38.625 49.3636 38.5833 49.2303 38.5C49.1136 38.4167 48.9636 38.3 48.7803 38.15C48.4636 37.8167 48.2386 37.5 48.1053 37.2C47.9719 36.8833 47.9303 36.5833 47.9803 36.3C48.0303 36.1667 48.0469 36.0417 48.0303 35.925C48.0303 35.7917 48.0303 35.725 48.0303 35.725C47.9469 35.6417 47.9219 35.5917 47.9553 35.575C47.9886 35.5417 48.0219 35.4917 48.0553 35.425C48.1553 35.425 48.1886 35.3333 48.1553 35.15C48.1219 35.0167 48.1886 34.725 48.3553 34.275C48.5219 33.825 48.7303 33.4 48.9803 33C49.0803 32.8333 49.2303 32.6167 49.4303 32.35C49.6303 32.0667 49.8469 31.7917 50.0803 31.525C50.3303 31.2417 50.5553 31.0167 50.7553 30.85C51.1719 30.5 51.5386 30.2417 51.8553 30.075C52.1719 29.9083 52.5136 29.7833 52.8803 29.7C53.2469 29.6167 53.4969 29.575 53.6303 29.575C53.7803 29.575 53.9803 29.7083 54.2303 29.975C54.6136 30.1417 54.8886 30.3417 55.0553 30.575C55.2386 30.8083 55.3553 31.15 55.4053 31.6C55.4553 32.1 55.4136 32.675 55.2803 33.325C55.1636 33.9583 54.7719 34.75 54.1053 35.7C53.6886 36.3 53.3053 36.75 52.9553 37.05C52.6053 37.3333 52.1886 37.6167 51.7053 37.9C51.3553 38.1333 51.0386 38.3083 50.7553 38.425C50.4719 38.525 50.1386 38.5917 49.7553 38.625ZM52.1553 35.975C52.5553 35.525 52.8719 35.1 53.1053 34.7C53.3553 34.3 53.5886 33.7917 53.8053 33.175C53.8719 32.9917 53.9136 32.7667 53.9303 32.5C53.9469 32.2167 53.9386 31.9583 53.9053 31.725C53.8886 31.475 53.8303 31.3333 53.7303 31.3C53.5303 31.1833 53.2886 31.15 53.0053 31.2C52.7219 31.2333 52.4136 31.3917 52.0803 31.675C51.5636 32.1083 51.1136 32.65 50.7303 33.3C50.3469 33.9333 49.9719 34.6583 49.6053 35.475C49.3553 36.075 49.2969 36.5583 49.4303 36.925C49.5803 37.275 49.8886 37.4 50.3553 37.3C50.8386 37.1833 51.4386 36.7417 52.1553 35.975ZM55.8688 44.6C55.8021 44.6 55.7188 44.6 55.6188 44.6C55.5188 44.6167 55.4271 44.55 55.3438 44.4C55.2771 44.3167 55.2354 44.1917 55.2188 44.025C55.2188 43.8583 55.2604 43.5583 55.3438 43.125C55.4271 42.8417 55.4938 42.5583 55.5438 42.275C55.5938 42.0083 55.6188 41.8083 55.6188 41.675C55.6188 41.6083 55.6354 41.475 55.6688 41.275C55.7188 41.0917 55.7438 40.9583 55.7438 40.875C55.8271 40.7417 55.8938 40.5583 55.9438 40.325C55.9938 40.0917 56.0188 39.8833 56.0188 39.7C56.0188 39.5 56.1188 39.3167 56.3188 39.15C56.3188 39.0167 56.3438 38.85 56.3938 38.65C56.4604 38.45 56.4938 38.3167 56.4938 38.25C56.5438 38.0167 56.6521 37.6083 56.8188 37.025C57.0021 36.425 57.2188 35.75 57.4688 35C57.7354 34.25 57.9938 33.5167 58.2438 32.8C58.4938 32.0833 58.7188 31.475 58.9188 30.975C59.1188 30.5083 59.2521 30.1083 59.3188 29.775C59.4021 29.425 59.4438 29.1667 59.4438 29C59.4438 28.9333 59.4604 28.8833 59.4938 28.85C59.5271 28.8 59.6021 28.7083 59.7188 28.575C59.8854 28.4083 60.0271 28.3583 60.1438 28.425C60.2771 28.4917 60.4354 28.5917 60.6188 28.725C60.7521 28.9417 60.8438 29.125 60.8938 29.275C60.9604 29.425 60.9604 29.6833 60.8938 30.05C60.8938 30.3 60.8521 30.5167 60.7687 30.7C60.6854 30.8833 60.6104 31.025 60.5438 31.125C60.4771 31.2083 60.4604 31.2417 60.4938 31.225C61.1771 30.9083 61.7771 30.7417 62.2938 30.725C62.8271 30.6917 63.2688 30.7833 63.6188 31C63.9854 31.2 64.2604 31.4833 64.4438 31.85C64.6271 32.2167 64.7188 32.6417 64.7188 33.125C64.7188 33.325 64.6771 33.5667 64.5938 33.85C64.5104 34.1167 64.4021 34.3667 64.2688 34.6C64.1521 34.8167 64.0438 34.975 63.9438 35.075C63.8771 35.075 63.8104 35.1333 63.7438 35.25C63.6771 35.35 63.6104 35.4667 63.5438 35.6C63.4104 35.7667 63.1938 35.9583 62.8938 36.175C62.6104 36.375 62.3271 36.5417 62.0438 36.675C61.7604 36.7917 61.5521 36.825 61.4188 36.775C61.4188 36.775 61.3938 36.7833 61.3438 36.8C61.3104 36.8 61.2938 36.8417 61.2938 36.925C61.2938 36.9583 61.1604 37.0333 60.8938 37.15C60.6271 37.25 60.3188 37.35 59.9688 37.45C59.6188 37.5333 59.3104 37.575 59.0438 37.575C58.6938 37.575 58.4438 37.5083 58.2938 37.375C58.2604 37.4083 58.2188 37.4583 58.1688 37.525C58.1354 37.5917 58.1188 37.65 58.1188 37.7C58.1188 37.8 58.0771 37.9917 57.9938 38.275C57.9271 38.5417 57.8438 38.8 57.7438 39.05C57.6438 39.3 57.5521 39.425 57.4688 39.425C57.4688 39.425 57.4521 39.45 57.4188 39.5C57.3854 39.55 57.4021 39.6167 57.4688 39.7C57.4688 39.7 57.4604 39.7917 57.4438 39.975C57.4438 40.175 57.4021 40.3417 57.3188 40.475C57.3188 40.6083 57.2938 40.8083 57.2438 41.075C57.1938 41.3417 57.1354 41.5417 57.0688 41.675C57.0688 41.875 57.0354 42.0667 56.9688 42.25C56.9188 42.45 56.8604 42.55 56.7938 42.55C56.7271 42.5667 56.6854 42.6667 56.6688 42.85C56.6521 43.05 56.6438 43.1917 56.6438 43.275C56.6271 43.6917 56.5438 44.0167 56.3938 44.25C56.2438 44.4833 56.0688 44.6 55.8688 44.6ZM58.8938 36.25C59.0271 36.25 59.3021 36.1917 59.7188 36.075C60.1354 35.9583 60.5604 35.8167 60.9938 35.65C61.4438 35.4667 61.7771 35.2833 61.9938 35.1C62.4271 34.7167 62.7604 34.2833 62.9938 33.8C63.2438 33.3 63.2271 32.825 62.9438 32.375C62.8104 32.1417 62.5688 32.05 62.2188 32.1C61.8688 32.1333 61.4854 32.2667 61.0688 32.5C60.6521 32.7333 60.2604 33.025 59.8938 33.375C59.6938 33.5917 59.5104 33.8583 59.3438 34.175C59.1771 34.4917 59.0354 34.8083 58.9188 35.125C58.8188 35.4417 58.7604 35.7083 58.7438 35.925C58.7271 36.1417 58.7771 36.25 58.8938 36.25ZM74.0217 38.4C73.7217 38.1833 73.5717 38 73.5717 37.85C73.505 37.75 73.43 37.7 73.3467 37.7C73.2967 37.7167 73.2467 37.6667 73.1967 37.55C73.1633 37.4333 73.13 37.3 73.0967 37.15C73.08 36.9833 73.08 36.8667 73.0967 36.8C73.1633 36.6667 73.2633 36.5917 73.3967 36.575C73.53 36.5417 73.655 36.5583 73.7717 36.625C73.905 36.675 73.98 36.7667 73.9967 36.9C74.03 37.0333 74.155 37.1417 74.3717 37.225C74.605 37.3083 74.905 37.3417 75.2717 37.325C75.7383 37.3083 76.2217 37.1917 76.7217 36.975C77.2383 36.7583 77.7133 36.4833 78.1467 36.15C78.5967 35.8167 78.955 35.475 79.2217 35.125C79.3383 34.8917 79.4467 34.5833 79.5467 34.2C79.6467 33.8167 79.7133 33.475 79.7467 33.175C79.78 32.875 79.755 32.725 79.6717 32.725C79.6717 32.725 79.655 32.6667 79.6217 32.55C79.605 32.4333 79.5717 32.3083 79.5217 32.175C79.4383 31.925 79.2467 31.675 78.9467 31.425C78.6467 31.1583 78.355 30.9667 78.0717 30.85C77.955 30.8167 77.7383 30.7917 77.4217 30.775C77.1217 30.7417 76.8467 30.7417 76.5967 30.775C76.33 30.7917 76.0883 30.7917 75.8717 30.775C75.6717 30.7583 75.5717 30.75 75.5717 30.75C75.4883 30.7333 75.3633 30.6667 75.1967 30.55C75.0467 30.4333 74.905 30.3083 74.7717 30.175C74.6383 30.0417 74.5717 29.9333 74.5717 29.85C74.605 29.7333 74.6883 29.55 74.8217 29.3C74.955 29.0333 75.1133 28.7417 75.2967 28.425C75.4967 28.0917 75.705 27.7833 75.9217 27.5C76.1383 27.2 76.3467 26.95 76.5467 26.75C77.0467 26.2 77.6133 25.7917 78.2467 25.525C78.8967 25.2417 79.5633 25.1167 80.2467 25.15C80.73 25.1667 81.0717 25.2083 81.2717 25.275C81.4883 25.325 81.6967 25.4833 81.8967 25.75C82.03 25.9833 82.0883 26.1917 82.0717 26.375C82.055 26.5583 81.9883 26.6833 81.8717 26.75C81.755 26.8167 81.5967 26.8 81.3967 26.7C81.1633 26.55 80.8383 26.4917 80.4217 26.525C80.0217 26.5583 79.5967 26.6417 79.1467 26.775C78.7967 26.9083 78.4217 27.125 78.0217 27.425C77.6383 27.7083 77.405 27.9417 77.3217 28.125C77.255 28.175 77.205 28.225 77.1717 28.275C77.155 28.325 77.1133 28.3417 77.0467 28.325C77.0467 28.325 77.0217 28.3583 76.9717 28.425C76.9217 28.475 76.8967 28.5333 76.8967 28.6C76.8133 28.7 76.755 28.775 76.7217 28.825C76.705 28.8583 76.6633 28.8417 76.5967 28.775C76.5967 28.775 76.5967 28.8 76.5967 28.85C76.5967 28.9 76.5883 28.9583 76.5717 29.025C76.555 29.1417 76.5633 29.2417 76.5967 29.325C76.6467 29.3917 76.83 29.4417 77.1467 29.475C77.5633 29.5417 77.88 29.6083 78.0967 29.675C78.3133 29.725 78.63 29.875 79.0467 30.125C79.5133 30.3917 79.8883 30.75 80.1717 31.2C80.455 31.6333 80.6467 32.125 80.7467 32.675C80.8633 33.225 80.88 33.7833 80.7967 34.35C80.7467 34.7167 80.6967 35 80.6467 35.2C80.5967 35.4 80.455 35.675 80.2217 36.025C79.8383 36.5583 79.3717 37.0333 78.8217 37.45C78.2717 37.85 77.6967 38.1667 77.0967 38.4C76.4967 38.6167 75.9217 38.7333 75.3717 38.75C74.8383 38.7667 74.3883 38.65 74.0217 38.4ZM91.6313 38.825C91.4479 38.7917 91.2563 38.7 91.0563 38.55C90.8729 38.3833 90.7063 38.2 90.5563 38C90.4229 37.7833 90.3313 37.5917 90.2812 37.425C90.2812 37.3917 90.2563 37.35 90.2063 37.3C90.1729 37.25 90.1563 37.225 90.1563 37.225C90.0896 37.175 90.0479 36.9583 90.0313 36.575C90.0313 36.175 90.0563 35.7333 90.1063 35.25C90.1563 34.7667 90.2146 34.3833 90.2812 34.1C90.3646 33.8333 90.4896 33.475 90.6563 33.025C90.8229 32.5583 90.9646 32.1417 91.0813 31.775L91.7563 30.325L90.7563 30.05C90.6396 30.0167 90.5396 29.95 90.4562 29.85C90.3896 29.75 90.3563 29.6667 90.3563 29.6C90.3563 29.4667 90.4313 29.3083 90.5813 29.125C90.7313 28.925 90.8396 28.825 90.9063 28.825C90.9896 28.8417 91.1396 28.85 91.3563 28.85C91.5896 28.85 91.8146 28.8417 92.0313 28.825C92.2479 28.8083 92.3813 28.7917 92.4313 28.775C92.4979 28.7417 92.5646 28.7 92.6313 28.65C92.6979 28.5833 92.7479 28.4917 92.7813 28.375C92.8646 28.1917 92.9396 28.025 93.0063 27.875C93.0729 27.7083 93.1646 27.525 93.2813 27.325C93.3979 27.1083 93.4896 26.925 93.5563 26.775C93.6396 26.625 93.7646 26.4167 93.9313 26.15C94.0146 26.0333 94.1063 25.8917 94.2063 25.725C94.3063 25.5583 94.4313 25.4167 94.5813 25.3C94.7313 25.1667 94.8813 25.1083 95.0313 25.125C95.1979 25.125 95.4063 25.2333 95.6563 25.45C95.7896 25.6167 95.8646 25.7417 95.8813 25.825C95.8979 25.9083 95.8313 26.0667 95.6813 26.3C95.5479 26.5833 95.3896 26.8667 95.2063 27.15C95.0396 27.4333 94.8813 27.7167 94.7313 28C94.4646 28.3667 94.4146 28.575 94.5813 28.625C94.7479 28.675 95.2146 28.6417 95.9813 28.525C96.4646 28.4417 96.8146 28.4667 97.0313 28.6C97.2479 28.7167 97.3729 28.9167 97.4063 29.2C97.4563 29.6 97.4146 29.8417 97.2813 29.925C97.1479 30.0083 96.7646 30.05 96.1313 30.05C95.7313 30.1167 95.3896 30.1583 95.1063 30.175C94.8229 30.175 94.6146 30.175 94.4813 30.175C94.2646 30.1917 94.1229 30.2 94.0563 30.2C93.9896 30.2 93.8896 30.2167 93.7562 30.25C93.6229 30.2833 93.5229 30.3417 93.4563 30.425C93.4063 30.4917 93.3479 30.5917 93.2813 30.725C93.2146 30.7917 93.1146 30.9667 92.9813 31.25C92.8479 31.5333 92.6813 31.8417 92.4813 32.175C92.2479 32.875 92.0479 33.575 91.8813 34.275C91.7146 34.9583 91.5813 35.625 91.4813 36.275C91.4146 36.6917 91.4229 36.9833 91.5063 37.15C91.5896 37.3 91.8063 37.3917 92.1563 37.425C92.3396 37.4417 92.6313 37.4417 93.0313 37.425C93.4479 37.3917 93.7729 37.3417 94.0063 37.275C94.1896 37.1917 94.3813 37.1083 94.5813 37.025C94.7813 36.925 94.9646 36.825 95.1313 36.725C95.2813 36.6417 95.4313 36.5583 95.5813 36.475C95.7313 36.375 95.8063 36.325 95.8063 36.325C95.8896 36.1917 95.9813 36.15 96.0813 36.2C96.1813 36.25 96.2646 36.375 96.3313 36.575C96.3313 36.775 96.2896 36.9833 96.2063 37.2C96.1229 37.4167 95.8146 37.675 95.2813 37.975C94.5313 38.4417 93.8396 38.725 93.2063 38.825C92.5896 38.9083 92.0646 38.9083 91.6313 38.825ZM105.808 38.225C105.391 38.425 105.016 38.4833 104.683 38.4C104.349 38.3 104.083 38.075 103.883 37.725C103.699 37.375 103.608 36.9333 103.608 36.4C103.608 36.2167 103.633 35.9417 103.683 35.575C103.749 35.2083 103.824 34.825 103.908 34.425C103.991 34.0083 104.083 33.65 104.183 33.35C104.233 33.2 104.266 33.0833 104.283 33C104.316 32.9167 104.299 32.875 104.233 32.875C104.166 32.875 104.083 32.9167 103.983 33C103.899 33.0833 103.833 33.15 103.783 33.2C103.416 33.5 103.033 33.8667 102.633 34.3C102.249 34.7333 101.891 35.175 101.558 35.625C101.224 36.0583 100.949 36.4583 100.733 36.825C100.533 37.1917 100.433 37.4583 100.433 37.625C100.433 37.875 100.308 38.05 100.058 38.15C99.8076 38.25 99.591 38.2417 99.4076 38.125C99.091 37.9417 98.891 37.725 98.8076 37.475C98.741 37.2083 98.7326 36.7667 98.7826 36.15C98.8326 35.3667 98.8993 34.6667 98.9826 34.05C99.066 33.4333 99.1993 32.7667 99.3826 32.05C99.5826 31.3167 99.841 30.425 100.158 29.375C100.374 28.7917 100.574 28.2417 100.758 27.725C100.941 27.1917 101.099 26.7417 101.233 26.375C101.383 26.0083 101.474 25.7833 101.508 25.7C101.591 25.6167 101.699 25.4167 101.833 25.1C101.966 24.7667 102.083 24.4333 102.183 24.1C102.299 23.7667 102.358 23.5667 102.358 23.5C102.358 23.3667 102.383 23.25 102.433 23.15C102.483 23.0333 102.541 22.9417 102.608 22.875C102.674 22.8083 102.733 22.75 102.783 22.7C102.833 22.65 102.858 22.625 102.858 22.625C102.941 22.625 103.041 22.65 103.158 22.7C103.291 22.75 103.416 22.825 103.533 22.925C103.649 23.0083 103.724 23.1167 103.758 23.25C103.874 23.4833 103.933 23.725 103.933 23.975C103.933 24.2083 103.858 24.5 103.708 24.85C103.574 25.2 103.341 25.6833 103.008 26.3C102.741 26.8167 102.499 27.35 102.283 27.9C102.066 28.45 101.858 29.025 101.658 29.625C101.574 29.875 101.458 30.225 101.308 30.675C101.174 31.125 101.033 31.5917 100.883 32.075C100.749 32.5583 100.633 32.9917 100.533 33.375C100.449 33.7417 100.408 33.975 100.408 34.075C100.408 34.1917 100.474 34.25 100.608 34.25C100.741 34.2333 100.874 34.1333 101.008 33.95C101.074 33.8167 101.216 33.65 101.433 33.45C101.649 33.25 101.824 33.0917 101.958 32.975C102.091 32.8583 102.274 32.6917 102.508 32.475C102.741 32.2583 102.991 32.0417 103.258 31.825C103.524 31.5917 103.774 31.4 104.008 31.25C104.241 31.0833 104.424 31 104.558 31C104.774 31 104.974 31.0833 105.158 31.25C105.341 31.4 105.466 31.5667 105.533 31.75C105.583 31.8 105.633 31.8667 105.683 31.95C105.733 32.0167 105.766 32.0667 105.783 32.1C105.866 32.1667 105.866 32.4583 105.783 32.975C105.716 33.475 105.549 34.125 105.283 34.925C105.133 35.5417 105.008 36.0667 104.908 36.5C104.824 36.9167 104.849 37.125 104.983 37.125C104.983 37.125 105.066 37.075 105.233 36.975C105.416 36.875 105.608 36.7667 105.808 36.65C106.291 36.3333 106.708 36.15 107.058 36.1C107.424 36.0333 107.608 36.0917 107.608 36.275C107.608 36.3417 107.583 36.4083 107.533 36.475C107.483 36.525 107.458 36.5833 107.458 36.65C107.458 36.65 107.458 36.6583 107.458 36.675C107.458 36.675 107.458 36.7083 107.458 36.775C107.458 36.8083 107.349 36.9417 107.133 37.175C106.916 37.3917 106.674 37.6167 106.408 37.85C106.158 38.0667 105.958 38.1917 105.808 38.225ZM109.56 38.2C109.427 38.0667 109.327 37.9 109.26 37.7C109.21 37.5 109.193 37.3 109.21 37.1C109.227 36.9 109.268 36.7333 109.335 36.6C109.335 36.4667 109.352 36.3667 109.385 36.3C109.435 36.2167 109.452 36.1417 109.435 36.075C109.418 36.0083 109.435 35.8917 109.485 35.725C109.535 35.5583 109.585 35.4 109.635 35.25C109.752 34.9833 109.877 34.6667 110.01 34.3C110.143 33.9167 110.268 33.5417 110.385 33.175C110.502 32.8083 110.602 32.4917 110.685 32.225C110.768 31.9583 110.818 31.7917 110.835 31.725C110.835 31.525 110.968 31.4167 111.235 31.4C111.435 31.3333 111.585 31.3333 111.685 31.4C111.785 31.45 111.918 31.6083 112.085 31.875C112.218 32.0083 112.268 32.2083 112.235 32.475C112.202 32.7417 112.093 33.075 111.91 33.475C111.843 33.6083 111.76 33.8 111.66 34.05C111.577 34.3 111.518 34.525 111.485 34.725C111.418 34.8583 111.335 35.05 111.235 35.3C111.152 35.5333 111.077 35.7583 111.01 35.975C110.977 36.0583 110.943 36.1833 110.91 36.35C110.877 36.5 110.835 36.6667 110.785 36.85C110.735 37.0167 110.668 37.1667 110.585 37.3C110.435 37.9833 110.293 38.3833 110.16 38.5C110.043 38.6167 109.843 38.5167 109.56 38.2ZM111.985 28.05C111.902 27.9667 111.827 27.85 111.76 27.7C111.693 27.5333 111.652 27.3833 111.635 27.25C111.618 27.1 111.635 27.025 111.685 27.025C111.818 27.0083 111.977 26.8667 112.16 26.6C112.343 26.3333 112.418 26.1 112.385 25.9C112.385 25.8333 112.41 25.775 112.46 25.725C112.51 25.6583 112.568 25.6167 112.635 25.6C112.835 25.4667 113.027 25.45 113.21 25.55C113.41 25.6333 113.593 25.8083 113.76 26.075C113.91 26.3917 113.952 26.6583 113.885 26.875C113.818 27.075 113.635 27.3583 113.335 27.725C113.085 28.0583 112.852 28.2417 112.635 28.275C112.435 28.3083 112.218 28.2333 111.985 28.05ZM115.148 37.9C115.082 37.9 114.982 37.8583 114.848 37.775C114.732 37.675 114.64 37.5917 114.573 37.525C114.457 37.3917 114.382 37.2583 114.348 37.125C114.332 36.9917 114.323 36.6917 114.323 36.225C114.323 35.6917 114.432 35.1167 114.648 34.5C114.865 33.8667 115.232 32.9833 115.748 31.85L116.573 30.1C116.64 29.9667 116.698 29.8667 116.748 29.8C116.815 29.7333 116.873 29.6667 116.923 29.6C116.99 29.6 117.048 29.6 117.098 29.6C117.148 29.6 117.173 29.6 117.173 29.6C117.307 29.6 117.44 29.6833 117.573 29.85C117.707 30 117.807 30.1667 117.873 30.35C117.873 30.5667 117.84 30.7917 117.773 31.025C117.723 31.2583 117.523 31.6083 117.173 32.075C117.057 32.2583 116.898 32.5667 116.698 33C116.515 33.4333 116.39 33.8083 116.323 34.125C116.307 34.1417 116.273 34.2167 116.223 34.35C116.173 34.4667 116.115 34.6 116.048 34.75C115.998 34.9 115.94 35.0417 115.873 35.175L115.748 35.725L117.423 34C118.207 33.2167 118.84 32.6583 119.323 32.325C119.807 31.9917 120.19 31.85 120.473 31.9C120.757 31.95 120.998 32.175 121.198 32.575C121.315 32.7583 121.398 32.925 121.448 33.075C121.515 33.2083 121.557 33.3917 121.573 33.625C121.59 33.8583 121.573 34.2083 121.523 34.675V36.225C121.773 36.1583 121.973 36.1 122.123 36.05C122.273 35.9833 122.432 35.9167 122.598 35.85C122.748 35.7833 122.923 35.725 123.123 35.675C123.323 35.6083 123.573 35.5667 123.873 35.55C123.857 35.7667 123.782 36 123.648 36.25C123.515 36.4833 123.348 36.7083 123.148 36.925C122.948 37.1417 122.723 37.3167 122.473 37.45C122.24 37.5833 122.007 37.65 121.773 37.65C121.557 37.65 121.315 37.5417 121.048 37.325C120.782 37.1083 120.59 36.8667 120.473 36.6C120.407 36.4167 120.365 36.2167 120.348 36C120.348 35.7833 120.348 35.3833 120.348 34.8V33.875C120.348 33.6083 120.265 33.5333 120.098 33.65C119.948 33.75 119.823 33.8417 119.723 33.925C119.473 34.1417 119.207 34.3917 118.923 34.675C118.657 34.9583 118.382 35.25 118.098 35.55C117.332 36.35 116.69 36.9417 116.173 37.325C115.673 37.7083 115.332 37.9 115.148 37.9ZM127.828 43.775C127.361 43.9583 126.87 43.925 126.353 43.675C125.853 43.4417 125.42 43.0667 125.053 42.55C124.986 42.45 124.903 42.2917 124.803 42.075C124.72 41.875 124.636 41.6667 124.553 41.45C124.486 41.2333 124.445 41.0417 124.428 40.875C124.411 40.7083 124.428 40.6083 124.478 40.575C124.528 40.525 124.611 40.5083 124.728 40.525C124.845 40.5417 124.953 40.5833 125.053 40.65C125.17 40.7167 125.245 40.8 125.278 40.9C125.328 41.0167 125.403 41.1667 125.503 41.35C125.62 41.5333 125.745 41.7 125.878 41.85C126.011 42 126.111 42.0833 126.178 42.1C126.495 42.25 126.728 42.3167 126.878 42.3C127.028 42.2833 127.161 42.2333 127.278 42.15C127.561 41.9333 127.795 41.65 127.978 41.3C128.161 40.95 128.37 40.4083 128.603 39.675C128.786 39.0583 128.97 38.4083 129.153 37.725C129.353 37.025 129.528 36.4833 129.678 36.1C129.728 35.9 129.786 35.7333 129.853 35.6C129.936 35.45 130.011 35.3417 130.078 35.275H130.228C129.861 35.5083 129.536 35.775 129.253 36.075C128.97 36.375 128.611 36.6167 128.178 36.8C128.078 36.9167 127.828 36.9917 127.428 37.025C127.045 37.0417 126.67 36.9917 126.303 36.875C126.07 36.7417 125.895 36.6417 125.778 36.575C125.678 36.5083 125.595 36.4167 125.528 36.3C125.478 36.1833 125.403 36 125.303 35.75C125.186 35.5 125.17 35.0917 125.253 34.525C125.336 33.9583 125.486 33.3917 125.703 32.825C125.903 32.4083 126.195 31.9583 126.578 31.475C126.961 30.9917 127.37 30.5583 127.803 30.175C128.236 29.775 128.628 29.525 128.978 29.425C129.111 29.3583 129.253 29.3167 129.403 29.3C129.57 29.2667 129.803 29.2917 130.103 29.375C130.386 29.4083 130.603 29.475 130.753 29.575C130.903 29.6583 131.145 29.8417 131.478 30.125C131.695 30.3417 131.87 30.5583 132.003 30.775C132.153 30.9917 132.27 31.2167 132.353 31.45C132.47 31.7 132.511 31.9333 132.478 32.15C132.461 32.35 132.37 32.5583 132.203 32.775C132.053 32.9917 131.895 33.2083 131.728 33.425C131.561 33.6417 131.436 33.9417 131.353 34.325C131.27 34.825 131.136 35.3917 130.953 36.025C130.77 36.6417 130.611 37.2167 130.478 37.75L130.078 39.3C129.661 40.7167 129.261 41.7667 128.878 42.45C128.511 43.15 128.161 43.5917 127.828 43.775ZM126.928 35.775C127.261 35.7583 127.578 35.6917 127.878 35.575C128.178 35.4583 128.47 35.2667 128.753 35C129.036 34.7167 129.32 34.3583 129.603 33.925C129.886 33.525 130.086 33.1083 130.203 32.675C130.32 32.225 130.361 31.7917 130.328 31.375C130.311 31.1083 130.27 30.9333 130.203 30.85C130.136 30.7667 129.995 30.7417 129.778 30.775C129.461 30.825 129.111 31 128.728 31.3C128.345 31.5833 127.986 31.9417 127.653 32.375C127.403 32.7083 127.195 33.1083 127.028 33.575C126.861 34.075 126.761 34.55 126.728 35C126.695 35.45 126.761 35.7083 126.928 35.775ZM136.465 38.775C136.048 38.8083 135.648 38.7833 135.265 38.7C134.898 38.6167 134.582 38.475 134.315 38.275C134.065 38.0583 133.89 37.8 133.79 37.5C133.673 37.2667 133.615 37.1083 133.615 37.025C133.615 36.925 133.673 36.8417 133.79 36.775C133.923 36.775 134.04 36.8167 134.14 36.9C134.257 36.9667 134.407 37.0417 134.59 37.125C134.84 37.3417 135.14 37.4583 135.49 37.475C135.857 37.4917 136.19 37.4333 136.49 37.3C136.79 37.1667 136.957 37 136.99 36.8C136.99 36.7333 136.965 36.6167 136.915 36.45C136.865 36.2833 136.807 36.1083 136.74 35.925C136.29 35.2917 135.957 34.6667 135.74 34.05C135.54 33.4167 135.44 32.9 135.44 32.5C135.44 32.2 135.532 31.8833 135.715 31.55C135.898 31.2 136.148 30.9083 136.465 30.675C136.765 30.3583 137.098 30.075 137.465 29.825C137.832 29.575 138.198 29.3583 138.565 29.175C138.948 28.9917 139.29 28.8583 139.59 28.775C139.773 28.775 140.015 28.8 140.315 28.85C140.615 28.9 140.823 28.9583 140.94 29.025C141.123 29.0917 141.298 29.275 141.465 29.575C141.632 29.8583 141.715 30.1417 141.715 30.425C141.715 30.5417 141.682 30.6917 141.615 30.875C141.548 31.0583 141.44 31.275 141.29 31.525C141.223 31.7083 141.148 31.8833 141.065 32.05C140.982 32.2 140.94 32.3083 140.94 32.375C140.857 32.5583 140.74 32.65 140.59 32.65C140.457 32.6333 140.315 32.5583 140.165 32.425C140.032 32.275 139.923 32.1 139.84 31.9C139.773 31.65 139.748 31.45 139.765 31.3C139.782 31.1333 139.848 30.9583 139.965 30.775C140.148 30.5917 140.24 30.4667 140.24 30.4C140.24 30.3333 140.148 30.3 139.965 30.3C139.848 30.3 139.632 30.375 139.315 30.525C139.015 30.6583 138.69 30.8417 138.34 31.075C138.007 31.2917 137.715 31.525 137.465 31.775C137.148 32.075 136.957 32.2917 136.89 32.425C136.84 32.5583 136.815 32.7667 136.815 33.05C136.815 33.2833 136.865 33.575 136.965 33.925C137.082 34.275 137.198 34.5083 137.315 34.625C137.315 34.625 137.373 34.7417 137.49 34.975C137.607 35.1917 137.748 35.425 137.915 35.675C138.398 36.7417 138.523 37.5083 138.29 37.975C138.057 38.4417 137.448 38.7083 136.465 38.775ZM157.365 38.45C157.048 38.5333 156.815 38.5667 156.665 38.55C156.515 38.5167 156.315 38.375 156.065 38.125C155.915 37.8917 155.782 37.6833 155.665 37.5C155.548 37.3167 155.473 36.9917 155.44 36.525C155.423 36.2083 155.44 35.8667 155.49 35.5C155.557 35.1167 155.582 34.8417 155.565 34.675C155.698 34.0583 155.748 33.5667 155.715 33.2C155.698 32.8167 155.648 32.625 155.565 32.625C155.382 32.5917 155.048 32.775 154.565 33.175C154.098 33.5583 153.557 34.0667 152.94 34.7C152.34 35.3167 151.74 35.9667 151.14 36.65C150.823 37.0833 150.598 37.4083 150.465 37.625C150.332 37.825 150.232 37.925 150.165 37.925C150.048 37.925 149.89 37.8833 149.69 37.8C149.49 37.7167 149.315 37.6167 149.165 37.5C149.015 37.3667 148.932 37.25 148.915 37.15C148.915 37.0833 148.957 36.9083 149.04 36.625C149.123 36.325 149.223 35.9833 149.34 35.6C149.473 35.2167 149.59 34.8583 149.69 34.525C149.79 34.1917 149.865 33.9583 149.915 33.825C150.065 33.3917 150.24 32.8667 150.44 32.25C150.657 31.6167 150.848 31.0583 151.015 30.575C151.082 30.3583 151.198 30.05 151.365 29.65C151.532 29.2333 151.698 28.8167 151.865 28.4C152.032 27.9833 152.148 27.675 152.215 27.475C152.265 27.3417 152.357 27.1083 152.49 26.775C152.623 26.425 152.765 26.0417 152.915 25.625C153.082 25.2083 153.232 24.825 153.365 24.475C153.515 24.1083 153.615 23.8417 153.665 23.675C153.648 23.525 153.657 23.3917 153.69 23.275C153.74 23.1417 153.79 23.0417 153.84 22.975C153.907 22.975 153.982 22.975 154.065 22.975C154.148 22.9583 154.19 22.95 154.19 22.95C154.19 22.9167 154.257 22.95 154.39 23.05C154.523 23.15 154.648 23.275 154.765 23.425C154.898 23.5583 154.965 23.675 154.965 23.775C155.048 23.9917 155.057 24.275 154.99 24.625C154.923 24.9583 154.748 25.4667 154.465 26.15C154.282 26.4167 154.098 26.8167 153.915 27.35C153.748 27.8833 153.582 28.3333 153.415 28.7C153.348 28.8167 153.223 29.0667 153.04 29.45C152.873 29.8333 152.673 30.2833 152.44 30.8C152.223 31.3167 152.015 31.8417 151.815 32.375C151.615 32.8917 151.457 33.3583 151.34 33.775C151.173 34.175 151.115 34.4417 151.165 34.575C151.215 34.7083 151.415 34.5583 151.765 34.125C152.232 33.625 152.723 33.1167 153.24 32.6C153.757 32.0833 154.24 31.65 154.69 31.3C155.157 30.9333 155.532 30.7667 155.815 30.8C155.965 30.8333 156.123 30.9333 156.29 31.1C156.473 31.2667 156.648 31.4583 156.815 31.675C156.982 31.8917 157.098 32.1 157.165 32.3C157.232 32.55 157.273 32.7667 157.29 32.95C157.323 33.1333 157.332 33.4083 157.315 33.775C157.298 34.125 157.257 34.6833 157.19 35.45C157.09 36.0167 157.023 36.425 156.99 36.675C156.957 36.9083 156.965 37.075 157.015 37.175C157.082 37.275 157.182 37.3833 157.315 37.5C157.565 37.7 157.69 37.875 157.69 38.025C157.707 38.175 157.598 38.3167 157.365 38.45ZM162.643 38.05C162.293 38.1167 162.068 38.1417 161.968 38.125C161.884 38.0917 161.751 37.9917 161.568 37.825C161.301 37.6917 161.076 37.525 160.893 37.325C160.726 37.125 160.601 36.9167 160.518 36.7C160.451 36.4667 160.426 36.275 160.443 36.125C160.493 35.5417 160.634 34.9167 160.868 34.25C161.101 33.5833 161.384 32.9417 161.718 32.325C162.051 31.7083 162.409 31.1833 162.793 30.75C163.193 30.3 163.576 30.0083 163.943 29.875C164.276 29.7417 164.593 29.6917 164.893 29.725C165.193 29.7583 165.409 29.9167 165.543 30.2C165.793 30.6833 165.734 30.9917 165.368 31.125C165.318 31.125 165.259 31.15 165.193 31.2C165.126 31.2333 165.093 31.2833 165.093 31.35C165.159 31.3833 165.343 31.3917 165.643 31.375C165.943 31.3417 166.243 31.2917 166.543 31.225C166.859 31.1417 167.068 31.0583 167.168 30.975C167.268 30.925 167.343 30.9 167.393 30.9C167.443 30.9 167.568 30.9167 167.768 30.95C168.051 31.0333 168.193 31.1333 168.193 31.25C168.193 31.3167 168.218 31.3833 168.268 31.45C168.318 31.5 168.376 31.525 168.443 31.525C168.559 31.5417 168.543 31.6167 168.393 31.75C168.259 31.8833 168.026 32.0667 167.693 32.3C167.376 32.5 167.176 32.6333 167.093 32.7C167.026 32.75 167.018 32.8667 167.068 33.05C167.201 33.3667 167.209 33.7333 167.093 34.15C166.976 34.5667 166.768 34.9917 166.468 35.425C166.168 35.8583 165.801 36.2667 165.368 36.65C164.951 37.0167 164.501 37.3333 164.018 37.6C163.551 37.85 163.093 38 162.643 38.05ZM162.218 36.95C162.284 36.95 162.401 36.9167 162.568 36.85C162.734 36.7667 162.868 36.7 162.968 36.65C163.034 36.5833 163.118 36.5083 163.218 36.425C163.334 36.325 163.426 36.2667 163.493 36.25C163.559 36.25 163.643 36.225 163.743 36.175C163.843 36.1083 163.984 35.9833 164.168 35.8C164.351 35.6 164.593 35.3083 164.893 34.925C165.226 34.5583 165.484 34.225 165.668 33.925C165.851 33.6083 165.901 33.3167 165.818 33.05C165.801 32.9833 165.751 32.9417 165.668 32.925C165.601 32.9083 165.509 32.8667 165.393 32.8C165.226 32.8 165.068 32.7583 164.918 32.675C164.784 32.575 164.626 32.45 164.443 32.3L164.043 31.8L163.618 32.225C163.351 32.4917 163.068 32.8917 162.768 33.425C162.484 33.9417 162.243 34.475 162.043 35.025C161.843 35.5583 161.726 35.9833 161.693 36.3C161.676 36.55 161.718 36.7167 161.818 36.8C161.918 36.8833 162.051 36.9333 162.218 36.95ZM170.581 37.725C170.264 37.4417 170.023 37.15 169.856 36.85C169.706 36.55 169.589 36.075 169.506 35.425C169.473 35.125 169.506 34.7333 169.606 34.25C169.706 33.75 169.848 33.225 170.031 32.675C170.214 32.125 170.423 31.625 170.656 31.175C170.889 30.7083 171.123 30.3583 171.356 30.125C171.556 29.875 171.714 29.7417 171.831 29.725C171.964 29.6917 172.198 29.75 172.531 29.9C172.714 30.1167 172.806 30.35 172.806 30.6C172.806 30.85 172.706 31.1333 172.506 31.45C172.173 31.9 171.881 32.4667 171.631 33.15C171.398 33.8167 171.239 34.4167 171.156 34.95C170.989 35.5167 170.914 35.9 170.931 36.1C170.948 36.3 171.098 36.4333 171.381 36.5C171.698 36.5667 172.073 36.45 172.506 36.15C172.939 35.8333 173.364 35.4 173.781 34.85C174.198 34.2833 174.531 33.6667 174.781 33C174.881 32.7667 174.956 32.4917 175.006 32.175C175.073 31.8583 175.139 31.625 175.206 31.475C175.289 31.1417 175.406 30.9 175.556 30.75C175.706 30.5833 175.864 30.4917 176.031 30.475C176.198 30.4417 176.339 30.475 176.456 30.575C176.606 30.6417 176.698 30.725 176.731 30.825C176.764 30.9083 176.764 31.1417 176.731 31.525C176.731 32.1417 176.598 32.6667 176.331 33.1C176.064 33.5333 175.839 33.9917 175.656 34.475C175.506 34.825 175.281 35.2167 174.981 35.65C174.698 36.0833 174.381 36.475 174.031 36.825C173.698 37.175 173.373 37.4167 173.056 37.55C172.589 37.85 172.173 38 171.806 38C171.456 37.9833 171.048 37.8917 170.581 37.725ZM178.559 38.125C178.409 38.0083 178.301 37.8917 178.234 37.775C178.184 37.6583 178.184 37.4333 178.234 37.1C178.284 36.6333 178.351 36.225 178.434 35.875C178.517 35.5083 178.617 35.0917 178.734 34.625C178.767 34.425 178.859 34.0833 179.009 33.6C179.176 33.1167 179.376 32.5917 179.609 32.025C179.842 31.4583 180.076 30.925 180.309 30.425C180.542 29.9083 180.742 29.525 180.909 29.275C181.042 29.175 181.201 29.1333 181.384 29.15C181.584 29.1667 181.751 29.2417 181.884 29.375C182.067 29.525 182.092 29.7917 181.959 30.175C181.842 30.5417 181.592 31.125 181.209 31.925C181.009 32.375 180.859 32.7167 180.759 32.95C180.659 33.1667 180.617 33.3 180.634 33.35C180.651 33.3833 180.726 33.3583 180.859 33.275C180.959 33.0917 181.142 32.8833 181.409 32.65C181.676 32.4 181.959 32.1583 182.259 31.925C182.559 31.6917 182.842 31.4833 183.109 31.3C183.376 31.1167 183.559 31 183.659 30.95C183.792 30.8667 183.942 30.8 184.109 30.75C184.292 30.6833 184.417 30.6333 184.484 30.6C184.867 30.4167 185.259 30.35 185.659 30.4C186.059 30.45 186.309 30.6 186.409 30.85C186.426 30.9833 186.476 31.0833 186.559 31.15C186.659 31.2167 186.709 31.25 186.709 31.25C186.776 31.25 186.809 31.275 186.809 31.325C186.826 31.375 186.834 31.4 186.834 31.4C186.834 31.5167 186.742 31.5917 186.559 31.625C186.392 31.6417 186.176 31.6583 185.909 31.675C185.692 31.6917 185.501 31.7333 185.334 31.8C185.167 31.8667 184.967 31.95 184.734 32.05C184.101 32.4167 183.492 32.775 182.909 33.125C182.342 33.475 181.792 33.9417 181.259 34.525C181.142 34.6583 181.026 34.8167 180.909 35C180.792 35.1833 180.667 35.3833 180.534 35.6C180.451 35.6833 180.367 35.8667 180.284 36.15C180.201 36.4333 180.126 36.7083 180.059 36.975C180.009 37.225 179.984 37.375 179.984 37.425C179.984 37.425 179.959 37.5083 179.909 37.675C179.859 37.825 179.776 37.975 179.659 38.125C179.459 38.3917 179.292 38.525 179.159 38.525C179.026 38.525 178.826 38.3917 178.559 38.125ZM187.493 37.825C187.326 37.725 187.201 37.625 187.118 37.525C187.034 37.425 186.993 37.2833 186.993 37.1C186.993 36.85 187.026 36.5917 187.093 36.325C187.159 36.0417 187.226 35.7667 187.293 35.5C187.326 35.2 187.368 34.9 187.418 34.6C187.484 34.2833 187.601 33.9917 187.768 33.725C187.951 33.0917 188.143 32.4667 188.343 31.85C188.543 31.2167 188.718 30.5667 188.868 29.9C189.084 29.2833 189.276 28.7417 189.443 28.275C189.626 27.7917 189.851 27.1833 190.118 26.45C190.268 26.0333 190.393 25.5917 190.493 25.125C190.609 24.6417 190.784 24.2083 191.018 23.825C191.118 23.675 191.193 23.55 191.243 23.45C191.309 23.3333 191.376 23.225 191.443 23.125C191.459 23.0583 191.509 23.0167 191.593 23C191.693 22.9833 191.801 22.9917 191.918 23.025C192.034 23.0583 192.126 23.1167 192.193 23.2C192.243 23.1833 192.301 23.2333 192.368 23.35C192.451 23.45 192.526 23.5667 192.593 23.7C192.659 23.8333 192.684 23.95 192.668 24.05C192.668 24.1167 192.651 24.2083 192.618 24.325C192.601 24.4417 192.559 24.55 192.493 24.65C192.426 24.7167 192.359 24.8167 192.293 24.95C192.243 25.0667 192.159 25.2333 192.043 25.45C191.976 25.6667 191.918 25.8917 191.868 26.125C191.818 26.3417 191.751 26.5417 191.668 26.725C191.601 26.925 191.518 27.1167 191.418 27.3C191.334 27.4833 191.276 27.6333 191.243 27.75C191.126 28.1333 190.984 28.5083 190.818 28.875C190.668 29.2417 190.534 29.6333 190.418 30.05C190.301 30.45 190.184 30.8667 190.068 31.3C189.951 31.7167 189.784 32.1167 189.568 32.5C189.451 32.6833 189.368 32.9167 189.318 33.2C189.268 33.4833 189.218 33.7667 189.168 34.05C189.068 34.35 188.976 34.6333 188.893 34.9C188.826 35.15 188.793 35.3083 188.793 35.375C188.693 35.7417 188.618 36.1083 188.568 36.475C188.534 36.825 188.451 37.1333 188.318 37.4C188.301 37.5667 188.268 37.7 188.218 37.8C188.168 37.9 188.084 37.9583 187.968 37.975C187.851 37.975 187.693 37.925 187.493 37.825ZM193.066 44.75C193.05 44.7833 192.975 44.75 192.841 44.65C192.725 44.55 192.608 44.425 192.491 44.275C192.375 44.1417 192.325 44.025 192.341 43.925C192.275 43.6917 192.283 43.4 192.366 43.05C192.466 42.7167 192.675 42.2167 192.991 41.55C193.158 41.2833 193.308 40.9667 193.441 40.6C193.591 40.2333 193.758 39.8667 193.941 39.5C194.025 39.35 194.208 39.025 194.491 38.525C194.775 38.025 195.075 37.4583 195.391 36.825C195.725 36.1917 196 35.5917 196.216 35.025C195.783 35.475 195.383 35.9333 195.016 36.4C194.65 36.85 194.308 37.2167 193.991 37.5C193.691 37.7833 193.408 37.9167 193.141 37.9C192.925 37.85 192.691 37.775 192.441 37.675C192.208 37.5583 192.05 37.3583 191.966 37.075C191.9 36.7083 191.875 36.2417 191.891 35.675C191.925 35.1083 192.033 34.25 192.216 33.1C192.35 32.5333 192.425 32.1 192.441 31.8C192.475 31.4833 192.466 31.25 192.416 31.1C192.366 30.95 192.275 30.8167 192.141 30.7C191.925 30.5 191.808 30.325 191.791 30.175C191.791 30.0083 191.908 29.8667 192.141 29.75C192.491 29.6667 192.741 29.6417 192.891 29.675C193.041 29.6917 193.225 29.825 193.441 30.075C193.575 30.2917 193.691 30.5 193.791 30.7C193.908 30.8833 193.966 31.2083 193.966 31.675C193.966 31.875 193.933 32.1417 193.866 32.475C193.816 32.8083 193.766 33.125 193.716 33.425C193.683 33.7083 193.658 33.9083 193.641 34.025C193.475 34.6417 193.366 35.175 193.316 35.625C193.283 36.075 193.308 36.3 193.391 36.3C193.725 36.0333 194.041 35.7333 194.341 35.4C194.658 35.05 194.983 34.6583 195.316 34.225C195.666 33.775 196.05 33.2667 196.466 32.7C196.616 32.4167 196.766 32.1417 196.916 31.875C197.066 31.6083 197.191 31.3333 197.291 31.05C197.391 30.8333 197.491 30.6583 197.591 30.525C197.691 30.3917 197.775 30.3167 197.841 30.3C197.925 30.2667 198.025 30.275 198.141 30.325C198.275 30.375 198.391 30.4333 198.491 30.5C198.608 30.55 198.666 30.5917 198.666 30.625C198.683 30.6417 198.725 30.6583 198.791 30.675C198.858 30.6917 198.925 30.7083 198.991 30.725C199.075 30.725 199.116 30.75 199.116 30.8C199.116 30.8333 199.075 30.9417 198.991 31.125C198.925 31.3083 198.841 31.5167 198.741 31.75C198.658 31.9667 198.583 32.1667 198.516 32.35C198.45 32.5167 198.425 32.6167 198.441 32.65C198.475 32.6833 198.45 32.8083 198.366 33.025C198.283 33.225 198.183 33.45 198.066 33.7C197.966 33.95 197.875 34.175 197.791 34.375C197.625 34.925 197.433 35.475 197.216 36.025C197 36.5583 196.741 37.0917 196.441 37.625C196.341 37.825 196.191 38.1333 195.991 38.55C195.808 38.9667 195.625 39.375 195.441 39.775C195.275 40.1917 195.141 40.5083 195.041 40.725C194.975 40.8583 194.875 41.0667 194.741 41.35C194.625 41.65 194.491 41.975 194.341 42.325C194.208 42.675 194.075 43 193.941 43.3C193.808 43.6167 193.708 43.8583 193.641 44.025C193.608 44.3417 193.533 44.575 193.416 44.725C193.35 44.725 193.275 44.725 193.191 44.725C193.108 44.7417 193.066 44.75 193.066 44.75ZM207.817 37.875C207.567 37.875 207.333 37.725 207.117 37.425C206.917 37.1083 206.767 36.7083 206.667 36.225C206.583 35.725 206.558 35.2083 206.592 34.675C206.592 34.1417 206.617 33.7167 206.667 33.4C206.733 33.0667 206.8 32.7417 206.867 32.425C206.917 32.325 206.942 32.2417 206.942 32.175C206.958 32.1083 206.975 32 206.992 31.85C207.025 31.7 207.083 31.45 207.167 31.1C207.233 30.8167 207.3 30.5833 207.367 30.4C207.433 30.2167 207.5 30.0917 207.567 30.025C207.65 29.925 207.758 29.8667 207.892 29.85C208.025 29.8167 208.158 29.825 208.292 29.875C208.425 29.925 208.533 30.0167 208.617 30.15C208.717 30.2333 208.767 30.425 208.767 30.725C208.783 31.0083 208.767 31.3083 208.717 31.625C208.667 31.925 208.592 32.1417 208.492 32.275C208.458 32.3583 208.417 32.575 208.367 32.925C208.333 33.275 208.292 33.6417 208.242 34.025C208.208 34.4083 208.167 34.7167 208.117 34.95C208.067 35.25 208.092 35.4917 208.192 35.675C208.308 35.8583 208.517 35.8667 208.817 35.7C209.133 35.5167 209.55 35.05 210.067 34.3C210.417 33.8 210.683 33.3917 210.867 33.075C211.05 32.7583 211.192 32.4667 211.292 32.2C211.408 31.9167 211.525 31.6167 211.642 31.3C211.725 31.0333 211.8 30.8167 211.867 30.65C211.95 30.4667 212.025 30.35 212.092 30.3C212.208 30.2167 212.342 30.1833 212.492 30.2C212.658 30.2167 212.842 30.2917 213.042 30.425C213.242 30.625 213.342 30.8667 213.342 31.15C213.342 31.4167 213.242 31.75 213.042 32.15C212.908 32.4167 212.775 32.7583 212.642 33.175C212.525 33.5917 212.425 34.0167 212.342 34.45C212.275 34.8667 212.242 35.2083 212.242 35.475C212.242 35.8083 212.283 36.0083 212.367 36.075C212.467 36.125 212.583 36.15 212.717 36.15C212.917 36.15 213.158 36.075 213.442 35.925C213.725 35.775 214.042 35.5167 214.392 35.15C214.542 35 214.725 34.7833 214.942 34.5C215.158 34.2 215.367 33.8917 215.567 33.575C215.783 33.2417 215.958 32.95 216.092 32.7C216.242 32.45 216.317 32.2917 216.317 32.225C216.317 32.125 216.392 31.9833 216.542 31.8C216.642 31.6667 216.717 31.5667 216.767 31.5C216.833 31.4167 216.95 31.3333 217.117 31.25C217.25 31.1833 217.367 31.175 217.467 31.225C217.567 31.2583 217.675 31.3417 217.792 31.475C217.875 31.5417 217.917 31.6417 217.917 31.775C217.933 31.9083 217.942 32.075 217.942 32.275C217.892 32.4583 217.808 32.7 217.692 33C217.592 33.2833 217.475 33.5583 217.342 33.825C217.225 34.075 217.125 34.25 217.042 34.35C216.975 34.4167 216.858 34.5417 216.692 34.725C216.525 34.8917 216.375 35.075 216.242 35.275C215.825 35.775 215.525 36.1 215.342 36.25C215.158 36.4 215 36.5417 214.867 36.675C214.517 37.025 214.15 37.2917 213.767 37.475C213.383 37.6417 213.017 37.725 212.667 37.725C212.333 37.725 212.05 37.6417 211.817 37.475C211.3 37.2083 211.042 36.7583 211.042 36.125C211.042 35.9917 211.017 35.875 210.967 35.775C210.933 35.6583 210.917 35.6 210.917 35.6C210.85 35.6 210.758 35.6167 210.642 35.65C210.542 35.6833 210.433 35.8 210.317 36C210.167 36.2833 209.925 36.575 209.592 36.875C209.275 37.1583 208.95 37.4 208.617 37.6C208.283 37.7833 208.017 37.875 207.817 37.875ZM220.532 38.625C220.315 38.625 220.14 38.5833 220.007 38.5C219.89 38.4167 219.74 38.3 219.557 38.15C219.24 37.8167 219.015 37.5 218.882 37.2C218.748 36.8833 218.707 36.5833 218.757 36.3C218.807 36.1667 218.823 36.0417 218.807 35.925C218.807 35.7917 218.807 35.725 218.807 35.725C218.723 35.6417 218.698 35.5917 218.732 35.575C218.765 35.5417 218.798 35.4917 218.832 35.425C218.932 35.425 218.965 35.3333 218.932 35.15C218.898 35.0167 218.965 34.725 219.132 34.275C219.298 33.825 219.507 33.4 219.757 33C219.857 32.8333 220.007 32.6167 220.207 32.35C220.407 32.0667 220.623 31.7917 220.857 31.525C221.107 31.2417 221.332 31.0167 221.532 30.85C221.948 30.5 222.315 30.2417 222.632 30.075C222.948 29.9083 223.29 29.7833 223.657 29.7C224.023 29.6167 224.273 29.575 224.407 29.575C224.557 29.575 224.757 29.7083 225.007 29.975C225.39 30.1417 225.665 30.3417 225.832 30.575C226.015 30.8083 226.132 31.15 226.182 31.6C226.232 32.1 226.19 32.675 226.057 33.325C225.94 33.9583 225.548 34.75 224.882 35.7C224.465 36.3 224.082 36.75 223.732 37.05C223.382 37.3333 222.965 37.6167 222.482 37.9C222.132 38.1333 221.815 38.3083 221.532 38.425C221.248 38.525 220.915 38.5917 220.532 38.625ZM222.932 35.975C223.332 35.525 223.648 35.1 223.882 34.7C224.132 34.3 224.365 33.7917 224.582 33.175C224.648 32.9917 224.69 32.7667 224.707 32.5C224.723 32.2167 224.715 31.9583 224.682 31.725C224.665 31.475 224.607 31.3333 224.507 31.3C224.307 31.1833 224.065 31.15 223.782 31.2C223.498 31.2333 223.19 31.3917 222.857 31.675C222.34 32.1083 221.89 32.65 221.507 33.3C221.123 33.9333 220.748 34.6583 220.382 35.475C220.132 36.075 220.073 36.5583 220.207 36.925C220.357 37.275 220.665 37.4 221.132 37.3C221.615 37.1833 222.215 36.7417 222.932 35.975ZM229.145 38.225C229.095 38.2417 229.012 38.2333 228.895 38.2C228.778 38.1667 228.662 38.125 228.545 38.075C228.428 38.025 228.353 37.9833 228.32 37.95C228.253 37.8833 228.187 37.7833 228.12 37.65C228.07 37.5167 228.07 37.325 228.12 37.075C228.17 36.8083 228.337 36.4667 228.62 36.05C228.703 35.8833 228.803 35.6333 228.92 35.3C229.037 34.9667 229.153 34.6167 229.27 34.25C229.403 33.8667 229.52 33.525 229.62 33.225C229.737 32.925 229.82 32.7167 229.87 32.6C229.903 32.3167 229.887 32.1167 229.82 32C229.77 31.8667 229.628 31.7917 229.395 31.775C229.228 31.775 229.095 31.7583 228.995 31.725C228.912 31.6917 228.87 31.525 228.87 31.225C228.903 30.9917 228.962 30.8333 229.045 30.75C229.145 30.65 229.278 30.5417 229.445 30.425C229.612 30.3417 229.778 30.2833 229.945 30.25C230.128 30.2167 230.303 30.2083 230.47 30.225C230.637 30.2417 230.77 30.3 230.87 30.4C230.987 30.4667 231.062 30.6167 231.095 30.85C231.128 31.0667 231.145 31.2917 231.145 31.525C231.162 31.7583 231.178 31.9333 231.195 32.05C231.362 31.9167 231.587 31.7333 231.87 31.5C232.17 31.25 232.428 31.0167 232.645 30.8C232.912 30.6167 233.228 30.4333 233.595 30.25C233.962 30.05 234.228 29.95 234.395 29.95C234.578 29.95 234.762 30 234.945 30.1C235.128 30.1833 235.253 30.2917 235.32 30.425C235.487 30.7083 235.562 30.9583 235.545 31.175C235.545 31.3917 235.453 31.6167 235.27 31.85C235.103 32.0667 234.895 32.2167 234.645 32.3C234.412 32.3833 234.262 32.425 234.195 32.425C234.095 32.425 233.97 32.35 233.82 32.2C233.67 32.05 233.587 31.925 233.57 31.825C233.57 31.775 233.462 31.825 233.245 31.975C233.045 32.1083 232.82 32.2833 232.57 32.5C232.32 32.7 232.112 32.8833 231.945 33.05C231.662 33.4 231.362 33.875 231.045 34.475C230.728 35.075 230.353 35.8 229.92 36.65C229.72 37.0667 229.578 37.425 229.495 37.725C229.412 38.0083 229.295 38.175 229.145 38.225ZM243.079 39.05C243.012 39.1167 242.829 39.1417 242.529 39.125C242.246 39.1083 241.979 39.0417 241.729 38.925C241.696 38.875 241.637 38.825 241.554 38.775C241.471 38.7083 241.387 38.6333 241.304 38.55C241.237 38.4667 241.179 38.3917 241.129 38.325C241.096 38.275 241.012 38.1833 240.879 38.05C240.746 37.9 240.612 37.7583 240.479 37.625C240.346 37.4917 240.254 37.4 240.204 37.35C240.137 37.2167 240.004 37.05 239.804 36.85C239.604 36.6333 239.412 36.4333 239.229 36.25C239.112 36.0833 238.996 35.9417 238.879 35.825C238.762 35.7083 238.662 35.625 238.579 35.575C238.496 35.5083 238.429 35.475 238.379 35.475C238.379 35.475 238.346 35.5833 238.279 35.8C238.229 36 238.154 36.2583 238.054 36.575C237.971 36.875 237.879 37.1833 237.779 37.5C237.696 37.8 237.629 38.0417 237.579 38.225C237.462 38.4583 237.362 38.6167 237.279 38.7C237.196 38.7833 237.087 38.825 236.954 38.825C236.771 38.825 236.604 38.7417 236.454 38.575C236.321 38.4083 236.254 38.1667 236.254 37.85C236.187 37.6167 236.271 37.1083 236.504 36.325C236.737 35.5417 237.096 34.5417 237.579 33.325C237.646 33.075 237.729 32.8167 237.829 32.55C237.929 32.2667 238.012 32.0333 238.079 31.85C238.246 31.3 238.421 30.7917 238.604 30.325C238.804 29.8417 239.012 29.3583 239.229 28.875C239.446 28.375 239.671 27.8417 239.904 27.275C240.054 26.975 240.162 26.7583 240.229 26.625C240.296 26.475 240.371 26.325 240.454 26.175C240.537 26.0083 240.662 25.7667 240.829 25.45C241.196 24.7667 241.487 24.2333 241.704 23.85C241.921 23.4667 242.087 23.1833 242.204 23C242.321 22.8167 242.421 22.6833 242.504 22.6C242.587 22.5167 242.687 22.4583 242.804 22.425C242.921 22.3917 243.037 22.3917 243.154 22.425C243.271 22.4417 243.371 22.5 243.454 22.6C243.587 22.7333 243.662 22.875 243.679 23.025C243.712 23.1583 243.679 23.3417 243.579 23.575C243.496 23.8083 243.329 24.1333 243.079 24.55C242.946 24.85 242.837 25.0667 242.754 25.2C242.671 25.3333 242.587 25.4667 242.504 25.6C242.421 25.7333 242.287 25.9667 242.104 26.3C242.071 26.4 242.021 26.5083 241.954 26.625C241.887 26.7417 241.812 26.8 241.729 26.8C241.729 26.85 241.704 26.95 241.654 27.1C241.604 27.25 241.546 27.3917 241.479 27.525C241.429 27.7083 241.346 27.9083 241.229 28.125C241.129 28.325 241.054 28.4917 241.004 28.625C240.921 28.825 240.787 29.1 240.604 29.45C240.437 29.8 240.271 30.1417 240.104 30.475C239.954 30.7917 239.862 31.0417 239.829 31.225C239.829 31.2917 239.879 31.2833 239.979 31.2C240.079 31.1167 240.187 31.0417 240.304 30.975C240.554 30.775 240.837 30.575 241.154 30.375C241.487 30.1583 241.804 29.975 242.104 29.825C242.421 29.6583 242.679 29.5583 242.879 29.525C243.129 29.4583 243.329 29.425 243.479 29.425C243.646 29.425 243.812 29.4583 243.979 29.525C244.112 29.5917 244.221 29.6833 244.304 29.8C244.404 29.9167 244.487 30.05 244.554 30.2C244.637 30.35 244.696 30.5333 244.729 30.75C244.729 30.9 244.671 31.15 244.554 31.5C244.437 31.85 244.296 32.1917 244.129 32.525C243.962 32.8417 243.796 33.0667 243.629 33.2C243.512 33.25 243.421 33.3 243.354 33.35C243.287 33.4 243.254 33.425 243.254 33.425C243.254 33.4917 243.221 33.575 243.154 33.675C243.104 33.775 243.012 33.8583 242.879 33.925C242.812 33.9917 242.737 34.075 242.654 34.175C242.571 34.275 242.529 34.35 242.529 34.4C242.529 34.4 242.529 34.425 242.529 34.475C242.529 34.5083 242.529 34.525 242.529 34.525C242.462 34.525 242.362 34.575 242.229 34.675C242.112 34.775 241.962 34.8917 241.779 35.025C241.596 35.2083 241.462 35.3083 241.379 35.325C241.312 35.3417 241.212 35.375 241.079 35.425C241.046 35.4583 241.004 35.4833 240.954 35.5C240.921 35.5167 240.879 35.5333 240.829 35.55C240.796 35.5667 240.762 35.5833 240.729 35.6C240.712 35.6167 240.704 35.6417 240.704 35.675C240.704 35.7417 240.779 35.8833 240.929 36.1C241.096 36.3 241.287 36.525 241.504 36.775C241.737 37.025 241.954 37.2583 242.154 37.475C242.371 37.675 242.529 37.8083 242.629 37.875C242.796 37.9417 242.912 38.0583 242.979 38.225C243.062 38.375 243.112 38.5333 243.129 38.7C243.146 38.85 243.129 38.9667 243.079 39.05ZM240.079 34.625C240.162 34.5583 240.337 34.425 240.604 34.225C240.871 34.0083 241.162 33.775 241.479 33.525C241.796 33.2583 242.079 33.0083 242.329 32.775C242.596 32.525 242.779 32.3417 242.879 32.225C242.996 32.1083 243.112 31.9083 243.229 31.625C243.346 31.3417 243.362 31.1167 243.279 30.95C243.262 30.8833 243.112 30.9167 242.829 31.05C242.546 31.1833 242.221 31.3417 241.854 31.525C241.571 31.6917 241.237 31.9083 240.854 32.175C240.487 32.4417 240.137 32.725 239.804 33.025C239.487 33.325 239.246 33.6167 239.079 33.9C239.046 34.0167 239.079 34.15 239.179 34.3C239.279 34.45 239.412 34.5667 239.579 34.65C239.746 34.7167 239.912 34.7083 240.079 34.625ZM248.16 39.075C247.426 39.075 246.826 38.8 246.36 38.25C245.893 37.6833 245.668 36.9833 245.685 36.15C245.718 35.55 245.835 34.9083 246.035 34.225C246.251 33.525 246.535 32.8583 246.885 32.225C247.235 31.575 247.618 31.0083 248.035 30.525C248.451 30.0417 248.885 29.7 249.335 29.5C249.501 29.4167 249.676 29.35 249.86 29.3C250.06 29.25 250.26 29.225 250.46 29.225C250.643 29.225 250.835 29.2583 251.035 29.325C251.235 29.375 251.401 29.4333 251.535 29.5C251.818 29.6167 252.035 29.7583 252.185 29.925C252.335 30.0917 252.468 30.35 252.585 30.7C252.635 31.0167 252.66 31.2417 252.66 31.375C252.66 31.5083 252.618 31.7083 252.535 31.975C252.335 32.575 252.076 33.0917 251.76 33.525C251.443 33.9583 251.018 34.325 250.485 34.625C250.351 34.7083 250.193 34.775 250.01 34.825C249.843 34.8583 249.668 34.875 249.485 34.875C249.151 34.875 248.826 34.8167 248.51 34.7C248.21 34.5667 247.968 34.375 247.785 34.125L247.61 33.925L247.535 34.125C247.368 34.575 247.235 34.9917 247.135 35.375C247.051 35.7583 247.01 36.1083 247.01 36.425C247.01 36.625 247.026 36.8167 247.06 37C247.11 37.1833 247.176 37.3417 247.26 37.475C247.326 37.575 247.435 37.65 247.585 37.7C247.751 37.7333 247.926 37.75 248.11 37.75C248.226 37.75 248.343 37.75 248.46 37.75C248.593 37.7333 248.718 37.7 248.835 37.65C249.118 37.55 249.343 37.4417 249.51 37.325C249.693 37.2083 249.876 37.0833 250.06 36.95L250.16 36.9H250.135C250.335 36.8 250.51 36.7 250.66 36.6C250.826 36.5 250.91 36.45 250.91 36.45C250.976 36.45 251.043 36.4083 251.11 36.325C251.243 36.2583 251.41 36.2833 251.61 36.4C251.826 36.5167 251.935 36.6667 251.935 36.85C251.918 36.9333 251.843 37.0667 251.71 37.25C251.576 37.4167 251.426 37.575 251.26 37.725C251.11 37.875 250.985 37.9583 250.885 37.975C250.868 37.9917 250.81 38.025 250.71 38.075C250.61 38.1083 250.543 38.1417 250.51 38.175H250.535C250.385 38.375 250.235 38.475 250.085 38.475H249.885C249.818 38.5917 249.601 38.725 249.235 38.875C248.868 39.0083 248.51 39.075 248.16 39.075ZM249.285 33.575C249.585 33.575 249.843 33.4917 250.06 33.325C250.293 33.1417 250.493 32.9417 250.66 32.725C250.993 32.275 251.185 31.8417 251.235 31.425C251.301 30.9917 251.251 30.6917 251.085 30.525C250.985 30.475 250.893 30.45 250.81 30.45C250.743 30.4333 250.601 30.4583 250.385 30.525C250.235 30.5583 250.026 30.6833 249.76 30.9C249.493 31.1167 249.226 31.3583 248.96 31.625C248.71 31.8917 248.518 32.1167 248.385 32.3L248.06 32.825C248.193 32.775 248.318 32.75 248.435 32.75C248.568 32.7333 248.643 32.7417 248.66 32.775C248.66 32.925 248.685 33.0667 248.735 33.2C248.801 33.3167 248.876 33.4083 248.96 33.475C249.06 33.5417 249.168 33.575 249.285 33.575ZM254.365 38.125C254.215 38.0083 254.106 37.8917 254.04 37.775C253.99 37.6583 253.99 37.4333 254.04 37.1C254.09 36.6333 254.156 36.225 254.24 35.875C254.323 35.5083 254.423 35.0917 254.54 34.625C254.573 34.425 254.665 34.0833 254.815 33.6C254.981 33.1167 255.181 32.5917 255.415 32.025C255.648 31.4583 255.881 30.925 256.115 30.425C256.348 29.9083 256.548 29.525 256.715 29.275C256.848 29.175 257.006 29.1333 257.19 29.15C257.39 29.1667 257.556 29.2417 257.69 29.375C257.873 29.525 257.898 29.7917 257.765 30.175C257.648 30.5417 257.398 31.125 257.015 31.925C256.815 32.375 256.665 32.7167 256.565 32.95C256.465 33.1667 256.423 33.3 256.44 33.35C256.456 33.3833 256.531 33.3583 256.665 33.275C256.765 33.0917 256.948 32.8833 257.215 32.65C257.481 32.4 257.765 32.1583 258.065 31.925C258.365 31.6917 258.648 31.4833 258.915 31.3C259.181 31.1167 259.365 31 259.465 30.95C259.598 30.8667 259.748 30.8 259.915 30.75C260.098 30.6833 260.223 30.6333 260.29 30.6C260.673 30.4167 261.065 30.35 261.465 30.4C261.865 30.45 262.115 30.6 262.215 30.85C262.231 30.9833 262.281 31.0833 262.365 31.15C262.465 31.2167 262.515 31.25 262.515 31.25C262.581 31.25 262.615 31.275 262.615 31.325C262.631 31.375 262.64 31.4 262.64 31.4C262.64 31.5167 262.548 31.5917 262.365 31.625C262.198 31.6417 261.981 31.6583 261.715 31.675C261.498 31.6917 261.306 31.7333 261.14 31.8C260.973 31.8667 260.773 31.95 260.54 32.05C259.906 32.4167 259.298 32.775 258.715 33.125C258.148 33.475 257.598 33.9417 257.065 34.525C256.948 34.6583 256.831 34.8167 256.715 35C256.598 35.1833 256.473 35.3833 256.34 35.6C256.256 35.6833 256.173 35.8667 256.09 36.15C256.006 36.4333 255.931 36.7083 255.865 36.975C255.815 37.225 255.79 37.375 255.79 37.425C255.79 37.425 255.765 37.5083 255.715 37.675C255.665 37.825 255.581 37.975 255.465 38.125C255.265 38.3917 255.098 38.525 254.965 38.525C254.831 38.525 254.631 38.3917 254.365 38.125ZM265.273 38.775C264.857 38.8083 264.457 38.7833 264.073 38.7C263.707 38.6167 263.39 38.475 263.123 38.275C262.873 38.0583 262.698 37.8 262.598 37.5C262.482 37.2667 262.423 37.1083 262.423 37.025C262.423 36.925 262.482 36.8417 262.598 36.775C262.732 36.775 262.848 36.8167 262.948 36.9C263.065 36.9667 263.215 37.0417 263.398 37.125C263.648 37.3417 263.948 37.4583 264.298 37.475C264.665 37.4917 264.998 37.4333 265.298 37.3C265.598 37.1667 265.765 37 265.798 36.8C265.798 36.7333 265.773 36.6167 265.723 36.45C265.673 36.2833 265.615 36.1083 265.548 35.925C265.098 35.2917 264.765 34.6667 264.548 34.05C264.348 33.4167 264.248 32.9 264.248 32.5C264.248 32.2 264.34 31.8833 264.523 31.55C264.707 31.2 264.957 30.9083 265.273 30.675C265.573 30.3583 265.907 30.075 266.273 29.825C266.64 29.575 267.007 29.3583 267.373 29.175C267.757 28.9917 268.098 28.8583 268.398 28.775C268.582 28.775 268.823 28.8 269.123 28.85C269.423 28.9 269.632 28.9583 269.748 29.025C269.932 29.0917 270.107 29.275 270.273 29.575C270.44 29.8583 270.523 30.1417 270.523 30.425C270.523 30.5417 270.49 30.6917 270.423 30.875C270.357 31.0583 270.248 31.275 270.098 31.525C270.032 31.7083 269.957 31.8833 269.873 32.05C269.79 32.2 269.748 32.3083 269.748 32.375C269.665 32.5583 269.548 32.65 269.398 32.65C269.265 32.6333 269.123 32.5583 268.973 32.425C268.84 32.275 268.732 32.1 268.648 31.9C268.582 31.65 268.557 31.45 268.573 31.3C268.59 31.1333 268.657 30.9583 268.773 30.775C268.957 30.5917 269.048 30.4667 269.048 30.4C269.048 30.3333 268.957 30.3 268.773 30.3C268.657 30.3 268.44 30.375 268.123 30.525C267.823 30.6583 267.498 30.8417 267.148 31.075C266.815 31.2917 266.523 31.525 266.273 31.775C265.957 32.075 265.765 32.2917 265.698 32.425C265.648 32.5583 265.623 32.7667 265.623 33.05C265.623 33.2833 265.673 33.575 265.773 33.925C265.89 34.275 266.007 34.5083 266.123 34.625C266.123 34.625 266.182 34.7417 266.298 34.975C266.415 35.1917 266.557 35.425 266.723 35.675C267.207 36.7417 267.332 37.5083 267.098 37.975C266.865 38.4417 266.257 38.7083 265.273 38.775ZM284.724 38.275C284.59 38.2917 284.415 38.2167 284.199 38.05C283.982 37.8833 283.774 37.6917 283.574 37.475C283.424 37.2417 283.299 36.8583 283.199 36.325C283.115 35.7917 283.057 35.2417 283.024 34.675C282.54 35.4083 282.107 36.0083 281.724 36.475C281.34 36.9417 280.99 37.3083 280.674 37.575C280.374 37.825 280.09 37.9917 279.824 38.075C279.674 38.125 279.549 38.125 279.449 38.075C279.349 38.0083 279.265 37.9167 279.199 37.8C279.132 37.6833 279.057 37.5 278.974 37.25C278.907 36.9833 278.882 36.7083 278.899 36.425C278.865 36.075 278.832 35.675 278.799 35.225C278.782 34.775 278.765 34.3333 278.749 33.9C278.749 33.45 278.757 33.05 278.774 32.7C278.79 32.35 278.824 32.1167 278.874 32C278.857 31.9333 278.849 31.8667 278.849 31.8C278.849 31.7333 278.849 31.7 278.849 31.7C278.799 31.6167 278.774 31.4333 278.774 31.15C278.79 30.85 278.824 30.5583 278.874 30.275C278.924 29.9917 278.965 29.8167 278.999 29.75C279.032 29.6833 279.074 29.6333 279.124 29.6C279.19 29.5667 279.265 29.5417 279.349 29.525C279.599 29.575 279.732 29.675 279.749 29.825C279.799 29.8583 279.849 29.9083 279.899 29.975C279.949 30.025 280.007 30.0417 280.074 30.025C280.124 30.0583 280.157 30.2083 280.174 30.475C280.207 30.7417 280.224 31.05 280.224 31.4C280.207 31.5667 280.207 31.725 280.224 31.875C280.24 32.025 280.232 32.1583 280.199 32.275C280.199 32.3583 280.207 32.5417 280.224 32.825C280.24 33.0917 280.257 33.3667 280.274 33.65C280.274 33.8667 280.265 34.1583 280.249 34.525C280.232 34.875 280.224 35.1667 280.224 35.4C280.274 35.7333 280.315 35.95 280.349 36.05C280.399 36.1333 280.474 36.1417 280.574 36.075C280.674 36.0417 280.849 35.825 281.099 35.425C281.365 35.025 281.674 34.525 282.024 33.925C282.29 33.525 282.515 33.1833 282.699 32.9C282.899 32.6 283.065 32.3667 283.199 32.2C283.249 31.8 283.299 31.4417 283.349 31.125C283.415 30.8083 283.457 30.5833 283.474 30.45C283.707 30.2167 283.915 30.0833 284.099 30.05C284.282 30 284.432 30.0917 284.549 30.325C284.715 30.3917 284.815 30.5 284.849 30.65C284.899 30.7833 284.907 30.9417 284.874 31.125C284.807 31.3583 284.74 31.5833 284.674 31.8C284.624 32.0167 284.565 32.2417 284.499 32.475C284.432 32.7083 284.382 33.0833 284.349 33.6C284.332 34.1167 284.332 34.6333 284.349 35.15C284.365 35.65 284.407 36.025 284.474 36.275C284.49 36.425 284.574 36.5 284.724 36.5C284.89 36.4833 285.099 36.3667 285.349 36.15C285.599 35.8833 285.874 35.55 286.174 35.15C286.49 34.7333 286.757 34.35 286.974 34C287.207 33.65 287.324 33.4333 287.324 33.35C287.324 33.2167 287.357 33.075 287.424 32.925C287.49 32.7583 287.574 32.6333 287.674 32.55C287.757 32.45 287.807 32.35 287.824 32.25C287.84 32.1333 287.874 32.0167 287.924 31.9C287.94 31.8667 287.965 31.8167 287.999 31.75C288.032 31.6833 288.057 31.6167 288.074 31.55C288.024 31.4333 288.057 31.3333 288.174 31.25C288.307 31.15 288.39 31.05 288.424 30.95C288.457 30.7333 288.549 30.6083 288.699 30.575C288.865 30.525 289.024 30.5583 289.174 30.675C289.34 30.775 289.432 30.9333 289.449 31.15C289.449 31.35 289.382 31.6417 289.249 32.025C289.132 32.4083 288.965 32.8167 288.749 33.25C288.549 33.6833 288.324 34.075 288.074 34.425C288.007 34.5583 287.94 34.6917 287.874 34.825C287.824 34.9583 287.732 35.1333 287.599 35.35C287.465 35.5667 287.232 35.8833 286.899 36.3C286.799 36.4333 286.682 36.575 286.549 36.725C286.432 36.8583 286.307 36.9833 286.174 37.1C285.89 37.4667 285.632 37.75 285.399 37.95C285.182 38.15 284.957 38.2583 284.724 38.275ZM291.939 38.175C291.739 38.2083 291.522 38.175 291.289 38.075C291.055 37.975 290.847 37.8333 290.664 37.65C290.497 37.4667 290.389 37.275 290.339 37.075C290.272 36.725 290.314 36.2917 290.464 35.775C290.63 35.2417 290.864 34.6833 291.164 34.1C291.48 33.5 291.83 32.925 292.214 32.375C292.614 31.825 293.022 31.35 293.439 30.95C293.872 30.5333 294.272 30.25 294.639 30.1C294.822 29.9833 294.964 29.9083 295.064 29.875C295.18 29.825 295.297 29.8167 295.414 29.85C295.547 29.8833 295.739 29.9667 295.989 30.1C296.222 30.1667 296.397 30.2417 296.514 30.325C296.63 30.4083 296.78 30.575 296.964 30.825C297.097 31.075 297.197 31.325 297.264 31.575C297.33 31.825 297.389 32.1083 297.439 32.425C297.572 32.8417 297.622 33.1167 297.589 33.25C297.555 33.3667 297.505 33.4583 297.439 33.525C297.305 33.6917 297.272 33.775 297.339 33.775C297.339 33.775 297.33 33.8083 297.314 33.875C297.314 33.925 297.28 34.0083 297.214 34.125C297.097 34.4917 297.005 34.875 296.939 35.275C296.889 35.6583 296.897 35.975 296.964 36.225C297.097 36.5917 297.339 36.8083 297.689 36.875C298.039 36.9417 298.397 36.7917 298.764 36.425C298.947 36.2917 299.122 36.175 299.289 36.075C299.455 35.9583 299.539 35.9667 299.539 36.1C299.539 36.1 299.564 36.125 299.614 36.175C299.664 36.2083 299.722 36.225 299.789 36.225C299.872 36.225 299.922 36.2583 299.939 36.325C299.972 36.3917 299.972 36.4833 299.939 36.6C299.922 36.7 299.872 36.8167 299.789 36.95C299.539 37.2 299.414 37.3667 299.414 37.45C299.414 37.45 299.38 37.4833 299.314 37.55C299.264 37.6 299.172 37.6833 299.039 37.8C298.739 37.9833 298.355 38.075 297.889 38.075C297.439 38.075 297.089 37.9833 296.839 37.8C296.589 37.6167 296.355 37.3667 296.139 37.05C295.939 36.7333 295.805 36.4583 295.739 36.225L295.614 35.975L294.889 36.45C294.705 36.6333 294.505 36.8083 294.289 36.975C294.089 37.1417 293.955 37.2583 293.889 37.325C293.839 37.3917 293.78 37.45 293.714 37.5C293.664 37.55 293.605 37.575 293.539 37.575C293.472 37.575 293.414 37.575 293.364 37.575C293.314 37.575 293.289 37.575 293.289 37.575C293.289 37.6417 293.205 37.725 293.039 37.825C292.889 37.925 292.705 38.0083 292.489 38.075C292.289 38.1417 292.105 38.175 291.939 38.175ZM291.689 36.825C291.789 36.825 291.964 36.75 292.214 36.6C292.48 36.4333 292.772 36.2417 293.089 36.025C293.422 35.8083 293.714 35.5917 293.964 35.375C294.23 35.1583 294.414 34.9917 294.514 34.875C294.58 34.8083 294.689 34.7 294.839 34.55C294.989 34.3833 295.122 34.2417 295.239 34.125C295.622 33.6917 295.889 33.2167 296.039 32.7C296.189 32.1667 296.172 31.75 295.989 31.45C295.922 31.2667 295.839 31.1667 295.739 31.15C295.639 31.1333 295.43 31.1917 295.114 31.325C294.914 31.4417 294.664 31.6667 294.364 32C294.08 32.3167 293.772 32.6917 293.439 33.125C293.122 33.5417 292.822 33.975 292.539 34.425C292.255 34.875 292.022 35.2917 291.839 35.675C291.655 36.0583 291.564 36.3583 291.564 36.575C291.564 36.6417 291.58 36.7 291.614 36.75C291.664 36.8 291.689 36.825 291.689 36.825ZM309.493 37.85C309.159 37.85 308.884 37.7833 308.668 37.65C308.451 37.5 308.268 37.2583 308.118 36.925C308.051 36.6917 307.993 36.4333 307.943 36.15C307.909 35.85 307.893 35.575 307.893 35.325C307.893 35.0583 307.918 34.8833 307.968 34.8C308.034 34.7333 308.059 34.6167 308.043 34.45C308.043 34.2667 308.043 34.075 308.043 33.875C308.026 33.5417 307.943 33.3583 307.793 33.325C307.659 33.275 307.459 33.325 307.193 33.475C306.893 33.6583 306.501 33.9083 306.018 34.225C305.534 34.525 305.026 34.8583 304.493 35.225C303.976 35.5917 303.484 35.975 303.018 36.375C302.651 36.775 302.426 37.0833 302.343 37.3C302.276 37.5 302.176 37.6 302.043 37.6C301.909 37.6667 301.793 37.675 301.693 37.625C301.609 37.5583 301.484 37.4583 301.318 37.325C301.201 37.1917 301.084 37.0667 300.968 36.95C300.851 36.8167 300.776 36.7167 300.743 36.65C300.743 36.5667 300.768 36.3917 300.818 36.125C300.868 35.8583 300.926 35.5917 300.993 35.325C301.076 35.0583 301.134 34.8833 301.168 34.8C301.251 34.8 301.318 34.7167 301.368 34.55C301.434 34.3833 301.534 34.2 301.668 34C301.701 33.8 301.784 33.5333 301.918 33.2C302.068 32.85 302.201 32.5417 302.318 32.275C302.551 31.875 302.709 31.5417 302.793 31.275C302.893 31.0083 302.959 30.675 302.993 30.275C302.976 30.2083 302.993 30.15 303.043 30.1C303.093 30.0333 303.151 30 303.218 30C303.351 29.8667 303.509 29.8333 303.693 29.9C303.876 29.95 304.043 30.075 304.193 30.275C304.493 30.675 304.609 31.0917 304.543 31.525C304.493 31.9417 304.226 32.5417 303.743 33.325C303.626 33.5917 303.534 33.8 303.468 33.95C303.418 34.0833 303.393 34.1917 303.393 34.275C303.393 34.275 303.476 34.2167 303.643 34.1C303.826 33.9833 304.026 33.85 304.243 33.7C304.476 33.5333 304.659 33.4083 304.793 33.325C304.876 33.2417 305.068 33.0917 305.368 32.875C305.668 32.6583 305.984 32.45 306.318 32.25C306.668 32.0333 306.926 31.9083 307.093 31.875C307.226 31.8083 307.368 31.75 307.518 31.7C307.668 31.6333 307.776 31.6 307.843 31.6C307.976 31.6 308.143 31.675 308.343 31.825C308.559 31.9583 308.759 32.125 308.943 32.325C309.126 32.5083 309.234 32.6667 309.268 32.8C309.268 32.8667 309.268 32.9333 309.268 33C309.284 33.0667 309.301 33.1333 309.318 33.2C309.384 33.4167 309.418 33.7083 309.418 34.075C309.434 34.4417 309.426 34.775 309.393 35.075C309.359 35.375 309.301 35.55 309.218 35.6C309.218 35.6 309.218 35.625 309.218 35.675C309.234 35.7083 309.276 35.725 309.343 35.725C309.343 35.7917 309.343 35.8333 309.343 35.85C309.259 35.85 309.226 35.925 309.243 36.075C309.259 36.2083 309.309 36.3583 309.393 36.525C309.493 36.6917 309.593 36.825 309.693 36.925C309.893 37.125 309.976 37.3167 309.943 37.5C309.909 37.6667 309.759 37.7833 309.493 37.85ZM315.022 38.95C314.789 38.8833 314.597 38.8083 314.447 38.725C314.297 38.625 314.097 38.4667 313.847 38.25C313.647 37.9833 313.489 37.7333 313.372 37.5C313.272 37.2667 313.206 37 313.172 36.7C313.139 36.3833 313.122 35.9833 313.122 35.5C313.122 35.3 313.156 35 313.222 34.6C313.306 34.2 313.397 33.7833 313.497 33.35C313.614 32.9 313.714 32.5 313.797 32.15C313.897 31.8 313.956 31.575 313.972 31.475C314.022 31.2583 313.939 31.1333 313.722 31.1C313.506 31.0667 313.264 31.0583 312.997 31.075C312.747 31.075 312.581 31.05 312.497 31C312.431 30.9833 312.397 30.9583 312.397 30.925C312.397 30.875 312.397 30.85 312.397 30.85C312.397 30.7833 312.389 30.7417 312.372 30.725C312.372 30.6917 312.347 30.6333 312.297 30.55C312.264 30.4833 312.281 30.3917 312.347 30.275C312.431 30.1417 312.564 30.0583 312.747 30.025C312.897 29.9917 313.097 29.9667 313.347 29.95C313.614 29.9167 313.881 29.8583 314.147 29.775C314.414 29.675 314.631 29.525 314.797 29.325C314.947 28.9583 315.122 28.55 315.322 28.1C315.522 27.65 315.714 27.25 315.897 26.9C316.097 26.5333 316.231 26.3083 316.297 26.225C316.581 26.075 316.789 26.0167 316.922 26.05C317.056 26.0667 317.206 26.2083 317.372 26.475C317.456 26.5917 317.514 26.6833 317.547 26.75C317.597 26.8167 317.606 26.9167 317.572 27.05C317.539 27.1833 317.447 27.3917 317.297 27.675C317.164 27.9583 316.956 28.3667 316.672 28.9C316.589 29.0667 316.514 29.2167 316.447 29.35C316.381 29.4667 316.347 29.525 316.347 29.525C316.414 29.5417 316.514 29.55 316.647 29.55C316.781 29.55 316.947 29.5417 317.147 29.525C317.331 29.4917 317.564 29.4667 317.847 29.45C318.131 29.4167 318.356 29.4167 318.522 29.45C318.906 29.45 319.189 29.525 319.372 29.675C319.556 29.8083 319.656 30.0417 319.672 30.375C319.706 30.5583 319.664 30.6667 319.547 30.7C319.447 30.7333 319.172 30.75 318.722 30.75C318.572 30.75 318.339 30.7583 318.022 30.775C317.706 30.7917 317.372 30.8083 317.022 30.825C316.689 30.8417 316.397 30.8667 316.147 30.9C315.914 30.9167 315.797 30.9417 315.797 30.975C315.747 31.0083 315.664 31.1667 315.547 31.45C315.447 31.7333 315.339 32.0583 315.222 32.425C315.122 32.775 315.031 33.0917 314.947 33.375C314.831 33.9417 314.739 34.5083 314.672 35.075C314.622 35.6417 314.614 36.1333 314.647 36.55C314.681 36.9667 314.772 37.2583 314.922 37.425C315.072 37.575 315.364 37.6083 315.797 37.525C316.231 37.425 316.581 37.2667 316.847 37.05C317.147 36.8 317.389 36.675 317.572 36.675C317.772 36.675 317.881 36.7667 317.897 36.95C317.931 37.1167 317.839 37.3583 317.622 37.675C317.422 37.975 317.172 38.2417 316.872 38.475C316.572 38.6917 316.256 38.85 315.922 38.95C315.606 39.0333 315.306 39.0333 315.022 38.95Z" fill="black"/>
<path d="M16.2352 78.0815C16.5084 78.0412 16.6971 77.787 16.6567 77.5138L15.9987 73.0622C15.9584 72.789 15.7042 72.6003 15.431 72.6407C15.1578 72.681 14.9691 72.9352 15.0095 73.2084L15.5944 77.1654L11.6374 77.7503C11.3642 77.7907 11.1755 78.0448 11.2158 78.318C11.2562 78.5912 11.5104 78.7799 11.7836 78.7395L16.2352 78.0815ZM17.5684 36.0127C11.6798 38.7532 4.43805 44.1517 2.08836 51.4678C0.906602 55.1474 0.972171 59.2869 3.03866 63.7611C5.09939 68.2229 9.13864 72.9951 15.8641 77.9884L16.4602 77.1855C9.81695 72.2532 5.9141 67.602 3.94651 63.3418C1.98467 59.0942 1.93571 55.2134 3.04046 51.7736C5.26381 44.8509 12.1993 39.6145 17.9903 36.9193L17.5684 36.0127Z" fill="black"/>
</svg>
