<svg width="17" height="54" viewBox="0 0 17 54" fill="none" xmlns="http://www.w3.org/2000/svg">
<path d="M16.3843 53.619C16.6595 53.5966 16.8645 53.3553 16.8421 53.08L16.477 48.5949C16.4546 48.3196 16.2133 48.1147 15.9381 48.1371C15.6629 48.1595 15.4579 48.4008 15.4803 48.676L15.8048 52.6628L11.818 52.9873C11.5428 53.0097 11.3378 53.251 11.3602 53.5262C11.3826 53.8015 11.6239 54.0064 11.8991 53.984L16.3843 53.619ZM15.1347 0.588265C9.50519 4.46418 2.76882 11.766 0.927096 21.0942C-0.924618 30.4731 2.19699 41.7595 16.02 53.5017L16.6675 52.7395C3.04759 41.17 0.143415 30.2263 1.90816 21.2879C3.68289 12.2989 10.2052 5.19631 15.7018 1.41192L15.1347 0.588265Z" fill="black"/>
</svg>
