<svg width="32" height="30" viewBox="0 0 32 30" fill="none" xmlns="http://www.w3.org/2000/svg">
<path d="M31.4244 4.57908C31.8035 4.80482 31.9279 5.29519 31.7022 5.67436L28.0235 11.8533C27.7978 12.2324 27.3074 12.3568 26.9283 12.1311C26.5491 11.9053 26.4247 11.4149 26.6505 11.0358L29.9203 5.54343L24.428 2.27354C24.0488 2.0478 23.9245 1.55743 24.1502 1.17826C24.3759 0.799095 24.8663 0.674716 25.2455 0.900455L31.4244 4.57908ZM16.9014 21.7244L16.1117 21.6029L16.9014 21.7244ZM0.719235 27.4001C1.14697 27.2917 1.58166 27.5505 1.69015 27.9782C1.79864 28.4059 1.53985 28.8406 1.11211 28.9491L0.719235 27.4001ZM17.6911 21.8459C17.3178 24.2722 15.987 25.9483 14.2507 27.0673C12.5397 28.1699 10.4392 28.7327 8.45658 29.0077C6.46508 29.2839 4.53257 29.2777 3.11373 29.2014C2.40263 29.1631 1.81498 29.107 1.40641 29.0584C1.20282 29.0342 1.03991 29.0115 0.926115 28.9931C0.871817 28.9843 0.817752 28.9748 0.77292 28.965C0.760513 28.9623 0.708646 28.9513 0.652067 28.9312C0.635583 28.9254 0.602889 28.9133 0.563764 28.8941C0.546366 28.8856 0.432232 28.832 0.326201 28.7166C0.267389 28.6446 0.159386 28.4373 0.125063 28.3C0.117061 28.1225 0.20834 27.8012 0.295946 27.6694C0.369934 27.5904 0.512205 27.4848 0.573706 27.4524C0.615555 27.4341 0.688495 27.4086 0.719235 27.4001L1.11211 28.9491C1.14221 28.9408 1.21463 28.9155 1.25606 28.8974C1.31715 28.8652 1.45912 28.7598 1.53292 28.6811C1.62034 28.5495 1.71155 28.2284 1.70359 28.0512C1.66931 27.9141 1.56146 27.7071 1.50291 27.6354C1.39741 27.5206 1.28426 27.4676 1.2683 27.4598C1.2306 27.4413 1.19978 27.43 1.18562 27.4249C1.1558 27.4144 1.13319 27.4086 1.12785 27.4072C1.11942 27.405 1.11416 27.4039 1.11369 27.4038C1.11275 27.4036 1.11775 27.4047 1.13085 27.407C1.14317 27.4093 1.15975 27.4121 1.18088 27.4155C1.26674 27.4294 1.40661 27.4492 1.59505 27.4716C1.97052 27.5162 2.52387 27.5693 3.19953 27.6057C4.55422 27.6785 6.3783 27.6827 8.23703 27.4248C10.1047 27.1658 11.948 26.6501 13.385 25.724C14.7967 24.8143 15.818 23.5115 16.1117 21.6029L17.6911 21.8459ZM31.2121 6.0401C24.5768 7.72308 21.5287 10.1034 19.963 12.7175C18.3526 15.4061 18.2163 18.4322 17.6911 21.8459L16.1117 21.6029C16.6005 18.4252 16.7729 14.9336 18.592 11.8964C20.4557 8.78489 23.9577 6.23149 30.8192 4.49115L31.2121 6.0401Z" fill="black"/>
</svg>
