<svg width="357" height="181" viewBox="0 0 357 181" fill="none" xmlns="http://www.w3.org/2000/svg">
<path d="M-20.4603 165.545C-24.768 167.073 -28.5612 166.811 -31.8422 164.768C-35.1182 162.719 -37.1693 159.721 -37.9946 155.774C-38.8869 151.506 -38.6125 146.25 -37.1764 140.012C-35.7358 133.77 -33.6322 127.094 -30.8708 119.984C-28.1042 112.873 -25.1001 105.877 -21.8596 98.9968C-18.619 92.1163 -15.5716 85.8499 -12.7184 80.1977C-9.86559 74.5436 -7.71616 70.0296 -6.27021 66.6504C-7.20551 67.3252 -8.47265 68.2038 -10.0758 69.2874C-11.6784 70.373 -13.216 71.3784 -14.6916 72.3C-16.167 73.2271 -17.1547 73.7741 -17.6527 73.9505C-18.3545 74.1991 -18.9852 74.1407 -19.5476 73.7639C-20.1092 73.3902 -20.561 72.9183 -20.8929 72.3503C-21.6835 72.1739 -22.0986 71.9776 -22.1439 71.7637C-22.3343 71.3742 -22.4903 71.0255 -22.6062 70.7229C-22.7211 70.42 -22.8014 70.1632 -22.8461 69.947C-23.2027 68.2431 -22.5281 67.115 -20.8135 66.5628C-19.0985 66.0127 -17.4228 65.2744 -15.7857 64.3511C-14.1487 63.4277 -12.5078 62.2725 -10.8592 60.8846C-9.21491 59.5009 -8.35833 58.4498 -8.29266 57.7407C-8.04679 56.8531 -7.87342 56.3878 -7.77216 56.3513C-7.47203 56.2447 -7.02306 56.6012 -6.42113 57.4199C-6.15565 57.6694 -5.94174 58.1694 -5.78622 58.9139C-5.60696 59.77 -5.64385 60.6405 -5.88456 61.5269L-3.12896 60.0348C-0.548117 53.8507 2.17243 47.4401 5.03827 40.8081C7.90021 34.1782 10.6262 27.7956 13.2175 21.6611C15.8092 15.5287 18.1444 10.088 20.2198 5.33966C22.295 0.594655 23.8029 -2.86394 24.7478 -5.03171C24.7035 -5.24585 24.5792 -5.31782 24.3804 -5.24778C23.9787 -5.10572 23.3252 -4.1256 22.4099 -2.31169C20.2196 2.13373 18.0103 6.63777 15.7942 11.2063C13.5729 15.776 11.6973 19.5368 10.1615 22.4869C8.62568 25.4369 7.8525 26.8612 7.82947 26.7527C7.80717 26.6473 8.2874 25.3605 9.27744 22.8862C10.2687 20.4172 11.5244 17.4215 13.0499 13.8981C14.5711 10.3801 16.1213 6.85093 17.6945 3.31321C19.269 -0.223736 20.608 -3.22135 21.7065 -5.67305C22.8109 -8.12722 23.4085 -9.37189 23.5097 -9.40841C23.7876 -9.62039 24.3658 -9.56819 25.2377 -9.24809C26.111 -8.92616 26.7709 -8.72813 27.2172 -8.65938C28.1844 -8.6585 29.5565 -8.14015 31.3315 -7.1082C33.1065 -6.07626 34.7061 -4.86808 36.1287 -3.48215C37.5473 -2.09425 38.1673 -0.790819 37.9881 0.416331C36.8512 2.19282 35.3458 4.76395 33.4687 8.12072C31.5872 11.4818 29.4858 15.2061 27.1692 19.2949C24.8469 23.3828 22.5706 27.5424 20.336 31.7737C18.0957 36.0041 16.0151 39.9535 14.0924 43.6147C12.1703 47.2779 10.6937 50.263 9.67364 52.5708C11.5621 51.331 13.7541 49.9806 16.2514 48.5224C18.7435 47.0654 21.2609 45.6004 23.8011 44.1258C26.3465 42.6499 28.6041 41.3624 30.5831 40.2598C32.5521 39.1607 33.8821 38.4312 34.5615 38.0771C34.9406 37.8286 35.4327 37.594 36.0329 37.3809C36.9333 37.0612 37.4291 37.1185 37.517 37.5437C37.6066 37.9717 37.3536 38.5758 36.7678 39.3569C36.177 40.1393 35.452 40.7977 34.5962 41.3282C34.4947 41.3637 33.6633 41.8918 32.1018 42.9017C30.5353 43.9139 28.739 45.0965 26.7074 46.4454C24.6764 47.7964 22.8674 49.0416 21.2752 50.1768C19.939 50.9967 18.1737 52.0788 15.9817 53.4292C13.7901 54.7817 11.8378 55.9897 10.1218 57.055C8.41037 58.1214 7.5667 58.7088 7.58829 58.8111C8.48869 58.4914 10.0222 57.7211 12.1885 56.4938C14.3503 55.2707 16.6309 53.9463 19.0223 52.5236C21.4137 51.1052 23.3927 50.0027 24.9505 49.2202C23.6579 50.2512 21.8862 51.4227 19.6335 52.7362C17.3773 54.0538 15.088 55.4387 12.7563 56.8942C10.4202 58.354 8.49434 59.8117 6.96874 61.2665C6.1904 62.6919 5.31206 64.4073 4.33317 66.4149C3.35452 68.4235 2.21563 70.6872 0.913589 73.2122C1.21372 73.1057 1.47688 73.0738 1.69782 73.1082C4.52473 73.2518 7.33752 73.5733 10.1337 74.071C12.9259 74.5707 15.3071 75.4152 17.277 76.6079C19.2468 77.8006 20.3893 79.6603 20.704 82.185C21.3948 87.555 20.8918 94.1521 19.1895 101.976C20.1243 99.2364 20.8751 96.5087 21.4341 93.7877C21.9937 91.0697 22.3417 88.479 22.474 86.0262C22.8327 90.8272 22.1529 96.0548 20.4278 101.708C18.7028 107.362 16.6031 113.035 14.1369 118.721C15.3496 115.769 16.3592 112.888 17.171 110.081C17.982 107.271 18.6558 104.572 19.1895 101.976C17.4476 107.52 15.4876 112.569 13.3185 117.12C11.1456 121.673 9.68526 124.71 8.92922 126.241C7.5521 128.906 6.01873 131.745 4.33337 134.748C2.648 137.751 1.00125 140.57 -0.596014 143.199C-2.20334 145.832 -3.47721 147.945 -4.43704 149.548C-5.39242 151.147 -5.78513 151.856 -5.60317 151.68C-4.18002 150.257 -2.43789 147.919 -0.372407 144.667C1.6926 141.413 3.66922 138.134 5.5611 134.827C6.64701 132.836 7.82371 130.73 9.08074 128.507C10.3367 126.285 11.5395 124.053 12.6838 121.817C11.5049 124.409 10.3325 127.034 9.16542 129.681C7.99857 132.33 6.67104 135.007 5.19632 137.706C-0.12428 147.27 -4.97984 154.037 -9.36665 157.998C-13.7584 161.962 -17.4535 164.475 -20.4602 165.541L-20.4603 165.545ZM-25.7696 163.302C-23.0692 162.345 -20.2418 160.025 -17.2987 156.346C-14.3563 152.663 -11.5135 148.132 -8.76548 142.747C-6.01749 137.362 -3.44559 131.635 -1.05763 125.575C1.33478 119.511 3.39835 113.565 5.14291 107.733C6.88232 101.903 8.12451 96.6499 8.8672 91.9736C9.61139 87.2992 9.73944 83.7848 9.24819 81.4356C8.78021 79.1959 7.92864 77.8357 6.70015 77.3555C5.47142 76.8744 4.25835 76.6151 3.06502 76.581C2.52171 76.5435 1.96379 76.312 1.39078 75.8846C0.813087 75.4604 0.431019 75.0504 0.245042 74.6566C-2.16144 79.6358 -4.80548 85.2437 -7.69634 91.4824C-10.5927 97.7257 -13.3417 104 -15.9478 110.309C-18.5583 116.622 -20.8054 122.461 -22.6985 127.831C-22.9893 128.507 -23.576 130.177 -24.4731 132.845C-25.3673 135.508 -26.3368 138.604 -27.374 142.124C-28.4165 145.645 -29.2312 149.085 -29.8174 152.446C-30.4044 155.805 -30.4864 158.498 -30.063 160.527C-29.8406 161.592 -29.3449 162.421 -28.5775 163.007C-27.8094 163.596 -26.8728 163.694 -25.7696 163.302ZM12.6827 121.821L14.1358 118.726L14.2527 118.513C13.439 120.292 12.9207 121.391 12.6827 121.821Z" fill="#77389A"/>
<path d="M58.9354 88.8384C56.766 88.232 54.781 87.2456 52.9922 85.8731C51.1994 84.5071 50.307 83.0739 50.3164 81.5799C50.2914 80.4429 50.6237 78.5475 51.307 75.8985C51.9904 73.2504 52.8465 70.2554 53.868 66.9109C54.8903 63.5694 55.9262 60.1651 56.9786 56.6963C58.0276 53.2315 58.9731 50.1442 59.8071 47.4428C59.9392 47.0522 59.7462 47.5501 59.2307 48.9373C58.7146 50.3224 58.0618 52.1014 57.2778 54.2698C56.494 56.4391 55.7632 58.5886 55.0758 60.7236C54.3933 62.8565 53.8874 64.4398 53.567 65.4694C53.455 64.936 53.6699 63.7747 54.2091 61.9744C54.7445 60.1815 55.3817 58.2088 56.1172 56.0561C56.8529 53.9044 57.5517 51.8513 58.2188 49.8955C58.886 47.9397 59.3533 46.5691 59.6217 45.788C57.5849 49.9494 55.2304 54.652 52.5624 59.8946C49.8895 65.1395 47.2333 70.2927 44.5762 75.3626C41.9226 80.4284 39.5706 84.8702 37.5214 88.693C35.466 92.5173 34.0917 95.0677 33.3921 96.3458C30.4857 96.3464 28.2714 95.5282 26.7446 93.89C25.2175 92.2551 24.2575 90.4745 23.8571 88.5541C23.6343 87.487 23.5719 86.4183 23.671 85.3523C24.2569 82.509 25.1449 78.8984 26.3316 74.5245C27.5132 70.1518 28.8036 65.6541 30.2074 61.0314C31.6064 56.4065 32.9058 52.0781 34.1115 48.0435C35.3116 44.008 36.2223 40.9071 36.8447 38.7351C36.5877 38.0261 36.0733 37.2337 35.2983 36.362C34.5232 35.4903 34.0582 34.6811 33.902 33.9335C33.7234 33.0805 34.3361 32.4059 35.7406 31.9084L36.868 31.5089C37.3177 31.3491 37.8682 31.2679 38.5128 31.2689C39.2319 31.1279 40.4024 31.0589 42.0187 31.0565C43.631 31.0604 45.1727 31.3453 46.6379 31.9136C48.0981 32.4841 49.0121 33.6217 49.3684 35.329C49.6142 36.5046 49.5061 37.8026 49.0494 39.2238C48.1611 41.1442 47.1788 43.7825 46.1085 47.1416C45.0337 50.5051 43.9961 54.0236 42.9873 57.7035C41.9841 61.3842 41.0747 64.7721 40.2706 67.8645C39.4621 70.9612 38.9334 73.1808 38.6748 74.5332C39.3669 73.7144 40.5407 71.8675 42.2001 68.9863C43.8546 66.1074 45.7492 62.6858 47.8786 58.7218C50.008 54.7579 52.1609 50.7548 54.3287 46.7223C56.4958 42.6867 58.4619 39.2127 60.2231 36.2927C60.1342 35.8678 60.4168 34.5347 61.0773 32.2931C61.7431 30.0557 62.574 27.612 63.5844 24.9585C64.5858 22.3136 65.4917 20.3283 66.2931 19.0114C67.7067 19.0864 69.2848 19.2989 71.0289 19.655C72.7719 20.0113 74.3231 20.4913 75.687 21.0961C77.0514 21.703 77.8327 22.4843 78.0342 23.4458C78.1238 23.8739 78.0736 24.406 77.8854 25.046C75.6054 31.1266 73.4514 36.7909 71.4275 42.0325C69.4048 47.2792 67.7293 51.6257 66.4069 55.0737C65.0853 58.5249 64.3496 60.6765 64.2049 61.5276C64.8524 60.498 65.5852 59.3769 66.4086 58.1687C67.676 55.9998 69.6125 53.4229 72.2165 50.4361C75.3835 46.5608 79.1151 42.4026 83.406 37.9583C87.6974 33.5161 92.3593 29.4291 97.3862 25.6975C98.2234 25.0542 98.8873 24.6474 99.3912 24.4686C100.292 24.1489 100.574 24.4812 100.242 25.457C99.9055 26.4351 99.3157 27.5913 98.4653 28.9218C97.6156 30.2553 96.6927 31.3858 95.7005 32.3112C90.8959 37.1079 86.4311 42.0154 82.3165 47.027C78.2018 52.0385 74.5617 57.2825 71.4014 62.7587C69.0199 66.8116 66.9524 71.0702 65.1956 75.5299C63.4362 79.9966 61.3471 84.4337 58.9354 88.8384ZM65.8236 59.2338C65.8466 59.3422 66.1294 59.1562 66.674 58.6752C67.2193 58.1973 67.6187 57.7977 67.8745 57.477C69.6235 55.0239 71.9149 52.2344 74.7596 49.105C77.6044 45.9756 80.3997 43.0074 83.1501 40.197C85.8966 37.3929 87.9066 35.418 89.1767 34.2806C89.9074 33.675 90.8764 32.7615 92.0705 31.5355C93.265 30.3116 93.635 29.8928 93.1809 30.2813C91.7647 31.2433 89.8611 32.8065 87.4655 34.9739C85.0648 37.1426 82.5097 39.5965 79.8017 42.332C77.0892 45.0718 74.5658 47.7698 72.2165 50.4361C71.1154 51.8563 70.0804 53.2296 69.1174 54.5429C68.1549 55.8582 67.2547 57.068 66.4086 58.1687C66.2501 58.4549 66.0958 58.7401 65.9407 59.0222L65.8236 59.2338Z" fill="#77389A"/>
<path d="M89.1117 74.525C86.4812 73.2808 84.5609 71.927 83.3409 70.468C82.1208 69.009 81.9636 68.781 81.6288 67.1804C81.4956 66.5413 81.4445 65.9005 81.4716 65.2589C81.4993 64.6203 81.4924 63.9638 81.46 63.2861C81.6291 61.5067 82.2361 58.3701 83.2876 53.8726C84.3388 49.374 83.6055 52.1442 85.2369 46.2934C86.8635 40.4448 88.6524 34.4533 90.5988 28.3168C92.5455 22.1856 94.4484 16.61 96.3017 11.5978C95.4464 12.1303 94.5546 12.6182 93.6233 13.0622C92.6925 13.5082 91.7788 13.8874 90.8784 14.2071C88.3717 15.0961 86.1061 15.6992 84.0726 16.0197C82.044 16.3379 80.8663 16.4976 80.5432 16.4956C79.4966 16.64 78.7174 16.1434 78.2143 15.0014C77.7061 13.8661 77.3667 12.6385 77.2008 11.3207C76.8784 11.3218 76.6417 11.2337 76.5 11.0541C76.3534 10.8767 76.218 10.752 76.0993 10.6809C76.055 10.4668 75.9862 10.2638 75.8882 10.0664C75.7953 9.87225 75.7269 9.66694 75.6816 9.45304C75.4592 8.38795 75.589 7.59455 76.0746 7.07953C76.5551 6.56571 77.1501 6.18033 77.8518 5.9317C78.651 5.64853 79.5434 5.42068 80.5309 5.24229C81.5136 5.06613 82.5078 4.79946 83.5097 4.44427C85.2133 3.84045 86.9755 3.01596 88.8032 1.96374C90.628 0.917628 91.6254 0.0192027 91.7913 -0.726221C91.9575 -1.47498 92.19 -1.90085 92.4904 -2.00639C92.6893 -2.07643 93.1117 -1.59557 93.7585 -0.565073C93.7815 -0.456579 93.8278 -0.360003 93.9023 -0.273215C93.9734 -0.182387 94.0313 -0.0310478 94.0752 0.181037C94.2757 1.14277 94.087 2.30007 93.5102 3.64832L99.9724 1.3572C101.185 -1.59276 102.512 -4.89854 103.95 -8.56221C105.389 -12.2238 110.769 -25.8982 111.305 -27.4626C110.815 -27.7455 110.505 -28.2112 110.37 -28.85C110.192 -29.703 110.241 -30.6371 110.513 -31.6522C110.785 -32.6651 110.874 -33.3829 110.784 -33.8109C110.717 -34.1305 110.567 -34.4783 110.327 -34.8509C110.089 -35.2227 109.933 -35.5724 109.865 -35.8917C109.687 -36.7447 110.048 -37.3327 110.952 -37.6533C111.151 -37.7234 111.672 -37.7923 112.52 -37.8656C113.911 -37.8993 115.769 -37.6413 118.088 -37.0881C120.409 -36.534 122.49 -35.7272 124.326 -34.6584C126.165 -33.5916 126.961 -32.0959 126.718 -30.1768C126.196 -29.0721 125.278 -27.1437 123.971 -24.391C122.665 -21.6332 115.224 -6.22681 114.011 -3.27788C116.673 -4.44898 119.418 -5.59388 122.25 -6.71352C125.084 -7.83134 127.617 -8.84363 129.845 -9.74919C132.079 -10.6549 133.544 -11.2316 134.246 -11.4813C136.051 -12.1216 137.007 -12.1724 137.118 -11.641C137.208 -11.213 136.896 -10.6429 136.186 -9.93473C135.472 -9.22256 134.687 -8.59994 133.831 -8.06943C133.708 -8.13626 132.35 -7.54449 129.765 -6.2817C127.174 -5.01977 124.613 -3.7689 122.076 -2.52608C120.899 -1.99235 119.397 -1.31836 117.576 -0.502C115.756 0.315391 114.009 1.08119 112.326 1.79169L111.859 2.64392C114.039 1.75706 116.489 0.744687 119.215 -0.3936C121.936 -1.52966 124.097 -2.38173 125.699 -2.95006C124.062 -2.02668 121.857 -0.98651 119.088 0.166184C116.319 1.31991 113.675 2.5756 111.16 3.92408C109.647 6.9806 108.024 10.6817 106.293 15.016C104.564 19.3554 102.778 23.9432 100.94 28.7754C99.1024 33.6137 97.3618 38.2972 95.7257 42.8319C94.0945 47.3643 93.9148 46.9463 92.6199 50.4985C91.3154 54.0563 91.0851 53.2283 90.3737 54.97C91.6663 53.939 105.595 43.8316 109.894 38.4095C114.194 32.9895 117.97 28.2701 121.216 24.2528C123.287 21.7988 125.307 19.2229 127.269 16.5199C129.231 13.8199 131.104 11.0625 132.886 8.25355C133.04 7.96961 133.167 7.92504 133.259 8.12152C133.352 8.31775 133.325 8.55839 133.17 8.83925L128.596 16.306C128.782 16.6997 128.919 17.0799 128.997 17.4542L129.247 18.6527C129.448 19.6144 129.512 20.5665 129.439 21.5084C129.371 22.4522 129.036 23.3128 128.446 24.0951C126.988 25.8745 124.814 28.7082 121.915 32.5984C119.016 36.4917 96.7135 61.2291 94.1342 65.3517C91.5495 69.4746 89.8747 72.5328 89.1102 74.5231L89.1117 74.525ZM88.9415 58.914L95.1499 51.5579L89.623 56.7814L88.9415 58.914Z" fill="#77389A"/>
<path d="M146.162 58.5655C143.987 57.9603 142.008 56.9727 140.214 55.6015C138.421 54.2354 137.533 52.8 137.543 51.307C137.518 50.1701 137.85 48.2747 138.534 45.6256C139.213 42.9785 140.068 39.9838 141.095 36.638C142.112 33.2977 143.153 29.8923 144.2 26.4246C145.253 22.9589 146.194 19.8726 147.029 17.1711C147.161 16.7805 146.973 17.2763 146.457 18.6645C145.936 20.0508 145.283 21.8297 144.504 23.9969C143.721 26.1662 142.985 28.3179 142.302 30.4508C141.615 32.5858 141.114 34.1669 140.793 35.1966C140.682 34.6631 140.891 33.5031 141.431 31.7038C141.97 29.9089 142.608 27.936 143.344 25.7843C144.074 23.6338 144.778 21.5794 145.446 19.6236C146.108 17.669 146.576 16.2993 146.843 15.5173C144.811 19.6766 142.457 24.3791 139.789 29.6228C137.116 34.8677 134.456 40.0218 131.803 45.0907C129.149 50.1566 126.792 54.6006 124.743 58.4224C122.693 62.2444 121.313 64.7971 120.614 66.0752C117.707 66.0758 115.493 65.2576 113.97 63.6184C112.443 61.9835 111.479 60.2049 111.078 58.2837C110.855 57.2166 110.793 56.1479 110.892 55.0819C111.482 52.2364 112.366 48.628 113.552 44.2541C114.739 39.8792 116.028 35.3827 117.428 30.761C118.827 26.1361 120.131 21.8065 121.332 17.7731C122.532 13.7376 123.443 10.6367 124.065 8.46468C123.813 7.75345 123.294 6.9633 122.524 6.09043C121.749 5.21875 121.284 4.4095 121.128 3.66191C120.949 2.80891 121.558 2.13628 122.966 1.6368L124.09 1.23823C124.544 1.07731 125.09 0.997276 125.734 0.998289C126.458 0.85507 127.629 0.785982 129.24 0.785821C130.858 0.788579 132.394 1.07467 133.859 1.64296C135.325 2.21125 136.234 3.35105 136.59 5.05833C136.836 6.23397 136.728 7.53195 136.275 8.95217C135.383 10.8746 134.405 13.5109 133.329 16.8712C132.259 20.2324 131.217 23.7532 130.213 27.4319C129.205 31.1148 128.3 34.5005 127.491 37.5951C126.688 40.6906 126.154 42.9115 125.901 44.2616C126.588 43.445 127.766 41.5959 129.421 38.7159C131.08 35.8347 132.97 32.4154 135.104 28.4502C137.234 24.4863 139.382 20.4854 141.554 16.4507C143.722 12.4151 145.688 8.94115 147.444 6.02335C147.355 5.59839 147.643 4.26413 148.302 2.0228C148.963 -0.213385 149.799 -2.65834 150.804 -5.30961C151.811 -7.95676 152.717 -9.94095 153.517 -11.2576C154.927 -11.1817 156.505 -10.9682 158.248 -10.6119C159.991 -10.2555 161.542 -9.77552 162.911 -9.1719C164.271 -8.5628 165.057 -7.78368 165.259 -6.82219C165.348 -6.39414 165.298 -5.86205 165.11 -5.22203C162.83 0.858584 160.676 6.52286 158.652 11.7645C156.624 17.0134 154.954 21.3577 153.631 24.8057C152.304 28.258 151.574 30.4085 151.429 31.2596C152.072 30.2311 152.805 29.1111 153.629 27.9017C154.896 25.7327 156.838 23.1536 159.437 20.1691C162.609 16.2925 166.34 12.1343 170.631 7.68897C174.917 3.24795 179.58 -0.837989 184.611 -4.57179C185.445 -5.21309 186.112 -5.6219 186.612 -5.7985C187.517 -6.11939 187.799 -5.78813 187.468 -4.81122C187.131 -3.83313 186.541 -2.67698 185.687 -1.34451C184.837 -0.0109496 183.914 1.11953 182.927 2.04271C178.117 6.84057 173.658 11.7469 169.538 16.7596C165.423 21.7712 161.783 27.0152 158.628 32.4892C156.246 36.5421 154.173 40.8019 152.418 45.2623C150.664 49.7279 148.575 54.1637 146.164 58.5684L146.162 58.5655ZM153.045 28.9631C153.068 29.0716 153.351 28.8856 153.9 28.4024C154.446 27.9244 154.845 27.5249 155.101 27.2041C156.85 24.751 159.141 21.9615 161.986 18.8322C164.826 15.704 167.621 12.7367 170.371 9.92529C173.118 7.12122 175.128 5.1463 176.398 4.00891C177.129 3.40335 178.098 2.48985 179.297 1.26164C180.491 0.0377064 180.861 -0.381065 180.402 0.00857971C178.991 0.96842 177.082 2.53378 174.687 4.70124C172.286 6.86991 169.736 9.32259 167.028 12.0571C164.315 14.7969 161.786 17.4984 159.437 20.1637C158.335 21.5838 157.306 22.9537 156.343 24.267C155.381 25.5823 154.475 26.7956 153.628 27.8953C153.475 28.1792 153.321 28.4644 153.161 28.7475L153.045 28.96L153.045 28.9631Z" fill="#77389A"/>
<path d="M175.353 50.9566C173.605 51.3496 172.038 50.7866 170.644 49.2725C169.253 47.7644 168.38 46.1522 168.023 44.4428C167.734 43.0582 168.003 40.6127 168.83 37.1105C169.658 33.6083 170.803 29.5638 172.267 24.9748C173.727 20.3902 175.298 15.8207 176.988 11.2682C178.672 6.71693 180.189 2.6546 181.542 -0.921038C182.891 -4.49239 183.842 -7.00518 184.4 -8.46621C183.366 -6.7234 182.433 -5.01918 181.597 -3.3472C180.761 -1.6742 180.247 -0.805565 180.048 -0.735529C179.946 -0.700027 180.264 -1.86984 181.007 -4.2543C181.742 -6.63558 183.269 -11.0452 185.584 -17.4808C186.586 -17.836 187.909 -17.6738 189.557 -16.9985C191.207 -16.3212 192.734 -15.4301 194.15 -14.3289C195.565 -13.2254 196.386 -12.1398 196.608 -11.0748C195.906 -8.7629 194.686 -5.72236 192.947 -1.95521C191.203 1.81622 189.379 5.70061 187.474 9.69797C185.566 13.6996 183.877 17.3336 182.408 20.6063C182.641 20.1781 183.632 18.6242 185.389 15.9393C187.137 13.2566 189.316 9.90345 191.923 5.88705C194.525 1.86876 197.317 -2.38471 200.307 -6.88347C203.292 -11.3813 206.147 -15.6296 208.862 -19.6299C211.577 -23.6269 213.924 -26.9258 215.913 -29.5226C217.898 -32.1172 219.19 -33.5199 219.79 -33.732C220.396 -33.9464 221.399 -33.6438 222.808 -32.8249C224.211 -32.0047 225.575 -31.0258 226.889 -29.8892C228.204 -28.7492 228.963 -27.7035 229.164 -26.742C229.187 -26.6335 228.645 -25.4669 227.549 -23.2488C226.454 -21.0245 225.105 -18.2262 223.498 -14.8486C221.891 -11.469 220.33 -7.9936 218.814 -4.42162C217.305 -0.846722 216.075 2.42475 215.136 5.39351C214.197 8.36227 213.898 10.4178 214.245 11.5549C213.199 11.6959 212.14 11.0105 211.075 9.49719C210.005 7.98481 209.233 6.11064 208.765 3.86991C208.497 2.58886 208.551 0.910826 208.923 -1.17251C209.294 -3.25045 209.778 -5.31326 210.375 -7.36011C210.967 -9.40039 211.507 -11.1976 211.994 -12.7461C212.476 -14.2937 212.704 -15.1186 212.682 -15.225C212.238 -14.2643 211.666 -12.7438 210.973 -10.6649C210.279 -8.58583 209.629 -6.55034 209.021 -4.55746C208.414 -2.56457 208.039 -1.1441 207.896 -0.289934C207.927 -1.67755 208.345 -4.05989 209.146 -7.43903C209.948 -10.8161 211.194 -14.3538 212.902 -18.0538C212.022 -16.5929 210.517 -14.1401 208.383 -10.6922C206.255 -7.24348 203.844 -3.20772 201.15 1.4132C198.457 6.03721 195.669 10.8349 192.784 15.8114C189.894 20.7901 187.167 25.6247 184.596 30.3178C182.027 35.0107 179.912 39.172 178.247 42.7971C176.583 46.4274 175.622 49.1432 175.352 50.9591L175.353 50.9566Z" fill="#77389A"/>
<path d="M237.882 29.9927C235.68 30.7732 233.133 30.6989 230.252 29.7743C227.365 28.8508 224.79 27.4712 222.53 25.6369C220.26 23.806 218.916 21.8759 218.492 19.8472C217.689 16.0059 217.9 11.4901 219.133 6.29659C220.362 1.10737 222.256 -4.23524 224.818 -9.72992C227.383 -15.2217 230.274 -20.3168 233.488 -25.0086C236.704 -29.7008 239.957 -33.4325 243.251 -36.2054C244.164 -36.9855 245.009 -37.5731 245.789 -37.9667C246.57 -38.3575 247.159 -38.6244 247.561 -38.7665C248.762 -39.1917 250.349 -38.811 252.318 -37.6183C254.288 -36.4257 256.137 -35.0433 257.863 -33.4785C259.589 -31.9136 260.663 -30.631 261.089 -29.6382C261.446 -27.9289 260.946 -25.5479 259.599 -22.4899C258.242 -19.4306 256.33 -16.1146 253.849 -12.5438C251.367 -8.96959 248.624 -5.50495 245.613 -2.14844C242.599 1.21543 239.621 4.07669 236.672 6.43757C233.72 8.80478 231.083 10.3409 228.761 11.0471C227.801 14.7124 227.539 17.5587 227.962 19.5822C228.185 20.6524 228.627 21.4974 229.297 22.1181C229.963 22.7408 231.042 22.7319 232.521 22.0937C234.747 20.3872 237.43 17.7725 240.567 14.2543C243.705 10.7359 247.057 6.82515 250.624 2.5241C254.187 -1.7737 259.488 -7.34601 262.318 -10.3017C263.821 -11.8652 264.97 -12.7868 265.773 -13.0719C266.474 -13.3206 266.879 -13.1792 266.99 -12.6455C267.079 -12.2175 266.799 -11.3727 266.147 -10.1123C265.496 -8.84874 253.202 8.68659 250.626 12.5798C248.05 16.475 245.659 19.9587 243.447 23.0322C241.241 26.1098 239.385 28.4272 237.882 29.9927ZM230.812 4.64789C233.567 2.41095 236.431 -0.37917 239.388 -3.7199C242.349 -7.06286 245.079 -10.467 247.584 -13.9327C250.087 -17.4012 252.042 -20.4139 253.44 -22.9722L254.028 -24.0389C253.984 -24.2531 253.457 -23.6644 252.457 -22.2798L241.908 -7.87991C241.829 -7.73568 241.69 -7.63085 241.491 -7.56081C241.39 -7.52531 241.416 -7.67553 241.558 -8.0132C241.7 -8.34882 241.992 -8.77117 242.429 -9.26931C244.116 -11.4706 245.822 -13.8801 247.532 -16.4946C249.248 -19.1048 250.877 -21.604 252.423 -23.9882C254.405 -26.8641 255.348 -28.5198 255.26 -28.9481C252.956 -28.1311 250.249 -25.9087 247.134 -22.2849C244.019 -18.658 240.996 -14.4357 238.079 -9.61862C235.156 -4.8003 232.732 -0.0427601 230.812 4.64789Z" fill="#77389A"/>
<path d="M145.944 234.238C144.948 234.619 143.689 234.597 142.183 234.168C140.673 233.744 139.311 233.141 138.096 232.364C136.881 231.587 136.2 230.87 136.047 230.218C135.896 229.569 136.021 229.164 136.42 229.011C136.618 228.936 136.959 228.894 137.445 228.886C137.93 228.875 138.447 228.887 138.998 228.913C138.072 227.73 137.329 226.418 136.776 224.97C136.726 224.755 136.99 223.354 137.579 220.761C138.168 218.169 138.917 214.985 139.821 211.206C140.731 207.43 141.636 203.653 142.544 199.874C143.448 196.097 144.216 192.876 144.84 190.212C145.46 187.551 145.764 186.162 145.739 186.052C145.758 185.688 145.309 186.659 144.385 188.965C143.458 191.273 142.479 193.926 141.445 196.922C140.411 199.921 139.607 202.536 139.047 204.76C139.651 201.335 140.346 197.699 141.134 193.847C141.912 190.001 143.069 185.331 144.607 179.829C146.142 174.335 148.378 167.416 151.307 159.076C152.856 159.194 154.58 159.394 156.489 159.666C158.4 159.943 160.078 160.395 161.53 161.019C162.978 161.649 163.842 162.56 164.121 163.754C164.222 164.189 164.188 164.736 164.017 165.392C161.748 171.94 159.694 178.109 157.85 183.9C156.003 189.694 154.554 194.507 153.497 198.343C152.443 202.177 151.804 204.553 151.582 205.462C152.179 204.763 152.862 203.969 153.63 203.082C154.398 202.198 155.242 201.165 156.161 199.983L155.94 200.425C155.718 200.864 155.516 201.415 155.345 202.074C155.174 202.732 155.212 202.893 155.459 202.562C156.575 200.834 158.636 198.035 161.637 194.163C164.638 190.295 167.762 186.259 171.01 182.058L171.152 180.583C168.077 185.074 165.437 188.628 163.229 191.246C161.966 192.794 160.756 194.234 159.598 195.563C158.447 196.892 157.421 198.201 156.532 199.489C157.472 197.948 158.649 196.255 160.063 194.411C161.478 192.569 163.235 190.356 165.348 187.774C166.015 186.928 166.899 185.821 167.99 184.456C169.081 183.091 170.195 181.601 171.337 179.98L171.152 180.583L174.424 175.782L171.337 179.98L172.544 173.307C171.796 173.829 171.459 173.309 171.528 171.743C171.592 170.181 172.155 168.281 173.204 166.044C174.254 163.81 175.737 162.148 177.653 161.058C178.325 160.684 179.472 160.835 181.095 161.514C182.722 162.194 184.196 163.05 185.523 164.08C186.849 165.11 187.275 166.01 186.806 166.783C185.149 169.428 183.889 172.512 183.03 176.034C182.172 179.557 181.558 183.075 181.185 186.588C180.811 190.103 180.59 193.324 180.52 196.248C180.445 199.178 180.421 201.404 180.452 202.929C184.22 197.228 187.514 191.946 190.334 187.08C193.159 182.213 195.666 177.174 197.863 171.955C200.061 166.738 199.128 169.575 201.023 162.815C200.897 162.273 200.685 161.617 200.398 160.838C200.105 160.061 199.836 159.132 199.582 158.045C199.302 156.851 199.081 155.457 198.927 153.859C198.769 152.265 198.873 150.626 199.24 148.948C199.603 146.799 200.176 145.19 200.957 144.12C201.74 143.051 202.576 142.347 203.476 142.003C204.968 141.432 206.446 141.607 207.908 142.526C209.371 143.445 210.217 144.391 210.445 145.367C211.055 147.503 211.224 150.424 210.95 154.136C210.681 157.848 210.328 161.562 209.897 165.275C209.465 168.988 209.154 172.067 208.963 174.504C208.868 175.488 208.672 176.037 208.373 176.151C207.974 176.303 207.428 175.833 206.736 174.735C206.045 173.641 205.59 172.841 205.361 172.334C203.814 177.305 204.926 173.509 202.755 178.597C200.58 183.687 198.358 188.443 196.084 192.862C193.805 197.285 191.678 201.057 189.698 204.179C189.984 207.263 189.391 210.417 187.922 213.642C186.453 216.867 184.473 218.956 181.981 219.911C179.988 220.674 178.006 220.424 176.03 219.173C174.053 217.919 172.825 216.258 172.343 214.196C172.014 212.785 171.953 211.476 172.159 210.273C172.366 209.071 172.394 208.142 172.242 207.492C171.887 205.971 171.566 203.907 171.28 201.294C170.994 198.682 170.842 195.724 170.829 192.416C170.779 192.201 170.757 192 170.772 191.817C170.782 191.637 170.775 191.493 170.749 191.383C168.346 195.497 166.045 199.335 163.844 202.899C161.637 206.467 159.817 209.351 158.382 211.557L151.728 222.088C152.077 222.191 152.5 222.386 153 222.664C153.501 222.946 153.818 223.359 153.945 223.901C154.097 224.55 153.668 225.633 152.668 227.139C151.664 228.648 150.514 230.122 149.225 231.562C147.932 233.004 146.839 233.895 145.944 234.238ZM171.862 180.842L172.123 180.567L172.192 179.474L171.862 180.842ZM181.949 203.066C183.853 200.563 186.045 197.268 188.504 193.191C190.969 189.114 193.029 185.279 194.684 181.688C197.994 174.505 200.982 166.856 203.639 158.741C202.948 160.426 202.012 162.678 200.825 165.496C199.64 168.317 198.436 171.173 197.216 174.066C195.995 176.959 194.912 179.411 193.973 181.428C191.278 187.548 188.684 192.325 186.181 195.768C183.673 199.211 182.225 201.246 181.831 201.87C181.482 202.24 181.332 202.653 181.385 203.104C181.434 203.559 181.625 203.544 181.949 203.066Z" fill="#77389A"/>
<path d="M223.045 203.66C221.649 204.195 220.111 204.455 218.427 204.451C216.743 204.446 215.167 204.075 213.694 203.336C212.216 202.602 210.52 201.267 208.606 199.339C206.693 197.412 205.453 195.254 204.895 192.864C204.666 191.888 204.613 190.961 204.732 190.088C205.734 179.532 208.916 168.998 214.269 158.488C219.623 147.981 226.856 138.085 235.966 128.8C237.362 128.265 238.939 128.283 240.702 128.85C242.461 129.419 244.031 130.327 245.408 131.574L248.326 131.521C247.946 130.365 247.428 129.768 246.763 129.724C246.103 129.681 245.709 129.39 245.582 128.845C245.55 127.793 246.067 126.975 247.126 126.39C248.18 125.808 248.961 125.423 249.457 125.233C251.049 124.624 252.557 124.904 253.969 126.076C255.383 127.254 256.356 128.744 256.888 130.55C259.355 129.96 261.895 129.227 264.509 128.34C267.124 127.459 269.409 126.673 271.366 125.982C273.319 125.296 274.393 124.913 274.595 124.836L275.043 124.664C275.342 124.55 275.542 124.71 275.644 125.145C275.821 125.904 275.58 126.707 274.907 127.555C274.115 128.808 271.934 130.264 268.364 131.923C264.79 133.589 261.01 135.183 257.03 136.707C256.911 138.527 256.571 140.551 256.007 142.776C255.443 145.003 254.742 147.341 253.905 149.792C253.34 151.545 252.431 153.934 251.187 156.953C249.939 159.976 248.649 163.044 247.315 166.155C245.984 169.269 244.856 171.887 243.947 174.008C244.639 172.799 245.744 170.689 247.269 167.679C248.783 164.677 249.991 162.057 250.883 159.821C251.226 158.979 251.724 157.636 252.377 155.788C253.03 153.941 253.672 152.158 254.302 150.435C254.929 148.72 255.291 147.604 255.391 147.092C254.778 150.52 253.798 153.973 252.44 157.448C251.083 160.928 249.662 164.131 248.178 167.067C246.694 170.002 245.413 172.415 244.34 174.304C243.263 176.196 242.647 177.288 242.5 177.578C239.437 183.959 236.173 189.615 232.717 194.544C229.258 199.48 226.036 202.515 223.047 203.659L223.045 203.66ZM216.97 199.95C217.466 199.761 218.025 199.372 218.646 198.777C219.591 197.706 220.77 196.132 222.181 194.054C223.594 191.976 225.069 189.816 226.604 187.568C227.943 185.401 229.395 182.804 230.969 179.776C232.536 176.754 234.211 173.241 235.992 169.247C237.547 165.695 239.193 161.84 240.937 157.683C242.676 153.531 244.334 149.256 245.912 144.865L244.203 148.004C244.724 146.98 245.347 145.588 246.078 143.827C246.804 142.07 247.428 140.678 247.948 139.65C244.809 140.618 242.931 141.158 242.304 141.278C242.26 141.535 242.131 141.701 241.933 141.776C241.735 141.852 241.545 141.51 241.368 140.751L241.16 139.854C241.07 139.476 241.023 139.051 241.021 138.575C240.001 138.851 238.946 139.431 237.849 140.324C236.758 141.215 235.626 142.655 234.464 144.636C233.177 147.023 231.495 150.031 229.415 153.665C227.335 157.302 225.241 161.328 223.129 165.744C221.012 170.164 219.13 174.757 217.482 179.529C215.831 184.302 214.754 189.09 214.249 193.897C214.057 195.388 214.112 196.787 214.417 198.091C214.85 199.939 215.722 200.195 217.041 198.861C216.617 199.377 216.422 199.691 216.448 199.798C216.499 200.018 216.672 200.064 216.97 199.95ZM217.041 198.861C218.679 197.052 221.15 193.591 224.458 188.479C227.766 183.369 230.963 177.444 234.051 170.701C235.065 168.536 236.22 166.056 237.52 163.249C238.815 160.447 240.08 157.743 241.318 155.142C242.554 152.538 243.493 150.525 244.134 149.096C242.554 153.011 241.084 156.563 239.71 159.748C238.338 162.936 237.011 165.959 235.729 168.814C232.69 175.302 229.46 181.329 226.044 186.897C222.623 192.465 219.623 196.453 217.041 198.861Z" fill="#77389A"/>
<path d="M258.689 190.263C256.945 190.694 255.35 190.152 253.914 188.632C252.474 187.115 251.547 185.486 251.141 183.748C250.811 182.337 251.012 179.835 251.743 176.243C252.476 172.651 253.512 168.498 254.852 163.782C256.193 159.072 257.643 154.376 259.206 149.695C260.769 145.016 262.178 140.84 263.436 137.164C264.695 133.488 265.579 130.902 266.098 129.4C265.109 131.199 264.215 132.961 263.428 134.684C262.635 136.405 262.138 137.305 261.941 137.381C261.84 137.419 262.13 136.217 262.804 133.767C263.48 131.322 264.889 126.79 267.032 120.174C268.023 119.794 269.361 119.931 271.036 120.59C272.707 121.254 274.271 122.134 275.724 123.232C277.172 124.338 278.025 125.429 278.28 126.515C277.64 128.887 276.5 132.016 274.86 135.897C273.22 139.78 271.497 143.778 269.694 147.901C267.89 152.022 266.296 155.765 264.918 159.133C265.139 158.691 266.091 157.086 267.775 154.313C269.459 151.537 271.549 148.075 274.054 143.922C276.554 139.773 279.241 135.372 282.118 130.722C284.989 126.072 287.731 121.681 290.345 117.545C292.958 113.411 295.228 110 297.148 107.313C299.067 104.626 300.33 103.165 300.926 102.937C301.523 102.708 302.541 103.001 303.978 103.81C305.416 104.621 306.812 105.593 308.165 106.733C309.512 107.874 310.304 108.931 310.532 109.906C310.558 110.016 310.053 111.218 309.015 113.506C307.978 115.797 306.698 118.682 305.178 122.16C303.659 125.641 302.195 129.22 300.774 132.897C299.354 136.576 298.216 139.939 297.357 142.989C296.497 146.039 296.255 148.142 296.636 149.297C295.588 149.461 294.507 148.781 293.39 147.256C292.273 145.732 291.45 143.829 290.917 141.55C290.612 140.246 290.615 138.532 290.933 136.397C291.248 134.266 291.671 132.152 292.212 130.051C292.753 127.953 293.245 126.108 293.686 124.519C294.127 122.932 294.337 122.083 294.311 121.973C293.893 122.964 293.363 124.528 292.724 126.663C292.081 128.803 291.486 130.894 290.936 132.938C290.382 134.985 290.048 136.444 289.926 137.315C289.92 135.899 290.266 133.459 290.976 129.992C291.685 126.526 292.842 122.889 294.447 119.084C293.604 120.59 292.163 123.122 290.122 126.682C288.078 130.247 285.769 134.411 283.2 139.18C280.625 143.953 277.957 148.906 275.201 154.044C272.439 159.182 269.841 164.17 267.392 169.011C264.944 173.851 262.933 178.143 261.368 181.875C259.798 185.611 258.905 188.407 258.689 190.263Z" fill="#77389A"/>
<path d="M344.085 171.592C341.693 172.507 339.082 171.789 336.257 169.442C333.7 167.343 331.196 164.281 328.733 160.255C326.27 156.23 324.498 151.881 323.406 147.211C323.203 146.344 323.029 145.492 322.887 144.658C322.745 143.827 322.638 143.01 322.561 142.212C322.402 140.142 323.05 138.385 324.5 136.944C325.956 135.499 327.068 134.808 327.841 134.866C328.039 134.791 328.303 134.751 328.626 134.744C328.95 134.739 329.334 134.768 329.784 134.832C331.796 132.762 334.012 129.487 336.441 125.01C338.864 120.531 340.665 115.703 341.838 110.52C342.548 107.53 342.805 105.6 342.601 104.728C342.372 103.752 341.734 103.937 340.696 105.279C339.653 106.628 338.566 108.255 337.44 110.165C336.313 112.074 335.439 113.562 334.824 114.626C330.144 122.926 325.55 130.657 321.045 137.821C316.535 144.992 312.973 152.268 310.362 159.657C309.449 162.256 308.681 164.53 308.053 166.486C307.425 168.442 307.179 170.163 307.311 171.649C304.487 170.72 302.488 169.592 301.308 168.269C300.133 166.944 299.366 165.526 299.009 164.002C298.806 163.135 298.692 162.291 298.663 161.471C298.635 160.658 298.631 159.83 298.65 158.993C298.712 156.484 299.481 152.463 300.955 146.931C302.429 141.399 304.318 134.997 306.633 127.722C308.948 120.45 311.462 112.863 314.169 104.964C316.878 97.0679 322.275 84.5823 324.242 79.0979C326.215 73.6113 327.584 69.7175 328.345 67.4125C327.926 67.9273 327.608 68.3156 327.4 68.571C327.187 68.8307 326.85 69.4913 326.396 70.5541C325.936 71.616 325.129 73.6118 323.974 76.5386C322.294 80.9696 321.358 83.2187 321.155 83.2961C321.06 83.3325 321.219 82.6233 321.636 81.1602C322.05 79.7012 322.596 77.8659 323.274 75.6539C323.952 73.4418 324.644 71.3142 325.361 69.2657C326.076 67.2151 326.644 65.6966 327.063 64.7091C327.508 63.8286 327.879 63.3325 328.183 63.2165C328.38 63.1413 328.673 63.1156 329.057 63.1467C329.447 63.1756 330.01 63.166 330.759 63.1157C331.61 63.0299 332.908 63.3572 334.657 64.1079C336.406 64.8586 337.988 65.8203 339.401 66.996C340.814 68.1706 341.46 69.4322 341.345 70.7752C340.451 72.5374 339.094 75.5414 337.267 79.7908C335.44 84.038 322.18 110.445 319.554 116.834C316.923 123.225 314.506 129.118 312.294 134.518C310.086 139.92 308.316 144.413 306.984 147.996C305.653 151.583 304.914 153.757 304.768 154.523C305.637 153.6 307.034 151.347 308.966 147.769C310.897 144.192 313.214 139.844 315.923 134.727C318.637 129.606 321.552 124.231 324.685 118.595C327.814 112.962 331.034 107.591 334.342 102.478C337.65 97.3688 340.903 93.0767 344.106 89.6006C345.502 89.0661 347.223 89.1174 349.271 89.7544C351.318 90.3913 352.642 91.3014 353.245 92.4906C355.143 92.7133 356.319 93.7976 356.777 95.7534C357.234 97.7063 356.955 100.122 355.949 102.991C354.938 105.862 353.862 108.344 352.725 110.436C352.205 111.462 351.648 112.443 351.055 113.381C350.462 114.318 349.839 115.267 349.197 116.223C350.455 113.731 351.589 111.049 352.604 108.174C353.611 105.304 354.535 102.174 355.366 98.7786C355.442 98.1593 355.368 97.5076 355.154 96.8188C354.936 96.1332 354.746 96.354 354.575 97.4834C353.897 102.002 352.695 106.366 350.969 110.577C349.239 114.787 347.283 118.731 345.106 122.401C345.778 121.553 346.45 120.616 347.131 119.586C347.814 118.556 348.465 117.509 349.085 116.441C347.526 119.998 345.811 123.108 343.944 125.775C342.068 128.445 340.263 130.704 338.53 132.549C338.354 132.736 338.182 132.921 338.01 133.104C337.833 133.288 337.696 133.399 337.595 133.438L339.197 131.229C341.253 128.432 343.223 125.491 345.106 122.401C342.626 125.72 340.343 128.486 338.26 130.7C336.173 132.919 334.498 134.566 333.23 135.644C334.505 135.983 335.156 136.681 335.182 137.734C335.265 138.533 335.563 140.282 336.084 142.979C336.611 145.676 337.211 148.492 337.898 151.424L338.983 156.066C339.326 157.53 339.691 158.842 340.066 159.998C341.31 164.371 342.975 166.159 345.064 165.359C346.06 164.978 347.326 163.663 348.866 161.42C349.335 160.647 349.767 160.186 350.167 160.033C350.365 159.958 350.504 160.083 350.581 160.41C350.987 162.146 350.505 164.252 349.129 166.731C347.758 169.208 346.078 170.829 344.085 171.592Z" fill="#77389A"/>
<path d="M24.2606 165.858C23.5641 166.125 22.7964 166.258 21.9558 166.265C21.1152 166.271 20.3304 166.097 19.5983 165.742C18.8625 165.39 18.0239 164.746 17.0741 163.814C16.1242 162.882 15.5137 161.834 15.2417 160.672C15.1311 160.196 15.1039 159.747 15.1681 159.317C15.6977 154.163 17.3086 149.01 20.0069 143.86C22.7051 138.71 26.3394 133.848 30.908 129.275C31.6045 129.008 32.3925 129.01 33.2658 129.28C34.1434 129.55 34.9227 129.985 35.6059 130.588L37.0605 130.549C36.8736 129.988 36.617 129.697 36.2896 129.677C35.959 129.661 35.7653 129.52 35.7024 129.254C35.6886 128.741 35.9458 128.342 36.4758 128.05C37.0063 127.761 37.3942 127.569 37.6435 127.474C38.4379 127.17 39.1891 127.302 39.8916 127.867C40.5908 128.435 41.0746 129.156 41.3322 130.036C42.5647 129.738 43.8315 129.368 45.1396 128.924C46.4454 128.483 47.5882 128.088 48.5619 127.743C49.5405 127.399 50.077 127.207 50.1778 127.168L50.4013 127.082C50.5489 127.025 50.6507 127.104 50.6995 127.314C50.7855 127.684 50.658 128.08 50.3227 128.494C49.9232 129.108 48.8333 129.829 47.0475 130.654C45.2627 131.484 43.375 132.278 41.3852 133.039C41.3219 133.927 41.1472 134.915 40.8593 136.005C40.5714 137.096 40.2169 138.236 39.7934 139.435C39.5064 140.295 39.0485 141.463 38.4187 142.943C37.7888 144.423 37.1338 145.926 36.4629 147.449C35.7891 148.974 35.2201 150.257 34.7586 151.297C35.1074 150.703 35.6678 149.667 36.4328 148.194C37.1983 146.723 37.8064 145.439 38.2579 144.342C38.4298 143.931 38.684 143.272 39.0152 142.367C39.3432 141.464 39.6658 140.593 39.9884 139.751C40.3026 138.909 40.4899 138.364 40.5381 138.113C40.2265 139.789 39.7275 141.477 39.0407 143.179C38.353 144.883 37.6384 146.452 36.8891 147.89C36.1442 149.328 35.4994 150.51 34.9576 151.438C34.4159 152.366 34.1045 152.901 34.0311 153.044C32.4843 156.171 30.8435 158.945 29.1045 161.367C27.3699 163.789 25.7519 165.285 24.2611 165.856L24.2606 165.858ZM21.2431 164.075C21.4886 163.981 21.7697 163.788 22.0828 163.494C22.5542 162.969 23.1439 162.196 23.8572 161.174C24.5667 160.154 25.3061 159.094 26.0789 157.991C26.7511 156.927 27.4832 155.653 28.2728 154.169C29.0673 152.687 29.9116 150.965 30.8072 149.011C31.5917 147.27 32.4256 145.382 33.3064 143.345C34.1833 141.31 35.0243 139.219 35.8231 137.068L34.9596 138.608C35.2232 138.106 35.5364 137.424 35.9055 136.562C36.2752 135.702 36.5873 135.02 36.8515 134.515C35.2854 135 34.346 135.274 34.0331 135.334C34.0078 135.46 33.9469 135.539 33.8461 135.577C33.7453 135.616 33.6547 135.45 33.5687 135.08L33.4677 134.645C33.4234 134.459 33.4023 134.251 33.4004 134.023C32.8933 134.16 32.3629 134.449 31.8162 134.889C31.2664 135.329 30.6997 136.037 30.1164 137.006C29.4661 138.179 28.6191 139.655 27.5725 141.436C26.5259 143.218 25.4693 145.195 24.4056 147.356C23.3385 149.522 22.3896 151.771 21.5513 154.108C20.7172 156.444 20.1663 158.784 19.9011 161.132C19.7997 161.86 19.8256 162.543 19.974 163.177C20.1841 164.077 20.6184 164.197 21.2787 163.541C21.0672 163.795 20.9691 163.948 20.9815 164.001C21.0061 164.107 21.0909 164.131 21.2426 164.073L21.2431 164.075ZM21.2802 163.543C22.0996 162.654 23.3422 160.954 25.0054 158.445C26.6691 155.938 28.2796 153.033 29.8393 149.728C30.3503 148.667 30.9319 147.452 31.5867 146.079C32.2409 144.704 32.8791 143.382 33.5052 142.105C34.1269 140.829 34.6009 139.843 34.925 139.142C34.1265 141.061 33.381 142.801 32.6915 144.361C31.9978 145.922 31.3301 147.403 30.6816 148.802C29.1467 151.981 27.5207 154.936 25.7995 157.668C24.0814 160.399 22.5725 162.356 21.2802 163.543Z" fill="#77389A"/>
<path d="M43.1699 183.413C41.0284 184.233 39.1253 184.155 37.461 183.179C35.7972 182.205 34.7344 180.739 34.2767 178.783C33.7826 176.669 33.8616 174.048 34.5105 170.919C35.1636 167.789 36.1401 164.433 37.444 160.854C38.7468 157.275 40.1727 153.748 41.717 150.278C43.2652 146.806 44.721 143.642 46.0865 140.787C47.4492 137.934 48.4736 135.654 49.1613 133.95C48.7003 134.3 48.0746 134.755 47.2858 135.316C46.497 135.878 45.7371 136.4 45.0074 136.88C44.2783 137.361 43.7905 137.647 43.545 137.741C43.1948 137.875 42.8789 137.853 42.593 137.675C42.307 137.496 42.0766 137.267 41.9012 136.989C41.5049 136.91 41.2947 136.819 41.2699 136.712C41.17 136.521 41.0908 136.348 41.0284 136.201C40.9656 136.052 40.9213 135.927 40.8962 135.819C40.6985 134.973 41.0249 134.403 41.8798 134.103C42.7313 133.807 43.5612 133.418 44.3723 132.933C45.1806 132.451 45.9885 131.854 46.7971 131.14C47.6067 130.429 48.0244 129.893 48.0475 129.538C48.1594 129.094 48.243 128.86 48.2929 128.841C48.4405 128.784 48.6696 128.956 48.9797 129.356C49.118 129.474 49.2308 129.721 49.3164 130.089C49.4148 130.513 49.4073 130.949 49.2953 131.393L50.6591 130.612C51.8815 127.497 53.1722 124.267 54.5297 120.924C55.8918 117.582 57.1853 114.365 58.4137 111.275C59.6418 108.183 60.7471 105.443 61.734 103.048C62.7198 100.654 63.4377 98.9123 63.8858 97.8194C63.8612 97.7135 63.7979 97.6794 63.6971 97.718C63.4986 97.7944 63.1812 98.2899 62.746 99.2041C61.6977 101.451 60.6447 103.724 59.5859 106.029C58.5246 108.337 57.6269 110.235 56.89 111.727C56.1568 113.216 55.7819 113.936 55.7695 113.882C55.7575 113.831 55.9828 113.182 56.451 111.937C56.9197 110.695 57.5185 109.184 58.2398 107.41C58.962 105.635 59.6985 103.856 60.4458 102.073C61.1934 100.29 61.831 98.778 62.3563 97.5404C62.8777 96.3047 63.1672 95.6748 63.2142 95.6574C63.3539 95.548 63.6419 95.5667 64.0814 95.714C64.5252 95.8614 64.8566 95.9503 65.0797 95.9798C65.5648 95.968 66.2579 96.206 67.1597 96.697C68.0569 97.1869 68.874 97.7669 69.6016 98.4392C70.3262 99.1123 70.6527 99.751 70.5771 100.356C70.0286 101.256 69.3021 102.558 68.401 104.255C67.4965 105.956 66.4854 107.839 65.3719 109.908C64.2549 111.976 63.1614 114.079 62.091 116.217C61.0176 118.356 60.0207 120.351 59.0964 122.201C58.1757 124.052 57.4706 125.559 56.9838 126.724C57.9186 126.079 59.0017 125.377 60.2324 124.617C61.4631 123.858 62.7092 123.094 63.965 122.326C65.2207 121.557 66.339 120.884 67.3165 120.307C68.2916 119.734 68.9505 119.352 69.2841 119.165C69.4707 119.037 69.7138 118.914 70.0133 118.8C70.4614 118.629 70.7093 118.648 70.7593 118.859C70.8088 119.072 70.6874 119.378 70.4023 119.774C70.1179 120.173 69.7607 120.51 69.3372 120.788C69.2904 120.806 68.8778 121.079 68.1076 121.603C67.3337 122.131 66.4462 122.745 65.4458 123.443C64.4449 124.144 63.553 124.786 62.7694 125.375C62.1059 125.802 61.238 126.364 60.1559 127.067C59.0727 127.769 58.1064 128.399 57.2602 128.953C56.4143 129.507 55.9968 129.81 56.009 129.862C56.4571 129.691 57.2157 129.285 58.2854 128.646C59.3559 128.006 60.4842 127.316 61.6651 126.575C62.8448 125.835 63.8239 125.26 64.5977 124.849C63.9588 125.382 63.0858 125.988 61.9755 126.672C60.8614 127.358 59.7273 128.08 58.5757 128.839C57.4268 129.595 56.4768 130.347 55.7312 131.094C55.3558 131.813 54.9337 132.68 54.4669 133.693C53.9996 134.708 53.4538 135.853 52.8308 137.128C52.9784 137.071 53.1114 137.05 53.2213 137.065C54.6416 137.098 56.0511 137.221 57.458 137.431C58.8614 137.644 60.0622 138.033 61.0643 138.6C62.0628 139.166 62.657 140.078 62.8404 141.331C63.2479 143.997 63.0705 147.29 62.3075 151.21C62.7454 149.834 63.0887 148.463 63.3376 147.102C63.5894 145.74 63.7353 144.445 63.7716 143.221C64.0078 145.609 63.7226 148.222 62.9231 151.063C62.1241 153.901 61.1386 156.755 59.9684 159.623C60.541 158.135 61.0134 156.689 61.3908 155.277C61.7649 153.865 62.0696 152.511 62.3075 151.21C61.4956 153.997 60.5729 156.542 59.5403 158.837C58.504 161.136 57.8046 162.667 57.4421 163.441C56.7812 164.787 56.0474 166.222 55.2376 167.741C54.4287 169.259 53.6364 170.686 52.8628 172.019C52.0891 173.352 51.4735 174.421 51.0144 175.233C50.5504 176.042 50.3634 176.402 50.452 176.311C51.1467 175.582 51.9984 174.394 52.9937 172.747C53.9885 171.097 54.9413 169.436 55.8528 167.765C56.3757 166.756 56.9411 165.691 57.5443 164.569C58.1468 163.443 58.7248 162.316 59.275 161.185C58.7118 162.493 58.1552 163.816 57.5982 165.151C57.0457 166.488 56.4127 167.837 55.7013 169.205C53.1464 174.04 50.7912 177.477 48.6385 179.511C46.4853 181.543 44.6617 182.847 43.1709 183.417L43.1699 183.413ZM40.4826 182.369C41.8256 181.854 43.2152 180.661 44.6488 178.786C46.0794 176.913 47.4538 174.615 48.7694 171.896C50.0842 169.173 51.3049 166.289 52.4364 163.235C53.5638 160.183 54.5317 157.192 55.3378 154.263C56.1445 151.336 56.704 148.701 57.0263 146.361C57.3448 144.022 57.3713 142.269 57.099 141.106C56.8389 139.995 56.3966 139.331 55.7772 139.106C55.1552 138.884 54.5459 138.773 53.9476 138.77C53.6736 138.759 53.3933 138.652 53.1009 138.446C52.809 138.241 52.6129 138.043 52.5126 137.849C51.3651 140.361 50.1039 143.193 48.7275 146.338C47.3481 149.49 46.0419 152.652 44.8069 155.83C43.5721 159.01 42.5131 161.95 41.6257 164.651C41.4886 164.992 41.21 165.832 40.7912 167.172C40.3734 168.513 39.9227 170.067 39.4422 171.834C38.9628 173.602 38.5911 175.328 38.3363 177.01C38.0805 178.693 38.0684 180.035 38.3028 181.039C38.4254 181.567 38.683 181.975 39.0755 182.256C39.4677 182.537 39.9371 182.575 40.4819 182.366L40.4826 182.369ZM59.2738 161.18L59.9675 159.619L60.0207 159.512C59.6324 160.408 59.3844 160.964 59.2738 161.18Z" fill="#77389A"/>
<path d="M91.2656 177.228C88.0659 176.078 85.3037 174.908 82.9693 173.717C80.6349 172.527 79.2212 171.001 78.7166 169.142C78.5846 168.653 78.5231 168.243 78.5366 167.909C78.5294 164.097 79.1188 159.322 80.2979 153.587C81.4732 147.854 83.0143 141.558 84.9199 134.698C86.8216 127.84 102.165 78.0832 102.259 78.044C103.263 77.9443 104.906 78.3097 107.196 79.1364C109.477 79.9672 111.172 81.0763 112.27 82.4628C112.507 82.5835 112.653 82.737 112.707 82.9339C113.113 84.0678 114.053 84.8699 115.524 85.3371C116.986 85.8075 117.88 86.6265 118.198 87.8005C119.099 91.1249 118.872 95.2282 117.515 100.111C116.159 104.996 110.563 115.083 107.081 120.865C103.599 126.652 103.929 124.615 100.427 129.755C96.9241 134.894 93.8894 139.372 91.3141 143.189C89.6529 148.472 89.0086 152.837 89.3736 156.28C89.7386 159.723 90.1826 162.206 90.6997 163.731C94.3492 158.583 97.6707 153.141 100.648 147.405C101.428 146.094 102.591 144.21 104.141 141.753C105.691 139.296 107.315 136.836 109.021 134.366C110.724 131.902 112.035 130.089 112.957 128.934C113.817 127.915 114.493 127.083 114.989 126.435C115.482 125.792 115.437 125.918 114.859 126.82C113.143 129.619 110.822 133.222 107.893 137.627C112.156 131.674 116.684 126.7 121.473 122.705C122.386 121.883 123.117 121.352 123.671 121.116C124.596 120.723 124.686 121.259 123.95 122.715C123.21 124.175 122.294 125.736 121.2 127.399C116.148 134.998 110.974 142.917 105.687 151.157C100.396 159.397 95.5902 168.091 91.2637 177.229L91.2656 177.228ZM93.4519 164.199C94.1788 162.692 95.1249 160.871 96.3047 158.736C97.4752 156.604 98.7884 154.029 100.238 151.014C100.898 149.646 101.933 147.679 103.355 145.113C104.772 142.55 106.284 140.053 107.893 137.627C104.937 141.934 102.393 145.848 100.256 149.371C98.1229 152.894 96.1735 156.173 94.4201 159.206L93.1536 162.526C92.7849 163.446 92.6992 164.083 92.899 164.433C93.0944 164.788 93.2811 164.708 93.4519 164.199ZM94.6762 132.766C97.4458 128.541 107.06 111.064 109.032 104.448C110.999 97.8338 111.903 92.3265 111.74 87.9224C110.609 90.5865 109.088 94.1999 107.184 98.7696C105.276 103.342 98.3522 123.138 96.2983 128.48C96.1002 128.89 95.8656 129.456 95.5952 130.169C95.3257 130.884 95.0181 131.749 94.6762 132.766Z" fill="#77389A"/>
<path d="M265.576 103.262C262.466 102.144 259.781 101.007 257.512 99.8502C255.243 98.6934 253.869 97.2096 253.379 95.4031C253.251 94.9278 253.191 94.5307 253.204 94.2045C253.198 90.5002 253.769 85.8583 254.917 80.2847C256.06 74.7121 257.557 68.5921 259.41 61.9255C261.258 55.2599 276.172 6.89846 276.263 6.85998C277.239 6.76339 278.835 7.11808 281.061 7.92167C283.278 8.72946 284.926 9.80723 285.993 11.1543C286.223 11.2721 286.365 11.4212 286.416 11.6121C286.811 12.7141 287.725 13.494 289.155 13.948C290.576 14.4051 291.445 15.2007 291.753 16.3423C292.629 19.5737 292.408 23.5618 291.09 28.3066C289.773 33.0545 284.333 42.8591 280.948 48.4785C277.565 54.1031 277.884 52.1239 274.481 57.1189C271.077 62.1151 268.128 66.4667 265.623 70.1763C264.009 75.3109 263.382 79.5537 263.737 82.9004C264.092 86.2474 264.523 88.6605 265.027 90.1416C268.574 85.1393 271.802 79.8491 274.696 74.2742C275.454 72.9999 276.584 71.1685 278.091 68.7803C279.598 66.3921 281.176 64.0012 282.834 61.6007C284.489 59.2062 285.764 57.4443 286.66 56.3213C287.495 55.3315 288.152 54.5229 288.635 53.8936C289.114 53.2673 289.07 53.3913 288.509 54.2676C286.841 56.9883 284.585 60.4903 281.737 64.7708C285.881 58.9849 290.282 54.1497 294.936 50.2673C295.823 49.4683 296.535 48.9516 297.073 48.7226C297.971 48.3416 298.06 48.8621 297.344 50.2773C296.625 51.6965 295.734 53.2131 294.671 54.8293C289.761 62.2158 284.731 69.9129 279.593 77.9214C274.451 85.931 269.781 94.3806 265.576 103.262ZM267.701 90.5982C268.408 89.1331 269.328 87.3636 270.474 85.289C271.611 83.2164 272.888 80.7135 274.296 77.7834C274.938 76.4536 275.944 74.5415 277.325 72.048C278.703 69.5566 280.174 67.1289 281.737 64.7708C278.864 68.9574 276.39 72.7617 274.313 76.1857C272.24 79.6108 270.345 82.7981 268.641 85.746L267.41 88.9724C267.052 89.8664 266.968 90.4866 267.162 90.8264C267.352 91.1705 267.536 91.093 267.701 90.5982ZM268.892 60.0476C271.583 55.9401 280.928 38.9542 282.844 32.5233C284.756 26.0944 285.634 20.7417 285.477 16.4609C284.377 19.0495 282.9 22.5629 281.05 27.0041C279.194 31.4475 272.465 50.6894 270.469 55.8812C270.277 56.2803 270.048 56.83 269.786 57.5229C269.524 58.218 269.224 59.0597 268.892 60.0476Z" fill="#77389A"/>
<path d="M132.032 156.614C130.649 157.2 129.117 157.527 127.432 157.604C125.747 157.681 124.16 157.395 122.662 156.749C121.169 156.104 119.436 154.888 117.47 153.104C115.498 151.32 114.207 149.282 113.585 146.984C113.33 146.044 113.252 145.149 113.35 144.289C114.074 133.976 116.975 123.579 122.056 113.103C127.141 102.626 134.112 92.6537 142.989 83.185C144.371 82.5982 145.949 82.5386 147.724 83.0089C149.503 83.474 151.094 84.2841 152.51 85.4288L155.425 85.2408C155.019 84.1338 154.48 83.576 153.817 83.5639C153.156 83.558 152.754 83.2894 152.613 82.768C152.554 81.7443 153.044 80.9267 154.089 80.3089C155.133 79.6912 155.899 79.2792 156.395 79.0687C157.972 78.3988 159.484 78.6017 160.933 79.6737C162.377 80.7476 163.39 82.1507 163.97 83.8839C166.419 83.1939 168.945 82.3546 171.538 81.3697C174.132 80.3868 176.397 79.5126 178.332 78.7478C180.273 77.986 181.337 77.5598 181.537 77.4744L181.98 77.2859C182.276 77.1608 182.481 77.3094 182.594 77.7255C182.792 78.4569 182.565 79.25 181.921 80.1055C181.16 81.3588 179.017 82.8811 175.484 84.6698C171.955 86.4563 168.216 88.1899 164.269 89.8646C164.201 91.6387 163.91 93.6232 163.41 95.8156C162.905 98.0092 162.26 100.319 161.491 102.739C160.967 104.474 160.126 106.839 158.96 109.836C157.79 112.834 156.581 115.881 155.328 118.971C154.078 122.063 153.018 124.664 152.16 126.774C152.824 125.561 153.875 123.457 155.316 120.458C156.758 117.463 157.897 114.856 158.726 112.641C159.052 111.805 159.515 110.472 160.12 108.645C160.725 106.819 161.316 105.056 161.901 103.351C162.487 101.649 162.822 100.548 162.904 100.047C162.385 103.408 161.495 106.813 160.228 110.258C158.962 113.705 157.625 116.893 156.217 119.815C154.809 122.743 153.591 125.15 152.567 127.038C151.538 128.93 150.952 130.023 150.813 130.313C147.916 136.665 144.798 142.323 141.471 147.283C138.138 152.248 134.995 155.356 132.035 156.612L132.032 156.614ZM125.857 153.299C126.347 153.091 126.896 152.684 127.502 152.075C128.42 150.988 129.552 149.404 130.915 147.312C132.273 145.223 133.694 143.052 135.17 140.792C136.452 138.619 137.838 136.024 139.331 133.003C140.82 129.987 142.403 126.493 144.08 122.522C145.543 118.995 147.089 115.168 148.723 111.038C150.353 106.915 151.9 102.68 153.364 98.3341L151.736 101.468C152.23 100.446 152.817 99.0608 153.497 97.3165C154.183 95.5722 154.77 94.19 155.263 93.1648C152.147 94.2539 150.278 94.8722 149.659 95.0171C149.616 95.2711 149.496 95.4344 149.3 95.5178C149.1 95.6022 148.906 95.2798 148.708 94.5484L148.474 93.6866C148.376 93.3234 148.317 92.912 148.305 92.4509C147.29 92.7657 146.246 93.3833 145.176 94.3018C144.107 95.2222 143.013 96.6755 141.902 98.6574C140.677 101.041 139.074 104.049 137.088 107.684C135.101 111.318 133.108 115.339 131.11 119.734C129.113 124.132 127.351 128.69 125.823 133.412C124.301 138.131 123.35 142.839 122.971 147.539C122.814 149.002 122.91 150.359 123.25 151.609C123.731 153.387 124.611 153.593 125.896 152.233C125.485 152.755 125.294 153.073 125.323 153.176C125.379 153.385 125.557 153.426 125.857 153.299ZM125.896 152.233C127.487 150.396 129.871 146.912 133.046 141.78C136.218 136.656 139.264 130.736 142.177 124.028C143.136 121.875 144.226 119.405 145.447 116.618C146.674 113.828 147.869 111.14 149.038 108.549C150.206 105.959 151.093 103.954 151.697 102.534C150.22 106.42 148.837 109.944 147.552 113.107C146.262 116.272 145.014 119.276 143.806 122.116C140.93 128.572 137.863 134.588 134.587 140.168C131.314 145.746 128.416 149.766 125.896 152.233Z" fill="#77389A"/>
<path d="M183.874 134.441C181.705 135.361 179.144 135.456 176.199 134.73C173.254 134.003 170.59 132.804 168.215 131.137C165.834 129.47 164.378 127.645 163.84 125.661C162.991 122.529 162.871 118.826 163.472 114.556C164.074 110.285 165.165 105.78 166.74 101.038C168.316 96.2985 170.248 91.6657 172.546 87.1401C174.839 82.6187 177.267 78.5919 179.829 75.0611C179.718 73.829 180.239 72.2976 181.391 70.4709C182.548 68.642 184.158 67.2891 186.233 66.4094C187.415 65.9083 188.606 65.6359 189.805 65.5906C190.987 65.0895 192.602 65.3627 194.647 66.4155C196.692 67.4682 198.624 68.7174 200.443 70.1554C202.263 71.5934 203.412 72.7955 203.894 73.7516C204.318 75.3173 203.972 77.2972 202.862 79.6888C201.75 82.0806 200.452 84.2902 198.965 86.3162C197.479 88.344 196.343 89.5261 195.556 89.8594C195.161 90.0272 194.918 89.9536 194.833 89.6404C194.664 89.0151 194.996 87.5947 195.825 85.3789C196.176 84.6513 196.541 83.5658 196.924 82.1204C197.3 80.6823 197.633 79.2616 197.912 77.8611C198.192 76.4625 198.247 75.45 198.077 74.8216C196.233 75.7227 194.08 77.6256 191.625 80.5289C189.166 83.4366 186.751 86.904 184.379 90.9363C182.008 94.9706 179.862 99.1367 177.95 103.439C176.033 107.742 174.63 111.801 173.739 115.612C172.847 119.423 172.713 122.477 173.334 124.772C173.617 125.818 174.112 126.626 174.816 127.199C175.524 127.771 176.603 127.692 178.052 126.961C179.393 125.811 180.916 124.233 182.626 122.226C184.337 120.221 186.128 118.007 188.005 115.579L185.809 119.654C185.598 120.093 185.232 120.976 184.71 122.302C184.187 123.632 184.098 124.105 184.436 123.726C185.929 121.115 187.658 118.257 189.623 115.154C191.584 112.053 193.652 108.819 195.822 105.452C194.523 107.17 193.211 108.919 191.883 110.703C190.55 112.492 189.256 114.118 188.005 115.579L194.403 105.705C197.502 100.901 200.466 96.6177 203.295 92.8567C206.128 89.0956 208.923 85.8152 211.682 83.0137C209.403 85.9596 206.977 89.2867 204.406 92.9955C201.834 96.7045 199.25 100.449 196.645 104.231C199.713 100.137 202.777 96.1049 205.824 92.1326C208.873 88.1623 211.601 84.7359 214.008 81.8502C215.431 80.2001 216.534 79.2088 217.326 78.8733C218.017 78.5804 218.435 78.6925 218.576 79.2139C218.689 79.6321 218.449 80.4913 217.869 81.7829C217.284 83.0798 216.28 84.5512 214.858 86.2042C213.096 88.2341 211.139 90.9537 208.986 94.369C206.83 97.7863 204.541 101.522 202.121 105.574C199.701 109.629 197.338 113.597 195.037 117.481C192.732 121.372 190.619 124.83 188.69 127.855C187.763 129.298 186.895 130.568 186.093 131.664C185.289 132.758 184.552 133.684 183.874 134.439L183.874 134.441Z" fill="#77389A"/>
<path d="M215.828 122.628C215.237 122.879 214.131 122.562 212.519 121.674C210.903 120.79 209.244 119.749 207.548 118.548C205.846 117.349 204.589 116.457 203.772 115.871C203.555 111.425 203.957 106.514 204.972 101.135C205.991 95.7574 207.4 90.3041 209.2 84.7665C211 79.231 212.91 74.0006 214.928 69.0684C216.946 64.1403 218.752 59.9392 220.343 56.4722C219.033 58.5405 217.734 61.043 216.44 63.976C215.142 66.9143 214.248 68.8923 213.759 69.9123C212.912 71.6691 212.062 73.3985 211.2 75.1003C210.344 76.805 209.575 78.4387 208.904 80.0029C210.815 74.8906 212.789 70.0943 214.824 65.621C216.856 61.1548 218.373 58.1234 219.372 56.535C219.583 56.0968 219.904 55.553 220.333 54.9046C220.759 54.2602 221.308 53.735 221.971 53.3381L222.771 51.4273C225.465 50.4027 228.558 50.0488 232.055 50.3663C235.55 50.6909 238.756 51.6562 241.67 53.2704C244.579 54.8888 246.522 57.2924 247.499 60.485C247.613 60.9032 247.523 61.3772 247.226 61.9081C246.929 62.4442 246.584 62.3855 246.191 61.7375C245.075 60.4647 243.902 59.3916 242.676 58.5162C241.45 57.6387 240.195 57.0672 238.909 56.7964C237.753 56.5901 236.634 56.7156 235.547 57.1773C234.365 57.6784 233.391 58.5562 232.63 59.8095C231.082 62.2128 229.37 65.5311 227.492 69.7576C225.61 73.9916 223.796 78.4559 222.045 83.155C220.294 87.854 218.811 92.3238 217.594 96.5647C216.378 100.806 215.673 104.186 215.476 106.714C215.874 105.732 216.625 104.249 217.736 102.265C218.85 100.279 220.053 98.226 221.35 96.1034C222.641 93.9843 223.758 92.2026 224.686 90.7599C224.992 90.2812 225.666 89.2983 226.694 87.8129C227.717 86.3328 228.807 84.7656 229.954 83.1146C231.102 81.4636 232.053 80.1888 232.797 79.2875C232.855 79.4996 232.441 80.3122 231.562 81.7319C230.683 83.1536 229.606 84.7741 228.34 86.5915C227.074 88.4109 225.902 90.0687 224.822 91.5761C223.746 93.0782 223.101 94.052 222.89 94.4903C222.085 95.9955 221.153 97.7299 220.095 99.6909C219.028 101.656 218.061 103.463 217.19 105.113C216.32 106.765 215.755 107.935 215.5 108.623C215.413 109.126 215.437 109.408 215.565 109.47C215.693 109.531 215.846 109.292 216.029 108.749C216.553 107.014 217.486 104.988 218.84 102.667C220.189 100.349 221.703 97.9349 223.389 95.4108C225.073 92.8948 226.567 90.6017 227.877 88.5334C229.426 86.13 230.854 83.9834 232.153 82.0912C233.459 80.2017 234.608 78.4626 235.608 76.875C235.109 74.6404 235.467 72.8051 236.67 71.3602C237.874 69.9184 238.914 69.1847 239.79 69.1643C240.438 69.1224 241.454 69.1271 242.844 69.1761C244.23 69.2294 245.524 69.4363 246.722 69.7988C247.922 70.1642 248.45 70.8992 248.313 72.0053C248.075 73.9678 248.255 76.7731 248.859 80.4134C249.459 84.0611 250.157 87.3414 250.949 90.2638C252.08 94.4397 253.88 96.0016 256.344 94.9554C257.626 94.4116 259.155 92.9507 260.932 90.5659C261.577 89.7102 262.098 89.2001 262.493 89.0313C262.789 88.9062 262.979 88.9997 263.063 89.3119C263.177 89.7301 263.091 90.433 262.812 91.4259C262.529 92.4176 262.319 93.0604 262.181 93.3528C261.361 95.2128 260.292 97.0332 258.959 98.8216C257.63 100.606 256.125 101.857 254.448 102.569C253.756 102.862 253.038 103.053 252.288 103.133C251.541 103.22 250.751 103.148 249.922 102.917C246.973 102.193 244.489 100.222 242.463 97.0038C240.434 93.793 239.071 90.8798 238.364 88.2706C238.195 87.6453 238.063 87.0633 237.969 86.5181C237.88 85.974 237.825 85.4751 237.811 85.0131C236.979 86.4152 235.613 88.7685 233.704 92.0807C231.795 95.3928 229.686 99.0822 227.38 103.142C225.069 107.207 222.857 111.028 220.747 114.597C218.637 118.171 216.997 120.844 215.826 122.623L215.828 122.628Z" fill="#77389A"/>
</svg>
