<svg width="160" height="24" viewBox="0 0 160 24" fill="none" xmlns="http://www.w3.org/2000/svg">
<path d="M17.5781 23V11.338C17.5781 8.14202 15.8441 6.17002 12.2401 6.17002C9.55409 6.17002 7.51409 7.46202 6.46009 8.72002V0.322021H2.14209V23H6.46009V11.95C7.20809 10.964 8.53409 10.012 10.2001 10.012C12.0701 10.012 13.2601 10.726 13.2601 13.004V23H17.5781Z" fill="#8746A8"/>
<path d="M29.2257 23.408C34.6657 23.408 37.9297 19.464 37.9297 14.772C37.9297 10.114 34.6657 6.17002 29.2257 6.17002C23.8197 6.17002 20.5557 10.114 20.5557 14.772C20.5557 19.464 23.8197 23.408 29.2257 23.408ZM29.2257 19.566C26.5397 19.566 25.0437 17.356 25.0437 14.772C25.0437 12.222 26.5397 10.012 29.2257 10.012C31.9117 10.012 33.4417 12.222 33.4417 14.772C33.4417 17.356 31.9117 19.566 29.2257 19.566Z" fill="#8746A8"/>
<path d="M65.5962 23V11.134C65.5962 7.76802 63.7942 6.17002 60.7682 6.17002C58.2522 6.17002 56.0762 7.66602 55.1242 9.16202C54.5122 7.29202 52.9822 6.17002 50.5682 6.17002C48.0522 6.17002 45.8762 7.73402 45.1962 8.72002V6.57802H40.8782V23H45.1962V11.95C45.8422 11.032 47.1002 10.012 48.5962 10.012C50.3642 10.012 51.0442 11.1 51.0442 12.63V23H55.3962V11.916C56.0082 11.032 57.2662 10.012 58.7962 10.012C60.5642 10.012 61.2442 11.1 61.2442 12.63V23H65.5962Z" fill="#8746A8"/>
<path d="M77.2943 23.408C79.8443 23.408 82.4283 22.626 84.0603 21.13L82.1563 18.342C81.1023 19.362 79.1643 19.974 77.7703 19.974C74.9823 19.974 73.3163 18.24 73.0443 16.166H85.2503V15.214C85.2503 9.84202 81.9183 6.17002 77.0223 6.17002C72.0243 6.17002 68.5223 10.012 68.5223 14.772C68.5223 20.042 72.2963 23.408 77.2943 23.408ZM81.0683 13.242H72.9763C73.1803 11.61 74.3363 9.60402 77.0223 9.60402C79.8783 9.60402 80.9663 11.678 81.0683 13.242Z" fill="#8746A8"/>
<path d="M92.4323 17.73V11.916C93.1463 10.828 94.7443 10.012 96.1383 10.012C98.6543 10.012 100.32 11.95 100.32 14.806C100.32 17.662 98.6543 19.566 96.1383 19.566C94.7443 19.566 93.1463 18.784 92.4323 17.73ZM92.4323 23V20.892C93.7243 22.524 95.5263 23.408 97.4983 23.408C101.646 23.408 104.774 20.28 104.774 14.806C104.774 9.43402 101.68 6.17002 97.4983 6.17002C95.5603 6.17002 93.7243 7.02002 92.4323 8.68602V0.322021H88.1143V23H92.4323Z" fill="#8746A8"/>
<path d="M121.959 23V12.392C121.959 7.66602 118.525 6.17002 114.785 6.17002C112.201 6.17002 109.617 6.98602 107.611 8.75402L109.243 11.644C110.637 10.352 112.269 9.70602 114.037 9.70602C116.213 9.70602 117.641 10.794 117.641 12.46V14.67C116.553 13.378 114.615 12.664 112.439 12.664C109.821 12.664 106.727 14.126 106.727 17.968C106.727 21.64 109.821 23.408 112.439 23.408C114.581 23.408 116.519 22.626 117.641 21.3V23H121.959ZM114.173 20.484C112.473 20.484 111.079 19.6 111.079 18.07C111.079 16.472 112.473 15.588 114.173 15.588C115.567 15.588 116.927 16.064 117.641 17.016V19.056C116.927 20.008 115.567 20.484 114.173 20.484Z" fill="#8746A8"/>
<path d="M131.903 23.408C136.459 23.408 139.009 21.13 139.009 18.138C139.009 11.508 129.285 13.548 129.285 11.1C129.285 10.182 130.305 9.46802 131.869 9.46802C133.875 9.46802 135.745 10.318 136.731 11.372L138.465 8.41402C136.833 7.12202 134.623 6.17002 131.835 6.17002C127.517 6.17002 125.103 8.58402 125.103 11.338C125.103 17.798 134.861 15.588 134.861 18.308C134.861 19.328 133.977 20.076 132.107 20.076C130.067 20.076 127.619 18.954 126.429 17.832L124.559 20.858C126.293 22.456 129.047 23.408 131.903 23.408Z" fill="#8746A8"/>
<path d="M149.653 23.408C152.203 23.408 154.787 22.626 156.419 21.13L154.515 18.342C153.461 19.362 151.523 19.974 150.129 19.974C147.341 19.974 145.675 18.24 145.403 16.166H157.609V15.214C157.609 9.84202 154.277 6.17002 149.381 6.17002C144.383 6.17002 140.881 10.012 140.881 14.772C140.881 20.042 144.655 23.408 149.653 23.408ZM153.427 13.242H145.335C145.539 11.61 146.695 9.60402 149.381 9.60402C152.237 9.60402 153.325 11.678 153.427 13.242Z" fill="#8746A8"/>
</svg>
