<svg width="21" height="68" viewBox="0 0 21 68" fill="none" xmlns="http://www.w3.org/2000/svg">
<path d="M20.2508 66.6939C20.5259 66.6698 20.7294 66.4273 20.7054 66.1522L20.3132 61.6693C20.2892 61.3943 20.0467 61.1908 19.7716 61.2148C19.4965 61.2389 19.293 61.4814 19.317 61.7565L19.6656 65.7413L15.6808 66.0898C15.4057 66.1139 15.2022 66.3564 15.2263 66.6315C15.2504 66.9066 15.4929 67.1101 15.768 67.086L20.2508 66.6939ZM18.3681 0.519023C11.364 5.40397 3.00969 14.5741 0.781908 26.2275C-1.45557 37.9316 2.51143 51.9996 19.8859 66.5788L20.5287 65.8128C3.35846 51.4049 -0.389043 37.6783 1.76412 26.4153C3.92697 15.1015 12.0684 6.13186 18.9402 1.33924L18.3681 0.519023Z" fill="black"/>
</svg>
