<svg width="17" height="17" viewBox="0 0 17 17" fill="none" xmlns="http://www.w3.org/2000/svg">
<path d="M15.1596 16.186L15.1602 16.1866C15.3022 16.329 15.4789 16.41 15.6812 16.41C15.8835 16.41 16.0602 16.329 16.2022 16.1866C16.3418 16.0466 16.4098 15.8692 16.4098 15.6725C16.4098 15.4761 16.342 15.2989 16.2027 15.159C16.2025 15.1588 16.2024 15.1587 16.2022 15.1585L11.7076 10.6218C12.0882 10.1249 12.3938 9.57278 12.6245 8.96647C12.885 8.28189 13.0148 7.55915 13.0148 6.80005C13.0148 5.93761 12.8514 5.12384 12.5233 4.36124C12.1971 3.60301 11.7505 2.94108 11.1836 2.37772C10.6173 1.81492 9.95529 1.37008 9.19978 1.04311C8.43959 0.714125 7.63296 0.550049 6.78228 0.550049C5.92206 0.550049 5.11039 0.713958 4.34982 1.04311C3.59431 1.37008 2.93233 1.81492 2.36598 2.37772C1.79876 2.94138 1.35453 3.60376 1.03323 4.36257C0.710469 5.12485 0.549805 5.93816 0.549805 6.80005C0.549805 7.66193 0.710469 8.47524 1.03323 9.23752C1.35453 9.99633 1.79876 10.6587 2.36598 11.2224C2.93233 11.7852 3.59431 12.23 4.34982 12.557C5.11039 12.8861 5.92206 13.05 6.78228 13.05C7.55975 13.05 8.29854 12.9148 8.99673 12.643C9.61647 12.4018 10.1796 12.0773 10.6851 11.6694L15.1596 16.186ZM6.78228 11.605C6.11687 11.605 5.4952 11.4789 4.91471 11.2281C4.32999 10.9754 3.82356 10.6308 3.39322 10.1945C2.96188 9.75714 2.62009 9.24816 2.36779 8.66568C2.11786 8.0887 1.99204 7.46771 1.99204 6.80005C1.99204 6.13239 2.11786 5.5114 2.36779 4.93442C2.62009 4.35193 2.96188 3.84296 3.39323 3.4056C3.82356 2.96925 4.32999 2.62473 4.91471 2.37204C5.4952 2.12117 6.11687 1.99505 6.78228 1.99505C7.4372 1.99505 8.05394 2.12098 8.63488 2.37204C9.21961 2.62473 9.72604 2.96925 10.1564 3.4056C10.5877 3.84296 10.9295 4.35193 11.1818 4.93442C11.4317 5.5114 11.5576 6.13239 11.5576 6.80005C11.5576 7.46771 11.4317 8.0887 11.1818 8.66568C10.9295 9.24816 10.5877 9.75714 10.1564 10.1945C9.72604 10.6308 9.21961 10.9754 8.63488 11.2281C8.05394 11.4791 7.43719 11.605 6.78228 11.605Z" fill="#8746A8" stroke="#8746A8" stroke-width="0.5"/>
</svg>
