<svg width="22" height="22" viewBox="0 0 22 22" fill="none" xmlns="http://www.w3.org/2000/svg">
<path fill-rule="evenodd" clip-rule="evenodd" d="M11 22C4.93442 22 0 17.0649 0 11.0005C0 4.93513 4.93442 0 11 0C17.0656 0 22 4.93513 22 11.0005C22 17.0649 17.0656 22 11 22Z" fill="#04A2BD"/>
<path fill-rule="evenodd" clip-rule="evenodd" d="M10.4834 11.8251H12.4588L12.832 5.5H10.082L10.4834 11.8251ZM11.4329 16.501C10.7014 16.501 10.0833 15.8802 10.0833 15.1462C10.0833 14.4056 10.7014 13.7804 11.4329 13.7804C12.1644 13.7804 12.7825 14.4056 12.7825 15.1462C12.7825 15.8802 12.1644 16.501 11.4329 16.501Z" fill="white"/>
</svg>
