<svg width="18" height="21" viewBox="0 0 18 21" fill="none" xmlns="http://www.w3.org/2000/svg">
<path d="M12.8867 20.2695C13.2253 20.2695 13.5215 20.1523 13.7754 19.918C14.0293 19.6836 14.1693 19.3971 14.1953 19.0586L15.6602 4.60547H16.5195C16.6888 4.60547 16.8353 4.54362 16.959 4.41992C17.0827 4.29622 17.1445 4.14974 17.1445 3.98047C17.1445 3.8112 17.0827 3.66471 16.959 3.54102C16.8353 3.41732 16.6888 3.35547 16.5195 3.35547H12.125V1.65625C12.125 1.2526 11.9818 0.914062 11.6953 0.640625C11.4089 0.367188 11.0703 0.230469 10.6797 0.230469H7.32031C6.92969 0.230469 6.59115 0.367188 6.30469 0.640625C6.01823 0.914062 5.875 1.2526 5.875 1.65625V3.35547H1.48047C1.3112 3.35547 1.16471 3.41732 1.04102 3.54102C0.917318 3.66471 0.855469 3.8112 0.855469 3.98047C0.855469 4.14974 0.917318 4.29622 1.04102 4.41992C1.16471 4.54362 1.3112 4.60547 1.48047 4.60547H2.33984L3.78516 19.0586C3.82422 19.3971 3.9707 19.6836 4.22461 19.918C4.47852 20.1523 4.77474 20.2695 5.11328 20.2695H12.8867ZM10.875 3.35547H7.125V1.65625C7.125 1.60417 7.14453 1.55859 7.18359 1.51953C7.22266 1.48047 7.26823 1.46094 7.32031 1.46094H10.6797C10.7318 1.46094 10.7773 1.48047 10.8164 1.51953C10.8555 1.55859 10.875 1.60417 10.875 1.65625V3.35547ZM12.8867 19.0195H5.11328C5.10026 19.0195 5.08398 19.0098 5.06445 18.9902C5.04492 18.9707 5.03516 18.9544 5.03516 18.9414L3.60938 4.60547H14.3906L12.9648 18.9414C12.9648 18.9674 12.9551 18.987 12.9355 19C12.916 19.013 12.8997 19.0195 12.8867 19.0195Z" fill="#969BA0"/>
<line x1="7.40133" y1="19.0399" x2="6.40133" y2="4.03991" stroke="#969BA0" stroke-width="1.2"/>
<line y1="-0.6" x2="15.0333" y2="-0.6" transform="matrix(0.066519 -0.997785 -0.997785 -0.066519 10 19)" stroke="#969BA0" stroke-width="1.2"/>
</svg>
