<svg width="49" height="31" viewBox="0 0 49 31" fill="none" xmlns="http://www.w3.org/2000/svg">
<g clip-path="url(#clip0_120_1509)">
<path fill-rule="evenodd" clip-rule="evenodd" d="M8.77699 24.4731C9.22949 24.2348 9.54058 24.1541 9.72997 23.9569C10.5843 23.0626 11.7756 22.7008 12.7445 21.986C13.7246 21.263 14.771 20.6286 15.7912 19.956C16.8089 19.284 17.8438 18.6367 18.8405 17.9358C21.587 16.0075 24.3156 14.052 27.0538 12.1126C29.1702 10.6139 31.3311 9.17248 33.3991 7.61226C35.1012 6.32575 36.7038 4.9062 38.3395 3.53099C39.2736 2.74571 40.1765 1.92352 41.1062 1.13145C41.4135 0.868095 41.7392 0.613161 42.0907 0.415166C42.5231 0.171531 42.9808 0.240542 43.3936 0.499891C43.8537 0.786509 43.9395 1.47419 43.5441 1.80638C39.6551 5.07358 35.9407 8.55486 31.8023 11.5269C29.1169 13.4548 26.4947 15.4697 23.7914 17.3705C20.9223 19.3876 17.9886 21.3128 15.0882 23.2824C13.9105 24.0824 12.7373 24.8892 11.5717 25.7046C11.4305 25.8036 11.3348 25.973 11.1036 26.2425C11.7947 26.3581 12.2704 26.1668 12.7174 26.0071C13.6343 25.6842 14.5065 25.7007 15.4643 26.216C15.4378 26.4945 15.4574 26.846 15.358 27.1601C15.2436 27.5181 14.9199 27.7007 14.5542 27.796C11.8975 28.4999 9.27969 29.369 6.51973 29.6081C6.36905 29.6219 6.21375 29.6582 6.06319 29.6426C4.80372 29.5116 4.16832 28.4415 4.57543 27.5073C5.28826 25.8764 5.94955 24.222 6.72402 22.6224C7.3417 21.3416 8.09013 20.1217 8.78636 18.8758C9.92812 16.8291 10.9058 14.7066 11.6799 12.4897C11.8268 12.0644 12.0896 11.6745 12.3358 11.2919C12.4391 11.1311 12.6234 11.0045 12.797 10.9074C13.227 10.6644 13.7848 10.9382 13.836 11.4275C13.9665 12.6595 13.8524 13.8825 13.3783 15.0236C12.7747 16.4763 12.1097 17.9081 11.4069 19.3181C10.7016 20.7288 9.91322 22.0979 9.17395 23.4911C9.04341 23.739 8.96259 24.0135 8.78196 24.4718L8.77699 24.4731Z" fill="white"/>
</g>
<defs>
<clipPath id="clip0_120_1509">
<rect width="45.0255" height="19.38" fill="white" transform="matrix(0.965926 -0.258819 -0.258819 -0.965926 5.0159 30.373)"/>
</clipPath>
</defs>
</svg>
