<svg width="48" height="59" viewBox="0 0 48 59" fill="none" xmlns="http://www.w3.org/2000/svg">
<g clip-path="url(#clip0_62_1786)">
<path fill-rule="evenodd" clip-rule="evenodd" d="M20.3272 41.2056C19.7611 41.5325 19.1494 41.8176 18.6205 42.2089C17.9904 42.6728 18.1331 43.7316 18.848 44.0343C19.5218 44.3214 20.242 44.5031 20.9161 44.7971C24.4121 46.3167 27.7251 48.1638 30.8463 50.354C31.8504 51.0586 32.8748 51.7299 33.921 52.3708C34.4354 52.6856 35.0169 52.8936 35.5729 53.1378C36.8289 53.6898 38.1668 52.971 38.4787 51.7392C38.7173 50.7893 39.056 49.864 39.2735 48.9085C39.799 46.634 39.9996 44.3109 40.1265 41.984C40.239 39.905 40.3431 37.8237 40.4933 35.7479C40.5323 35.1709 40.4969 34.6512 40.1424 34.1797C39.8997 33.8584 39.5804 33.6957 39.1865 33.7693C38.2573 33.9445 37.5243 34.6825 37.3643 35.6012C37.3115 35.9 37.3163 36.212 37.2985 36.5157C37.1694 38.5971 37.0653 40.6784 36.9055 42.7561C36.8121 43.9762 36.6423 45.194 36.4848 46.4082C36.4566 46.632 36.3303 46.8408 36.2092 47.1576C35.5569 46.3501 35.5257 45.4595 35.2958 44.6585C34.3015 41.183 33.4628 37.6606 32.3841 34.2123C30.5726 28.429 28.7121 22.6598 26.6926 16.95C25.5123 13.6106 24.1316 10.3331 22.5047 7.16203C21.6964 5.58243 20.8667 4.01522 20.0209 2.4573C19.8756 2.18703 19.7368 1.90944 19.5436 1.67397C19.08 1.11884 18.2829 1.08896 17.7598 1.57701C16.9294 2.35693 16.8524 2.9237 17.411 4.02138C18.4131 5.98632 19.4259 7.94506 20.4092 9.92084C22.0532 13.2144 23.3616 16.6517 24.5407 20.1314C26.2119 25.0584 27.8221 30.0099 29.3844 34.9712C30.6184 38.8807 31.7285 42.8295 32.6555 46.8268C32.7193 47.1047 32.7464 47.3932 32.8314 47.9308C31.3456 47.0179 30.0765 46.2016 28.7751 45.4469C27.4505 44.6769 26.1118 43.9259 24.745 43.2376C23.377 42.5535 21.9656 41.9553 20.323 41.2045L20.3272 41.2056Z" fill="white"/>
</g>
<defs>
<clipPath id="clip0_62_1786">
<rect width="23.5826" height="54.4735" fill="white" transform="matrix(-0.866025 0.5 0.5 0.866025 20.4231 0)"/>
</clipPath>
</defs>
</svg>
