<svg width="28" height="28" viewBox="0 0 28 28" fill="none" xmlns="http://www.w3.org/2000/svg">
<path fill-rule="evenodd" clip-rule="evenodd" d="M14 2.3125C7.54517 2.3125 2.3125 7.54517 2.3125 14C2.3125 20.4548 7.54517 25.6875 14 25.6875C20.4548 25.6875 25.6875 20.4548 25.6875 14C25.6875 7.54517 20.4548 2.3125 14 2.3125ZM0.1875 14C0.1875 6.37157 6.37157 0.1875 14 0.1875C21.6284 0.1875 27.8125 6.37157 27.8125 14C27.8125 21.6284 21.6284 27.8125 14 27.8125C6.37157 27.8125 0.1875 21.6284 0.1875 14ZM14 8.6875C14.5868 8.6875 15.0625 9.1632 15.0625 9.75V12.9375H18.25C18.8368 12.9375 19.3125 13.4132 19.3125 14C19.3125 14.5868 18.8368 15.0625 18.25 15.0625H15.0625V18.25C15.0625 18.8368 14.5868 19.3125 14 19.3125C13.4132 19.3125 12.9375 18.8368 12.9375 18.25V15.0625H9.75C9.1632 15.0625 8.6875 14.5868 8.6875 14C8.6875 13.4132 9.1632 12.9375 9.75 12.9375H12.9375V9.75C12.9375 9.1632 13.4132 8.6875 14 8.6875Z" fill="#FB1FFF"/>
</svg>
