<svg width="40" height="37" viewBox="0 0 40 37" fill="none" xmlns="http://www.w3.org/2000/svg">
<g clip-path="url(#clip0_708_2319)">
<path d="M27.5121 28.3354C22.9328 28.518 18.3636 27.6374 13.7939 27.8425C11.7264 27.9351 14.4387 25.5237 15.5328 25.4755C18.0789 25.3602 20.6449 25.6259 23.1822 25.7847C24.7644 25.883 28.1328 25.9801 28.2346 25.9797C27.7334 25.7241 27.2416 25.4571 26.7705 25.2274C23.9244 23.8494 21.1144 22.3991 18.3117 20.9361C13.7598 18.5647 8.65597 16.3628 4.56416 13.219C3.49485 12.3985 6.59656 10.3388 7.52364 11.049C11.4469 14.0644 16.3233 16.1718 20.6844 18.4583C23.3392 19.8501 26.0087 21.2164 28.6935 22.5465C27.9315 21.311 27.1306 20.1039 26.5093 18.9667C24.8938 16.0142 22.7498 12.9118 21.7176 9.6868C21.316 8.42812 24.6889 6.82688 25.0189 7.85798C25.9883 10.8888 27.9907 13.7966 29.504 16.5744C31.0528 19.4178 32.7148 22.2165 34.1642 25.1097C35.3662 27.5131 28.5634 28.2879 27.5124 28.3299L27.5121 28.3354Z" fill="#2F0949"/>
</g>
<defs>
<clipPath id="clip0_708_2319">
<rect width="32.6107" height="23.2469" fill="white" transform="matrix(0.866025 0.5 0.5 -0.866025 0 20.1324)"/>
</clipPath>
</defs>
</svg>
