<svg width="89" height="22" viewBox="0 0 89 22" fill="none" xmlns="http://www.w3.org/2000/svg">
<path d="M86.2251 21.1736C86.3547 21.7105 86.895 22.0406 87.4319 21.911C87.9687 21.7814 88.2989 21.2412 88.1693 20.7043L86.2251 21.1736ZM40.9728 8.43679L41.5396 9.26065L40.9728 8.43679ZM0.854314 1.66594C0.307922 1.7464 -0.0697911 2.25457 0.0106692 2.80096L1.32184 11.7049C1.4023 12.2513 1.91047 12.629 2.45686 12.5486C3.00325 12.4681 3.38097 11.96 3.30051 11.4136L2.13502 3.49892L10.0497 2.33343C10.5961 2.25297 10.9738 1.7448 10.8933 1.19841C10.8128 0.65202 10.3047 0.274307 9.75829 0.354767L0.854314 1.66594ZM88.1693 20.7043C87.7197 18.8417 86.3512 15.8571 84.1379 12.7534C81.9141 9.63483 78.7887 6.32661 74.7698 3.86753C70.7416 1.40275 65.8182 -0.206087 60.0391 0.0920874C54.2647 0.390012 47.7103 2.58769 40.406 7.61293L41.5396 9.26065C48.6071 4.39836 54.8113 2.36447 60.1421 2.08943C65.4681 1.81464 69.9963 3.29143 73.726 5.57351C77.4649 7.86129 80.4035 10.9612 82.5095 13.9146C84.6261 16.8827 85.8534 19.6339 86.2251 21.1736L88.1693 20.7043ZM40.406 7.61293C30.3101 14.5587 22.2354 14.2327 15.9338 11.7134C12.7455 10.4387 9.97171 8.58546 7.58694 6.73925C6.3947 5.81625 5.30754 4.90136 4.31142 4.06178C3.32454 3.22998 2.41006 2.45737 1.59655 1.8527L0.403453 3.45785C1.15702 4.01797 2.01913 4.74536 3.02247 5.59103C4.01657 6.42892 5.13326 7.36899 6.36262 8.32072C8.82104 10.224 11.7614 12.1992 15.1913 13.5704C22.1261 16.3429 30.9035 16.578 41.5396 9.26065L40.406 7.61293Z" fill="black"/>
</svg>
