<svg width="72" height="52" viewBox="0 0 72 52" fill="none" xmlns="http://www.w3.org/2000/svg">
<path fill-rule="evenodd" clip-rule="evenodd" d="M19.1416 39.5691C20.3299 39.4164 21.5217 39.2868 22.7022 39.1004C24.1425 38.8745 25.5676 38.5075 27.0184 38.3815C28.001 38.2952 29.0383 38.401 30.0033 38.6287C30.8806 38.8373 31.6615 39.3923 31.8398 40.4045C31.9559 41.1172 31.0535 42.4095 30.1876 42.7789C29.784 42.9453 29.321 42.9829 28.8785 43.055C24.5568 43.7456 20.2403 44.4341 15.8544 44.5378C13.2309 44.6016 10.7306 43.9828 8.30212 43.0767C7.78723 42.8843 7.30774 42.5545 6.8671 42.2149C5.94971 41.5075 5.687 40.5731 6.16972 39.5276C6.44758 38.9223 6.85564 38.3798 7.24364 37.8333C10.0386 33.9019 12.8918 30.0078 15.6337 26.037C16.7734 24.3831 17.6881 22.5706 18.6867 20.8276C19.0216 20.2417 19.2782 19.6145 19.6227 19.0369C20.345 17.8435 21.5211 17.4381 22.7795 17.9312C23.0883 18.0553 23.3694 18.2461 23.6536 18.4295C24.786 19.1524 25.0556 19.7466 24.5788 20.9553C24.1276 22.0922 23.6101 23.2318 22.9726 24.2738C21.4448 26.7563 19.8173 29.1757 18.2429 31.6345C17.9095 32.1646 17.6535 32.7486 17.1313 33.743C18.1354 33.5006 18.6582 33.4445 19.1247 33.2521C28.1678 29.5531 37.2269 25.8781 46.2375 22.1004C51.1019 20.0635 55.8928 17.8484 60.7205 15.7223C61.7498 15.2733 62.784 14.7915 63.8615 14.5188C64.5893 14.3352 65.4412 14.3335 66.1615 14.5332C67.1385 14.805 68.0651 15.3859 68.1786 16.5536C68.2925 17.7518 67.4903 18.3648 66.4986 18.7861C66.1893 18.9136 65.8748 19.0434 65.5698 19.1814C58.0737 22.4817 50.6056 25.8501 43.0674 29.0633C35.6288 32.2356 28.1202 35.2527 20.6448 38.3358L19.0984 38.9736C19.1121 39.1704 19.1236 39.3619 19.1351 39.5534L19.1416 39.5691Z" fill="#FDBA18"/>
</svg>
