<svg width="18" height="14" viewBox="0 0 18 14" fill="none" xmlns="http://www.w3.org/2000/svg">
<path d="M0.92359 8.9559C0.92359 11.8277 2.73618 13.4617 4.80051 13.4617C6.7138 13.4617 8.22429 11.9267 8.22429 10.0947C8.22429 8.26271 6.9152 6.97536 5.25366 6.97536C4.90121 6.97536 4.49841 7.02487 4.39772 7.07438C4.69981 5.39092 6.4117 3.36086 8.02289 2.42009L5.60611 0.538574C2.83688 2.46961 0.92359 5.53946 0.92359 8.9559ZM10.2383 8.9559C10.2383 11.8277 12.0509 13.4617 14.1152 13.4617C16.0285 13.4617 17.539 11.9267 17.539 10.0947C17.539 8.26271 16.2299 6.97536 14.5683 6.97536C14.2159 6.97536 13.8131 7.02487 13.7124 7.07438C14.0145 5.39092 15.7264 3.36086 17.3376 2.42009L14.9208 0.538574C12.1516 2.46961 10.2383 5.53946 10.2383 8.9559Z" fill="white"/>
</svg>
