<svg width="83" height="41" viewBox="0 0 83 41" fill="none" xmlns="http://www.w3.org/2000/svg">
<path d="M80.4995 39.3401C80.4971 39.8924 80.9428 40.3421 81.4951 40.3445C82.0474 40.3469 82.4971 39.9011 82.4994 39.3488L80.4995 39.3401ZM39.5996 16.1625L39.9532 17.0979L39.5996 16.1625ZM2.25989 0.00450891C1.7101 -0.047878 1.22193 0.355351 1.16955 0.905145L0.315855 9.86457C0.263468 10.4144 0.666697 10.9025 1.21649 10.9549C1.76629 11.0073 2.25445 10.6041 2.30684 10.0543L3.06568 2.09035L11.0296 2.84918C11.5794 2.90157 12.0676 2.49834 12.12 1.94855C12.1723 1.39875 11.7691 0.910589 11.2193 0.858202L2.25989 0.00450891ZM82.4994 39.3488C82.5078 37.4328 81.8919 34.2077 80.4841 30.6651C79.0696 27.1056 76.8249 23.1466 73.5097 19.7987C70.1869 16.4431 65.7904 13.7047 60.1073 12.6138C54.4289 11.5238 47.5393 12.0922 39.246 15.2271L39.9532 17.0979C47.9776 14.0646 54.488 13.5716 59.7302 14.5779C64.9676 15.5833 69.012 18.099 72.0886 21.2059C75.1728 24.3206 77.2858 28.0327 78.6254 31.4037C79.9718 34.7915 80.5063 37.7562 80.4995 39.3401L82.4994 39.3488ZM39.246 15.2271C27.7833 19.5602 20.0202 17.3148 14.5028 13.3631C11.7113 11.3638 9.46047 8.90161 7.58575 6.53918C6.6485 5.35812 5.81135 4.21002 5.04462 3.15679C4.28501 2.11334 3.58155 1.14465 2.93603 0.363154L1.39405 1.63685C1.99201 2.36076 2.65541 3.27302 3.42769 4.33388C4.19287 5.38498 5.05267 6.56458 6.0191 7.78241C7.95172 10.2178 10.3352 12.8383 13.3382 14.9891C19.4099 19.3378 27.8771 21.6628 39.9532 17.0979L39.246 15.2271Z" fill="black"/>
</svg>
