<svg width="47" height="19" viewBox="0 0 47 19" fill="none" xmlns="http://www.w3.org/2000/svg">
<g clip-path="url(#clip0_311_10522)">
<path fill-rule="evenodd" clip-rule="evenodd" d="M38.0677 13.5998C37.2553 13.8189 36.4469 14.0538 35.6305 14.2489C34.6349 14.4879 33.6114 14.6313 32.6357 14.9379C31.9747 15.145 31.3295 15.4915 30.764 15.8977C30.2503 16.268 29.8919 16.8375 30.0472 17.5424C30.1627 18.0362 31.0946 18.6335 31.7556 18.6415C32.0623 18.6415 32.3729 18.542 32.6796 18.4703C35.6703 17.7614 38.6571 17.0525 41.5324 15.9454C43.2528 15.2844 44.7103 14.2131 46.0444 12.9746C46.3272 12.7118 46.5502 12.3693 46.7453 12.0308C47.1515 11.3259 47.0719 10.6489 46.4785 10.0993C46.136 9.78072 45.7258 9.5378 45.3276 9.28691C42.4603 7.48289 39.5651 5.7187 36.7217 3.87486C35.5389 3.10626 34.4597 2.17439 33.3446 1.31021C32.9703 1.0195 32.6357 0.680994 32.2574 0.398245C31.4689 -0.183182 30.5968 -0.131411 29.9118 0.525682C29.7445 0.688959 29.6131 0.888079 29.4777 1.08322C28.9361 1.85579 28.9202 2.31377 29.5534 2.97086C30.1507 3.58813 30.7919 4.18947 31.4848 4.69523C33.1415 5.89791 34.846 7.03288 36.5265 8.20768C36.8849 8.46256 37.2075 8.77318 37.8128 9.27894C37.096 9.39045 36.7416 9.49399 36.3871 9.49399C29.5255 9.5139 22.6599 9.55373 15.7983 9.5139C12.0946 9.49399 8.39104 9.33868 4.68743 9.25107C3.89892 9.23514 3.09846 9.1993 2.32588 9.3108C1.80419 9.38647 1.25064 9.61346 0.836474 9.93604C0.274959 10.3741 -0.171067 10.9993 0.0678751 11.7878C0.314782 12.5963 0.999751 12.7795 1.7564 12.7874C1.99136 12.7874 2.23031 12.7874 2.46527 12.7954C8.21582 12.9308 13.9664 13.118 19.7209 13.1857C25.3998 13.2534 31.0826 13.2016 36.7615 13.2016H37.9363C37.9801 13.333 38.0239 13.4604 38.0677 13.5879V13.5998Z" fill="#8746A8"/>
</g>
<defs>
<clipPath id="clip0_311_10522">
<rect width="47" height="18.6415" fill="white" transform="matrix(1 0 0 -1 0 18.6415)"/>
</clipPath>
</defs>
</svg>
