<?xml version="1.0" encoding="utf-8"?>
<!-- Generator: Adobe Illustrator 21.1.0, SVG Export Plug-In . SVG Version: 6.00 Build 0)  -->
<svg version="1.1" id="Слой_1" xmlns="http://www.w3.org/2000/svg" xmlns:xlink="http://www.w3.org/1999/xlink" x="0px" y="0px"
	 viewBox="0 0 235.9 39.8" style="enable-background:new 0 0 235.9 39.8;" xml:space="preserve">
<style type="text/css">
	.st0{filter:url(#Adobe_OpacityMaskFilter);}
	.st1{fill:#FFFFFF;}
	.st2{mask:url(#b_2_);fill:#8958A4;}
	.st3{filter:url(#Adobe_OpacityMaskFilter_1_);}
	.st4{mask:url(#b_1_);fill:#8958A4;}
	.st5{filter:url(#Adobe_OpacityMaskFilter_2_);}
	.st6{mask:url(#b_4_);fill:#8958A4;}
	.st7{filter:url(#Adobe_OpacityMaskFilter_3_);}
	.st8{mask:url(#b_3_);fill:#8958A4;}
	.st9{filter:url(#Adobe_OpacityMaskFilter_4_);}
	.st10{mask:url(#b_5_);fill:#8958A4;}
</style>
<image style="display:none;overflow:visible;" width="343" height="48" xlink:href="97EBC004.jpg"  transform="matrix(1 0 0 1 -19.4623 -3.479)">
</image>
<g>
	<defs>
		<filter id="Adobe_OpacityMaskFilter" filterUnits="userSpaceOnUse" x="0" y="0" width="43.2" height="39.8">
			<feColorMatrix  type="matrix" values="1 0 0 0 0  0 1 0 0 0  0 0 1 0 0  0 0 0 1 0"/>
		</filter>
	</defs>
	<mask maskUnits="userSpaceOnUse" x="0" y="0" width="43.2" height="39.8" id="b_2_">
		<g class="st0">
			<path id="a_2_" class="st1" d="M16.8,15.1L6,16.6l7.8,7.1l-1.8,10l9.6-4.7l9.6,4.7l-1.8-10l7.8-7.1l-10.8-1.5L21.6,6L16.8,15.1z"
				/>
		</g>
	</mask>
	<path class="st2" d="M0,39.8h43.2V0H0L0,39.8z"/>
</g>
<g>
	<defs>
		<filter id="Adobe_OpacityMaskFilter_1_" filterUnits="userSpaceOnUse" x="47.7" y="0" width="43.2" height="39.8">
			<feColorMatrix  type="matrix" values="1 0 0 0 0  0 1 0 0 0  0 0 1 0 0  0 0 0 1 0"/>
		</filter>
	</defs>
	<mask maskUnits="userSpaceOnUse" x="47.7" y="0" width="43.2" height="39.8" id="b_1_">
		<g class="st3">
			<path id="a_1_" class="st1" d="M64.5,15.1l-10.8,1.5l7.8,7.1l-1.8,10l9.6-4.7l9.6,4.7l-1.8-10l7.8-7.1l-10.8-1.5L69.3,6
				L64.5,15.1z"/>
		</g>
	</mask>
	<path class="st4" d="M47.7,39.8h43.2V0H47.7L47.7,39.8z"/>
</g>
<g>
	<defs>
		<filter id="Adobe_OpacityMaskFilter_2_" filterUnits="userSpaceOnUse" x="95.7" y="0" width="43.2" height="39.8">
			<feColorMatrix  type="matrix" values="1 0 0 0 0  0 1 0 0 0  0 0 1 0 0  0 0 0 1 0"/>
		</filter>
	</defs>
	<mask maskUnits="userSpaceOnUse" x="95.7" y="0" width="43.2" height="39.8" id="b_4_">
		<g class="st5">
			<path id="a_4_" class="st1" d="M112.5,15.1l-10.8,1.5l7.8,7.1l-1.8,10l9.6-4.7l9.6,4.7l-1.8-10l7.8-7.1l-10.8-1.5L117.3,6
				L112.5,15.1z"/>
		</g>
	</mask>
	<path class="st6" d="M95.7,39.8h43.2V0H95.7L95.7,39.8z"/>
</g>
<g>
	<defs>
		<filter id="Adobe_OpacityMaskFilter_3_" filterUnits="userSpaceOnUse" x="192.7" y="0" width="43.2" height="39.8">
			<feColorMatrix  type="matrix" values="1 0 0 0 0  0 1 0 0 0  0 0 1 0 0  0 0 0 1 0"/>
		</filter>
	</defs>
	<mask maskUnits="userSpaceOnUse" x="192.7" y="0" width="43.2" height="39.8" id="b_3_">
		<g class="st7">
			<path id="a_3_" class="st1" d="M209.5,15.1l-10.8,1.5l7.8,7.1l-1.8,10l9.6-4.7l9.6,4.7l-1.8-10l7.8-7.1l-10.8-1.5L214.3,6
				L209.5,15.1z"/>
		</g>
	</mask>
	<path class="st8" d="M192.7,39.8h43.2V0h-43.2L192.7,39.8z"/>
</g>
<g>
	<defs>
		<filter id="Adobe_OpacityMaskFilter_4_" filterUnits="userSpaceOnUse" x="143.3" y="0" width="43.2" height="39.8">
			<feColorMatrix  type="matrix" values="1 0 0 0 0  0 1 0 0 0  0 0 1 0 0  0 0 0 1 0"/>
		</filter>
	</defs>
	<mask maskUnits="userSpaceOnUse" x="143.3" y="0" width="43.2" height="39.8" id="b_5_">
		<g class="st9">
			<path id="a_5_" class="st1" d="M160.1,15.1l-10.8,1.5l7.8,7.1l-1.8,10L165,29l9.6,4.7l-1.8-10l7.8-7.1l-10.8-1.5L165,6
				L160.1,15.1z"/>
		</g>
	</mask>
	<path class="st10" d="M143.3,39.8h43.2V0h-43.2L143.3,39.8z"/>
</g>
</svg>
