<?xml version="1.0" encoding="utf-8"?>
<!-- Generator: Adobe Illustrator 21.1.0, SVG Export Plug-In . SVG Version: 6.00 Build 0)  -->
<svg version="1.1" id="Слой_1" xmlns="http://www.w3.org/2000/svg" xmlns:xlink="http://www.w3.org/1999/xlink" x="0px" y="0px"
	 viewBox="0 0 235.9 39.8" style="enable-background:new 0 0 235.9 39.8;" xml:space="preserve">
<style type="text/css">
	.st0{filter:url(#Adobe_OpacityMaskFilter);}
	.st1{fill:#FFFFFF;}
	.st2{mask:url(#b_2_);fill:#8958A4;}
	.st3{filter:url(#Adobe_OpacityMaskFilter_1_);}
	.st4{mask:url(#b_1_);fill:#8958A4;}
	.st5{filter:url(#Adobe_OpacityMaskFilter_2_);}
	.st6{mask:url(#b_4_);fill:#8958A4;}
	.st7{filter:url(#Adobe_OpacityMaskFilter_3_);}
	.st8{mask:url(#b_3_);fill:#8958A4;}
	.st9{filter:url(#Adobe_OpacityMaskFilter_4_);}
	.st10{mask:url(#b_5_);fill:#8958A4;}
	.st11{filter:url(#Adobe_OpacityMaskFilter_5_);}
	.st12{mask:url(#b_6_);fill:#FFFFFF;}
	.st13{filter:url(#Adobe_OpacityMaskFilter_6_);}
	.st14{mask:url(#b_7_);fill:#FFFFFF;}
	.st15{filter:url(#Adobe_OpacityMaskFilter_7_);}
	.st16{mask:url(#b_9_);fill:#FFFFFF;}
	.st17{filter:url(#Adobe_OpacityMaskFilter_8_);}
	.st18{mask:url(#b_8_);fill:#FFFFFF;}
	.st19{filter:url(#Adobe_OpacityMaskFilter_9_);}
	.st20{mask:url(#b_10_);fill:#FFFFFF;}
</style>
<g>
	<defs>
		<filter id="Adobe_OpacityMaskFilter" filterUnits="userSpaceOnUse" x="0" y="0" width="43.2" height="39.8">
			<feColorMatrix  type="matrix" values="1 0 0 0 0  0 1 0 0 0  0 0 1 0 0  0 0 0 1 0"/>
		</filter>
	</defs>
	<mask maskUnits="userSpaceOnUse" x="0" y="0" width="43.2" height="39.8" id="b_2_">
		<g class="st0">
			<path id="a_2_" class="st1" d="M16.8,15.1L6,16.6l7.8,7.1l-1.8,10l9.6-4.7l9.6,4.7l-1.8-10l7.8-7.1l-10.8-1.5L21.6,6L16.8,15.1z"
				/>
		</g>
	</mask>
	<path class="st2" d="M0,39.8h43.2V0H0L0,39.8z"/>
</g>
<g>
	<defs>
		<filter id="Adobe_OpacityMaskFilter_1_" filterUnits="userSpaceOnUse" x="47.7" y="0" width="43.2" height="39.8">
			<feColorMatrix  type="matrix" values="1 0 0 0 0  0 1 0 0 0  0 0 1 0 0  0 0 0 1 0"/>
		</filter>
	</defs>
	<mask maskUnits="userSpaceOnUse" x="47.7" y="0" width="43.2" height="39.8" id="b_1_">
		<g class="st3">
			<path id="a_1_" class="st1" d="M64.5,15.1l-10.8,1.5l7.8,7.1l-1.8,10l9.6-4.7l9.6,4.7l-1.8-10l7.8-7.1l-10.8-1.5L69.3,6
				L64.5,15.1z"/>
		</g>
	</mask>
	<path class="st4" d="M47.7,39.8h43.2V0H47.7L47.7,39.8z"/>
</g>
<g>
	<defs>
		<filter id="Adobe_OpacityMaskFilter_2_" filterUnits="userSpaceOnUse" x="95.7" y="0" width="43.2" height="39.8">
			<feColorMatrix  type="matrix" values="1 0 0 0 0  0 1 0 0 0  0 0 1 0 0  0 0 0 1 0"/>
		</filter>
	</defs>
	<mask maskUnits="userSpaceOnUse" x="95.7" y="0" width="43.2" height="39.8" id="b_4_">
		<g class="st5">
			<path id="a_4_" class="st1" d="M112.5,15.1l-10.8,1.5l7.8,7.1l-1.8,10l9.6-4.7l9.6,4.7l-1.8-10l7.8-7.1l-10.8-1.5L117.3,6
				L112.5,15.1z"/>
		</g>
	</mask>
	<path class="st6" d="M95.7,39.8h43.2V0H95.7L95.7,39.8z"/>
</g>
<g>
	<defs>
		<filter id="Adobe_OpacityMaskFilter_3_" filterUnits="userSpaceOnUse" x="192.7" y="0" width="43.2" height="39.8">
			<feColorMatrix  type="matrix" values="1 0 0 0 0  0 1 0 0 0  0 0 1 0 0  0 0 0 1 0"/>
		</filter>
	</defs>
	<mask maskUnits="userSpaceOnUse" x="192.7" y="0" width="43.2" height="39.8" id="b_3_">
		<g class="st7">
			<path id="a_3_" class="st1" d="M209.5,15.1l-10.8,1.5l7.8,7.1l-1.8,10l9.6-4.7l9.6,4.7l-1.8-10l7.8-7.1l-10.8-1.5L214.3,6
				L209.5,15.1z"/>
		</g>
	</mask>
	<path class="st8" d="M192.7,39.8h43.2V0h-43.2L192.7,39.8z"/>
</g>
<g>
	<defs>
		<filter id="Adobe_OpacityMaskFilter_4_" filterUnits="userSpaceOnUse" x="143.3" y="0" width="43.2" height="39.8">
			<feColorMatrix  type="matrix" values="1 0 0 0 0  0 1 0 0 0  0 0 1 0 0  0 0 0 1 0"/>
		</filter>
	</defs>
	<mask maskUnits="userSpaceOnUse" x="143.3" y="0" width="43.2" height="39.8" id="b_5_">
		<g class="st9">
			<path id="a_5_" class="st1" d="M160.1,15.1l-10.8,1.5l7.8,7.1l-1.8,10L165,29l9.6,4.7l-1.8-10l7.8-7.1l-10.8-1.5L165,6
				L160.1,15.1z"/>
		</g>
	</mask>
	<path class="st10" d="M143.3,39.8h43.2V0h-43.2L143.3,39.8z"/>
</g>
<g>
	<defs>
		<filter id="Adobe_OpacityMaskFilter_5_" filterUnits="userSpaceOnUse" x="3.3" y="3.1" width="36.9" height="33.9">
			<feColorMatrix  type="matrix" values="1 0 0 0 0  0 1 0 0 0  0 0 1 0 0  0 0 0 1 0"/>
		</filter>
	</defs>
	<mask maskUnits="userSpaceOnUse" x="3.3" y="3.1" width="36.9" height="33.9" id="b_6_">
		<g class="st11">
			<path id="a_6_" class="st1" d="M17.6,16l-9.2,1.3l6.6,6.1l-1.6,8.6l8.2-4l8.2,4l-1.6-8.6l6.6-6.1L25.8,16l-4.1-7.8L17.6,16z"/>
		</g>
	</mask>
	<path class="st12" d="M3.3,37h36.9V3.1H3.3L3.3,37z"/>
</g>
<g>
	<defs>
		<filter id="Adobe_OpacityMaskFilter_6_" filterUnits="userSpaceOnUse" x="50.9" y="3.1" width="36.9" height="33.9">
			<feColorMatrix  type="matrix" values="1 0 0 0 0  0 1 0 0 0  0 0 1 0 0  0 0 0 1 0"/>
		</filter>
	</defs>
	<mask maskUnits="userSpaceOnUse" x="50.9" y="3.1" width="36.9" height="33.9" id="b_7_">
		<g class="st13">
			<path id="a_7_" class="st1" d="M65.2,16l-9.2,1.3l6.6,6.1l-1.6,8.6l8.2-4l8.2,4L76,23.3l6.6-6.1L73.5,16l-4.1-7.8L65.2,16z"/>
		</g>
	</mask>
	<path class="st14" d="M50.9,37h36.9V3.1H50.9L50.9,37z"/>
</g>
<g>
	<defs>
		<filter id="Adobe_OpacityMaskFilter_7_" filterUnits="userSpaceOnUse" x="98.9" y="3.1" width="36.9" height="33.9">
			<feColorMatrix  type="matrix" values="1 0 0 0 0  0 1 0 0 0  0 0 1 0 0  0 0 0 1 0"/>
		</filter>
	</defs>
	<mask maskUnits="userSpaceOnUse" x="98.9" y="3.1" width="36.9" height="33.9" id="b_9_">
		<g class="st15">
			<path id="a_9_" class="st1" d="M113.2,16l-9.2,1.3l6.6,6.1l-1.6,8.6l8.2-4l8.2,4l-1.6-8.6l6.6-6.1l-9.2-1.3l-4.1-7.8L113.2,16z"
				/>
		</g>
	</mask>
	<path class="st16" d="M98.9,37h36.9V3.1H98.9L98.9,37z"/>
</g>
<g>
	<defs>
		<filter id="Adobe_OpacityMaskFilter_8_" filterUnits="userSpaceOnUse" x="146.6" y="3.1" width="36.9" height="33.9">
			<feColorMatrix  type="matrix" values="1 0 0 0 0  0 1 0 0 0  0 0 1 0 0  0 0 0 1 0"/>
		</filter>
	</defs>
	<mask maskUnits="userSpaceOnUse" x="146.6" y="3.1" width="36.9" height="33.9" id="b_8_">
		<g class="st17">
			<path id="a_8_" class="st1" d="M160.9,16l-9.2,1.3l6.6,6.1l-1.6,8.6l8.2-4l8.2,4l-1.6-8.6l6.6-6.1l-9.2-1.3L165,8.2L160.9,16z"/>
		</g>
	</mask>
	<path class="st18" d="M146.6,37h36.9V3.1h-36.9L146.6,37z"/>
</g>
<g>
	<defs>
		<filter id="Adobe_OpacityMaskFilter_9_" filterUnits="userSpaceOnUse" x="195.9" y="3.1" width="36.9" height="33.9">
			<feColorMatrix  type="matrix" values="1 0 0 0 0  0 1 0 0 0  0 0 1 0 0  0 0 0 1 0"/>
		</filter>
	</defs>
	<mask maskUnits="userSpaceOnUse" x="195.9" y="3.1" width="36.9" height="33.9" id="b_10_">
		<g class="st19">
			<path id="a_10_" class="st1" d="M210.2,16l-9.2,1.3l6.6,6.1l-1.6,8.6l8.2-4l8.2,4l-1.6-8.6l6.6-6.1l-9.2-1.3l-4.1-7.8L210.2,16z"
				/>
		</g>
	</mask>
	<path class="st20" d="M195.9,37h36.9V3.1h-36.9L195.9,37z"/>
</g>
</svg>
