<svg width="8" height="16" viewBox="0 0 8 16" fill="none" xmlns="http://www.w3.org/2000/svg">
<path d="M4.4814 16C4.75111 16 4.98452 15.9004 5.18162 15.7013C5.37872 15.5022 5.47727 15.2573 5.47727 14.9667V8.2664H6.6443C6.87252 8.2664 7.0748 8.19643 7.25115 8.05651C7.42751 7.91658 7.5468 7.73898 7.60904 7.52371L7.95137 5.97376C8.00324 5.81231 8.01361 5.65355 7.98249 5.49748C7.95137 5.34141 7.88913 5.19879 7.79577 5.06963C7.70241 4.9297 7.5857 4.82476 7.44566 4.75479C7.30562 4.68483 7.15779 4.64985 7.00219 4.64985H5.47727V3.63269H6.47313C6.74285 3.63269 6.97625 3.53044 7.17335 3.32593C7.37045 3.12143 7.469 2.87925 7.469 2.59939V1.04945C7.469 0.758829 7.37304 0.513959 7.18113 0.314833C6.98922 0.115708 6.75841 0.0161453 6.48869 0.0161453H5.21274C5.19199 0.0161453 5.17125 0.0134544 5.1505 0.00807265C5.12975 0.00269088 5.109 0 5.08826 0C4.91191 0 4.66294 0.0295997 4.34136 0.0887992C4.01977 0.147999 3.69301 0.279852 3.36105 0.484359C3.04984 0.678103 2.74382 0.992936 2.44299 1.42886C2.14215 1.86478 1.99173 2.481 1.99173 3.2775V4.64985H0.995867C0.86101 4.64985 0.733933 4.67676 0.614636 4.73058C0.49534 4.78439 0.38901 4.85974 0.295648 4.95661C0.202285 5.05348 0.12967 5.16381 0.0778021 5.28759C0.025934 5.41137 0 5.54322 0 5.68315V7.2331C0 7.51295 0.0985493 7.75513 0.295648 7.95964C0.492747 8.16414 0.726153 8.2664 0.995867 8.2664H1.99173V14.9667C1.99173 15.2573 2.08769 15.5022 2.2796 15.7013C2.47151 15.9004 2.70751 16 2.9876 16H4.4814ZM4.4814 14.9828H2.9876V7.2331H0.995867V5.68315H2.9876V3.2775C2.9876 2.22267 3.28584 1.58493 3.88232 1.36428C4.47881 1.14363 4.88078 1.0333 5.08826 1.0333C5.11938 1.0333 5.14272 1.03599 5.15828 1.04137C5.17384 1.04675 5.18162 1.04945 5.18162 1.04945H6.47313V2.59939H5.18162C4.82892 2.59939 4.62404 2.70434 4.56698 2.91423C4.50993 3.12412 4.4814 3.22906 4.4814 3.22906V5.68315H7.00219L6.6443 7.2331H4.4814V14.9828Z" fill="white"/>
</svg>
