<svg width="16" height="15" viewBox="0 0 16 15" fill="none" xmlns="http://www.w3.org/2000/svg">
<path d="M2.23438 4.12424C2.89062 4.12424 3.42969 3.92821 3.85156 3.53615C4.27344 3.14409 4.48438 2.64766 4.48438 2.04684C4.47396 1.44603 4.26042 0.954684 3.84375 0.572811C3.42708 0.190937 2.90104 0 2.26562 0C1.60938 0 1.06771 0.193483 0.640625 0.580448C0.213542 0.967413 0 1.4613 0 2.06212C0 2.65275 0.208333 3.14409 0.625 3.53615C1.04167 3.92821 1.57292 4.12424 2.21875 4.12424H2.23438ZM2.23438 3.31466H2.21875C1.8125 3.31466 1.47917 3.19756 1.21875 2.96334C0.958333 2.72912 0.828125 2.42872 0.828125 2.06212C0.828125 1.68534 0.960938 1.38238 1.22656 1.15326C1.49219 0.924134 1.83854 0.809572 2.26562 0.809572C2.68229 0.809572 3.01562 0.924134 3.26562 1.15326C3.51562 1.38238 3.64583 1.68534 3.65625 2.06212C3.65625 2.4389 3.52604 2.74185 3.26562 2.97098C3.00521 3.2001 2.66146 3.31466 2.23438 3.31466ZM8.90625 15C9.02083 15 9.11979 14.9593 9.20312 14.8778C9.28646 14.7963 9.32812 14.6996 9.32812 14.5876V9.24134C9.32812 9.09878 9.33594 8.97403 9.35156 8.86711C9.36719 8.76018 9.38542 8.67617 9.40625 8.61507C9.46875 8.48269 9.59635 8.29939 9.78906 8.06517C9.98177 7.83096 10.2812 7.71385 10.6875 7.71385C10.8438 7.71385 11.0885 7.78768 11.4219 7.93534C11.7552 8.08299 11.9219 8.5947 11.9219 9.47047V14.5876C11.9219 14.6996 11.9635 14.7938 12.0469 14.8702C12.1302 14.9465 12.2292 14.9847 12.3438 14.9847H15.5938C15.7083 14.9847 15.8047 14.9465 15.8828 14.8702C15.9609 14.7938 16 14.6996 16 14.5876V9.10387C16 8.36049 15.9062 7.69857 15.7188 7.11813C15.5312 6.53768 15.2578 6.04379 14.8984 5.63646C14.5391 5.22912 14.1042 4.91853 13.5938 4.70468C13.0833 4.49083 12.5 4.38391 11.8438 4.38391C11.2604 4.38391 10.763 4.47047 10.3516 4.64358C9.9401 4.8167 9.59896 5.02037 9.32812 5.25458V5.02546C9.32812 4.91344 9.28646 4.8167 9.20312 4.73523C9.11979 4.65377 9.02083 4.61303 8.90625 4.61303H5.65625C5.60417 4.61303 5.55208 4.62322 5.5 4.64358C5.44792 4.66395 5.40104 4.6945 5.35938 4.73523C5.31771 4.77597 5.28646 4.82179 5.26562 4.87271C5.24479 4.92362 5.23958 4.97963 5.25 5.04073C5.26042 5.25458 5.26562 5.87067 5.26562 6.889C5.26562 7.90733 5.26302 8.98167 5.25781 10.112C5.2526 11.2424 5.25 12.2658 5.25 13.1823V14.5876C5.23958 14.6385 5.2474 14.6894 5.27344 14.7403C5.29948 14.7912 5.32812 14.8371 5.35938 14.8778C5.40104 14.9185 5.44792 14.9491 5.5 14.9694C5.55208 14.9898 5.60417 15 5.65625 15H8.90625ZM3.85938 14.9847C3.97396 14.9847 4.07292 14.9465 4.15625 14.8702C4.23958 14.7938 4.28125 14.6996 4.28125 14.5876V5.02546C4.28125 4.91344 4.23958 4.8167 4.15625 4.73523C4.07292 4.65377 3.97396 4.61303 3.85938 4.61303H0.609375C0.494792 4.61303 0.395833 4.65377 0.3125 4.73523C0.229167 4.8167 0.1875 4.91344 0.1875 5.02546V14.5876C0.1875 14.6996 0.229167 14.7938 0.3125 14.8702C0.395833 14.9465 0.494792 14.9847 0.609375 14.9847H3.85938ZM8.5 14.1752H6.07812C6.07812 13.7882 6.08073 13.1925 6.08594 12.388C6.09115 11.5835 6.09375 10.7357 6.09375 9.8447V7.28615C6.09375 6.47149 6.08854 5.85031 6.07812 5.42261H8.5V6.278C8.47917 6.32892 8.47135 6.38238 8.47656 6.43839C8.48177 6.4944 8.5 6.54786 8.53125 6.59878C8.57292 6.67006 8.625 6.72352 8.6875 6.75916C8.75 6.79481 8.81771 6.81263 8.89062 6.81263H8.92188C9.01562 6.81263 9.09896 6.78462 9.17188 6.72861C9.24479 6.67261 9.29167 6.60387 9.3125 6.5224C9.53125 6.20672 9.83073 5.90886 10.2109 5.62882C10.5911 5.34878 11.1354 5.20876 11.8438 5.20876C12.375 5.20876 12.8464 5.29532 13.2578 5.46843C13.6693 5.64155 14.0182 5.89358 14.3047 6.22454C14.5911 6.5555 14.8073 6.96283 14.9531 7.44654C15.099 7.93024 15.1719 8.48269 15.1719 9.10387V14.1752H12.75V9.47047C12.75 8.64562 12.5703 8.00916 12.2109 7.5611C11.8516 7.11303 11.3438 6.889 10.6875 6.889C10.2292 6.889 9.81771 7.01629 9.45312 7.27088C9.08854 7.52546 8.81771 7.87169 8.64062 8.30957C8.58854 8.42159 8.55208 8.55397 8.53125 8.70672C8.51042 8.85947 8.5 9.03768 8.5 9.24134V14.1752ZM3.45312 14.1752H1.03125V5.42261H3.45312V14.1752Z" fill="white"/>
</svg>
