<svg width="13" height="16" viewBox="0 0 13 16" fill="none" xmlns="http://www.w3.org/2000/svg">
<path d="M2.64058 16L3.10676 15.8002C3.33985 15.7003 3.52577 15.556 3.66452 15.3673C3.80326 15.1786 3.92813 14.9955 4.03913 14.8179L4.07034 14.768L4.0974 14.718C4.11405 14.6847 4.13347 14.6514 4.15567 14.6181C4.48866 14.0853 4.7606 13.5109 4.97149 12.8949C5.18238 12.2789 5.35997 11.6601 5.50427 11.0385C5.87055 11.316 6.25626 11.5019 6.66139 11.5963C7.06653 11.6906 7.53548 11.71 8.06826 11.6545C8.80083 11.5768 9.44738 11.3354 10.0079 10.9303C10.5684 10.5251 11.0346 10.0257 11.4065 9.43184C11.7783 8.83802 12.0558 8.18592 12.2389 7.47555C12.4221 6.76518 12.5081 6.0548 12.497 5.34443C12.4748 4.57856 12.3111 3.86819 12.0058 3.21332C11.7006 2.55845 11.2788 1.99237 10.7405 1.51509C10.2022 1.03781 9.56948 0.665973 8.84246 0.399584C8.11544 0.133195 7.31904 0 6.45328 0C6.27568 0 6.09254 0.00832466 5.90385 0.024974C5.71516 0.0416233 5.52092 0.0610475 5.32112 0.0832466C4.63295 0.183143 3.99195 0.37461 3.39813 0.657648C2.8043 0.940687 2.27707 1.29865 1.81644 1.73153C1.35581 2.16441 0.972875 2.65834 0.667638 3.21332C0.3624 3.7683 0.159834 4.36767 0.0599376 5.01145C-0.00665973 5.46653 -0.0177593 5.93548 0.0266389 6.41831C0.0710371 6.90114 0.182033 7.35345 0.359625 7.77523C0.537218 8.19702 0.786958 8.56608 1.10884 8.88241C1.43073 9.19875 1.83587 9.41797 2.32425 9.54006L2.60728 9.60666L2.77378 9.37357C2.79598 9.32917 2.89032 9.15435 3.05682 8.84912C3.22331 8.54388 3.28436 8.24142 3.23996 7.94173C3.21776 7.78633 3.17059 7.66146 3.09844 7.56712C3.02629 7.47277 2.96247 7.39785 2.90697 7.34235L2.85702 7.2924C2.70163 7.04821 2.59618 6.74298 2.54069 6.37669C2.48519 6.01041 2.48519 5.65522 2.54069 5.31113C2.69608 4.47867 3.09289 3.78495 3.73111 3.22997C4.36934 2.67499 5.13243 2.3642 6.0204 2.29761C6.08699 2.28651 6.15082 2.28096 6.21186 2.28096H6.38668C7.30794 2.28096 8.05439 2.53347 8.62601 3.0385C9.19764 3.54353 9.50565 4.21783 9.55005 5.06139C9.59445 5.87166 9.5001 6.62643 9.26701 7.3257C9.03392 8.02497 8.70094 8.5633 8.26805 8.94069L8.21811 8.99063C8.10711 9.07943 8.00444 9.15713 7.91009 9.22373C7.81575 9.29032 7.68533 9.33472 7.51883 9.35692C7.47444 9.36802 7.43004 9.37634 7.38564 9.38189C7.34124 9.38744 7.29684 9.39022 7.25245 9.39022C6.91946 9.39022 6.66417 9.29865 6.48658 9.1155C6.30898 8.93236 6.21464 8.7298 6.20354 8.5078C6.20354 8.26361 6.24239 8.00832 6.32008 7.74194C6.39778 7.47555 6.49213 7.19806 6.60312 6.90947C6.72522 6.56538 6.83621 6.2102 6.93611 5.84391C7.036 5.47763 7.06375 5.10579 7.01935 4.72841C6.96386 4.33992 6.78071 4.01249 6.46993 3.7461C6.15914 3.47971 5.80395 3.34651 5.40437 3.34651C5.30447 3.34651 5.2018 3.35761 5.09636 3.37981C4.99091 3.40201 4.88824 3.42976 4.78835 3.46306C4.06687 3.74055 3.63122 4.28443 3.48137 5.09469C3.33153 5.90496 3.3898 6.69303 3.65619 7.4589C3.58959 7.75858 3.51745 8.06105 3.43975 8.36629C3.36205 8.67152 3.27881 8.97954 3.19001 9.29032C3.05682 9.7676 2.92917 10.2504 2.80708 10.7388C2.68498 11.2272 2.58786 11.7267 2.51571 12.2373C2.44357 12.7478 2.40472 13.2723 2.39917 13.8106C2.39362 14.3489 2.44079 14.9067 2.54069 15.4839L2.64058 16ZM3.25661 14.5016C3.19001 13.6025 3.24273 12.7423 3.41478 11.9209C3.58682 11.0995 3.78384 10.2948 4.00583 9.50676C4.09462 9.18488 4.18342 8.85466 4.27222 8.51613C4.36101 8.17759 4.43871 7.84183 4.50531 7.50884L4.52196 7.3923L4.47201 7.27575C4.25002 6.67638 4.17787 6.06868 4.25557 5.45265C4.33326 4.83663 4.61075 4.43427 5.08803 4.24558C5.14353 4.22338 5.19625 4.2095 5.2462 4.20395C5.29615 4.1984 5.34887 4.19563 5.40437 4.19563C5.60416 4.19563 5.77898 4.25668 5.92882 4.37877C6.07867 4.50087 6.16469 4.65626 6.18689 4.84495C6.22019 5.12244 6.19521 5.40826 6.11197 5.70239C6.02872 5.99653 5.92605 6.30454 5.80395 6.62643C5.69296 6.93722 5.59029 7.25078 5.49594 7.56712C5.4016 7.88345 5.35997 8.20812 5.37107 8.5411C5.38217 8.94069 5.55144 9.32085 5.87888 9.68158C6.20631 10.0423 6.66417 10.2227 7.25245 10.2227C7.31904 10.2227 7.38286 10.2199 7.44391 10.2144C7.50496 10.2088 7.56878 10.2005 7.63538 10.1894C7.92397 10.145 8.15706 10.0645 8.33465 9.94797C8.51224 9.83143 8.65654 9.71766 8.76753 9.60666L8.81748 9.55671C9.35026 9.10163 9.75539 8.46618 10.0329 7.65036C10.3104 6.83455 10.4269 5.95491 10.3825 5.01145C10.3492 4.44537 10.2188 3.93202 9.99126 3.47138C9.76372 3.01075 9.45571 2.62227 9.06722 2.30593C8.67874 1.98959 8.22088 1.7565 7.69365 1.60666C7.16642 1.45682 6.58647 1.40409 5.9538 1.44849C5.42102 1.49289 4.91877 1.61498 4.44703 1.81478C3.9753 2.01457 3.55352 2.27541 3.18169 2.59729C2.80985 2.91918 2.49906 3.29934 2.24932 3.73777C1.99958 4.17621 1.82477 4.65071 1.72487 5.16129C1.64717 5.60527 1.64717 6.06313 1.72487 6.53486C1.80257 7.00659 1.94686 7.4034 2.15775 7.72529C2.17995 7.76968 2.20493 7.80576 2.23267 7.83351C2.26042 7.86126 2.2854 7.89178 2.3076 7.92508L2.37419 7.99168C2.39639 8.01387 2.40749 8.03052 2.40749 8.04162C2.41859 8.09712 2.40749 8.18037 2.37419 8.29136C2.34089 8.40236 2.2965 8.51335 2.241 8.62435C1.63052 8.36906 1.22817 7.89178 1.03392 7.19251C0.839681 6.49324 0.792508 5.80506 0.892404 5.12799C0.970101 4.58411 1.13937 4.07353 1.40021 3.59625C1.66105 3.11897 1.99126 2.69442 2.39084 2.32258C2.79043 1.95075 3.25106 1.64273 3.77274 1.39854C4.29442 1.15435 4.84939 0.98786 5.43767 0.899063C5.61526 0.876864 5.7873 0.860215 5.9538 0.849115C6.12029 0.838016 6.28678 0.832466 6.45328 0.832466C7.19695 0.832466 7.88234 0.946237 8.50947 1.17378C9.13659 1.40132 9.68325 1.71488 10.1494 2.11446C10.6156 2.51405 10.9791 2.99133 11.24 3.54631C11.5008 4.10128 11.6423 4.70621 11.6645 5.36108C11.6756 5.97156 11.6035 6.58758 11.4481 7.20916C11.2927 7.83073 11.0596 8.39681 10.7488 8.90739C10.438 9.41797 10.0523 9.84807 9.59167 10.1977C9.13104 10.5473 8.58994 10.7555 7.96837 10.8221C7.89067 10.8332 7.81297 10.8415 7.73528 10.847C7.65758 10.8526 7.57988 10.8554 7.50219 10.8554C7.0582 10.8554 6.69469 10.7777 6.41165 10.6223C6.12862 10.4669 5.8428 10.2504 5.55421 9.97295L5.02144 9.44017L4.85494 10.1727C4.69955 10.872 4.51641 11.5713 4.30552 12.2706C4.09462 12.9698 3.81159 13.6025 3.4564 14.1686C3.4342 14.213 3.40923 14.2546 3.38148 14.2934C3.35373 14.3323 3.32875 14.3739 3.30656 14.4183C3.30656 14.4294 3.30101 14.4433 3.28991 14.4599C3.27881 14.4766 3.26771 14.4905 3.25661 14.5016Z" fill="white"/>
</svg>
