<svg width="41" height="46" viewBox="0 0 41 46" fill="none" xmlns="http://www.w3.org/2000/svg">
<g clip-path="url(#clip0_1855_20463)">
<path fill-rule="evenodd" clip-rule="evenodd" d="M7.375 12.0452C7.73676 12.3676 7.91167 12.6169 8.14949 12.7195C9.22676 13.1806 9.94338 14.1175 10.8994 14.74C11.8665 15.3696 12.7768 16.0874 13.7125 16.7694C14.6466 17.4493 15.5647 18.1528 16.5176 18.8044C19.1407 20.6012 21.782 22.3731 24.4122 24.1589C26.4448 25.5392 28.4414 26.9782 30.5126 28.2951C32.2194 29.3783 34.0112 30.3289 35.7746 31.3238C36.7816 31.8919 37.811 32.4201 38.8226 32.982C39.1583 33.1673 39.4927 33.3716 39.7851 33.6178C40.1449 33.9206 40.2356 34.3497 40.1426 34.8021C40.041 35.3055 39.4593 35.61 39.0332 35.3694C34.8427 33.0035 30.5201 30.8634 26.5087 28.178C23.9062 26.4353 21.2476 24.7775 18.6632 23.0099C15.9206 21.1338 13.2381 19.1699 10.5272 17.2501C9.42629 16.4707 8.32082 15.6976 7.21025 14.934C7.0755 14.8417 6.89344 14.813 6.57747 14.6973C6.70436 15.349 7.03214 15.7076 7.32225 16.0512C7.91324 16.7576 8.18818 17.537 8.04905 18.558C7.79304 18.627 7.48774 18.7611 7.17597 18.7771C6.82031 18.7946 6.55082 18.5679 6.34479 18.275C4.83801 16.1513 3.19754 14.117 2.06888 11.7474C2.00663 11.6182 1.92286 11.4924 1.88667 11.3537C1.58468 10.1926 2.32324 9.27343 3.28739 9.32448C4.97134 9.41544 6.65899 9.45288 8.33555 9.60896C9.67714 9.73179 11.0082 9.99081 12.3449 10.1949C14.5402 10.5284 16.7483 10.6912 18.9725 10.6419C19.3987 10.6311 19.8319 10.7349 20.2532 10.8262C20.4302 10.8645 20.6037 10.986 20.7475 11.1078C21.1059 11.4087 21.0482 11.9946 20.631 12.2025C19.5811 12.7274 18.458 13.0322 17.288 12.9905C15.7985 12.9372 14.3072 12.8226 12.8226 12.6671C11.3366 12.5097 9.85997 12.2648 8.37824 12.0714C8.11491 12.0379 7.84448 12.0573 7.37783 12.0492L7.375 12.0452Z" fill="#FFC005"/>
</g>
<defs>
<clipPath id="clip0_1855_20463">
<rect width="42.6595" height="18.3616" fill="white" transform="matrix(0.580935 0.81395 0.81395 -0.580935 0.890747 10.6669)"/>
</clipPath>
</defs>
</svg>
