<svg width="16" height="14" viewBox="0 0 16 14" fill="none" xmlns="http://www.w3.org/2000/svg">
<path d="M0.381282 6.38128C0.0395733 6.72299 0.0395732 7.27701 0.381282 7.61872L5.94975 13.1872C6.29146 13.5289 6.84547 13.5289 7.18718 13.1872C7.52889 12.8455 7.52889 12.2915 7.18718 11.9497L2.23744 7L7.18719 2.05025C7.52889 1.70854 7.52889 1.15452 7.18719 0.812815C6.84548 0.471106 6.29146 0.471106 5.94975 0.812815L0.381282 6.38128ZM15 7.875C15.4832 7.875 15.875 7.48325 15.875 7C15.875 6.51675 15.4832 6.125 15 6.125L15 7.875ZM1 7.875L15 7.875L15 6.125L1 6.125L1 7.875Z" fill="#8746A8"/>
</svg>
