<svg width="56" height="17" viewBox="0 0 56 17" fill="none" xmlns="http://www.w3.org/2000/svg">
<path fill-rule="evenodd" clip-rule="evenodd" d="M55.3539 6.47246C54.9551 6.66105 54.5562 6.84964 54.156 6.97425C50.4375 8.31865 46.3427 9.05208 42.1999 9.43321C37.6554 9.87495 32.8988 9.83509 28.2129 9.34792C21.6288 8.68487 15.0278 7.2539 9.0519 4.93245C6.40979 3.91858 4.0039 2.65078 1.67721 1.31965C1.59518 1.25498 1.59373 1.19099 1.59232 1.127C1.67153 1.06368 1.75214 1.06434 1.83276 1.06501C4.31504 2.14152 6.91335 2.99506 9.55263 3.88094C15.52 5.81844 21.882 7.37539 28.3048 8.03708C32.9101 8.52358 37.4673 8.65772 41.9751 8.37562C46.1207 8.12248 50.0542 7.38771 53.9438 6.49261C54.3851 6.40034 54.8264 6.30806 55.2677 6.21579C55.3073 6.18413 55.4289 6.21717 55.4303 6.28116C55.4332 6.40915 55.4345 6.47313 55.3539 6.47246Z" fill="#452F53"/>
<path fill-rule="evenodd" clip-rule="evenodd" d="M2.77498 1.59329C4.00402 1.83725 5.82414 2.18303 6.05121 2.21569L9.59776 2.8266L15.4042 3.51069C15.5412 3.54718 15.6277 3.45887 15.6673 3.33023C15.707 3.20159 15.6566 3.07679 15.4763 3.08445L9.77813 1.761L6.26765 0.936974C6.04058 0.904311 3.39871 0.33957 2.30663 0.132102C1.66869 -0.0100413 1.27218 0.218404 1.22893 0.26256C1.05589 0.439186 0.886455 0.700294 1.04137 1.1592C1.19989 1.70258 2.15485 2.93149 2.25214 3.09662L6.40339 9.43694C7.84841 11.576 8.15466 12.4093 8.72779 12.0887C8.90441 11.9966 8.99093 11.9083 9.01982 11.5262C9.01622 11.4417 8.96578 11.3169 8.86849 11.1518C8.47213 10.3223 7.51358 9.00888 7.41629 8.84375L3.48492 2.36713C3.43807 2.3268 3.10653 1.96004 2.77498 1.59329Z" fill="#452F53"/>
</svg>
