<svg width="34" height="34" viewBox="0 0 34 34" fill="none" xmlns="http://www.w3.org/2000/svg">
<path fill-rule="evenodd" clip-rule="evenodd" d="M20.4986 10.582C20.9136 10.1671 21.5863 10.1671 22.0012 10.582L27.6679 16.2487C27.8671 16.4479 27.9791 16.7182 27.9791 17C27.9791 17.2818 27.8671 17.552 27.6679 17.7513L22.0012 23.4179C21.5863 23.8329 20.9136 23.8329 20.4986 23.4179C20.0837 23.003 20.0837 22.3303 20.4986 21.9153L24.3515 18.0625H7.08325C6.49645 18.0625 6.02075 17.5868 6.02075 17C6.02075 16.4132 6.49645 15.9375 7.08325 15.9375H24.3515L20.4986 12.0846C20.0837 11.6697 20.0837 10.9969 20.4986 10.582Z" fill="#452F53"/>
</svg>
