<svg width="63" height="68" viewBox="0 0 63 68" fill="none" xmlns="http://www.w3.org/2000/svg">
<path d="M55.8064 21.6942C55.8584 21.6847 55.7815 21.5576 55.7781 21.5297C55.7115 21.5973 55.8246 21.7295 55.8064 21.6942Z" fill="#313A43"/>
<path d="M55.1521 22.3525L55.1409 22.2908L55.0858 22.4772L55.1521 22.3525Z" fill="#313A43"/>
<path d="M54.4122 22.679C54.5825 22.8763 54.6625 22.5225 54.8312 22.5455L54.8812 22.58L54.8595 22.369C54.708 22.4773 54.5526 22.6937 54.4122 22.679Z" fill="#313A43"/>
<path d="M53.7967 22.3611C53.8615 22.44 53.7455 22.4763 53.9019 22.3487L53.8769 22.3314C53.8513 22.3441 53.8244 22.3541 53.7967 22.3611Z" fill="#313A43"/>
<path d="M53.8756 22.3334C53.9502 22.2913 53.793 22.2763 53.8756 22.3334V22.3334Z" fill="#313A43"/>
<path d="M53.5395 22.544L53.6058 22.4194C53.5539 22.3835 53.4634 22.4034 53.4792 22.3518C53.3947 22.4411 53.4394 22.4833 53.5395 22.544Z" fill="#313A43"/>
<path d="M53.5158 22.7549L53.5556 22.6972C53.5339 22.6794 53.5171 22.6791 53.5158 22.7549Z" fill="#313A43"/>
<path d="M53.6289 22.5833L53.5465 22.7024C53.583 22.7277 53.6127 22.8079 53.5824 22.6505C53.6136 22.7204 53.6084 22.6458 53.6289 22.5833Z" fill="#313A43"/>
<path d="M53.7145 22.5827C53.7944 22.6068 53.8813 22.6044 53.815 22.729C53.9966 22.6102 53.8961 22.464 53.7145 22.5827Z" fill="#313A43"/>
<path d="M54.4785 22.9323L54.5869 22.9646L54.6179 22.8582C54.604 22.9111 54.4441 22.863 54.4785 22.9323Z" fill="#313A43"/>
<path d="M52.8476 22.7105C52.8623 22.7633 52.939 22.8248 52.975 22.8838L53.0335 22.7992C52.9709 22.7787 52.884 22.7811 52.8476 22.7105Z" fill="#313A43"/>
<path d="M52.975 22.8838L52.8988 23.0186C53.0031 22.9828 53.0026 22.9342 52.975 22.8838Z" fill="#313A43"/>
<path d="M53.6105 23.0166L53.7179 22.7585L53.5752 23.0348L53.6105 23.0166Z" fill="#313A43"/>
<path d="M52.4115 22.8975L52.4262 22.7571L52.3874 22.9774L52.4115 22.8975Z" fill="#313A43"/>
<path d="M52.1328 23.0458C52.1387 22.9305 51.997 22.9177 52.021 22.8377C51.953 22.9097 51.9081 23.0003 51.8921 23.098C51.94 23.0289 52.0103 23.0093 52.1328 23.0458Z" fill="#313A43"/>
<path d="M51.839 23.2489C51.8637 23.2014 51.8816 23.1507 51.8921 23.0981C51.8642 23.1442 51.8461 23.1955 51.839 23.2489Z" fill="#313A43"/>
<path d="M52.6975 23.0754C52.6808 23.0494 52.6592 23.027 52.6338 23.0094C52.6084 22.9919 52.5797 22.9795 52.5495 22.9731L52.6551 23.0915C52.6689 23.0854 52.6831 23.08 52.6975 23.0754Z" fill="#313A43"/>
<path d="M52.6536 23.102L52.5539 23.1353L52.6536 23.102Z" fill="#313A43"/>
<path d="M53.2577 23.0254C53.2248 23.1305 53.1238 23.2765 53.3102 23.3316C53.3147 23.2182 53.2096 23.1853 53.2577 23.0254Z" fill="#313A43"/>
<path d="M52.8383 23.2211L52.9722 23.2C52.954 23.1647 52.9074 23.1211 52.9245 23.0676L52.8383 23.2211Z" fill="#313A43"/>
<path d="M52.7975 23.2924L52.8383 23.2211L52.7882 23.2319L52.7975 23.2924Z" fill="#313A43"/>
<path d="M52.1022 23.283C52.0904 23.3162 52.072 23.3467 52.0481 23.3726C52.0243 23.3986 51.9955 23.4196 51.9635 23.4342C52.0412 23.4303 52.1175 23.4129 52.1893 23.383C52.1791 23.3361 52.1742 23.2447 52.1022 23.283Z" fill="#313A43"/>
<path d="M52.3757 23.208L52.368 23.2191C52.3791 23.2268 52.386 23.2288 52.3757 23.208Z" fill="#313A43"/>
<path d="M51.3302 23.7175L51.3511 23.7348L51.3421 23.7121L51.3302 23.7175Z" fill="#313A43"/>
<path d="M52.2116 23.4042C52.2757 23.4059 52.2908 23.3595 52.3008 23.3039C52.2679 23.3358 52.2303 23.3625 52.1893 23.383C52.1915 23.4045 52.1971 23.4169 52.2116 23.4042Z" fill="#313A43"/>
<path d="M51.6901 23.3901C51.7298 23.4066 51.7714 23.4182 51.8139 23.4246C51.7697 23.3941 51.6862 23.3505 51.6901 23.3901Z" fill="#313A43"/>
<path d="M52.3333 23.1898C52.3082 23.1588 52.3155 23.172 52.3333 23.1898V23.1898Z" fill="#313A43"/>
<path d="M52.3339 23.1904C52.3166 23.2261 52.3054 23.2645 52.3008 23.3039C52.3268 23.2787 52.3475 23.2487 52.362 23.2155C52.3511 23.209 52.3416 23.2005 52.3339 23.1904Z" fill="#313A43"/>
<path d="M51.5306 24.6805C51.483 24.5481 51.5664 24.37 51.7445 24.4534C51.817 24.3075 51.5462 23.9185 51.3503 23.7375C51.3721 23.7924 51.3952 23.8453 51.3094 23.9734C51.3824 24.0239 51.6463 24.0161 51.5976 24.1728C51.4696 24.3087 51.449 24.1865 51.3426 24.1555C51.4784 24.2835 51.2444 24.474 51.3814 24.6909L51.4824 24.5448C51.5012 24.5834 51.4771 24.6634 51.5306 24.6805Z" fill="#313A43"/>
<path d="M51.5826 23.6482L51.626 23.6101C51.5368 23.601 51.4518 23.5677 51.3801 23.5138C51.3601 23.5423 51.3464 23.5748 51.3399 23.6089C51.3334 23.6431 51.3342 23.6783 51.3423 23.7122L51.5915 23.6231L51.5826 23.6482Z" fill="#313A43"/>
<path d="M51.8449 23.5114C51.8681 23.6667 51.7761 23.7792 51.9148 23.895C52.0541 23.8209 51.9648 23.7364 52.0242 23.6383C51.8086 23.7733 52.0565 23.5299 51.857 23.5226C51.8881 23.4862 51.925 23.455 51.9662 23.4305C51.9161 23.4331 51.8659 23.4298 51.8166 23.4208L51.8281 23.4288C51.8454 23.4408 51.855 23.4474 51.8435 23.4394C51.8491 23.4579 51.8531 23.4769 51.8555 23.496C51.7751 23.4972 51.8228 23.4734 51.8435 23.4394L51.8361 23.4173L51.6386 23.596C51.7132 23.5849 51.7839 23.5558 51.8449 23.5114Z" fill="#313A43"/>
<path d="M53.3191 23.6843C53.3092 23.6766 53.3015 23.6664 53.2969 23.6548C53.2894 23.678 53.2885 23.6916 53.3191 23.6843Z" fill="#313A43"/>
<path d="M53.1856 23.6432C53.2016 23.6202 53.1845 23.5544 53.2507 23.549C53.3169 23.5437 53.2794 23.6144 53.3027 23.6588C53.3184 23.6072 53.3746 23.5097 53.2395 23.4873L53.2248 23.5084C53.11 23.494 53.0033 23.4413 52.9221 23.3587C52.9961 23.4655 53.0848 23.5612 53.1856 23.6432Z" fill="#313A43"/>
<path d="M52.5294 23.6184L52.3661 23.7724L52.5158 23.8476L52.4794 23.777C52.5997 23.755 52.5349 23.6762 52.5294 23.6184Z" fill="#313A43"/>
<path d="M51.2772 23.6585L51.2384 23.501L51.2178 23.7567L51.2772 23.6585Z" fill="#313A43"/>
<path d="M51.0338 23.7886L50.9862 23.6562L50.9552 23.7627L51.0338 23.7886Z" fill="#313A43"/>
<path d="M25.8192 36.9341L25.7303 37.0174C25.7642 36.9947 25.7943 36.9665 25.8192 36.9341Z" fill="#313A43"/>
<path d="M26.5851 36.6028L26.5773 36.532C26.5563 36.5828 26.5519 36.6139 26.5851 36.6028Z" fill="#313A43"/>
<path d="M39.9574 28.7536C39.7521 28.7054 39.4973 28.5973 39.5805 28.7316L39.6893 28.8495C39.7656 28.7887 39.8599 28.7549 39.9574 28.7536Z" fill="#313A43"/>
<path d="M32.5009 33.0773L32.5654 33.0991C32.5807 33.0358 32.5947 32.9745 32.6099 32.9197L32.5009 33.0773Z" fill="#313A43"/>
<path d="M32.6497 33.7001L32.4079 33.7005C32.4881 33.7125 32.5696 33.7124 32.6497 33.7001Z" fill="#313A43"/>
<path d="M21.7242 38.9402L21.6644 39.1375C21.8552 39.0507 21.7397 39.0163 21.7242 38.9402Z" fill="#313A43"/>
<path d="M46.641 25.8105C46.5157 25.812 46.3915 25.8335 46.273 25.8742C46.4746 25.8744 46.6561 25.9488 46.641 25.8105Z" fill="#313A43"/>
<path d="M25.4623 35.3261C25.4082 35.3796 25.3958 35.4222 25.4096 35.4516C25.4637 35.3981 25.491 35.3545 25.4623 35.3261Z" fill="#313A43"/>
<path d="M45.8955 26.0421C45.9247 26.0452 45.9507 26.0405 45.9798 26.0435C46.0681 25.9697 46.1681 25.9112 46.2757 25.8704C46.2024 25.858 46.1272 25.8677 46.0594 25.8983C45.9917 25.9289 45.9347 25.9789 45.8955 26.0421Z" fill="#313A43"/>
<path d="M6.57738 45.5678C6.56777 45.5611 6.55078 45.5693 6.53659 45.5651C6.5224 45.561 6.55773 45.5797 6.57738 45.5678Z" fill="#313A43"/>
<path d="M1.55548 46.1288C1.61211 46.0957 1.67062 46.066 1.73071 46.0397C1.66599 46.0549 1.60589 46.0855 1.55548 46.1288Z" fill="#313A43"/>
<path d="M49.4871 24.4065C49.5813 24.3524 49.5004 24.3873 49.4871 24.4065V24.4065Z" fill="#313A43"/>
<path d="M50.2112 24.7397C50.2038 24.7526 50.1993 24.7668 50.1979 24.7816C50.1966 24.7963 50.1984 24.8112 50.2033 24.8252C50.195 24.7967 50.1978 24.7662 50.2112 24.7397Z" fill="#313A43"/>
<path d="M45.2958 27.3486C45.3313 27.3568 45.3194 27.3622 45.2958 27.3486V27.3486Z" fill="#313A43"/>
<path d="M49.6628 24.403C49.6146 24.4018 49.5663 24.4066 49.5193 24.4174C49.5676 24.4185 49.6157 24.4136 49.6628 24.403Z" fill="#313A43"/>
<path d="M49.6112 24.3503L49.7037 24.3234C49.7081 24.2923 49.6895 24.2823 49.6112 24.3503Z" fill="#313A43"/>
<path d="M49.3518 24.4749C49.4051 24.449 49.4613 24.4297 49.5193 24.4175C49.4941 24.417 49.4831 24.4123 49.4924 24.3989L49.3518 24.4749Z" fill="#313A43"/>
<path d="M14.5006 41.5838L14.4728 41.5788C14.3991 41.6813 14.4391 41.6521 14.5006 41.5838Z" fill="#313A43"/>
<path d="M38.0354 31.3389L38.043 31.3278L38.0319 31.3201L38.0354 31.3389Z" fill="#313A43"/>
<path d="M37.7257 31.6024C37.7971 31.3677 37.9011 31.3487 38.0253 31.3295L37.7285 30.9822L37.7257 31.6024Z" fill="#313A43"/>
<path d="M24.0118 37.7891L24.3181 37.8021C24.1081 38.1427 23.8594 38.1696 24.1713 38.2404C24.0118 37.7891 25.1219 37.7614 24.9611 37.3121L25.1662 37.3318C25.1173 37.3491 25.1303 37.3837 25.0718 37.3943C25.4849 37.4584 25.1697 36.9734 25.6093 36.8513C25.7667 36.8209 25.8999 36.842 25.8192 36.9339L26.0912 36.6845C26.1876 36.6518 26.1998 36.7369 26.1033 36.7696L26.5613 36.5182C26.6271 36.3993 26.7046 36.2872 26.7926 36.1838C26.9435 36.1915 26.7447 36.2529 26.8068 36.2987L27.0291 36.0718C27.1901 36.1348 27.0135 36.345 26.8224 36.4118C27.274 36.7241 26.9958 36.2021 27.6529 36.2134L27.4231 36.3812C27.6969 36.5563 27.8575 36.3776 28.2129 36.4018C28.1081 36.3521 27.4543 36.2664 27.7091 36.0335C27.7727 36.028 27.8342 36.0078 27.8888 35.9746C27.9433 35.9413 27.9894 35.8959 28.0235 35.8418C28.0935 35.9953 28.2301 35.8881 28.421 35.7928L28.4984 36.0055C28.6832 35.8492 28.6174 35.7554 28.6996 35.6077C28.7858 35.5795 28.8788 35.5802 28.9646 35.6097C29.0503 35.6393 29.124 35.696 29.1745 35.7714C29.5555 35.6314 28.8029 35.6308 29.227 35.3957C29.5655 35.3457 29.7522 35.1538 30.0676 34.8662C30.315 34.8413 30.0853 35.0091 30.1905 35.0336L30.3219 34.7779C30.3708 34.7605 30.3776 34.8164 30.3816 34.8476C30.5149 34.7124 30.3029 34.6369 30.5321 34.4658C30.5008 34.2112 31.2032 34.5635 31.4031 34.1676C31.5064 34.1907 31.4221 34.3086 31.4799 34.377C31.7052 34.1858 31.8976 33.9589 32.0494 33.7055L32.4137 33.7046C32.1217 33.6503 32.324 33.3413 32.5067 33.0813C32.4197 33.0464 32.3303 33.0178 32.2392 32.9957L32.5882 32.7087C32.6509 32.7208 32.6416 32.8081 32.6157 32.9237C32.6356 32.8949 32.6542 32.868 32.6702 32.8449C32.8437 32.857 32.8242 33.0083 32.7729 33.1688L32.575 33.1058C32.5319 33.2749 32.5004 33.452 32.5743 33.5628C32.6003 33.5169 32.637 33.478 32.6812 33.4492C32.6694 33.495 32.6662 33.5326 32.6873 33.5472C32.7085 33.5618 32.7246 33.4934 32.7764 33.4184L32.967 33.6071L32.9486 33.5063L33.5322 33.4184C33.798 33.034 33.973 32.5385 34.521 32.1817C34.4477 32.4151 34.6082 32.4664 34.6909 32.6714C34.4372 32.5329 34.2809 32.956 33.9518 33.058C34.1193 33.009 34.1277 33.12 34.1056 33.1643L34.5654 32.7295C34.6248 32.8984 34.7347 32.8011 34.9064 32.8034C34.657 32.5314 35.2191 32.4088 35.3949 32.2122C35.4586 32.3131 35.4544 32.4465 35.1689 32.5389C35.5767 32.6476 35.3863 31.9903 35.7771 32.0703C35.7124 32.1022 35.6703 32.1015 35.6672 32.1676C35.7802 32.0042 36.1895 31.9094 36.1418 32.0441L36.0784 32.0741C36.5335 31.9172 37.4147 31.4812 37.3583 31.1807C37.4004 31.318 37.4295 31.4589 37.4451 31.6016L37.8173 30.3362C37.8537 30.6 38.3667 31.0372 38.0628 31.3328C38.2344 31.3237 38.3956 31.2473 38.5111 31.1201C38.4249 31.1173 38.1836 30.8623 38.2709 30.7977C38.6542 30.9378 38.5176 30.8518 38.9461 30.9265C38.8165 30.925 38.7718 30.5049 38.9466 30.4411C38.9454 30.5085 39.1226 30.7986 39.0774 30.864L39.3229 30.3036C39.2458 30.4151 39.4388 30.6167 39.5791 30.6768C39.5041 30.625 39.9454 30.521 40.0371 30.4253L39.8213 30.421C40.3185 30.2649 40.0623 29.707 40.5413 29.5155C40.5176 29.6156 40.6044 30.0364 40.8653 29.9754C40.8933 29.7419 40.9548 28.8724 41.3079 28.5427L41.435 28.6136L41.6994 28.3504C41.5654 28.8907 41.3726 29.4147 41.1244 29.9131C41.3402 29.9174 41.2302 30.0147 41.4937 29.8844C41.6301 29.9418 41.4069 30.1084 41.3389 30.141L41.9869 29.9271C41.8626 29.7247 42.3623 29.4993 42.2595 29.3316L41.6867 29.8559C41.5638 29.6516 41.7952 29.0787 42.257 28.9122C42.408 28.9485 42.3438 29.333 42.3861 29.3992C42.4104 29.3024 42.7384 29.0747 42.798 29.1159L42.665 29.308C42.9436 29.2791 42.9335 28.8459 43.3252 28.9123C43.432 28.881 43.7505 29.0531 43.7126 28.9189C43.4362 28.7476 43.0652 28.0023 43.0893 27.7662C43.3598 27.7587 43.6302 27.781 43.8958 27.8324C44.1459 27.9514 43.8504 28.4033 44.0586 28.5132C44.0389 28.4513 44.1005 28.3376 44.1284 28.2973C44.2566 28.3007 44.1651 28.4988 44.3851 28.3697C44.3256 28.1353 44.8609 28.1788 44.4098 28.1368C44.6084 27.9729 44.6721 28.0738 44.931 27.946C44.783 27.8437 44.9552 27.3605 45.1615 27.202C45.1727 27.2638 45.2555 27.3125 45.2966 27.3352C45.7678 27.1469 46.0596 27.1357 46.4933 26.9441C46.5529 26.9853 46.7933 26.9498 46.7456 27.0845C46.7856 26.988 46.8556 26.9069 46.9453 26.8533C47.2882 26.9285 46.6626 27.0157 46.9642 27.1505C46.9231 27.0169 47.2285 26.8218 47.3836 26.6592C47.2381 26.4875 46.9285 26.816 46.7753 26.98C46.6522 26.7102 46.856 26.2801 47.2517 25.9543C47.5797 25.7266 47.4858 26.0594 47.5291 25.9927C48.2251 25.7382 47.8935 25.2646 48.54 25.2089C48.8389 25.282 48.7041 25.5468 48.8048 25.6477C48.5415 25.8435 48.3074 25.7383 48.1094 25.8315L48.3899 25.8039C48.3471 25.8651 48.2921 25.9169 48.2284 25.9559C48.1648 25.995 48.0937 26.0205 48.0198 26.0309C48.2746 26.102 49.1687 25.5528 49.7536 25.4629C49.8214 25.3649 49.952 25.2336 49.8463 25.1975L49.6929 25.296C49.4783 25.2242 49.9202 24.9673 49.6759 25.0001C49.8517 24.8035 50.0319 24.5389 50.3771 24.4793L50.5239 24.649C50.4905 24.5946 50.2613 24.618 50.2104 24.7163C50.3074 24.576 50.8058 24.7673 50.8333 24.4482L50.5478 24.4297C50.585 24.3759 50.6262 24.3163 50.6822 24.2641L50.7154 24.2161C50.7235 24.2066 50.7307 24.1963 50.7367 24.1853L50.7677 24.1158C50.782 24.0754 50.8071 24.0396 50.8404 24.0125C50.8737 23.9854 50.9138 23.968 50.9563 23.9622C50.8022 23.7988 50.9311 23.9987 50.7254 23.8196C50.8329 23.9394 50.7376 23.9786 50.6488 24.0166C50.6408 24.0281 50.5789 24.0478 50.5482 24.0635C50.5268 24.0749 50.5068 24.0887 50.4885 24.1046C50.4606 24.145 50.4703 24.1801 50.5707 24.224C50.2522 24.052 50.1739 24.2678 49.8102 24.1611C49.848 24.2214 49.9579 24.2433 49.7078 24.3091C49.703 24.3373 49.6944 24.3649 49.6825 24.3909L49.6643 24.3926L49.6758 24.4005C49.6665 24.414 49.6652 24.4159 49.6758 24.4005C49.7329 24.3998 49.789 24.4159 49.8371 24.4467C49.7896 24.6469 49.4206 24.8065 49.3249 24.9449C49.176 24.9754 49.3506 24.8461 49.2449 24.81L49.112 25.0021C49.0287 24.8678 48.6395 24.9254 48.9254 24.6969L48.6471 24.8199C48.4383 24.8108 48.2335 24.8799 48.0728 25.0136C47.9206 25.0447 47.7959 25.3277 47.8688 25.1566L47.4588 25.4412L47.4393 25.4079C46.9805 25.5906 46.6192 26.0595 45.9891 26.03C45.8315 26.1653 45.6459 26.264 45.4455 26.3188L45.3397 26.2172C45.165 26.3465 44.7048 26.3464 44.6746 26.5215C44.3191 26.2756 43.6984 26.8691 43.3293 26.9633L43.3899 27.1303C43.1331 27.252 42.8938 27.4075 42.6781 27.5926L42.7601 27.7288C42.5617 27.9581 42.0647 27.9127 41.6711 28.1121C41.6742 28.046 41.781 28.0148 41.8671 28.0175C41.2455 27.9058 40.9688 28.7003 40.4302 28.6574C40.3998 28.695 40.3605 28.7246 40.3158 28.7433C40.2711 28.7619 40.2225 28.7692 40.1743 28.7645C40.1813 28.758 40.1867 28.7502 40.1903 28.7414C40.1744 28.7451 40.1591 28.7507 40.1446 28.7581C40.087 28.7552 40.0236 28.7483 39.9614 28.7479C40.0138 28.7633 40.0684 28.7703 40.1231 28.7688C40.0129 28.8247 39.9099 28.8937 39.8162 28.9742L39.688 28.8515C39.6789 28.856 39.6704 28.8615 39.6625 28.8679C39.516 28.866 39.5963 28.9841 39.7134 29.0736C39.6666 29.1231 39.6276 29.1795 39.5978 29.2408C39.3893 29.0369 39.3106 29.4712 39.0581 29.2653C39.0332 29.4327 38.4813 29.6391 38.5377 29.9395C38.5169 29.9081 38.4782 29.8983 38.5395 29.8754C38.465 29.8777 38.3917 29.895 38.3241 29.9264C38.2565 29.9578 38.196 30.0025 38.1462 30.058L37.9993 29.8882L37.8182 30.2857C37.581 30.2466 37.4753 30.2105 37.5894 29.9797C37.2542 30.407 37.2715 30.2258 37.0029 30.6224L36.965 30.4883C36.8336 30.5508 36.6988 30.8156 36.5704 30.7466C36.1645 30.6392 35.0838 31.372 34.2198 31.4875C34.536 31.7943 33.7928 31.4764 33.8907 31.7827C33.8003 31.7202 33.678 31.7123 33.7664 31.5803C33.4159 31.8407 33.1162 31.6988 32.9596 32.0649C32.8693 32.0025 32.9845 31.8975 32.9215 31.8653C32.8989 31.898 32.8311 31.996 32.7676 31.9605C32.704 31.9251 32.7913 31.8605 32.8365 31.7951C32.445 31.9874 32.5249 32.2785 32.6047 32.5411C32.3434 32.5081 32.2489 32.5791 32.1774 32.8138C32.0707 32.7627 31.9132 32.7276 32.1476 32.5858C32.0022 32.6358 31.2423 32.8432 31.3197 33.0559C31.2601 33.0146 31.1195 33.1276 31.0929 33.1661C30.8693 33.2426 30.6516 33.335 30.4413 33.4427L30.5412 33.4379C30.5308 33.7405 30.312 33.609 30.077 33.7476L30.0736 33.7197C29.4273 33.7955 29.8674 33.9152 29.2158 33.9617L29.3152 34.1015C29.4129 34.4532 28.7301 34.1258 28.4642 34.3994L28.6218 34.4345C28.4889 34.6266 27.9269 34.2068 27.7306 34.2442C27.6782 34.2336 27.7771 34.177 27.813 34.1251C27.2592 34.137 27.8428 34.3531 27.5166 34.5537C27.4032 34.4752 27.4746 34.2405 27.2333 34.3265C27.0771 34.2895 26.7127 34.9807 26.3009 34.9147C26.4076 34.9658 26.513 35.0188 26.3817 35.1552C26.1486 35.2951 25.5724 35.1382 25.4671 35.5C25.4522 35.4979 25.438 35.4924 25.4257 35.4839C25.4133 35.4753 25.4032 35.464 25.396 35.4508C25.2372 35.6024 24.8396 35.8445 24.7813 36.0314C24.3697 35.5791 23.7231 36.8139 23.5079 36.3241L22.9385 36.6093L22.9316 36.5534C22.8089 36.582 22.6953 36.6408 22.6011 36.7246C22.5069 36.8083 22.4353 36.9143 22.3926 37.0329C22.2908 37.0364 22.3329 36.9632 22.3294 36.9353C21.7424 37.0776 21.6988 37.1241 21.3516 37.5687L21.2327 37.4325C21.1504 37.5802 20.3377 37.5352 19.8872 37.9566C19.8844 37.9393 19.8854 37.9216 19.8901 37.9048C19.8949 37.888 19.9033 37.8724 19.9148 37.8592C19.3995 38.3125 18.2838 38.0608 18.3175 38.7432L17.986 39.0623C18.5168 38.8782 18.0213 39.3481 18.2735 39.3491C18.0879 39.4737 17.6685 39.4023 17.9106 39.2658L17.9616 39.2784C17.9156 38.934 17.2729 39.4526 17.2012 39.244C16.201 39.7085 15.147 39.9796 14.1988 40.3892L14.4122 40.5737L14.0976 40.6999C13.987 40.6831 13.9054 40.567 14.1384 40.4725C13.9563 40.3948 13.7945 40.7602 13.8092 40.813C13.3088 40.9243 13.8677 40.4614 13.7273 40.5206L13.546 40.6225L13.5997 40.6312C13.4867 40.7945 13.5198 40.9027 13.232 41.019C13.0331 41.0519 13.0783 40.9126 13.0039 40.9379C12.9905 40.9286 12.9751 40.918 12.8924 40.9801L12.4689 41.1446L12.7192 41.2552C12.5709 41.4368 12.3223 41.4183 12.6086 41.5424C12.1791 41.3419 11.0121 42.1173 10.8024 42.1001C10.5959 42.3319 10.3278 42.5002 10.0292 42.5853C10.1238 42.5883 10.2639 42.776 9.98223 42.871C9.8892 42.3976 9.39318 42.9012 9.04343 42.6962C9.33181 42.8133 8.29583 43.0911 8.73334 43.2432C8.49041 43.311 8.64844 43.0907 8.43045 43.0649C7.96719 43.4718 7.19562 43.4865 6.55499 43.8418C6.5695 43.903 6.72055 43.9393 6.61437 44.0846L6.13298 43.9591C6.0142 44.0445 6.15636 44.336 5.82986 44.2494C5.88175 44.2853 5.96054 44.3398 5.88712 44.3885C4.46041 44.6973 3.32344 45.8031 1.76716 45.8802C1.99742 45.9088 1.88159 45.9736 1.74566 46.0387C1.84703 46.0235 1.80617 46.1771 1.85748 46.2467L1.20873 46.281C1.20368 46.5389 0.619943 46.5613 0.653006 46.7887L0.813741 46.6755C0.684738 47.0181 1.37491 47.0636 1.47836 47.3823C1.61916 46.9938 2.34856 47.4756 2.6041 46.8966C2.72692 46.9162 2.5681 47.0308 2.65088 47.0795C2.69868 46.8995 2.81879 46.8121 3.08862 46.7629L3.07489 46.8074C3.74435 46.4721 4.09504 46.4703 4.90507 46.2151L4.78146 46.0898C4.88682 46.0569 4.99868 46.0503 5.10717 46.0708C5.19288 45.7579 4.63716 46.2656 4.69597 45.9341C5.05208 46.1463 5.86174 45.4193 6.16734 45.7045C6.41941 45.5947 6.01358 45.5612 6.2689 45.4509L6.37268 45.5226L6.38236 45.3731C6.44451 45.3481 6.51326 45.3447 6.57758 45.3634C6.6419 45.3821 6.69807 45.4219 6.73709 45.4764C6.69158 45.4847 6.63146 45.551 6.59083 45.5769C6.86276 45.5945 7.18404 45.2656 7.27404 45.271L7.00421 45.3202C7.65856 44.9204 8.55992 44.6688 9.14195 44.1764L9.06316 44.1219C9.51654 43.7621 9.50765 44.0173 10.0419 43.705L10.0246 43.7299C10.1168 43.599 10.247 43.4997 10.3976 43.4453C10.2953 43.5933 10.7365 43.4893 10.5922 43.6651C11.0837 43.2749 10.8166 43.431 11.0561 42.9944L11.1868 43.0848C11.2103 43.0011 11.252 42.9237 11.3088 42.8579C11.3656 42.7921 11.4361 42.7396 11.5154 42.7041C11.3311 42.909 11.7742 42.8064 11.5781 43.0571C12.2827 43.0529 12.334 42.4037 12.7742 42.6627C12.8973 42.2137 12.1772 42.7043 12.3039 42.5704C12.1285 42.5201 12.4174 42.2256 12.6166 42.1758C12.8158 42.1261 13.1239 42.4528 13.593 42.2346C13.5447 42.2552 13.5585 42.2846 13.5057 42.2992C13.7202 42.3055 13.8013 42.032 14.0806 42.0718C14.1175 41.8132 14.3671 41.9574 14.2894 41.6878L13.882 41.9401C14.0969 41.7649 14.1951 41.364 14.6637 41.3273C14.6285 41.4253 14.5726 41.5145 14.4998 41.589C14.6498 41.6103 14.7 41.4433 14.8701 41.4644C14.9478 41.734 14.3673 41.7559 14.1903 42.0653C14.3657 42.1156 14.6069 41.6601 14.5973 41.9944C14.6306 41.5601 15.0829 41.8303 15.2799 41.4182L15.3258 41.5778C15.379 41.4954 15.4502 41.4262 15.5341 41.3752L15.4529 41.6487C15.6456 41.37 16.0181 41.5708 16.2187 41.3629C15.6994 41.6004 16.0266 41.23 15.7493 41.2201C16.2996 40.7285 16.2956 41.453 16.981 41.0577C16.8937 41.1223 16.576 41.1299 16.6969 40.9919C16.8529 40.9521 17.0159 40.9483 17.1735 40.9806C17.6315 40.7292 17.0304 40.8589 17.1917 40.675C17.4355 40.7867 17.3906 40.4943 17.5727 40.3418L17.6446 40.4967C18.2311 40.3511 17.6447 40.1104 18.1817 40.0158L18.0753 40.3258L18.3064 40.156L18.3308 40.3548C18.405 40.2603 18.4979 40.1822 18.6038 40.1253C18.7096 40.0685 18.826 40.0341 18.9458 40.0244C18.8324 39.9459 18.8626 39.7338 19.0947 39.616C19.2979 39.6343 19.0668 39.8041 19.3978 39.6296C19.3645 39.7599 19.3332 39.9201 19.1226 39.8426C19.13 39.9018 19.0912 39.9743 19.0966 40.0321C19.3198 40.0586 19.5501 39.8571 19.6742 39.8009C19.6265 39.8196 19.5753 39.8278 19.5241 39.8249L19.9217 39.3896C20.025 39.4128 19.9849 39.4873 19.9441 39.5585C20.0288 39.4718 20.1197 39.3912 20.2159 39.3175C20.2336 39.4604 20.3097 39.5926 20.1193 39.7365L20.5278 39.3883C20.5835 39.4268 20.8362 39.4311 20.7955 39.5024C21.0885 39.4607 21.3256 38.9741 21.7168 38.9179C21.7308 38.866 21.7622 38.8206 21.8058 38.7892C22.1442 38.6737 22.4983 38.6999 22.8122 38.3487L23.1328 38.4767C23.4114 38.2916 22.7089 38.3256 23.1692 38.0132C23.4933 37.7828 23.3867 38.1466 23.5408 38.1538C23.6737 37.9616 23.8719 37.5929 24.2802 37.631C24.2061 37.7218 24.1062 37.7265 24.0118 37.7891ZM27.6911 36.0267C27.6419 36.0978 27.5329 36.2554 27.44 36.1883C27.443 35.9745 27.5439 36.03 27.6911 36.0267ZM33.1819 33.1278C33.1502 33.2025 33.0566 33.2145 32.9363 33.1995C33.0081 33.1492 33.0944 33.124 33.1819 33.1278ZM48.4553 25.011C48.2688 25.0383 48.3356 25.0362 48.461 25.015L48.4553 25.011ZM48.8201 24.9395C48.844 24.9049 48.8301 24.8839 48.8071 24.868C48.801 24.9178 48.7272 24.9547 48.6379 24.9811C48.6855 25.0026 48.7392 25.0113 48.8201 24.9395ZM12.9778 41.025L13.0619 41.0349C12.9377 41.1364 12.9607 41.0785 12.9812 41.016L12.9778 41.025Z" fill="#313A43"/>
<path d="M32.6321 33.6313C32.6029 33.6141 32.5788 33.5895 32.562 33.5601C32.5575 33.5995 32.5622 33.6255 32.6321 33.6313Z" fill="#313A43"/>
<path d="M21.7345 38.9048C21.7324 38.9149 21.7327 38.9254 21.7352 38.9354L21.7345 38.9048Z" fill="#313A43"/>
<path d="M44.2355 28.5532C44.1779 28.5619 44.1191 28.5546 44.0654 28.5321C44.0809 28.5713 44.1246 28.5902 44.2355 28.5532Z" fill="#313A43"/>
<path d="M50.4761 23.8801L50.2807 24.0148C50.3465 23.9795 50.4221 23.9669 50.4958 23.979C50.4763 23.9456 50.4114 23.9121 50.4761 23.8801Z" fill="#313A43"/>
<path d="M51.9443 24.37C51.9602 24.3469 51.9796 24.3518 51.9788 24.32L51.9444 24.2507C51.8814 24.2924 51.8574 24.3724 51.9443 24.37Z" fill="#313A43"/>
<path d="M50.8515 24.3273C50.9181 24.4529 50.9713 24.376 51.041 24.3163C51.0397 24.3209 51.0369 24.325 51.033 24.3278C50.9703 24.131 50.9109 24.2292 50.8515 24.3273Z" fill="#313A43"/>
<path d="M51.0587 24.303C51.0808 24.2861 51.1059 24.2735 51.1326 24.266C51.1086 24.1897 51.0957 24.266 51.0587 24.303Z" fill="#313A43"/>
<path d="M49.2086 24.6572C49.2961 24.658 49.18 24.4726 49.2449 24.5061C49.2503 24.3053 48.86 24.9189 49.2086 24.6572Z" fill="#313A43"/>
<path d="M51.1092 24.7271L51.008 24.5776L51.0204 24.7282L51.1092 24.7271Z" fill="#313A43"/>
<path d="M49.981 25.0889L50.24 25.0265C50.2236 25.001 50.2468 24.9716 50.2804 24.9436C50.1356 24.9969 49.9526 25.0437 49.981 25.0889Z" fill="#313A43"/>
<path d="M50.2804 24.9437C50.3496 24.9225 50.412 24.8833 50.4612 24.8301C50.3962 24.8599 50.3355 24.8981 50.2804 24.9437Z" fill="#313A43"/>
<path d="M50.9122 24.8721L50.8247 24.8713L50.6513 24.9331L50.9122 24.8721Z" fill="#313A43"/>
<path d="M47.3919 26.2076L47.1513 26.3707C47.1501 26.4381 47.2397 26.4319 47.323 26.373C47.4063 26.3141 47.4555 26.243 47.3919 26.2076Z" fill="#313A43"/>
<path d="M48.3783 26.2932C48.294 26.2917 48.2726 26.257 48.211 26.2229L48.2898 26.4252L48.3783 26.2932Z" fill="#313A43"/>
<path d="M47.6392 26.6799C47.6375 26.744 47.331 27.0065 47.6559 26.8448C47.6576 26.7806 47.8983 26.6175 47.6392 26.6799Z" fill="#313A43"/>
<path d="M43.5877 28.1876L43.6524 28.1556L43.4978 27.8328L43.5877 28.1876Z" fill="#313A43"/>
<path d="M40.4613 30.5226C40.8078 30.4612 40.4452 30.2871 40.7697 30.2615C40.8066 30.1507 40.5049 30.2829 40.543 30.1786C40.4021 30.3453 40.2822 30.342 40.4613 30.5226Z" fill="#313A43"/>
<path d="M40.5514 30.1789C40.5766 30.1491 40.5988 30.1169 40.6178 30.0828C40.591 30.1113 40.5686 30.1437 40.5514 30.1789Z" fill="#313A43"/>
<path d="M0.748521 46.2809L0.517397 46.3029L0.694762 46.3546L0.748521 46.2809Z" fill="#313A43"/>
<path d="M0.484025 46.7005L0.326401 46.5176L0.291194 46.7574C0.337876 46.7187 0.418539 46.6637 0.484025 46.7005Z" fill="#313A43"/>
<path d="M28.4296 36.1995L28.4241 36.1418C28.3684 36.1032 28.3208 36.1186 28.221 36.1519L28.4296 36.1995Z" fill="#313A43"/>
<path d="M25.6602 37.2502L25.7091 37.2329L25.536 37.0847L25.6602 37.2502Z" fill="#313A43"/>
<path d="M23.4985 38.5024C23.5963 38.4678 23.686 38.3792 23.7819 38.3433C23.599 38.4639 23.3688 38.2792 23.4985 38.5024Z" fill="#313A43"/>
<path d="M48.0016 39.5107C47.955 39.541 48.0748 39.6266 48.0893 39.6509C48.1251 39.562 47.9702 39.4861 48.0016 39.5107Z" fill="#313A43"/>
<path d="M48.3437 38.6422L48.3785 38.6947L48.3565 38.5005L48.3437 38.6422Z" fill="#313A43"/>
<path d="M48.8926 38.0415C48.654 37.9305 48.7238 38.2856 48.5635 38.3367L48.5042 38.3156L48.61 38.4995C48.7065 38.3475 48.7679 38.0945 48.8926 38.0415Z" fill="#313A43"/>
<path d="M49.5856 38.0748C49.4936 38.0311 49.5845 37.949 49.4952 38.1316L49.5256 38.1327C49.544 38.1119 49.5641 38.0925 49.5856 38.0748Z" fill="#313A43"/>
<path d="M49.5256 38.1328C49.4764 38.2039 49.6239 38.1468 49.5256 38.1328V38.1328Z" fill="#313A43"/>
<path d="M49.7484 37.7981L49.7376 37.9412C49.7969 37.9623 49.8738 37.8962 49.8806 37.952C49.9209 37.8322 49.8636 37.8124 49.7484 37.7981Z" fill="#313A43"/>
<path d="M49.6799 37.5974L49.6704 37.6647C49.6974 37.6748 49.7131 37.6686 49.6799 37.5974Z" fill="#313A43"/>
<path d="M49.6465 37.8101L49.6723 37.666C49.6377 37.6421 49.5704 37.5955 49.655 37.7279C49.6061 37.6713 49.6485 37.7291 49.6465 37.8101Z" fill="#313A43"/>
<path d="M49.5728 37.8387C49.4876 37.8508 49.4073 37.889 49.4181 37.7459C49.3009 37.9319 49.4536 38.0233 49.5728 37.8387Z" fill="#313A43"/>
<path d="M48.7276 37.8366L48.6178 37.8515L48.6295 37.9619C48.6169 37.9021 48.7903 37.8856 48.7276 37.8366Z" fill="#313A43"/>
<path d="M50.3122 37.3529C50.276 37.3108 50.1797 37.2897 50.1221 37.2498L50.1138 37.3521C50.1697 37.3453 50.2482 37.3058 50.3122 37.3529Z" fill="#313A43"/>
<path d="M50.1221 37.2496L50.1358 37.0943C50.0541 37.1713 50.0741 37.2164 50.1221 37.2496Z" fill="#313A43"/>
<path d="M49.4876 37.3989L49.4951 37.6797L49.5121 37.3675L49.4876 37.3989Z" fill="#313A43"/>
<path d="M50.6295 36.9928L50.6777 37.1284L50.6179 36.9109L50.6295 36.9928Z" fill="#313A43"/>
<path d="M50.8217 36.7393C50.8646 36.8457 50.9997 36.7942 51.0139 36.8722C51.0423 36.7797 51.0424 36.6809 51.0142 36.5883C51.0017 36.6763 50.9491 36.7194 50.8217 36.7393Z" fill="#313A43"/>
<path d="M51.0034 36.4272C51.0027 36.4805 51.0079 36.5336 51.0188 36.5857C51.0265 36.5324 51.0212 36.478 51.0034 36.4272Z" fill="#313A43"/>
<path d="M50.2944 36.9513C50.3211 36.9671 50.3508 36.9773 50.3815 36.9815C50.4123 36.9857 50.4435 36.9838 50.4735 36.9757L50.3281 36.9149C50.3188 36.9256 50.3076 36.9377 50.2944 36.9513Z" fill="#313A43"/>
<path d="M50.3242 36.9122C50.3629 36.8726 50.3886 36.8478 50.4013 36.8376C50.3934 36.8492 50.3703 36.8702 50.3242 36.9122Z" fill="#313A43"/>
<path d="M50.2856 36.9592C50.2796 36.9441 50.2746 36.9433 50.2856 36.9592V36.9592Z" fill="#313A43"/>
<path d="M49.8052 37.2438C49.7916 37.1321 49.8171 36.9679 49.6288 36.9854C49.6736 37.0931 49.7834 37.0781 49.8052 37.2438Z" fill="#313A43"/>
<path d="M50.1057 36.8831L49.9922 36.9609C50.0249 36.9835 50.0828 37.0065 50.091 37.0605L50.1057 36.8831Z" fill="#313A43"/>
<path d="M50.1096 36.8037L50.1043 36.8853L50.1457 36.8542L50.1096 36.8037Z" fill="#313A43"/>
<path d="M50.7519 36.5035C50.7463 36.4319 50.7689 36.3609 50.8149 36.3056C50.7434 36.3452 50.6795 36.3972 50.6263 36.4593C50.6548 36.4961 50.6995 36.5752 50.7519 36.5035Z" fill="#313A43"/>
<path d="M50.5319 36.6973L50.5396 36.6862C50.519 36.6802 50.5128 36.6813 50.5319 36.6973Z" fill="#313A43"/>
<path d="M50.5973 36.4477C50.5398 36.4733 50.5441 36.5246 50.5588 36.5774C50.5742 36.5335 50.5975 36.4928 50.6276 36.4573C50.6143 36.4396 50.6041 36.4297 50.5973 36.4477Z" fill="#313A43"/>
<path d="M51.0735 36.2314C51.031 36.2347 50.9891 36.2429 50.9486 36.2559C51.0036 36.2626 51.0982 36.2655 51.0735 36.2314Z" fill="#313A43"/>
<path d="M50.5846 36.7C50.6126 36.7111 50.5996 36.7021 50.5846 36.7V36.7Z" fill="#313A43"/>
<path d="M50.5845 36.7001C50.5843 36.6603 50.5783 36.6206 50.5665 36.5825C50.5518 36.6158 50.5435 36.6515 50.542 36.6878L50.5845 36.7001Z" fill="#313A43"/>
<path d="M50.6557 34.9992C50.7558 35.0969 50.7596 35.2927 50.5619 35.2951C50.5616 35.4598 50.9628 35.6889 51.2364 35.7617C51.1865 35.7271 51.1483 35.6837 51.1691 35.5304C51.0811 35.5179 50.8464 35.6396 50.8213 35.4746C50.8762 35.2966 50.9503 35.399 51.0595 35.3808C50.8829 35.3239 51.0002 35.0557 50.7927 34.9121L50.7638 35.0853C50.7285 35.0666 50.7097 34.9911 50.6557 34.9992Z" fill="#313A43"/>
<path d="M51.0608 35.9501L51.0385 36.0029C51.0967 35.9721 51.1674 35.9727 51.3033 35.9815C51.3087 35.9471 51.3068 35.9119 51.2977 35.8783C51.2887 35.8446 51.2728 35.8132 51.2509 35.7861L51.0642 35.978L51.0608 35.9501Z" fill="#313A43"/>
<path d="M50.883 36.1907C50.7951 36.0589 50.8286 35.9202 50.6524 35.875C50.5621 36.0057 50.6794 36.0414 50.6617 36.1656C50.7964 35.9462 50.6786 36.2767 50.861 36.1897C50.8498 36.2364 50.8306 36.2808 50.8043 36.321C50.8484 36.2983 50.8945 36.2798 50.942 36.2656C50.9266 36.255 50.917 36.2483 50.9266 36.255C50.9362 36.2616 50.9266 36.255 50.9266 36.255L50.8898 36.2096C50.9617 36.1713 50.9225 36.2322 50.9266 36.255L50.9439 36.267L51.0461 36.0166C50.9784 36.0606 50.9225 36.1204 50.883 36.1907Z" fill="#313A43"/>
<path d="M49.4702 36.6683C49.4815 36.672 49.4915 36.679 49.4991 36.6882C49.5027 36.6623 49.4971 36.6499 49.4702 36.6683Z" fill="#313A43"/>
<path d="M49.6099 36.6512C49.6146 36.6772 49.6494 36.7297 49.5989 36.7658C49.5483 36.8018 49.5393 36.7246 49.4989 36.6966C49.5052 36.7492 49.4974 36.8632 49.6283 36.8259L49.6236 36.7999C49.7294 36.7537 49.9571 36.7777 49.9618 36.8037C49.8521 36.7368 49.7337 36.6855 49.6099 36.6512Z" fill="#313A43"/>
<path d="M50.2268 36.396L50.3094 36.1861L50.139 36.1819L50.2044 36.227C50.0949 36.2991 50.1849 36.3414 50.2268 36.396Z" fill="#313A43"/>
<path d="M51.3335 35.8063L51.4384 35.9299L51.3426 35.6904L51.3335 35.8063Z" fill="#313A43"/>
<path d="M51.4955 35.5803L51.597 35.676L51.5787 35.5668L51.4955 35.5803Z" fill="#313A43"/>
<path d="M58.6498 21.6209L58.5909 21.6569C58.6116 21.6467 58.6314 21.6347 58.6498 21.6209Z" fill="#313A43"/>
<path d="M58.842 21.6429L58.9331 21.5809C58.8998 21.597 58.8691 21.6178 58.842 21.6429Z" fill="#313A43"/>
<path d="M56.2834 29.249C56.4522 29.235 56.6893 29.2456 56.5512 29.17L56.4063 29.1124C56.3991 29.1437 56.3841 29.1727 56.3626 29.1966C56.3411 29.2205 56.3138 29.2385 56.2834 29.249Z" fill="#313A43"/>
<path d="M58.5137 24.1632L58.4586 24.1648L58.5444 24.3037L58.5137 24.1632Z" fill="#313A43"/>
<path d="M58.0155 23.7703L58.1729 23.703C58.1171 23.7165 58.0639 23.7392 58.0155 23.7703Z" fill="#313A43"/>
<path d="M56.4039 21.6272L56.3028 21.7733C56.4407 21.7834 56.387 21.7008 56.4039 21.6272Z" fill="#313A43"/>
<path d="M53.4906 32.9995C53.5721 32.9716 53.6464 32.9259 53.7081 32.8658C53.5687 32.903 53.4127 32.8945 53.4906 32.9995Z" fill="#313A43"/>
<path d="M60.3438 20.1247C60.2745 20.1323 60.2089 20.1601 60.1551 20.2045C60.2624 20.1849 60.3225 20.1555 60.3438 20.1247Z" fill="#313A43"/>
<path d="M53.8692 32.6533C53.8496 32.6573 53.8304 32.6631 53.8119 32.6705C53.7929 32.7478 53.7544 32.819 53.7001 32.8773C53.8173 32.8476 53.8974 32.7893 53.8692 32.6533Z" fill="#313A43"/>
<path d="M45.9369 20.7692C45.9281 20.7643 45.9197 20.7585 45.912 20.752C45.9117 20.7688 45.9207 20.7722 45.9369 20.7692Z" fill="#313A43"/>
<path d="M42.9923 19.0254C43.0344 19.0198 43.077 19.0188 43.1194 19.0224C43.0969 19.0097 43.058 19.0083 42.9923 19.0254Z" fill="#313A43"/>
<path d="M52.3298 34.6655C52.2899 34.7232 52.3353 34.6864 52.3298 34.6655V34.6655Z" fill="#313A43"/>
<path d="M51.6486 34.5497C51.6447 34.523 51.6313 34.4986 51.6109 34.481C51.6298 34.4997 51.6429 34.5236 51.6486 34.5497Z" fill="#313A43"/>
<path d="M53.5305 31.5355C53.5 31.5281 53.505 31.5288 53.5305 31.5355V31.5355Z" fill="#313A43"/>
<path d="M52.2092 34.7044C52.2416 34.6949 52.2724 34.6808 52.3007 34.6625C52.2684 34.6722 52.2376 34.6863 52.2092 34.7044Z" fill="#313A43"/>
<path d="M52.2741 34.7379L52.2242 34.7773C52.2381 34.7982 52.2555 34.8018 52.2741 34.7379Z" fill="#313A43"/>
<path d="M52.3843 34.5869C52.361 34.6167 52.3327 34.6423 52.3007 34.6626C52.3007 34.6626 52.3273 34.6611 52.3298 34.6657L52.3843 34.5869Z" fill="#313A43"/>
<path d="M51.5775 20.7553L51.5622 20.7446C51.4913 20.7979 51.5218 20.7906 51.5775 20.7553Z" fill="#313A43"/>
<path d="M56.0323 26.6091C56.1308 26.7994 56.0789 26.8374 56.0051 26.8744L56.4012 27.0575L56.0323 26.6091Z" fill="#313A43"/>
<path d="M58.034 21.624L58.1968 21.7706C57.9715 21.9813 57.8279 21.8933 57.9735 22.0935C57.9769 22.0526 57.9909 22.0133 58.0142 21.9796C58.0376 21.9459 58.0694 21.9189 58.1064 21.9013C58.1421 21.8858 58.1802 21.8766 58.219 21.8741L58.2471 21.8622C58.2809 21.8544 58.3161 21.8446 58.4199 21.6124C58.4219 21.6457 58.4207 21.6791 58.4162 21.7122C58.4162 21.7122 58.399 21.7371 58.3855 21.7278C58.3641 21.8409 58.4096 21.7587 58.4917 21.6564C58.5739 21.5541 58.6854 21.438 58.7359 21.4759C58.7865 21.5137 58.7231 21.5806 58.6484 21.6312C58.7092 21.5966 58.7785 21.5621 58.853 21.5284C58.8722 21.5417 58.7783 21.6159 58.7629 21.6053L58.9481 21.5799L58.9361 21.5972C59.0748 21.5192 59.218 21.4493 59.3649 21.3881C59.3197 21.4534 59.2688 21.4325 59.1998 21.487C59.2846 21.4548 59.3779 21.4226 59.473 21.3919C59.3452 21.4907 59.1956 21.5577 59.0367 21.5873C58.7407 21.8059 58.7794 21.7786 58.8865 21.7306C58.9368 21.7068 58.9887 21.6867 59.0418 21.6703C59.0945 21.6557 59.0425 21.7021 58.9161 21.7823C58.8889 21.7808 58.8616 21.784 58.8355 21.7919C58.6505 21.9044 58.4585 22.005 58.2607 22.0932C58.4029 22.0366 58.542 21.9726 58.6775 21.9014C58.8191 21.8179 58.9683 21.748 59.1231 21.6925C59.0535 21.7438 59.0167 21.7723 59.1369 21.7588C58.879 21.8646 58.9282 21.8674 58.9153 21.9067L58.6032 22.0006C58.6771 22.0005 58.8327 21.9604 58.9513 21.9572C58.888 22.0242 58.665 22.0632 58.4817 22.0899C58.4497 22.1075 58.5354 22.0986 58.6381 22.0815C58.7408 22.0645 58.8586 22.038 58.8512 22.0897C58.7092 22.1676 58.7982 22.1951 58.8609 22.355C58.7528 22.3881 58.7375 22.2952 58.663 22.292C58.712 22.3287 58.7581 22.3692 58.801 22.4129C58.7903 22.4283 58.7423 22.3951 58.7179 22.381C58.7515 22.4639 58.927 22.4689 58.8922 22.6465C59.0806 22.8137 58.3987 22.7768 58.5292 23.1057C58.4479 23.1205 58.4251 23.0138 58.337 22.9728C58.321 23.1816 58.3455 23.3916 58.4094 23.5911L58.1763 23.6941C58.4 23.6499 58.468 23.9214 58.5171 24.1542C58.5936 24.1539 58.67 24.1479 58.7456 24.1361L58.7048 24.4375C58.656 24.4463 58.604 24.3819 58.5478 24.2948L58.5693 24.3664C58.4474 24.4071 58.3631 24.2949 58.2906 24.1737C58.3451 24.1688 58.4035 24.1666 58.4594 24.1597C58.3904 24.0301 58.2888 23.9207 58.1647 23.8423C58.1756 23.8774 58.1772 23.9147 58.1693 23.9506C58.1542 23.922 58.13 23.8992 58.1004 23.8859C58.0812 23.8726 58.1035 23.9307 58.1277 23.9985L57.8916 23.929L57.9743 23.9862L57.6371 24.2189C57.7195 24.56 57.9104 24.9534 57.7804 25.355C57.6798 25.1718 57.5344 25.1849 57.3557 25.0613C57.617 25.0943 57.4402 24.7419 57.5919 24.5883C57.58 24.6013 57.5649 24.6109 57.548 24.6161C57.5312 24.6214 57.5133 24.6222 57.4961 24.6183C57.4789 24.6145 57.463 24.6062 57.45 24.5943C57.437 24.5823 57.4274 24.5672 57.4221 24.5504L57.4056 24.985C57.2576 24.8827 57.2501 24.9798 57.1359 25.0258C57.4709 25.1495 57.1868 25.3877 57.194 25.5745C57.088 25.5182 57.0111 25.4281 57.1303 25.2804C56.7985 25.3123 57.3327 25.7272 57.0316 25.7804C57.0582 25.742 57.0831 25.7307 57.0424 25.6827C57.0723 25.8284 56.8606 26.0031 56.8074 25.8952L56.8339 25.8568C56.6329 26.0899 56.3301 26.6305 56.5515 26.832C56.4404 26.7448 56.3342 26.6515 56.2335 26.5524L56.7679 27.5584C56.5818 27.3757 55.9718 27.1896 55.993 26.9002C55.9419 26.923 55.8988 26.9606 55.8694 27.0082C55.8401 27.0558 55.8257 27.1112 55.8283 27.167C55.885 27.1466 56.2018 27.2719 56.1857 27.3404C55.8455 27.3352 55.9864 27.3616 55.6588 27.4163C55.7455 27.3854 56.0335 27.6755 55.9561 27.7668C55.9174 27.7202 55.6234 27.5537 55.6127 27.4952L55.7759 27.9576C55.7575 27.8568 55.5011 27.7675 55.377 27.7498C55.4577 27.7687 55.2347 27.9555 55.2178 28.0375L55.3632 27.9875C55.1271 28.222 55.6352 28.5677 55.4318 28.8248C55.3872 28.7456 55.0764 28.4596 54.9417 28.5682C55.0644 28.744 55.5471 29.4017 55.5026 29.7289L55.3759 29.7066L55.3487 29.9719C55.1276 29.5598 54.9449 29.1281 54.803 28.6825C54.6556 28.7311 54.6716 28.6342 54.5736 28.7881C54.4494 28.7788 54.4982 28.6137 54.523 28.5655L54.2196 28.8728C54.4211 28.9922 54.2257 29.2748 54.3919 29.3755L54.4655 28.8582C54.667 28.9776 54.8545 29.4624 54.6432 29.6857C54.5238 29.694 54.3364 29.394 54.2671 29.3545C54.3118 29.4337 54.2272 29.6792 54.1645 29.6671L54.1368 29.469C53.9662 29.5555 54.2297 29.877 53.9297 29.9081C53.8764 29.9565 53.5617 29.898 53.6677 29.9912C54.0781 30.1494 54.4493 30.3946 54.756 30.7098C54.5685 30.7789 54.3727 30.823 54.1737 30.8411C53.9344 30.8092 53.8707 30.4043 53.6676 30.3775C53.7108 30.4268 53.7389 30.4876 53.7482 30.5526C53.659 30.5789 53.6048 30.4108 53.5336 30.5547C53.7059 30.7165 53.3239 30.8046 53.6524 30.7363C53.6139 30.9029 53.5119 30.8409 53.4107 30.9953C53.5701 31.0402 53.7356 31.4416 53.6958 31.6101C53.6475 31.5719 53.5896 31.5476 53.5285 31.5399C53.3156 31.7819 53.1238 31.8538 52.9422 32.0918C52.8776 32.0784 52.7363 32.1512 52.6942 32.0396C52.7003 32.1006 52.7417 32.1804 52.6904 32.2586C52.4179 32.2747 52.7895 32.0743 52.5096 32.0313C52.6123 32.1251 52.5186 32.3387 52.5049 32.494C52.6996 32.5945 52.7225 32.278 52.7343 32.1213C52.8555 32.2299 52.9437 32.3703 52.9888 32.5266C53.0339 32.683 53.0342 32.8488 52.9895 33.0052C52.8926 33.248 52.7722 32.9743 52.7764 33.034C52.4452 33.3732 52.9373 33.6681 52.526 33.8438C52.2835 33.8494 52.2291 33.6158 52.1051 33.5528C52.1753 33.3485 52.3913 33.3813 52.4716 33.2693L52.2959 33.3467C52.2872 33.2968 52.295 33.2455 52.3179 33.2004C52.3409 33.1553 52.3779 33.1189 52.4233 33.0967C52.2076 33.0924 51.9107 33.7024 51.5589 33.8824C51.5651 33.972 51.548 34.0994 51.64 34.1061L51.6911 33.9994C51.8768 34.0142 51.7177 34.3019 51.866 34.2312C51.8531 34.4183 51.8736 34.6598 51.6694 34.7742L51.4774 34.6699C51.4969 34.6766 51.5178 34.6787 51.5383 34.676C51.5588 34.6732 51.5783 34.6658 51.5954 34.6542C51.6126 34.6426 51.6267 34.6272 51.6369 34.6092C51.647 34.5911 51.6528 34.571 51.6538 34.5504C51.671 34.6816 51.2189 34.6246 51.3746 34.8801L51.5851 34.8551C51.5628 35.0557 51.6472 35.3157 51.4901 35.4032C51.7021 35.4787 51.4954 35.3585 51.7594 35.4246C51.6094 35.3663 51.6788 35.2865 51.741 35.213C51.8032 35.1395 51.878 35.0436 51.6918 35.017C52.0037 35.0878 51.9401 34.9046 52.2477 34.9157C52.1882 34.8745 52.1005 34.8821 52.2294 34.778C52.2185 34.7558 52.2098 34.7326 52.2033 34.7088C52.1585 34.7191 52.1118 34.7172 52.0679 34.7033C51.991 34.5393 52.1584 34.3425 52.1468 34.2237C52.2326 34.1694 52.1849 34.3041 52.2755 34.3127L52.2579 34.1329C52.3886 34.2233 52.6214 34.1002 52.55 34.3349L52.6829 34.1797C52.7511 34.1667 52.8142 34.1345 52.8647 34.0869C52.9152 34.0393 52.9511 33.9783 52.9682 33.911C53.054 33.8567 52.9824 33.6112 53.0266 33.7526L53.1479 33.4416L53.1806 33.4642C53.3927 33.2273 53.3742 32.794 53.8182 32.6778C53.8436 32.5441 53.9157 32.4238 54.0217 32.3384L54.1505 32.3905C54.1962 32.2545 54.5092 32.1471 54.4297 32.0155C54.8124 32.1153 54.8885 31.5287 55.0837 31.3739L54.9456 31.2614C55.0524 31.1134 55.128 30.9454 55.1679 30.7674L55.0392 30.6783C55.0364 30.4605 55.3937 30.3752 55.5436 30.1379C55.5797 30.1885 55.5263 30.2368 55.4638 30.2532C55.9472 30.1869 55.6704 29.5438 56.0367 29.4249C56.0317 29.3915 56.0396 29.3573 56.0589 29.3295C56.0781 29.3016 56.1073 29.2822 56.1404 29.275C56.1404 29.275 56.1337 29.2846 56.1297 29.2904C56.137 29.2822 56.1432 29.2732 56.1484 29.2635C56.1881 29.2512 56.2349 29.241 56.2741 29.2255C56.2337 29.2273 56.1938 29.2351 56.1557 29.2487C56.197 29.1788 56.2251 29.102 56.2387 29.022L56.397 29.0889C56.397 29.0889 56.405 29.0773 56.409 29.0716C56.5087 29.0383 56.3822 28.9706 56.2512 28.934C56.2537 28.883 56.2478 28.8319 56.2337 28.7827C56.4952 28.8812 56.2917 28.5387 56.5791 28.6324C56.4971 28.5046 56.736 28.2125 56.5087 28.0154C56.5413 28.038 56.5721 28.0224 56.5493 28.0635C56.6307 28.0033 56.7102 27.9418 56.6902 27.8228L56.889 27.9092L56.769 27.5733C56.9478 27.5407 57.0399 27.539 57.1059 27.7353C57.0659 27.3411 57.166 27.4757 57.1014 27.1214L57.2148 27.1998C57.268 27.1229 57.1844 26.8946 57.3131 26.9098C57.6449 26.8779 57.9089 26.0689 58.4011 25.7474C58.0015 25.6187 58.6882 25.6363 58.4309 25.4498C58.5309 25.4735 58.6171 25.4393 58.6403 25.5577C58.7048 25.2755 58.9897 25.2908 58.8626 24.9898C58.9627 25.0135 58.9525 25.1145 59.0159 25.1214C59.0087 25.0908 58.9907 25.0017 59.0542 25.0086C59.1176 25.0155 59.1034 25.0853 59.1141 25.1438C59.2492 24.8992 59.0079 24.7181 58.7813 24.5528C58.9669 24.5022 58.9875 24.4313 58.8824 24.2506C58.9873 24.255 59.1114 24.2357 59.049 24.3999C59.1048 24.3192 59.4726 23.9599 59.2855 23.8361C59.3515 23.8392 59.3626 23.7247 59.3618 23.6929C59.4568 23.5756 59.5377 23.4475 59.603 23.3114L59.5402 23.3446C59.3506 23.134 59.5803 23.1593 59.6375 22.9944L59.6606 23.0103C59.733 22.9629 59.796 22.9024 59.8464 22.832C59.8681 22.8027 59.8821 22.7684 59.887 22.7322C59.8951 22.6753 59.9029 22.6353 60.1462 22.4314L59.9584 22.4236C59.7804 22.3687 59.8808 22.3017 60.0375 22.1942C60.1943 22.0867 60.4123 21.9193 60.4007 21.8005L60.2311 21.902C60.1925 21.8468 60.3986 21.7337 60.6395 21.5991C60.862 21.4828 61.07 21.3406 61.2592 21.1754C61.3236 21.1234 61.2948 21.2143 61.2953 21.2629C61.8591 20.6982 61.0278 21.2881 61.1326 20.9969C61.3482 20.8619 61.5261 20.9168 61.6931 20.663C61.801 20.5728 61.7557 20.4534 61.7364 20.3293C61.7305 20.2965 61.7278 20.2632 61.7284 20.23C61.7484 20.2011 61.6813 20.2201 61.6527 20.2202L61.5496 20.2256C61.4258 20.228 61.3451 20.2092 61.3396 20.1514C61.2811 20.2359 61.2173 20.3282 60.9572 20.3756C60.8139 20.3816 60.7707 20.292 60.6635 20.2293C60.5811 20.1902 60.4898 20.1735 60.3988 20.1809C60.3079 20.1884 60.2205 20.2197 60.1455 20.2716C60.1425 20.2591 60.143 20.2459 60.147 20.2337C60.151 20.2214 60.1583 20.2104 60.1681 20.202C59.9008 20.2558 59.4391 20.2661 59.2447 20.4157C59.339 20.1315 58.9707 20.1751 58.6923 20.2326C58.5753 20.2639 58.4548 20.2807 58.3337 20.2828C58.2665 20.2733 58.2357 20.2151 58.2384 20.0919L57.8307 20.0941L57.8446 20.0411C57.7582 20.0181 57.6667 20.0243 57.5842 20.0587C57.5018 20.0932 57.4331 20.154 57.3889 20.2317C57.3312 20.1918 57.3781 20.1447 57.3863 20.1163C57.0159 19.9823 56.9779 20.0043 56.6426 20.2468L56.6223 20.0708C56.5305 20.1665 56.0973 19.7618 55.7132 19.9393C55.7204 19.9095 55.7384 19.8835 55.7637 19.8663C55.3336 20.0404 54.8015 19.3144 54.6042 19.9366L54.3199 20.0724C54.6726 20.1458 54.2466 20.3427 54.3866 20.4566C54.2442 20.4859 54.0383 20.2413 54.213 20.2229L54.2371 20.2537C54.3243 19.9305 53.804 20.1076 53.8305 19.8845C53.1311 19.8524 52.4628 19.6232 51.8086 19.5628L51.8663 19.8243L51.6387 19.7919C51.5834 19.7281 51.5729 19.5873 51.7345 19.6082C51.66 19.4572 51.4528 19.7116 51.446 19.7666C51.1325 19.6407 51.5897 19.4767 51.4933 19.4641L51.359 19.4735L51.3869 19.507C51.2718 19.6035 51.2473 19.7088 51.0604 19.6874C50.9402 19.627 51.0087 19.5239 50.9597 19.5127C50.969 19.4992 50.9459 19.4833 50.8847 19.4978L50.5983 19.4559L50.7004 19.6657C50.5659 19.7574 50.4338 19.6404 50.5528 19.8791C50.3835 19.5119 49.49 19.6781 49.378 19.5608C49.2925 19.6155 49.1964 19.6515 49.0961 19.6663C48.9957 19.6811 48.8933 19.6745 48.7957 19.6468C48.8515 19.6854 48.8643 19.9215 48.677 19.8801C48.7789 19.4164 48.3484 19.6528 48.2214 19.3065C48.3432 19.5412 47.6806 19.3244 47.8739 19.657C47.7172 19.6083 47.8756 19.482 47.7648 19.3628C47.3746 19.5163 46.9485 19.1875 46.482 19.2171C46.4693 19.2765 46.5415 19.3776 46.4317 19.4665L46.2097 19.1425C46.1166 19.1662 46.1001 19.49 45.9483 19.2657C45.9682 19.3192 45.9979 19.3994 45.9354 19.4159C45.0511 19.0514 44.062 19.5407 43.1901 18.9036C43.3059 19.032 43.2215 19.0389 43.1269 19.036C43.1826 19.0746 43.1126 19.1881 43.1196 19.2725L42.7487 19.016C42.6638 19.2414 42.3314 19.0114 42.2792 19.2225L42.4028 19.1915C42.2287 19.4433 42.5904 19.7872 42.5438 20.1215C42.7419 19.8351 42.9908 20.5926 43.3185 20.1885C43.3789 20.2615 43.2494 20.2884 43.2849 20.3727C43.3766 20.2401 43.464 20.2124 43.6273 20.2884L43.6047 20.3211C44.0812 20.3182 44.2742 20.4745 44.8022 20.6066L44.765 20.4303C44.8421 20.452 44.9097 20.4988 44.9572 20.5633C45.1065 20.3227 44.6363 20.526 44.7757 20.2588C44.9046 20.6064 45.5849 20.3212 45.6592 20.7107C45.8346 20.7241 45.6217 20.5143 45.7921 20.5185L45.8318 20.6255L45.8846 20.4916C45.9346 20.5111 45.9771 20.5459 46.0061 20.5909C46.0351 20.636 46.0492 20.6891 46.0463 20.7426C46.0232 20.7267 45.9643 20.7626 45.935 20.7679C46.0767 20.9 46.3611 20.7558 46.409 20.7974L46.2443 20.7233C46.7315 20.6597 47.3041 20.8341 47.7907 20.6564L47.7609 20.5761C48.1272 20.4573 48.0391 20.6833 48.4332 20.6434L48.4199 20.6626C48.4603 20.6294 48.5072 20.6049 48.5575 20.5908C48.6079 20.5767 48.6606 20.5733 48.7124 20.5807C48.6072 20.6671 48.8854 20.7742 48.749 20.8646C49.144 20.7372 48.9479 20.7578 49.2222 20.4844L49.2718 20.6181C49.3657 20.507 49.3874 20.4509 49.5758 20.425C49.4075 20.5245 49.6857 20.6317 49.4968 20.7652C49.8848 21.0791 50.1225 20.5218 50.2811 20.9497C50.4938 20.6053 49.9467 20.7185 50.0515 20.6574C49.9732 20.5322 50.2283 20.4018 50.3501 20.4434C50.4718 20.485 50.5409 20.9192 50.8641 20.9325C50.8331 20.928 50.8281 20.9558 50.797 20.9514C50.9127 21.0513 51.0472 20.8403 51.1844 21.0034C51.2866 20.7899 51.3804 21.0281 51.4246 20.7547L51.1141 20.7928C51.2895 20.7323 51.4711 20.4204 51.7417 20.5961C51.6955 20.6627 51.635 20.7179 51.5645 20.7577C51.6408 20.8446 51.728 20.7145 51.8125 20.8099C51.7703 21.0847 51.4471 20.8413 51.2453 21.0427C51.3268 21.1672 51.6061 20.8661 51.4935 21.1603C51.6522 20.7871 51.8138 21.2313 52.0557 20.9554L52.0302 21.1196C52.0663 21.0962 52.1453 21.023 52.2106 21.0313L52.0711 21.2331C52.2652 21.0633 52.4075 21.4203 52.5764 21.324C52.215 21.3042 52.5105 21.1194 52.3656 20.9879C52.8278 20.7962 52.5959 21.4313 53.0963 21.3938C53.026 21.4134 52.8501 21.2775 52.9601 21.2087C53.0666 21.2491 53.159 21.3199 53.2256 21.4122C53.5577 21.4004 53.1871 21.2379 53.3352 21.1471C53.4321 21.3561 53.5017 21.0747 53.653 21.0203L53.6417 21.1886C54.0108 21.3245 53.7655 20.8452 54.096 21L53.9405 21.2248L54.1215 21.1767L54.0723 21.3671C54.2722 21.2382 54.3317 21.2795 54.5153 21.3468C54.505 21.313 54.5024 21.2773 54.5078 21.2425C54.5132 21.2076 54.5264 21.1744 54.5465 21.1453C54.5666 21.1163 54.593 21.0922 54.6238 21.0748C54.6545 21.0574 54.6888 21.0473 54.724 21.045C54.831 21.1532 54.65 21.2013 54.8887 21.193C54.8209 21.291 54.7596 21.4248 54.6678 21.2619C54.6539 21.3148 54.6013 21.3579 54.5919 21.4168C54.7084 21.54 54.8996 21.4648 54.9844 21.4695C54.9503 21.4638 54.9187 21.4479 54.8938 21.4239L55.2533 21.2122C55.3027 21.2805 55.2578 21.329 55.2109 21.3761C55.2805 21.3618 55.3343 21.2881 55.4388 21.2809C55.4028 21.4151 55.3984 21.5569 55.249 21.6127L55.5864 21.4824C55.6041 21.5429 55.7467 21.6614 55.696 21.7059C55.8726 21.7997 56.1655 21.4624 56.3927 21.594C56.4032 21.5773 56.4169 21.5629 56.433 21.5516C56.4491 21.5403 56.4673 21.5323 56.4865 21.5282C56.71 21.5748 56.8962 21.7575 57.1778 21.5886L57.3134 21.8444C57.526 21.8039 57.1284 21.5204 57.4854 21.4519C57.7379 21.3908 57.5601 21.6684 57.6425 21.7424C57.776 21.6273 58.005 21.3908 58.2191 21.607C58.1555 21.6455 58.1036 21.6096 58.034 21.624ZM59.1311 21.6809C59.0882 21.6854 58.9264 21.7468 59.0945 21.6557C59.3934 21.4987 59.2321 21.6088 59.1272 21.6783L59.1311 21.6809ZM58.0437 24.3212C58.0156 24.2591 58.07 24.2257 58.1566 24.2032C58.1486 24.2308 58.1337 24.2558 58.1132 24.276C58.0928 24.2962 58.0676 24.3108 58.0399 24.3185L58.0437 24.3212ZM52.7057 33.9824C52.8155 33.9305 52.7731 33.9466 52.6966 33.9874L52.7057 33.9824ZM52.5017 34.1254C52.5022 34.1385 52.5074 34.1511 52.5162 34.1608C52.525 34.1706 52.537 34.1769 52.5501 34.1787C52.5261 34.1394 52.5567 34.0952 52.6034 34.0565C52.5451 34.0503 52.5076 34.0471 52.4952 34.1266L52.5017 34.1254ZM50.9223 19.5749L50.9643 19.621C50.8619 19.6581 50.8944 19.6152 50.9223 19.5749Z" fill="#313A43"/>
<path d="M58.0731 23.8188C58.1047 23.8234 58.1354 23.8331 58.164 23.8476C58.1604 23.8393 58.155 23.8318 58.1483 23.8258C58.1416 23.8197 58.1337 23.8151 58.1251 23.8124C58.1165 23.8097 58.1073 23.8088 58.0984 23.8099C58.0894 23.811 58.0808 23.8141 58.0731 23.8188Z" fill="#313A43"/>
<path d="M56.4205 21.5989C56.4129 21.6058 56.407 21.6143 56.4032 21.6239L56.4205 21.5989Z" fill="#313A43"/>
<path d="M53.5448 30.3948C53.5833 30.3747 53.6272 30.3673 53.6703 30.3736C53.6383 30.3459 53.5975 30.3432 53.5448 30.3948Z" fill="#313A43"/>
<path d="M51.9351 35.2732L51.9959 35.1278C51.9547 35.1874 51.9126 35.1867 51.8676 35.1982C51.8945 35.2168 51.963 35.2329 51.9351 35.2732Z" fill="#313A43"/>
<path d="M50.419 35.4606C50.4238 35.4866 50.3978 35.4914 50.4012 35.5193L50.4646 35.5632C50.5104 35.5011 50.4969 35.4179 50.419 35.4606Z" fill="#313A43"/>
<path d="M51.4209 35.0143C51.3037 34.9332 51.2918 35.0244 51.2553 35.11C51.2575 35.1049 51.2606 35.1003 51.2646 35.0965C51.3995 35.2466 51.4118 35.1301 51.4209 35.0143Z" fill="#313A43"/>
<path d="M51.24 35.1365C51.2305 35.1625 51.2145 35.1857 51.1934 35.2037C51.251 35.252 51.2308 35.1784 51.24 35.1365Z" fill="#313A43"/>
<path d="M52.3801 34.4162C52.3208 34.432 52.5028 34.555 52.4395 34.5397C52.5413 34.6924 52.48 34.1443 52.3801 34.4162Z" fill="#313A43"/>
<path d="M51.0142 34.7726L51.1695 34.8602L51.0907 34.7318L51.0142 34.7726Z" fill="#313A43"/>
<path d="M51.6177 34.2328L51.4747 34.3328C51.4997 34.35 51.4993 34.3753 51.4929 34.405C51.563 34.3284 51.66 34.262 51.6177 34.2328Z" fill="#313A43"/>
<path d="M51.4929 34.4051C51.4571 34.4361 51.4349 34.48 51.4312 34.5272C51.4589 34.4905 51.4798 34.4492 51.4929 34.4051Z" fill="#313A43"/>
<path d="M51.1003 34.5823L51.1615 34.5678L51.2453 34.4836L51.1003 34.5823Z" fill="#313A43"/>
<path d="M52.7594 32.849L52.8318 32.6746C52.7957 32.624 52.7364 32.6399 52.7139 32.7095C52.6913 32.7791 52.691 32.8329 52.7594 32.849Z" fill="#313A43"/>
<path d="M52.0403 32.985C52.0995 32.9692 52.1322 32.9918 52.1968 33.0052L52.0287 32.8662L52.0403 32.985Z" fill="#313A43"/>
<path d="M52.3266 32.5383C52.2905 32.4877 52.352 32.2263 52.2217 32.4146C52.2578 32.4651 52.1855 32.6396 52.3266 32.5383Z" fill="#313A43"/>
<path d="M54.1927 30.522L54.1681 30.5617L54.4589 30.7657L54.1927 30.522Z" fill="#313A43"/>
<path d="M54.8879 28.0708C54.6959 28.1965 55.0393 28.2381 54.8473 28.3268C54.8872 28.417 55.0074 28.2472 55.0397 28.3321C55.0344 28.1835 55.1133 28.1557 54.8879 28.0708Z" fill="#313A43"/>
<path d="M55.0344 28.3396C55.0338 28.3679 55.0362 28.3962 55.0414 28.424C55.0438 28.3957 55.0415 28.3671 55.0344 28.3396Z" fill="#313A43"/>
<path d="M42.499 18.7978L42.3663 18.7145L42.4464 18.841L42.499 18.7978Z" fill="#313A43"/>
<path d="M42.2148 19.0444L42.2095 18.822L42.1115 19.0213C42.1338 19.0055 42.195 18.9909 42.2148 19.0444Z" fill="#313A43"/>
<path d="M58.3872 22.0501L58.4647 22.0242C58.5515 21.9933 58.562 21.9863 58.5823 21.9692C58.5157 21.9998 58.4575 22.0306 58.3872 22.0501Z" fill="#313A43"/>
<path d="M57.5216 22.028C57.5848 22.0433 57.6646 22.0019 57.7273 22.014C57.5925 22.0487 57.522 21.7726 57.5216 22.028Z" fill="#313A43"/>
</svg>
