<svg width="59" height="9" viewBox="0 0 59 9" fill="none" xmlns="http://www.w3.org/2000/svg">
<path fill-rule="evenodd" clip-rule="evenodd" d="M58.7306 5.40625C58.3472 5.45405 57.8935 5.51191 57.4384 5.56223C57.2354 5.58487 57.0285 5.63267 56.8308 5.58235C56.3293 5.45405 55.8345 5.18235 55.3303 5.56474C55.2706 5.61002 55.1857 5.52197 55.1114 5.49933C54.9363 5.44399 54.7625 5.35594 54.5861 5.34336C54.131 5.31317 53.6759 5.33329 53.2209 5.29807C52.8733 5.27292 52.535 5.12449 52.1794 5.32826C52.0017 5.42889 51.7828 5.27543 51.5824 5.22512C51.4829 5.19996 51.3649 5.0616 51.2892 5.12449C50.8793 5.46411 50.4839 5.11443 50.0926 5.03141C49.6534 4.94084 49.2342 4.88046 48.8322 5.30814C48.2843 4.74462 47.7138 4.63895 47.1168 4.7421C46.6631 4.82009 46.2054 4.78235 45.7556 4.57355C45.6349 4.5182 45.4983 4.46789 45.3802 4.51568C44.9052 4.70688 44.4329 4.59116 43.9567 4.54587C43.4087 4.49556 42.8648 4.45279 42.3169 4.32701C41.29 4.09053 40.2552 4.01002 39.2164 4.22134C38.6937 4.32701 38.159 4.53581 37.6337 4.19367C37.0101 4.44273 36.3879 4.24902 35.7644 4.19367C35.3093 4.15342 34.8476 4.31191 34.3966 4.22889C33.7399 4.10814 33.0712 4.40499 32.4238 3.98738C32.3415 3.93455 32.2288 4.05028 32.1293 4.08046C31.9807 4.12826 31.8162 4.26663 31.6848 4.19619C31.0003 3.82134 30.3157 4.15594 29.6351 4.18361C29.0593 4.20625 28.4809 4.2138 27.9011 4.37732C27.2683 4.55342 26.6116 4.17858 25.9668 4.44021C25.8978 4.46789 25.8156 4.42512 25.7439 4.38487C25.2955 4.12072 24.8365 4.15594 24.3788 4.21631C23.9224 4.27417 23.462 4.49556 23.0149 4.41757C22.4073 4.31191 21.809 4.45531 21.208 4.42763C21.009 4.41757 20.8047 4.33958 20.6136 4.40499C19.9861 4.61883 19.3573 4.59367 18.7271 4.566C18.3981 4.5509 18.0691 4.60122 17.7387 4.5987C16.9586 4.58864 16.1958 4.94587 15.4011 4.84021C14.6276 4.73958 13.8422 4.98612 13.0622 5.07921C12.9096 5.09682 12.753 5.17229 12.6058 5.12952C11.9889 4.94587 11.3892 5.19745 10.7856 5.36097C10.6595 5.39367 10.5269 5.53455 10.4128 5.48927C9.79187 5.23267 9.20017 5.61254 8.59786 5.74336C8.436 5.77858 8.3365 5.8138 8.21445 5.54965C8.17597 5.46663 7.95972 5.67795 7.74082 5.80122C7.53916 5.48172 7.31761 5.21254 7.02043 5.64524C6.9342 5.77103 6.78295 5.74336 6.66223 5.77858C6.43934 5.84399 6.17533 5.78361 5.99888 5.99241C5.63405 6.4226 5.27849 6.31191 4.89906 6.20625C4.60056 6.12323 4.26491 5.94965 3.99957 6.1182C3.31367 6.5509 2.60788 6.58864 1.90473 6.71191C1.61419 6.76474 1.36212 6.92323 1.14322 7.26537C1.0729 7.37606 0.987996 7.57732 0.997282 7.7182C1.01718 8.02009 1.1671 8.00248 1.29711 7.99241C1.55184 7.9748 1.82248 8.07292 2.05598 7.93707C2.48317 7.69053 2.90638 7.71317 3.33888 7.72323C3.6135 7.72826 3.9067 7.79619 4.12295 7.32826C4.15081 7.26789 4.2198 7.23518 4.26623 7.24776C4.76507 7.38864 5.26257 7.37355 5.76273 7.24273C5.83039 7.22512 5.90469 7.35594 5.97898 7.37355C6.20585 7.42638 6.42475 7.47669 6.61712 7.10688C6.69274 6.96097 6.84398 6.91317 6.96338 6.89556C7.34414 6.84021 7.7249 6.82009 8.10566 6.78738C10.2894 6.59367 12.4731 6.39745 14.6582 6.21128C15.8004 6.11568 16.9427 6.01757 18.085 5.96223C19.7394 5.87921 21.3937 5.83392 23.0481 5.77606C24.7277 5.7182 26.4073 5.62512 28.0869 5.61757C30.7867 5.60499 33.4878 5.54462 36.1876 5.68298C37.5859 5.75342 38.9856 5.70311 40.3826 5.79619C42.7746 5.95719 45.1653 6.20373 47.5573 6.38235C49.1334 6.49807 50.7028 6.8704 52.2829 6.85028C52.8163 6.84273 53.3496 6.93078 53.8829 6.98864C54.4361 7.04902 54.9894 7.12449 55.5413 7.19493C56.3519 7.29556 57.1678 7.09179 57.9744 7.4616C58.1854 7.55971 58.4295 7.44147 58.655 7.37858C58.85 7.32323 58.9747 7.07921 58.9867 6.69179C58.9999 6.2616 59.0331 5.80877 58.7266 5.42386L58.7306 5.40625Z" fill="#452F53"/>
<path fill-rule="evenodd" clip-rule="evenodd" d="M5.20175 4.29934C5.95531 4.60878 6.71815 4.60626 7.48099 4.5484C8.36987 4.48299 9.25875 4.40249 10.1476 4.30689C10.7698 4.24148 11.4093 4.60878 12.0156 4.04777C12.078 3.98991 12.1668 4.03519 12.2425 4.02513C13.1048 3.91192 13.9672 3.7962 14.8295 3.68299C16.7585 3.43142 18.6862 3.14966 20.6165 2.94085C22.4725 2.73708 24.3299 2.59368 26.1886 2.45029C27.8934 2.31947 29.5982 2.17607 31.3043 2.13582C32.6283 2.10563 33.9523 2.23645 35.2777 2.28425C36.6535 2.33456 38.0292 2.34463 39.405 2.4201C41.6949 2.54588 43.9847 2.58362 46.2746 2.45783C46.5293 2.44274 46.7854 2.42513 47.0361 2.35972C47.1794 2.32199 47.3147 2.18614 47.4739 2.08048C47.4739 1.69054 47.4951 1.35595 47.4686 1.03394C47.4354 0.636451 47.2921 0.450288 47.0931 0.465382C47.0175 0.472929 46.9326 0.457835 46.8663 0.513181C46.317 0.966011 45.7174 0.757206 45.1496 0.976074C44.9957 1.03645 44.7316 0.948401 44.6613 0.747143C44.4292 0.0829919 44.0988 0.173558 43.7751 0.160979C43.1383 0.138338 42.4962 0.228904 41.8687 0.0804761C41.3897 -0.0327314 40.9148 0.0175831 40.4478 0.0477717C39.7354 0.0955705 39.0269 0.163495 38.3158 0.0377089C38.2163 0.0200988 38.1128 -0.0176371 38.0173 0.0125516C37.2903 0.241482 36.5632 0.402489 35.8243 0.233935C35.6531 0.196199 35.474 0.309407 35.2976 0.334564C34.8691 0.399973 34.4406 0.46035 34.012 0.508149C33.8608 0.525759 33.7016 0.440225 33.557 0.500602C32.7265 0.84274 31.8801 0.548401 31.0469 0.75469C30.9978 0.767269 30.9421 0.774816 30.8957 0.747143C30.4539 0.470413 29.9829 0.563495 29.5451 0.588652C29.1033 0.611294 28.6562 0.571042 28.2118 0.63142C27.4794 0.729533 26.7431 0.732049 26.0081 0.764753C25.5266 0.784879 25.0463 0.799973 24.5647 0.799973C24.3378 0.799973 24.111 0.747143 23.8828 0.744627C23.4768 0.73708 23.0603 0.64903 22.6649 0.779847C22.1103 0.963495 21.5664 0.953432 21.0145 0.862866C20.915 0.847772 20.7863 0.759721 20.7213 0.84274C20.391 1.26287 20.0553 1.12199 19.6984 1.03645C19.4278 0.971042 19.1412 1.0767 18.8653 1.15469C18.2179 1.33834 17.5757 1.60249 16.9124 1.48677C16.6444 1.44148 16.3685 1.30815 16.1098 1.62513C16.054 1.69305 15.9572 1.67293 15.8842 1.64777C15.3257 1.444 14.7831 1.61004 14.2259 1.74589C13.8292 1.84148 13.4259 2.07293 13.0318 2.02513C12.5967 1.97482 12.1841 2.12576 11.7649 2.22387C11.3841 2.31192 11.0113 2.37985 10.6279 2.30186C10.4554 2.26664 10.2684 2.30186 10.1025 2.39746C9.34101 2.8528 8.54234 2.76475 7.76623 3.02136C7.19443 3.21004 6.60538 3.18236 6.02429 3.27041C5.74702 3.31318 5.46841 3.36853 5.19777 3.48173C5.03857 3.54714 4.95233 3.80123 5.0054 4.17607C5.0651 4.21633 5.13144 4.2767 5.20042 4.30438L5.20175 4.29934Z" fill="#452F53"/>
</svg>
