<svg width="32" height="32" viewBox="0 0 32 32" fill="none" xmlns="http://www.w3.org/2000/svg">
<path d="M32 16C32 7.17733 24.8226 0 15.9999 0C7.17734 0 0 7.17733 0 16C0 24.8227 7.17734 32 15.9999 32C24.8226 32 32 24.8227 32 16Z" fill="#EB6E52"/>
<path fill-rule="evenodd" clip-rule="evenodd" d="M21.3538 10.2959C21.0257 9.96779 20.4923 9.96779 20.1642 10.2959L15.9997 14.4597L11.8369 10.2959C11.5071 9.96779 10.9754 9.96779 10.6472 10.2959C10.3175 10.6239 10.3175 11.1572 10.6472 11.4853L14.8101 15.6491L10.6472 19.8113C10.3175 20.1411 10.3175 20.6727 10.6472 21.0007C10.8105 21.1656 11.0258 21.248 11.2412 21.248C11.4566 21.248 11.672 21.1656 11.8369 21.0007L15.9997 16.8386L20.1642 21.0007C20.3291 21.1656 20.5445 21.248 20.7582 21.248C20.9736 21.248 21.1889 21.1656 21.3538 21.0007C21.6819 20.6727 21.6819 20.1411 21.3538 19.8113L17.1893 15.6491L21.3538 11.4853C21.6819 11.1572 21.6819 10.6239 21.3538 10.2959Z" fill="white"/>
</svg>
