<svg width="29" height="34" viewBox="0 0 29 34" fill="none" xmlns="http://www.w3.org/2000/svg">
<g clip-path="url(#clip0_175_5328)">
<path d="M19.9896 0.135234C22.5024 0.406002 25.1761 1.23256 27.7048 0.759426C28.2074 0.665371 29.5112 1.73419 28.7832 1.86958C26.7183 2.25578 24.553 1.78407 22.5082 1.4791C20.0341 1.11143 17.6619 0.917613 15.2137 1.53326C11.407 2.49235 8.66728 5.26844 7.32469 8.85826C5.98496 12.4353 6.07686 16.4868 6.5378 20.2177C6.93842 23.4641 8.11588 26.652 8.71323 29.8856C9.07221 28.261 9.36083 26.6207 9.64084 24.9818C10.063 22.5036 10.4464 20.0168 10.7925 17.5271C10.8772 16.9158 12.4122 17.6739 12.3389 18.2026C11.9168 21.2338 11.4444 24.2593 10.9059 27.2734C10.5885 29.0476 10.2597 30.8304 9.7672 32.5662C9.60206 33.1462 9.39529 33.692 9.03774 33.8915C8.82236 34.2521 7.51135 33.6136 7.52284 33.1063C7.52715 32.9453 4.58781 29.1901 3.29116 27.366C1.90693 25.4193 0.0890431 22.9297 0.00145018 20.4486C-0.0186513 19.8899 1.52784 20.5683 1.54795 21.1241C1.62836 23.427 3.36727 25.6986 4.63519 27.5128C5.5068 28.7583 6.43441 29.9839 7.43094 31.1482C7.19401 29.0177 6.5579 26.9314 6.01512 24.8635C5.52834 23.0081 5.18659 21.1113 4.95109 19.2102C4.48873 15.465 4.57345 11.5588 5.83563 7.96757C7.0734 4.44331 9.77438 1.8425 13.3269 0.656818C15.5109 -0.0728308 17.7222 -0.114159 19.9924 0.130958L19.9896 0.135234Z" fill="#231F20"/>
</g>
<defs>
<clipPath id="clip0_175_5328">
<rect width="34" height="29" fill="white" transform="matrix(4.37114e-08 -1 -1 -4.37114e-08 29 34)"/>
</clipPath>
</defs>
</svg>
