<svg width="251" height="100" viewBox="0 0 251 100" fill="none" xmlns="http://www.w3.org/2000/svg">
<path d="M7.34053 39.775C7.22386 39.5917 6.95719 39.475 6.54053 39.425C6.14053 39.375 5.64886 39.3667 5.06553 39.4C4.83219 39.4333 4.60719 39.4167 4.39053 39.35C4.17386 39.3 3.99886 39.2083 3.86553 39.075C3.74886 38.9583 3.70719 38.8333 3.74053 38.7C3.75719 38.5 3.92386 38.3417 4.24053 38.225C4.57386 38.1083 5.09886 38.0417 5.81553 38.025L7.14053 38L7.39053 37.5C7.45719 37.3167 7.54053 37.0583 7.64053 36.725C7.74053 36.3917 7.84886 36.0333 7.96553 35.65C8.03219 35.4167 8.13219 35.1 8.26553 34.7C8.39886 34.3 8.54053 33.875 8.69053 33.425C8.84053 32.975 8.97386 32.575 9.09053 32.225C9.20719 31.8583 9.28219 31.6 9.31553 31.45C9.38219 31.3 9.47386 31.05 9.59053 30.7C9.70719 30.3333 9.81553 29.9667 9.91553 29.6C10.0322 29.2167 10.1072 28.9417 10.1405 28.775C10.5739 27.4583 10.8572 26.525 10.9905 25.975C11.1239 25.4083 11.1572 25.1167 11.0905 25.1C11.0239 25.1 10.8572 25.1083 10.5905 25.125C10.3405 25.1417 10.0572 25.1667 9.74053 25.2C9.44053 25.2167 9.16553 25.2417 8.91553 25.275C8.68219 25.3083 8.54053 25.3417 8.49053 25.375C8.40719 25.4917 8.26553 25.5167 8.06553 25.45C7.86553 25.3833 7.74053 25.2667 7.69053 25.1C7.67386 24.95 7.66553 24.8333 7.66553 24.75C7.68219 24.6667 7.73219 24.6 7.81553 24.55C7.93219 24.45 8.15719 24.3417 8.49053 24.225C8.82386 24.0917 9.19886 23.975 9.61553 23.875C10.0489 23.775 10.4572 23.7 10.8405 23.65C11.1239 23.6167 11.4072 23.5583 11.6905 23.475C11.9739 23.375 12.1989 23.2583 12.3655 23.125C12.5155 23.075 12.6572 23.0333 12.7905 23C12.9405 22.9667 13.0905 22.9583 13.2405 22.975C13.3739 23.0583 13.5989 23.1 13.9155 23.1C14.2489 23.1 14.5989 23.0917 14.9655 23.075C15.8989 22.9917 16.5239 22.9667 16.8405 23C17.1739 23.0333 17.3989 23.1667 17.5155 23.4C17.5989 23.7167 17.6155 23.9667 17.5655 24.15C17.5155 24.3167 17.3489 24.3917 17.0655 24.375C16.9155 24.4083 16.6405 24.4417 16.2405 24.475C15.8572 24.4917 15.4489 24.5083 15.0155 24.525C13.8322 24.625 13.1989 24.7417 13.1155 24.875C13.0489 24.9417 12.9905 25.0083 12.9405 25.075C12.9072 25.1417 12.8572 25.2167 12.7905 25.3C12.8072 25.3667 12.7655 25.5833 12.6655 25.95C12.5822 26.3 12.4739 26.6583 12.3405 27.025C12.2739 27.2417 12.1739 27.55 12.0405 27.95C11.9072 28.35 11.7655 28.7667 11.6155 29.2C11.4822 29.6167 11.3572 30 11.2405 30.35C11.1239 30.6833 11.0405 30.9083 10.9905 31.025C10.9239 31.175 10.8655 31.3417 10.8155 31.525C10.7822 31.6917 10.7572 31.8167 10.7405 31.9C10.5072 32.7167 10.2989 33.4083 10.1155 33.975C9.94886 34.5417 9.79053 35.0417 9.64053 35.475C9.50719 35.8917 9.38219 36.3 9.26553 36.7C9.14886 37.0833 9.02386 37.5083 8.89053 37.975C8.89053 37.975 9.01553 37.9667 9.26553 37.95C9.53219 37.9167 9.88219 37.8833 10.3155 37.85C11.0989 37.7667 11.6572 37.7167 11.9905 37.7C12.3405 37.6833 12.5739 37.7083 12.6905 37.775C12.8072 37.825 12.8905 37.925 12.9405 38.075C13.2739 38.525 13.3155 38.8333 13.0655 39C12.8155 39.1667 12.2239 39.2417 11.2905 39.225C10.4239 39.2583 9.75719 39.2833 9.29053 39.3C8.84053 39.3333 8.52386 39.375 8.34053 39.425C8.17386 39.475 8.07386 39.5583 8.04053 39.675C8.04053 39.8083 7.97386 39.875 7.84053 39.875C7.70719 39.875 7.54053 39.8417 7.34053 39.775ZM21.68 41.65C21.58 41.7167 21.4633 41.7 21.33 41.6C21.2133 41.5 21.0383 41.3167 20.805 41.05C20.6883 40.9167 20.6133 40.775 20.58 40.625C20.5466 40.475 20.555 40.1917 20.605 39.775C20.6716 39.5917 20.705 39.4167 20.705 39.25C20.7216 39.0833 20.73 38.9667 20.73 38.9C20.73 38.8 20.755 38.5667 20.805 38.2C20.8716 37.8333 20.9383 37.45 21.005 37.05C21.0716 36.6333 21.13 36.3167 21.18 36.1C21.18 36.0833 21.1883 36.0417 21.205 35.975C21.2216 35.9083 21.2383 35.85 21.255 35.8C21.2883 35.65 21.33 35.45 21.38 35.2C21.4466 34.95 21.505 34.6417 21.555 34.275C21.6883 33.8583 21.7966 33.45 21.88 33.05C21.98 32.6333 22.03 32.35 22.03 32.2C22.03 31.9 22.1466 31.6833 22.38 31.55C22.3966 31.4667 22.4466 31.3417 22.53 31.175C22.6133 30.9917 22.6883 30.8417 22.755 30.725C23.0883 29.775 23.3633 29.025 23.58 28.475C23.7966 27.9083 24.0216 27.4167 24.255 27C24.355 26.7167 24.4633 26.425 24.58 26.125C24.7133 25.825 24.8466 25.5917 24.98 25.425C25.0633 25.2083 25.255 24.9333 25.555 24.6C25.855 24.25 26.1716 23.9167 26.505 23.6C26.8383 23.2667 27.105 23.0167 27.305 22.85C27.6716 22.6667 27.9633 22.5417 28.18 22.475C28.3966 22.4083 28.68 22.375 29.03 22.375C29.3466 22.375 29.555 22.4167 29.655 22.5C29.7716 22.5667 29.9383 22.7 30.155 22.9C30.3883 23.15 30.5216 23.3167 30.555 23.4C30.5883 23.4833 30.605 23.6417 30.605 23.875C30.5716 24.0917 30.48 24.375 30.33 24.725C30.1966 25.0583 30.0466 25.3667 29.88 25.65C29.73 25.9167 29.605 26.0583 29.505 26.075C29.305 26.1417 29.155 26.125 29.055 26.025C28.9716 25.9083 28.93 25.725 28.93 25.475C28.93 25.3583 28.8966 25.25 28.83 25.15C28.78 25.0333 28.755 24.975 28.755 24.975C28.755 24.925 28.7633 24.8417 28.78 24.725C28.8133 24.5917 28.8633 24.4667 28.93 24.35C29.0133 24.1833 29.03 24.0583 28.98 23.975C28.9466 23.8917 28.8383 23.875 28.655 23.925C28.605 23.9583 28.4716 24.0583 28.255 24.225C28.0383 24.3917 27.805 24.5833 27.555 24.8C27.3216 25 27.1133 25.1917 26.93 25.375C26.7466 25.5583 26.655 25.675 26.655 25.725C26.655 25.725 26.6216 25.8 26.555 25.95C26.4883 26.0833 26.3633 26.2583 26.18 26.475C26.0633 26.6417 25.955 26.8083 25.855 26.975C25.7716 27.125 25.73 27.2167 25.73 27.25C25.73 27.3167 25.7216 27.3917 25.705 27.475C25.705 27.5417 25.6633 27.575 25.58 27.575C25.58 27.575 25.555 27.65 25.505 27.8C25.455 27.95 25.3633 28.1417 25.23 28.375C25.1633 28.5417 25.08 28.7167 24.98 28.9C24.88 29.0667 24.7966 29.1833 24.73 29.25H24.755C24.755 29.25 24.7133 29.3583 24.63 29.575C24.5633 29.775 24.4883 29.9917 24.405 30.225C24.3216 30.4417 24.28 30.5667 24.28 30.6C24.28 30.6667 24.3966 30.7 24.63 30.7C24.88 30.7 25.1716 30.675 25.505 30.625C25.8383 30.5583 26.1383 30.4917 26.405 30.425C26.6383 30.3583 26.7966 30.325 26.88 30.325C26.9633 30.325 27.13 30.3583 27.38 30.425C27.5133 30.5083 27.6216 30.6333 27.705 30.8C27.805 30.95 27.8716 31.1 27.905 31.25C27.955 31.3833 27.955 31.4833 27.905 31.55C27.8883 31.6167 27.705 31.7083 27.355 31.825C27.005 31.9417 26.655 32.0333 26.305 32.1C26.005 32.1667 25.6383 32.2417 25.205 32.325C24.7716 32.4083 24.3883 32.4833 24.055 32.55C23.7383 32.6167 23.58 32.675 23.58 32.725C23.5133 32.725 23.455 32.7667 23.405 32.85C23.355 32.9167 23.33 32.975 23.33 33.025C23.33 33.2583 23.2966 33.4333 23.23 33.55C23.1966 33.65 23.1383 33.85 23.055 34.15C22.9716 34.45 22.88 34.7833 22.78 35.15C22.6966 35.5167 22.6216 35.85 22.555 36.15C22.505 36.45 22.48 36.65 22.48 36.75C22.38 36.8667 22.3216 37.0167 22.305 37.2C22.2883 37.3667 22.28 37.5167 22.28 37.65C22.2133 37.7833 22.1716 37.9083 22.155 38.025C22.1383 38.125 22.13 38.2083 22.13 38.275C22.13 38.2917 22.13 38.325 22.13 38.375C22.13 38.425 22.1216 38.475 22.105 38.525C22.0883 38.6917 22.0633 38.9083 22.03 39.175C22.0133 39.4583 22.005 39.7333 22.005 40L21.93 40.725C21.9133 40.9417 21.8883 41.125 21.855 41.275C21.8216 41.4417 21.7633 41.5667 21.68 41.65ZM32.7804 38.125C32.4304 38.425 32.022 38.6 31.5554 38.65C31.1054 38.7 30.6637 38.6333 30.2304 38.45C29.797 38.25 29.4387 37.95 29.1554 37.55C28.872 37.1833 28.6887 36.7667 28.6054 36.3C28.522 35.8167 28.5137 35.1917 28.5804 34.425C28.6304 33.775 28.8387 33.125 29.2054 32.475C29.572 31.8083 30.0137 31.2167 30.5304 30.7C31.0637 30.1833 31.5887 29.825 32.1054 29.625C32.3554 29.4583 32.5637 29.3833 32.7304 29.4C32.9137 29.4 33.1887 29.4167 33.5554 29.45C33.9387 29.5 34.222 29.575 34.4054 29.675C34.6054 29.775 34.7637 29.9083 34.8804 30.075C35.1304 30.325 35.297 30.575 35.3804 30.825C35.4637 31.0583 35.5054 31.2917 35.5054 31.525C35.4387 31.8917 35.1887 32.3417 34.7554 32.875C34.3387 33.3917 33.7887 33.8167 33.1054 34.15C32.7387 34.2667 32.3387 34.3167 31.9054 34.3C31.472 34.2833 31.1137 34.175 30.8304 33.975C30.5137 33.8417 30.3054 33.8667 30.2054 34.05C30.1054 34.2167 30.0137 34.6333 29.9304 35.3C29.8637 35.9333 29.9137 36.4 30.0804 36.7C30.247 36.9833 30.472 37.15 30.7554 37.2C31.0887 37.2667 31.347 37.3167 31.5304 37.35C31.7304 37.3667 31.972 37.2917 32.2554 37.125C32.522 36.9583 32.6887 36.8667 32.7554 36.85C32.822 36.8167 32.872 36.7833 32.9054 36.75C32.9554 36.7 33.0637 36.5917 33.2304 36.425C33.347 36.3083 33.4387 36.225 33.5054 36.175C33.572 36.1083 33.647 36.075 33.7304 36.075C33.8137 36.075 33.8887 36.1167 33.9554 36.2C34.022 36.2667 34.0887 36.3167 34.1554 36.35C34.322 36.35 34.3554 36.45 34.2554 36.65C34.172 36.85 33.997 37.0917 33.7304 37.375C33.4637 37.6417 33.147 37.8917 32.7804 38.125ZM32.7554 32.825C32.9387 32.7417 33.1304 32.625 33.3304 32.475C33.5304 32.3083 33.697 32.1333 33.8304 31.95C33.9804 31.75 34.0554 31.5833 34.0554 31.45C34.0554 31.2167 33.947 31.025 33.7304 30.875C33.5137 30.7083 33.1887 30.6833 32.7554 30.8C32.572 30.85 32.3637 30.975 32.1304 31.175C31.897 31.3583 31.672 31.5667 31.4554 31.8C31.2554 32.0333 31.0887 32.2417 30.9554 32.425C30.8387 32.6083 30.797 32.7167 30.8304 32.75C30.8804 32.8333 31.022 32.9 31.2554 32.95C31.4887 32.9833 31.747 32.9917 32.0304 32.975C32.3304 32.9583 32.572 32.9083 32.7554 32.825ZM38.9103 39.075C38.1769 39.075 37.5769 38.8 37.1103 38.25C36.6436 37.6833 36.4186 36.9833 36.4353 36.15C36.4686 35.55 36.5853 34.9083 36.7853 34.225C37.0019 33.525 37.2853 32.8583 37.6353 32.225C37.9853 31.575 38.3686 31.0083 38.7853 30.525C39.2019 30.0417 39.6353 29.7 40.0853 29.5C40.2519 29.4167 40.4269 29.35 40.6103 29.3C40.8103 29.25 41.0103 29.225 41.2103 29.225C41.3936 29.225 41.5853 29.2583 41.7853 29.325C41.9853 29.375 42.1519 29.4333 42.2853 29.5C42.5686 29.6167 42.7853 29.7583 42.9353 29.925C43.0853 30.0917 43.2186 30.35 43.3353 30.7C43.3853 31.0167 43.4103 31.2417 43.4103 31.375C43.4103 31.5083 43.3686 31.7083 43.2853 31.975C43.0853 32.575 42.8269 33.0917 42.5103 33.525C42.1936 33.9583 41.7686 34.325 41.2353 34.625C41.1019 34.7083 40.9436 34.775 40.7603 34.825C40.5936 34.8583 40.4186 34.875 40.2353 34.875C39.9019 34.875 39.5769 34.8167 39.2603 34.7C38.9603 34.5667 38.7186 34.375 38.5353 34.125L38.3603 33.925L38.2853 34.125C38.1186 34.575 37.9853 34.9917 37.8853 35.375C37.8019 35.7583 37.7603 36.1083 37.7603 36.425C37.7603 36.625 37.7769 36.8167 37.8103 37C37.8603 37.1833 37.9269 37.3417 38.0103 37.475C38.0769 37.575 38.1853 37.65 38.3353 37.7C38.5019 37.7333 38.6769 37.75 38.8603 37.75C38.9769 37.75 39.0936 37.75 39.2103 37.75C39.3436 37.7333 39.4686 37.7 39.5853 37.65C39.8686 37.55 40.0936 37.4417 40.2603 37.325C40.4436 37.2083 40.6269 37.0833 40.8103 36.95L40.9103 36.9H40.8853C41.0853 36.8 41.2603 36.7 41.4103 36.6C41.5769 36.5 41.6603 36.45 41.6603 36.45C41.7269 36.45 41.7936 36.4083 41.8603 36.325C41.9936 36.2583 42.1603 36.2833 42.3603 36.4C42.5769 36.5167 42.6853 36.6667 42.6853 36.85C42.6686 36.9333 42.5936 37.0667 42.4603 37.25C42.3269 37.4167 42.1769 37.575 42.0103 37.725C41.8603 37.875 41.7353 37.9583 41.6353 37.975C41.6186 37.9917 41.5603 38.025 41.4603 38.075C41.3603 38.1083 41.2936 38.1417 41.2603 38.175H41.2853C41.1353 38.375 40.9853 38.475 40.8353 38.475H40.6353C40.5686 38.5917 40.3519 38.725 39.9853 38.875C39.6186 39.0083 39.2603 39.075 38.9103 39.075ZM40.0353 33.575C40.3353 33.575 40.5936 33.4917 40.8103 33.325C41.0436 33.1417 41.2436 32.9417 41.4103 32.725C41.7436 32.275 41.9353 31.8417 41.9853 31.425C42.0519 30.9917 42.0019 30.6917 41.8353 30.525C41.7353 30.475 41.6436 30.45 41.5603 30.45C41.4936 30.4333 41.3519 30.4583 41.1353 30.525C40.9853 30.5583 40.7769 30.6833 40.5103 30.9C40.2436 31.1167 39.9769 31.3583 39.7103 31.625C39.4603 31.8917 39.2686 32.1167 39.1353 32.3L38.8103 32.825C38.9436 32.775 39.0686 32.75 39.1853 32.75C39.3186 32.7333 39.3936 32.7417 39.4103 32.775C39.4103 32.925 39.4353 33.0667 39.4853 33.2C39.5519 33.3167 39.6269 33.4083 39.7103 33.475C39.8103 33.5417 39.9186 33.575 40.0353 33.575ZM45.0401 37.825C44.8735 37.725 44.7485 37.625 44.6651 37.525C44.5818 37.425 44.5401 37.2833 44.5401 37.1C44.5401 36.85 44.5735 36.5917 44.6401 36.325C44.7068 36.0417 44.7735 35.7667 44.8401 35.5C44.8735 35.2 44.9151 34.9 44.9651 34.6C45.0318 34.2833 45.1485 33.9917 45.3151 33.725C45.4985 33.0917 45.6901 32.4667 45.8901 31.85C46.0901 31.2167 46.2651 30.5667 46.4151 29.9C46.6318 29.2833 46.8235 28.7417 46.9901 28.275C47.1735 27.7917 47.3985 27.1833 47.6651 26.45C47.8151 26.0333 47.9401 25.5917 48.0401 25.125C48.1568 24.6417 48.3318 24.2083 48.5651 23.825C48.6651 23.675 48.7401 23.55 48.7901 23.45C48.8568 23.3333 48.9235 23.225 48.9901 23.125C49.0068 23.0583 49.0568 23.0167 49.1401 23C49.2401 22.9833 49.3485 22.9917 49.4651 23.025C49.5818 23.0583 49.6735 23.1167 49.7401 23.2C49.7901 23.1833 49.8485 23.2333 49.9151 23.35C49.9985 23.45 50.0735 23.5667 50.1401 23.7C50.2068 23.8333 50.2318 23.95 50.2151 24.05C50.2151 24.1167 50.1985 24.2083 50.1651 24.325C50.1485 24.4417 50.1068 24.55 50.0401 24.65C49.9735 24.7167 49.9068 24.8167 49.8401 24.95C49.7901 25.0667 49.7068 25.2333 49.5901 25.45C49.5235 25.6667 49.4651 25.8917 49.4151 26.125C49.3651 26.3417 49.2985 26.5417 49.2151 26.725C49.1485 26.925 49.0651 27.1167 48.9651 27.3C48.8818 27.4833 48.8235 27.6333 48.7901 27.75C48.6735 28.1333 48.5318 28.5083 48.3651 28.875C48.2151 29.2417 48.0818 29.6333 47.9651 30.05C47.8485 30.45 47.7318 30.8667 47.6151 31.3C47.4985 31.7167 47.3318 32.1167 47.1151 32.5C46.9985 32.6833 46.9151 32.9167 46.8651 33.2C46.8151 33.4833 46.7651 33.7667 46.7151 34.05C46.6151 34.35 46.5235 34.6333 46.4401 34.9C46.3735 35.15 46.3401 35.3083 46.3401 35.375C46.2401 35.7417 46.1651 36.1083 46.1151 36.475C46.0818 36.825 45.9985 37.1333 45.8651 37.4C45.8485 37.5667 45.8151 37.7 45.7651 37.8C45.7151 37.9 45.6318 37.9583 45.5151 37.975C45.3985 37.975 45.2401 37.925 45.0401 37.825ZM56.4685 38.175C56.2685 38.2083 56.0518 38.175 55.8185 38.075C55.5851 37.975 55.3768 37.8333 55.1935 37.65C55.0268 37.4667 54.9185 37.275 54.8685 37.075C54.8018 36.725 54.8435 36.2917 54.9935 35.775C55.1601 35.2417 55.3935 34.6833 55.6935 34.1C56.0101 33.5 56.3601 32.925 56.7435 32.375C57.1435 31.825 57.5518 31.35 57.9685 30.95C58.4018 30.5333 58.8018 30.25 59.1685 30.1C59.3518 29.9833 59.4935 29.9083 59.5935 29.875C59.7101 29.825 59.8268 29.8167 59.9435 29.85C60.0768 29.8833 60.2685 29.9667 60.5185 30.1C60.7518 30.1667 60.9268 30.2417 61.0435 30.325C61.1601 30.4083 61.3101 30.575 61.4935 30.825C61.6268 31.075 61.7268 31.325 61.7935 31.575C61.8601 31.825 61.9185 32.1083 61.9685 32.425C62.1018 32.8417 62.1518 33.1167 62.1185 33.25C62.0851 33.3667 62.0351 33.4583 61.9685 33.525C61.8351 33.6917 61.8018 33.775 61.8685 33.775C61.8685 33.775 61.8601 33.8083 61.8435 33.875C61.8435 33.925 61.8101 34.0083 61.7435 34.125C61.6268 34.4917 61.5351 34.875 61.4685 35.275C61.4185 35.6583 61.4268 35.975 61.4935 36.225C61.6268 36.5917 61.8685 36.8083 62.2185 36.875C62.5685 36.9417 62.9268 36.7917 63.2935 36.425C63.4768 36.2917 63.6518 36.175 63.8185 36.075C63.9851 35.9583 64.0685 35.9667 64.0685 36.1C64.0685 36.1 64.0935 36.125 64.1435 36.175C64.1935 36.2083 64.2518 36.225 64.3185 36.225C64.4018 36.225 64.4518 36.2583 64.4685 36.325C64.5018 36.3917 64.5018 36.4833 64.4685 36.6C64.4518 36.7 64.4018 36.8167 64.3185 36.95C64.0685 37.2 63.9435 37.3667 63.9435 37.45C63.9435 37.45 63.9101 37.4833 63.8435 37.55C63.7935 37.6 63.7018 37.6833 63.5685 37.8C63.2685 37.9833 62.8851 38.075 62.4185 38.075C61.9685 38.075 61.6185 37.9833 61.3685 37.8C61.1185 37.6167 60.8851 37.3667 60.6685 37.05C60.4685 36.7333 60.3351 36.4583 60.2685 36.225L60.1435 35.975L59.4185 36.45C59.2351 36.6333 59.0351 36.8083 58.8185 36.975C58.6185 37.1417 58.4851 37.2583 58.4185 37.325C58.3685 37.3917 58.3101 37.45 58.2435 37.5C58.1935 37.55 58.1351 37.575 58.0685 37.575C58.0018 37.575 57.9435 37.575 57.8935 37.575C57.8435 37.575 57.8185 37.575 57.8185 37.575C57.8185 37.6417 57.7351 37.725 57.5685 37.825C57.4185 37.925 57.2351 38.0083 57.0185 38.075C56.8185 38.1417 56.6351 38.175 56.4685 38.175ZM56.2185 36.825C56.3185 36.825 56.4935 36.75 56.7435 36.6C57.0101 36.4333 57.3018 36.2417 57.6185 36.025C57.9518 35.8083 58.2435 35.5917 58.4935 35.375C58.7601 35.1583 58.9435 34.9917 59.0435 34.875C59.1101 34.8083 59.2185 34.7 59.3685 34.55C59.5185 34.3833 59.6518 34.2417 59.7685 34.125C60.1518 33.6917 60.4185 33.2167 60.5685 32.7C60.7185 32.1667 60.7018 31.75 60.5185 31.45C60.4518 31.2667 60.3685 31.1667 60.2685 31.15C60.1685 31.1333 59.9601 31.1917 59.6435 31.325C59.4435 31.4417 59.1935 31.6667 58.8935 32C58.6101 32.3167 58.3018 32.6917 57.9685 33.125C57.6518 33.5417 57.3518 33.975 57.0685 34.425C56.7851 34.875 56.5518 35.2917 56.3685 35.675C56.1851 36.0583 56.0935 36.3583 56.0935 36.575C56.0935 36.6417 56.1101 36.7 56.1435 36.75C56.1935 36.8 56.2185 36.825 56.2185 36.825ZM64.0724 44.575C63.9557 44.525 63.8307 44.4417 63.6974 44.325C63.564 44.2083 63.4557 44.075 63.3724 43.925C63.289 43.7917 63.2474 43.675 63.2474 43.575C63.2474 43.475 63.289 43.2083 63.3724 42.775C63.4557 42.3583 63.564 41.8417 63.6974 41.225C63.8474 40.625 64.0057 40.0083 64.1724 39.375C64.3557 38.7583 64.539 38.2083 64.7224 37.725C64.7557 37.6417 64.864 37.3667 65.0474 36.9C65.2474 36.4167 65.439 35.8333 65.6224 35.15C65.7557 34.7167 65.9307 34.225 66.1474 33.675C66.364 33.125 66.589 32.575 66.8224 32.025C67.0557 31.4583 67.2474 30.9583 67.3974 30.525C67.5474 30.0917 67.6724 29.7417 67.7724 29.475C67.889 29.1917 67.9557 29.0167 67.9724 28.95C68.0057 28.85 68.0557 28.7667 68.1224 28.7C68.2057 28.6167 68.289 28.55 68.3724 28.5C68.4557 28.4333 68.5224 28.3917 68.5724 28.375C68.8724 28.2917 69.1307 28.4167 69.3474 28.75C69.4307 28.9 69.4474 29.075 69.3974 29.275C69.3474 29.475 69.2557 29.725 69.1224 30.025L68.9474 30.525L69.8474 30.325C69.9974 30.325 70.1807 30.3333 70.3974 30.35C70.6307 30.35 70.8557 30.35 71.0724 30.35C71.289 30.35 71.4474 30.3667 71.5474 30.4C71.9474 30.4167 72.2224 30.4917 72.3724 30.625C72.539 30.7583 72.6807 30.9333 72.7974 31.15C72.8807 31.2333 72.9807 31.35 73.0974 31.5C73.214 31.6333 73.2807 31.7667 73.2974 31.9C73.364 32.1833 73.364 32.4917 73.2974 32.825C73.2474 33.1417 73.1474 33.4583 72.9974 33.775C72.864 34.0917 72.6807 34.3833 72.4474 34.65C72.2307 34.9 71.9974 35.1083 71.7474 35.275C71.5807 35.3417 71.4307 35.4167 71.2974 35.5C71.164 35.5667 71.0974 35.6 71.0974 35.6C71.0807 35.6833 70.8974 35.8167 70.5474 36C70.1974 36.1667 69.7974 36.325 69.3474 36.475C68.8974 36.625 68.5057 36.725 68.1724 36.775C68.0557 36.7917 67.889 36.8083 67.6724 36.825C67.4557 36.8417 67.289 36.8167 67.1724 36.75C66.989 36.7167 66.864 36.7 66.7974 36.7C66.7307 36.7 66.6974 36.7333 66.6974 36.8C66.6807 36.8333 66.564 37.1833 66.3474 37.85C66.1307 38.5167 65.9057 39.2917 65.6724 40.175C65.3557 41.1417 65.0974 41.9083 64.8974 42.475C64.6974 43.0583 64.539 43.4917 64.4224 43.775C64.3224 44.0583 64.2474 44.25 64.1974 44.35C64.1474 44.4667 64.1057 44.5417 64.0724 44.575ZM67.1974 35.35C67.2474 35.45 67.4057 35.4833 67.6724 35.45C67.9557 35.4 68.289 35.3 68.6724 35.15C69.0724 34.9833 69.464 34.8 69.8474 34.6C70.2307 34.3833 70.5474 34.1667 70.7974 33.95C71.164 33.5333 71.464 33.15 71.6974 32.8C71.9307 32.4333 71.964 32.1917 71.7974 32.075C71.614 31.8083 71.2724 31.6833 70.7724 31.7C70.2724 31.7167 69.6557 31.925 68.9224 32.325C68.639 32.425 68.4224 32.5583 68.2724 32.725C68.139 32.875 68.0224 33.0667 67.9224 33.3C67.8224 33.5333 67.6974 33.8167 67.5474 34.15C67.3974 34.5167 67.2974 34.7917 67.2474 34.975C67.1974 35.1583 67.1807 35.2833 67.1974 35.35ZM73.6456 44.6C73.5789 44.6 73.4956 44.6 73.3956 44.6C73.2956 44.6167 73.2039 44.55 73.1206 44.4C73.0539 44.3167 73.0123 44.1917 72.9956 44.025C72.9956 43.8583 73.0373 43.5583 73.1206 43.125C73.2039 42.8417 73.2706 42.5583 73.3206 42.275C73.3706 42.0083 73.3956 41.8083 73.3956 41.675C73.3956 41.6083 73.4123 41.475 73.4456 41.275C73.4956 41.0917 73.5206 40.9583 73.5206 40.875C73.6039 40.7417 73.6706 40.5583 73.7206 40.325C73.7706 40.0917 73.7956 39.8833 73.7956 39.7C73.7956 39.5 73.8956 39.3167 74.0956 39.15C74.0956 39.0167 74.1206 38.85 74.1706 38.65C74.2373 38.45 74.2706 38.3167 74.2706 38.25C74.3206 38.0167 74.4289 37.6083 74.5956 37.025C74.7789 36.425 74.9956 35.75 75.2456 35C75.5123 34.25 75.7706 33.5167 76.0206 32.8C76.2706 32.0833 76.4956 31.475 76.6956 30.975C76.8956 30.5083 77.0289 30.1083 77.0956 29.775C77.1789 29.425 77.2206 29.1667 77.2206 29C77.2206 28.9333 77.2373 28.8833 77.2706 28.85C77.3039 28.8 77.3789 28.7083 77.4956 28.575C77.6623 28.4083 77.8039 28.3583 77.9206 28.425C78.0539 28.4917 78.2123 28.5917 78.3956 28.725C78.5289 28.9417 78.6206 29.125 78.6706 29.275C78.7373 29.425 78.7373 29.6833 78.6706 30.05C78.6706 30.3 78.6289 30.5167 78.5456 30.7C78.4623 30.8833 78.3873 31.025 78.3206 31.125C78.2539 31.2083 78.2373 31.2417 78.2706 31.225C78.9539 30.9083 79.5539 30.7417 80.0706 30.725C80.6039 30.6917 81.0456 30.7833 81.3956 31C81.7623 31.2 82.0373 31.4833 82.2206 31.85C82.4039 32.2167 82.4956 32.6417 82.4956 33.125C82.4956 33.325 82.4539 33.5667 82.3706 33.85C82.2873 34.1167 82.1789 34.3667 82.0456 34.6C81.9289 34.8167 81.8206 34.975 81.7206 35.075C81.6539 35.075 81.5873 35.1333 81.5206 35.25C81.4539 35.35 81.3873 35.4667 81.3206 35.6C81.1873 35.7667 80.9706 35.9583 80.6706 36.175C80.3873 36.375 80.1039 36.5417 79.8206 36.675C79.5373 36.7917 79.3289 36.825 79.1956 36.775C79.1956 36.775 79.1706 36.7833 79.1206 36.8C79.0873 36.8 79.0706 36.8417 79.0706 36.925C79.0706 36.9583 78.9373 37.0333 78.6706 37.15C78.4039 37.25 78.0956 37.35 77.7456 37.45C77.3956 37.5333 77.0873 37.575 76.8206 37.575C76.4706 37.575 76.2206 37.5083 76.0706 37.375C76.0373 37.4083 75.9956 37.4583 75.9456 37.525C75.9123 37.5917 75.8956 37.65 75.8956 37.7C75.8956 37.8 75.8539 37.9917 75.7706 38.275C75.7039 38.5417 75.6206 38.8 75.5206 39.05C75.4206 39.3 75.3289 39.425 75.2456 39.425C75.2456 39.425 75.2289 39.45 75.1956 39.5C75.1623 39.55 75.1789 39.6167 75.2456 39.7C75.2456 39.7 75.2373 39.7917 75.2206 39.975C75.2206 40.175 75.1789 40.3417 75.0956 40.475C75.0956 40.6083 75.0706 40.8083 75.0206 41.075C74.9706 41.3417 74.9123 41.5417 74.8456 41.675C74.8456 41.875 74.8123 42.0667 74.7456 42.25C74.6956 42.45 74.6373 42.55 74.5706 42.55C74.5039 42.5667 74.4623 42.6667 74.4456 42.85C74.4289 43.05 74.4206 43.1917 74.4206 43.275C74.4039 43.6917 74.3206 44.0167 74.1706 44.25C74.0206 44.4833 73.8456 44.6 73.6456 44.6ZM76.6706 36.25C76.8039 36.25 77.0789 36.1917 77.4956 36.075C77.9123 35.9583 78.3373 35.8167 78.7706 35.65C79.2206 35.4667 79.5539 35.2833 79.7706 35.1C80.2039 34.7167 80.5373 34.2833 80.7706 33.8C81.0206 33.3 81.0039 32.825 80.7206 32.375C80.5873 32.1417 80.3456 32.05 79.9956 32.1C79.6456 32.1333 79.2623 32.2667 78.8456 32.5C78.4289 32.7333 78.0373 33.025 77.6706 33.375C77.4706 33.5917 77.2873 33.8583 77.1206 34.175C76.9539 34.4917 76.8123 34.8083 76.6956 35.125C76.5956 35.4417 76.5373 35.7083 76.5206 35.925C76.5039 36.1417 76.5539 36.25 76.6706 36.25ZM85.5938 38.225C85.5438 38.2417 85.4605 38.2333 85.3438 38.2C85.2272 38.1667 85.1105 38.125 84.9938 38.075C84.8772 38.025 84.8022 37.9833 84.7688 37.95C84.7022 37.8833 84.6355 37.7833 84.5688 37.65C84.5188 37.5167 84.5188 37.325 84.5688 37.075C84.6188 36.8083 84.7855 36.4667 85.0688 36.05C85.1522 35.8833 85.2522 35.6333 85.3688 35.3C85.4855 34.9667 85.6022 34.6167 85.7188 34.25C85.8522 33.8667 85.9688 33.525 86.0688 33.225C86.1855 32.925 86.2688 32.7167 86.3188 32.6C86.3522 32.3167 86.3355 32.1167 86.2688 32C86.2188 31.8667 86.0772 31.7917 85.8438 31.775C85.6772 31.775 85.5438 31.7583 85.4438 31.725C85.3605 31.6917 85.3188 31.525 85.3188 31.225C85.3522 30.9917 85.4105 30.8333 85.4938 30.75C85.5938 30.65 85.7272 30.5417 85.8938 30.425C86.0605 30.3417 86.2272 30.2833 86.3938 30.25C86.5772 30.2167 86.7522 30.2083 86.9188 30.225C87.0855 30.2417 87.2188 30.3 87.3188 30.4C87.4355 30.4667 87.5105 30.6167 87.5438 30.85C87.5772 31.0667 87.5938 31.2917 87.5938 31.525C87.6105 31.7583 87.6272 31.9333 87.6438 32.05C87.8105 31.9167 88.0355 31.7333 88.3188 31.5C88.6188 31.25 88.8772 31.0167 89.0938 30.8C89.3605 30.6167 89.6772 30.4333 90.0438 30.25C90.4105 30.05 90.6772 29.95 90.8438 29.95C91.0272 29.95 91.2105 30 91.3938 30.1C91.5772 30.1833 91.7022 30.2917 91.7688 30.425C91.9355 30.7083 92.0105 30.9583 91.9938 31.175C91.9938 31.3917 91.9022 31.6167 91.7188 31.85C91.5522 32.0667 91.3438 32.2167 91.0938 32.3C90.8605 32.3833 90.7105 32.425 90.6438 32.425C90.5438 32.425 90.4188 32.35 90.2688 32.2C90.1188 32.05 90.0355 31.925 90.0188 31.825C90.0188 31.775 89.9105 31.825 89.6938 31.975C89.4938 32.1083 89.2688 32.2833 89.0188 32.5C88.7688 32.7 88.5605 32.8833 88.3938 33.05C88.1105 33.4 87.8105 33.875 87.4938 34.475C87.1772 35.075 86.8022 35.8 86.3688 36.65C86.1688 37.0667 86.0272 37.425 85.9438 37.725C85.8605 38.0083 85.7438 38.175 85.5938 38.225ZM97.4776 38.125C97.1276 38.425 96.7193 38.6 96.2526 38.65C95.8026 38.7 95.361 38.6333 94.9276 38.45C94.4943 38.25 94.136 37.95 93.8526 37.55C93.5693 37.1833 93.386 36.7667 93.3026 36.3C93.2193 35.8167 93.211 35.1917 93.2776 34.425C93.3276 33.775 93.536 33.125 93.9026 32.475C94.2693 31.8083 94.711 31.2167 95.2276 30.7C95.761 30.1833 96.286 29.825 96.8026 29.625C97.0526 29.4583 97.261 29.3833 97.4276 29.4C97.611 29.4 97.886 29.4167 98.2526 29.45C98.636 29.5 98.9193 29.575 99.1026 29.675C99.3026 29.775 99.461 29.9083 99.5776 30.075C99.8276 30.325 99.9943 30.575 100.078 30.825C100.161 31.0583 100.203 31.2917 100.203 31.525C100.136 31.8917 99.886 32.3417 99.4526 32.875C99.036 33.3917 98.486 33.8167 97.8026 34.15C97.436 34.2667 97.036 34.3167 96.6026 34.3C96.1693 34.2833 95.811 34.175 95.5276 33.975C95.211 33.8417 95.0026 33.8667 94.9026 34.05C94.8026 34.2167 94.711 34.6333 94.6276 35.3C94.561 35.9333 94.611 36.4 94.7776 36.7C94.9443 36.9833 95.1693 37.15 95.4526 37.2C95.786 37.2667 96.0443 37.3167 96.2276 37.35C96.4276 37.3667 96.6693 37.2917 96.9526 37.125C97.2193 36.9583 97.386 36.8667 97.4526 36.85C97.5193 36.8167 97.5693 36.7833 97.6026 36.75C97.6526 36.7 97.761 36.5917 97.9276 36.425C98.0443 36.3083 98.136 36.225 98.2026 36.175C98.2693 36.1083 98.3443 36.075 98.4276 36.075C98.511 36.075 98.586 36.1167 98.6526 36.2C98.7193 36.2667 98.786 36.3167 98.8526 36.35C99.0193 36.35 99.0526 36.45 98.9526 36.65C98.8693 36.85 98.6943 37.0917 98.4276 37.375C98.161 37.6417 97.8443 37.8917 97.4776 38.125ZM97.4526 32.825C97.636 32.7417 97.8276 32.625 98.0276 32.475C98.2276 32.3083 98.3943 32.1333 98.5276 31.95C98.6776 31.75 98.7526 31.5833 98.7526 31.45C98.7526 31.2167 98.6443 31.025 98.4276 30.875C98.211 30.7083 97.886 30.6833 97.4526 30.8C97.2693 30.85 97.061 30.975 96.8276 31.175C96.5943 31.3583 96.3693 31.5667 96.1526 31.8C95.9526 32.0333 95.786 32.2417 95.6526 32.425C95.536 32.6083 95.4943 32.7167 95.5276 32.75C95.5776 32.8333 95.7193 32.9 95.9526 32.95C96.186 32.9833 96.4443 32.9917 96.7276 32.975C97.0276 32.9583 97.2693 32.9083 97.4526 32.825ZM104.808 38.35C104.591 38.45 104.341 38.4917 104.058 38.475C103.774 38.4583 103.391 38.3667 102.908 38.2C102.874 38.2 102.799 38.1667 102.683 38.1C102.583 38.0333 102.474 37.95 102.358 37.85C102.258 37.7333 102.174 37.6083 102.108 37.475C101.841 37.0917 101.733 36.525 101.783 35.775C101.833 35.025 102.066 34.125 102.483 33.075C102.599 32.825 102.774 32.5083 103.008 32.125C103.258 31.7417 103.499 31.3917 103.733 31.075C103.983 30.7417 104.158 30.55 104.258 30.5C104.258 30.5 104.349 30.4667 104.533 30.4C104.716 30.3333 104.949 30.225 105.233 30.075C105.316 30.0417 105.408 30.0083 105.508 29.975C105.624 29.9417 105.741 29.9167 105.858 29.9C105.974 29.8833 106.074 29.8833 106.158 29.9C106.491 29.9167 106.833 30.0417 107.183 30.275C107.549 30.4917 107.849 30.75 108.083 31.05C108.316 31.3333 108.391 31.5833 108.308 31.8C108.308 31.8333 108.258 31.9 108.158 32C108.074 32.0833 107.974 32.175 107.858 32.275C107.758 32.3583 107.674 32.4417 107.608 32.525C107.524 32.625 107.408 32.6667 107.258 32.65C107.124 32.6333 106.999 32.5667 106.883 32.45C106.783 32.3167 106.724 32.15 106.708 31.95C106.674 31.8167 106.549 31.6917 106.333 31.575C106.133 31.4583 106.033 31.4 106.033 31.4C105.899 31.4 105.708 31.525 105.458 31.775C105.224 32.0083 104.991 32.2917 104.758 32.625C104.458 32.925 104.199 33.2833 103.983 33.7C103.766 34.1 103.591 34.4833 103.458 34.85C103.341 35.2 103.258 35.45 103.208 35.6C103.141 35.7667 103.133 36 103.183 36.3C103.233 36.6 103.291 36.7833 103.358 36.85C103.424 36.8833 103.591 36.8917 103.858 36.875C104.141 36.8583 104.474 36.825 104.858 36.775C105.241 36.7083 105.616 36.6333 105.983 36.55C106.349 36.4667 106.649 36.375 106.883 36.275C107.199 36.075 107.474 35.9583 107.708 35.925C107.941 35.8917 108.116 35.8917 108.233 35.925C108.416 35.9917 108.524 36.0833 108.558 36.2C108.591 36.3167 108.549 36.45 108.433 36.6C108.316 36.7333 108.116 36.875 107.833 37.025C107.566 37.1583 107.324 37.3083 107.108 37.475C106.908 37.625 106.808 37.7417 106.808 37.825C106.741 37.825 106.666 37.85 106.583 37.9C106.516 37.9333 106.458 37.9417 106.408 37.925C106.374 37.925 106.241 37.95 106.008 38C105.774 38.05 105.533 38.1083 105.283 38.175C105.049 38.2417 104.891 38.3 104.808 38.35ZM111.784 38.225C111.534 38.1917 111.317 38.0167 111.134 37.7C110.967 37.3667 110.867 37.0667 110.834 36.8C110.85 36.6667 110.867 36.475 110.884 36.225C110.917 35.975 110.95 35.7167 110.984 35.45C111.05 35.1333 111.142 34.75 111.259 34.3C111.375 33.8333 111.492 33.3667 111.609 32.9C111.742 32.4333 111.859 32.0333 111.959 31.7C112.059 31.3667 112.125 31.1667 112.159 31.1C112.242 30.9667 112.375 30.9333 112.559 31C112.742 31.0667 112.892 31.1667 113.009 31.3C113.109 31.4333 113.167 31.5917 113.184 31.775C113.217 31.9583 113.192 32.225 113.109 32.575C113.042 32.925 112.909 33.4417 112.709 34.125C112.525 34.7917 112.384 35.3333 112.284 35.75C112.2 36.15 112.167 36.575 112.184 37.025C112.117 37.5917 112.067 37.9417 112.034 38.075C112 38.1917 111.917 38.2417 111.784 38.225ZM114.659 28.25C114.592 28.3 114.525 28.325 114.459 28.325C114.409 28.3083 114.317 28.2583 114.184 28.175C114.067 28.1583 113.917 28.0833 113.734 27.95C113.567 27.8 113.417 27.65 113.284 27.5C113.167 27.3333 113.109 27.2333 113.109 27.2C113.092 27.0333 113.1 26.825 113.134 26.575C113.184 26.3083 113.275 26.075 113.409 25.875C113.542 25.6583 113.734 25.5417 113.984 25.525C114.05 25.525 114.109 25.5333 114.159 25.55C114.209 25.5667 114.359 25.625 114.609 25.725C114.742 25.975 114.875 26.2583 115.009 26.575C115.142 26.875 115.2 27.175 115.184 27.475C115.167 27.7583 114.992 28.0167 114.659 28.25ZM116.747 38.175C116.547 38.2083 116.33 38.175 116.097 38.075C115.863 37.975 115.655 37.8333 115.472 37.65C115.305 37.4667 115.197 37.275 115.147 37.075C115.08 36.725 115.122 36.2917 115.272 35.775C115.438 35.2417 115.672 34.6833 115.972 34.1C116.288 33.5 116.638 32.925 117.022 32.375C117.422 31.825 117.83 31.35 118.247 30.95C118.68 30.5333 119.08 30.25 119.447 30.1C119.63 29.9833 119.772 29.9083 119.872 29.875C119.988 29.825 120.105 29.8167 120.222 29.85C120.355 29.8833 120.547 29.9667 120.797 30.1C121.03 30.1667 121.205 30.2417 121.322 30.325C121.438 30.4083 121.588 30.575 121.772 30.825C121.905 31.075 122.005 31.325 122.072 31.575C122.138 31.825 122.197 32.1083 122.247 32.425C122.38 32.8417 122.43 33.1167 122.397 33.25C122.363 33.3667 122.313 33.4583 122.247 33.525C122.113 33.6917 122.08 33.775 122.147 33.775C122.147 33.775 122.138 33.8083 122.122 33.875C122.122 33.925 122.088 34.0083 122.022 34.125C121.905 34.4917 121.813 34.875 121.747 35.275C121.697 35.6583 121.705 35.975 121.772 36.225C121.905 36.5917 122.147 36.8083 122.497 36.875C122.847 36.9417 123.205 36.7917 123.572 36.425C123.755 36.2917 123.93 36.175 124.097 36.075C124.263 35.9583 124.347 35.9667 124.347 36.1C124.347 36.1 124.372 36.125 124.422 36.175C124.472 36.2083 124.53 36.225 124.597 36.225C124.68 36.225 124.73 36.2583 124.747 36.325C124.78 36.3917 124.78 36.4833 124.747 36.6C124.73 36.7 124.68 36.8167 124.597 36.95C124.347 37.2 124.222 37.3667 124.222 37.45C124.222 37.45 124.188 37.4833 124.122 37.55C124.072 37.6 123.98 37.6833 123.847 37.8C123.547 37.9833 123.163 38.075 122.697 38.075C122.247 38.075 121.897 37.9833 121.647 37.8C121.397 37.6167 121.163 37.3667 120.947 37.05C120.747 36.7333 120.613 36.4583 120.547 36.225L120.422 35.975L119.697 36.45C119.513 36.6333 119.313 36.8083 119.097 36.975C118.897 37.1417 118.763 37.2583 118.697 37.325C118.647 37.3917 118.588 37.45 118.522 37.5C118.472 37.55 118.413 37.575 118.347 37.575C118.28 37.575 118.222 37.575 118.172 37.575C118.122 37.575 118.097 37.575 118.097 37.575C118.097 37.6417 118.013 37.725 117.847 37.825C117.697 37.925 117.513 38.0083 117.297 38.075C117.097 38.1417 116.913 38.175 116.747 38.175ZM116.497 36.825C116.597 36.825 116.772 36.75 117.022 36.6C117.288 36.4333 117.58 36.2417 117.897 36.025C118.23 35.8083 118.522 35.5917 118.772 35.375C119.038 35.1583 119.222 34.9917 119.322 34.875C119.388 34.8083 119.497 34.7 119.647 34.55C119.797 34.3833 119.93 34.2417 120.047 34.125C120.43 33.6917 120.697 33.2167 120.847 32.7C120.997 32.1667 120.98 31.75 120.797 31.45C120.73 31.2667 120.647 31.1667 120.547 31.15C120.447 31.1333 120.238 31.1917 119.922 31.325C119.722 31.4417 119.472 31.6667 119.172 32C118.888 32.3167 118.58 32.6917 118.247 33.125C117.93 33.5417 117.63 33.975 117.347 34.425C117.063 34.875 116.83 35.2917 116.647 35.675C116.463 36.0583 116.372 36.3583 116.372 36.575C116.372 36.6417 116.388 36.7 116.422 36.75C116.472 36.8 116.497 36.825 116.497 36.825ZM127.426 38.825C127.242 38.7917 127.051 38.7 126.851 38.55C126.667 38.3833 126.501 38.2 126.351 38C126.217 37.7833 126.126 37.5917 126.076 37.425C126.076 37.3917 126.051 37.35 126.001 37.3C125.967 37.25 125.951 37.225 125.951 37.225C125.884 37.175 125.842 36.9583 125.826 36.575C125.826 36.175 125.851 35.7333 125.901 35.25C125.951 34.7667 126.009 34.3833 126.076 34.1C126.159 33.8333 126.284 33.475 126.451 33.025C126.617 32.5583 126.759 32.1417 126.876 31.775L127.551 30.325L126.551 30.05C126.434 30.0167 126.334 29.95 126.251 29.85C126.184 29.75 126.151 29.6667 126.151 29.6C126.151 29.4667 126.226 29.3083 126.376 29.125C126.526 28.925 126.634 28.825 126.701 28.825C126.784 28.8417 126.934 28.85 127.151 28.85C127.384 28.85 127.609 28.8417 127.826 28.825C128.042 28.8083 128.176 28.7917 128.226 28.775C128.292 28.7417 128.359 28.7 128.426 28.65C128.492 28.5833 128.542 28.4917 128.576 28.375C128.659 28.1917 128.734 28.025 128.801 27.875C128.867 27.7083 128.959 27.525 129.076 27.325C129.192 27.1083 129.284 26.925 129.351 26.775C129.434 26.625 129.559 26.4167 129.726 26.15C129.809 26.0333 129.901 25.8917 130.001 25.725C130.101 25.5583 130.226 25.4167 130.376 25.3C130.526 25.1667 130.676 25.1083 130.826 25.125C130.992 25.125 131.201 25.2333 131.451 25.45C131.584 25.6167 131.659 25.7417 131.676 25.825C131.692 25.9083 131.626 26.0667 131.476 26.3C131.342 26.5833 131.184 26.8667 131.001 27.15C130.834 27.4333 130.676 27.7167 130.526 28C130.259 28.3667 130.209 28.575 130.376 28.625C130.542 28.675 131.009 28.6417 131.776 28.525C132.259 28.4417 132.609 28.4667 132.826 28.6C133.042 28.7167 133.167 28.9167 133.201 29.2C133.251 29.6 133.209 29.8417 133.076 29.925C132.942 30.0083 132.559 30.05 131.926 30.05C131.526 30.1167 131.184 30.1583 130.901 30.175C130.617 30.175 130.409 30.175 130.276 30.175C130.059 30.1917 129.917 30.2 129.851 30.2C129.784 30.2 129.684 30.2167 129.551 30.25C129.417 30.2833 129.317 30.3417 129.251 30.425C129.201 30.4917 129.142 30.5917 129.076 30.725C129.009 30.7917 128.909 30.9667 128.776 31.25C128.642 31.5333 128.476 31.8417 128.276 32.175C128.042 32.875 127.842 33.575 127.676 34.275C127.509 34.9583 127.376 35.625 127.276 36.275C127.209 36.6917 127.217 36.9833 127.301 37.15C127.384 37.3 127.601 37.3917 127.951 37.425C128.134 37.4417 128.426 37.4417 128.826 37.425C129.242 37.3917 129.567 37.3417 129.801 37.275C129.984 37.1917 130.176 37.1083 130.376 37.025C130.576 36.925 130.759 36.825 130.926 36.725C131.076 36.6417 131.226 36.5583 131.376 36.475C131.526 36.375 131.601 36.325 131.601 36.325C131.684 36.1917 131.776 36.15 131.876 36.2C131.976 36.25 132.059 36.375 132.126 36.575C132.126 36.775 132.084 36.9833 132.001 37.2C131.917 37.4167 131.609 37.675 131.076 37.975C130.326 38.4417 129.634 38.725 129.001 38.825C128.384 38.9083 127.859 38.9083 127.426 38.825ZM138.127 38.125C137.777 38.425 137.369 38.6 136.902 38.65C136.452 38.7 136.01 38.6333 135.577 38.45C135.144 38.25 134.785 37.95 134.502 37.55C134.219 37.1833 134.035 36.7667 133.952 36.3C133.869 35.8167 133.86 35.1917 133.927 34.425C133.977 33.775 134.185 33.125 134.552 32.475C134.919 31.8083 135.36 31.2167 135.877 30.7C136.41 30.1833 136.935 29.825 137.452 29.625C137.702 29.4583 137.91 29.3833 138.077 29.4C138.26 29.4 138.535 29.4167 138.902 29.45C139.285 29.5 139.569 29.575 139.752 29.675C139.952 29.775 140.11 29.9083 140.227 30.075C140.477 30.325 140.644 30.575 140.727 30.825C140.81 31.0583 140.852 31.2917 140.852 31.525C140.785 31.8917 140.535 32.3417 140.102 32.875C139.685 33.3917 139.135 33.8167 138.452 34.15C138.085 34.2667 137.685 34.3167 137.252 34.3C136.819 34.2833 136.46 34.175 136.177 33.975C135.86 33.8417 135.652 33.8667 135.552 34.05C135.452 34.2167 135.36 34.6333 135.277 35.3C135.21 35.9333 135.26 36.4 135.427 36.7C135.594 36.9833 135.819 37.15 136.102 37.2C136.435 37.2667 136.694 37.3167 136.877 37.35C137.077 37.3667 137.319 37.2917 137.602 37.125C137.869 36.9583 138.035 36.8667 138.102 36.85C138.169 36.8167 138.219 36.7833 138.252 36.75C138.302 36.7 138.41 36.5917 138.577 36.425C138.694 36.3083 138.785 36.225 138.852 36.175C138.919 36.1083 138.994 36.075 139.077 36.075C139.16 36.075 139.235 36.1167 139.302 36.2C139.369 36.2667 139.435 36.3167 139.502 36.35C139.669 36.35 139.702 36.45 139.602 36.65C139.519 36.85 139.344 37.0917 139.077 37.375C138.81 37.6417 138.494 37.8917 138.127 38.125ZM138.102 32.825C138.285 32.7417 138.477 32.625 138.677 32.475C138.877 32.3083 139.044 32.1333 139.177 31.95C139.327 31.75 139.402 31.5833 139.402 31.45C139.402 31.2167 139.294 31.025 139.077 30.875C138.86 30.7083 138.535 30.6833 138.102 30.8C137.919 30.85 137.71 30.975 137.477 31.175C137.244 31.3583 137.019 31.5667 136.802 31.8C136.602 32.0333 136.435 32.2417 136.302 32.425C136.185 32.6083 136.144 32.7167 136.177 32.75C136.227 32.8333 136.369 32.9 136.602 32.95C136.835 32.9833 137.094 32.9917 137.377 32.975C137.677 32.9583 137.919 32.9083 138.102 32.825ZM148.257 38.75C148.19 38.75 148.09 38.7417 147.957 38.725C147.84 38.6917 147.74 38.6167 147.657 38.5C147.407 38.2 147.249 37.95 147.182 37.75C147.115 37.55 147.107 37.2583 147.157 36.875C147.19 36.625 147.207 36.4083 147.207 36.225C147.224 36.025 147.24 35.8583 147.257 35.725C147.19 35.6583 147.065 35.7083 146.882 35.875C146.715 36.025 146.482 36.2167 146.182 36.45C145.615 37.1 145.107 37.6 144.657 37.95C144.224 38.2833 143.832 38.5083 143.482 38.625C143.132 38.725 142.799 38.7583 142.482 38.725C142.199 38.6917 141.974 38.575 141.807 38.375C141.64 38.1583 141.532 37.8833 141.482 37.55C141.449 37.2167 141.449 36.8583 141.482 36.475C141.549 35.925 141.665 35.4 141.832 34.9C142.015 34.4 142.307 33.8417 142.707 33.225C142.89 32.8917 143.132 32.5667 143.432 32.25C143.749 31.9167 144.09 31.625 144.457 31.375C144.84 31.1083 145.207 30.9167 145.557 30.8C145.94 30.65 146.332 30.5667 146.732 30.55C147.132 30.5167 147.49 30.55 147.807 30.65C148.007 30.75 148.165 30.8 148.282 30.8C148.415 30.8 148.515 30.7167 148.582 30.55C148.665 30.4167 148.749 30.2167 148.832 29.95C148.915 29.6667 149.015 29.425 149.132 29.225L149.682 27.6C149.865 27.15 150.065 26.675 150.282 26.175C150.499 25.675 150.757 25.0667 151.057 24.35C151.34 23.8167 151.574 23.5083 151.757 23.425C151.94 23.325 152.149 23.3917 152.382 23.625C152.565 23.8417 152.632 24.0917 152.582 24.375C152.532 24.6417 152.382 25.075 152.132 25.675C152.015 25.8583 151.915 26.0333 151.832 26.2C151.749 26.35 151.632 26.5917 151.482 26.925C151.265 27.4417 151.065 27.9083 150.882 28.325C150.699 28.725 150.507 29.1833 150.307 29.7C150.24 29.9667 150.149 30.275 150.032 30.625C149.932 30.975 149.849 31.2917 149.782 31.575C149.732 31.8417 149.674 32.0917 149.607 32.325C149.557 32.5417 149.499 32.65 149.432 32.65C149.299 32.8 149.174 33.0667 149.057 33.45C148.94 33.8167 148.84 34.2 148.757 34.6C148.69 35 148.632 35.3333 148.582 35.6C148.549 35.8 148.524 36.0583 148.507 36.375C148.49 36.6917 148.482 37 148.482 37.3C148.482 37.5833 148.482 37.7833 148.482 37.9C148.482 38.2667 148.474 38.5 148.457 38.6C148.44 38.7 148.374 38.75 148.257 38.75ZM142.932 37.175C143.282 37.175 143.649 37.025 144.032 36.725C144.432 36.425 144.832 36.0917 145.232 35.725C145.482 35.4917 145.749 35.1833 146.032 34.8C146.332 34.4167 146.615 34.0333 146.882 33.65C147.165 33.2667 147.39 32.9333 147.557 32.65C147.724 32.35 147.807 32.1667 147.807 32.1C147.807 32.0167 147.732 31.9583 147.582 31.925C147.432 31.8917 147.257 31.875 147.057 31.875C146.874 31.8583 146.724 31.8667 146.607 31.9C146.24 31.9833 145.874 32.15 145.507 32.4C145.157 32.65 144.774 33.025 144.357 33.525C143.924 34.0583 143.565 34.6083 143.282 35.175C143.015 35.7417 142.849 36.2167 142.782 36.6C142.715 36.9833 142.765 37.175 142.932 37.175ZM159.851 38.275C159.718 38.3083 159.543 38.325 159.326 38.325C159.109 38.3083 158.918 38.2833 158.751 38.25C158.601 38.2 158.526 38.15 158.526 38.1C158.526 38.0167 158.484 37.975 158.401 37.975C158.401 37.975 158.359 37.9417 158.276 37.875C158.209 37.8083 158.101 37.7417 157.951 37.675C157.801 37.4417 157.726 37.1917 157.726 36.925C157.726 36.6417 157.801 36.2 157.951 35.6C158.001 35.1833 158.159 34.7 158.426 34.15C158.709 33.5833 159.051 33.0083 159.451 32.425C159.851 31.8417 160.268 31.3167 160.701 30.85C161.151 30.3833 161.559 30.0417 161.926 29.825C162.159 29.5917 162.443 29.4667 162.776 29.45C163.109 29.4333 163.426 29.5083 163.726 29.675C163.893 29.7583 164.059 29.8917 164.226 30.075C164.393 30.2583 164.551 30.4583 164.701 30.675C164.851 30.8917 164.976 31.1083 165.076 31.325C165.126 31.5083 165.151 31.675 165.151 31.825C165.168 31.9583 165.168 32.125 165.151 32.325C165.151 32.525 165.126 32.825 165.076 33.225C164.993 33.525 164.918 33.8917 164.851 34.325C164.801 34.7583 164.776 35.1333 164.776 35.45C164.743 35.7667 164.776 35.9917 164.876 36.125C164.993 36.2583 165.159 36.2667 165.376 36.15C165.576 36.05 165.768 36.0083 165.951 36.025C166.134 36.025 166.276 36.075 166.376 36.175C166.493 36.275 166.551 36.425 166.551 36.625C166.551 36.825 166.451 37.0333 166.251 37.25C166.068 37.45 165.834 37.625 165.551 37.775C165.284 37.9083 165.026 37.975 164.776 37.975C164.593 37.975 164.418 37.8667 164.251 37.65C164.084 37.4167 163.934 37.1417 163.801 36.825C163.684 36.4917 163.576 36.175 163.476 35.875L163.326 35.3L162.251 36.325C162.034 36.5583 161.818 36.775 161.601 36.975C161.401 37.1583 161.276 37.2917 161.226 37.375C161.143 37.525 160.984 37.675 160.751 37.825C160.534 37.975 160.234 38.125 159.851 38.275ZM159.926 36.8C160.209 36.6333 160.534 36.3917 160.901 36.075C161.268 35.7417 161.626 35.3833 161.976 35C162.326 34.6 162.618 34.2333 162.851 33.9C163.134 33.5167 163.351 33.1583 163.501 32.825C163.651 32.4917 163.759 32.175 163.826 31.875C163.759 31.6917 163.651 31.5 163.501 31.3C163.351 31.0833 163.218 30.9667 163.101 30.95C162.734 30.95 162.343 31.1833 161.926 31.65C161.526 32.1 161.134 32.5917 160.751 33.125C160.684 33.2083 160.593 33.3417 160.476 33.525C160.359 33.7083 160.243 33.8833 160.126 34.05C160.026 34.2 159.959 34.3 159.926 34.35C159.876 34.4167 159.776 34.6083 159.626 34.925C159.493 35.225 159.359 35.5333 159.226 35.85C159.093 36.15 159.026 36.35 159.026 36.45C159.026 36.55 159.034 36.6583 159.051 36.775C159.084 36.8917 159.168 36.9667 159.301 37C159.434 37.0333 159.643 36.9667 159.926 36.8ZM170.01 40.25C169.46 40.1667 169.085 39.9583 168.885 39.625C168.702 39.3083 168.66 38.8167 168.76 38.15C168.86 37.8333 168.919 37.55 168.935 37.3C168.969 37.0333 169.044 36.8667 169.16 36.8C169.16 36.8 169.169 36.775 169.185 36.725C169.219 36.675 169.21 36.625 169.16 36.575C169.16 36.3583 169.235 36.0583 169.385 35.675C169.419 35.575 169.46 35.4583 169.51 35.325C169.577 35.175 169.61 35.1 169.61 35.1C169.527 34.9667 169.527 34.8583 169.61 34.775C169.694 34.6917 169.777 34.6167 169.86 34.55C169.96 34.4667 169.969 34.375 169.885 34.275C169.852 34.2083 169.894 34.0583 170.01 33.825C170.127 33.575 170.26 33.3167 170.41 33.05C170.56 32.7833 170.66 32.575 170.71 32.425C170.71 32.3917 170.752 32.275 170.835 32.075C170.919 31.875 171.019 31.6417 171.135 31.375C171.252 31.1083 171.36 30.8667 171.46 30.65C171.577 30.4333 171.652 30.2917 171.685 30.225C171.852 30.1417 171.785 30.0833 171.485 30.05C171.185 30.0167 170.869 30.0083 170.535 30.025C170.019 30.0083 169.602 29.9833 169.285 29.95C168.985 29.9167 168.735 29.8417 168.535 29.725C168.335 29.4917 168.26 29.325 168.31 29.225C168.377 29.1083 168.577 29.0417 168.91 29.025C169.127 29.0083 169.294 29 169.41 29C169.544 29 169.71 28.9917 169.91 28.975C170.127 28.9417 170.46 28.9 170.91 28.85L172.185 28.75L172.26 28.325C172.394 28.1083 172.502 27.9167 172.585 27.75C172.685 27.5667 172.769 27.3833 172.835 27.2C172.902 27.0167 172.952 26.825 172.985 26.625C172.985 26.625 173.06 26.4917 173.21 26.225C173.36 25.9417 173.452 25.65 173.485 25.35C173.685 25.0167 173.86 24.7167 174.01 24.45C174.16 24.1667 174.252 23.9917 174.285 23.925C174.469 23.775 174.594 23.7 174.66 23.7C174.744 23.7 174.91 23.7833 175.16 23.95C175.31 24.0333 175.444 24.1333 175.56 24.25C175.677 24.3667 175.752 24.4917 175.785 24.625C175.819 24.7417 175.769 24.8583 175.635 24.975C175.602 25.0417 175.552 25.1667 175.485 25.35C175.419 25.5167 175.369 25.6583 175.335 25.775C175.235 25.8917 175.11 26.0833 174.96 26.35C174.827 26.6 174.735 26.8583 174.685 27.125C174.552 27.4083 174.427 27.6667 174.31 27.9C174.194 28.1167 174.102 28.225 174.035 28.225C174.069 28.3917 174.169 28.475 174.335 28.475C174.502 28.4583 174.777 28.4417 175.16 28.425C175.477 28.3917 175.694 28.3583 175.81 28.325C175.944 28.275 176.094 28.2917 176.26 28.375C176.344 28.4917 176.41 28.625 176.46 28.775C176.51 28.925 176.519 29.0667 176.485 29.2C176.469 29.3167 176.402 29.4 176.285 29.45C176.202 29.45 176.027 29.5 175.76 29.6C175.51 29.6833 175.194 29.7333 174.81 29.75L173.485 29.875L173.06 30.725C172.944 30.9417 172.844 31.1417 172.76 31.325C172.677 31.4917 172.619 31.5917 172.585 31.625C172.585 31.725 172.527 31.875 172.41 32.075C172.31 32.275 172.202 32.4917 172.085 32.725C171.985 33.0083 171.869 33.2667 171.735 33.5C171.619 33.7333 171.56 33.85 171.56 33.85C171.494 33.85 171.46 33.9 171.46 34C171.544 34.2 171.519 34.35 171.385 34.45C171.302 34.5 171.227 34.575 171.16 34.675C171.11 34.7583 171.085 34.8 171.085 34.8C171.152 34.8667 171.16 34.95 171.11 35.05C171.077 35.15 171.027 35.2583 170.96 35.375C170.96 35.5083 170.919 35.7 170.835 35.95C170.769 36.2 170.694 36.4333 170.61 36.65C170.627 36.95 170.644 37.1417 170.66 37.225C170.677 37.3083 170.719 37.3417 170.785 37.325C170.869 37.3417 170.944 37.3417 171.01 37.325C171.077 37.3083 171.144 37.3 171.21 37.3C171.444 37.2 171.319 37.7833 170.835 39.05C170.569 39.4667 170.385 39.7667 170.285 39.95C170.185 40.15 170.094 40.25 170.01 40.25ZM184.016 37.875C183.766 37.875 183.533 37.725 183.316 37.425C183.116 37.1083 182.966 36.7083 182.866 36.225C182.783 35.725 182.758 35.2083 182.791 34.675C182.791 34.1417 182.816 33.7167 182.866 33.4C182.933 33.0667 183 32.7417 183.066 32.425C183.116 32.325 183.141 32.2417 183.141 32.175C183.158 32.1083 183.175 32 183.191 31.85C183.225 31.7 183.283 31.45 183.366 31.1C183.433 30.8167 183.5 30.5833 183.566 30.4C183.633 30.2167 183.7 30.0917 183.766 30.025C183.85 29.925 183.958 29.8667 184.091 29.85C184.225 29.8167 184.358 29.825 184.491 29.875C184.625 29.925 184.733 30.0167 184.816 30.15C184.916 30.2333 184.966 30.425 184.966 30.725C184.983 31.0083 184.966 31.3083 184.916 31.625C184.866 31.925 184.791 32.1417 184.691 32.275C184.658 32.3583 184.616 32.575 184.566 32.925C184.533 33.275 184.491 33.6417 184.441 34.025C184.408 34.4083 184.366 34.7167 184.316 34.95C184.266 35.25 184.291 35.4917 184.391 35.675C184.508 35.8583 184.716 35.8667 185.016 35.7C185.333 35.5167 185.75 35.05 186.266 34.3C186.616 33.8 186.883 33.3917 187.066 33.075C187.25 32.7583 187.391 32.4667 187.491 32.2C187.608 31.9167 187.725 31.6167 187.841 31.3C187.925 31.0333 188 30.8167 188.066 30.65C188.15 30.4667 188.225 30.35 188.291 30.3C188.408 30.2167 188.541 30.1833 188.691 30.2C188.858 30.2167 189.041 30.2917 189.241 30.425C189.441 30.625 189.541 30.8667 189.541 31.15C189.541 31.4167 189.441 31.75 189.241 32.15C189.108 32.4167 188.975 32.7583 188.841 33.175C188.725 33.5917 188.625 34.0167 188.541 34.45C188.475 34.8667 188.441 35.2083 188.441 35.475C188.441 35.8083 188.483 36.0083 188.566 36.075C188.666 36.125 188.783 36.15 188.916 36.15C189.116 36.15 189.358 36.075 189.641 35.925C189.925 35.775 190.241 35.5167 190.591 35.15C190.741 35 190.925 34.7833 191.141 34.5C191.358 34.2 191.566 33.8917 191.766 33.575C191.983 33.2417 192.158 32.95 192.291 32.7C192.441 32.45 192.516 32.2917 192.516 32.225C192.516 32.125 192.591 31.9833 192.741 31.8C192.841 31.6667 192.916 31.5667 192.966 31.5C193.033 31.4167 193.15 31.3333 193.316 31.25C193.45 31.1833 193.566 31.175 193.666 31.225C193.766 31.2583 193.875 31.3417 193.991 31.475C194.075 31.5417 194.116 31.6417 194.116 31.775C194.133 31.9083 194.141 32.075 194.141 32.275C194.091 32.4583 194.008 32.7 193.891 33C193.791 33.2833 193.675 33.5583 193.541 33.825C193.425 34.075 193.325 34.25 193.241 34.35C193.175 34.4167 193.058 34.5417 192.891 34.725C192.725 34.8917 192.575 35.075 192.441 35.275C192.025 35.775 191.725 36.1 191.541 36.25C191.358 36.4 191.2 36.5417 191.066 36.675C190.716 37.025 190.35 37.2917 189.966 37.475C189.583 37.6417 189.216 37.725 188.866 37.725C188.533 37.725 188.25 37.6417 188.016 37.475C187.5 37.2083 187.241 36.7583 187.241 36.125C187.241 35.9917 187.216 35.875 187.166 35.775C187.133 35.6583 187.116 35.6 187.116 35.6C187.05 35.6 186.958 35.6167 186.841 35.65C186.741 35.6833 186.633 35.8 186.516 36C186.366 36.2833 186.125 36.575 185.791 36.875C185.475 37.1583 185.15 37.4 184.816 37.6C184.483 37.7833 184.216 37.875 184.016 37.875ZM197.531 38.85C197.315 38.8667 197.14 38.85 197.006 38.8C196.873 38.7333 196.706 38.6417 196.506 38.525C196.14 38.2417 195.865 37.9583 195.681 37.675C195.515 37.375 195.44 37.0833 195.456 36.8C195.49 36.65 195.49 36.5167 195.456 36.4C195.44 36.2833 195.431 36.225 195.431 36.225C195.331 36.1417 195.298 36.0917 195.331 36.075C195.365 36.0417 195.39 35.9917 195.406 35.925C195.54 35.8917 195.556 35.8 195.456 35.65C195.406 35.5167 195.431 35.2167 195.531 34.75C195.648 34.2667 195.798 33.8167 195.981 33.4C196.065 33.2167 196.181 32.975 196.331 32.675C196.498 32.375 196.681 32.075 196.881 31.775C197.081 31.4583 197.265 31.2083 197.431 31.025C197.798 30.6083 198.123 30.3 198.406 30.1C198.706 29.8833 199.04 29.7083 199.406 29.575C199.74 29.4417 199.981 29.3667 200.131 29.35C200.281 29.3333 200.49 29.4333 200.756 29.65C201.156 29.7667 201.456 29.9333 201.656 30.15C201.873 30.35 202.04 30.6667 202.156 31.1C202.29 31.5833 202.331 32.1583 202.281 32.825C202.248 33.475 201.965 34.3167 201.431 35.35C201.115 36 200.798 36.4917 200.481 36.825C200.181 37.1583 199.815 37.5083 199.381 37.875C199.065 38.1417 198.773 38.35 198.506 38.5C198.24 38.65 197.915 38.7667 197.531 38.85ZM199.531 35.875C199.865 35.375 200.123 34.9167 200.306 34.5C200.506 34.0667 200.665 33.525 200.781 32.875C200.815 32.6917 200.823 32.4667 200.806 32.2C200.79 31.9167 200.748 31.6583 200.681 31.425C200.631 31.1917 200.556 31.0667 200.456 31.05C200.24 30.9667 199.998 30.9667 199.731 31.05C199.465 31.1167 199.173 31.3167 198.856 31.65C198.573 31.9833 198.315 32.3583 198.081 32.775C197.865 33.1917 197.665 33.65 197.481 34.15C197.298 34.65 197.123 35.1833 196.956 35.75C196.79 36.3833 196.798 36.8667 196.981 37.2C197.181 37.5333 197.506 37.6167 197.956 37.45C198.406 37.2667 198.931 36.7417 199.531 35.875ZM205.345 38.225C205.295 38.2417 205.211 38.2333 205.095 38.2C204.978 38.1667 204.861 38.125 204.745 38.075C204.628 38.025 204.553 37.9833 204.52 37.95C204.453 37.8833 204.386 37.7833 204.32 37.65C204.27 37.5167 204.27 37.325 204.32 37.075C204.37 36.8083 204.536 36.4667 204.82 36.05C204.903 35.8833 205.003 35.6333 205.12 35.3C205.236 34.9667 205.353 34.6167 205.47 34.25C205.603 33.8667 205.72 33.525 205.82 33.225C205.936 32.925 206.02 32.7167 206.07 32.6C206.103 32.3167 206.086 32.1167 206.02 32C205.97 31.8667 205.828 31.7917 205.595 31.775C205.428 31.775 205.295 31.7583 205.195 31.725C205.111 31.6917 205.07 31.525 205.07 31.225C205.103 30.9917 205.161 30.8333 205.245 30.75C205.345 30.65 205.478 30.5417 205.645 30.425C205.811 30.3417 205.978 30.2833 206.145 30.25C206.328 30.2167 206.503 30.2083 206.67 30.225C206.836 30.2417 206.97 30.3 207.07 30.4C207.186 30.4667 207.261 30.6167 207.295 30.85C207.328 31.0667 207.345 31.2917 207.345 31.525C207.361 31.7583 207.378 31.9333 207.395 32.05C207.561 31.9167 207.786 31.7333 208.07 31.5C208.37 31.25 208.628 31.0167 208.845 30.8C209.111 30.6167 209.428 30.4333 209.795 30.25C210.161 30.05 210.428 29.95 210.595 29.95C210.778 29.95 210.961 30 211.145 30.1C211.328 30.1833 211.453 30.2917 211.52 30.425C211.686 30.7083 211.761 30.9583 211.745 31.175C211.745 31.3917 211.653 31.6167 211.47 31.85C211.303 32.0667 211.095 32.2167 210.845 32.3C210.611 32.3833 210.461 32.425 210.395 32.425C210.295 32.425 210.17 32.35 210.02 32.2C209.87 32.05 209.786 31.925 209.77 31.825C209.77 31.775 209.661 31.825 209.445 31.975C209.245 32.1083 209.02 32.2833 208.77 32.5C208.52 32.7 208.311 32.8833 208.145 33.05C207.861 33.4 207.561 33.875 207.245 34.475C206.928 35.075 206.553 35.8 206.12 36.65C205.92 37.0667 205.778 37.425 205.695 37.725C205.611 38.0083 205.495 38.175 205.345 38.225ZM219.279 39.05C219.212 39.1167 219.029 39.1417 218.729 39.125C218.445 39.1083 218.179 39.0417 217.929 38.925C217.895 38.875 217.837 38.825 217.754 38.775C217.67 38.7083 217.587 38.6333 217.504 38.55C217.437 38.4667 217.379 38.3917 217.329 38.325C217.295 38.275 217.212 38.1833 217.079 38.05C216.945 37.9 216.812 37.7583 216.679 37.625C216.545 37.4917 216.454 37.4 216.404 37.35C216.337 37.2167 216.204 37.05 216.004 36.85C215.804 36.6333 215.612 36.4333 215.429 36.25C215.312 36.0833 215.195 35.9417 215.079 35.825C214.962 35.7083 214.862 35.625 214.779 35.575C214.695 35.5083 214.629 35.475 214.579 35.475C214.579 35.475 214.545 35.5833 214.479 35.8C214.429 36 214.354 36.2583 214.254 36.575C214.17 36.875 214.079 37.1833 213.979 37.5C213.895 37.8 213.829 38.0417 213.779 38.225C213.662 38.4583 213.562 38.6167 213.479 38.7C213.395 38.7833 213.287 38.825 213.154 38.825C212.97 38.825 212.804 38.7417 212.654 38.575C212.52 38.4083 212.454 38.1667 212.454 37.85C212.387 37.6167 212.47 37.1083 212.704 36.325C212.937 35.5417 213.295 34.5417 213.779 33.325C213.845 33.075 213.929 32.8167 214.029 32.55C214.129 32.2667 214.212 32.0333 214.279 31.85C214.445 31.3 214.62 30.7917 214.804 30.325C215.004 29.8417 215.212 29.3583 215.429 28.875C215.645 28.375 215.87 27.8417 216.104 27.275C216.254 26.975 216.362 26.7583 216.429 26.625C216.495 26.475 216.57 26.325 216.654 26.175C216.737 26.0083 216.862 25.7667 217.029 25.45C217.395 24.7667 217.687 24.2333 217.904 23.85C218.12 23.4667 218.287 23.1833 218.404 23C218.52 22.8167 218.62 22.6833 218.704 22.6C218.787 22.5167 218.887 22.4583 219.004 22.425C219.12 22.3917 219.237 22.3917 219.354 22.425C219.47 22.4417 219.57 22.5 219.654 22.6C219.787 22.7333 219.862 22.875 219.879 23.025C219.912 23.1583 219.879 23.3417 219.779 23.575C219.695 23.8083 219.529 24.1333 219.279 24.55C219.145 24.85 219.037 25.0667 218.954 25.2C218.87 25.3333 218.787 25.4667 218.704 25.6C218.62 25.7333 218.487 25.9667 218.304 26.3C218.27 26.4 218.22 26.5083 218.154 26.625C218.087 26.7417 218.012 26.8 217.929 26.8C217.929 26.85 217.904 26.95 217.854 27.1C217.804 27.25 217.745 27.3917 217.679 27.525C217.629 27.7083 217.545 27.9083 217.429 28.125C217.329 28.325 217.254 28.4917 217.204 28.625C217.12 28.825 216.987 29.1 216.804 29.45C216.637 29.8 216.47 30.1417 216.304 30.475C216.154 30.7917 216.062 31.0417 216.029 31.225C216.029 31.2917 216.079 31.2833 216.179 31.2C216.279 31.1167 216.387 31.0417 216.504 30.975C216.754 30.775 217.037 30.575 217.354 30.375C217.687 30.1583 218.004 29.975 218.304 29.825C218.62 29.6583 218.879 29.5583 219.079 29.525C219.329 29.4583 219.529 29.425 219.679 29.425C219.845 29.425 220.012 29.4583 220.179 29.525C220.312 29.5917 220.42 29.6833 220.504 29.8C220.604 29.9167 220.687 30.05 220.754 30.2C220.837 30.35 220.895 30.5333 220.929 30.75C220.929 30.9 220.87 31.15 220.754 31.5C220.637 31.85 220.495 32.1917 220.329 32.525C220.162 32.8417 219.995 33.0667 219.829 33.2C219.712 33.25 219.62 33.3 219.554 33.35C219.487 33.4 219.454 33.425 219.454 33.425C219.454 33.4917 219.42 33.575 219.354 33.675C219.304 33.775 219.212 33.8583 219.079 33.925C219.012 33.9917 218.937 34.075 218.854 34.175C218.77 34.275 218.729 34.35 218.729 34.4C218.729 34.4 218.729 34.425 218.729 34.475C218.729 34.5083 218.729 34.525 218.729 34.525C218.662 34.525 218.562 34.575 218.429 34.675C218.312 34.775 218.162 34.8917 217.979 35.025C217.795 35.2083 217.662 35.3083 217.579 35.325C217.512 35.3417 217.412 35.375 217.279 35.425C217.245 35.4583 217.204 35.4833 217.154 35.5C217.12 35.5167 217.079 35.5333 217.029 35.55C216.995 35.5667 216.962 35.5833 216.929 35.6C216.912 35.6167 216.904 35.6417 216.904 35.675C216.904 35.7417 216.979 35.8833 217.129 36.1C217.295 36.3 217.487 36.525 217.704 36.775C217.937 37.025 218.154 37.2583 218.354 37.475C218.57 37.675 218.729 37.8083 218.829 37.875C218.995 37.9417 219.112 38.0583 219.179 38.225C219.262 38.375 219.312 38.5333 219.329 38.7C219.345 38.85 219.329 38.9667 219.279 39.05ZM216.279 34.625C216.362 34.5583 216.537 34.425 216.804 34.225C217.07 34.0083 217.362 33.775 217.679 33.525C217.995 33.2583 218.279 33.0083 218.529 32.775C218.795 32.525 218.979 32.3417 219.079 32.225C219.195 32.1083 219.312 31.9083 219.429 31.625C219.545 31.3417 219.562 31.1167 219.479 30.95C219.462 30.8833 219.312 30.9167 219.029 31.05C218.745 31.1833 218.42 31.3417 218.054 31.525C217.77 31.6917 217.437 31.9083 217.054 32.175C216.687 32.4417 216.337 32.725 216.004 33.025C215.687 33.325 215.445 33.6167 215.279 33.9C215.245 34.0167 215.279 34.15 215.379 34.3C215.479 34.45 215.612 34.5667 215.779 34.65C215.945 34.7167 216.112 34.7083 216.279 34.625Z" fill="black"/>
<path d="M231.306 98.4814C231.033 98.4411 230.844 98.1869 230.884 97.9137L231.542 93.4621C231.583 93.1889 231.837 93.0002 232.11 93.0406C232.383 93.0809 232.572 93.3351 232.532 93.6083L231.947 97.5653L235.904 98.1502C236.177 98.1906 236.366 98.4447 236.325 98.7179C236.285 98.9911 236.031 99.1798 235.757 99.1394L231.306 98.4814ZM229.548 45.6217C236.969 49.0755 246.071 55.8694 249.021 65.0537C250.503 69.6674 250.422 74.8593 247.827 80.4779C245.238 86.0841 240.156 92.0927 231.677 98.3883L231.081 97.5854C239.478 91.3508 244.423 85.4631 246.919 80.0586C249.41 74.6666 249.474 69.7334 248.069 65.3595C245.245 56.5685 236.45 49.9367 229.126 46.5283L229.548 45.6217Z" fill="black"/>
</svg>
