<svg width="375" height="262" viewBox="0 0 375 262" fill="none" xmlns="http://www.w3.org/2000/svg">
<path d="M6.9484 202.726C2.68915 204.236 -1.0613 203.977 -4.30539 201.957C-7.54454 199.931 -9.57252 196.967 -10.3885 193.064C-11.2709 188.844 -10.9995 183.647 -9.57956 177.479C-8.15522 171.307 -6.07523 164.706 -3.34491 157.677C-0.609488 150.646 2.36077 143.729 5.56485 136.926C8.76893 130.123 11.7821 123.927 14.6032 118.338C17.4238 112.748 19.5491 108.285 20.9788 104.944C20.054 105.611 18.8011 106.479 17.216 107.551C15.6314 108.624 14.1111 109.618 12.6522 110.53C11.1934 111.446 10.2167 111.987 9.72436 112.161C9.0305 112.407 8.40686 112.35 7.85085 111.977C7.29555 111.607 6.84878 111.141 6.52068 110.579C5.7389 110.405 5.32854 110.211 5.28372 109.999C5.09545 109.614 4.94126 109.269 4.82663 108.97C4.71303 108.671 4.63366 108.417 4.58939 108.203C4.2368 106.518 4.90383 105.403 6.59911 104.857C8.29487 104.313 9.95171 103.583 11.5703 102.67C13.189 101.757 14.8113 100.615 16.4415 99.2426C18.0672 97.8745 18.9141 96.8353 18.9791 96.1341C19.2222 95.2565 19.3936 94.7965 19.4937 94.7603C19.7905 94.655 20.2344 95.0075 20.8295 95.8169C21.092 96.0636 21.3035 96.558 21.4573 97.2941C21.6345 98.1406 21.5981 99.0013 21.3601 99.8777L24.0847 98.4024C26.6365 92.2879 29.3264 85.9494 32.16 79.3922C34.9897 72.8368 37.685 66.5261 40.2471 60.4606C42.8097 54.3972 45.1186 49.0178 47.1707 44.3229C49.2224 39.6313 50.7134 36.2116 51.6477 34.0682C51.6039 33.8565 51.481 33.7853 51.2844 33.8546C50.8873 33.995 50.241 34.9641 49.3361 36.7576C47.1704 41.153 44.986 45.6064 42.7948 50.1234C40.5985 54.6417 38.7441 58.3602 37.2255 61.2771C35.707 64.194 34.9425 65.6021 34.9198 65.4949C34.8977 65.3907 35.3725 64.1183 36.3514 61.672C37.3315 59.2307 38.5731 56.2688 40.0814 52.785C41.5855 49.3065 43.1183 45.8171 44.6738 42.3192C46.2305 38.8221 47.5544 35.8582 48.6405 33.4341C49.7326 31.0075 50.3234 29.7769 50.4235 29.7408C50.6982 29.5312 51.2699 29.5828 52.132 29.8993C52.9956 30.2176 53.648 30.4134 54.0893 30.4814C55.0456 30.4822 56.4023 30.9948 58.1573 32.0151C59.9123 33.0354 61.4939 34.23 62.9005 35.6003C64.3032 36.9726 64.9162 38.2614 64.7389 39.4549C63.6148 41.2114 62.1264 43.7536 60.2704 47.0726C58.4101 50.3958 56.3324 54.0783 54.0418 58.121C51.7457 62.1629 49.495 66.2758 47.2855 70.4594C45.0704 74.6422 43.0132 78.5472 41.1122 82.1671C39.2117 85.7891 37.7517 88.7406 36.7432 91.0224C38.6104 89.7965 40.7777 88.4613 43.2469 87.0196C45.711 85.579 48.2001 84.1305 50.7116 82.6724C53.2283 81.2132 55.4606 79.9401 57.4173 78.85C59.3641 77.7633 60.6791 77.0419 61.351 76.6919C61.7258 76.4462 62.2123 76.2142 62.8058 76.0035C63.6961 75.6874 64.1862 75.744 64.2731 76.1644C64.3617 76.5876 64.1115 77.1849 63.5324 77.9573C62.9482 78.7308 62.2313 79.3818 61.3852 79.9064C61.2848 79.9415 60.4628 80.4636 58.9189 81.4622C57.37 82.4629 55.5939 83.6322 53.5852 84.966C51.5771 86.3017 49.7884 87.5329 48.2142 88.6553C46.893 89.466 45.1475 90.536 42.9802 91.8712C40.8133 93.2084 38.883 94.4029 37.1863 95.4562C35.4941 96.5106 34.6599 97.0913 34.6813 97.1925C35.5716 96.8764 37.0878 96.1147 39.2297 94.9012C41.3672 93.6919 43.6221 92.3825 45.9866 90.9758C48.3511 89.5733 50.3078 88.4832 51.8481 87.7095C50.5701 88.7289 48.8182 89.8872 46.5909 91.186C44.3602 92.4887 42.0966 93.8581 39.7911 95.2972C37.4813 96.7405 35.5771 98.1818 34.0687 99.6202C33.2991 101.03 32.4307 102.726 31.4628 104.711C30.4952 106.697 29.3691 108.935 28.0817 111.432C28.3785 111.326 28.6387 111.295 28.8571 111.329C31.6522 111.471 34.4333 111.789 37.198 112.281C39.9588 112.775 42.3132 113.61 44.2609 114.789C46.2086 115.968 47.3382 117.807 47.6494 120.303C48.3324 125.613 47.835 132.136 46.1519 139.872C47.0762 137.163 47.8186 134.466 48.3712 131.775C48.9246 129.088 49.2687 126.526 49.3995 124.101C49.7542 128.848 49.082 134.017 47.3763 139.607C45.6707 145.197 43.5947 150.806 41.1562 156.428C42.3552 153.509 43.3535 150.661 44.1561 147.886C44.958 145.107 45.6242 142.439 46.1519 139.872C44.4296 145.353 42.4917 150.345 40.347 154.845C38.1985 159.347 36.7546 162.35 36.0071 163.863C34.6455 166.498 33.1294 169.305 31.463 172.274C29.7966 175.244 28.1684 178.031 26.5891 180.631C24.9999 183.234 23.7403 185.323 22.7913 186.908C21.8467 188.489 21.4584 189.19 21.6383 189.016C23.0454 187.609 24.768 185.298 26.8102 182.082C28.852 178.865 30.8063 175.623 32.6769 172.353C33.7506 170.384 34.9141 168.302 36.1569 166.104C37.3988 163.907 38.588 161.7 39.7195 159.489C38.5538 162.052 37.3946 164.647 36.2407 167.265C35.0869 169.884 33.7744 172.531 32.3162 175.199C27.0555 184.656 22.2546 191.346 17.9172 195.263C13.5749 199.182 9.92137 201.667 6.94848 202.721L6.9484 202.726ZM1.69879 200.508C4.36881 199.561 7.16441 197.267 10.0744 193.629C12.9836 189.989 15.7945 185.508 18.5116 180.183C21.2286 174.859 23.7716 169.197 26.1327 163.205C28.4982 157.209 30.5385 151.33 32.2634 145.564C33.9833 139.799 35.2115 134.605 35.9458 129.982C36.6816 125.36 36.8082 121.885 36.3225 119.562C35.8598 117.348 35.0178 116.003 33.8031 115.528C32.5882 115.052 31.3888 114.796 30.2089 114.762C29.6717 114.725 29.1201 114.496 28.5535 114.074C27.9823 113.654 27.6046 113.249 27.4207 112.86C25.0413 117.783 22.427 123.328 19.5687 129.496C16.7049 135.669 13.9869 141.873 11.4101 148.111C8.82894 154.353 6.60718 160.126 4.73533 165.435C4.44787 166.104 3.86776 167.755 2.98072 170.394C2.09657 173.026 1.138 176.087 0.112521 179.568C-0.918289 183.049 -1.72385 186.45 -2.30345 189.774C-2.88376 193.095 -2.96484 195.757 -2.54624 197.763C-2.32638 198.816 -1.83624 199.636 -1.07746 200.216C-0.317971 200.798 0.608049 200.895 1.69879 200.508ZM39.7184 159.494L41.1551 156.433L41.2707 156.223C40.4661 157.981 39.9536 159.068 39.7184 159.494Z" fill="#77389A"/>
<path d="M85.4505 126.882C83.3055 126.282 81.3429 125.307 79.5742 123.95C77.8015 122.599 76.9192 121.182 76.9285 119.705C76.9038 118.581 77.2324 116.707 77.9079 114.088C78.5837 111.469 79.4301 108.508 80.4402 105.201C81.4509 101.897 82.4751 98.5313 83.5157 95.1015C84.5529 91.6757 85.4878 88.6232 86.3124 85.9521C86.443 85.5659 86.2522 86.0583 85.7424 87.4298C85.2322 88.7994 84.5867 90.5583 83.8116 92.7023C83.0366 94.8472 82.314 96.9725 81.6344 99.0835C80.9595 101.192 80.4593 102.758 80.1425 103.776C80.0318 103.248 80.2443 102.1 80.7774 100.32C81.3068 98.5475 81.9368 96.597 82.664 94.4685C83.3914 92.341 84.0824 90.311 84.742 88.3772C85.4016 86.4434 85.8637 85.0883 86.1291 84.3159C84.1152 88.4306 81.7872 93.0802 79.1492 98.2638C76.5064 103.45 73.8801 108.545 71.2529 113.558C68.6291 118.567 66.3036 122.958 64.2775 126.738C62.2453 130.519 60.8864 133.041 60.1947 134.305C57.321 134.305 55.1316 133.496 53.622 131.877C52.1121 130.26 51.1629 128.5 50.767 126.601C50.5467 125.546 50.485 124.489 50.583 123.435C51.1623 120.624 52.0403 117.054 53.2137 112.729C54.3819 108.406 55.6579 103.958 57.0458 99.3878C58.4291 94.815 59.7138 90.5352 60.906 86.546C62.0925 82.556 62.9931 79.49 63.6084 77.3424C63.3543 76.6414 62.8457 75.8579 62.0794 74.9961C61.3131 74.1342 60.8533 73.3341 60.6988 72.5949C60.5223 71.7515 61.128 71.0845 62.5168 70.5926L63.6315 70.1975C64.0761 70.0396 64.6204 69.9593 65.2577 69.9603C65.9688 69.8209 67.1261 69.7526 68.7242 69.7502C70.3183 69.7541 71.8427 70.0358 73.2914 70.5977C74.7352 71.1618 75.6389 72.2866 75.9912 73.9746C76.2342 75.137 76.1273 76.4204 75.6758 77.8256C74.7975 79.7244 73.8262 82.333 72.7679 85.6544C71.7053 88.9799 70.6793 92.4589 69.6818 96.0973C68.6899 99.7366 67.7908 103.086 66.9958 106.144C66.1963 109.206 65.6736 111.4 65.4179 112.738C66.1023 111.928 67.2628 110.102 68.9035 107.253C70.5394 104.407 72.4127 101.024 74.5181 97.1042C76.6235 93.1849 78.7522 89.2269 80.8957 85.2397C83.0383 81.2496 84.9823 77.8147 86.7237 74.9275C86.6358 74.5074 86.9152 73.1893 87.5683 70.973C88.2266 68.7608 89.0482 66.3445 90.0471 63.7209C91.0373 61.1057 91.933 59.1429 92.7253 57.8407C94.1231 57.9149 95.6834 58.125 97.4079 58.4771C99.1313 58.8294 100.665 59.304 102.014 59.902C103.363 60.502 104.135 61.2746 104.334 62.2253C104.423 62.6485 104.373 63.1746 104.187 63.8074C101.933 69.8196 99.8032 75.4201 97.802 80.6027C95.8021 85.7904 94.1454 90.0879 92.8379 93.4972C91.5311 96.9095 90.8037 99.0369 90.6607 99.8784C91.3009 98.8604 92.0255 97.752 92.8396 96.5574C94.0927 94.4128 96.0074 91.8649 98.5821 88.9118C101.714 85.08 105.403 80.9686 109.646 76.5744C113.889 72.1821 118.498 68.1412 123.469 64.4516C124.296 63.8155 124.953 63.4133 125.451 63.2365C126.341 62.9204 126.621 63.2489 126.292 64.2138C125.96 65.1809 125.376 66.324 124.535 67.6396C123.695 68.9581 122.783 70.0759 121.802 70.9909C117.051 75.7335 112.637 80.5858 108.568 85.541C104.5 90.4961 100.901 95.6811 97.7762 101.096C95.4215 105.103 93.3773 109.314 91.6403 113.723C89.9006 118.14 87.8351 122.527 85.4505 126.882ZM92.2612 97.6104C92.2839 97.7177 92.5635 97.5337 93.102 97.0581C93.6411 96.5856 94.036 96.1905 94.289 95.8734C96.0183 93.4479 98.2839 90.6898 101.097 87.5957C103.909 84.5015 106.673 81.5666 109.393 78.7878C112.108 76.0153 114.096 74.0626 115.351 72.9381C116.074 72.3393 117.032 71.4361 118.213 70.2239C119.394 69.0137 119.76 68.5997 119.311 68.9838C117.91 69.935 116.028 71.4805 113.66 73.6236C111.286 75.7679 108.759 78.1941 106.082 80.8989C103.4 83.6078 100.905 86.2755 98.5821 88.9118C97.4934 90.316 96.4701 91.6738 95.5179 92.9723C94.5662 94.2729 93.6762 95.469 92.8396 96.5574C92.6829 96.8403 92.5303 97.1223 92.377 97.4012L92.2612 97.6104Z" fill="#77389A"/>
<path d="M115.287 112.729C112.686 111.499 110.788 110.161 109.581 108.718C108.375 107.276 108.219 107.05 107.888 105.468C107.757 104.836 107.706 104.202 107.733 103.568C107.76 102.936 107.754 102.287 107.722 101.617C107.889 99.8578 108.489 96.7564 109.529 92.3095C110.568 87.8616 109.843 90.6007 111.456 84.8157C113.064 79.0329 114.833 73.1088 116.758 67.0414C118.682 60.9792 120.564 55.4664 122.396 50.5105C121.551 51.0371 120.669 51.5195 119.748 51.9585C118.828 52.3995 117.924 52.7744 117.034 53.0905C114.555 53.9695 112.315 54.5658 110.305 54.8827C108.299 55.1973 107.135 55.3552 106.815 55.3533C105.78 55.496 105.01 55.005 104.512 53.8759C104.01 52.7534 103.674 51.5395 103.51 50.2366C103.192 50.2377 102.957 50.1505 102.817 49.973C102.672 49.7976 102.539 49.6743 102.421 49.604C102.377 49.3923 102.309 49.1915 102.212 48.9964C102.121 48.8044 102.053 48.6014 102.008 48.3899C101.788 47.3368 101.917 46.5524 102.397 46.0431C102.872 45.5351 103.46 45.1541 104.154 44.9082C104.944 44.6283 105.827 44.403 106.803 44.2266C107.775 44.0524 108.758 43.7887 109.748 43.4375C111.433 42.8405 113.175 42.0253 114.982 40.9849C116.786 39.9506 117.773 39.0623 117.937 38.3252C118.101 37.5849 118.331 37.1638 118.628 37.0595C118.824 36.9902 119.242 37.4657 119.882 38.4846C119.904 38.5919 119.95 38.6873 120.024 38.7732C120.094 38.863 120.151 39.0126 120.195 39.2223C120.393 40.1732 120.206 41.3175 119.636 42.6506L126.026 40.3852C127.225 37.4685 128.536 34.1999 129.959 30.5775C131.381 26.9571 136.701 13.4366 137.231 11.8898C136.746 11.6101 136.439 11.1496 136.307 10.518C136.13 9.67455 136.179 8.75097 136.447 7.74736C136.717 6.7458 136.804 6.03614 136.716 5.61291C136.65 5.29696 136.501 4.95306 136.264 4.58467C136.028 4.21706 135.874 3.87129 135.807 3.55558C135.63 2.71217 135.987 2.13078 136.882 1.81373C137.078 1.74448 137.593 1.67636 138.432 1.60388C139.808 1.57054 141.645 1.82565 143.938 2.37266C146.232 2.92045 148.29 3.71823 150.105 4.775C151.924 5.82981 152.711 7.30861 152.47 9.20614C151.954 10.2984 151.046 12.2051 149.754 14.9268C148.463 17.6536 141.106 32.8866 139.906 35.8023C142.538 34.6444 145.252 33.5124 148.053 32.4053C150.855 31.3001 153.36 30.2992 155.562 29.4038C157.771 28.5083 159.22 27.9381 159.913 27.6913C161.698 27.0581 162.643 27.0079 162.754 27.5333C162.842 27.9565 162.534 28.5202 161.831 29.2204C161.126 29.9245 160.349 30.5401 159.503 31.0647C159.381 30.9986 158.039 31.5837 155.483 32.8323C152.922 34.08 150.389 35.3168 147.881 36.5456C146.716 37.0734 145.232 37.7398 143.432 38.5469C141.632 39.3551 139.904 40.1123 138.241 40.8148L137.779 41.6575C139.934 40.7806 142.357 39.7796 145.052 38.6541C147.742 37.5309 149.879 36.6884 151.463 36.1264C149.844 37.0394 147.664 38.0679 144.926 39.2076C142.188 40.3484 139.574 41.5899 137.088 42.9232C135.591 45.9453 133.986 49.6048 132.275 53.8903C130.566 58.1809 128.8 62.7171 126.982 67.4948C125.165 72.2786 123.444 76.9095 121.827 81.3931C120.214 85.8745 120.036 85.4612 118.756 88.9735C117.466 92.4912 117.238 91.6725 116.535 93.3946C117.813 92.3752 131.585 82.3816 135.836 77.0205C140.087 71.6615 143.821 66.9952 147.031 63.0232C149.078 60.5967 151.075 58.0499 153.015 55.3772C154.955 52.7076 156.807 49.9813 158.569 47.2039C158.721 46.9232 158.846 46.8791 158.938 47.0734C159.03 47.2674 159.002 47.5054 158.85 47.7831L154.327 55.1658C154.511 55.5551 154.646 55.9309 154.724 56.301L154.971 57.4861C155.169 58.437 155.233 59.3784 155.16 60.3097C155.094 61.2428 154.763 62.0937 154.178 62.8672C152.737 64.6266 150.588 67.4284 147.721 71.2748C144.855 75.1243 122.803 99.5832 120.253 103.66C117.697 107.736 116.042 110.76 115.286 112.728L115.287 112.729ZM115.119 97.2943L121.257 90.0209L115.793 95.1857L115.119 97.2943Z" fill="#77389A"/>
<path d="M171.695 96.9497C169.545 96.3513 167.588 95.3748 165.814 94.019C164.041 92.6683 163.164 91.2491 163.173 89.7729C163.149 88.6487 163.477 86.7746 164.153 84.1554C164.824 81.5381 165.67 78.5771 166.685 75.269C167.691 71.9663 168.72 68.5991 169.755 65.1705C170.797 61.7438 171.727 58.6922 172.552 56.0211C172.683 55.6349 172.497 56.1251 171.987 57.4977C171.472 58.8684 170.826 60.6274 170.056 62.7701C169.281 64.9151 168.554 67.0425 167.879 69.1514C167.199 71.2624 166.704 72.8257 166.387 73.8437C166.277 73.3163 166.484 72.1693 167.017 70.3903C167.551 68.6156 168.182 66.6648 168.909 64.5374C169.631 62.4111 170.327 60.3798 170.987 58.4461C171.642 56.5135 172.105 55.1591 172.369 54.386C170.36 58.4984 168.032 63.148 165.394 68.3327C162.751 73.5186 160.121 78.6147 157.498 83.6265C154.874 88.6354 152.544 93.0293 150.517 96.8081C148.49 100.587 147.126 103.111 146.435 104.375C143.561 104.375 141.372 103.566 139.866 101.946C138.356 100.329 137.403 98.5706 137.006 96.671C136.786 95.6159 136.724 94.5593 136.822 93.5053C137.406 90.6918 138.279 87.124 139.453 82.7993C140.626 78.4736 141.901 74.0278 143.285 69.4581C144.668 64.8853 145.958 60.6043 147.145 56.6163C148.331 52.6263 149.232 49.5603 149.847 47.4127C149.598 46.7095 149.085 45.9282 148.323 45.0652C147.557 44.2033 147.097 43.4032 146.943 42.664C146.766 41.8206 147.368 41.1555 148.761 40.6617L149.871 40.2676C150.321 40.1085 150.86 40.0294 151.498 40.0303C152.214 39.8887 153.371 39.8204 154.964 39.8203C156.563 39.823 158.083 40.1059 159.531 40.6678C160.98 41.2297 161.879 42.3566 162.231 44.0447C162.474 45.2071 162.367 46.4905 161.92 47.8947C161.038 49.7955 160.07 52.4021 159.007 55.7247C157.949 59.048 156.918 62.5291 155.926 66.1664C154.929 69.8079 154.035 73.1555 153.235 76.2153C152.441 79.276 151.913 81.4718 151.662 82.8068C152.341 81.9994 153.507 80.1711 155.142 77.3235C156.783 74.4747 158.652 71.0939 160.762 67.1733C162.868 63.254 164.991 59.2982 167.14 55.3088C169.282 51.3187 171.226 47.8838 172.963 44.9988C172.875 44.5787 173.159 43.2594 173.812 41.0433C174.465 38.8323 175.291 36.4149 176.286 33.7934C177.281 31.1761 178.176 29.2142 178.968 27.9124C180.361 27.9875 181.922 28.1986 183.645 28.5509C185.369 28.9032 186.903 29.3778 188.256 29.9746C189.6 30.5769 190.378 31.3472 190.577 32.2979C190.666 32.7211 190.616 33.2472 190.43 33.88C188.176 39.8922 186.046 45.4927 184.045 50.6753C182.04 55.8652 180.388 60.1606 179.081 63.5698C177.769 66.9833 177.046 69.1096 176.903 69.9511C177.539 68.9342 178.263 67.8268 179.078 66.6309C180.331 64.4864 182.251 61.9363 184.821 58.9854C187.957 55.1524 191.647 51.041 195.889 46.6457C200.127 42.2547 204.737 38.2147 209.712 34.523C210.536 33.8889 211.196 33.4847 211.69 33.3101C212.585 32.9928 212.864 33.3203 212.536 34.2862C212.203 35.2533 211.62 36.3964 210.775 37.7139C209.935 39.0325 209.023 40.1502 208.047 41.063C203.291 45.8069 198.882 50.658 194.808 55.6143C190.74 60.5695 187.141 65.7545 184.021 71.1669C181.666 75.1741 179.617 79.386 177.881 83.7962C176.146 88.2115 174.082 92.5974 171.697 96.9525L171.695 96.9497ZM178.501 67.6804C178.524 67.7877 178.803 67.6038 179.347 67.126C179.886 66.6535 180.281 66.2584 180.534 65.9413C182.263 63.5157 184.529 60.7577 187.341 57.6635C190.149 54.5705 192.913 51.6367 195.632 48.8569C198.348 46.0844 200.335 44.1317 201.591 43.0071C202.314 42.4083 203.272 41.5051 204.457 40.2907C205.638 39.0806 206.004 38.6665 205.55 39.0518C204.155 40.0008 202.268 41.5486 199.899 43.6916C197.525 45.8359 195.004 48.261 192.326 50.9647C189.644 53.6736 187.144 56.3448 184.821 58.98C183.732 60.3842 182.714 61.7387 181.762 63.0371C180.81 64.3377 179.915 65.5373 179.078 66.6246C178.926 66.9053 178.773 67.1873 178.616 67.4672L178.5 67.6774L178.501 67.6804Z" fill="#77389A"/>
<path d="M200.558 89.4264C198.829 89.815 197.28 89.2583 195.902 87.7612C194.526 86.2701 193.663 84.676 193.31 82.986C193.025 81.6169 193.29 79.1989 194.108 75.7361C194.926 72.2733 196.059 68.2743 197.507 63.737C198.95 59.204 200.504 54.6859 202.174 50.1847C203.84 45.6846 205.339 41.668 206.677 38.1326C208.011 34.6015 208.951 32.117 209.503 30.6724C208.481 32.3956 207.558 34.0806 206.732 35.7338C205.905 37.3879 205.396 38.2468 205.2 38.316C205.099 38.3511 205.413 37.1945 206.148 34.8369C206.875 32.4824 208.385 28.1224 210.673 21.7592C211.664 21.408 212.972 21.5684 214.602 22.2361C216.233 22.9058 217.743 23.7869 219.143 24.8757C220.543 25.9667 221.354 27.0401 221.574 28.0932C220.88 30.379 219.673 33.3853 217.954 37.1101C216.229 40.8391 214.426 44.6798 212.543 48.6321C210.656 52.5887 208.986 56.1818 207.534 59.4177C207.764 58.9943 208.744 57.4579 210.481 54.8032C212.209 52.1507 214.364 48.8353 216.942 44.8641C219.514 40.891 222.275 36.6854 225.231 32.2373C228.183 27.7901 231.005 23.5896 233.69 19.6343C236.374 15.6823 238.694 12.4205 240.662 9.85295C242.624 7.28756 243.901 5.90063 244.495 5.69091C245.094 5.47899 246.086 5.77812 247.478 6.58787C248.866 7.39879 250.214 8.36665 251.514 9.49053C252.814 10.6177 253.564 11.6516 253.763 12.6022C253.786 12.7095 253.25 13.863 252.167 16.0562C251.084 18.2554 249.75 21.0222 248.161 24.3618C246.572 27.7034 245.028 31.1397 243.53 34.6714C242.038 38.2061 240.822 41.4408 239.893 44.3761C238.964 47.3115 238.669 49.3439 239.012 50.4681C237.978 50.6076 236.931 49.9299 235.877 48.4336C234.82 46.9382 234.057 45.0852 233.594 42.8696C233.329 41.603 233.383 39.9439 233.75 37.884C234.117 35.8294 234.595 33.7898 235.186 31.766C235.771 29.7487 236.305 27.9717 236.786 26.4406C237.263 24.9104 237.489 24.0949 237.466 23.9896C237.027 24.9395 236.462 26.4429 235.777 28.4984C235.091 30.5541 234.448 32.5667 233.847 34.5371C233.246 36.5076 232.876 37.9121 232.734 38.7566C232.766 37.3846 233.178 35.0291 233.971 31.688C234.764 28.3489 235.996 24.851 237.684 21.1927C236.814 22.6371 235.326 25.0623 233.216 28.4714C231.112 31.8813 228.728 35.8717 226.065 40.4406C223.402 45.0126 220.645 49.7563 217.793 54.6768C214.935 59.5994 212.239 64.3796 209.697 69.0199C207.156 73.66 205.065 77.7744 203.419 81.3587C201.774 84.9482 200.824 87.6334 200.557 89.4289L200.558 89.4264Z" fill="#77389A"/>
<path d="M262.383 68.6985C260.205 69.4701 257.687 69.3967 254.839 68.4824C251.985 67.5694 249.439 66.2053 247.204 64.3916C244.959 62.5813 243.631 60.6729 243.211 58.6671C242.417 54.8691 242.626 50.4041 243.845 45.269C245.06 40.1382 246.933 34.8557 249.466 29.4229C252.002 23.9929 254.861 18.9552 258.039 14.3161C261.218 9.67681 264.435 5.98707 267.692 3.24541C268.594 2.47404 269.43 1.89308 270.201 1.50386C270.974 1.11746 271.556 0.853601 271.953 0.71314C273.14 0.292696 274.709 0.669075 276.657 1.84834C278.605 3.0276 280.433 4.3944 282.139 5.94162C283.846 7.48883 284.907 8.75702 285.329 9.73867C285.681 11.4288 285.187 13.783 283.856 16.8065C282.514 19.8314 280.624 23.11 278.17 26.6407C275.716 30.1747 273.004 33.6003 270.028 36.919C267.047 40.2451 264.102 43.0741 261.187 45.4084C258.268 47.749 255.661 49.2678 253.365 49.9661C252.416 53.5901 252.156 56.4044 252.575 58.4051C252.796 59.4633 253.232 60.2988 253.895 60.9125C254.554 61.5281 255.621 61.5194 257.082 60.8883C259.284 59.2011 261.936 56.6158 265.038 53.1372C268.141 49.6584 271.455 45.7916 274.982 41.539C278.504 37.2896 283.746 31.78 286.544 28.8576C288.03 27.3116 289.166 26.4004 289.96 26.1185C290.654 25.8727 291.054 26.0124 291.163 26.5401C291.252 26.9633 290.974 27.7986 290.33 29.0448C289.687 30.2941 277.53 47.6321 274.983 51.4815C272.437 55.3328 270.073 58.7773 267.885 61.8163C265.704 64.8592 263.87 67.1505 262.383 68.6985ZM255.393 43.6389C258.117 41.4271 260.949 38.6684 263.872 35.3653C266.8 32.0599 269.499 28.6941 271.976 25.2674C274.45 21.8379 276.383 18.8591 277.766 16.3297L278.347 15.2749C278.304 15.0632 277.782 15.6452 276.794 17.0143L266.364 31.2521C266.285 31.3947 266.148 31.4983 265.952 31.5676C265.851 31.6027 265.877 31.4542 266.018 31.1203C266.159 30.7884 266.447 30.3708 266.879 29.8783C268.547 27.7018 270.233 25.3194 271.924 22.7344C273.621 20.1535 275.232 17.6825 276.76 15.3251C278.72 12.4815 279.653 10.8445 279.565 10.421C277.287 11.2288 274.611 13.4262 271.531 17.0092C268.451 20.5953 265.462 24.77 262.577 29.5329C259.687 34.297 257.291 39.001 255.393 43.6389Z" fill="#77389A"/>
<path d="M171.48 270.645C170.495 271.022 169.25 271 167.762 270.576C166.269 270.156 164.922 269.56 163.72 268.792C162.519 268.024 161.845 267.315 161.695 266.67C161.544 266.029 161.668 265.628 162.063 265.477C162.259 265.403 162.596 265.361 163.076 265.353C163.556 265.343 164.067 265.354 164.612 265.379C163.696 264.21 162.962 262.913 162.415 261.482C162.365 261.269 162.627 259.883 163.209 257.32C163.791 254.757 164.532 251.609 165.426 247.872C166.325 244.139 167.22 240.404 168.118 236.667C169.012 232.933 169.771 229.749 170.388 227.114C171.001 224.484 171.302 223.11 171.277 223.001C171.296 222.641 170.852 223.602 169.939 225.882C169.022 228.164 168.054 230.787 167.031 233.749C166.01 236.714 165.214 239.299 164.661 241.499C165.258 238.112 165.945 234.517 166.724 230.708C167.493 226.906 168.637 222.288 170.158 216.848C171.676 211.416 173.886 204.576 176.783 196.329C178.314 196.445 180.019 196.643 181.906 196.912C183.795 197.187 185.455 197.633 186.891 198.25C188.322 198.873 189.176 199.774 189.452 200.954C189.552 201.384 189.519 201.925 189.349 202.574C187.106 209.048 185.075 215.148 183.252 220.873C181.425 226.603 179.993 231.362 178.947 235.154C177.906 238.945 177.274 241.294 177.054 242.193C177.644 241.501 178.32 240.716 179.079 239.84C179.839 238.966 180.673 237.944 181.582 236.776L181.364 237.213C181.144 237.646 180.944 238.191 180.775 238.843C180.606 239.494 180.643 239.653 180.887 239.326C181.991 237.617 184.029 234.849 186.996 231.021C189.964 227.197 193.052 223.206 196.264 219.052L196.404 217.594C193.364 222.035 190.754 225.548 188.57 228.137C187.322 229.667 186.125 231.091 184.981 232.405C183.842 233.719 182.828 235.014 181.949 236.287C182.878 234.763 184.042 233.09 185.44 231.266C186.839 229.445 188.576 227.256 190.665 224.703C191.325 223.867 192.199 222.773 193.278 221.423C194.357 220.074 195.458 218.6 196.587 216.998L196.404 217.594L199.639 212.847L196.587 216.998L197.78 210.399C197.041 210.916 196.708 210.402 196.775 208.853C196.839 207.309 197.395 205.43 198.433 203.219C199.471 201.009 200.938 199.366 202.832 198.289C203.497 197.919 204.631 198.068 206.235 198.74C207.843 199.412 209.301 200.258 210.613 201.276C211.925 202.295 212.346 203.185 211.882 203.949C210.244 206.565 208.997 209.613 208.149 213.096C207.3 216.579 206.693 220.058 206.324 223.531C205.955 227.007 205.736 230.191 205.666 233.082C205.592 235.98 205.569 238.181 205.6 239.688C209.325 234.052 212.582 228.829 215.37 224.017C218.163 219.206 220.643 214.223 222.814 209.063C224.988 203.905 224.065 206.71 225.939 200.026C225.815 199.49 225.605 198.841 225.321 198.071C225.032 197.303 224.766 196.384 224.514 195.309C224.238 194.129 224.019 192.751 223.866 191.171C223.71 189.595 223.813 187.974 224.176 186.315C224.535 184.19 225.101 182.599 225.874 181.541C226.648 180.484 227.475 179.788 228.365 179.448C229.84 178.883 231.301 179.056 232.747 179.965C234.193 180.874 235.029 181.809 235.254 182.775C235.858 184.887 236.026 187.774 235.754 191.445C235.488 195.115 235.139 198.787 234.713 202.458C234.286 206.129 233.978 209.174 233.79 211.584C233.696 212.557 233.501 213.099 233.206 213.212C232.811 213.362 232.272 212.897 231.588 211.812C230.905 210.73 230.454 209.939 230.229 209.438C228.698 214.353 229.798 210.599 227.652 215.63C225.501 220.663 223.304 225.365 221.055 229.735C218.802 234.108 216.7 237.837 214.741 240.924C215.024 243.974 214.438 247.092 212.985 250.281C211.533 253.47 209.575 255.535 207.111 256.479C205.141 257.233 203.181 256.986 201.227 255.749C199.273 254.51 198.059 252.867 197.582 250.829C197.256 249.434 197.196 248.14 197.4 246.95C197.604 245.761 197.633 244.843 197.482 244.2C197.131 242.696 196.814 240.656 196.531 238.072C196.248 235.489 196.097 232.565 196.084 229.294C196.035 229.081 196.013 228.882 196.028 228.701C196.039 228.524 196.031 228.381 196.006 228.272C193.63 232.34 191.355 236.135 189.178 239.659C186.997 243.187 185.197 246.038 183.778 248.219L177.199 258.632C177.543 258.734 177.962 258.926 178.457 259.201C178.952 259.48 179.265 259.888 179.391 260.424C179.541 261.066 179.117 262.136 178.128 263.626C177.135 265.118 175.999 266.575 174.724 267.999C173.446 269.424 172.365 270.306 171.48 270.645ZM197.106 217.85L197.364 217.578L197.432 216.497L197.106 217.85ZM207.079 239.824C208.963 237.349 211.129 234.091 213.561 230.06C215.998 226.029 218.035 222.237 219.671 218.686C222.945 211.584 225.898 204.022 228.525 195.997C227.842 197.663 226.916 199.89 225.744 202.677C224.571 205.466 223.381 208.289 222.174 211.15C220.967 214.011 219.896 216.436 218.968 218.43C216.304 224.48 213.738 229.204 211.264 232.608C208.784 236.013 207.352 238.024 206.962 238.641C206.618 239.007 206.47 239.416 206.522 239.861C206.57 240.311 206.759 240.296 207.079 239.824Z" fill="#77389A"/>
<path d="M247.713 240.411C246.333 240.94 244.812 241.197 243.147 241.193C241.482 241.189 239.924 240.822 238.467 240.091C237.006 239.365 235.329 238.046 233.437 236.138C231.545 234.233 230.319 232.1 229.767 229.736C229.541 228.772 229.488 227.855 229.607 226.992C230.597 216.554 233.743 206.139 239.036 195.748C244.33 185.359 251.481 175.575 260.489 166.393C261.869 165.865 263.428 165.882 265.172 166.443C266.91 167.005 268.463 167.903 269.825 169.136L272.71 169.084C272.334 167.941 271.822 167.351 271.164 167.307C270.512 167.265 270.122 166.977 269.996 166.438C269.965 165.398 270.476 164.589 271.523 164.011C272.565 163.436 273.337 163.055 273.827 162.867C275.402 162.264 276.893 162.542 278.289 163.7C279.687 164.865 280.649 166.338 281.175 168.124C283.615 167.541 286.126 166.816 288.71 165.939C291.296 165.067 293.555 164.291 295.49 163.608C297.421 162.929 298.483 162.55 298.683 162.474L299.126 162.304C299.421 162.192 299.619 162.35 299.72 162.78C299.895 163.53 299.657 164.324 298.992 165.163C298.208 166.401 296.051 167.841 292.522 169.481C288.988 171.128 285.25 172.705 281.316 174.212C281.198 176.011 280.862 178.012 280.304 180.213C279.747 182.415 279.053 184.726 278.226 187.149C277.667 188.883 276.768 191.245 275.538 194.23C274.304 197.219 273.029 200.252 271.71 203.328C270.394 206.407 269.278 208.996 268.38 211.093C269.064 209.898 270.157 207.811 271.664 204.835C273.162 201.867 274.355 199.276 275.238 197.065C275.577 196.233 276.069 194.905 276.715 193.078C277.361 191.252 277.996 189.489 278.619 187.786C279.238 186.09 279.596 184.986 279.695 184.479C279.089 187.869 278.12 191.284 276.777 194.719C275.436 198.16 274.03 201.327 272.563 204.23C271.096 207.132 269.829 209.517 268.769 211.386C267.703 213.256 267.095 214.336 266.95 214.623C263.921 220.932 260.693 226.524 257.276 231.397C253.856 236.278 250.67 239.279 247.715 240.41L247.713 240.411ZM241.707 236.743C242.197 236.556 242.749 236.171 243.364 235.584C244.298 234.524 245.464 232.968 246.859 230.914C248.256 228.859 249.715 226.723 251.232 224.501C252.556 222.358 253.992 219.79 255.547 216.796C257.098 213.808 258.754 210.335 260.515 206.386C262.052 202.873 263.679 199.061 265.403 194.952C267.123 190.847 268.763 186.62 270.323 182.278L268.633 185.381C269.148 184.369 269.764 182.993 270.486 181.252C271.205 179.514 271.822 178.138 272.336 177.122C269.232 178.078 267.376 178.612 266.756 178.732C266.711 178.985 266.584 179.15 266.389 179.224C266.193 179.298 266.005 178.96 265.83 178.21L265.624 177.323C265.535 176.949 265.489 176.529 265.487 176.059C264.478 176.332 263.435 176.905 262.351 177.788C261.272 178.669 260.153 180.092 259.004 182.052C257.731 184.411 256.068 187.386 254.011 190.979C251.954 194.575 249.885 198.556 247.796 202.922C245.703 207.292 243.842 211.834 242.213 216.552C240.58 221.271 239.516 226.005 239.016 230.758C238.826 232.232 238.881 233.615 239.183 234.905C239.61 236.732 240.473 236.985 241.777 235.666C241.357 236.176 241.165 236.487 241.19 236.592C241.241 236.81 241.412 236.856 241.707 236.743ZM241.777 235.666C243.396 233.878 245.84 230.456 249.11 225.401C252.381 220.349 255.542 214.491 258.596 207.823C259.598 205.682 260.74 203.23 262.025 200.455C263.306 197.685 264.557 195.011 265.78 192.44C267.002 189.865 267.931 187.874 268.565 186.461C267.002 190.332 265.549 193.844 264.191 196.994C262.834 200.145 261.522 203.134 260.254 205.958C257.25 212.372 254.056 218.331 250.679 223.837C247.296 229.343 244.33 233.285 241.777 235.666Z" fill="#77389A"/>
<path d="M282.956 227.165C281.231 227.591 279.654 227.055 278.235 225.552C276.811 224.052 275.895 222.441 275.492 220.723C275.166 219.328 275.365 216.854 276.089 213.303C276.813 209.751 277.837 205.644 279.162 200.982C280.488 196.325 281.921 191.682 283.467 187.053C285.013 182.428 286.406 178.299 287.65 174.664C288.894 171.029 289.768 168.472 290.282 166.987C289.303 168.766 288.42 170.508 287.641 172.211C286.858 173.913 286.366 174.803 286.171 174.878C286.071 174.916 286.358 173.727 287.025 171.305C287.693 168.888 289.086 164.406 291.205 157.864C292.185 157.489 293.508 157.624 295.164 158.276C296.817 158.932 298.363 159.803 299.799 160.889C301.231 161.982 302.075 163.061 302.326 164.134C301.694 166.48 300.566 169.574 298.945 173.411C297.323 177.25 295.62 181.203 293.837 185.28C292.053 189.355 290.477 193.056 289.115 196.385C289.334 195.949 290.275 194.361 291.94 191.619C293.605 188.875 295.671 185.452 298.148 181.345C300.62 177.243 303.277 172.891 306.121 168.294C308.96 163.697 311.671 159.355 314.255 155.265C316.84 151.178 319.084 147.805 320.982 145.148C322.88 142.492 324.128 141.047 324.718 140.821C325.308 140.595 326.314 140.885 327.735 141.685C329.157 142.487 330.537 143.448 331.875 144.575C333.207 145.703 333.99 146.748 334.216 147.713C334.241 147.822 333.741 149.01 332.715 151.272C331.69 153.537 330.424 156.39 328.922 159.828C327.42 163.27 325.973 166.809 324.567 170.445C323.163 174.082 322.038 177.407 321.188 180.423C320.338 183.439 320.099 185.518 320.475 186.66C319.44 186.823 318.37 186.15 317.266 184.642C316.162 183.135 315.348 181.254 314.821 179C314.52 177.71 314.523 176.016 314.837 173.905C315.148 171.798 315.566 169.708 316.101 167.631C316.637 165.556 317.123 163.732 317.559 162.161C317.995 160.592 318.203 159.752 318.177 159.644C317.763 160.623 317.239 162.169 316.608 164.281C315.973 166.397 315.384 168.464 314.84 170.485C314.293 172.509 313.962 173.952 313.841 174.813C313.835 173.413 314.177 171 314.879 167.573C315.581 164.145 316.724 160.549 318.312 156.787C317.478 158.276 316.053 160.779 314.035 164.3C312.014 167.824 309.731 171.941 307.191 176.656C304.645 181.376 302.007 186.273 299.282 191.354C296.551 196.434 293.982 201.365 291.561 206.152C289.14 210.937 287.152 215.181 285.605 218.871C284.053 222.565 283.169 225.329 282.956 227.165Z" fill="#77389A"/>
<path d="M367.391 208.704C365.026 209.609 362.444 208.899 359.651 206.578C357.122 204.503 354.647 201.475 352.212 197.494C349.777 193.515 348.024 189.215 346.944 184.597C346.744 183.74 346.572 182.898 346.431 182.073C346.291 181.251 346.185 180.444 346.109 179.654C345.952 177.608 346.592 175.87 348.027 174.446C349.465 173.017 350.566 172.334 351.33 172.391C351.526 172.317 351.786 172.278 352.106 172.27C352.426 172.266 352.806 172.294 353.251 172.358C355.24 170.311 357.432 167.073 359.833 162.646C362.228 158.218 364.009 153.444 365.169 148.32C365.871 145.363 366.126 143.455 365.923 142.593C365.697 141.628 365.066 141.811 364.04 143.137C363.009 144.471 361.934 146.08 360.82 147.968C359.706 149.856 358.842 151.327 358.234 152.379C353.606 160.585 349.065 168.23 344.61 175.314C340.151 182.404 336.629 189.598 334.047 196.903C333.145 199.473 332.386 201.721 331.765 203.656C331.144 205.589 330.9 207.291 331.03 208.761C328.239 207.842 326.262 206.726 325.095 205.418C323.934 204.109 323.175 202.706 322.822 201.199C322.622 200.342 322.509 199.508 322.48 198.697C322.453 197.893 322.448 197.074 322.467 196.247C322.529 193.767 323.289 189.791 324.746 184.321C326.204 178.851 328.072 172.521 330.36 165.328C332.649 158.138 335.135 150.636 337.812 142.826C340.49 135.019 345.826 122.674 347.771 117.251C349.721 111.826 351.076 107.976 351.828 105.697C351.414 106.206 351.099 106.59 350.893 106.843C350.683 107.099 350.349 107.752 349.9 108.803C349.446 109.853 348.648 111.827 347.506 114.721C345.845 119.102 344.92 121.325 344.719 121.402C344.625 121.438 344.782 120.737 345.195 119.29C345.604 117.847 346.143 116.033 346.814 113.846C347.484 111.659 348.169 109.555 348.877 107.529C349.585 105.502 350.146 104.001 350.561 103.024C351 102.153 351.367 101.663 351.667 101.548C351.863 101.474 352.152 101.449 352.532 101.479C352.917 101.508 353.475 101.498 354.215 101.449C355.056 101.364 356.34 101.687 358.069 102.43C359.798 103.172 361.363 104.123 362.76 105.285C364.156 106.447 364.795 107.694 364.681 109.022C363.798 110.764 362.456 113.734 360.649 117.936C358.843 122.135 345.732 148.245 343.136 154.562C340.535 160.881 338.144 166.708 335.957 172.048C333.775 177.388 332.025 181.831 330.708 185.374C329.391 188.92 328.66 191.07 328.516 191.827C329.375 190.915 330.757 188.687 332.667 185.15C334.576 181.612 336.867 177.313 339.546 172.254C342.229 167.191 345.112 161.876 348.21 156.304C351.302 150.734 354.487 145.423 357.757 140.368C361.029 135.316 364.245 131.072 367.412 127.635C368.792 127.107 370.494 127.158 372.518 127.788C374.542 128.417 375.851 129.317 376.448 130.493C378.324 130.713 379.487 131.785 379.94 133.719C380.391 135.65 380.116 138.038 379.121 140.875C378.122 143.714 377.057 146.168 375.934 148.236C375.419 149.251 374.869 150.221 374.282 151.148C373.696 152.075 373.08 153.013 372.445 153.958C373.689 151.494 374.81 148.842 375.814 146C376.81 143.162 377.723 140.068 378.545 136.71C378.62 136.098 378.546 135.453 378.336 134.772C378.12 134.095 377.932 134.313 377.763 135.43C377.092 139.897 375.904 144.212 374.198 148.375C372.486 152.539 370.552 156.438 368.4 160.067C369.065 159.228 369.729 158.302 370.403 157.284C371.077 156.265 371.721 155.229 372.334 154.174C370.793 157.691 369.097 160.766 367.252 163.402C365.397 166.043 363.612 168.276 361.898 170.1C361.724 170.285 361.554 170.468 361.384 170.649C361.209 170.831 361.074 170.941 360.974 170.979L362.558 168.796C364.59 166.029 366.539 163.122 368.4 160.067C365.949 163.348 363.691 166.083 361.631 168.272C359.568 170.467 357.911 172.095 356.658 173.161C357.919 173.496 358.562 174.186 358.588 175.227C358.67 176.017 358.965 177.746 359.48 180.413C360 183.08 360.594 185.864 361.273 188.763L362.346 193.353C362.685 194.801 363.046 196.097 363.417 197.241C364.647 201.564 366.294 203.332 368.359 202.541C369.343 202.165 370.595 200.864 372.118 198.646C372.582 197.883 373.009 197.426 373.405 197.276C373.6 197.201 373.737 197.325 373.813 197.648C374.215 199.364 373.738 201.446 372.378 203.898C371.023 206.347 369.361 207.949 367.391 208.704Z" fill="#77389A"/>
<path d="M51.1659 203.035C50.4773 203.299 49.7182 203.43 48.8871 203.437C48.056 203.443 47.28 203.271 46.5561 202.92C45.8286 202.572 44.9995 201.935 44.0603 201.013C43.1212 200.092 42.5175 199.056 42.2485 197.907C42.1392 197.436 42.1123 196.992 42.1758 196.567C42.6995 191.471 44.2922 186.376 46.9601 181.284C49.628 176.192 53.2214 171.385 57.7386 166.864C58.4272 166.6 59.2064 166.601 60.0698 166.868C60.9375 167.135 61.708 167.566 62.3835 168.161L63.8218 168.123C63.637 167.568 63.3833 167.281 63.0595 167.261C62.7326 167.245 62.5411 167.105 62.4789 166.842C62.4654 166.335 62.7197 165.94 63.2437 165.653C63.7682 165.367 64.1517 165.177 64.3983 165.082C65.1837 164.782 65.9264 164.913 66.6211 165.471C67.3124 166.033 67.7907 166.746 68.0454 167.616C69.264 167.321 70.5166 166.956 71.81 166.516C73.1011 166.08 74.231 165.69 75.1937 165.348C76.1613 165.009 76.6918 164.818 76.7914 164.78L77.0125 164.695C77.1584 164.639 77.2591 164.716 77.3072 164.924C77.3923 165.29 77.2662 165.682 76.9348 166.091C76.5397 166.698 75.4621 167.411 73.6964 168.227C71.9317 169.047 70.0653 169.833 68.0979 170.585C68.0352 171.463 67.8625 172.44 67.5778 173.518C67.2932 174.596 66.9427 175.724 66.5239 176.909C66.2402 177.76 65.7875 178.914 65.1647 180.377C64.5419 181.841 63.8943 183.327 63.2309 184.833C62.5647 186.34 62.0021 187.609 61.5458 188.637C61.8907 188.05 62.4447 187.026 63.2012 185.57C63.9581 184.115 64.5593 182.845 65.0057 181.761C65.1757 181.355 65.4271 180.702 65.7545 179.808C66.0788 178.915 66.3978 178.054 66.7168 177.221C67.0274 176.389 67.2126 175.85 67.2603 175.602C66.9522 177.259 66.4588 178.928 65.7797 180.611C65.0998 182.295 64.3932 183.847 63.6523 185.269C62.9158 186.691 62.2783 187.859 61.7426 188.777C61.2069 189.695 60.899 190.224 60.8265 190.365C59.2971 193.457 57.6747 196.2 55.9553 198.594C54.2403 200.988 52.6405 202.468 51.1665 203.033L51.1659 203.035ZM48.1824 201.272C48.4251 201.179 48.703 200.988 49.0126 200.697C49.4787 200.179 50.0618 199.414 50.7671 198.403C51.4686 197.394 52.1997 196.347 52.9638 195.256C53.6284 194.204 54.3522 192.945 55.133 191.477C55.9185 190.012 56.7533 188.309 57.6388 186.377C58.4146 184.656 59.239 182.789 60.1099 180.775C60.977 178.763 61.8085 176.695 62.5983 174.568L61.7445 176.092C62.0052 175.595 62.3148 174.92 62.6798 174.068C63.0453 173.218 63.3539 172.544 63.6151 172.044C62.0667 172.524 61.1379 172.794 60.8284 172.855C60.8034 172.978 60.7432 173.057 60.6436 173.095C60.5439 173.133 60.4544 172.969 60.3693 172.603L60.2694 172.173C60.2256 171.989 60.2048 171.784 60.2029 171.558C59.7015 171.694 59.177 171.98 58.6365 172.414C58.0929 172.849 57.5326 173.549 56.9558 174.508C56.3129 175.667 55.4754 177.126 54.4406 178.888C53.4058 180.649 52.361 182.604 51.3093 184.741C50.2542 186.883 49.316 189.106 48.4871 191.417C47.6624 193.727 47.1178 196.04 46.8555 198.362C46.7552 199.082 46.7809 199.757 46.9276 200.384C47.1354 201.274 47.5648 201.393 48.2177 200.744C48.0085 200.995 47.9114 201.146 47.9237 201.199C47.9481 201.304 48.0319 201.327 48.1819 201.27L48.1824 201.272ZM48.2191 200.745C49.0293 199.867 50.2579 198.186 51.9024 195.705C53.5474 193.226 55.1397 190.354 56.6819 187.086C57.1871 186.037 57.7622 184.836 58.4096 183.478C59.0564 182.119 59.6874 180.811 60.3065 179.549C60.9212 178.287 61.3899 177.312 61.7103 176.619C60.9208 178.517 60.1837 180.237 59.5019 181.779C58.8161 183.323 58.1559 184.787 57.5147 186.171C55.9971 189.314 54.3894 192.235 52.6875 194.936C50.9887 197.637 49.4968 199.572 48.2191 200.745Z" fill="#77389A"/>
<path d="M69.8624 220.392C67.7451 221.202 65.8633 221.126 64.2178 220.161C62.5727 219.197 61.5219 217.749 61.0693 215.814C60.5808 213.724 60.6589 211.132 61.3005 208.038C61.9462 204.944 62.9118 201.626 64.2009 198.087C65.4891 194.548 66.899 191.061 68.4259 187.63C69.9566 184.197 71.3961 181.069 72.7462 178.246C74.0936 175.424 75.1064 173.171 75.7864 171.486C75.3306 171.832 74.7119 172.281 73.932 172.837C73.152 173.392 72.4007 173.908 71.6793 174.382C70.9583 174.859 70.476 175.141 70.2333 175.234C69.8871 175.367 69.5747 175.345 69.292 175.168C69.0093 174.992 68.7815 174.765 68.608 174.49C68.2162 174.413 68.0084 174.323 67.9838 174.217C67.885 174.028 67.8068 173.857 67.7451 173.712C67.6829 173.564 67.6391 173.44 67.6143 173.334C67.4189 172.497 67.7416 171.934 68.5868 171.637C69.4287 171.344 70.2494 170.959 71.0513 170.48C71.8505 170.003 72.6493 169.414 73.4488 168.707C74.2493 168.004 74.6623 167.474 74.6851 167.124C74.7958 166.684 74.8785 166.453 74.9278 166.434C75.0737 166.377 75.3002 166.548 75.6068 166.943C75.7436 167.06 75.8552 167.304 75.9397 167.669C76.037 168.088 76.0296 168.518 75.9189 168.958L77.2674 168.186C78.476 165.105 79.7521 161.912 81.0944 158.606C82.4412 155.301 83.7201 152.121 84.9347 149.065C86.149 146.009 87.2418 143.299 88.2176 140.932C89.1923 138.565 89.9021 136.842 90.3452 135.762C90.3209 135.657 90.2582 135.623 90.1586 135.661C89.9624 135.737 89.6485 136.227 89.2182 137.131C88.1817 139.353 87.1405 141.6 86.0937 143.879C85.0443 146.161 84.1567 148.038 83.4281 149.513C82.7032 150.985 82.3325 151.697 82.3202 151.644C82.3084 151.593 82.5312 150.952 82.9941 149.721C83.4575 148.492 84.0496 146.998 84.7627 145.244C85.4768 143.49 86.205 141.731 86.9439 139.967C87.683 138.205 88.3135 136.71 88.8329 135.486C89.3485 134.264 89.6346 133.641 89.6811 133.624C89.8193 133.516 90.104 133.534 90.5386 133.68C90.9774 133.826 91.3051 133.914 91.5257 133.943C92.0053 133.931 92.6906 134.167 93.5822 134.652C94.4693 135.136 95.2772 135.71 95.9967 136.375C96.7131 137.04 97.0359 137.672 96.9611 138.27C96.4188 139.159 95.7006 140.447 94.8096 142.125C93.9152 143.807 92.9155 145.668 91.8146 147.714C90.7102 149.759 89.629 151.839 88.5705 153.952C87.5093 156.067 86.5236 158.04 85.6097 159.869C84.6993 161.699 84.0022 163.189 83.5209 164.341C84.4451 163.704 85.516 163.009 86.7329 162.258C87.9497 161.507 89.1818 160.752 90.4235 159.992C91.6651 159.232 92.7708 158.567 93.7373 157.996C94.7014 157.429 95.3529 157.052 95.6828 156.867C95.8672 156.741 96.1076 156.619 96.4037 156.507C96.8468 156.337 97.0919 156.356 97.1413 156.565C97.1902 156.775 97.0703 157.078 96.7884 157.469C96.5072 157.863 96.1539 158.197 95.7352 158.471C95.689 158.49 95.281 158.759 94.5194 159.278C93.7543 159.8 92.8768 160.407 91.8876 161.097C90.898 161.79 90.0161 162.425 89.2413 163.007C88.5853 163.429 87.7271 163.986 86.6572 164.68C85.5863 165.375 84.6308 165.997 83.7942 166.544C82.9578 167.092 82.545 167.392 82.557 167.444C83 167.275 83.7502 166.873 84.8078 166.242C85.8663 165.609 86.9819 164.926 88.1494 164.194C89.3159 163.462 90.2839 162.893 91.0491 162.487C90.4174 163.015 89.5542 163.614 88.4564 164.29C87.3548 164.968 86.2335 165.682 85.0949 166.432C83.9588 167.179 83.0195 167.923 82.2824 168.662C81.9112 169.372 81.4938 170.23 81.0323 171.232C80.5702 172.235 80.0306 173.367 79.4146 174.628C79.5605 174.572 79.6921 174.551 79.8007 174.565C81.205 174.598 82.5986 174.72 83.9898 174.927C85.3773 175.138 86.5646 175.522 87.5554 176.083C88.5427 176.643 89.1302 177.544 89.3115 178.783C89.7144 181.42 89.5391 184.676 88.7847 188.551C89.2176 187.191 89.5571 185.836 89.8032 184.49C90.0521 183.143 90.1964 181.862 90.2323 180.652C90.4658 183.013 90.1838 185.597 89.3933 188.406C88.6034 191.212 87.6289 194.034 86.4719 196.87C87.038 195.399 87.5051 193.968 87.8783 192.573C88.2481 191.177 88.5495 189.838 88.7847 188.551C87.9819 191.307 87.0696 193.823 86.0485 196.093C85.0239 198.365 84.3325 199.88 83.974 200.645C83.3205 201.976 82.595 203.394 81.7943 204.897C80.9945 206.398 80.2112 207.808 79.4462 209.126C78.6813 210.445 78.0726 211.501 77.6186 212.304C77.1598 213.104 76.975 213.46 77.0626 213.37C77.7494 212.65 78.5916 211.474 79.5757 209.846C80.5592 208.215 81.5014 206.573 82.4026 204.92C82.9196 203.922 83.4787 202.87 84.0751 201.76C84.6707 200.647 85.2423 199.532 85.7863 198.414C85.2294 199.708 84.6791 201.016 84.1283 202.336C83.5821 203.657 82.9562 204.991 82.2528 206.343C79.7266 211.125 77.398 214.523 75.2695 216.534C73.1405 218.543 71.3374 219.832 69.8634 220.396L69.8624 220.392ZM67.2054 219.36C68.5332 218.851 69.9072 217.671 71.3246 215.817C72.7392 213.965 74.0981 211.693 75.3989 209.005C76.6989 206.313 77.9059 203.461 79.0246 200.441C80.1393 197.423 81.0963 194.466 81.8934 191.57C82.691 188.676 83.2442 186.071 83.5629 183.757C83.8778 181.444 83.904 179.711 83.6348 178.561C83.3776 177.463 82.9402 176.806 82.3278 176.583C81.7128 176.364 81.1104 176.254 80.5188 176.251C80.2479 176.241 79.9708 176.135 79.6817 175.931C79.393 175.729 79.1992 175.533 79.1 175.341C77.9653 177.825 76.7184 180.625 75.3574 183.735C73.9936 186.851 72.7021 189.977 71.481 193.12C70.2601 196.264 69.2131 199.171 68.3356 201.841C68.2001 202.178 67.9246 203.009 67.5105 204.334C67.0974 205.66 66.6518 207.197 66.1766 208.944C65.7027 210.692 65.3351 212.398 65.0832 214.061C64.8303 215.725 64.8183 217.052 65.0501 218.045C65.1713 218.567 65.426 218.97 65.8141 219.248C66.2019 219.526 66.666 219.563 67.2047 219.356L67.2054 219.36ZM85.7851 198.409L86.471 196.866L86.5236 196.76C86.1397 197.646 85.8944 198.195 85.7851 198.409Z" fill="#77389A"/>
<path d="M117.417 214.276C114.253 213.139 111.522 211.982 109.214 210.805C106.906 209.628 105.508 208.12 105.009 206.281C104.879 205.798 104.818 205.393 104.831 205.062C104.824 201.293 105.407 196.572 106.573 190.902C107.735 185.233 109.258 179.008 111.143 172.225C113.023 165.445 128.194 116.248 128.287 116.209C129.279 116.11 130.904 116.472 133.168 117.289C135.424 118.111 137.1 119.207 138.185 120.578C138.419 120.697 138.564 120.849 138.617 121.044C139.019 122.165 139.948 122.958 141.402 123.42C142.848 123.885 143.732 124.695 144.046 125.856C144.937 129.143 144.712 133.2 143.371 138.028C142.03 142.857 136.497 152.831 133.054 158.548C129.612 164.27 129.938 162.256 126.475 167.337C123.012 172.419 120.011 176.846 117.465 180.621C115.822 185.844 115.185 190.16 115.546 193.565C115.907 196.969 116.346 199.424 116.857 200.931C120.466 195.842 123.75 190.461 126.693 184.789C127.465 183.493 128.614 181.63 130.147 179.201C131.68 176.771 133.286 174.339 134.972 171.897C136.656 169.46 137.952 167.668 138.865 166.526C139.715 165.519 140.383 164.696 140.874 164.056C141.361 163.419 141.316 163.545 140.745 164.436C139.048 167.204 136.753 170.766 133.857 175.121C138.072 169.235 142.549 164.317 147.284 160.367C148.186 159.554 148.91 159.029 149.458 158.796C150.372 158.408 150.461 158.938 149.733 160.377C149.002 161.821 148.096 163.365 147.014 165.008C142.019 172.522 136.904 180.352 131.676 188.499C126.444 196.647 121.693 205.242 117.415 214.278L117.417 214.276ZM119.579 201.394C120.297 199.904 121.233 198.103 122.399 195.993C123.557 193.885 124.855 191.338 126.288 188.358C126.941 187.006 127.964 185.06 129.37 182.523C130.771 179.988 132.267 177.52 133.857 175.121C130.935 179.38 128.419 183.25 126.306 186.733C124.197 190.217 122.269 193.459 120.536 196.458L119.284 199.74C118.919 200.65 118.834 201.279 119.032 201.626C119.225 201.977 119.41 201.897 119.579 201.394ZM120.789 170.315C123.527 166.137 133.034 148.857 134.984 142.316C136.928 135.776 137.822 130.331 137.661 125.976C136.543 128.61 135.039 132.183 133.157 136.701C131.269 141.222 124.424 160.795 122.393 166.077C122.197 166.483 121.965 167.043 121.698 167.747C121.431 168.454 121.127 169.309 120.789 170.315Z" fill="#77389A"/>
<path d="M289.765 141.143C286.691 140.038 284.036 138.914 281.792 137.77C279.549 136.626 278.19 135.159 277.706 133.373C277.579 132.903 277.52 132.51 277.533 132.188C277.527 128.525 278.092 123.935 279.226 118.424C280.356 112.915 281.836 106.863 283.668 100.272C285.496 93.6812 300.242 45.8641 300.332 45.8261C301.297 45.7306 302.875 46.0813 305.076 46.8758C307.268 47.6745 308.897 48.7402 309.952 50.0721C310.18 50.1885 310.321 50.336 310.371 50.5247C310.762 51.6143 311.665 52.3854 313.079 52.8343C314.484 53.2863 315.343 54.0729 315.648 55.2016C316.514 58.3967 316.295 62.3399 314.992 67.0313C313.69 71.7258 308.311 81.4201 304.965 86.9762C301.619 92.5375 301.935 90.5806 298.57 95.5193C295.204 100.459 292.288 104.762 289.812 108.43C288.216 113.507 287.596 117.702 287.948 121.011C288.298 124.32 288.724 126.706 289.222 128.17C292.73 123.224 295.921 117.994 298.782 112.482C299.532 111.222 300.65 109.411 302.139 107.049C303.629 104.688 305.19 102.324 306.829 99.9507C308.466 97.5831 309.726 95.841 310.612 94.7307C311.437 93.7521 312.087 92.9526 312.565 92.3303C313.039 91.7111 312.995 91.8337 312.44 92.7001C310.791 95.3902 308.561 98.8528 305.745 103.085C309.842 97.3644 314.193 92.5835 318.795 88.7448C319.672 87.9548 320.376 87.4439 320.908 87.2175C321.796 86.8408 321.883 87.3554 321.176 88.7547C320.465 90.1579 319.584 91.6575 318.533 93.2555C313.678 100.559 308.705 108.169 303.625 116.088C298.54 124.007 293.923 132.362 289.765 141.143ZM291.867 128.622C292.565 127.173 293.475 125.424 294.608 123.372C295.733 121.323 296.995 118.848 298.387 115.951C299.022 114.636 300.017 112.746 301.383 110.28C302.744 107.817 304.199 105.417 305.745 103.085C302.904 107.225 300.458 110.986 298.404 114.372C296.354 117.758 294.481 120.91 292.796 123.824L291.579 127.014C291.225 127.898 291.142 128.511 291.334 128.847C291.521 129.188 291.703 129.111 291.867 128.622ZM293.044 98.4151C295.705 94.3538 304.945 77.5591 306.839 71.2006C308.73 64.844 309.598 59.5515 309.442 55.319C308.355 57.8784 306.894 61.3522 305.065 65.7435C303.231 70.1369 296.577 89.1622 294.603 94.2956C294.413 94.6902 294.187 95.2337 293.928 95.9188C293.669 96.6061 293.372 97.4383 293.044 98.4151Z" fill="#77389A"/>
<path d="M157.724 193.894C156.357 194.474 154.842 194.797 153.176 194.873C151.511 194.949 149.941 194.667 148.459 194.028C146.983 193.39 145.27 192.188 143.326 190.424C141.377 188.66 140.1 186.645 139.485 184.373C139.233 183.443 139.156 182.558 139.252 181.709C139.968 171.512 142.837 161.232 147.86 150.874C152.889 140.515 159.781 130.654 168.558 121.292C169.925 120.712 171.485 120.653 173.24 121.118C174.999 121.578 176.572 122.379 177.972 123.511L180.854 123.325C180.452 122.23 179.919 121.679 179.264 121.667C178.611 121.661 178.213 121.395 178.074 120.88C178.015 119.868 178.5 119.059 179.533 118.448C180.566 117.838 181.323 117.43 181.813 117.222C183.373 116.56 184.868 116.76 186.3 117.82C187.728 118.882 188.729 120.269 189.303 121.983C191.724 121.301 194.222 120.471 196.786 119.497C199.35 118.525 201.59 117.661 203.503 116.905C205.422 116.152 206.475 115.73 206.672 115.646L207.11 115.459C207.403 115.336 207.606 115.483 207.717 115.894C207.913 116.617 207.689 117.401 207.052 118.247C206.3 119.486 204.18 120.992 200.687 122.76C197.199 124.527 193.501 126.241 189.598 127.896C189.532 129.651 189.244 131.613 188.749 133.781C188.25 135.949 187.612 138.233 186.852 140.626C186.334 142.342 185.502 144.68 184.349 147.643C183.192 150.608 181.997 153.62 180.759 156.675C179.522 159.733 178.474 162.304 177.626 164.39C178.283 163.191 179.322 161.11 180.747 158.146C182.172 155.184 183.298 152.607 184.118 150.416C184.441 149.59 184.898 148.272 185.496 146.465C186.095 144.66 186.679 142.917 187.258 141.231C187.837 139.549 188.168 138.46 188.249 137.964C187.736 141.287 186.856 144.654 185.603 148.06C184.352 151.468 183.029 154.62 181.637 157.51C180.245 160.405 179.04 162.785 178.028 164.652C177.011 166.523 176.431 167.603 176.294 167.89C173.429 174.17 170.346 179.765 167.057 184.669C163.762 189.577 160.654 192.651 157.727 193.892L157.724 193.894ZM151.618 190.617C152.104 190.411 152.646 190.008 153.246 189.407C154.153 188.332 155.273 186.766 156.62 184.698C157.962 182.632 159.368 180.486 160.827 178.25C162.095 176.102 163.465 173.536 164.941 170.55C166.414 167.568 167.979 164.112 169.637 160.187C171.083 156.699 172.612 152.915 174.227 148.832C175.84 144.755 177.369 140.568 178.816 136.271L177.207 139.369C177.695 138.359 178.275 136.989 178.948 135.265C179.626 133.54 180.207 132.173 180.694 131.16C177.613 132.236 175.765 132.848 175.153 132.991C175.11 133.242 174.992 133.404 174.798 133.486C174.601 133.569 174.409 133.251 174.213 132.528L173.981 131.675C173.884 131.316 173.826 130.91 173.814 130.454C172.811 130.765 171.778 131.376 170.72 132.284C169.664 133.194 168.582 134.631 167.483 136.59C166.272 138.947 164.687 141.921 162.723 145.515C160.759 149.109 158.788 153.084 156.813 157.43C154.838 161.778 153.096 166.285 151.586 170.953C150.08 175.62 149.14 180.275 148.765 184.922C148.61 186.368 148.706 187.71 149.041 188.946C149.517 190.704 150.387 190.907 151.657 189.563C151.251 190.079 151.063 190.393 151.091 190.495C151.146 190.702 151.322 190.743 151.618 190.617ZM151.657 189.563C153.231 187.747 155.588 184.302 158.727 179.228C161.863 174.161 164.875 168.308 167.756 161.675C168.703 159.547 169.781 157.104 170.989 154.349C172.201 151.591 173.383 148.932 174.539 146.371C175.694 143.809 176.571 141.827 177.168 140.424C175.707 144.265 174.34 147.75 173.069 150.878C171.795 154.007 170.56 156.977 169.366 159.785C166.523 166.168 163.49 172.117 160.25 177.634C157.015 183.149 154.15 187.124 151.657 189.563Z" fill="#77389A"/>
<path d="M208.983 171.971C206.839 172.881 204.306 172.975 201.394 172.257C198.482 171.538 195.849 170.353 193.5 168.704C191.146 167.056 189.706 165.252 189.174 163.29C188.335 160.194 188.216 156.532 188.811 152.31C189.406 148.087 190.485 143.632 192.042 138.944C193.6 134.258 195.511 129.677 197.783 125.203C200.05 120.732 202.45 116.751 204.983 113.26C204.874 112.041 205.388 110.527 206.528 108.721C207.672 106.913 209.264 105.575 211.315 104.705C212.484 104.21 213.662 103.94 214.847 103.896C216.016 103.4 217.613 103.67 219.635 104.711C221.657 105.752 223.567 106.987 225.366 108.409C227.165 109.831 228.301 111.02 228.777 111.965C229.197 113.513 228.855 115.471 227.757 117.835C226.658 120.2 225.375 122.385 223.904 124.388C222.435 126.393 221.311 127.562 220.534 127.891C220.143 128.057 219.902 127.984 219.819 127.675C219.651 127.057 219.979 125.652 220.8 123.461C221.146 122.742 221.507 121.669 221.886 120.239C222.258 118.818 222.587 117.413 222.863 116.028C223.14 114.645 223.194 113.644 223.026 113.023C221.203 113.914 219.074 115.795 216.647 118.666C214.215 121.541 211.828 124.969 209.482 128.956C207.137 132.945 205.016 137.064 203.126 141.318C201.23 145.573 199.843 149.586 198.962 153.354C198.08 157.122 197.948 160.142 198.562 162.411C198.842 163.446 199.331 164.244 200.027 164.811C200.726 165.376 201.793 165.298 203.226 164.576C204.552 163.438 206.058 161.878 207.749 159.893C209.441 157.911 211.212 155.722 213.068 153.322L210.896 157.351C210.688 157.784 210.325 158.657 209.809 159.969C209.292 161.283 209.205 161.752 209.539 161.376C211.015 158.795 212.724 155.969 214.667 152.901C216.606 149.835 218.651 146.637 220.797 143.309C219.512 145.007 218.215 146.736 216.902 148.5C215.584 150.269 214.305 151.877 213.068 153.322L219.394 143.559C222.458 138.809 225.388 134.574 228.185 130.855C230.987 127.136 233.75 123.893 236.478 121.123C234.225 124.035 231.826 127.325 229.284 130.992C226.74 134.659 224.186 138.361 221.61 142.102C224.644 138.054 227.673 134.067 230.686 130.139C233.7 126.213 236.397 122.825 238.777 119.972C240.185 118.341 241.276 117.361 242.058 117.029C242.742 116.739 243.155 116.85 243.294 117.366C243.406 117.779 243.169 118.629 242.595 119.906C242.017 121.188 241.024 122.643 239.618 124.277C237.876 126.284 235.941 128.973 233.812 132.35C231.68 135.729 229.417 139.422 227.025 143.429C224.632 147.438 222.295 151.362 220.02 155.202C217.741 159.049 215.652 162.468 213.745 165.459C212.828 166.886 211.97 168.142 211.177 169.226C210.382 170.308 209.653 171.223 208.983 171.969L208.983 171.971Z" fill="#77389A"/>
<path d="M240.578 160.291C239.993 160.54 238.899 160.225 237.305 159.348C235.708 158.474 234.068 157.444 232.39 156.257C230.707 155.072 229.465 154.19 228.656 153.61C228.442 149.214 228.84 144.359 229.843 139.04C230.851 133.723 232.244 128.331 234.024 122.856C235.804 117.383 237.693 112.211 239.687 107.334C241.683 102.462 243.469 98.3079 245.042 94.8799C243.746 96.9249 242.462 99.3993 241.182 102.299C239.899 105.205 239.015 107.16 238.532 108.169C237.694 109.906 236.854 111.616 236.002 113.298C235.155 114.984 234.395 116.599 233.731 118.146C235.62 113.091 237.572 108.349 239.584 103.926C241.594 99.5098 243.094 96.5125 244.082 94.9421C244.29 94.5087 244.607 93.971 245.032 93.3299C245.453 92.6928 245.995 92.1735 246.651 91.7811L247.442 89.8918C250.106 88.8788 253.164 88.5288 256.622 88.8427C260.077 89.1637 263.247 90.1181 266.128 91.7141C269.005 93.3143 270.926 95.6908 271.892 98.8475C272.004 99.261 271.915 99.7297 271.621 100.255C271.329 100.785 270.988 100.727 270.598 100.086C269.495 98.8275 268.335 97.7665 267.123 96.9009C265.911 96.0333 264.67 95.4682 263.399 95.2005C262.256 94.9965 261.149 95.1206 260.074 95.577C258.906 96.0725 257.943 96.9404 257.19 98.1796C255.659 100.556 253.967 103.837 252.11 108.016C250.249 112.202 248.455 116.616 246.724 121.262C244.993 125.909 243.526 130.328 242.324 134.521C241.121 138.714 240.424 142.057 240.229 144.556C240.622 143.586 241.366 142.119 242.464 140.157C243.565 138.194 244.755 136.164 246.037 134.065C247.313 131.97 248.418 130.208 249.335 128.782C249.638 128.308 250.305 127.337 251.321 125.868C252.332 124.404 253.41 122.855 254.544 121.222C255.679 119.59 256.62 118.33 257.355 117.438C257.412 117.648 257.004 118.452 256.134 119.855C255.265 121.261 254.2 122.863 252.948 124.66C251.696 126.459 250.538 128.098 249.47 129.589C248.406 131.074 247.768 132.037 247.56 132.47C246.764 133.958 245.842 135.673 244.796 137.612C243.741 139.555 242.785 141.342 241.924 142.973C241.064 144.607 240.505 145.763 240.253 146.444C240.167 146.942 240.19 147.22 240.317 147.281C240.444 147.341 240.595 147.105 240.776 146.569C241.294 144.853 242.217 142.85 243.555 140.555C244.889 138.263 246.387 135.876 248.053 133.38C249.718 130.893 251.195 128.625 252.491 126.58C254.022 124.204 255.434 122.082 256.718 120.211C258.01 118.342 259.146 116.623 260.135 115.053C259.641 112.844 259.995 111.029 261.185 109.6C262.375 108.175 263.403 107.449 264.27 107.429C264.91 107.388 265.915 107.392 267.289 107.441C268.659 107.494 269.939 107.698 271.123 108.057C272.31 108.418 272.832 109.145 272.697 110.238C272.461 112.179 272.639 114.952 273.236 118.552C273.83 122.158 274.52 125.402 275.303 128.291C276.422 132.42 278.201 133.964 280.638 132.93C281.905 132.392 283.416 130.948 285.173 128.59C285.812 127.744 286.326 127.239 286.717 127.073C287.01 126.949 287.198 127.041 287.281 127.35C287.393 127.763 287.309 128.458 287.033 129.44C286.752 130.421 286.545 131.056 286.408 131.345C285.598 133.185 284.541 134.984 283.223 136.753C281.909 138.517 280.421 139.754 278.762 140.458C278.078 140.747 277.368 140.936 276.627 141.016C275.889 141.102 275.107 141.03 274.288 140.802C271.371 140.086 268.915 138.137 266.913 134.955C264.907 131.781 263.559 128.9 262.86 126.32C262.693 125.702 262.562 125.127 262.469 124.588C262.381 124.05 262.326 123.556 262.313 123.1C261.491 124.486 260.14 126.813 258.252 130.088C256.365 133.363 254.279 137.01 251.999 141.025C249.715 145.044 247.527 148.821 245.44 152.35C243.355 155.885 241.733 158.527 240.575 160.286L240.578 160.291Z" fill="#77389A"/>
</svg>
