<svg width="110" height="17" viewBox="0 0 110 17" fill="none" xmlns="http://www.w3.org/2000/svg">
<path d="M12.0849 15.8123V7.79469C12.0849 5.59744 10.8928 4.24169 8.415 4.24169C6.56838 4.24169 5.16588 5.12994 4.44125 5.99482V0.221191H1.47263V15.8123H4.44125V8.21544C4.9555 7.53757 5.86713 6.88307 7.0125 6.88307C8.29813 6.88307 9.11625 7.37394 9.11625 8.94007V15.8123H12.0849Z" fill="white"/>
<path d="M20.0926 16.0928C23.8326 16.0928 26.0766 13.3813 26.0766 10.1556C26.0766 6.95319 23.8326 4.24169 20.0926 4.24169C16.376 4.24169 14.132 6.95319 14.132 10.1556C14.132 13.3813 16.376 16.0928 20.0926 16.0928ZM20.0926 13.4514C18.246 13.4514 17.2175 11.9321 17.2175 10.1556C17.2175 8.40244 18.246 6.88307 20.0926 6.88307C21.9393 6.88307 22.9911 8.40244 22.9911 10.1556C22.9911 11.9321 21.9393 13.4514 20.0926 13.4514Z" fill="white"/>
<path d="M45.0973 15.8123V7.65444C45.0973 5.34032 43.8584 4.24169 41.7781 4.24169C40.0483 4.24169 38.5523 5.27019 37.8978 6.29869C37.4771 5.01307 36.4252 4.24169 34.7656 4.24169C33.0358 4.24169 31.5398 5.31694 31.0723 5.99482V4.52219H28.1037V15.8123H31.0723V8.21544C31.5164 7.58432 32.3813 6.88307 33.4098 6.88307C34.6253 6.88307 35.0928 7.63107 35.0928 8.68294V15.8123H38.0848V8.19207C38.5056 7.58432 39.3704 6.88307 40.4223 6.88307C41.6378 6.88307 42.1053 7.63107 42.1053 8.68294V15.8123H45.0973Z" fill="white"/>
<path d="M53.1398 16.0928C54.8929 16.0928 56.6694 15.5552 57.7914 14.5267L56.4824 12.6099C55.7578 13.3112 54.4254 13.7319 53.467 13.7319C51.5503 13.7319 50.4049 12.5398 50.2179 11.1139H58.6095V10.4594C58.6095 6.76619 56.3188 4.24169 52.9528 4.24169C49.5167 4.24169 47.109 6.88307 47.109 10.1556C47.109 13.7787 49.7037 16.0928 53.1398 16.0928ZM55.7344 9.10369H50.1712C50.3114 7.98169 51.1062 6.60257 52.9528 6.60257C54.9163 6.60257 55.6643 8.02844 55.7344 9.10369Z" fill="white"/>
<path d="M63.5471 12.1892V8.19207C64.038 7.44407 65.1366 6.88307 66.095 6.88307C67.8248 6.88307 68.9701 8.21544 68.9701 10.1789C68.9701 12.1424 67.8248 13.4514 66.095 13.4514C65.1366 13.4514 64.038 12.9138 63.5471 12.1892ZM63.5471 15.8123V14.3631C64.4354 15.4851 65.6743 16.0928 67.03 16.0928C69.8818 16.0928 72.0323 13.9423 72.0323 10.1789C72.0323 6.48569 69.9051 4.24169 67.03 4.24169C65.6976 4.24169 64.4354 4.82607 63.5471 5.97144V0.221191H60.5785V15.8123H63.5471Z" fill="white"/>
<path d="M83.8469 15.8123V8.51932C83.8469 5.27019 81.486 4.24169 78.9147 4.24169C77.1382 4.24169 75.3617 4.80269 73.9826 6.01819L75.1046 8.00507C76.063 7.11682 77.185 6.67269 78.4005 6.67269C79.8965 6.67269 80.8782 7.42069 80.8782 8.56607V10.0854C80.1302 9.19719 78.7979 8.70632 77.3019 8.70632C75.502 8.70632 73.3749 9.71144 73.3749 12.3528C73.3749 14.8773 75.502 16.0928 77.3019 16.0928C78.7745 16.0928 80.1069 15.5552 80.8782 14.6436V15.8123H83.8469ZM78.494 14.0826C77.3252 14.0826 76.3669 13.4748 76.3669 12.4229C76.3669 11.3243 77.3252 10.7166 78.494 10.7166C79.4524 10.7166 80.3874 11.0438 80.8782 11.6983V13.1008C80.3874 13.7553 79.4524 14.0826 78.494 14.0826Z" fill="white"/>
<path d="M90.6833 16.0928C93.8156 16.0928 95.5687 14.5267 95.5687 12.4697C95.5687 7.91157 88.8834 9.31407 88.8834 7.63107C88.8834 6.99994 89.5847 6.50907 90.6599 6.50907C92.0391 6.50907 93.3247 7.09344 94.0026 7.81807L95.1947 5.78444C94.0727 4.89619 92.5533 4.24169 90.6366 4.24169C87.6679 4.24169 86.0083 5.90132 86.0083 7.79469C86.0083 12.2359 92.7169 10.7166 92.7169 12.5866C92.7169 13.2878 92.1092 13.8021 90.8236 13.8021C89.4211 13.8021 87.7381 13.0307 86.9199 12.2593L85.6343 14.3397C86.8264 15.4383 88.7198 16.0928 90.6833 16.0928Z" fill="white"/>
<path d="M102.887 16.0928C104.64 16.0928 106.416 15.5552 107.538 14.5267L106.229 12.6099C105.505 13.3112 104.172 13.7319 103.214 13.7319C101.297 13.7319 100.152 12.5398 99.9646 11.1139H108.356V10.4594C108.356 6.76619 106.066 4.24169 102.7 4.24169C99.2634 4.24169 96.8558 6.88307 96.8558 10.1556C96.8558 13.7787 99.4504 16.0928 102.887 16.0928ZM105.481 9.10369H99.9179C100.058 7.98169 100.853 6.60257 102.7 6.60257C104.663 6.60257 105.411 8.02844 105.481 9.10369Z" fill="white"/>
</svg>
