<svg width="36" height="50" viewBox="0 0 36 50" fill="none" xmlns="http://www.w3.org/2000/svg">
<g clip-path="url(#clip0_62_1644)">
<path fill-rule="evenodd" clip-rule="evenodd" d="M6.39406 10.5875C6.69712 10.9994 6.82323 11.295 7.04636 11.453C8.0579 12.1646 8.593 13.2888 9.44405 14.1406C10.305 15.0021 11.088 15.9424 11.905 16.8511C12.721 17.7574 13.5151 18.6845 14.3566 19.5657C16.6723 21.9945 19.0121 24.4016 21.3376 26.8206C23.1346 28.6903 24.8816 30.6127 26.7323 32.4253C28.2578 33.917 29.9001 35.2904 31.5035 36.7032C32.4191 37.51 33.3665 38.2805 34.2881 39.0818C34.5943 39.3466 34.8949 39.6306 35.143 39.9487C35.4483 40.3401 35.4482 40.8029 35.2532 41.2498C35.0382 41.7474 34.371 41.9346 33.9836 41.5931C30.1739 38.2338 26.1785 35.0789 22.6236 31.4291C20.3173 29.0606 17.9346 26.7675 15.6526 24.3773C13.2309 21.8404 10.8904 19.226 8.51095 16.6511C7.54457 15.6056 6.57214 14.5655 5.59234 13.5343C5.4734 13.4095 5.29167 13.3401 4.9907 13.1516C4.97926 13.8521 5.2393 14.2941 5.46374 14.7123C5.91952 15.571 6.03301 16.4358 5.66611 17.4597C5.38668 17.475 5.04211 17.5467 4.71669 17.4951C4.34563 17.4353 4.11692 17.1424 3.96821 16.7949C2.87669 14.2726 1.62758 11.8133 0.980272 9.11974C0.944233 8.97277 0.885231 8.82461 0.878198 8.67341C0.820238 7.40848 1.78381 6.62086 2.76821 6.88438C4.48711 7.34648 6.22153 7.75413 7.91857 8.28186C9.277 8.70201 10.5948 9.2605 11.9304 9.76351C14.1242 10.5879 16.3686 11.2388 18.6761 11.6742C19.1185 11.7561 19.5432 11.958 19.9582 12.1444C20.1326 12.2227 20.2852 12.3861 20.407 12.5433C20.7113 12.9323 20.5236 13.5247 20.0474 13.6482C18.8486 13.9606 17.6222 14.0298 16.4232 13.7308C14.8969 13.3502 13.382 12.9058 11.8831 12.4207C10.3831 11.9332 8.91197 11.3575 7.42426 10.8338C7.15968 10.7416 6.8762 10.7026 6.39612 10.5922L6.39406 10.5875Z" fill="white"/>
</g>
<defs>
<clipPath id="clip0_62_1644">
<rect width="45.0255" height="19.38" fill="white" transform="matrix(0.399722 0.916637 0.916637 -0.399722 0 7.74658)"/>
</clipPath>
</defs>
</svg>
