<svg width="17" height="14" viewBox="0 0 17 14" fill="none" xmlns="http://www.w3.org/2000/svg">
<path d="M15.7859 1.02088L15.3522 0.659877C14.6323 0.0604853 13.5504 0.127298 12.9149 0.810173L5.65952 8.60444L3.46946 6.77696C2.75031 6.17689 1.66833 6.24236 1.03197 6.9245L0.648501 7.33561C0.337523 7.66881 0.176056 8.10834 0.199505 8.55731C0.223185 9.00602 0.429799 9.42728 0.774233 9.72845L4.78871 13.2902C5.13628 13.6064 5.60208 13.7714 6.0782 13.7469C6.55431 13.7225 6.99944 13.5105 7.31045 13.1604L15.9715 3.41019C16.2741 3.06954 16.4245 2.62643 16.3896 2.17839C16.3548 1.73003 16.1377 1.31373 15.7859 1.02088Z" fill="#FDBA18"/>
</svg>
