<svg width="159" height="25" viewBox="0 0 159 25" fill="none" xmlns="http://www.w3.org/2000/svg">
<path d="M16.4401 24.258V12.1343C16.4401 8.81173 14.7001 6.76166 11.0838 6.76166C8.38858 6.76166 6.34159 8.10481 5.28397 9.41261V0.682129H0.951172V24.258H5.28397V12.7705C6.03454 11.7455 7.36508 10.7558 9.03679 10.7558C10.9132 10.7558 12.1073 11.498 12.1073 13.8662V24.258H16.4401Z" fill="white"/>
<path d="M28.1277 24.6821C33.5863 24.6821 36.8615 20.582 36.8615 15.7042C36.8615 10.8618 33.5863 6.76166 28.1277 6.76166C22.7031 6.76166 19.4279 10.8618 19.4279 15.7042C19.4279 20.582 22.7031 24.6821 28.1277 24.6821ZM28.1277 20.688C25.4325 20.688 23.9313 18.3905 23.9313 15.7042C23.9313 13.0533 25.4325 10.7558 28.1277 10.7558C30.8229 10.7558 32.3581 13.0533 32.3581 15.7042C32.3581 18.3905 30.8229 20.688 28.1277 20.688Z" fill="white"/>
<path d="M64.6228 24.258V11.9222C64.6228 8.42293 62.8146 6.76166 59.7782 6.76166C57.2536 6.76166 55.0701 8.31689 54.1149 9.87212C53.5008 7.92808 51.9655 6.76166 49.5433 6.76166C47.0186 6.76166 44.8352 8.38758 44.1528 9.41261V7.18581H39.82V24.258H44.1528V12.7705C44.8011 11.8161 46.0634 10.7558 47.5645 10.7558C49.3386 10.7558 50.0209 11.8868 50.0209 13.4774V24.258H54.3878V12.7351C55.0019 11.8161 56.2642 10.7558 57.7995 10.7558C59.5735 10.7558 60.2559 11.8868 60.2559 13.4774V24.258H64.6228Z" fill="white"/>
<path d="M76.361 24.6821C78.9197 24.6821 81.5126 23.8692 83.1502 22.3139L81.2397 19.4156C80.182 20.4759 78.2374 21.1122 76.8386 21.1122C74.0411 21.1122 72.3694 19.3095 72.0964 17.1534H84.3443V16.1637C84.3443 10.579 81.0008 6.76166 76.0881 6.76166C71.0729 6.76166 67.5589 10.7558 67.5589 15.7042C67.5589 21.1829 71.3459 24.6821 76.361 24.6821ZM80.1479 14.1136H72.0282C72.2329 12.417 73.3928 10.3316 76.0881 10.3316C78.9538 10.3316 80.0456 12.4877 80.1479 14.1136Z" fill="white"/>
<path d="M91.5508 18.7793V12.7351C92.2673 11.6041 93.8708 10.7558 95.2695 10.7558C97.7942 10.7558 99.4659 12.7705 99.4659 15.7396C99.4659 18.7086 97.7942 20.688 95.2695 20.688C93.8708 20.688 92.2673 19.8751 91.5508 18.7793ZM91.5508 24.258V22.0665C92.8473 23.7631 94.6554 24.6821 96.6342 24.6821C100.796 24.6821 103.935 21.4303 103.935 15.7396C103.935 10.1549 100.831 6.76166 96.6342 6.76166C94.6896 6.76166 92.8473 7.64531 91.5508 9.37727V0.682129H87.218V24.258H91.5508Z" fill="white"/>
<path d="M121.179 24.258V13.23C121.179 8.31689 117.733 6.76166 113.98 6.76166C111.387 6.76166 108.795 7.60996 106.782 9.44796L108.419 12.4524C109.818 11.1092 111.456 10.4377 113.23 10.4377C115.413 10.4377 116.846 11.5687 116.846 13.3007V15.5982C115.754 14.255 113.81 13.5128 111.626 13.5128C108.999 13.5128 105.895 15.0326 105.895 19.0268C105.895 22.8441 108.999 24.6821 111.626 24.6821C113.776 24.6821 115.72 23.8692 116.846 22.4907V24.258H121.179ZM113.366 21.6424C111.66 21.6424 110.262 20.7234 110.262 19.1328C110.262 17.4715 111.66 16.5525 113.366 16.5525C114.765 16.5525 116.13 17.0474 116.846 18.0371V20.1578C116.13 21.1475 114.765 21.6424 113.366 21.6424Z" fill="white"/>
<path d="M131.157 24.6821C135.729 24.6821 138.287 22.3139 138.287 19.2035C138.287 12.311 128.53 14.4318 128.53 11.8868C128.53 10.9325 129.553 10.1902 131.123 10.1902C133.136 10.1902 135.012 11.0739 136.001 12.1696L137.741 9.0945C136.104 7.75135 133.886 6.76166 131.089 6.76166C126.756 6.76166 124.334 9.27123 124.334 12.1343C124.334 18.85 134.125 16.5525 134.125 19.3802C134.125 20.4406 133.238 21.2182 131.362 21.2182C129.315 21.2182 126.858 20.0518 125.664 18.8854L123.788 22.0312C125.528 23.6924 128.291 24.6821 131.157 24.6821Z" fill="white"/>
<path d="M148.968 24.6821C151.527 24.6821 154.12 23.8692 155.757 22.3139L153.847 19.4156C152.789 20.4759 150.844 21.1122 149.446 21.1122C146.648 21.1122 144.976 19.3095 144.703 17.1534H156.951V16.1637C156.951 10.579 153.608 6.76166 148.695 6.76166C143.68 6.76166 140.166 10.7558 140.166 15.7042C140.166 21.1829 143.953 24.6821 148.968 24.6821ZM152.755 14.1136H144.635C144.84 12.417 146 10.3316 148.695 10.3316C151.561 10.3316 152.652 12.4877 152.755 14.1136Z" fill="white"/>
</svg>
