<svg width="161" height="38" viewBox="0 0 161 38" fill="none" xmlns="http://www.w3.org/2000/svg">
<path d="M160.788 16.3402C160.896 16.3402 160.84 16.067 160.854 16.0151C160.68 16.0952 160.797 16.4156 160.788 16.3402Z" fill="#452F53"/>
<path d="M159.087 17.1081L159.111 16.9856L158.87 17.2966L159.087 17.1081Z" fill="#452F53"/>
<path d="M157.457 17.1931C157.641 17.6878 158.046 17.08 158.343 17.2449L158.399 17.3533L158.507 16.9434C158.159 17.0376 157.716 17.3203 157.457 17.1931Z" fill="#452F53"/>
<path d="M156.529 16.1519C156.595 16.345 156.35 16.3309 156.736 16.2037C156.72 16.1893 156.706 16.1735 156.694 16.1566C156.639 16.1617 156.583 16.1601 156.529 16.1519Z" fill="#452F53"/>
<path d="M156.693 16.1566C156.868 16.133 156.576 15.9964 156.693 16.1566V16.1566Z" fill="#452F53"/>
<path d="M155.935 16.3119L156.152 16.1235C156.095 16.0104 155.892 15.9963 155.963 15.9067C155.713 16.0151 155.77 16.1282 155.935 16.3119Z" fill="#452F53"/>
<path d="M155.718 16.6937L155.831 16.6089C155.808 16.5665 155.775 16.5665 155.718 16.6937Z" fill="#452F53"/>
<path d="M156.067 16.4395L155.831 16.6091C155.869 16.6892 155.878 16.8541 155.939 16.5478C155.935 16.6986 155.968 16.5667 156.067 16.4395Z" fill="#452F53"/>
<path d="M156.213 16.5099C156.345 16.6136 156.515 16.6701 156.298 16.8586C156.727 16.7643 156.642 16.4157 156.213 16.5099Z" fill="#452F53"/>
<path d="M157.405 17.721L157.584 17.8576L157.721 17.6833C157.65 17.7681 157.386 17.5608 157.405 17.721Z" fill="#452F53"/>
<path d="M154.488 16.1282C154.518 16.2705 154.558 16.4106 154.606 16.5475L154.766 16.4156C154.677 16.3449 154.521 16.2884 154.488 16.1282Z" fill="#452F53"/>
<path d="M154.606 16.5664L154.366 16.7643C154.592 16.7549 154.625 16.6654 154.606 16.5664Z" fill="#452F53"/>
<path d="M155.709 17.2544L156.095 16.8445L155.629 17.2638L155.709 17.2544Z" fill="#452F53"/>
<path d="M153.537 16.1708L153.664 15.9116L153.433 16.3027L153.537 16.1708Z" fill="#452F53"/>
<path d="M152.905 16.2463C153 16.039 152.745 15.9071 152.849 15.7751C152.669 15.8602 152.519 15.9983 152.42 16.1709C152.552 16.0955 152.703 16.0955 152.905 16.2463Z" fill="#452F53"/>
<path d="M152.208 16.4157C152.289 16.3433 152.36 16.261 152.42 16.1707C152.332 16.2359 152.26 16.3195 152.208 16.4157Z" fill="#452F53"/>
<path d="M153.937 16.717C153.923 16.6559 153.897 16.5982 153.861 16.5472C153.825 16.4963 153.778 16.4531 153.725 16.4202L153.838 16.717H153.937Z" fill="#452F53"/>
<path d="M153.966 16.7173H153.937C153.951 16.7459 153.956 16.7554 153.966 16.7173Z" fill="#452F53"/>
<path d="M155.04 17.0376C154.903 17.2119 154.606 17.4098 154.913 17.6501C154.993 17.4192 154.832 17.2826 155.04 17.0376Z" fill="#452F53"/>
<path d="M154.107 17.0848L154.375 17.1413C154.375 17.0612 154.309 16.9482 154.375 16.8586L154.107 17.0848Z" fill="#452F53"/>
<path d="M153.98 17.1884L154.107 17.0848L154.008 17.0659L153.98 17.1884Z" fill="#452F53"/>
<path d="M152.679 16.6748C152.633 16.7288 152.576 16.7729 152.512 16.8044C152.448 16.836 152.378 16.8544 152.307 16.8585C152.458 16.9112 152.618 16.9336 152.778 16.9245C152.783 16.8255 152.839 16.6512 152.679 16.6748Z" fill="#452F53"/>
<path d="M153.245 16.7268H153.221C153.221 16.7268 153.25 16.7792 153.245 16.7268Z" fill="#452F53"/>
<path d="M150.912 16.9294L150.936 16.9828L150.941 16.9294H150.912Z" fill="#452F53"/>
<path d="M152.797 16.9765C152.915 17.0283 152.976 16.9765 153.037 16.854C152.952 16.8918 152.861 16.9156 152.769 16.9247C152.759 16.9671 152.759 16.9954 152.797 16.9765Z" fill="#452F53"/>
<path d="M151.826 16.5666C151.891 16.6225 151.96 16.673 152.034 16.7174C151.972 16.642 151.845 16.5007 151.826 16.5666Z" fill="#452F53"/>
<path d="M153.179 16.6625C153.155 16.5654 153.16 16.6188 153.179 16.6625V16.6625Z" fill="#452F53"/>
<path d="M153.179 16.6606C153.123 16.7181 153.075 16.7831 153.037 16.8538C153.105 16.8291 153.167 16.7924 153.221 16.7455C153.205 16.7182 153.191 16.6898 153.179 16.6606Z" fill="#452F53"/>
<path d="M150.592 18.8845C150.592 18.6065 150.884 18.3332 151.157 18.6159C151.402 18.3945 151.186 17.4851 150.936 16.981C150.936 17.1035 150.936 17.2165 150.691 17.3956C150.79 17.5417 151.289 17.7207 151.082 17.9846C150.743 18.1495 150.79 17.8997 150.611 17.7631C150.771 18.1024 150.196 18.2908 150.295 18.7997L150.592 18.6065C150.606 18.6819 150.502 18.8185 150.592 18.8845Z" fill="#452F53"/>
<path d="M151.44 16.9859L151.544 16.9435C151.421 16.9011 151.327 16.7975 151.153 16.5854C151.094 16.6235 151.044 16.6741 151.008 16.7335C150.971 16.793 150.948 16.8599 150.941 16.9294H151.473L151.44 16.9859Z" fill="#452F53"/>
<path d="M152.029 16.9198C151.958 17.2261 151.709 17.391 151.883 17.6925C152.199 17.6548 152.095 17.424 152.274 17.2826C151.77 17.3863 152.411 17.1036 152.034 16.9528C152.119 16.9069 152.211 16.875 152.307 16.8586C152.212 16.8249 152.12 16.7823 152.034 16.7313C152.057 16.769 152.067 16.7926 152.034 16.769C152.037 16.8067 152.037 16.8445 152.034 16.8821C151.883 16.8303 152.005 16.8067 152.034 16.769V16.7219L151.529 16.9151C151.693 16.96 151.865 16.9616 152.029 16.9198Z" fill="#452F53"/>
<path d="M154.677 18.3012C154.669 18.2782 154.669 18.2527 154.677 18.2297C154.625 18.2726 154.615 18.2964 154.677 18.3012Z" fill="#452F53"/>
<path d="M154.455 18.1306C154.493 18.0835 154.517 17.961 154.639 17.9846C154.762 18.0081 154.639 18.1306 154.639 18.2296C154.705 18.1448 154.879 17.9987 154.639 17.8621L154.606 17.9092C154.394 17.815 154.111 17.438 154.135 17.405C154.206 17.661 154.314 17.9054 154.455 18.1306Z" fill="#452F53"/>
<path d="M153.23 17.603L152.816 17.7774L153.047 18.0271L153.023 17.8669C153.273 17.9187 153.207 17.7255 153.23 17.603Z" fill="#452F53"/>
<path d="M150.856 16.7785L150.898 16.4534L150.672 16.9198L150.856 16.7785Z" fill="#452F53"/>
<path d="M150.304 16.8444L150.309 16.5664L150.172 16.7407L150.304 16.8444Z" fill="#452F53"/>
<path d="M82.1633 22.3479L81.8853 22.428C81.981 22.4134 82.0744 22.3864 82.1633 22.3479Z" fill="#452F53"/>
<path d="M84.1751 22.3478L84.227 22.2112C84.1327 22.2866 84.095 22.3431 84.1751 22.3478Z" fill="#452F53"/>
<path d="M121.275 18.1073C120.861 17.8576 120.399 17.4665 120.456 17.7822L120.592 18.0837C120.817 18.0258 121.055 18.034 121.275 18.1073Z" fill="#452F53"/>
<path d="M100.657 20.482L100.779 20.5715L101.043 20.2747L100.657 20.482Z" fill="#452F53"/>
<path d="M100.398 21.7493L99.8604 21.5608C100.031 21.6459 100.211 21.7092 100.398 21.7493Z" fill="#452F53"/>
<path d="M71.1564 22.7249L70.8313 23.0358C71.3402 23.0311 71.1234 22.8756 71.1564 22.7249Z" fill="#452F53"/>
<path d="M138.85 17.5089C138.567 17.4172 138.272 17.3664 137.974 17.3582C138.403 17.5089 138.751 17.7681 138.85 17.5089Z" fill="#452F53"/>
<path d="M82.9265 19.0872C82.7569 19.1437 82.6862 19.205 82.6909 19.2756C82.8653 19.2191 82.9642 19.1625 82.9265 19.0872Z" fill="#452F53"/>
<path d="M136.965 17.4053C137.031 17.4336 137.093 17.4477 137.154 17.4713C137.421 17.3952 137.697 17.3571 137.974 17.3582C137.815 17.2824 137.64 17.2471 137.464 17.2553C137.288 17.2635 137.117 17.3151 136.965 17.4053Z" fill="#452F53"/>
<path d="M31.2387 21.9803C31.2093 21.9706 31.1808 21.958 31.1539 21.9426C31.1397 21.985 31.1822 21.9897 31.2387 21.9803Z" fill="#452F53"/>
<path d="M19.7184 18.5548C19.8753 18.5451 20.0327 18.5451 20.1896 18.5548C20.0338 18.526 19.8741 18.526 19.7184 18.5548Z" fill="#452F53"/>
<path d="M146.469 16.901C146.728 16.868 146.511 16.868 146.469 16.901V16.901Z" fill="#452F53"/>
<path d="M147.798 18.0508C147.77 18.0667 147.746 18.0892 147.729 18.1163C147.712 18.1434 147.701 18.1743 147.699 18.2063C147.704 18.175 147.715 18.1452 147.732 18.1184C147.749 18.0917 147.772 18.0687 147.798 18.0508Z" fill="#452F53"/>
<path d="M134.454 19.4265H134.431C134.512 19.4837 134.497 19.4742 134.454 19.4265Z" fill="#452F53"/>
<path d="M146.87 17.0375C146.759 17.0005 146.646 16.9752 146.53 16.9622C146.641 16.9963 146.755 17.0216 146.87 17.0375Z" fill="#452F53"/>
<path d="M146.808 16.8821H147.039C147.067 16.8444 147.039 16.8161 146.808 16.8821Z" fill="#452F53"/>
<path d="M146.111 16.9387C146.25 16.9244 146.391 16.9244 146.53 16.9387C146.478 16.9387 146.46 16.9057 146.469 16.8916L146.111 16.9387Z" fill="#452F53"/>
<path d="M52.6346 21.5515L52.578 21.5232C52.3142 21.6504 52.432 21.6316 52.6346 21.5515Z" fill="#452F53"/>
<path d="M113.656 21.7493C113.761 21.6056 113.91 21.5004 114.08 21.4501C114.251 21.3998 114.433 21.4073 114.599 21.4714L114.264 20.595L113.656 21.7493Z" fill="#452F53"/>
<path d="M77.3384 22.4655L77.998 22.7388C77.2065 23.21 76.6269 23.0403 77.2489 23.4267C77.3384 22.4844 79.8073 23.3231 79.8969 22.3571L80.3303 22.555C80.2078 22.555 80.1843 22.6069 80.0618 22.5974C80.9099 23.0686 80.6837 21.8954 81.7721 22.0226C82.1538 22.0933 82.4176 22.2299 82.1632 22.3477L83.0066 22.1027C83.2516 22.1027 83.1904 22.2865 82.9454 22.2676L84.2364 22.1828V22.2111C84.4861 22.0289 84.7528 21.8711 85.0327 21.7399C85.3625 21.8718 84.8725 21.8436 84.9573 21.9614L85.6688 21.7211C85.9609 21.9661 85.3719 22.2158 84.8772 22.1922C85.5557 23.1346 85.4661 21.9472 86.9127 22.4938L86.2389 22.621C86.6771 23.1629 87.1812 22.9602 87.9681 23.2901C87.7843 23.1157 86.4321 22.4514 87.2048 22.2017C87.3598 22.2523 87.5236 22.2701 87.6859 22.2538C87.8481 22.2376 88.0052 22.1878 88.1471 22.1074C88.1471 22.4467 88.5618 22.3666 89.0895 22.3383L89.0612 22.8095C89.6125 22.6681 89.5654 22.4372 89.8858 22.2299C90.0881 22.232 90.2843 22.299 90.4455 22.4212C90.6068 22.5434 90.7244 22.7142 90.781 22.9084C91.7705 22.965 90.0931 22.3571 91.2522 22.2535C92.072 22.4137 92.6657 22.2205 93.608 21.9378C94.1876 22.0839 93.5138 22.2158 93.7211 22.3383L94.2253 21.9708C94.3478 21.9708 94.3101 22.0886 94.2912 22.1451C94.7153 21.9991 94.3195 21.6739 94.9886 21.5609C95.1629 21.0614 96.4021 22.2676 97.2078 21.6881C97.4151 21.8153 97.1136 21.9708 97.1796 22.1592C97.8422 21.9797 98.4766 21.7085 99.0642 21.3535L99.8699 21.6315C99.2763 21.3064 100.016 20.8871 100.666 20.5431C100.503 20.4117 100.331 20.2905 100.153 20.1803L101.199 19.9165C101.326 19.9871 101.222 20.1426 101.053 20.3358C101.119 20.3023 101.184 20.2645 101.246 20.2227C101.623 20.3829 101.434 20.6468 101.17 20.9059C101.038 20.8211 100.911 20.7269 100.789 20.6326C100.534 20.9153 100.318 21.2216 100.355 21.4855C100.46 21.4209 100.577 21.3777 100.699 21.3583C100.633 21.4336 100.591 21.4996 100.624 21.5467C100.657 21.5938 100.765 21.4902 100.935 21.3724L101.185 21.8718L101.236 21.6692L102.617 21.9566C103.588 21.4289 104.426 20.6656 105.976 20.4253C105.599 20.8023 105.906 21.0284 105.896 21.4666C105.463 20.9954 104.695 21.6881 103.884 21.6127C104.308 21.6504 104.219 21.8624 104.115 21.9378L105.529 21.4666C105.505 21.8247 105.84 21.7305 106.221 21.8671C105.92 21.1698 107.286 21.3959 107.866 21.1415C107.908 21.3771 107.772 21.6127 107.055 21.5844C107.856 22.098 108.054 20.7269 108.841 21.1604C108.667 21.1604 108.573 21.1604 108.507 21.2593C108.907 21.0379 109.92 21.1745 109.68 21.3912H109.505C110.665 21.4431 113.03 21.3017 113.19 20.6939C113.156 20.9851 113.088 21.2713 112.987 21.5467L114.999 19.4688C114.83 19.9918 115.565 21.2028 114.613 21.5185C115.007 21.6291 115.427 21.6109 115.81 21.4666C115.621 21.3959 115.339 20.7316 115.579 20.6751C116.3 21.231 116.05 20.9672 116.959 21.4289C116.677 21.33 116.959 20.4866 117.431 20.5196C117.365 20.6468 117.492 21.3206 117.332 21.4101L118.415 20.5761C118.142 20.7316 118.387 21.2546 118.642 21.4713C118.524 21.3158 119.584 21.4713 119.895 21.363L119.424 21.1981C120.682 21.2734 120.625 20.039 121.869 20.039C121.723 20.2086 121.53 21.0614 122.166 21.1415C122.444 20.7269 123.382 19.1437 124.47 18.7856L124.687 19.0118L125.521 18.715C124.709 19.6447 123.797 20.4822 122.802 21.2122C123.273 21.3818 122.943 21.4808 123.641 21.4384C123.9 21.6457 123.273 21.7776 123.066 21.8012L124.706 21.886C124.616 21.4148 125.94 21.363 125.86 20.9719L124.102 21.5279C124.018 21.0567 125.083 20.1473 126.242 20.185C126.543 20.3594 126.053 21.0379 126.081 21.1933C126.444 20.9817 126.867 20.8971 127.283 20.953L126.812 21.2263C127.467 21.3771 127.844 20.5573 128.635 20.9766C128.904 20.9766 129.455 21.5609 129.493 21.2782C129.022 20.7504 128.885 19.0778 129.163 18.6631C129.763 18.845 130.343 19.0849 130.897 19.3793C131.368 19.7892 130.28 20.4206 130.666 20.7693C130.666 20.6374 130.916 20.4677 131.015 20.4159C131.297 20.5149 130.911 20.8211 131.519 20.741C131.604 20.2698 132.763 20.741 131.792 20.3217C132.386 20.1615 132.433 20.3971 133.13 20.3499C132.895 20.0437 133.719 19.2662 134.308 19.1013C134.28 19.2285 134.416 19.3793 134.487 19.45C135.712 19.45 136.372 19.629 137.517 19.5819C137.625 19.695 138.181 19.8128 137.955 20.0295C138.14 19.8702 138.368 19.7701 138.61 19.7421C139.312 20.1285 137.832 19.8411 138.37 20.317C138.403 20.0343 139.265 19.8929 139.755 19.695C139.585 19.271 138.596 19.662 138.101 19.8599C138.073 19.2615 138.921 18.6019 140.099 18.2721C141.041 18.0836 140.523 18.6396 140.688 18.5453C142.469 18.5736 142.153 17.4428 143.647 17.8009C144.25 18.1496 143.708 18.5548 143.849 18.8233C143.086 19.0071 142.657 18.6396 142.134 18.6773L142.785 18.828C142.469 18.9968 142.104 19.0517 141.753 18.9835C142.257 19.3086 144.759 18.9081 146.144 19.1532C146.384 19.0165 146.794 18.861 146.615 18.7197L146.182 18.7951C145.767 18.5076 146.978 18.3239 146.422 18.2155C146.992 17.9705 147.628 17.5983 148.457 17.7443L148.632 18.1731C148.608 18.0459 148.085 17.9422 147.859 18.0836C148.189 17.8763 149.145 18.6066 149.489 18.0223L148.867 17.7114C149.013 17.6501 149.164 17.5747 149.339 17.4946L149.456 17.4334L149.513 17.3768L149.626 17.2732C149.681 17.2043 149.755 17.1523 149.838 17.1232C149.921 17.094 150.011 17.0889 150.097 17.1083C149.928 16.6889 150.026 17.1648 149.767 16.6748C149.885 16.981 149.673 16.9858 149.48 16.9905H149.339H149.192C149.117 16.9948 149.042 17.0107 148.971 17.0376C148.863 17.0847 148.858 17.1648 149.046 17.3203C148.486 16.7643 148.104 17.1177 147.402 16.6606C147.43 16.802 147.661 16.9198 147.049 16.8774C147.012 16.9284 146.97 16.9743 146.921 17.014H146.879H146.912C146.888 17.014 146.884 17.0423 146.912 17.014C147.036 17.05 147.147 17.1202 147.232 17.2166C146.945 17.5606 145.979 17.5983 145.659 17.782C145.291 17.7349 145.8 17.6124 145.597 17.4711L145.126 17.7491C145.06 17.4334 144.137 17.2779 144.98 17.0423H144.212C143.735 16.884 143.22 16.8823 142.742 17.0376C142.375 16.981 141.842 17.4287 142.148 17.1648L140.956 17.4145V17.3344C139.769 17.3344 138.539 17.9658 137.159 17.4569C136.681 17.5991 136.181 17.6502 135.684 17.6077L135.543 17.3391C135.034 17.4569 133.992 17.1318 133.78 17.4287C133.201 16.7125 131.288 17.3627 130.383 17.2685L130.36 17.6266C129.692 17.6542 129.03 17.7553 128.385 17.9281L128.442 18.2438C127.787 18.5265 126.727 18.0836 125.676 18.1543C125.742 18.0318 126.011 18.0506 126.204 18.1166C124.922 17.4522 123.57 18.7338 122.434 18.2485C122.326 18.296 122.209 18.3205 122.091 18.3205C121.972 18.3205 121.855 18.296 121.747 18.2485C121.768 18.2532 121.791 18.2532 121.813 18.2485H121.699C121.572 18.1967 121.44 18.1401 121.299 18.093C121.404 18.159 121.516 18.2127 121.634 18.2532C121.339 18.2733 121.046 18.3238 120.762 18.404L120.616 18.0695H120.54C120.215 17.9517 120.286 18.2344 120.465 18.4888C120.315 18.5418 120.172 18.6147 120.041 18.7055C119.768 18.1637 119.193 18.9176 118.821 18.3427C118.613 18.6349 117.19 18.6113 117.04 19.2191C117.04 19.139 116.926 19.106 117.101 19.0966C116.753 18.9992 116.383 19.0225 116.05 19.1626L115.885 18.7338L115.108 19.3369C114.637 19.0872 114.415 18.9411 114.886 18.5925C113.746 19.139 113.944 18.8139 113.002 19.3463L113.039 19.0636C112.691 19.0636 112.139 19.4736 111.923 19.2474C111.122 18.7338 108.035 19.2804 106.009 18.8328C106.419 19.6479 105.067 18.4841 105.001 19.1249C104.879 18.9317 104.596 18.828 104.916 18.6537C103.894 18.8705 103.366 18.3804 102.669 18.9317C102.546 18.7385 102.881 18.6443 102.772 18.5265C102.692 18.5736 102.452 18.7055 102.344 18.5925C102.235 18.4794 102.49 18.4228 102.65 18.338C101.599 18.3899 101.505 18.993 101.444 19.5584C101.264 19.4256 101.04 19.3685 100.819 19.3993C100.598 19.4301 100.397 19.5465 100.261 19.7233C100.073 19.5442 99.7616 19.3558 100.412 19.2521C100.044 19.2521 98.1643 19.0307 98.136 19.483C98.0182 19.3699 97.6225 19.483 97.5235 19.5112C96.9554 19.4783 96.3859 19.4783 95.8179 19.5112L96.044 19.5819C95.733 20.1332 95.3749 19.7139 94.72 19.7892V19.7327C93.217 19.3605 94.0792 19.9306 92.595 19.5065L92.6798 19.8411C92.5526 20.5714 91.3652 19.4312 90.5124 19.7233L90.8234 19.9117C90.3522 20.1709 89.5041 18.9411 89.0329 18.8563C88.9293 18.7951 89.1931 18.7527 89.3345 18.7055C88.1 18.2909 89.1837 19.1767 88.2696 19.2662C88.0953 19.0259 88.477 18.6537 87.8597 18.616C87.5535 18.4228 86.0834 19.4076 85.2353 18.9553C85.4237 19.139 85.6075 19.3228 85.1834 19.4641C84.5332 19.5348 83.4118 18.7809 82.8276 19.3699C82.7984 19.357 82.7726 19.3375 82.7521 19.313C82.7317 19.2885 82.7172 19.2596 82.7098 19.2285C82.215 19.3793 81.0937 19.4924 80.7921 19.8081C80.3209 18.649 77.6965 20.3971 77.7012 19.3369L76.1652 19.3982L76.2076 19.2851C75.9113 19.2382 75.6084 19.2561 75.3196 19.3374C75.0309 19.4188 74.7632 19.5616 74.5349 19.7563C74.3087 19.6856 74.4736 19.5819 74.4925 19.5254C73.079 19.3134 72.9188 19.3605 71.7173 19.9023L71.5901 19.5537C71.265 19.761 69.5216 19.0071 68.1128 19.4076C68.1251 19.3715 68.1456 19.3388 68.1725 19.3118C68.1995 19.2849 68.2322 19.2644 68.2683 19.2521C66.6851 19.6573 64.4989 18.2721 63.9052 19.5442L62.8592 19.8552C64.2068 19.9589 62.6566 20.4112 63.2079 20.6232C62.6802 20.6986 61.8368 20.2369 62.4917 20.152L62.5906 20.218C62.8356 19.5537 60.918 19.9777 60.9557 19.5207C58.2982 19.5207 55.7115 19.139 53.2237 19.0919L53.5064 19.6102L52.6394 19.5725C52.4133 19.45 52.3379 19.1673 52.9551 19.1956C52.6347 18.8987 51.9138 19.4264 51.895 19.5395C50.6888 19.3134 52.3661 18.9458 52.0033 18.927L51.4992 18.9553L51.6123 19.0212C51.2023 19.2238 51.1411 19.45 50.4202 19.4123C49.949 19.3039 50.1799 19.0919 49.9961 19.0683C49.9961 19.0307 49.9349 19.0118 49.7134 19.0683L48.6203 19.0071L49.0491 19.4217C48.5779 19.6149 48.0219 19.384 48.5214 19.8552C47.791 19.1343 44.4457 19.5395 43.9934 19.3134C43.2947 19.5623 42.5458 19.6367 41.8118 19.5301C42.0144 19.6196 42.1322 20.0814 41.4161 20.0013C41.694 19.0589 40.1109 19.5631 39.5314 18.8705C40.0402 19.3416 37.4959 18.9411 38.2969 19.6008C37.6985 19.5112 38.2639 19.2427 37.8257 19.0118C36.4122 19.3463 34.6971 18.715 32.9396 18.7904C32.9114 18.9129 33.1988 19.1108 32.8171 19.2851L31.9078 18.6396C31.545 18.715 31.545 19.3935 30.9324 18.9223C31.0172 19.0307 31.1492 19.1909 30.9324 19.2238C27.507 18.5359 23.8648 19.5348 20.4252 18.2815C20.8964 18.5359 20.576 18.5501 20.2132 18.5501C20.4441 18.6113 20.2132 18.8563 20.2368 19.0212L18.7903 18.5076C18.5076 18.9788 17.2213 18.5076 17.0516 18.9317L17.5228 18.8657C16.8867 19.3699 18.3474 20.0625 18.2343 20.7504C18.9457 20.1756 20.0247 21.6928 21.1885 20.8729C21.4335 21.019 20.9671 21.085 21.0943 21.2452C21.3911 20.9672 21.7398 20.9153 22.3806 21.0661L22.3052 21.1368C24.1145 21.1368 24.8825 21.4384 26.9039 21.6787L26.7672 21.3394C27.0248 21.3704 27.2724 21.4572 27.4929 21.5938C28.0064 21.1227 26.2678 21.5326 26.739 20.986C27.2997 21.6834 29.8157 21.0755 30.1833 21.8577C30.857 21.8577 29.9995 21.4666 30.6544 21.4902L30.8288 21.7022L31.0031 21.4384C31.4413 21.4949 31.658 21.7588 31.6722 21.9378C31.5293 21.9393 31.3871 21.9567 31.2481 21.9896C31.8135 22.2535 32.8642 21.9472 33.0574 22.0367L32.4119 21.8907C34.2495 21.7446 36.4829 22.0603 38.2592 21.6692L38.1414 21.4996C39.4984 21.2357 39.2204 21.6975 40.7093 21.5891L40.6528 21.6268C40.9975 21.4683 41.3769 21.4002 41.7553 21.4289C41.3784 21.608 42.4574 21.8012 41.9626 21.999C43.4327 21.7116 42.6882 21.7682 43.6683 21.1981L43.885 21.4619C44.0327 21.3226 44.2067 21.2142 44.3969 21.143C44.587 21.0719 44.7894 21.0393 44.9923 21.0473C44.3797 21.264 45.4634 21.4525 44.7708 21.7399C46.321 22.3383 47.089 21.1981 47.791 22.0462C48.5167 21.33 46.4529 21.6221 46.8487 21.4713C46.5189 21.231 47.4471 20.9389 47.9324 21.0002C48.4177 21.0614 48.7664 21.9425 50.015 21.9425C49.8925 21.9425 49.8831 21.9943 49.7558 21.9896C50.227 22.1781 50.6982 21.7493 51.2495 22.0603C51.5746 21.6268 51.9939 22.0933 52.0929 21.5373L50.9432 21.6504C51.5934 21.5137 52.2107 20.8729 53.2991 21.1792C53.115 21.333 52.9019 21.4484 52.6724 21.5185C52.9834 21.6881 53.2755 21.4148 53.6148 21.5891C53.5158 22.1451 52.2012 21.6975 51.518 22.1121C51.8526 22.3524 52.842 21.7258 52.4604 22.3289C52.9692 21.5609 53.6901 22.4372 54.543 21.8577L54.4817 22.1922C54.6865 22.0835 54.9106 22.0163 55.1414 21.9943L54.6702 22.4278C55.3581 22.0603 55.9895 22.7624 56.6491 22.5645C55.2686 22.5645 56.3429 22.1592 55.7633 21.9095C57.4643 21.476 56.7057 22.7953 58.6328 22.6493C58.3736 22.6964 57.6904 22.442 58.0721 22.2912C58.4475 22.346 58.808 22.4758 59.1322 22.6728C60.3903 22.6116 58.939 22.3242 59.4762 22.1216C59.9049 22.5362 60.0981 21.9614 60.6494 21.8341V22.2205C62.0629 22.4514 61.031 21.5137 62.3221 21.7823L61.7755 22.2535L62.4493 22.1357L62.3079 22.5221C62.8376 22.2912 63.4321 22.2561 63.9853 22.4231C63.8204 22.1781 64.0843 21.8012 64.7156 21.7917C65.1491 21.9991 64.4753 22.1168 65.3753 22.0697C65.1727 22.2818 64.9465 22.5409 64.5554 22.2346C64.5177 22.3477 64.3528 22.4467 64.3151 22.5597C64.7863 22.7906 65.4884 22.6163 65.8135 22.6116C65.6918 22.6065 65.572 22.5794 65.4601 22.5315L66.7652 22.0603C66.9726 22.1922 66.8076 22.2912 66.6474 22.3948C66.9213 22.3008 67.2016 22.2268 67.4861 22.1734C67.3825 22.4514 67.406 22.7341 66.8548 22.866L68.1034 22.5597C68.1835 22.6823 68.7395 22.8943 68.5745 22.9932C69.2625 23.1581 70.2661 22.4655 71.1801 22.6775C71.2743 22.5932 71.3934 22.5419 71.5194 22.5315C72.3769 22.588 73.1402 22.9273 74.158 22.5315L74.7375 23.0262C75.5385 22.9084 73.9554 22.3995 75.2841 22.2111C76.2264 22.0462 75.6375 22.6304 75.9673 22.7671C76.4384 22.5173 77.2442 22.0038 78.1111 22.4043C77.8564 22.4515 77.5974 22.472 77.3384 22.4655ZM87.1765 22.1687C86.988 22.2441 86.6111 22.4655 86.4698 22.2676C86.6724 21.8718 86.8514 22.0603 87.1765 22.1687ZM102.117 21.1085C101.981 21.2216 101.759 21.1745 101.51 21.0473C101.714 21.0134 101.924 21.0346 102.117 21.1085ZM143.633 17.3391C143.18 17.2261 143.336 17.2732 143.633 17.3203V17.3391ZM144.518 17.4428C144.608 17.391 144.599 17.3438 144.556 17.3014C144.5 17.391 144.302 17.4051 144.085 17.391C144.156 17.4616 144.259 17.5088 144.518 17.4239V17.4428ZM49.8783 19.2191L50.048 19.3134C49.6616 19.3935 49.77 19.3181 49.8783 19.2191Z" fill="#452F53"/>
<path d="M100.431 21.6081C100.385 21.5561 100.356 21.4924 100.346 21.4243C100.275 21.4856 100.275 21.5515 100.431 21.6081Z" fill="#452F53"/>
<path d="M71.2186 22.6636H71.1852C71.171 22.6817 71.1612 22.7029 71.1566 22.7255L71.2186 22.6636Z" fill="#452F53"/>
<path d="M130.991 20.9105C130.86 20.8866 130.737 20.8299 130.633 20.7456C130.628 20.8304 130.713 20.8964 130.991 20.9105Z" fill="#452F53"/>
<path d="M149.155 16.6135L148.594 16.7313C148.77 16.7075 148.949 16.7371 149.108 16.8161C149.093 16.736 148.98 16.6277 149.155 16.6135Z" fill="#452F53"/>
<path d="M151.595 18.6066C151.633 18.5594 151.676 18.6066 151.709 18.55V18.3945C151.534 18.4134 151.431 18.5453 151.595 18.6066Z" fill="#452F53"/>
<path d="M149.569 17.7253C149.607 18.0127 149.762 17.9091 149.937 17.8478H149.904C149.937 17.4426 149.753 17.584 149.569 17.7253Z" fill="#452F53"/>
<path d="M149.979 17.8339C150.033 17.8198 150.09 17.8198 150.144 17.8339C150.154 17.6596 150.073 17.7868 149.979 17.8339Z" fill="#452F53"/>
<path d="M145.626 17.1788C145.819 17.2448 145.725 16.8066 145.838 16.9197C146.04 16.5663 144.627 17.4238 145.626 17.1788Z" fill="#452F53"/>
<path d="M149.763 18.6631L149.682 18.3145L149.598 18.6019L149.763 18.6631Z" fill="#452F53"/>
<path d="M146.983 18.5455L147.619 18.6114C147.619 18.5502 147.685 18.5125 147.784 18.4795C147.378 18.4889 146.95 18.4512 146.983 18.5455Z" fill="#452F53"/>
<path d="M147.769 18.4795C147.941 18.4909 148.114 18.4636 148.274 18.3994C148.103 18.4069 147.934 18.4338 147.769 18.4795Z" fill="#452F53"/>
<path d="M149.244 18.7952L149.056 18.734L148.608 18.7292L149.244 18.7952Z" fill="#452F53"/>
<path d="M140.174 18.8L139.491 18.9226C139.425 19.0451 139.613 19.111 139.873 19.0498C140.033 18.9697 140.287 18.9226 140.174 18.8Z" fill="#452F53"/>
<path d="M142.304 19.6763C142.115 19.6103 142.097 19.5302 141.988 19.4219V19.8648L142.304 19.6763Z" fill="#452F53"/>
<path d="M140.297 19.8645C140.235 19.9917 139.312 20.2603 140.184 20.1943C140.25 20.0718 140.937 19.9399 140.297 19.8645Z" fill="#452F53"/>
<path d="M129.874 19.7469L130.053 19.7328L129.997 19.0166L129.874 19.7469Z" fill="#452F53"/>
<path d="M120.767 21.7964C121.591 21.9378 120.946 21.3253 121.709 21.5373C121.893 21.3582 121.096 21.3771 121.29 21.2263C120.79 21.4195 120.526 21.33 120.767 21.7964Z" fill="#452F53"/>
<path d="M121.275 21.2264C121.355 21.1935 121.435 21.1558 121.525 21.1086C121.436 21.1333 121.351 21.1732 121.275 21.2264Z" fill="#452F53"/>
<path d="M17.8055 18.1073L17.2824 17.9424L17.617 18.1968L17.8055 18.1073Z" fill="#452F53"/>
<path d="M16.7782 18.6113L16.6699 18.1401L16.34 18.5453C16.4673 18.5359 16.6887 18.5029 16.7782 18.6113Z" fill="#452F53"/>
<path d="M88.6512 23.0781L88.6889 22.9697C88.6088 22.8519 88.4816 22.8425 88.2177 22.8284L88.6512 23.0781Z" fill="#452F53"/>
<path d="M81.5035 22.8002L81.626 22.8096L81.3904 22.3997L81.5035 22.8002Z" fill="#452F53"/>
<path d="M75.5055 23.3608C75.7505 23.3608 76.0379 23.2854 76.283 23.2995C75.7505 23.3796 75.4396 22.8425 75.5055 23.3608Z" fill="#452F53"/>
<path d="M134.435 33.5524C134.336 33.5854 134.52 33.8163 134.534 33.8728C134.652 33.7268 134.393 33.4912 134.435 33.5524Z" fill="#452F53"/>
<path d="M135.575 32.0917L135.613 32.2142L135.679 31.8279L135.575 32.0917Z" fill="#452F53"/>
<path d="M136.98 31.2906C136.598 30.9278 136.508 31.6534 136.174 31.644L136.075 31.5639L136.164 31.9833C136.438 31.7524 136.697 31.2906 136.98 31.2906Z" fill="#452F53"/>
<path d="M138.261 31.8231C138.12 31.6771 138.341 31.5875 138.059 31.8655H138.115C138.162 31.8447 138.211 31.8304 138.261 31.8231Z" fill="#452F53"/>
<path d="M138.115 31.8892C137.974 31.9834 138.294 31.9834 138.115 31.8892V31.8892Z" fill="#452F53"/>
<path d="M138.742 31.418L138.633 31.6771C138.732 31.7572 138.916 31.6771 138.892 31.7949C139.043 31.6017 138.973 31.5216 138.742 31.418Z" fill="#452F53"/>
<path d="M138.751 30.9937L138.685 31.1114C138.728 31.1444 138.761 31.1444 138.751 30.9937Z" fill="#452F53"/>
<path d="M138.549 31.3661L138.685 31.1116C138.619 31.0551 138.535 30.9137 138.615 31.2153C138.558 31.0739 138.586 31.2247 138.549 31.3661Z" fill="#452F53"/>
<path d="M138.388 31.3661C138.223 31.3331 138.049 31.3661 138.162 31.0881C137.818 31.3567 138.03 31.6441 138.388 31.3661Z" fill="#452F53"/>
<path d="M136.796 30.7958L136.574 30.7534L136.532 30.9749C136.555 30.8618 136.881 30.9278 136.796 30.7958Z" fill="#452F53"/>
<path d="M140.085 30.9844C140.047 30.8807 139.882 30.7676 139.802 30.6545L139.717 30.8383C139.825 30.8619 140 30.8477 140.085 30.9844Z" fill="#452F53"/>
<path d="M139.802 30.6545L139.934 30.3765C139.731 30.4613 139.736 30.5555 139.802 30.6545Z" fill="#452F53"/>
<path d="M138.516 30.4804L138.346 31.0175L138.582 30.438L138.516 30.4804Z" fill="#452F53"/>
<path d="M140.919 30.5602L140.914 30.8429L140.956 30.3953L140.919 30.5602Z" fill="#452F53"/>
<path d="M141.451 30.2305C141.451 30.4614 141.734 30.4755 141.696 30.6357C141.824 30.4857 141.901 30.2995 141.918 30.1033C141.837 30.2305 141.696 30.2917 141.451 30.2305Z" fill="#452F53"/>
<path d="M142.007 29.8018C141.967 29.899 141.937 30 141.918 30.1033C141.972 30.0119 142.003 29.9082 142.007 29.8018Z" fill="#452F53"/>
<path d="M140.33 30.2304C140.368 30.2796 140.415 30.3208 140.469 30.3515C140.524 30.3823 140.583 30.4019 140.645 30.4094L140.419 30.188L140.33 30.2304Z" fill="#452F53"/>
<path d="M140.41 30.1787L140.603 30.0986L140.41 30.1787Z" fill="#452F53"/>
<path d="M140.311 30.2311C140.311 30.2311 140.301 30.1967 140.311 30.2311V30.2311Z" fill="#452F53"/>
<path d="M139.218 30.4096C139.265 30.1881 139.449 29.8866 139.062 29.8018C139.072 30.0326 139.288 30.0798 139.218 30.4096Z" fill="#452F53"/>
<path d="M140.023 29.9573L139.759 30.0232C139.802 30.0892 139.901 30.1693 139.873 30.2777L140.023 29.9573Z" fill="#452F53"/>
<path d="M140.094 29.8159L140.023 29.9573L140.122 29.9384L140.094 29.8159Z" fill="#452F53"/>
<path d="M141.479 29.7593C141.5 29.6916 141.533 29.6287 141.579 29.5744C141.624 29.5201 141.68 29.4757 141.743 29.4436C141.587 29.4558 141.436 29.4973 141.295 29.5661C141.328 29.6509 141.328 29.83 141.479 29.7593Z" fill="#452F53"/>
<path d="M140.947 29.9346V29.9056C140.937 29.8912 140.923 29.8912 140.947 29.9346Z" fill="#452F53"/>
<path d="M142.97 28.8183L142.926 28.7747V28.828L142.97 28.8183Z" fill="#452F53"/>
<path d="M141.248 29.5189C141.121 29.5189 141.093 29.6179 141.084 29.731C141.143 29.6607 141.215 29.6017 141.296 29.5566C141.286 29.5142 141.272 29.4907 141.248 29.5189Z" fill="#452F53"/>
<path d="M142.271 29.5002C142.19 29.4726 142.106 29.4521 142.021 29.439C142.129 29.5002 142.304 29.5803 142.271 29.5002Z" fill="#452F53"/>
<path d="M141.036 29.9619C141.089 30.0246 141.07 29.9957 141.036 29.9619V29.9619Z" fill="#452F53"/>
<path d="M141.036 29.9618C141.06 29.8868 141.076 29.8094 141.084 29.731C141.032 29.7806 140.99 29.8398 140.961 29.9053L141.036 29.9618Z" fill="#452F53"/>
<path d="M142.488 26.8899C142.596 27.1537 142.441 27.5118 142.073 27.3611C141.941 27.6673 142.502 28.4118 142.926 28.7746C142.879 28.6662 142.827 28.5626 142.987 28.3034C142.836 28.2045 142.313 28.2422 142.398 27.9171C142.638 27.6296 142.695 27.8794 142.912 27.9171C142.629 27.6673 143.081 27.2715 142.789 26.8428L142.596 27.1396C142.554 27.0831 142.596 26.9323 142.488 26.8899Z" fill="#452F53"/>
<path d="M142.473 28.9725L142.393 29.0526C142.573 29.0636 142.745 29.1239 142.893 29.2269C142.931 29.1682 142.955 29.1018 142.964 29.0325C142.973 28.9632 142.966 28.8928 142.945 28.8264L142.473 29.029V28.9725Z" fill="#452F53"/>
<path d="M141.965 29.2882C141.903 28.9772 142.073 28.7464 141.786 28.5249C141.512 28.6851 141.701 28.85 141.597 29.0526C142.012 28.7558 141.545 29.2694 141.946 29.2599C141.891 29.3361 141.822 29.4016 141.743 29.4531C141.84 29.4437 141.938 29.4437 142.035 29.4531C141.998 29.4296 141.979 29.4154 142.035 29.4201C142.021 29.3837 142.012 29.3457 142.007 29.3071C142.162 29.3071 142.064 29.3683 142.035 29.4201C142.007 29.472 142.035 29.4484 142.035 29.4625L142.412 29.0856C142.248 29.1146 142.094 29.1843 141.965 29.2882Z" fill="#452F53"/>
<path d="M138.996 29.0952C139.016 29.1107 139.032 29.1302 139.044 29.1523C139.053 29.0999 139.053 29.0713 138.996 29.0952Z" fill="#452F53"/>
<path d="M139.269 29.161C139.269 29.2129 139.269 29.3354 139.166 29.3636C139.062 29.3919 139.095 29.2364 139.043 29.1516C139.015 29.2553 138.921 29.4626 139.194 29.4861V29.4296C139.428 29.446 139.65 29.5387 139.825 29.6935C139.667 29.4899 139.48 29.3106 139.269 29.161Z" fill="#452F53"/>
<path d="M140.598 29.128L140.904 28.7982L140.594 28.6663L140.674 28.8029C140.433 28.8594 140.57 29.0055 140.598 29.128Z" fill="#452F53"/>
<path d="M143.081 28.9301L143.176 29.2411L143.19 28.7275L143.081 28.9301Z" fill="#452F53"/>
<path d="M143.552 28.6567L143.661 28.9159L143.713 28.6991L143.552 28.6567Z" fill="#452F53"/>
<path d="M157.966 17.5417L157.867 17.57L157.966 17.5417Z" fill="#452F53"/>
<path d="M158.211 17.7444L158.357 17.6831C158.291 17.7114 158.206 17.7349 158.211 17.7444Z" fill="#452F53"/>
<path d="M154.008 24.1052C154.243 24.2937 154.54 24.6188 154.413 24.3314L154.267 24.0581C154.236 24.0948 154.193 24.1195 154.146 24.1281C154.099 24.1367 154.05 24.1286 154.008 24.1052Z" fill="#452F53"/>
<path d="M160.713 19.9165L160.548 19.8694L160.84 20.0908C160.802 20.0343 160.76 19.9778 160.713 19.9165Z" fill="#452F53"/>
<path d="M159.068 19.1062L159.455 19.191C159.327 19.158 159.2 19.1298 159.068 19.1062Z" fill="#452F53"/>
<path d="M154.823 15.7751L154.55 15.973C154.705 16.0955 154.724 15.8977 154.823 15.7751Z" fill="#452F53"/>
<path d="M147.897 26.513C148.014 26.562 148.144 26.5751 148.269 26.5507C148.057 26.4611 147.836 26.2632 147.897 26.513Z" fill="#452F53"/>
<path d="M161 15.7421C160.955 15.728 160.907 15.7233 160.86 15.7282C160.813 15.733 160.768 15.7474 160.727 15.7704C160.849 15.7986 160.948 15.7986 161 15.7421Z" fill="#452F53"/>
<path d="M148.613 26.3998C148.585 26.3828 148.555 26.3686 148.523 26.3574C148.464 26.4495 148.374 26.5178 148.269 26.5506C148.429 26.626 148.58 26.6448 148.613 26.3998Z" fill="#452F53"/>
<path d="M141.988 8.46852C141.988 8.46852 141.988 8.43941 141.988 8.41999C141.988 8.40058 141.964 8.46852 141.988 8.46852Z" fill="#452F53"/>
<path d="M139.128 3.92943C139.189 3.93664 139.249 3.95087 139.307 3.97184C139.284 3.94357 139.232 3.92472 139.128 3.92943Z" fill="#452F53"/>
<path d="M145.405 27.917C145.323 27.9749 145.405 27.9556 145.405 27.917V27.917Z" fill="#452F53"/>
<path d="M144.457 27.0172C144.462 26.9653 144.452 26.9132 144.429 26.8665C144.449 26.9141 144.459 26.9655 144.457 27.0172Z" fill="#452F53"/>
<path d="M148.759 24.2614C148.716 24.2185 148.726 24.2232 148.759 24.2614V24.2614Z" fill="#452F53"/>
<path d="M145.211 27.8745C145.261 27.8926 145.314 27.9022 145.367 27.9028C145.316 27.8861 145.264 27.8766 145.211 27.8745Z" fill="#452F53"/>
<path d="M145.291 27.9736H145.202C145.216 28.0349 145.239 28.0584 145.291 27.9736Z" fill="#452F53"/>
<path d="M145.522 27.8464C145.473 27.8686 145.42 27.8799 145.367 27.8794C145.39 27.8794 145.404 27.903 145.404 27.9171L145.522 27.8464Z" fill="#452F53"/>
<path d="M149.485 11.2894C149.482 11.277 149.482 11.2641 149.485 11.2517C149.339 11.3177 149.376 11.3224 149.485 11.2894Z" fill="#452F53"/>
<path d="M155.601 19.9119C155.601 20.3218 155.487 20.3077 155.351 20.27L155.751 21.0615L155.601 19.9119Z" fill="#452F53"/>
<path d="M159.261 19.1956C159.351 19.2285 159.445 19.2662 159.535 19.3086C159.451 19.255 159.358 19.2167 159.261 19.1956Z" fill="#452F53"/>
<path d="M154.871 15.7419L154.828 15.7856L154.871 15.7419Z" fill="#452F53"/>
<path d="M149.48 22.5034C149.554 22.5206 149.622 22.5601 149.673 22.6164C149.668 22.5961 149.659 22.577 149.647 22.5603C149.634 22.5435 149.619 22.5294 149.601 22.5189C149.583 22.5083 149.563 22.5015 149.542 22.4988C149.521 22.4962 149.5 22.4977 149.48 22.5034Z" fill="#452F53"/>
<path d="M144.566 28.4873L144.716 28.313C144.632 28.3742 144.566 28.313 144.495 28.313C144.533 28.346 144.627 28.4543 144.566 28.4873Z" fill="#452F53"/>
<path d="M141.677 27.5543C141.677 27.6061 141.611 27.592 141.597 27.6486L141.677 27.7852C141.8 27.7051 141.856 27.5402 141.677 27.5543Z" fill="#452F53"/>
<path d="M143.878 27.5589C143.736 27.3092 143.633 27.4694 143.496 27.5919H143.524C143.656 27.9641 143.765 27.7615 143.878 27.5589Z" fill="#452F53"/>
<path d="M143.463 27.6201C143.422 27.656 143.374 27.6819 143.322 27.6955C143.373 27.8746 143.397 27.7002 143.463 27.6201Z" fill="#452F53"/>
<path d="M145.597 27.5683C145.498 27.5306 145.711 27.9217 145.626 27.8321C145.711 28.1949 145.861 27.2337 145.597 27.5683Z" fill="#452F53"/>
<path d="M143.336 26.7721L143.548 27.0642L143.515 26.7627L143.336 26.7721Z" fill="#452F53"/>
<path d="M144.556 26.4612H144.297C144.309 26.4821 144.315 26.5056 144.315 26.5295C144.315 26.5534 144.309 26.5769 144.297 26.5978C144.429 26.5743 144.627 26.5696 144.556 26.4612Z" fill="#452F53"/>
<path d="M144.292 26.6262C144.257 26.6327 144.224 26.6489 144.197 26.6731C144.171 26.6972 144.151 26.7283 144.141 26.7629C144.201 26.7283 144.252 26.6817 144.292 26.6262Z" fill="#452F53"/>
<path d="M143.628 26.5129L143.722 26.5506L143.887 26.4988L143.628 26.5129Z" fill="#452F53"/>
<path d="M146.917 25.4719L147.115 25.274C147.115 25.1515 146.997 25.1138 146.926 25.1939C146.855 25.274 146.837 25.3823 146.917 25.4719Z" fill="#452F53"/>
<path d="M145.8 24.9062C145.894 24.9439 145.932 25.0146 146.017 25.1041L145.842 24.7036L145.8 24.9062Z" fill="#452F53"/>
<path d="M146.455 24.5011C146.431 24.3833 146.667 24.0299 146.37 24.1901C146.394 24.3126 146.196 24.5105 146.455 24.5011Z" fill="#452F53"/>
<path d="M150.309 23.4646L150.252 23.4976L150.53 24.1619L150.309 23.4646Z" fill="#452F53"/>
<path d="M152.948 20.5903C152.594 20.5384 153.032 21.0285 152.693 20.9295C152.693 21.1133 152.971 21.0096 152.952 21.1745C153.065 20.9437 153.197 21.0049 152.948 20.5903Z" fill="#452F53"/>
<path d="M152.952 21.1746C152.931 21.2183 152.913 21.2641 152.901 21.3112C152.928 21.2704 152.946 21.2236 152.952 21.1746Z" fill="#452F53"/>
<path d="M138.572 3.30285L138.435 3.09082L138.473 3.3641L138.572 3.30285Z" fill="#452F53"/>
<path d="M138.03 3.66563L138.148 3.21802L137.889 3.56197C137.927 3.55726 138.03 3.55255 138.03 3.66563Z" fill="#452F53"/>
<path d="M157.546 18.225H157.716C157.895 18.225 157.9 18.2014 157.914 18.1873L157.546 18.225Z" fill="#452F53"/>
<path d="M157.537 17.7915C157.636 17.6973 157.735 17.5936 157.824 17.49L157.537 17.7915Z" fill="#452F53"/>
<path d="M155.789 17.212C155.85 17.278 155.992 17.2591 156.057 17.3251C155.855 17.278 156.062 16.7691 155.789 17.212Z" fill="#452F53"/>
<path d="M35.611 37.1003C35.6864 37.1804 35.823 36.9166 35.8654 36.8836C35.677 36.827 35.5686 37.1663 35.611 37.1003Z" fill="#452F53"/>
<path d="M33.7736 36.6668L33.8678 36.582L33.4862 36.681L33.7736 36.6668Z" fill="#452F53"/>
<path d="M32.4023 35.7527C32.2562 36.2616 32.9489 36.0118 33.0949 36.3228L33.0714 36.4406L33.4059 36.1767C33.0714 36.0354 32.5389 36.0071 32.4023 35.7527Z" fill="#452F53"/>
<path d="M32.261 34.3582C32.1998 34.5513 32.0066 34.3958 32.3977 34.5231C32.3953 34.5011 32.3953 34.479 32.3977 34.4571C32.347 34.4319 32.3008 34.3984 32.261 34.3582Z" fill="#452F53"/>
<path d="M32.3978 34.4711C32.5486 34.5559 32.3978 34.2732 32.3978 34.4711V34.4711Z" fill="#452F53"/>
<path d="M31.6579 34.1178L31.9453 34.0896C31.9689 33.9671 31.8087 33.8351 31.9171 33.8068C31.6673 33.7597 31.6485 33.8822 31.6579 34.1178Z" fill="#452F53"/>
<path d="M31.2762 34.3108H31.4176C31.427 34.2589 31.4082 34.2259 31.2762 34.3108Z" fill="#452F53"/>
<path d="M31.7145 34.311H31.4177C31.4177 34.3958 31.314 34.5372 31.5449 34.311C31.446 34.4383 31.5685 34.344 31.7145 34.311Z" fill="#452F53"/>
<path d="M31.7947 34.4709C31.8418 34.6311 31.9408 34.7819 31.6581 34.8008C32.0586 34.9704 32.1999 34.6359 31.7947 34.4709Z" fill="#452F53"/>
<path d="M32.0492 36.1437L32.1104 36.3604L32.3271 36.2992C32.2188 36.3274 32.1245 36.007 32.0492 36.1437Z" fill="#452F53"/>
<path d="M30.6025 33.1328C30.5319 33.2176 30.5177 33.4155 30.4565 33.5427H30.6685C30.6025 33.4202 30.5083 33.2742 30.6025 33.1328Z" fill="#452F53"/>
<path d="M30.4375 33.5288H30.1265C30.3056 33.7031 30.3904 33.6513 30.4375 33.5288Z" fill="#452F53"/>
<path d="M30.9418 34.7632L31.5025 34.6548L30.8711 34.7255L30.9418 34.7632Z" fill="#452F53"/>
<path d="M29.7637 32.6099L30.0182 32.4685L29.6035 32.657L29.7637 32.6099Z" fill="#452F53"/>
<path d="M29.1889 32.313C29.3868 32.1905 29.2454 31.9407 29.4056 31.8889C29.2073 31.8544 29.0031 31.8824 28.8214 31.969C28.991 31.969 29.1088 32.068 29.1889 32.313Z" fill="#452F53"/>
<path d="M28.5057 32.054C28.6138 32.0378 28.7197 32.0093 28.8214 31.9692C28.7114 31.9752 28.6039 32.0041 28.5057 32.054Z" fill="#452F53"/>
<path d="M29.7875 33.2884C29.8121 33.2303 29.8248 33.1678 29.8248 33.1047C29.8248 33.0415 29.8121 32.979 29.7875 32.9209L29.7121 33.2319L29.7875 33.2884Z" fill="#452F53"/>
<path d="M29.7027 33.2415L29.5284 33.1143L29.7027 33.2415Z" fill="#452F53"/>
<path d="M29.8121 33.3027C29.7823 33.3226 29.7823 33.3326 29.8121 33.3027V33.3027Z" fill="#452F53"/>
<path d="M30.5271 34.179C30.3103 34.2449 29.9522 34.2308 30.0559 34.6077C30.2679 34.4711 30.202 34.2732 30.5271 34.179Z" fill="#452F53"/>
<path d="M29.7167 33.6936L29.9052 33.8914C29.9429 33.8208 29.9665 33.6983 30.0701 33.6653L29.7167 33.6936Z" fill="#452F53"/>
<path d="M29.5565 33.7032L29.7167 33.6938L29.646 33.6184L29.5565 33.7032Z" fill="#452F53"/>
<path d="M28.7602 32.5346C28.6178 32.5704 28.467 32.5484 28.3408 32.4734C28.4372 32.6004 28.5572 32.7076 28.6942 32.7891C28.7602 32.7184 28.9062 32.61 28.7602 32.5346Z" fill="#452F53"/>
<path d="M27.1298 31.7478V31.8097L27.1584 31.7669L27.1298 31.7478Z" fill="#452F53"/>
<path d="M28.6849 32.8503C28.7556 32.9634 28.8546 32.9351 28.9582 32.888C28.8652 32.8705 28.776 32.837 28.6944 32.7891C28.6614 32.822 28.6473 32.8456 28.6849 32.8503Z" fill="#452F53"/>
<path d="M28.0959 31.9693C28.1166 32.054 28.1466 32.1362 28.1855 32.2143C28.1807 32.1153 28.1572 31.9127 28.0959 31.9693Z" fill="#452F53"/>
<path d="M29.1891 32.8079C29.1104 32.824 29.0343 32.8509 28.9629 32.888C29.0347 32.8997 29.1079 32.8997 29.1797 32.888C29.1813 32.8611 29.1844 32.8344 29.1891 32.8079Z" fill="#452F53"/>
<path d="M25.7824 33.2085C25.9378 32.9776 26.3336 32.9069 26.4043 33.2933C26.7294 33.2415 27.0545 32.3509 27.1205 31.8091C27.0498 31.908 26.9933 32.007 26.6823 32.0164C26.6823 32.1954 27.0074 32.6195 26.6823 32.7232C26.3054 32.676 26.4844 32.497 26.4137 32.285C26.3619 32.6572 25.7729 32.5017 25.5798 32.9823H25.9378C25.8907 33.0577 25.7447 33.1048 25.7824 33.2085Z" fill="#452F53"/>
<path d="M27.5445 32.087L27.6528 32.1153C27.5661 31.9546 27.5207 31.7749 27.5209 31.5923C27.45 31.593 27.3801 31.6089 27.3158 31.639C27.2516 31.669 27.1946 31.7126 27.1487 31.7666L27.6199 32.0729L27.5445 32.087Z" fill="#452F53"/>
<path d="M28.077 32.3647C27.8461 32.5815 27.554 32.5579 27.5257 32.9254C27.8084 33.0715 27.8461 32.8218 28.077 32.8076C27.6058 32.605 28.2937 32.7369 28.077 32.3977C28.1731 32.4075 28.267 32.433 28.355 32.4731C28.2933 32.393 28.2411 32.306 28.1995 32.2139V32.2375C28.1995 32.2799 28.1995 32.3035 28.1995 32.2752C28.1752 32.3056 28.1484 32.334 28.1194 32.36C28.0204 32.2281 28.1194 32.2799 28.1995 32.2752L28.2277 32.2375L27.6529 32.115C27.7732 32.2296 27.9183 32.3151 28.077 32.3647Z" fill="#452F53"/>
<path d="M29.4908 35.0186C29.4853 34.9967 29.4853 34.9738 29.4908 34.9519C29.467 34.9662 29.4431 34.9805 29.4908 35.0186Z" fill="#452F53"/>
<path d="M29.4057 34.7489C29.4622 34.7489 29.5517 34.6452 29.6413 34.7489C29.7308 34.8526 29.5612 34.8714 29.5141 34.9609C29.6177 34.9279 29.8439 34.9091 29.7308 34.6641H29.679C29.5716 34.4551 29.5383 34.2159 29.5847 33.9856C29.4895 34.2304 29.4292 34.4873 29.4057 34.7489Z" fill="#452F53"/>
<path d="M28.7179 33.6136L28.2467 33.5288L28.2986 33.8681L28.3692 33.7267C28.553 33.8963 28.6095 33.7031 28.7179 33.6136Z" fill="#452F53"/>
<path d="M27.1629 31.5923L27.3749 31.3425L26.9273 31.6111L27.1629 31.5923Z" fill="#452F53"/>
<path d="M26.6542 31.3424L26.8144 31.1116L26.6024 31.187L26.6542 31.3424Z" fill="#452F53"/>
<path d="M5.47467 15.7654L5.54535 15.6194C5.51352 15.6636 5.48961 15.713 5.47467 15.7654Z" fill="#452F53"/>
<path d="M4.62679 16.3545L4.68804 16.4817C4.68804 16.3921 4.68804 16.3356 4.62679 16.3545Z" fill="#452F53"/>
<path d="M12.8111 24.3831C12.7216 24.0627 12.6698 23.5915 12.5661 23.9119L12.5049 24.2182C12.5656 24.2178 12.6255 24.2327 12.679 24.2615C12.7326 24.2903 12.778 24.3321 12.8111 24.3831Z" fill="#452F53"/>
<path d="M2.16246 22.2205L2.08707 22.2912L2.63364 22.1687L2.16246 22.2205Z" fill="#452F53"/>
<path d="M0.0892506 22.8569C0.0609802 22.7768 0.0374216 22.7014 0.0185746 22.626C-0.0238311 22.6919 0.00915096 22.7626 0.0892506 22.8569Z" fill="#452F53"/>
<path d="M9.90852 12.2552L9.87083 11.9065C9.65409 12.0526 9.83784 12.1185 9.90852 12.2552Z" fill="#452F53"/>
<path d="M20.9999 28.3458C20.9231 28.2001 20.8134 28.0742 20.6795 27.9783C20.7926 28.2516 20.8303 28.5672 20.9999 28.3458Z" fill="#452F53"/>
<path d="M7.04382 18.6491C7.05992 18.6186 7.06833 18.5846 7.06833 18.5501C7.06833 18.5156 7.05992 18.4817 7.04382 18.4512C6.98728 18.5218 6.98257 18.5972 7.04382 18.6491Z" fill="#452F53"/>
<path d="M20.2368 27.7615C20.2368 27.8039 20.2744 27.8322 20.2886 27.8699C20.4353 27.8765 20.578 27.9203 20.7032 27.9971C20.5948 27.8087 20.4676 27.6532 20.2368 27.7615Z" fill="#452F53"/>
<path d="M27.2195 1.33824H27.3043C27.2619 1.30526 27.243 1.31468 27.2195 1.33824Z" fill="#452F53"/>
<path d="M33.9008 0.956543C33.8398 1.01153 33.7735 1.06045 33.7029 1.10261C33.7548 1.0979 33.816 1.0602 33.9008 0.956543Z" fill="#452F53"/>
<path d="M24.5997 30.0232C24.7284 30.0708 24.6331 30.0232 24.5997 30.0232V30.0232Z" fill="#452F53"/>
<path d="M24.5809 31.3992C24.5306 31.4207 24.4879 31.4568 24.4584 31.5028C24.491 31.4596 24.5328 31.4241 24.5809 31.3992Z" fill="#452F53"/>
<path d="M24.7082 30.2306C24.6817 30.171 24.6468 30.1154 24.6046 30.0657C24.6282 30.1268 24.6634 30.1828 24.7082 30.2306Z" fill="#452F53"/>
<path d="M24.7554 30.1033L24.8449 30.1881C24.8873 30.1504 24.8873 30.1174 24.7554 30.1033Z" fill="#452F53"/>
<path d="M24.4254 29.9478C24.4924 29.9808 24.5531 30.0255 24.6045 30.0797C24.6045 30.0514 24.6045 30.0279 24.6045 30.0231C24.5433 30.0017 24.4835 29.9765 24.4254 29.9478Z" fill="#452F53"/>
<path d="M18.3897 7.86386H18.4274C18.4746 7.68953 18.4321 7.74135 18.3897 7.86386Z" fill="#452F53"/>
<path d="M7.85412 26.0136C8.18394 25.7356 8.27346 25.8204 8.38183 25.9523L8.56559 25.0759L7.85412 26.0136Z" fill="#452F53"/>
<path d="M0.339 22.7861C0.410235 22.7456 0.486195 22.7139 0.565164 22.6919C0.44737 22.6919 0.324865 22.7155 0.339 22.7861Z" fill="#452F53"/>
<path d="M9.91819 12.3266C9.91318 12.3049 9.90516 12.2841 9.89437 12.2646L9.91819 12.3266Z" fill="#452F53"/>
<path d="M15.9679 29.2883C15.9173 29.2197 15.8878 29.1378 15.8831 29.0527C15.8454 29.1281 15.8501 29.2129 15.9679 29.2883Z" fill="#452F53"/>
<path d="M25.8909 30.5743L25.594 30.5037C25.726 30.5602 25.7307 30.6497 25.7684 30.7345C25.8061 30.6591 25.8155 30.5319 25.8909 30.5743Z" fill="#452F53"/>
<path d="M26.7766 33.5287C26.8332 33.5287 26.8473 33.5664 26.8992 33.5287L26.9745 33.3874C26.8332 33.3308 26.673 33.3827 26.7766 33.5287Z" fill="#452F53"/>
<path d="M25.5516 31.6865C25.4291 31.9456 25.6176 31.9409 25.7966 31.9833H25.7683C26.0181 31.6441 25.7825 31.6441 25.5516 31.6865Z" fill="#452F53"/>
<path d="M25.8389 31.9975C25.8935 32.009 25.9439 32.0351 25.985 32.0729C26.0839 31.9456 25.9426 32.0116 25.8389 31.9975Z" fill="#452F53"/>
<path d="M24.0956 30.0137C24.1474 30.1267 24.3264 29.7215 24.3217 29.8535C24.5903 29.5849 23.5349 29.9241 24.0956 30.0137Z" fill="#452F53"/>
<path d="M25.2076 32.577L25.3301 32.2378L25.0992 32.4357L25.2076 32.577Z" fill="#452F53"/>
<path d="M23.9778 31.583L24.2134 31.8233C24.237 31.7714 24.2888 31.762 24.3501 31.762C24.1804 31.6442 24.0061 31.4887 23.9778 31.583Z" fill="#452F53"/>
<path d="M24.35 31.7617C24.3847 31.7915 24.4253 31.8136 24.4692 31.8266C24.513 31.8395 24.5591 31.8431 24.6044 31.8371C24.5254 31.7955 24.439 31.7699 24.35 31.7617Z" fill="#452F53"/>
<path d="M24.8071 32.4685L24.76 32.3554L24.5762 32.2188L24.8071 32.4685Z" fill="#452F53"/>
<path d="M20.9483 29.8679L20.5902 29.7925C20.5006 29.882 20.5525 29.9904 20.6938 30.0092C20.8352 30.0281 20.9435 29.9951 20.9483 29.8679Z" fill="#452F53"/>
<path d="M21.4383 31.2201C21.3865 31.1117 21.4383 31.041 21.4383 30.9138L21.2216 31.2955L21.4383 31.2201Z" fill="#452F53"/>
<path d="M20.4864 30.8337C20.3969 30.9233 19.8739 30.9044 20.2791 31.0882C20.3686 30.9987 20.7079 31.074 20.4864 30.8337Z" fill="#452F53"/>
<path d="M16.0008 27.9689L16.0809 28.0019L16.3778 27.3469L16.0008 27.9689Z" fill="#452F53"/>
<path d="M11.0582 27.6203C11.3644 27.9455 11.322 27.2528 11.5764 27.6203C11.7366 27.5026 11.3691 27.3376 11.5199 27.2434C11.2184 27.2858 11.1383 27.1397 11.0582 27.6203Z" fill="#452F53"/>
<path d="M11.52 27.2244C11.5753 27.2137 11.6291 27.1963 11.6802 27.1726C11.6238 27.1787 11.5693 27.1964 11.52 27.2244Z" fill="#452F53"/>
<path d="M34.9467 0.801045L35.253 0.796334L34.9797 0.673828L34.9467 0.801045Z" fill="#452F53"/>
<path d="M35.1213 0.0753879L35.404 0.438192L35.338 0C35.3145 0.0753879 35.2155 0.146064 35.1213 0.0753879Z" fill="#452F53"/>
<path d="M1.59223 17.6078L1.6582 17.6973C1.82782 17.7209 1.92677 17.6596 2.12937 17.5371L1.59223 17.6078Z" fill="#452F53"/>
<path d="M5.49362 15.2L5.43708 15.2329L5.77161 15.5015L5.49362 15.2Z" fill="#452F53"/>
<path d="M7.70338 12.9951C7.5903 13.0517 7.51962 13.2119 7.40654 13.2731C7.5903 13.0517 8.02849 13.4003 7.70338 12.9951Z" fill="#452F53"/>
</svg>
