<svg width="338" height="38" viewBox="0 0 338 38" fill="none" xmlns="http://www.w3.org/2000/svg">
<path d="M337.555 16.3402C337.782 16.3402 337.664 16.067 337.693 16.0151C337.327 16.0952 337.575 16.4156 337.555 16.3402Z" fill="#452F53"/>
<path d="M333.984 17.1081L334.033 16.9856L333.529 17.2966L333.984 17.1081Z" fill="#452F53"/>
<path d="M330.561 17.1931C330.947 17.6878 331.798 17.08 332.421 17.2449L332.54 17.3533L332.767 16.9434C332.035 17.0376 331.106 17.3203 330.561 17.1931Z" fill="#452F53"/>
<path d="M328.613 16.1519C328.751 16.345 328.237 16.3309 329.048 16.2037C329.015 16.1893 328.986 16.1735 328.959 16.1566C328.844 16.1617 328.727 16.1601 328.613 16.1519Z" fill="#452F53"/>
<path d="M328.959 16.1566C329.325 16.133 328.711 15.9964 328.959 16.1566V16.1566Z" fill="#452F53"/>
<path d="M327.366 16.3119L327.821 16.1235C327.703 16.0104 327.277 15.9963 327.426 15.9067C326.901 16.0151 327.02 16.1282 327.366 16.3119Z" fill="#452F53"/>
<path d="M326.912 16.6937L327.149 16.6089C327.1 16.5665 327.03 16.5665 326.912 16.6937Z" fill="#452F53"/>
<path d="M327.643 16.4395L327.149 16.6091C327.228 16.6892 327.247 16.8541 327.376 16.5478C327.366 16.6986 327.435 16.5667 327.643 16.4395Z" fill="#452F53"/>
<path d="M327.95 16.5099C328.227 16.6136 328.583 16.6701 328.128 16.8586C329.028 16.7643 328.85 16.4157 327.95 16.5099Z" fill="#452F53"/>
<path d="M330.453 17.721L330.829 17.8576L331.115 17.6833C330.967 17.7681 330.413 17.5608 330.453 17.721Z" fill="#452F53"/>
<path d="M324.33 16.1282C324.392 16.2705 324.475 16.4106 324.577 16.5475L324.913 16.4156C324.725 16.3449 324.399 16.2884 324.33 16.1282Z" fill="#452F53"/>
<path d="M324.577 16.5664L324.073 16.7643C324.547 16.7549 324.617 16.6654 324.577 16.5664Z" fill="#452F53"/>
<path d="M326.892 17.2544L327.703 16.8445L326.724 17.2638L326.892 17.2544Z" fill="#452F53"/>
<path d="M322.332 16.1708L322.599 15.9116L322.114 16.3027L322.332 16.1708Z" fill="#452F53"/>
<path d="M321.006 16.2463C321.204 16.039 320.67 15.9071 320.887 15.7751C320.51 15.8602 320.196 15.9983 319.987 16.1709C320.264 16.0955 320.581 16.0955 321.006 16.2463Z" fill="#452F53"/>
<path d="M319.542 16.4157C319.712 16.3433 319.862 16.261 319.988 16.1707C319.803 16.2359 319.651 16.3195 319.542 16.4157Z" fill="#452F53"/>
<path d="M323.172 16.717C323.143 16.6559 323.089 16.5982 323.013 16.5472C322.936 16.4963 322.839 16.4531 322.727 16.4202L322.965 16.717H323.172Z" fill="#452F53"/>
<path d="M323.232 16.7173H323.172C323.202 16.7459 323.212 16.7554 323.232 16.7173Z" fill="#452F53"/>
<path d="M325.487 17.0376C325.2 17.2119 324.577 17.4098 325.22 17.6501C325.388 17.4192 325.052 17.2826 325.487 17.0376Z" fill="#452F53"/>
<path d="M323.528 17.0848L324.092 17.1413C324.092 17.0612 323.954 16.9482 324.092 16.8586L323.528 17.0848Z" fill="#452F53"/>
<path d="M323.262 17.1884L323.529 17.0848L323.321 17.0659L323.262 17.1884Z" fill="#452F53"/>
<path d="M320.532 16.6748C320.434 16.7288 320.314 16.7729 320.18 16.8044C320.046 16.836 319.9 16.8544 319.75 16.8585C320.068 16.9112 320.404 16.9336 320.739 16.9245C320.749 16.8255 320.868 16.6512 320.532 16.6748Z" fill="#452F53"/>
<path d="M321.719 16.7268H321.669C321.669 16.7268 321.729 16.7792 321.719 16.7268Z" fill="#452F53"/>
<path d="M316.822 16.9294L316.873 16.9828L316.883 16.9294H316.822Z" fill="#452F53"/>
<path d="M320.779 16.9765C321.026 17.0283 321.154 16.9765 321.283 16.854C321.104 16.8918 320.914 16.9156 320.719 16.9247C320.699 16.9671 320.699 16.9954 320.779 16.9765Z" fill="#452F53"/>
<path d="M318.741 16.5666C318.877 16.6225 319.022 16.673 319.176 16.7174C319.047 16.642 318.78 16.5007 318.741 16.5666Z" fill="#452F53"/>
<path d="M321.58 16.6625C321.53 16.5654 321.54 16.6188 321.58 16.6625V16.6625Z" fill="#452F53"/>
<path d="M321.58 16.6606C321.463 16.7181 321.363 16.7831 321.283 16.8538C321.425 16.8291 321.555 16.7924 321.669 16.7455C321.635 16.7182 321.606 16.6898 321.58 16.6606Z" fill="#452F53"/>
<path d="M316.149 18.8845C316.149 18.6065 316.763 18.3332 317.336 18.6159C317.851 18.3945 317.396 17.4851 316.871 16.981C316.871 17.1035 316.871 17.2165 316.357 17.3956C316.565 17.5417 317.613 17.7207 317.178 17.9846C316.466 18.1495 316.565 17.8997 316.189 17.7631C316.525 18.1024 315.318 18.2908 315.526 18.7997L316.149 18.6065C316.179 18.6819 315.961 18.8185 316.149 18.8845Z" fill="#452F53"/>
<path d="M317.93 16.9859L318.148 16.9435C317.89 16.9011 317.693 16.7975 317.327 16.5854C317.203 16.6235 317.1 16.6741 317.023 16.7335C316.946 16.793 316.897 16.8599 316.881 16.9294H317.999L317.93 16.9859Z" fill="#452F53"/>
<path d="M319.166 16.9198C319.018 17.2261 318.494 17.391 318.86 17.6925C319.522 17.6548 319.305 17.424 319.681 17.2826C318.622 17.3863 319.968 17.1036 319.176 16.9528C319.356 16.9069 319.549 16.875 319.75 16.8586C319.551 16.8249 319.359 16.7823 319.176 16.7313C319.226 16.769 319.245 16.7926 319.176 16.769C319.183 16.8067 319.183 16.8445 319.176 16.8821C318.86 16.8303 319.117 16.8067 319.176 16.769V16.7219L318.118 16.9151C318.461 16.96 318.822 16.9616 319.166 16.9198Z" fill="#452F53"/>
<path d="M324.726 18.3012C324.708 18.2782 324.708 18.2527 324.726 18.2297C324.616 18.2726 324.596 18.2964 324.726 18.3012Z" fill="#452F53"/>
<path d="M324.26 18.1306C324.339 18.0835 324.389 17.961 324.646 17.9846C324.903 18.0081 324.646 18.1306 324.646 18.2296C324.785 18.1448 325.151 17.9987 324.646 17.8621L324.577 17.9092C324.132 17.815 323.538 17.438 323.588 17.405C323.738 17.661 323.964 17.9054 324.26 18.1306Z" fill="#452F53"/>
<path d="M321.688 17.603L320.818 17.7774L321.303 18.0271L321.253 17.8669C321.777 17.9187 321.639 17.7255 321.688 17.603Z" fill="#452F53"/>
<path d="M316.703 16.7785L316.792 16.4534L316.317 16.9198L316.703 16.7785Z" fill="#452F53"/>
<path d="M315.546 16.8444L315.556 16.5664L315.269 16.7407L315.546 16.8444Z" fill="#452F53"/>
<path d="M172.492 22.3479L171.908 22.428C172.109 22.4134 172.305 22.3864 172.492 22.3479Z" fill="#452F53"/>
<path d="M176.716 22.3478L176.824 22.2112C176.627 22.2866 176.547 22.3431 176.716 22.3478Z" fill="#452F53"/>
<path d="M254.603 18.1073C253.733 17.8576 252.763 17.4665 252.882 17.7822L253.169 18.0837C253.642 18.0258 254.14 18.034 254.603 18.1073Z" fill="#452F53"/>
<path d="M211.317 20.482L211.574 20.5715L212.128 20.2747L211.317 20.482Z" fill="#452F53"/>
<path d="M210.772 21.7493L209.645 21.5608C210.003 21.6459 210.382 21.7092 210.772 21.7493Z" fill="#452F53"/>
<path d="M149.384 22.7249L148.702 23.0358C149.77 23.0311 149.315 22.8756 149.384 22.7249Z" fill="#452F53"/>
<path d="M291.499 17.5089C290.904 17.4172 290.285 17.3664 289.659 17.3582C290.559 17.5089 291.291 17.7681 291.499 17.5089Z" fill="#452F53"/>
<path d="M174.094 19.0872C173.738 19.1437 173.59 19.205 173.6 19.2756C173.966 19.2191 174.173 19.1625 174.094 19.0872Z" fill="#452F53"/>
<path d="M287.542 17.4053C287.681 17.4336 287.809 17.4477 287.938 17.4713C288.498 17.3952 289.077 17.3571 289.659 17.3582C289.326 17.2824 288.958 17.2471 288.588 17.2553C288.219 17.2635 287.86 17.3151 287.542 17.4053Z" fill="#452F53"/>
<path d="M65.5818 21.9803C65.52 21.9706 65.4604 21.958 65.4038 21.9426C65.3741 21.985 65.4631 21.9897 65.5818 21.9803Z" fill="#452F53"/>
<path d="M41.3964 18.5548C41.7258 18.5451 42.0561 18.5451 42.3856 18.5548C42.0586 18.526 41.7233 18.526 41.3964 18.5548Z" fill="#452F53"/>
<path d="M307.494 16.901C308.038 16.868 307.583 16.868 307.494 16.901V16.901Z" fill="#452F53"/>
<path d="M310.283 18.0508C310.225 18.0667 310.175 18.0892 310.139 18.1163C310.103 18.1434 310.081 18.1743 310.075 18.2063C310.086 18.175 310.11 18.1452 310.146 18.1184C310.182 18.0917 310.228 18.0687 310.283 18.0508Z" fill="#452F53"/>
<path d="M282.271 19.4265H282.221C282.391 19.4837 282.361 19.4742 282.271 19.4265Z" fill="#452F53"/>
<path d="M308.335 17.0375C308.104 17.0005 307.865 16.9752 307.623 16.9622C307.855 16.9963 308.094 17.0216 308.335 17.0375Z" fill="#452F53"/>
<path d="M308.206 16.8821H308.691C308.75 16.8444 308.691 16.8161 308.206 16.8821Z" fill="#452F53"/>
<path d="M306.742 16.9387C307.035 16.9244 307.33 16.9244 307.622 16.9387C307.514 16.9387 307.474 16.9057 307.494 16.8916L306.742 16.9387Z" fill="#452F53"/>
<path d="M110.5 21.5515L110.381 21.5232C109.827 21.6504 110.075 21.6316 110.5 21.5515Z" fill="#452F53"/>
<path d="M238.608 21.7493C238.827 21.6056 239.14 21.5004 239.498 21.4501C239.855 21.3998 240.238 21.4073 240.586 21.4714L239.884 20.595L238.608 21.7493Z" fill="#452F53"/>
<path d="M162.363 22.4655L163.747 22.7388C162.086 23.21 160.869 23.0403 162.175 23.4267C162.363 22.4844 167.546 23.3231 167.734 22.3571L168.644 22.555C168.387 22.555 168.337 22.6069 168.08 22.5974C169.861 23.0686 169.386 21.8954 171.671 22.0226C172.472 22.0933 173.026 22.2299 172.492 22.3477L174.262 22.1027C174.777 22.1027 174.648 22.2865 174.134 22.2676L176.844 22.1828V22.2111C177.368 22.0289 177.928 21.8711 178.516 21.7399C179.208 21.8718 178.179 21.8436 178.358 21.9614L179.851 21.7211C180.464 21.9661 179.228 22.2158 178.189 22.1922C179.614 23.1346 179.426 21.9472 182.463 22.4938L181.048 22.621C181.968 23.1629 183.026 22.9602 184.678 23.2901C184.293 23.1157 181.454 22.4514 183.076 22.2017C183.401 22.2523 183.745 22.2701 184.086 22.2538C184.427 22.2376 184.756 22.1878 185.054 22.1074C185.054 22.4467 185.925 22.3666 187.033 22.3383L186.973 22.8095C188.131 22.6681 188.032 22.4372 188.704 22.2299C189.129 22.232 189.541 22.299 189.879 22.4212C190.218 22.5434 190.465 22.7142 190.584 22.9084C192.661 22.965 189.14 22.3571 191.573 22.2535C193.294 22.4137 194.54 22.2205 196.519 21.9378C197.735 22.0839 196.321 22.2158 196.756 22.3383L197.815 21.9708C198.072 21.9708 197.993 22.0886 197.953 22.1451C198.843 21.9991 198.012 21.6739 199.417 21.5609C199.783 21.0614 202.385 22.2676 204.076 21.6881C204.511 21.8153 203.878 21.9708 204.017 22.1592C205.408 21.9797 206.74 21.7085 207.973 21.3535L209.665 21.6315C208.418 21.3064 209.972 20.8871 211.337 20.5431C210.993 20.4117 210.633 20.2905 210.258 20.1803L212.454 19.9165C212.721 19.9871 212.504 20.1426 212.148 20.3358C212.288 20.3023 212.423 20.2645 212.553 20.2227C213.345 20.3829 212.949 20.6468 212.395 20.9059C212.118 20.8211 211.851 20.7269 211.594 20.6326C211.06 20.9153 210.605 21.2216 210.684 21.4855C210.905 21.4209 211.15 21.3777 211.406 21.3583C211.267 21.4336 211.178 21.4996 211.248 21.5467C211.317 21.5938 211.544 21.4902 211.9 21.3724L212.425 21.8718L212.533 21.6692L215.432 21.9566C217.469 21.4289 219.23 20.6656 222.485 20.4253C221.693 20.8023 222.336 21.0284 222.316 21.4666C221.406 20.9954 219.794 21.6881 218.093 21.6127C218.983 21.6504 218.795 21.8624 218.577 21.9378L221.545 21.4666C221.495 21.8247 222.198 21.7305 222.999 21.8671C222.366 21.1698 225.234 21.3959 226.451 21.1415C226.54 21.3771 226.253 21.6127 224.75 21.5844C226.431 22.098 226.847 20.7269 228.499 21.1604C228.133 21.1604 227.935 21.1604 227.796 21.2593C228.637 21.0379 230.764 21.1745 230.259 21.3912H229.893C232.327 21.4431 237.292 21.3017 237.629 20.6939C237.557 20.9851 237.414 21.2713 237.203 21.5467L241.427 19.4688C241.071 19.9918 242.614 21.2028 240.616 21.5185C241.444 21.6291 242.324 21.6109 243.129 21.4666C242.733 21.3959 242.139 20.7316 242.644 20.6751C244.157 21.231 243.633 20.9672 245.542 21.4289C244.949 21.33 245.542 20.4866 246.531 20.5196C246.393 20.6468 246.66 21.3206 246.324 21.4101L248.599 20.5761C248.025 20.7316 248.539 21.2546 249.074 21.4713C248.826 21.3158 251.052 21.4713 251.705 21.363L250.716 21.1981C253.357 21.2734 253.238 20.039 255.849 20.039C255.543 20.2086 255.137 21.0614 256.473 21.1415C257.056 20.7269 259.025 19.1437 261.31 18.7856L261.765 19.0118L263.515 18.715C261.811 19.6447 259.897 20.4822 257.808 21.2122C258.797 21.3818 258.105 21.4808 259.569 21.4384C260.113 21.6457 258.797 21.7776 258.362 21.8012L261.804 21.886C261.616 21.4148 264.396 21.363 264.228 20.9719L260.538 21.5279C260.36 21.0567 262.596 20.1473 265.029 20.185C265.662 20.3594 264.633 21.0379 264.693 21.1933C265.454 20.9817 266.341 20.8971 267.215 20.953L266.226 21.2263C267.601 21.3771 268.392 20.5573 270.054 20.9766C270.618 20.9766 271.775 21.5609 271.854 21.2782C270.865 20.7504 270.578 19.0778 271.162 18.6631C272.421 18.845 273.64 19.0849 274.802 19.3793C275.791 19.7892 273.506 20.4206 274.317 20.7693C274.317 20.6374 274.841 20.4677 275.049 20.4159C275.643 20.5149 274.832 20.8211 276.108 20.741C276.286 20.2698 278.719 20.741 276.681 20.3217C277.928 20.1615 278.027 20.3971 279.491 20.3499C278.996 20.0437 280.727 19.2662 281.964 19.1013C281.904 19.2285 282.191 19.3793 282.339 19.45C284.911 19.45 286.296 19.629 288.7 19.5819C288.927 19.695 290.095 19.8128 289.62 20.0295C290.007 19.8702 290.486 19.7701 290.995 19.7421C292.469 20.1285 289.363 19.8411 290.49 20.317C290.56 20.0343 292.37 19.8929 293.398 19.695C293.042 19.271 290.965 19.662 289.926 19.8599C289.867 19.2615 291.648 18.6019 294.121 18.2721C296.099 18.0836 295.011 18.6396 295.357 18.5453C299.096 18.5736 298.433 17.4428 301.569 17.8009C302.835 18.1496 301.698 18.5548 301.994 18.8233C300.392 19.0071 299.492 18.6396 298.394 18.6773L299.759 18.828C299.096 18.9968 298.331 19.0517 297.593 18.9835C298.651 19.3086 303.903 18.9081 306.812 19.1532C307.316 19.0165 308.177 18.861 307.801 18.7197L306.891 18.7951C306.02 18.5076 308.562 18.3239 307.395 18.2155C308.592 17.9705 309.928 17.5983 311.668 17.7443L312.034 18.1731C311.985 18.0459 310.887 17.9422 310.412 18.0836C311.105 17.8763 313.113 18.6066 313.835 18.0223L312.529 17.7114C312.836 17.6501 313.152 17.5747 313.518 17.4946L313.766 17.4334L313.884 17.3768L314.122 17.2732C314.238 17.2043 314.392 17.1523 314.567 17.1232C314.741 17.094 314.93 17.0889 315.111 17.1083C314.755 16.6889 314.962 17.1648 314.418 16.6748C314.666 16.981 314.221 16.9858 313.815 16.9905H313.518H313.212C313.052 16.9948 312.896 17.0107 312.747 17.0376C312.519 17.0847 312.509 17.1648 312.905 17.3203C311.728 16.7643 310.927 17.1177 309.453 16.6606C309.512 16.802 309.997 16.9198 308.711 16.8774C308.635 16.9284 308.545 16.9743 308.444 17.014H308.355H308.424C308.375 17.014 308.365 17.0423 308.424 17.014C308.684 17.05 308.917 17.1202 309.097 17.2166C308.493 17.5606 306.465 17.5983 305.793 17.782C305.021 17.7349 306.09 17.6124 305.664 17.4711L304.675 17.7491C304.537 17.4334 302.598 17.2779 304.368 17.0423H302.756C301.755 16.884 300.673 16.8823 299.67 17.0376C298.898 16.981 297.78 17.4287 298.423 17.1648L295.921 17.4145V17.3344C293.428 17.3344 290.846 17.9658 287.948 17.4569C286.945 17.5991 285.895 17.6502 284.852 17.6077L284.555 17.3391C283.487 17.4569 281.301 17.1318 280.856 17.4287C279.639 16.7125 275.623 17.3627 273.724 17.2685L273.674 17.6266C272.274 17.6542 270.884 17.7553 269.53 17.9281L269.648 18.2438C268.273 18.5265 266.048 18.0836 263.842 18.1543C263.98 18.0318 264.544 18.0506 264.95 18.1166C262.259 17.4522 259.42 18.7338 257.036 18.2485C256.809 18.296 256.563 18.3205 256.314 18.3205C256.066 18.3205 255.82 18.296 255.592 18.2485C255.638 18.2532 255.685 18.2532 255.731 18.2485H255.493C255.226 18.1967 254.949 18.1401 254.652 18.093C254.873 18.159 255.109 18.2127 255.355 18.2532C254.736 18.2733 254.122 18.3238 253.525 18.404L253.218 18.0695H253.06C252.377 17.9517 252.526 18.2344 252.902 18.4888C252.586 18.5418 252.286 18.6147 252.011 18.7055C251.438 18.1637 250.231 18.9176 249.449 18.3427C249.014 18.6349 246.027 18.6113 245.71 19.2191C245.71 19.139 245.473 19.106 245.839 19.0966C245.109 18.9992 244.332 19.0225 243.633 19.1626L243.287 18.7338L241.655 19.3369C240.666 19.0872 240.201 18.9411 241.19 18.5925C238.796 19.139 239.211 18.8139 237.233 19.3463L237.312 19.0636C236.58 19.0636 235.423 19.4736 234.968 19.2474C233.286 18.7338 226.807 19.2804 222.554 18.8328C223.414 19.6479 220.575 18.4841 220.437 19.1249C220.18 18.9317 219.586 18.828 220.259 18.6537C218.112 18.8705 217.005 18.3804 215.541 18.9317C215.283 18.7385 215.986 18.6443 215.758 18.5265C215.59 18.5736 215.086 18.7055 214.858 18.5925C214.631 18.4794 215.165 18.4228 215.501 18.338C213.295 18.3899 213.097 18.993 212.969 19.5584C212.592 19.4256 212.121 19.3685 211.657 19.3993C211.192 19.4301 210.772 19.5465 210.486 19.7233C210.09 19.5442 209.437 19.3558 210.802 19.2521C210.031 19.2521 206.084 19.0307 206.025 19.483C205.777 19.3699 204.946 19.483 204.739 19.5112C203.546 19.4783 202.351 19.4783 201.158 19.5112L201.633 19.5819C200.98 20.1332 200.228 19.7139 198.853 19.7892V19.7327C195.698 19.3605 197.508 19.9306 194.392 19.5065L194.57 19.8411C194.303 20.5714 191.81 19.4312 190.02 19.7233L190.673 19.9117C189.684 20.1709 187.903 18.9411 186.914 18.8563C186.696 18.7951 187.25 18.7527 187.547 18.7055C184.955 18.2909 187.23 19.1767 185.311 19.2662C184.945 19.0259 185.747 18.6537 184.451 18.616C183.808 18.4228 180.722 19.4076 178.941 18.9553C179.337 19.139 179.723 19.3228 178.832 19.4641C177.467 19.5348 175.113 18.7809 173.886 19.3699C173.825 19.357 173.771 19.3375 173.728 19.313C173.685 19.2885 173.655 19.2596 173.639 19.2285C172.601 19.3793 170.246 19.4924 169.613 19.8081C168.624 18.649 163.114 20.3971 163.124 19.3369L159.9 19.3982L159.989 19.2851C159.367 19.2382 158.731 19.2561 158.124 19.3374C157.518 19.4188 156.956 19.5616 156.477 19.7563C156.002 19.6856 156.348 19.5819 156.388 19.5254C153.42 19.3134 153.084 19.3605 150.562 19.9023L150.295 19.5537C149.612 19.761 145.952 19.0071 142.995 19.4076C143.02 19.3715 143.063 19.3388 143.12 19.3118C143.176 19.2849 143.245 19.2644 143.321 19.2521C139.997 19.6573 135.408 18.2721 134.161 19.5442L131.965 19.8552C134.794 19.9589 131.54 20.4112 132.697 20.6232C131.589 20.6986 129.819 20.2369 131.194 20.152L131.401 20.218C131.916 19.5537 127.89 19.9777 127.969 19.5207C122.39 19.5207 116.96 19.139 111.737 19.0919L112.33 19.6102L110.51 19.5725C110.035 19.45 109.877 19.1673 111.173 19.1956C110.5 18.8987 108.987 19.4264 108.947 19.5395C106.415 19.3134 109.936 18.9458 109.175 18.927L108.116 18.9553L108.354 19.0212C107.493 19.2238 107.365 19.45 105.851 19.4123C104.862 19.3039 105.347 19.0919 104.961 19.0683C104.961 19.0307 104.832 19.0118 104.367 19.0683L102.072 19.0071L102.973 19.4217C101.983 19.6149 100.816 19.384 101.865 19.8552C100.331 19.1343 93.3084 19.5395 92.3588 19.3134C90.892 19.5623 89.3198 19.6367 87.7789 19.5301C88.2042 19.6196 88.4515 20.0814 86.948 20.0013C87.5316 19.0589 84.208 19.5631 82.9913 18.8705C84.0596 19.3416 78.7181 18.9411 80.3997 19.6008C79.1434 19.5112 80.3304 19.2427 79.4105 19.0118C76.443 19.3463 72.8424 18.715 69.1527 18.7904C69.0934 18.9129 69.6968 19.1108 68.8956 19.2851L66.9865 18.6396C66.2248 18.715 66.2248 19.3935 64.9389 18.9223C65.1169 19.0307 65.3939 19.1909 64.9389 19.2238C57.7476 18.5359 50.1013 19.5348 42.8803 18.2815C43.8695 18.5359 43.1968 18.5501 42.4352 18.5501C42.9199 18.6113 42.4352 18.8563 42.4846 19.0212L39.4479 18.5076C38.8544 18.9788 36.1539 18.5076 35.7978 18.9317L36.787 18.8657C35.4516 19.3699 38.518 20.0625 38.2806 20.7504C39.7743 20.1756 42.0395 21.6928 44.4828 20.8729C44.9971 21.019 44.0178 21.085 44.2849 21.2452C44.9081 20.9672 45.6401 20.9153 46.9854 21.0661L46.8271 21.1368C50.6255 21.1368 52.2379 21.4384 56.4814 21.6787L56.1946 21.3394C56.7352 21.3704 57.2551 21.4572 57.7179 21.5938C58.7961 21.1227 55.146 21.5326 56.1352 20.986C57.3123 21.6834 62.5945 21.0755 63.3661 21.8577C64.7806 21.8577 62.9803 21.4666 64.3553 21.4902L64.7213 21.7022L65.0872 21.4384C66.0072 21.4949 66.4622 21.7588 66.4919 21.9378C66.192 21.9393 65.8934 21.9567 65.6016 21.9896C66.7886 22.2535 68.9945 21.9472 69.4 22.0367L68.0449 21.8907C71.9026 21.7446 76.5913 22.0603 80.3205 21.6692L80.0732 21.4996C82.922 21.2357 82.3384 21.6975 85.4642 21.5891L85.3455 21.6268C86.0693 21.4683 86.8659 21.4002 87.6602 21.4289C86.8688 21.608 89.1341 21.8012 88.0954 21.999C91.1816 21.7116 89.6188 21.7682 91.6762 21.1981L92.1313 21.4619C92.4414 21.3226 92.8067 21.2142 93.2058 21.143C93.605 21.0719 94.0299 21.0393 94.4558 21.0473C93.1699 21.264 95.445 21.4525 93.9909 21.7399C97.2453 22.3383 98.8576 21.1981 100.332 22.0462C101.855 21.33 97.5223 21.6221 98.3532 21.4713C97.6607 21.231 99.6094 20.9389 100.628 21.0002C101.647 21.0614 102.379 21.9425 105 21.9425C104.743 21.9425 104.723 21.9943 104.456 21.9896C105.446 22.1781 106.435 21.7493 107.592 22.0603C108.275 21.6268 109.155 22.0933 109.363 21.5373L106.949 21.6504C108.314 21.5137 109.61 20.8729 111.895 21.1792C111.508 21.333 111.061 21.4484 110.579 21.5185C111.232 21.6881 111.845 21.4148 112.558 21.5891C112.35 22.1451 109.59 21.6975 108.156 22.1121C108.858 22.3524 110.935 21.7258 110.134 22.3289C111.203 21.5609 112.716 22.4372 114.506 21.8577L114.378 22.1922C114.808 22.0835 115.278 22.0163 115.763 21.9943L114.773 22.4278C116.218 22.0603 117.543 22.7624 118.928 22.5645C116.03 22.5645 118.285 22.1592 117.068 21.9095C120.639 21.476 119.047 22.7953 123.092 22.6493C122.548 22.6964 121.114 22.442 121.915 22.2912C122.703 22.346 123.46 22.4758 124.141 22.6728C126.782 22.6116 123.735 22.3242 124.863 22.1216C125.763 22.5362 126.169 21.9614 127.326 21.8341V22.2205C130.294 22.4514 128.127 21.5137 130.838 21.7823L129.69 22.2535L131.105 22.1357L130.808 22.5221C131.92 22.2912 133.168 22.2561 134.329 22.4231C133.983 22.1781 134.537 21.8012 135.863 21.7917C136.773 21.9991 135.358 22.1168 137.247 22.0697C136.822 22.2818 136.347 22.5409 135.526 22.2346C135.447 22.3477 135.101 22.4467 135.022 22.5597C136.011 22.7906 137.485 22.6163 138.167 22.6116C137.912 22.6065 137.661 22.5794 137.426 22.5315L140.166 22.0603C140.601 22.1922 140.255 22.2912 139.918 22.3948C140.493 22.3008 141.082 22.2268 141.679 22.1734C141.461 22.4514 141.511 22.7341 140.353 22.866L142.975 22.5597C143.143 22.6823 144.31 22.8943 143.964 22.9932C145.408 23.1581 147.515 22.4655 149.434 22.6775C149.632 22.5932 149.882 22.5419 150.146 22.5315C151.947 22.588 153.549 22.9273 155.686 22.5315L156.902 23.0262C158.584 22.9084 155.26 22.3995 158.05 22.2111C160.028 22.0462 158.792 22.6304 159.484 22.7671C160.473 22.5173 162.165 22.0038 163.985 22.4043C163.45 22.4515 162.906 22.472 162.363 22.4655ZM183.017 22.1687C182.621 22.2441 181.83 22.4655 181.533 22.2676C181.958 21.8718 182.334 22.0603 183.017 22.1687ZM214.383 21.1085C214.096 21.2216 213.631 21.1745 213.107 21.0473C213.536 21.0134 213.977 21.0346 214.383 21.1085ZM301.539 17.3391C300.59 17.2261 300.916 17.2732 301.539 17.3203V17.3391ZM303.399 17.4428C303.587 17.391 303.567 17.3438 303.478 17.3014C303.359 17.391 302.944 17.4051 302.489 17.391C302.637 17.4616 302.855 17.5088 303.399 17.4239V17.4428ZM104.714 19.2191L105.07 19.3134C104.259 19.3935 104.486 19.3181 104.714 19.2191Z" fill="#452F53"/>
<path d="M210.842 21.6081C210.747 21.5561 210.685 21.4924 210.664 21.4243C210.515 21.4856 210.515 21.5515 210.842 21.6081Z" fill="#452F53"/>
<path d="M149.515 22.6636H149.445C149.415 22.6817 149.394 22.7029 149.385 22.7255L149.515 22.6636Z" fill="#452F53"/>
<path d="M275 20.9105C274.724 20.8866 274.465 20.8299 274.248 20.7456C274.238 20.8304 274.416 20.8964 275 20.9105Z" fill="#452F53"/>
<path d="M313.132 16.6135L311.955 16.7313C312.324 16.7075 312.7 16.7371 313.033 16.8161C313.004 16.736 312.766 16.6277 313.132 16.6135Z" fill="#452F53"/>
<path d="M318.256 18.6066C318.336 18.5594 318.425 18.6066 318.494 18.55V18.3945C318.128 18.4134 317.91 18.5453 318.256 18.6066Z" fill="#452F53"/>
<path d="M314.002 17.7253C314.082 18.0127 314.408 17.9091 314.774 17.8478H314.705C314.774 17.4426 314.388 17.584 314.002 17.7253Z" fill="#452F53"/>
<path d="M314.863 17.8339C314.977 17.8198 315.096 17.8198 315.209 17.8339C315.229 17.6596 315.061 17.7868 314.863 17.8339Z" fill="#452F53"/>
<path d="M305.723 17.1788C306.129 17.2448 305.931 16.8066 306.168 16.9197C306.594 16.5663 303.626 17.4238 305.723 17.1788Z" fill="#452F53"/>
<path d="M314.408 18.6631L314.24 18.3145L314.062 18.6019L314.408 18.6631Z" fill="#452F53"/>
<path d="M308.572 18.5455L309.907 18.6114C309.907 18.5502 310.046 18.5125 310.254 18.4795C309.403 18.4889 308.503 18.4512 308.572 18.5455Z" fill="#452F53"/>
<path d="M310.224 18.4795C310.585 18.4909 310.947 18.4636 311.282 18.3994C310.924 18.4069 310.569 18.4338 310.224 18.4795Z" fill="#452F53"/>
<path d="M313.32 18.7952L312.924 18.734L311.985 18.7292L313.32 18.7952Z" fill="#452F53"/>
<path d="M294.279 18.8L292.844 18.9226C292.706 19.0451 293.101 19.111 293.646 19.0498C293.982 18.9697 294.516 18.9226 294.279 18.8Z" fill="#452F53"/>
<path d="M298.75 19.6763C298.354 19.6103 298.314 19.5302 298.087 19.4219V19.8648L298.75 19.6763Z" fill="#452F53"/>
<path d="M294.536 19.8645C294.407 19.9917 292.468 20.2603 294.298 20.1943C294.437 20.0718 295.881 19.9399 294.536 19.8645Z" fill="#452F53"/>
<path d="M272.655 19.7469L273.031 19.7328L272.912 19.0166L272.655 19.7469Z" fill="#452F53"/>
<path d="M253.535 21.7964C255.266 21.9378 253.911 21.3253 255.513 21.5373C255.899 21.3582 254.227 21.3771 254.633 21.2263C253.584 21.4195 253.03 21.33 253.535 21.7964Z" fill="#452F53"/>
<path d="M254.603 21.2264C254.771 21.1935 254.939 21.1558 255.127 21.1086C254.939 21.1333 254.762 21.1732 254.603 21.2264Z" fill="#452F53"/>
<path d="M37.3804 18.1073L36.2824 17.9424L36.9847 18.1968L37.3804 18.1073Z" fill="#452F53"/>
<path d="M35.2238 18.6113L34.9963 18.1401L34.3039 18.5453C34.571 18.5359 35.0359 18.5029 35.2238 18.6113Z" fill="#452F53"/>
<path d="M186.112 23.0781L186.192 22.9697C186.023 22.8519 185.756 22.8425 185.202 22.8284L186.112 23.0781Z" fill="#452F53"/>
<path d="M171.107 22.8002L171.364 22.8096L170.869 22.3997L171.107 22.8002Z" fill="#452F53"/>
<path d="M158.515 23.3608C159.029 23.3608 159.632 23.2854 160.147 23.2995C159.029 23.3796 158.376 22.8425 158.515 23.3608Z" fill="#452F53"/>
<path d="M282.23 33.5524C282.022 33.5854 282.408 33.8163 282.438 33.8728C282.685 33.7268 282.141 33.4912 282.23 33.5524Z" fill="#452F53"/>
<path d="M284.624 32.0917L284.703 32.2142L284.842 31.8279L284.624 32.0917Z" fill="#452F53"/>
<path d="M287.572 31.2906C286.771 30.9278 286.583 31.6534 285.88 31.644L285.673 31.5639L285.861 31.9833C286.434 31.7524 286.978 31.2906 287.572 31.2906Z" fill="#452F53"/>
<path d="M290.263 31.8231C289.966 31.6771 290.431 31.5875 289.837 31.8655H289.956C290.054 31.8447 290.157 31.8304 290.263 31.8231Z" fill="#452F53"/>
<path d="M289.956 31.8892C289.659 31.9834 290.332 31.9834 289.956 31.8892V31.8892Z" fill="#452F53"/>
<path d="M291.271 31.418L291.044 31.6771C291.252 31.7572 291.637 31.6771 291.588 31.7949C291.904 31.6017 291.756 31.5216 291.271 31.418Z" fill="#452F53"/>
<path d="M291.291 30.9937L291.153 31.1114C291.242 31.1444 291.311 31.1444 291.291 30.9937Z" fill="#452F53"/>
<path d="M290.866 31.3661L291.153 31.1116C291.014 31.0551 290.836 30.9137 291.005 31.2153C290.886 31.0739 290.945 31.2247 290.866 31.3661Z" fill="#452F53"/>
<path d="M290.529 31.3661C290.183 31.3331 289.817 31.3661 290.055 31.0881C289.333 31.3567 289.778 31.6441 290.529 31.3661Z" fill="#452F53"/>
<path d="M287.186 30.7958L286.721 30.7534L286.632 30.9749C286.682 30.8618 287.364 30.9278 287.186 30.7958Z" fill="#452F53"/>
<path d="M294.091 30.9844C294.011 30.8807 293.665 30.7676 293.497 30.6545L293.319 30.8383C293.547 30.8619 293.913 30.8477 294.091 30.9844Z" fill="#452F53"/>
<path d="M293.497 30.6545L293.774 30.3765C293.349 30.4613 293.359 30.5555 293.497 30.6545Z" fill="#452F53"/>
<path d="M290.797 30.4804L290.441 31.0175L290.935 30.438L290.797 30.4804Z" fill="#452F53"/>
<path d="M295.841 30.5602L295.831 30.8429L295.921 30.3953L295.841 30.5602Z" fill="#452F53"/>
<path d="M296.959 30.2305C296.959 30.4614 297.553 30.4755 297.474 30.6357C297.742 30.4857 297.904 30.2995 297.939 30.1033C297.771 30.2305 297.474 30.2917 296.959 30.2305Z" fill="#452F53"/>
<path d="M298.127 29.8018C298.043 29.899 297.98 30 297.939 30.1033C298.053 30.0119 298.118 29.9082 298.127 29.8018Z" fill="#452F53"/>
<path d="M294.605 30.2304C294.685 30.2796 294.785 30.3208 294.899 30.3515C295.012 30.3823 295.138 30.4019 295.268 30.4094L294.793 30.188L294.605 30.2304Z" fill="#452F53"/>
<path d="M294.773 30.1787L295.179 30.0986L294.773 30.1787Z" fill="#452F53"/>
<path d="M294.566 30.2311C294.566 30.2311 294.545 30.1967 294.566 30.2311V30.2311Z" fill="#452F53"/>
<path d="M292.271 30.4096C292.37 30.1881 292.755 29.8866 291.944 29.8018C291.964 30.0326 292.419 30.0798 292.271 30.4096Z" fill="#452F53"/>
<path d="M293.962 29.9573L293.408 30.0232C293.497 30.0892 293.705 30.1693 293.646 30.2777L293.962 29.9573Z" fill="#452F53"/>
<path d="M294.11 29.8159L293.962 29.9573L294.17 29.9384L294.11 29.8159Z" fill="#452F53"/>
<path d="M297.019 29.7593C297.061 29.6916 297.132 29.6287 297.228 29.5744C297.323 29.5201 297.44 29.4757 297.572 29.4436C297.246 29.4558 296.927 29.4973 296.633 29.5661C296.702 29.6509 296.702 29.83 297.019 29.7593Z" fill="#452F53"/>
<path d="M295.901 29.9346V29.9056C295.881 29.8912 295.85 29.8912 295.901 29.9346Z" fill="#452F53"/>
<path d="M300.147 28.8183L300.056 28.7747V28.828L300.147 28.8183Z" fill="#452F53"/>
<path d="M296.534 29.5189C296.267 29.5189 296.208 29.6179 296.188 29.731C296.313 29.6607 296.464 29.6017 296.633 29.5566C296.613 29.5142 296.583 29.4907 296.534 29.5189Z" fill="#452F53"/>
<path d="M298.68 29.5002C298.51 29.4726 298.334 29.4521 298.156 29.439C298.384 29.5002 298.75 29.5803 298.68 29.5002Z" fill="#452F53"/>
<path d="M296.089 29.9619C296.199 30.0246 296.159 29.9957 296.089 29.9619V29.9619Z" fill="#452F53"/>
<path d="M296.089 29.9618C296.139 29.8868 296.172 29.8094 296.188 29.731C296.079 29.7806 295.992 29.8398 295.931 29.9053L296.089 29.9618Z" fill="#452F53"/>
<path d="M299.136 26.8899C299.363 27.1537 299.037 27.5118 298.265 27.3611C297.988 27.6673 299.165 28.4118 300.056 28.7746C299.957 28.6662 299.848 28.5626 300.184 28.3034C299.868 28.2045 298.77 28.2422 298.948 27.9171C299.452 27.6296 299.571 27.8794 300.026 27.9171C299.432 27.6673 300.382 27.2715 299.769 26.8428L299.363 27.1396C299.274 27.0831 299.363 26.9323 299.136 26.8899Z" fill="#452F53"/>
<path d="M299.106 28.9725L298.938 29.0526C299.314 29.0636 299.677 29.1239 299.986 29.2269C300.065 29.1682 300.116 29.1018 300.135 29.0325C300.154 28.9632 300.14 28.8928 300.095 28.8264L299.106 29.029V28.9725Z" fill="#452F53"/>
<path d="M298.037 29.2882C297.909 28.9772 298.265 28.7464 297.662 28.5249C297.088 28.6851 297.483 28.85 297.266 29.0526C298.136 28.7558 297.157 29.2694 297.998 29.2599C297.882 29.3361 297.738 29.4016 297.572 29.4531C297.776 29.4437 297.982 29.4437 298.186 29.4531C298.107 29.4296 298.067 29.4154 298.186 29.4201C298.157 29.3837 298.137 29.3457 298.126 29.3071C298.453 29.3071 298.245 29.3683 298.186 29.4201C298.126 29.472 298.186 29.4484 298.186 29.4625L298.977 29.0856C298.633 29.1146 298.31 29.1843 298.037 29.2882Z" fill="#452F53"/>
<path d="M291.806 29.0952C291.847 29.1107 291.881 29.1302 291.906 29.1523C291.926 29.0999 291.926 29.0713 291.806 29.0952Z" fill="#452F53"/>
<path d="M292.379 29.161C292.379 29.2129 292.379 29.3354 292.162 29.3636C291.944 29.3919 292.013 29.2364 291.905 29.1516C291.845 29.2553 291.647 29.4626 292.221 29.4861V29.4296C292.712 29.446 293.177 29.5387 293.547 29.6935C293.214 29.4899 292.821 29.3106 292.379 29.161Z" fill="#452F53"/>
<path d="M295.169 29.128L295.812 28.7982L295.159 28.6663L295.327 28.8029C294.823 28.8594 295.11 29.0055 295.169 29.128Z" fill="#452F53"/>
<path d="M300.382 28.9301L300.58 29.2411L300.61 28.7275L300.382 28.9301Z" fill="#452F53"/>
<path d="M301.371 28.6567L301.599 28.9159L301.707 28.6991L301.371 28.6567Z" fill="#452F53"/>
<path d="M331.63 17.5417L331.422 17.57L331.63 17.5417Z" fill="#452F53"/>
<path d="M332.144 17.7444L332.451 17.6831C332.313 17.7114 332.134 17.7349 332.144 17.7444Z" fill="#452F53"/>
<path d="M323.321 24.1052C323.815 24.2937 324.439 24.6188 324.171 24.3314L323.865 24.0581C323.8 24.0948 323.71 24.1195 323.611 24.1281C323.511 24.1367 323.409 24.1286 323.321 24.1052Z" fill="#452F53"/>
<path d="M337.396 19.9165L337.05 19.8694L337.664 20.0908C337.584 20.0343 337.495 19.9778 337.396 19.9165Z" fill="#452F53"/>
<path d="M333.945 19.1062L334.756 19.191C334.489 19.158 334.222 19.1298 333.945 19.1062Z" fill="#452F53"/>
<path d="M325.032 15.7751L324.458 15.973C324.785 16.0955 324.824 15.8977 325.032 15.7751Z" fill="#452F53"/>
<path d="M310.491 26.513C310.738 26.562 311.01 26.5751 311.273 26.5507C310.828 26.4611 310.363 26.2632 310.491 26.513Z" fill="#452F53"/>
<path d="M338 15.7421C337.905 15.728 337.806 15.7233 337.707 15.7282C337.608 15.733 337.513 15.7474 337.426 15.7704C337.684 15.7986 337.891 15.7986 338 15.7421Z" fill="#452F53"/>
<path d="M311.995 26.3998C311.935 26.3828 311.872 26.3686 311.807 26.3574C311.681 26.4495 311.492 26.5178 311.273 26.5506C311.609 26.626 311.925 26.6448 311.995 26.3998Z" fill="#452F53"/>
<path d="M298.088 8.46852C298.088 8.46852 298.088 8.43941 298.088 8.41999C298.088 8.40058 298.036 8.46852 298.088 8.46852Z" fill="#452F53"/>
<path d="M292.083 3.92943C292.211 3.93664 292.337 3.95087 292.459 3.97184C292.409 3.94357 292.3 3.92472 292.083 3.92943Z" fill="#452F53"/>
<path d="M305.26 27.917C305.088 27.9749 305.26 27.9556 305.26 27.917V27.917Z" fill="#452F53"/>
<path d="M303.27 27.0172C303.28 26.9653 303.259 26.9132 303.211 26.8665C303.253 26.9141 303.273 26.9655 303.27 27.0172Z" fill="#452F53"/>
<path d="M312.302 24.2614C312.212 24.2185 312.232 24.2232 312.302 24.2614V24.2614Z" fill="#452F53"/>
<path d="M304.853 27.8745C304.958 27.8926 305.068 27.9022 305.18 27.9028C305.074 27.8861 304.964 27.8766 304.853 27.8745Z" fill="#452F53"/>
<path d="M305.021 27.9736H304.833C304.863 28.0349 304.912 28.0584 305.021 27.9736Z" fill="#452F53"/>
<path d="M305.506 27.8464C305.403 27.8686 305.292 27.8799 305.179 27.8794C305.229 27.8794 305.259 27.903 305.259 27.9171L305.506 27.8464Z" fill="#452F53"/>
<path d="M313.825 11.2894C313.819 11.277 313.819 11.2641 313.825 11.2517C313.518 11.3177 313.597 11.3224 313.825 11.2894Z" fill="#452F53"/>
<path d="M326.664 19.9119C326.664 20.3218 326.427 20.3077 326.14 20.27L326.981 21.0615L326.664 19.9119Z" fill="#452F53"/>
<path d="M334.35 19.1956C334.538 19.2285 334.736 19.2662 334.924 19.3086C334.748 19.255 334.554 19.2167 334.35 19.1956Z" fill="#452F53"/>
<path d="M325.133 15.7419L325.042 15.7856L325.133 15.7419Z" fill="#452F53"/>
<path d="M313.815 22.5034C313.971 22.5206 314.113 22.5601 314.221 22.6164C314.21 22.5961 314.192 22.577 314.165 22.5603C314.139 22.5435 314.106 22.5294 314.068 22.5189C314.031 22.5083 313.989 22.5015 313.945 22.4988C313.902 22.4962 313.857 22.4977 313.815 22.5034Z" fill="#452F53"/>
<path d="M303.498 28.4873L303.814 28.313C303.636 28.3742 303.498 28.313 303.349 28.313C303.429 28.346 303.626 28.4543 303.498 28.4873Z" fill="#452F53"/>
<path d="M297.434 27.5543C297.434 27.6061 297.296 27.592 297.266 27.6486L297.434 27.7852C297.691 27.7051 297.81 27.5402 297.434 27.5543Z" fill="#452F53"/>
<path d="M302.054 27.5589C301.757 27.3092 301.539 27.4694 301.252 27.5919H301.312C301.589 27.9641 301.816 27.7615 302.054 27.5589Z" fill="#452F53"/>
<path d="M301.183 27.6201C301.098 27.656 300.996 27.6819 300.886 27.6955C300.995 27.8746 301.045 27.7002 301.183 27.6201Z" fill="#452F53"/>
<path d="M305.664 27.5683C305.456 27.5306 305.902 27.9217 305.723 27.8321C305.902 28.1949 306.218 27.2337 305.664 27.5683Z" fill="#452F53"/>
<path d="M300.916 26.7721L301.361 27.0642L301.292 26.7627L300.916 26.7721Z" fill="#452F53"/>
<path d="M303.478 26.4612H302.934C302.958 26.4821 302.971 26.5056 302.971 26.5295C302.971 26.5534 302.958 26.5769 302.934 26.5978C303.211 26.5743 303.627 26.5696 303.478 26.4612Z" fill="#452F53"/>
<path d="M302.924 26.6262C302.85 26.6327 302.781 26.6489 302.725 26.6731C302.669 26.6972 302.628 26.7283 302.607 26.7629C302.732 26.7283 302.839 26.6817 302.924 26.6262Z" fill="#452F53"/>
<path d="M301.529 26.5129L301.727 26.5506L302.073 26.4988L301.529 26.5129Z" fill="#452F53"/>
<path d="M308.434 25.4719L308.849 25.274C308.849 25.1515 308.602 25.1138 308.454 25.1939C308.305 25.274 308.266 25.3823 308.434 25.4719Z" fill="#452F53"/>
<path d="M306.089 24.9062C306.287 24.9439 306.366 25.0146 306.544 25.1041L306.178 24.7036L306.089 24.9062Z" fill="#452F53"/>
<path d="M307.464 24.5011C307.415 24.3833 307.91 24.0299 307.286 24.1901C307.336 24.3126 306.92 24.5105 307.464 24.5011Z" fill="#452F53"/>
<path d="M315.556 23.4646L315.437 23.4976L316.02 24.1619L315.556 23.4646Z" fill="#452F53"/>
<path d="M321.095 20.5903C320.353 20.5384 321.273 21.0285 320.561 20.9295C320.561 21.1133 321.145 21.0096 321.105 21.1745C321.342 20.9437 321.619 21.0049 321.095 20.5903Z" fill="#452F53"/>
<path d="M321.105 21.1746C321.06 21.2183 321.023 21.2641 320.996 21.3112C321.055 21.2704 321.092 21.2236 321.105 21.1746Z" fill="#452F53"/>
<path d="M290.915 3.30285L290.628 3.09082L290.708 3.3641L290.915 3.30285Z" fill="#452F53"/>
<path d="M289.778 3.66563L290.025 3.21802L289.481 3.56197C289.56 3.55726 289.778 3.55255 289.778 3.66563Z" fill="#452F53"/>
<path d="M330.749 18.225H331.105C331.481 18.225 331.491 18.2014 331.521 18.1873L330.749 18.225Z" fill="#452F53"/>
<path d="M330.729 17.7915C330.937 17.6973 331.145 17.5936 331.333 17.49L330.729 17.7915Z" fill="#452F53"/>
<path d="M327.06 17.212C327.189 17.278 327.485 17.2591 327.624 17.3251C327.198 17.278 327.634 16.7691 327.06 17.212Z" fill="#452F53"/>
<path d="M74.761 37.1003C74.9192 37.1804 75.2061 36.9166 75.2951 36.8836C74.8994 36.827 74.6719 37.1663 74.761 37.1003Z" fill="#452F53"/>
<path d="M70.9036 36.6668L71.1014 36.582L70.3002 36.681L70.9036 36.6668Z" fill="#452F53"/>
<path d="M68.0247 35.7527C67.7181 36.2616 69.1722 36.0118 69.4788 36.3228L69.4294 36.4406L70.1317 36.1767C69.4294 36.0354 68.3116 36.0071 68.0247 35.7527Z" fill="#452F53"/>
<path d="M67.7281 34.3582C67.5995 34.5513 67.1939 34.3958 68.015 34.5231C68.01 34.5011 68.01 34.479 68.015 34.4571C67.9085 34.4319 67.8116 34.3984 67.7281 34.3582Z" fill="#452F53"/>
<path d="M68.0153 34.4711C68.3318 34.5559 68.0153 34.2732 68.0153 34.4711V34.4711Z" fill="#452F53"/>
<path d="M66.462 34.1178L67.0654 34.0896C67.1148 33.9671 66.7785 33.8351 67.006 33.8068C66.4818 33.7597 66.4422 33.8822 66.462 34.1178Z" fill="#452F53"/>
<path d="M65.6607 34.3108H65.9574C65.9772 34.2589 65.9376 34.2259 65.6607 34.3108Z" fill="#452F53"/>
<path d="M66.5808 34.311H65.9577C65.9577 34.3958 65.74 34.5372 66.2247 34.311C66.017 34.4383 66.2742 34.344 66.5808 34.311Z" fill="#452F53"/>
<path d="M66.7492 34.4709C66.8481 34.6311 67.0558 34.7819 66.4623 34.8008C67.3031 34.9704 67.5999 34.6359 66.7492 34.4709Z" fill="#452F53"/>
<path d="M67.2833 36.1437L67.4119 36.3604L67.8669 36.2992C67.6394 36.3274 67.4416 36.007 67.2833 36.1437Z" fill="#452F53"/>
<path d="M64.2463 33.1328C64.098 33.2176 64.0683 33.4155 63.9397 33.5427H64.3848C64.2463 33.4202 64.0485 33.2742 64.2463 33.1328Z" fill="#452F53"/>
<path d="M63.8998 33.5288H63.247C63.6228 33.7031 63.8009 33.6513 63.8998 33.5288Z" fill="#452F53"/>
<path d="M64.9585 34.7632L66.1356 34.6548L64.8101 34.7255L64.9585 34.7632Z" fill="#452F53"/>
<path d="M62.4854 32.6099L63.0195 32.4685L62.149 32.657L62.4854 32.6099Z" fill="#452F53"/>
<path d="M61.2786 32.313C61.694 32.1905 61.3973 31.9407 61.7336 31.8889C61.3172 31.8544 60.8885 31.8824 60.507 31.969C60.8631 31.969 61.1104 32.068 61.2786 32.313Z" fill="#452F53"/>
<path d="M59.8442 32.054C60.0712 32.0378 60.2935 32.0093 60.507 31.9692C60.2761 31.9752 60.0504 32.0041 59.8442 32.054Z" fill="#452F53"/>
<path d="M62.5353 33.2884C62.587 33.2303 62.6136 33.1678 62.6136 33.1047C62.6136 33.0415 62.587 32.979 62.5353 32.9209L62.377 33.2319L62.5353 33.2884Z" fill="#452F53"/>
<path d="M62.3572 33.2415L61.9912 33.1143L62.3572 33.2415Z" fill="#452F53"/>
<path d="M62.5868 33.3027C62.5243 33.3226 62.5243 33.3326 62.5868 33.3027V33.3027Z" fill="#452F53"/>
<path d="M64.0879 34.179C63.6329 34.2449 62.8811 34.2308 63.0987 34.6077C63.5438 34.4711 63.4053 34.2732 64.0879 34.179Z" fill="#452F53"/>
<path d="M62.3867 33.6936L62.7824 33.8914C62.8615 33.8208 62.911 33.6983 63.1286 33.6653L62.3867 33.6936Z" fill="#452F53"/>
<path d="M62.0503 33.7032L62.3866 33.6938L62.2382 33.6184L62.0503 33.7032Z" fill="#452F53"/>
<path d="M60.3785 32.5346C60.0796 32.5704 59.7631 32.5484 59.4981 32.4734C59.7005 32.6004 59.9524 32.7076 60.24 32.7891C60.3785 32.7184 60.6851 32.61 60.3785 32.5346Z" fill="#452F53"/>
<path d="M56.9557 31.7478V31.8097L57.0157 31.7669L56.9557 31.7478Z" fill="#452F53"/>
<path d="M60.2206 32.8503C60.369 32.9634 60.5767 32.9351 60.7943 32.888C60.5991 32.8705 60.4116 32.837 60.2404 32.7891C60.1711 32.822 60.1415 32.8456 60.2206 32.8503Z" fill="#452F53"/>
<path d="M58.984 31.9693C59.0274 32.054 59.0905 32.1362 59.172 32.2143C59.1621 32.1153 59.1126 31.9127 58.984 31.9693Z" fill="#452F53"/>
<path d="M61.279 32.8079C61.1137 32.824 60.9539 32.8509 60.8042 32.888C60.9549 32.8997 61.1086 32.8997 61.2592 32.888C61.2626 32.8611 61.2692 32.8344 61.279 32.8079Z" fill="#452F53"/>
<path d="M54.1269 33.2085C54.4533 32.9776 55.2842 32.9069 55.4326 33.2933C56.1152 33.2415 56.7977 32.3509 56.9362 31.8091C56.7878 31.908 56.6691 32.007 56.0162 32.0164C56.0162 32.1954 56.6988 32.6195 56.0162 32.7232C55.2249 32.676 55.6008 32.497 55.4524 32.285C55.3436 32.6572 54.1071 32.5017 53.7016 32.9823H54.4533C54.3544 33.0577 54.0478 33.1048 54.1269 33.2085Z" fill="#452F53"/>
<path d="M57.8263 32.087L58.0538 32.1153C57.8716 31.9546 57.7764 31.7749 57.7768 31.5923C57.6279 31.593 57.4811 31.6089 57.3463 31.639C57.2115 31.669 57.0918 31.7126 56.9954 31.7666L57.9845 32.0729L57.8263 32.087Z" fill="#452F53"/>
<path d="M58.9442 32.3647C58.4595 32.5815 57.8462 32.5579 57.7869 32.9254C58.3804 33.0715 58.4595 32.8218 58.9442 32.8076C57.955 32.605 59.3992 32.7369 58.9442 32.3977C59.1461 32.4075 59.3432 32.433 59.5278 32.4731C59.3983 32.393 59.2888 32.306 59.2014 32.2139V32.2375C59.2014 32.2799 59.2014 32.3035 59.2014 32.2752C59.1504 32.3056 59.0941 32.334 59.0332 32.36C58.8255 32.2281 59.0332 32.2799 59.2014 32.2752L59.2607 32.2375L58.0539 32.115C58.3066 32.2296 58.6112 32.3151 58.9442 32.3647Z" fill="#452F53"/>
<path d="M61.9123 35.0186C61.9009 34.9967 61.9009 34.9738 61.9123 34.9519C61.8623 34.9662 61.8123 34.9805 61.9123 35.0186Z" fill="#452F53"/>
<path d="M61.7337 34.7489C61.8524 34.7489 62.0403 34.6452 62.2283 34.7489C62.4162 34.8526 62.0601 34.8714 61.9612 34.9609C62.1788 34.9279 62.6536 34.9091 62.4162 34.6641H62.3074C62.0819 34.4551 62.0122 34.2159 62.1096 33.9856C61.9096 34.2304 61.783 34.4873 61.7337 34.7489Z" fill="#452F53"/>
<path d="M60.2898 33.6136L59.3006 33.5288L59.4094 33.8681L59.5578 33.7267C59.9436 33.8963 60.0623 33.7031 60.2898 33.6136Z" fill="#452F53"/>
<path d="M57.0252 31.5923L57.4703 31.3425L56.5306 31.6111L57.0252 31.5923Z" fill="#452F53"/>
<path d="M55.9573 31.3424L56.2937 31.1116L55.8485 31.187L55.9573 31.3424Z" fill="#452F53"/>
<path d="M11.4934 15.7654L11.6418 15.6194C11.575 15.6636 11.5248 15.713 11.4934 15.7654Z" fill="#452F53"/>
<path d="M9.71338 16.3545L9.84197 16.4817C9.84197 16.3921 9.84197 16.3356 9.71338 16.3545Z" fill="#452F53"/>
<path d="M26.8954 24.3831C26.7075 24.0627 26.5987 23.5915 26.3811 23.9119L26.2525 24.2182C26.38 24.2178 26.5058 24.2327 26.6181 24.2615C26.7305 24.2903 26.8258 24.3321 26.8954 24.3831Z" fill="#452F53"/>
<path d="M4.53985 22.2205L4.38158 22.2912L5.52902 22.1687L4.53985 22.2205Z" fill="#452F53"/>
<path d="M0.187371 22.8569C0.12802 22.7768 0.0785621 22.7014 0.0389952 22.626C-0.0500304 22.6919 0.0192113 22.7626 0.187371 22.8569Z" fill="#452F53"/>
<path d="M20.8017 12.2552L20.7226 11.9065C20.2676 12.0526 20.6533 12.1185 20.8017 12.2552Z" fill="#452F53"/>
<path d="M44.0868 28.3458C43.9255 28.2001 43.6952 28.0742 43.4141 27.9783C43.6515 28.2516 43.7307 28.5672 44.0868 28.3458Z" fill="#452F53"/>
<path d="M14.7877 18.6491C14.8214 18.6186 14.8391 18.5846 14.8391 18.5501C14.8391 18.5156 14.8214 18.4817 14.7877 18.4512C14.669 18.5218 14.6591 18.5972 14.7877 18.6491Z" fill="#452F53"/>
<path d="M42.4846 27.7615C42.4846 27.8039 42.5637 27.8322 42.5934 27.8699C42.9015 27.8765 43.2011 27.9203 43.4639 27.9971C43.2364 27.8087 42.9693 27.6532 42.4846 27.7615Z" fill="#452F53"/>
<path d="M57.144 1.33824H57.322C57.233 1.30526 57.1934 1.31468 57.144 1.33824Z" fill="#452F53"/>
<path d="M71.1707 0.956543C71.0425 1.01153 70.9033 1.06045 70.7552 1.10261C70.8641 1.0979 70.9926 1.0602 71.1707 0.956543Z" fill="#452F53"/>
<path d="M51.6442 30.0232C51.9143 30.0708 51.7142 30.0232 51.6442 30.0232V30.0232Z" fill="#452F53"/>
<path d="M51.6046 31.3992C51.499 31.4207 51.4094 31.4568 51.3474 31.5028C51.4158 31.4596 51.5037 31.4241 51.6046 31.3992Z" fill="#452F53"/>
<path d="M51.872 30.2306C51.8162 30.171 51.7429 30.1154 51.6543 30.0657C51.7039 30.1268 51.7778 30.1828 51.872 30.2306Z" fill="#452F53"/>
<path d="M51.9709 30.1033L52.1589 30.1881C52.2479 30.1504 52.2479 30.1174 51.9709 30.1033Z" fill="#452F53"/>
<path d="M51.2782 29.9478C51.4189 29.9808 51.5462 30.0255 51.6541 30.0797C51.6541 30.0514 51.6541 30.0279 51.6541 30.0231C51.5257 30.0017 51.4001 29.9765 51.2782 29.9478Z" fill="#452F53"/>
<path d="M38.607 7.86386H38.6862C38.7851 7.68953 38.6961 7.74135 38.607 7.86386Z" fill="#452F53"/>
<path d="M16.4888 26.0136C17.1812 25.7356 17.3692 25.8204 17.5967 25.9523L17.9824 25.0759L16.4888 26.0136Z" fill="#452F53"/>
<path d="M0.711674 22.7861C0.861224 22.7456 1.02069 22.7139 1.18648 22.6919C0.939184 22.6919 0.681999 22.7155 0.711674 22.7861Z" fill="#452F53"/>
<path d="M20.822 12.3266C20.8115 12.3049 20.7947 12.2841 20.772 12.2646L20.822 12.3266Z" fill="#452F53"/>
<path d="M33.5227 29.2883C33.4165 29.2197 33.3546 29.1378 33.3446 29.0527C33.2655 29.1281 33.2754 29.2129 33.5227 29.2883Z" fill="#452F53"/>
<path d="M54.3548 30.5743L53.7316 30.5037C54.0086 30.5602 54.0184 30.6497 54.0976 30.7345C54.1767 30.6591 54.1965 30.5319 54.3548 30.5743Z" fill="#452F53"/>
<path d="M56.2143 33.5287C56.333 33.5287 56.3627 33.5664 56.4715 33.5287L56.6298 33.3874C56.333 33.3308 55.9967 33.3827 56.2143 33.5287Z" fill="#452F53"/>
<path d="M53.6425 31.6865C53.3853 31.9456 53.781 31.9409 54.1569 31.9833H54.0975C54.6218 31.6441 54.1272 31.6441 53.6425 31.6865Z" fill="#452F53"/>
<path d="M54.2457 31.9975C54.3603 32.009 54.4662 32.0351 54.5523 32.0729C54.7601 31.9456 54.4633 32.0116 54.2457 31.9975Z" fill="#452F53"/>
<path d="M50.5857 30.0137C50.6945 30.1267 51.0704 29.7215 51.0605 29.8535C51.6244 29.5849 49.4086 29.9241 50.5857 30.0137Z" fill="#452F53"/>
<path d="M52.9202 32.577L53.1774 32.2378L52.6927 32.4357L52.9202 32.577Z" fill="#452F53"/>
<path d="M50.3386 31.583L50.8332 31.8233C50.8826 31.7714 50.9914 31.762 51.12 31.762C50.7639 31.6442 50.3979 31.4887 50.3386 31.583Z" fill="#452F53"/>
<path d="M51.1199 31.7617C51.1928 31.7915 51.278 31.8136 51.3701 31.8266C51.4621 31.8395 51.5589 31.8431 51.654 31.8371C51.4881 31.7955 51.3066 31.7699 51.1199 31.7617Z" fill="#452F53"/>
<path d="M52.0795 32.4685L51.9806 32.3554L51.5948 32.2188L52.0795 32.4685Z" fill="#452F53"/>
<path d="M43.9783 29.8679L43.2266 29.7925C43.0386 29.882 43.1474 29.9904 43.4442 30.0092C43.7409 30.0281 43.9684 29.9951 43.9783 29.8679Z" fill="#452F53"/>
<path d="M45.0072 31.2201C44.8984 31.1117 45.0072 31.041 45.0072 30.9138L44.5522 31.2955L45.0072 31.2201Z" fill="#452F53"/>
<path d="M43.0087 30.8337C42.8208 30.9233 41.7228 30.9044 42.5735 31.0882C42.7615 30.9987 43.4737 31.074 43.0087 30.8337Z" fill="#452F53"/>
<path d="M33.5918 27.9689L33.76 28.0019L34.3832 27.3469L33.5918 27.9689Z" fill="#452F53"/>
<path d="M23.2152 27.6203C23.8582 27.9455 23.7692 27.2528 24.3033 27.6203C24.6397 27.5026 23.8681 27.3376 24.1846 27.2434C23.5516 27.2858 23.3834 27.1397 23.2152 27.6203Z" fill="#452F53"/>
<path d="M24.1849 27.2244C24.301 27.2137 24.4139 27.1963 24.5212 27.1726C24.4028 27.1787 24.2884 27.1964 24.1849 27.2244Z" fill="#452F53"/>
<path d="M73.3665 0.801045L74.0094 0.796334L73.4357 0.673828L73.3665 0.801045Z" fill="#452F53"/>
<path d="M73.7329 0.0753879L74.3264 0.438192L74.1879 0C74.1385 0.0753879 73.9307 0.146064 73.7329 0.0753879Z" fill="#452F53"/>
<path d="M3.34271 17.6078L3.4812 17.6973C3.8373 17.7209 4.04503 17.6596 4.47037 17.5371L3.34271 17.6078Z" fill="#452F53"/>
<path d="M11.5332 15.2L11.4145 15.2329L12.1168 15.5015L11.5332 15.2Z" fill="#452F53"/>
<path d="M16.1723 12.9951C15.9349 13.0517 15.7865 13.2119 15.5491 13.2731C15.9349 13.0517 16.8548 13.4003 16.1723 12.9951Z" fill="#452F53"/>
</svg>
