<svg width="60" height="28" viewBox="0 0 60 28" fill="none" xmlns="http://www.w3.org/2000/svg">
<path d="M46.4866 0.0267225C42.6312 0.0267227 36.4766 0.026723 32.9731 0.0267231C32.9731 3.53022 32.9731 9.93224 32.9731 13.5402C32.9731 21.0035 39.0233 27.0537 46.4866 27.0537C53.9499 27.0537 60.0001 21.0035 60.0001 13.5402C60.0001 6.07692 53.9499 0.0267222 46.4866 0.0267225Z" fill="#AF96C2"/>
<path d="M13.5135 0.0267225C9.65815 0.0267227 3.50348 0.026723 -2.02549e-05 0.0267231C-2.01017e-05 3.53022 -1.98219e-05 9.93224 -1.96642e-05 13.5402C-1.93379e-05 21.0035 6.05018 27.0537 13.5135 27.0537C20.9768 27.0537 27.027 21.0035 27.027 13.5402C27.027 6.07692 20.9768 0.0267222 13.5135 0.0267225Z" fill="#AF96C2"/>
</svg>
