<svg width="42" height="33" viewBox="0 0 42 33" fill="none" xmlns="http://www.w3.org/2000/svg">
<path d="M0 21.4943C0 28.8276 4.58182 33 9.8 33C14.6364 33 18.4545 29.0805 18.4545 24.4023C18.4545 19.7241 15.1455 16.4368 10.9455 16.4368C10.0545 16.4368 9.03636 16.5632 8.78182 16.6897C9.54545 12.3908 13.8727 7.2069 17.9455 4.8046L11.8364 0C4.83636 4.93104 0 12.7701 0 21.4943ZM23.5455 21.4943C23.5455 28.8276 28.1273 33 33.3455 33C38.1818 33 42 29.0805 42 24.4023C42 19.7241 38.6909 16.4368 34.4909 16.4368C33.6 16.4368 32.5818 16.5632 32.3273 16.6897C33.0909 12.3908 37.4182 7.2069 41.4909 4.8046L35.3818 0C28.3818 4.93104 23.5455 12.7701 23.5455 21.4943Z" fill="#9B51E0"/>
</svg>
