<svg xmlns="http://www.w3.org/2000/svg" xmlns:xlink="http://www.w3.org/1999/xlink" width="32" height="29" viewBox="0 0 32 29">
    <defs>
        <path id="a" d="M12.013 9.955L.46 11.507l8.449 7.352-2.102 10.324 9.338-4.384.075-22.225z"/>
    </defs>
    <g fill="none" fill-rule="evenodd" transform="translate(-.406 -.61)">
        <path fill="#8857AC" d="M2.395 12.296l6.987 6.496-1.656 9.22 8.68-4.356 8.679 4.356-1.656-9.22 6.989-6.496-9.661-1.342-4.35-8.41-4.353 8.41-9.66 1.342zM26.27 29.61l-9.865-4.948L6.54 29.61l1.884-10.49-8.018-7.455 11.078-1.539L16.406.61l4.921 9.516 11.08 1.539-8.02 7.456 1.884 10.49z"/>
        <mask id="b" fill="#fff">
            <use xlink:href="#a"/>
        </mask>
        <path fill="#8857AC" d="M-4.267 35.283h26.512V-3.99H-4.267z" mask="url(#b)"/>
    </g>
</svg>
