<svg width="18" height="15" viewBox="0 0 18 15" fill="none" xmlns="http://www.w3.org/2000/svg">
<path d="M16.5886 1.77015L16.1549 1.40914C15.4349 0.809753 14.3531 0.876565 13.7175 1.55944L6.46223 9.35371L4.27218 7.52622C3.55303 6.92616 2.47106 6.99163 1.8347 7.67377L1.45123 8.08488C1.14026 8.41808 0.97879 8.85761 1.00224 9.30657C1.02592 9.75529 1.23253 10.1765 1.57696 10.4777L5.59142 14.0395C5.93899 14.3557 6.4048 14.5206 6.88091 14.4962C7.35702 14.4717 7.80215 14.2598 8.11316 13.9097L16.7742 4.15946C17.0768 3.81881 17.2272 3.37569 17.1923 2.92765C17.1575 2.47929 16.9404 2.063 16.5886 1.77015Z" fill="#04A2BD" stroke="white"/>
</svg>
