<svg width="18" height="24" viewBox="0 0 18 24" fill="none" xmlns="http://www.w3.org/2000/svg">
<path d="M16.6947 5.77015L16.2302 5.40914C15.4592 4.80975 14.3006 4.87657 13.6199 5.55944L5.84982 13.3537L3.50437 11.5262C2.73419 10.9262 1.57544 10.9916 0.893931 11.6738L0.483252 12.0849C0.150209 12.4181 -0.0227145 12.8576 0.00239812 13.3066C0.0277583 13.7553 0.249032 14.1765 0.617905 14.4777L4.91722 18.0395C5.28945 18.3557 5.78831 18.5206 6.2982 18.4962C6.80809 18.4717 7.28481 18.2598 7.61789 17.9097L16.8935 8.15946C17.2175 7.81881 17.3786 7.37569 17.3413 6.92765C17.304 6.47929 17.0714 6.063 16.6947 5.77015Z" fill="white"/>
</svg>
