<svg width="17" height="14" viewBox="0 0 17 14" fill="none" xmlns="http://www.w3.org/2000/svg">
<path d="M15.5886 1.02088L15.1549 0.659877C14.4349 0.0604853 13.3531 0.127298 12.7175 0.810173L5.46223 8.60444L3.27218 6.77696C2.55303 6.17689 1.47106 6.24236 0.834703 6.9245L0.451233 7.33561C0.140257 7.66881 -0.0212095 8.10834 0.00223923 8.55731C0.0259192 9.00602 0.232532 9.42728 0.576965 9.72844L4.59142 13.2902C4.93899 13.6064 5.4048 13.7714 5.88091 13.7469C6.35702 13.7225 6.80215 13.5105 7.11316 13.1604L15.7742 3.41019C16.0768 3.06954 16.2272 2.62643 16.1923 2.17839C16.1575 1.73003 15.9404 1.31373 15.5886 1.02088Z" fill="#FDBA18"/>
</svg>
