<svg width="16" height="15" viewBox="0 0 16 15" fill="none" xmlns="http://www.w3.org/2000/svg">
<path d="M12.2452 15C12.7026 15 13.1347 14.9145 13.5413 14.7435C13.948 14.5724 14.3038 14.336 14.6088 14.0342C14.9138 13.7324 15.1552 13.3803 15.3331 12.9779C15.511 12.5755 15.6 12.1429 15.6 11.6801V3.31992C15.6 2.8672 15.511 2.43964 15.3331 2.03722C15.1552 1.63481 14.9138 1.2827 14.6088 0.980885C14.3038 0.679074 13.948 0.440141 13.5413 0.264085C13.1347 0.0880282 12.7026 0 12.2452 0H3.35484C2.89736 0 2.4653 0.0880282 2.05865 0.264085C1.652 0.440141 1.29619 0.679074 0.991202 0.980885C0.686217 1.2827 0.44477 1.63481 0.266862 2.03722C0.0889541 2.43964 0 2.8672 0 3.31992V11.6801C0 12.1429 0.0889541 12.5755 0.266862 12.9779C0.44477 13.3803 0.686217 13.7324 0.991202 14.0342C1.29619 14.336 1.652 14.5724 2.05865 14.7435C2.4653 14.9145 2.89736 15 3.35484 15H12.2452ZM14.4863 5.49346L14.8985 5.49296C15.0612 5.49296 15.1959 5.54577 15.3026 5.65141C15.4094 5.75704 15.4628 5.89034 15.4628 6.05131C15.4628 6.20221 15.4094 6.33048 15.3026 6.43612C15.1959 6.54175 15.0612 6.59457 14.8985 6.59457L14.4863 6.59524V5.49346ZM12.4434 4.27062C12.5959 4.27062 12.7255 4.21529 12.8323 4.10463C12.939 3.99396 12.9924 3.86318 12.9924 3.71227V2.77666C12.9924 2.61569 12.939 2.48239 12.8323 2.37676C12.7255 2.27113 12.5959 2.21831 12.4434 2.21831H11.4827C11.3302 2.21831 11.198 2.27113 11.0862 2.37676C10.9744 2.48239 10.9185 2.61569 10.9185 2.77666V3.71227C10.9185 3.86318 10.9744 3.99396 11.0862 4.10463C11.198 4.21529 11.3302 4.27062 11.4827 4.27062H12.4434ZM10.965 6.59524L10.1255 6.59457C9.97302 6.59457 9.8434 6.54175 9.73666 6.43612C9.62991 6.33048 9.57654 6.20221 9.57654 6.05131C9.57654 5.89034 9.62991 5.75704 9.73666 5.65141C9.8434 5.54577 9.97302 5.49296 10.1255 5.49296L10.1921 5.49346L10.2399 5.53823C10.4983 5.79812 10.7125 6.09295 10.8827 6.4227L10.965 6.59524ZM7.79238 10.2616C7.15191 10.2616 6.60293 10.0352 6.14545 9.58249C5.68798 9.12978 5.45924 8.58652 5.45924 7.95272C5.45924 7.30885 5.68798 6.76308 6.14545 6.31539C6.60293 5.86771 7.15191 5.64386 7.79238 5.64386C8.44301 5.64386 8.99453 5.87022 9.44692 6.32294C9.89932 6.77565 10.1255 7.31891 10.1255 7.95272C10.1255 8.58652 9.89932 9.12978 9.44692 9.58249C8.99453 10.0352 8.44301 10.2616 7.79238 10.2616ZM5.40756 5.49346L5.47449 5.49296C5.62698 5.49296 5.7566 5.54577 5.86334 5.65141C5.97009 5.75704 6.02346 5.89034 6.02346 6.05131C6.02346 6.20221 5.97009 6.33048 5.86334 6.43612C5.7566 6.54175 5.6219 6.59457 5.45924 6.59457L4.63382 6.59524L4.71732 6.4227C4.88746 6.09295 5.10173 5.79812 5.36012 5.53823L5.40756 5.49346ZM14.4863 5.49346H10.1921L10.0802 5.38774C9.86105 5.19436 9.61706 5.03004 9.34822 4.89479L9.14194 4.79879C8.72004 4.61771 8.27019 4.52716 7.79238 4.52716C7.32473 4.52716 6.87996 4.61771 6.45806 4.79879C6.03617 4.97988 5.67019 5.22636 5.36012 5.53823L5.40756 5.49346H1.11259L1.1132 3.31992C1.1132 2.77117 1.29594 2.29102 1.66141 1.87946L1.77654 1.75805C2.21877 1.32042 2.74487 1.10161 3.35484 1.10161H12.2452C12.8551 1.10161 13.3812 1.32042 13.8235 1.75805C14.2657 2.19567 14.4868 2.7163 14.4868 3.31992L14.4863 5.49346ZM1.11259 6.59524L0.747214 6.59457C0.594721 6.59457 0.462561 6.54175 0.350733 6.43612C0.238905 6.33048 0.182991 6.20221 0.182991 6.05131C0.182991 5.89034 0.238905 5.75704 0.350733 5.65141C0.462561 5.54577 0.594721 5.49296 0.747214 5.49296L1.11259 5.49346V6.59524ZM1.11259 6.59524H4.63382L4.62053 6.62475C4.46368 6.9783 4.37405 7.35402 4.35164 7.75192L4.34604 7.95272C4.34604 8.42555 4.43754 8.86821 4.62053 9.28068C4.80352 9.69316 5.05005 10.0553 5.36012 10.3672C5.67019 10.6791 6.03617 10.923 6.45806 11.0991C6.87996 11.2752 7.32473 11.3632 7.79238 11.3632C8.27019 11.3632 8.72004 11.2752 9.14194 11.0991C9.56383 10.923 9.92981 10.6791 10.2399 10.3672C10.55 10.0553 10.7965 9.69316 10.9795 9.28068C11.1625 8.86821 11.254 8.42555 11.254 7.95272C11.254 7.47988 11.1625 7.03722 10.9795 6.62475L10.965 6.59524H14.4863L14.4868 11.6801C14.4868 12.238 14.3041 12.721 13.9386 13.1293L13.8235 13.2495C13.3812 13.6821 12.8551 13.8984 12.2452 13.8984H3.35484C2.74487 13.8984 2.21877 13.6821 1.77654 13.2495C1.33431 12.8169 1.1132 12.2938 1.1132 11.6801L1.11259 6.59524Z" fill="white"/>
</svg>
