<svg width="17" height="13" viewBox="0 0 17 13" fill="none" xmlns="http://www.w3.org/2000/svg">
<path d="M5.49471 13C6.93298 13 8.22583 12.748 9.37327 12.244C10.5207 11.74 11.4937 11.0749 12.2921 10.2488C13.0906 9.42266 13.7039 8.48221 14.1323 7.42746C14.5606 6.3727 14.7853 5.30496 14.8064 4.22422C15.0391 4.02678 15.2612 3.81894 15.4727 3.60072C15.6842 3.38249 15.8746 3.14868 16.0438 2.89928C16.1072 2.81615 16.1575 2.72262 16.1945 2.61871C16.2315 2.51479 16.25 2.40568 16.25 2.29137C16.25 2.1251 16.2103 1.96922 16.131 1.82374C16.0517 1.67826 15.9486 1.56395 15.8217 1.48082C15.8746 1.28337 15.8719 1.08853 15.8138 0.896283C15.7556 0.704037 15.6472 0.545564 15.4886 0.420863C15.3934 0.348121 15.2903 0.293565 15.1792 0.257194C15.0682 0.220823 14.9545 0.202638 14.8382 0.202638C14.7536 0.202638 14.669 0.21303 14.5844 0.233813C14.4998 0.254596 14.4151 0.285771 14.3305 0.327338C14.1719 0.431255 14.0027 0.519584 13.8229 0.592326C13.6431 0.665068 13.4581 0.727418 13.2677 0.779377C12.9187 0.529976 12.5406 0.33773 12.1335 0.202638C11.7263 0.067546 11.3007 0 10.8565 0C10.3594 0 9.88883 0.0831335 9.44466 0.2494C9.00049 0.415667 8.60655 0.646882 8.26285 0.943046C7.91914 1.23921 7.6336 1.58733 7.40623 1.98741C7.17886 2.38749 7.03344 2.81615 6.96999 3.27338C6.1451 3.11751 5.37309 2.83173 4.65395 2.41607C3.93482 2.0004 3.31086 1.48082 2.78209 0.857314C2.68691 0.743006 2.57058 0.654676 2.4331 0.592326C2.29561 0.529976 2.15285 0.498801 2.00479 0.498801H1.96513C1.94927 0.498801 1.93605 0.503997 1.92547 0.514389C1.76684 0.52478 1.61614 0.571543 1.47337 0.654676C1.3306 0.73781 1.21691 0.846922 1.13231 0.982014C0.963101 1.27298 0.830907 1.58213 0.735727 1.90947C0.640548 2.23681 0.592958 2.56675 0.592958 2.89928C0.592958 3.1279 0.614109 3.35132 0.656411 3.56954C0.698713 3.78777 0.756878 3.9956 0.830907 4.19305C0.746303 4.28657 0.68285 4.39049 0.640548 4.5048C0.598246 4.6191 0.577095 4.73861 0.577095 4.86331V4.89448C0.577095 5.38289 0.66963 5.84792 0.854702 6.28957C1.03977 6.73122 1.29623 7.1235 1.62407 7.46643C1.60292 7.54956 1.59499 7.63529 1.60028 7.72362C1.60556 7.81195 1.61878 7.89768 1.63993 7.98081C1.75626 8.32374 1.9149 8.63809 2.11583 8.92386C2.31677 9.20963 2.54943 9.46163 2.81382 9.67986C2.63403 9.72142 2.4516 9.7526 2.26653 9.77338C2.08146 9.79416 1.89903 9.80456 1.71925 9.80456C1.61349 9.80456 1.51303 9.80196 1.41785 9.79676C1.32267 9.79157 1.22749 9.78377 1.13231 9.77338C1.11116 9.76299 1.09265 9.75779 1.07679 9.75779H1.02127C0.809756 9.75779 0.614109 9.82014 0.434325 9.94484C0.254542 10.0695 0.127635 10.2306 0.0536069 10.4281C-0.0204217 10.6463 -0.0177778 10.8671 0.0615385 11.0905C0.140855 11.3139 0.28098 11.4828 0.481915 11.5971C0.852058 11.8361 1.23806 12.0414 1.63993 12.2128C2.0418 12.3843 2.45425 12.5298 2.87727 12.6493C3.30029 12.7688 3.73124 12.8571 4.17012 12.9143C4.60901 12.9714 5.05054 13 5.49471 13ZM5.49471 12.0024C4.66982 12.0024 3.8793 11.8933 3.12315 11.6751C2.367 11.4568 1.66637 11.1503 1.02127 10.7554C1.1376 10.7658 1.25128 10.7762 1.36233 10.7866C1.47337 10.797 1.59234 10.8022 1.71925 10.8022C2.39608 10.8022 3.04383 10.6956 3.6625 10.4826C4.28117 10.2696 4.83903 9.97602 5.33607 9.60192C4.70154 9.59153 4.13575 9.40448 3.63871 9.04077C3.14166 8.67706 2.79795 8.21982 2.60759 7.66906C2.70277 7.68985 2.79531 7.70544 2.8852 7.71583C2.97509 7.72622 3.06763 7.73141 3.16281 7.73141C3.28971 7.73141 3.41926 7.72102 3.55146 7.70024C3.68365 7.67946 3.80791 7.65348 3.92424 7.6223C3.25799 7.4976 2.70277 7.18066 2.2586 6.67146C1.81443 6.16227 1.59234 5.56994 1.59234 4.89448V4.86331C1.7827 4.96723 1.98893 5.05036 2.21101 5.11271C2.4331 5.17506 2.66576 5.20623 2.90899 5.20623C2.5177 4.95683 2.20308 4.6295 1.96513 4.22422C1.72718 3.81894 1.60821 3.3773 1.60821 2.89928C1.60821 2.63949 1.64258 2.39269 1.71132 2.15887C1.78006 1.92506 1.87788 1.70424 2.00479 1.4964C2.36436 1.92246 2.76623 2.30695 3.2104 2.64988C3.65457 2.99281 4.13311 3.28897 4.64602 3.53837C5.15893 3.78777 5.69829 3.98781 6.26408 4.13849C6.82986 4.28917 7.41416 4.3801 8.01697 4.41127C7.99581 4.30735 7.97731 4.20084 7.96144 4.09173C7.94558 3.98261 7.93765 3.8761 7.93765 3.77218C7.93765 3.0032 8.22319 2.34852 8.79427 1.80815C9.36534 1.26779 10.0528 0.997602 10.8565 0.997602C11.2795 0.997602 11.6734 1.07554 12.0383 1.23141C12.4032 1.38729 12.7231 1.60032 12.998 1.8705C13.3259 1.80815 13.6458 1.71982 13.9578 1.60552C14.2697 1.49121 14.5632 1.35612 14.8382 1.20024C14.7324 1.52238 14.5685 1.81595 14.3464 2.08094C14.1243 2.34592 13.8652 2.56155 13.5691 2.72782C13.8546 2.69664 14.1375 2.64468 14.4178 2.57194C14.698 2.4992 14.9704 2.40568 15.2348 2.29137C15.0444 2.57194 14.825 2.83433 14.5764 3.07854C14.3279 3.32274 14.0609 3.54357 13.7753 3.74101C13.7859 3.79297 13.7912 3.85012 13.7912 3.91247V4.09952C13.7912 5.01399 13.6114 5.94145 13.2518 6.88189C12.8923 7.82234 12.3609 8.67186 11.6576 9.43046C10.9543 10.189 10.0845 10.8074 9.04808 11.2854C8.01168 11.7634 6.82722 12.0024 5.49471 12.0024Z" fill="white"/>
</svg>
